# Blender v2.79 (sub 0) OBJ File: ''
# www.blender.org
mtllib boolet.mtl
o bodyModel
v -0.031250 0.031250 -0.093750
v -0.031250 0.031250 0.093750
v 0.031250 0.031250 0.093750
v 0.031250 0.031250 -0.093750
v 0.031250 -0.031250 -0.093750
v 0.031250 -0.031250 0.093750
v -0.031250 -0.031250 0.093750
v -0.031250 -0.031250 -0.093750
vt 0.312500 0.500000
vt 0.125000 0.500000
vt 0.125000 0.562500
vt 0.312500 0.562500
vt 0.312500 0.500000
vt 0.125000 0.500000
vt 0.125000 0.562500
vt 0.312500 0.562500
vt 0.312500 0.437500
vt 0.125000 0.437500
vt 0.125000 0.500000
vt 0.062500 0.500000
vt 0.062500 0.437500
vt 0.125000 0.437500
vt 0.250000 0.500000
vt 0.250000 0.437500
vn -0.0000 1.0000 -0.0000
vn 0.0000 -1.0000 0.0000
vn -1.0000 -0.0000 -0.0000
vn 1.0000 0.0000 0.0000
vn 0.0000 0.0000 1.0000
vn 0.0000 0.0000 -1.0000
usemtl ModelMaterial
s off
f 1/1/1 2/2/1 3/3/1 4/4/1
f 5/5/2 6/6/2 7/7/2 8/8/2
f 2/2/3 1/1/3 8/9/3 7/10/3
f 4/4/4 3/3/4 6/6/4 5/5/4
f 3/11/5 2/12/5 7/13/5 6/14/5
f 1/1/6 4/15/6 5/16/6 8/9/6
