# Made in Blockbench 4.5.2
mtllib bacontop.mtl

o bodyModel
v -1 0.1875 0.4375
v -0.4375 0.1875 0.4375
v -0.4375 0.1875 -0.4375
v -1 0.1875 -0.4375
v -1 0 -0.4375
v -0.4375 0 -0.4375
v -0.4375 0 0.4375
v -1 0 0.4375
v -0.4375 0.1875 1
v 0.4375 0.1875 1
v 0.4375 0.1875 0.4375
v -0.4375 0.1875 0.4375
v -0.4375 0 0.4375
v 0.4375 0 0.4375
v 0.4375 0 1
v -0.4375 0 1
v -0.4375 0.1875 -0.4375
v 0.4375 0.1875 -0.4375
v 0.4375 0.1875 -1
v -0.4375 0.1875 -1
v -0.4375 0 -1
v 0.4375 0 -1
v 0.4375 0 -0.4375
v -0.4375 0 -0.4375
v -1 0.1875 0.4375
v -0.4375 0.1875 1
v -0.4375 0.1875 0.4375
v -1 0.1875 0.4375
v -1 0 0.4375
v -0.4375 0 0.4375
v -0.4375 0 1
v -1 0 0.4375
v -1 0.1875 -0.4375
v -0.4375 0.1875 -0.4375
v -0.4375 0.1875 -1
v -1 0.1875 -0.4375
v -1 0 -0.4375
v -0.4375 0 -1
v -0.4375 0 -0.4375
v -1 0 -0.4375
v 0.4375 0.1875 -0.4375
v 1 0.1875 -0.4375
v 1 0.1875 -0.4375
v 0.4375 0.1875 -1
v 0.4375 0 -1
v 1 0 -0.4375
v 1 0 -0.4375
v 0.4375 0 -0.4375
v 0.4375 0.1875 1
v 1 0.1875 0.4375
v 1 0.1875 0.4375
v 0.4375 0.1875 0.4375
v 0.4375 0 0.4375
v 1 0 0.4375
v 1 0 0.4375
v 0.4375 0 1
v -0.4375 1.1875 0.4375
v 0.4375 1.1875 0.4375
v 0.4375 1.1875 -0.4375
v -0.4375 1.1875 -0.4375
v -0.4375 1 -0.4375
v 0.4375 1 -0.4375
v 0.4375 1 0.4375
v -0.4375 1 0.4375
v -0.4375 1 0.4375
v -0.4375 1 0.4375
v -0.4375 1 -0.4375
v -0.4375 1 -0.4375
v -1 0.1875 -0.4375
v -0.4375 0.1875 -0.4375
v -0.4375 0.1875 0.4375
v -1 0.1875 0.4375
v -0.4375 1 -0.4375
v 0.4375 1 -0.4375
v 0.4375 1 -0.4375
v -0.4375 1 -0.4375
v -0.4375 0.1875 -1
v 0.4375 0.1875 -1
v 0.4375 0.1875 -0.4375
v -0.4375 0.1875 -0.4375
v 0.4375 1 0.4375
v 0.4375 1 0.4375
v 0.4375 1 -0.4375
v 0.4375 1 -0.4375
v 0.4375 0.1875 -0.4375
v 1 0.1875 -0.4375
v 1 0.1875 0.4375
v 0.4375 0.1875 0.4375
v -0.4375 1 0.4375
v 0.4375 1 0.4375
v 0.4375 1 0.4375
v -0.4375 1 0.4375
v -0.4375 0.1875 0.4375
v 0.4375 0.1875 0.4375
v 0.4375 0.1875 1
v -0.4375 0.1875 1
v -0.4375 1 0.4375
v -0.4375 1 0.4375
v -0.4375 1 0.4375
v -0.4375 1 0.4375
v -1 0.1875 0.4375
v -0.4375 0.1875 0.4375
v -0.4375 0.1875 1
v -1 0.1875 0.4375
v -0.4375 1 -0.4375
v -0.4375 1 -0.4375
v -0.4375 1 -0.4375
v -0.4375 1 -0.4375
v -0.4375 0.1875 -1
v -0.4375 0.1875 -1
v -0.4375 0.1875 -0.4375
v -1 0.1875 -0.4375
v 0.4375 1 -0.4375
v 0.4375 1 -0.4375
v 0.4375 1 -0.4375
v 0.4375 1 -0.4375
v 0.4375 0.1875 -1
v 1 0.1875 -0.4375
v 1 0.1875 -0.4375
v 0.4375 0.1875 -0.4375
v 0.4375 1 0.4375
v 0.4375 1 0.4375
v 0.4375 1 0.4375
v 0.4375 1 0.4375
v 0.4375 0.1875 0.4375
v 1 0.1875 0.4375
v 0.4375 0.1875 1
v 0.4375 0.1875 1
v 0.4375 0.1875 0.4375
v 1 0.1875 0.4375
v 1 0.1875 -0.4375
v 0.4375 0.1875 -0.4375
v 0.4375 0 -0.4375
v 1 0 -0.4375
v 1 0 0.4375
v 0.4375 0 0.4375
v -0.4375 0.1875 0.4375
v 0.4375 0.1875 0.4375
v 0.4375 0.1875 -0.4375
v -0.4375 0.1875 -0.4375
v -0.4375 0 -0.4375
v 0.4375 0 -0.4375
v 0.4375 0 0.4375
v -0.4375 0 0.4375
vt 0.234375 0.5390625
vt 0.3046875 0.5390625
vt 0.3046875 0.6484375
vt 0.234375 0.6484375
vt 0.3125 0.5390625
vt 0.3828125 0.5390625
vt 0.3828125 0.6484375
vt 0.3125 0.6484375
vt 0.6875 0.96875
vt 0.6171875 0.96875
vt 0.6171875 0.9453125
vt 0.6875 0.9453125
vt 0.1796875 0.3828125
vt 0.109375 0.3828125
vt 0.109375 0.359375
vt 0.1796875 0.359375
vt 0.65625 0.921875
vt 0.546875 0.921875
vt 0.546875 0.8984375
vt 0.65625 0.8984375
vt 0.65625 0.7265625
vt 0.546875 0.7265625
vt 0.546875 0.703125
vt 0.65625 0.703125
vt 0.1171875 0.5546875
vt 0.2265625 0.5546875
vt 0.2265625 0.625
vt 0.1171875 0.625
vt 0 0.546875
vt 0.109375 0.546875
vt 0.109375 0.6171875
vt 0 0.6171875
vt 0.5546875 0.609375
vt 0.6640625 0.609375
vt 0.6640625 0.5859375
vt 0.5546875 0.5859375
vt 0.671875 0.5625
vt 0.5625 0.5625
vt 0.5625 0.5390625
vt 0.671875 0.5390625
vt 0.6953125 0.828125
vt 0.625 0.828125
vt 0.625 0.8046875
vt 0.6953125 0.8046875
vt 0.6953125 0.796875
vt 0.625 0.796875
vt 0.625 0.7734375
vt 0.6953125 0.7734375
vt 0.390625 0.6015625
vt 0.5 0.6015625
vt 0.5 0.671875
vt 0.390625 0.671875
vt 0.390625 0.5234375
vt 0.5 0.5234375
vt 0.5 0.59375
vt 0.390625 0.59375
vt 0.6796875 0.4296875
vt 0.5703125 0.4296875
vt 0.5703125 0.40625
vt 0.6796875 0.40625
vt 0.5859375 1
vt 0.6953125 1
vt 0.6953125 0.9765625
vt 0.5859375 0.9765625
vt 0.375 0.3671875
vt 0.3046875 0.3671875
vt 0.3046875 0.34375
vt 0.375 0.34375
vt 0.453125 0.3671875
vt 0.3828125 0.3671875
vt 0.3828125 0.34375
vt 0.453125 0.34375
vt 0.2734375 0.53125
vt 0.34375 0.4609375
vt 0.34375 0.53125
vt 0.2734375 0.53125
vt 0.2734375 0.65625
vt 0.34375 0.65625
vt 0.34375 0.7265625
vt 0.2734375 0.65625
vt 0.703125 0.46875
vt 0.6015625 0.46875
vt 0.6015625 0.4453125
vt 0.703125 0.4453125
vt 0.53125 0.3671875
vt 0.4609375 0.3671875
vt 0.4609375 0.34375
vt 0.53125 0.34375
vt 0.609375 0.3671875
vt 0.5390625 0.3671875
vt 0.5390625 0.34375
vt 0.609375 0.34375
vt 0 1
vt 0 1
vt 0 1
vt 0 1
vt 0.4765625 0.453125
vt 0.546875 0.453125
vt 0.546875 0.5234375
vt 0.4765625 0.453125
vt 0.234375 0.765625
vt 0.3046875 0.6953125
vt 0.3046875 0.765625
vt 0.234375 0.765625
vt 0.6875 0.3671875
vt 0.6171875 0.3671875
vt 0.6171875 0.34375
vt 0.6875 0.34375
vt 0.703125 0.3984375
vt 0.6015625 0.3984375
vt 0.6015625 0.375
vt 0.703125 0.375
vt 0.2578125 0.359375
vt 0.1875 0.359375
vt 0.1875 0.3359375
vt 0.2578125 0.3359375
vt 0 1
vt 0 1
vt 0 1
vt 0 1
vt 0.390625 0.4453125
vt 0.4609375 0.4453125
vt 0.4609375 0.4453125
vt 0.390625 0.515625
vt 0.4140625 0.7421875
vt 0.3515625 0.7421875
vt 0.3515625 0.6796875
vt 0.4140625 0.6796875
vt 0.0703125 0.3515625
vt 0 0.3515625
vt 0 0.328125
vt 0.0703125 0.328125
vt 0.296875 0.390625
vt 0.1953125 0.390625
vt 0.1953125 0.3671875
vt 0.296875 0.3671875
vt 0 1
vt 0 1
vt 0 1
vt 0 1
vt 0.1484375 0.3515625
vt 0.078125 0.3515625
vt 0.078125 0.328125
vt 0.1484375 0.328125
vt 0.5078125 0.6171875
vt 0.578125 0.6875
vt 0.578125 0.6875
vt 0.5078125 0.6875
vt 0.390625 0.6015625
vt 0.390625 0.6328125
vt 0.390625 0.6640625
vt 0.453125 0.6015625
vt 0.1015625 0.3828125
vt 0 0.3828125
vt 0 0.359375
vt 0.1015625 0.359375
vt 0.734375 0.9375
vt 0.6640625 0.9375
vt 0.6640625 0.9140625
vt 0.734375 0.9140625
vt 0 1
vt 0 1
vt 0 1
vt 0 1
vt 0.3359375 0.3359375
vt 0.265625 0.3359375
vt 0.265625 0.3125
vt 0.3359375 0.3125
vt 0.234375 0.890625
vt 0.34375 0.890625
vt 0.34375 1
vt 0.234375 1
vt 0.234375 0.7734375
vt 0.34375 0.7734375
vt 0.34375 0.8828125
vt 0.234375 0.8828125
vt 0.1875 0.4140625
vt 0.078125 0.4140625
vt 0.078125 0.390625
vt 0.1875 0.390625
vt 0.6953125 0.890625
vt 0.5859375 0.890625
vt 0.5859375 0.8671875
vt 0.6953125 0.8671875
vt 0.6953125 0.859375
vt 0.5859375 0.859375
vt 0.5859375 0.8359375
vt 0.6953125 0.8359375
vt 0.6953125 0.6953125
vt 0.5859375 0.6953125
vt 0.5859375 0.671875
vt 0.6953125 0.671875
vt 0 0.890625
vt 0 0.890625
vt 0 1
vt 0 1
vt 0.1171875 0.4375
vt 0.1875 0.4375
vt 0.1875 0.546875
vt 0.1171875 0.546875
vt 0.0703125 1
vt 0.0703125 1
vt 0 1
vt 0.0703125 1
vt 0.0703125 1
vt 0.0703125 1
vt 0.0703125 1
vt 0 1
vt 0.2265625 0.734375
vt 0.1171875 0.734375
vt 0.1171875 0.6328125
vt 0.2265625 0.6328125
vt 0.109375 0.8671875
vt 0 0.8671875
vt 0 0.7421875
vt 0.109375 0.7421875
vt 0 1
vt 0.109375 1
vt 0.109375 1
vt 0 1
vt 0 0.46875
vt 0.109375 0.46875
vt 0.109375 0.5390625
vt 0 0.5390625
vt 0.4609375 1
vt 0.3515625 1
vt 0.3515625 0.8984375
vt 0.4609375 0.8984375
vt 0.109375 1
vt 0 1
vt 0 0.875
vt 0.109375 0.875
vt 0 0.9296875
vt 0 0.9296875
vt 0 0.9296875
vt 0 1
vt 0 0.9296875
vt 0 0.9296875
vt 0 1
vt 0 0.9296875
vt 0 0.890625
vt 0 0.890625
vt 0 1
vt 0 1
vt 0.46875 0.890625
vt 0.5390625 0.890625
vt 0.5390625 1
vt 0.46875 1
vt 0 1
vt 0 1
vt 0 1
vt 0.0703125 1
vt 0 1
vt 0 1
vt 0.0703125 1
vt 0 1
vt 0.2265625 0.8671875
vt 0.1171875 0.8671875
vt 0.1171875 0.7421875
vt 0.2265625 0.7421875
vt 0.4609375 0.890625
vt 0.3515625 0.890625
vt 0.3515625 0.7890625
vt 0.4609375 0.7890625
vt 0 1
vt 0.109375 1
vt 0.109375 1
vt 0 1
vt 0.46875 0.8125
vt 0.578125 0.8125
vt 0.578125 0.8828125
vt 0.46875 0.8828125
vt 0.2265625 1
vt 0.1171875 1
vt 0.1171875 0.875
vt 0.2265625 0.875
vt 0.4609375 0.78125
vt 0.3515625 0.78125
vt 0.3515625 0.6796875
vt 0.4609375 0.6796875
vt 0 1
vt 0 1
vt 0 0.9296875
vt 0 1
vt 0 1
vt 0 1
vt 0 1
vt 0 0.9296875
vt 0 1
vt 0 1
vt 0 1
vt 0 1
vt 0.5078125 0.5859375
vt 0.578125 0.5859375
vt 0.578125 0.65625
vt 0.5078125 0.5859375
vt 0.1796875 0.4765625
vt 0.1796875 0.5
vt 0.1171875 0.5078125
vt 0.1171875 0.4453125
vt 0.0703125 1
vt 0.0703125 1
vt 0.0703125 1
vt 0 1
vt 0 1
vt 0 1
vt 0 0.9296875
vt 0 1
vt 0.0703125 1
vt 0.0703125 1
vt 0 1
vt 0 1
vt 0 1
vt 0 1
vt 0 1
vt 0 1
vt 0.0703125 0.4609375
vt 0.0703125 0.4609375
vt 0.0703125 0.390625
vt 0 0.390625
vt 0.0703125 1
vt 0.0703125 1
vt 0 1
vt 0.0703125 1
vt 0 0.9296875
vt 0 0.9296875
vt 0 1
vt 0 1
vt 0 0.9296875
vt 0 0.9296875
vt 0 0.9296875
vt 0 1
vt 0.1796875 0.4765625
vt 0.1796875 0.5078125
vt 0.1171875 0.5078125
vt 0.1171875 0.4453125
vt 0 1
vt 0 1
vt 0 1
vt 0 1
vt 0.40625 0.4765625
vt 0.4765625 0.40625
vt 0.4765625 0.40625
vt 0.40625 0.40625
vt 0 1
vt 0 1
vt 0 1
vt 0.0703125 1
vt 0.1796875 0.4765625
vt 0.1796875 0.5078125
vt 0.1171875 0.5078125
vt 0.1171875 0.4453125
vt 0 1
vt 0 1
vt 0.0703125 1
vt 0.0703125 1
vt 0 0.9296875
vt 0 0.9296875
vt 0 1
vt 0 0.9296875
vt 0 1
vt 0 1
vt 0 1
vt 0 1
vt 0.546875 0.9296875
vt 0.6171875 0.9296875
vt 0.546875 1
vt 0.546875 1
vt 0 1
vt 0 1
vt 0 0.9296875
vt 0 0.9296875
vt 0 1
vt 0 1
vt 0.0703125 1
vt 0 1
vt 0.1796875 0.4765625
vt 0.1796875 0.5078125
vt 0.1171875 0.5078125
vt 0.1171875 0.4453125
vt 0 1
vt 0 1
vt 0 1
vt 0 0.9296875
vt 0.1953125 0.421875
vt 0.265625 0.421875
vt 0.265625 0.53125
vt 0.1953125 0.53125
vt 0.46875 0.6953125
vt 0.5390625 0.6953125
vt 0.5390625 0.8046875
vt 0.46875 0.8046875
vt 0.734375 0.7265625
vt 0.6640625 0.7265625
vt 0.6640625 0.703125
vt 0.734375 0.703125
vt 0.4140625 0.3359375
vt 0.34375 0.3359375
vt 0.34375 0.3125
vt 0.4140625 0.3125
vt 0.6953125 0.6640625
vt 0.5859375 0.6640625
vt 0.5859375 0.640625
vt 0.6953125 0.640625
vt 0.6953125 0.53125
vt 0.5859375 0.53125
vt 0.5859375 0.5078125
vt 0.6953125 0.5078125
vt 0.234375 0.65625
vt 0.34375 0.65625
vt 0.34375 0.765625
vt 0.234375 0.765625
vt 0 0.625
vt 0.109375 0.625
vt 0.109375 0.734375
vt 0 0.734375
vt 0.703125 0.7578125
vt 0.59375 0.7578125
vt 0.59375 0.734375
vt 0.703125 0.734375
vt 0.4765625 0.3984375
vt 0.3671875 0.3984375
vt 0.3671875 0.375
vt 0.4765625 0.375
vt 0.59375 0.3984375
vt 0.484375 0.3984375
vt 0.484375 0.375
vt 0.59375 0.375
vt 0.7109375 0.5
vt 0.6015625 0.5
vt 0.6015625 0.4765625
vt 0.7109375 0.4765625
vn 0 1 0
vn 0 -1 0
vn 0 0 1
vn 0 0 -1
vn 1 0 0
vn -1 0 0
vn 0 1 0
vn 0 -1 0
vn 0 0 1
vn 0 0 -1
vn 1 0 0
vn -1 0 0
vn 0 1 0
vn 0 -1 0
vn 0 0 1
vn 0 0 -1
vn 1 0 0
vn -1 0 0
vn 0 1 0
vn 0 -1 0
vn -0.7071067811865476 0 0.7071067811865476
vn 0 0 -1
vn 1 0 0
vn 0 0 0
vn 0 1 0
vn 0 -1 0
vn 0 0 1
vn -0.7071067811865476 0 -0.7071067811865476
vn 1 0 0
vn 0 0 0
vn 0 0 0
vn 0 0 0
vn 0 0 1
vn 0.7071067811865476 0 -0.7071067811865476
vn 0 0 0
vn -1 0 0
vn 0 0 0
vn 0 0 0
vn 0.7071067811865476 0 0.7071067811865476
vn 0 0 -1
vn 0 0 0
vn -1 0 0
vn 0 1 0
vn 0 -1 0
vn 0 0 1
vn 0 0 -1
vn 1 0 0
vn -1 0 0
vn 0 0 0
vn 0 -1 0
vn 0 0 0
vn 0 0 0
vn 1 0 0
vn -0.8221921916437787 0.5692099788303083 0
vn 0 0 0
vn 0 -1 0
vn 0 0 1
vn 0 0.5692099788303083 -0.8221921916437787
vn 0 0 0
vn 0 0 0
vn 0 0 0
vn 0 -1 0
vn 0 0 0
vn 0 0 0
vn 0.8221921916437787 0.5692099788303083 0
vn -1 0 0
vn 0 0 0
vn 0 -1 0
vn 0 0.5692099788303083 0.8221921916437787
vn 0 0 -1
vn 0 0 0
vn 0 0 0
vn 0 0 0
vn 0 -1 0
vn 0 0 0
vn 0 0 0
vn 0 0 0
vn 0 0 0
vn 0 0 0
vn 0 0 0
vn 0 0 0
vn 0 0 0
vn 0 0 0
vn 0 0 0
vn 0 0 0
vn 0 0 0
vn 0 0 0
vn 0 0 0
vn 0 0 0
vn 0 0 0
vn 0 0 0
vn 0 -1 0
vn 0 0 0
vn 0 0 0
vn 0 0 0
vn 0 0 0
vn 0 1 0
vn 0 -1 0
vn 0 0 1
vn 0 0 -1
vn 1 0 0
vn -1 0 0
vn 0 1 0
vn 0 -1 0
vn 0 0 1
vn 0 0 -1
vn 1 0 0
vn -1 0 0
usemtl m_3b62baf7-b79a-c7e5-1e94-68008e54a389
f 1/1/1 2/2/1 3/3/1 4/4/1
f 5/5/2 6/6/2 7/7/2 8/8/2
f 2/9/3 1/10/3 8/11/3 7/12/3
f 4/13/4 3/14/4 6/15/4 5/16/4
f 3/17/5 2/18/5 7/19/5 6/20/5
f 1/21/6 4/22/6 5/23/6 8/24/6
f 9/25/7 10/26/7 11/27/7 12/28/7
f 13/29/8 14/30/8 15/31/8 16/32/8
f 10/33/9 9/34/9 16/35/9 15/36/9
f 12/37/10 11/38/10 14/39/10 13/40/10
f 11/41/11 10/42/11 15/43/11 14/44/11
f 9/45/12 12/46/12 13/47/12 16/48/12
f 17/49/13 18/50/13 19/51/13 20/52/13
f 21/53/14 22/54/14 23/55/14 24/56/14
f 18/57/15 17/58/15 24/59/15 23/60/15
f 20/61/16 19/62/16 22/63/16 21/64/16
f 19/65/17 18/66/17 23/67/17 22/68/17
f 17/69/18 20/70/18 21/71/18 24/72/18
f 25/73/19 26/74/19 27/75/19 28/76/19
f 29/77/20 30/78/20 31/79/20 32/80/20
f 26/81/21 25/82/21 32/83/21 31/84/21
f 28/85/22 27/86/22 30/87/22 29/88/22
f 27/89/23 26/90/23 31/91/23 30/92/23
f 25/93/24 28/94/24 29/95/24 32/96/24
f 33/97/25 34/98/25 35/99/25 36/100/25
f 37/101/26 38/102/26 39/103/26 40/104/26
f 34/105/27 33/106/27 40/107/27 39/108/27
f 36/109/28 35/110/28 38/111/28 37/112/28
f 35/113/29 34/114/29 39/115/29 38/116/29
f 33/117/30 36/118/30 37/119/30 40/120/30
f 41/121/31 42/122/31 43/123/31 44/124/31
f 45/125/32 46/126/32 47/127/32 48/128/32
f 42/129/33 41/130/33 48/131/33 47/132/33
f 44/133/34 43/134/34 46/135/34 45/136/34
f 43/137/35 42/138/35 47/139/35 46/140/35
f 41/141/36 44/142/36 45/143/36 48/144/36
f 49/145/37 50/146/37 51/147/37 52/148/37
f 53/149/38 54/150/38 55/151/38 56/152/38
f 50/153/39 49/154/39 56/155/39 55/156/39
f 52/157/40 51/158/40 54/159/40 53/160/40
f 51/161/41 50/162/41 55/163/41 54/164/41
f 49/165/42 52/166/42 53/167/42 56/168/42
f 57/169/43 58/170/43 59/171/43 60/172/43
f 61/173/44 62/174/44 63/175/44 64/176/44
f 58/177/45 57/178/45 64/179/45 63/180/45
f 60/181/46 59/182/46 62/183/46 61/184/46
f 59/185/47 58/186/47 63/187/47 62/188/47
f 57/189/48 60/190/48 61/191/48 64/192/48
f 65/193/49 66/194/49 67/195/49 68/196/49
f 69/197/50 70/198/50 71/199/50 72/200/50
f 66/201/51 65/202/51 72/203/51 71/204/51
f 68/205/52 67/206/52 70/207/52 69/208/52
f 67/209/53 66/210/53 71/211/53 70/212/53
f 65/213/54 68/214/54 69/215/54 72/216/54
f 73/217/55 74/218/55 75/219/55 76/220/55
f 77/221/56 78/222/56 79/223/56 80/224/56
f 74/225/57 73/226/57 80/227/57 79/228/57
f 76/229/58 75/230/58 78/231/58 77/232/58
f 75/233/59 74/234/59 79/235/59 78/236/59
f 73/237/60 76/238/60 77/239/60 80/240/60
f 81/241/61 82/242/61 83/243/61 84/244/61
f 85/245/62 86/246/62 87/247/62 88/248/62
f 82/249/63 81/250/63 88/251/63 87/252/63
f 84/253/64 83/254/64 86/255/64 85/256/64
f 83/257/65 82/258/65 87/259/65 86/260/65
f 81/261/66 84/262/66 85/263/66 88/264/66
f 89/265/67 90/266/67 91/267/67 92/268/67
f 93/269/68 94/270/68 95/271/68 96/272/68
f 90/273/69 89/274/69 96/275/69 95/276/69
f 92/277/70 91/278/70 94/279/70 93/280/70
f 91/281/71 90/282/71 95/283/71 94/284/71
f 89/285/72 92/286/72 93/287/72 96/288/72
f 97/289/73 98/290/73 99/291/73 100/292/73
f 101/293/74 102/294/74 103/295/74 104/296/74
f 98/297/75 97/298/75 104/299/75 103/300/75
f 100/301/76 99/302/76 102/303/76 101/304/76
f 99/305/77 98/306/77 103/307/77 102/308/77
f 97/309/78 100/310/78 101/311/78 104/312/78
f 105/313/79 106/314/79 107/315/79 108/316/79
f 109/317/80 110/318/80 111/319/80 112/320/80
f 106/321/81 105/322/81 112/323/81 111/324/81
f 108/325/82 107/326/82 110/327/82 109/328/82
f 107/329/83 106/330/83 111/331/83 110/332/83
f 105/333/84 108/334/84 109/335/84 112/336/84
f 113/337/85 114/338/85 115/339/85 116/340/85
f 117/341/86 118/342/86 119/343/86 120/344/86
f 114/345/87 113/346/87 120/347/87 119/348/87
f 116/349/88 115/350/88 118/351/88 117/352/88
f 115/353/89 114/354/89 119/355/89 118/356/89
f 113/357/90 116/358/90 117/359/90 120/360/90
f 121/361/91 122/362/91 123/363/91 124/364/91
f 125/365/92 126/366/92 127/367/92 128/368/92
f 122/369/93 121/370/93 128/371/93 127/372/93
f 124/373/94 123/374/94 126/375/94 125/376/94
f 123/377/95 122/378/95 127/379/95 126/380/95
f 121/381/96 124/382/96 125/383/96 128/384/96
f 129/385/97 130/386/97 131/387/97 132/388/97
f 133/389/98 134/390/98 135/391/98 136/392/98
f 130/393/99 129/394/99 136/395/99 135/396/99
f 132/397/100 131/398/100 134/399/100 133/400/100
f 131/401/101 130/402/101 135/403/101 134/404/101
f 129/405/102 132/406/102 133/407/102 136/408/102
f 137/409/103 138/410/103 139/411/103 140/412/103
f 141/413/104 142/414/104 143/415/104 144/416/104
f 138/417/105 137/418/105 144/419/105 143/420/105
f 140/421/106 139/422/106 142/423/106 141/424/106
f 139/425/107 138/426/107 143/427/107 142/428/107
f 137/429/108 140/430/108 141/431/108 144/432/108