# Blender v2.79 (sub 0) OBJ File: ''
# www.blender.org
mtllib crashbarrier.mtl
o barrier
v 0.500000 0.812500 -0.062500
v -0.500000 0.812500 -0.062500
v -0.500000 0.843750 -0.062500
v 0.500000 0.843750 -0.062500
v -0.500000 0.812500 0.062500
v 0.500000 0.812500 0.062500
v 0.500000 0.843750 0.062500
v -0.500000 0.843750 0.062500
v 0.500000 0.500000 0.125000
v 0.500000 0.500000 -0.125000
v -0.500000 0.500000 -0.125000
v -0.500000 0.500000 0.125000
v 0.500000 0.250000 0.125000
v 0.500000 0.250000 -0.125000
v -0.500000 0.250000 -0.125000
v -0.500000 0.250000 0.125000
v 0.500000 0.250000 0.156250
v 0.500000 0.250000 -0.156250
v -0.500000 0.250000 -0.156250
v -0.500000 0.250000 0.156250
v 0.500000 0.156250 0.156250
v 0.500000 0.156250 -0.156250
v -0.500000 0.156250 -0.156250
v -0.500000 0.156250 0.156250
v 0.500000 0.062500 0.281250
v 0.500000 0.062500 -0.281250
v -0.500000 0.062500 -0.281250
v -0.500000 0.062500 0.281250
v 0.500000 -0.000000 0.281250
v 0.500000 -0.000000 -0.281250
v -0.500000 0.000000 -0.281250
v -0.500000 0.000000 0.281250
v 0.500000 0.156250 0.218750
v 0.500000 0.156250 -0.218750
v -0.500000 0.156250 -0.218750
v -0.500000 0.156250 0.218750
v 0.500000 0.062500 0.218750
v 0.500000 0.062500 -0.218750
v -0.500000 0.062500 -0.218750
v -0.500000 0.062500 0.218750
v 0.500000 0.812500 0.093750
v 0.500000 0.812500 -0.093750
v -0.500000 0.812500 -0.093750
v -0.500000 0.812500 0.093750
v 0.500000 0.500000 0.093750
v 0.500000 0.500000 -0.093750
v -0.500000 0.500000 -0.093750
v -0.500000 0.500000 0.093750
vt 0.000000 0.812500
vt 1.000000 0.812500
vt 1.000000 0.843750
vt 0.000000 0.843750
vt 0.000000 0.812500
vt 1.000000 0.812500
vt 1.000000 0.843750
vt 0.000000 0.843750
vt 0.406250 0.812500
vt 0.531250 0.812500
vt 0.531250 0.843750
vt 0.406250 0.843750
vt 0.406250 0.812500
vt 0.531250 0.812500
vt 0.531250 0.843750
vt 0.406250 0.843750
vt 0.375000 0.000000
vt 0.625000 0.000000
vt 0.625000 1.000000
vt 0.375000 1.000000
vt 0.343750 0.250000
vt 0.593750 0.250000
vt 0.593750 0.500000
vt 0.343750 0.500000
vt 0.343750 0.250000
vt 0.593750 0.250000
vt 0.593750 0.500000
vt 0.343750 0.500000
vt 0.000000 0.250000
vt 1.000000 0.250000
vt 1.000000 0.500000
vt 0.000000 0.500000
vt 0.000000 0.250000
vt 1.000000 0.250000
vt 1.000000 0.500000
vt 0.000000 0.500000
vt 0.343750 0.000000
vt 0.656250 0.000000
vt 0.656250 1.000000
vt 0.343750 1.000000
vt 0.437500 0.000000
vt 0.562500 0.000000
vt 0.562500 1.000000
vt 0.437500 1.000000
vt 0.312500 0.156250
vt 0.625000 0.156250
vt 0.625000 0.250000
vt 0.312500 0.250000
vt 0.000000 0.156250
vt 1.000000 0.156250
vt 1.000000 0.250000
vt 0.000000 0.250000
vt 0.312500 0.156250
vt 0.625000 0.156250
vt 0.625000 0.250000
vt 0.312500 0.250000
vt 0.187500 0.000000
vt 0.750000 0.000000
vt 0.750000 1.000000
vt 0.187500 1.000000
vt 0.000000 0.156250
vt 1.000000 0.156250
vt 1.000000 0.250000
vt 0.000000 0.250000
vt 0.187500 0.000000
vt 0.750000 0.000000
vt 0.750000 0.062500
vt 0.187500 0.062500
vt 0.000000 0.000000
vt 1.000000 0.000000
vt 1.000000 0.062500
vt 0.000000 0.062500
vt 0.187500 0.000000
vt 0.750000 0.000000
vt 0.750000 0.062500
vt 0.187500 0.062500
vt 0.250000 0.000000
vt 0.687500 0.000000
vt 0.687500 1.000000
vt 0.250000 1.000000
vt 0.187500 0.000000
vt 0.750000 0.000000
vt 0.750000 1.000000
vt 0.187500 1.000000
vt 0.000000 0.000000
vt 1.000000 0.000000
vt 1.000000 0.062500
vt 0.000000 0.062500
vt 0.250000 0.062500
vt 0.687500 0.062500
vt 0.687500 0.156250
vt 0.250000 0.156250
vt 0.000000 0.062500
vt 1.000000 0.062500
vt 1.000000 0.156250
vt 0.000000 0.156250
vt 0.250000 0.062500
vt 0.687500 0.062500
vt 0.687500 0.156250
vt 0.250000 0.156250
vt 0.406250 0.000000
vt 0.593750 0.000000
vt 0.593750 1.000000
vt 0.406250 1.000000
vt 0.000000 0.062500
vt 1.000000 0.062500
vt 1.000000 0.156250
vt 0.000000 0.156250
vt 0.375000 0.500000
vt 0.562500 0.500000
vt 0.562500 0.812500
vt 0.375000 0.812500
vt 0.000000 0.500000
vt 1.000000 0.500000
vt 1.000000 0.812500
vt 0.000000 0.812500
vt 0.375000 0.500000
vt 0.562500 0.500000
vt 0.562500 0.812500
vt 0.375000 0.812500
vt 0.000000 0.500000
vt 1.000000 0.500000
vt 1.000000 0.812500
vt 0.000000 0.812500
vn -0.0000 0.0000 -1.0000
vn 0.0000 0.0000 1.0000
vn -1.0000 0.0000 0.0000
vn 1.0000 0.0000 0.0000
vn 0.0000 1.0000 0.0000
vn -0.0000 -1.0000 0.0000
usemtl 0
s 1
f 1/1/1 2/2/1 3/3/1 4/4/1
f 5/5/2 6/6/2 7/7/2 8/8/2
f 2/9/3 5/10/3 8/11/3 3/12/3
f 6/13/4 1/14/4 4/15/4 7/16/4
f 9/17/5 10/18/5 11/19/5 12/20/5
f 13/21/4 14/22/4 10/23/4 9/24/4
f 15/25/3 16/26/3 12/27/3 11/28/3
f 14/29/1 15/30/1 11/31/1 10/32/1
f 16/33/2 13/34/2 9/35/2 12/36/2
f 17/37/5 18/38/5 19/39/5 20/40/5
f 7/41/5 4/42/5 3/43/5 8/44/5
f 21/45/4 22/46/4 18/47/4 17/48/4
f 22/49/1 23/50/1 19/51/1 18/52/1
f 23/53/3 24/54/3 20/55/3 19/56/3
f 25/57/5 26/58/5 27/59/5 28/60/5
f 24/61/2 21/62/2 17/63/2 20/64/2
f 29/65/4 30/66/4 26/67/4 25/68/4
f 30/69/1 31/70/1 27/71/1 26/72/1
f 31/73/3 32/74/3 28/75/3 27/76/3
f 33/77/5 34/78/5 35/79/5 36/80/5
f 32/81/6 31/82/6 30/83/6 29/84/6
f 32/85/2 29/86/2 25/87/2 28/88/2
f 37/89/4 38/90/4 34/91/4 33/92/4
f 38/93/1 39/94/1 35/95/1 34/96/1
f 39/97/3 40/98/3 36/99/3 35/100/3
f 41/101/5 42/102/5 43/103/5 44/104/5
f 40/105/2 37/106/2 33/107/2 36/108/2
f 45/109/4 46/110/4 42/111/4 41/112/4
f 46/113/1 47/114/1 43/115/1 42/116/1
f 47/117/3 48/118/3 44/119/3 43/120/3
f 48/121/2 45/122/2 41/123/2 44/124/2
