# Made in Blockbench 4.9.4
mtllib fluidloader.mtl

o FluidLoader
v 1 1.5 -1
v 1 0.5 -1
v -1 1.5 -1
v -1 0.5 -1
v -1 1.5 0
v -1 0.5 0
v 1 1.5 0
v 1 0.5 0
v 0.5 0.375 0.5
v 0.5 0.25 0.5
v 0 0.375 0.5
v 0 0.25 0.5
v 0 0.375 0.625
v 0 0.25 0.625
v 0.5 0.375 0.625
v 0.5 0.25 0.625
v 1 0.25 -1
v 1 0 -1
v -1 0.25 -1
v -1 0 -1
v -1 0.25 1
v -1 0 1
v 1 0.25 1
v 1 0 1
v -0.75 0.3125 0.3125
v -0.75 0.25 0.3125
v -0.8125 0.3125 0.3125
v -0.8125 0.25 0.3125
v -0.8125 0.3125 0.6875
v -0.8125 0.25 0.6875
v -0.75 0.3125 0.6875
v -0.75 0.25 0.6875
v -0.875 1.375 0.0625
v -0.875 1.1875 0.0625
v -0.6875 1.375 0.0625
v -0.6875 1.1875 0.0625
v -0.875 1.375 0
v -0.6875 1.375 0
v -0.6875 1.1875 0
v -0.875 1.1875 0
v 0 0.75 0.25
v 0 0.25 0.25
v -0.375 0.75 0.25
v -0.375 0.25 0.25
v -0.375 0.75 0.75
v -0.375 0.25 0.75
v 0 0.75 0.75
v 0 0.25 0.75
v 0.875 0.5 -0.875
v 0.875 0.25 -0.875
v 0.75 0.5 -0.875
v 0.75 0.25 -0.875
v 0.75 0.5 -0.75
v 0.75 0.25 -0.75
v 0.875 0.5 -0.75
v 0.875 0.25 -0.75
v -0.375 0.6875 0.3125
v -0.375 0.3125 0.3125
v -0.875 0.6875 0.3125
v -0.875 0.3125 0.3125
v -0.875 0.6875 0.6875
v -0.875 0.3125 0.6875
v -0.375 0.6875 0.6875
v -0.375 0.3125 0.6875
v -0.75 0.5 -0.25
v -0.75 0.25 -0.25
v -0.875 0.5 -0.25
v -0.875 0.25 -0.25
v -0.875 0.5 -0.125
v -0.875 0.25 -0.125
v -0.75 0.5 -0.125
v -0.75 0.25 -0.125
v 0.71875 2.5 0.46875
v 0.71875 0.5 0.46875
v 0.53125 2.5 0.46875
v 0.53125 0.5 0.46875
v 0.53125 2.5 0.65625
v 0.53125 0.5 0.65625
v 0.71875 2.5 0.65625
v 0.71875 0.5 0.65625
v 0.75 0.5 0.4375
v 0.75 0.25 0.4375
v 0.5 0.5 0.4375
v 0.5 0.25 0.4375
v 0.5 0.5 0.6875
v 0.5 0.25 0.6875
v 0.75 0.5 0.6875
v 0.75 0.25 0.6875
v 0.532813 2.787013 1.16166
v 0.717188 2.787013 1.16166
v 0.532813 2.5 0.46875
v 0.717188 2.5 0.46875
v 0.717188 2.613785 1.233413
v 0.532813 2.613785 1.233413
v 0.717188 2.326773 0.540503
v 0.532813 2.326773 0.540503
v 0.71875 2.787013 1.16166
v 0.71875 2.65443 1.029077
v 0.53125 2.787013 1.16166
v 0.53125 2.65443 1.029077
v 0.53125 2.610236 1.338436
v 0.53125 2.477653 1.205854
v 0.71875 2.610236 1.338436
v 0.71875 2.477653 1.205854
v 0.875 0.5 -0.25
v 0.875 0.25 -0.25
v 0.75 0.5 -0.25
v 0.75 0.25 -0.25
v 0.75 0.5 -0.125
v 0.75 0.25 -0.125
v 0.875 0.5 -0.125
v 0.875 0.25 -0.125
v -0.75 0.5 -0.875
v -0.75 0.25 -0.875
v -0.875 0.5 -0.875
v -0.875 0.25 -0.875
v -0.875 0.5 -0.75
v -0.875 0.25 -0.75
v -0.75 0.5 -0.75
v -0.75 0.25 -0.75
vt 0.25 1
vt 0.25 0.875
vt 0.5 1
vt 0.25 0.875
vt 0.5 0.875
vt 0.5 1
vt 0.25 0.875
vt 0.25 0.75
vt 0.5 0.875
vt 0.25 0.75
vt 0.5 0.75
vt 0.5 0.875
vt 0.375 0.5
vt 0.375 0.75
vt 0.25 0.5
vt 0.375 0.75
vt 0.25 0.75
vt 0.25 0.5
vt 0.5 0.75
vt 0.5 0.5
vt 0.375 0.75
vt 0.5 0.5
vt 0.375 0.5
vt 0.375 0.75
vt 0.5 1
vt 0.5 0.875
vt 0.625 1
vt 0.5 0.875
vt 0.625 0.875
vt 0.625 1
vt 0 0.5
vt 0 0.375
vt 0.125 0.5
vt 0 0.375
vt 0.125 0.375
vt 0.125 0.5
vt 0.445312 0.4375
vt 0.445312 0.421875
vt 0.507812 0.4375
vt 0.445312 0.421875
vt 0.507812 0.421875
vt 0.507812 0.4375
vt 0.570312 0.78125
vt 0.570312 0.765625
vt 0.632812 0.78125
vt 0.570312 0.765625
vt 0.632812 0.765625
vt 0.632812 0.78125
vt 0.585938 0.703125
vt 0.585938 0.765625
vt 0.570312 0.703125
vt 0.585938 0.765625
vt 0.570312 0.765625
vt 0.570312 0.703125
vt 0.585938 0.539062
vt 0.585938 0.47656199999999993
vt 0.570312 0.539062
vt 0.585938 0.47656199999999993
vt 0.570312 0.47656199999999993
vt 0.570312 0.539062
vt 0.585938 0.71875
vt 0.585938 0.703125
vt 0.601562 0.71875
vt 0.585938 0.703125
vt 0.601562 0.703125
vt 0.601562 0.71875
vt 0.570312 0.671875
vt 0.570312 0.65625
vt 0.585938 0.671875
vt 0.570312 0.65625
vt 0.585938 0.65625
vt 0.585938 0.671875
vt 0.5 0.875
vt 0.5 0.84375
vt 0.75 0.875
vt 0.5 0.84375
vt 0.75 0.84375
vt 0.75 0.875
vt 0.5 0.8125
vt 0.5 0.78125
vt 0.75 0.8125
vt 0.5 0.78125
vt 0.75 0.78125
vt 0.75 0.8125
vt 0.25 0.75
vt 0.25 1
vt 0 0.75
vt 0.25 1
vt 0 1
vt 0 0.75
vt 0.25 0.75
vt 0.25 0.5
vt 0 0.75
vt 0.25 0.5
vt 0 0.5
vt 0 0.75
vt 0.5 0.84375
vt 0.5 0.8125
vt 0.75 0.84375
vt 0.5 0.8125
vt 0.75 0.8125
vt 0.75 0.84375
vt 0.125 0.5
vt 0.125 0.46875
vt 0.375 0.5
vt 0.125 0.46875
vt 0.375 0.46875
vt 0.375 0.5
vt 0.5 0.507812
vt 0.5 0.5
vt 0.507812 0.507812
vt 0.5 0.5
vt 0.507812 0.5
vt 0.507812 0.507812
vt 0.585938 0.570312
vt 0.585938 0.5625
vt 0.59375 0.570312
vt 0.585938 0.5625
vt 0.59375 0.5625
vt 0.59375 0.570312
vt 0.570312 0.47656199999999993
vt 0.570312 0.46875
vt 0.617188 0.47656199999999993
vt 0.570312 0.46875
vt 0.617188 0.46875
vt 0.617188 0.47656199999999993
vt 0.523438 0.539062
vt 0.523438 0.53125
vt 0.570312 0.539062
vt 0.523438 0.53125
vt 0.570312 0.53125
vt 0.570312 0.539062
vt 0.585938 0.625
vt 0.585938 0.601562
vt 0.609375 0.625
vt 0.585938 0.601562
vt 0.609375 0.601562
vt 0.609375 0.625
vt 0.492188 0.375
vt 0.492188 0.39843800000000007
vt 0.484375 0.375
vt 0.492188 0.39843800000000007
vt 0.484375 0.39843800000000007
vt 0.484375 0.375
vt 0.5 0.39843800000000007
vt 0.5 0.375
vt 0.492188 0.39843800000000007
vt 0.5 0.375
vt 0.492188 0.375
vt 0.492188 0.39843800000000007
vt 0.476562 0.39843800000000007
vt 0.476562 0.375
vt 0.484375 0.39843800000000007
vt 0.476562 0.375
vt 0.484375 0.375
vt 0.484375 0.39843800000000007
vt 0.5 0.53125
vt 0.5 0.507812
vt 0.507812 0.53125
vt 0.5 0.507812
vt 0.507812 0.507812
vt 0.507812 0.53125
vt 0.523438 0.78125
vt 0.523438 0.71875
vt 0.570312 0.78125
vt 0.523438 0.71875
vt 0.570312 0.71875
vt 0.570312 0.78125
vt 0.523438 0.71875
vt 0.523438 0.65625
vt 0.570312 0.71875
vt 0.523438 0.65625
vt 0.570312 0.65625
vt 0.570312 0.71875
vt 0.585938 0.609375
vt 0.585938 0.65625
vt 0.523438 0.609375
vt 0.585938 0.65625
vt 0.523438 0.65625
vt 0.523438 0.609375
vt 0.507812 0.53125
vt 0.507812 0.46875
vt 0.570312 0.53125
vt 0.507812 0.46875
vt 0.570312 0.46875
vt 0.570312 0.53125
vt 0.445312 0.5
vt 0.445312 0.4375
vt 0.507812 0.5
vt 0.445312 0.4375
vt 0.507812 0.4375
vt 0.507812 0.5
vt 0.21875 0.40625
vt 0.21875 0.375
vt 0.234375 0.40625
vt 0.21875 0.375
vt 0.234375 0.375
vt 0.234375 0.40625
vt 0.25 0.40625
vt 0.25 0.375
vt 0.265625 0.40625
vt 0.25 0.375
vt 0.265625 0.375
vt 0.265625 0.40625
vt 0.234375 0.40625
vt 0.234375 0.375
vt 0.25 0.40625
vt 0.234375 0.375
vt 0.25 0.375
vt 0.25 0.40625
vt 0.203125 0.40625
vt 0.203125 0.375
vt 0.21875 0.40625
vt 0.203125 0.375
vt 0.21875 0.375
vt 0.21875 0.40625
vt 0.523438 0.609375
vt 0.523438 0.5625
vt 0.585938 0.609375
vt 0.523438 0.5625
vt 0.585938 0.5625
vt 0.585938 0.609375
vt 0.125 0.46875
vt 0.125 0.421875
vt 0.1875 0.46875
vt 0.125 0.421875
vt 0.1875 0.421875
vt 0.1875 0.46875
vt 0.234375 0.40625
vt 0.234375 0.46875
vt 0.1875 0.40625
vt 0.234375 0.46875
vt 0.1875 0.46875
vt 0.1875 0.40625
vt 0.28125 0.46875
vt 0.28125 0.40625
vt 0.234375 0.46875
vt 0.28125 0.40625
vt 0.234375 0.40625
vt 0.234375 0.46875
vt 0.554688 0.44531199999999993
vt 0.554688 0.39843800000000007
vt 0.601562 0.44531199999999993
vt 0.554688 0.39843800000000007
vt 0.601562 0.39843800000000007
vt 0.601562 0.44531199999999993
vt 0.507812 0.44531199999999993
vt 0.507812 0.39843800000000007
vt 0.554688 0.44531199999999993
vt 0.507812 0.39843800000000007
vt 0.554688 0.39843800000000007
vt 0.554688 0.44531199999999993
vt 0.445312 0.39843800000000007
vt 0.445312 0.36718800000000007
vt 0.460938 0.39843800000000007
vt 0.445312 0.36718800000000007
vt 0.460938 0.36718800000000007
vt 0.460938 0.39843800000000007
vt 0.601562 0.539062
vt 0.601562 0.507812
vt 0.617188 0.539062
vt 0.601562 0.507812
vt 0.617188 0.507812
vt 0.617188 0.539062
vt 0.460938 0.39843800000000007
vt 0.460938 0.36718800000000007
vt 0.476562 0.39843800000000007
vt 0.460938 0.36718800000000007
vt 0.476562 0.36718800000000007
vt 0.476562 0.39843800000000007
vt 0.601562 0.601562
vt 0.601562 0.570312
vt 0.617188 0.601562
vt 0.601562 0.570312
vt 0.617188 0.570312
vt 0.617188 0.601562
vt 0.375 0.5
vt 0.375 0.25
vt 0.398438 0.5
vt 0.375 0.25
vt 0.398438 0.25
vt 0.398438 0.5
vt 0.421875 0.5
vt 0.421875 0.25
vt 0.445312 0.5
vt 0.421875 0.25
vt 0.445312 0.25
vt 0.445312 0.5
vt 0.609375 0.71875
vt 0.609375 0.742188
vt 0.585938 0.71875
vt 0.609375 0.742188
vt 0.585938 0.742188
vt 0.585938 0.71875
vt 0.398438 0.5
vt 0.398438 0.25
vt 0.421875 0.5
vt 0.398438 0.25
vt 0.421875 0.25
vt 0.421875 0.5
vt 0.5 0.78125
vt 0.5 0.53125
vt 0.523438 0.78125
vt 0.5 0.53125
vt 0.523438 0.53125
vt 0.523438 0.78125
vt 0.125 0.421875
vt 0.125 0.390625
vt 0.15625 0.421875
vt 0.125 0.390625
vt 0.15625 0.390625
vt 0.15625 0.421875
vt 0.28125 0.421875
vt 0.28125 0.390625
vt 0.3125 0.421875
vt 0.28125 0.390625
vt 0.3125 0.390625
vt 0.3125 0.421875
vt 0.34375 0.390625
vt 0.34375 0.421875
vt 0.3125 0.390625
vt 0.34375 0.421875
vt 0.3125 0.421875
vt 0.3125 0.390625
vt 0.15625 0.421875
vt 0.15625 0.390625
vt 0.1875 0.421875
vt 0.15625 0.390625
vt 0.1875 0.390625
vt 0.1875 0.421875
vt 0.570312 0.703125
vt 0.570312 0.671875
vt 0.601562 0.703125
vt 0.570312 0.671875
vt 0.601562 0.671875
vt 0.601562 0.703125
vt 0.601562 0.44531199999999993
vt 0.601562 0.46875
vt 0.507812 0.44531199999999993
vt 0.601562 0.46875
vt 0.507812 0.46875
vt 0.507812 0.44531199999999993
vt 0.375 0.44531199999999993
vt 0.375 0.421875
vt 0.28125 0.44531199999999993
vt 0.375 0.421875
vt 0.28125 0.421875
vt 0.28125 0.44531199999999993
vt 0.28125 0.46875
vt 0.28125 0.44531199999999993
vt 0.375 0.46875
vt 0.28125 0.44531199999999993
vt 0.375 0.44531199999999993
vt 0.375 0.46875
vt 0.523438 0.5625
vt 0.523438 0.539062
vt 0.617188 0.5625
vt 0.523438 0.539062
vt 0.617188 0.539062
vt 0.617188 0.5625
vt 0.585938 0.671875
vt 0.585938 0.648438
vt 0.609375 0.671875
vt 0.585938 0.648438
vt 0.609375 0.648438
vt 0.609375 0.671875
vt 0.585938 0.648438
vt 0.585938 0.625
vt 0.609375 0.648438
vt 0.585938 0.625
vt 0.609375 0.625
vt 0.609375 0.648438
vt 0.507812 0.39843800000000007
vt 0.507812 0.421875
vt 0.476562 0.39843800000000007
vt 0.507812 0.421875
vt 0.476562 0.421875
vt 0.476562 0.39843800000000007
vt 0.617188 0.765625
vt 0.617188 0.742188
vt 0.585938 0.765625
vt 0.617188 0.742188
vt 0.585938 0.742188
vt 0.585938 0.765625
vt 0.445312 0.421875
vt 0.445312 0.39843800000000007
vt 0.476562 0.421875
vt 0.445312 0.39843800000000007
vt 0.476562 0.39843800000000007
vt 0.476562 0.421875
vt 0.34375 0.421875
vt 0.34375 0.39843800000000007
vt 0.375 0.421875
vt 0.34375 0.39843800000000007
vt 0.375 0.39843800000000007
vt 0.375 0.421875
vt 0.601562 0.71875
vt 0.601562 0.6875
vt 0.617188 0.71875
vt 0.601562 0.6875
vt 0.617188 0.6875
vt 0.617188 0.71875
vt 0.359375 0.39843800000000007
vt 0.359375 0.36718800000000007
vt 0.375 0.39843800000000007
vt 0.359375 0.36718800000000007
vt 0.375 0.36718800000000007
vt 0.375 0.39843800000000007
vt 0.34375 0.39843800000000007
vt 0.34375 0.36718800000000007
vt 0.359375 0.39843800000000007
vt 0.34375 0.36718800000000007
vt 0.359375 0.36718800000000007
vt 0.359375 0.39843800000000007
vt 0.265625 0.40625
vt 0.265625 0.375
vt 0.28125 0.40625
vt 0.265625 0.375
vt 0.28125 0.375
vt 0.28125 0.40625
vt 0.585938 0.539062
vt 0.585938 0.507812
vt 0.601562 0.539062
vt 0.585938 0.507812
vt 0.601562 0.507812
vt 0.601562 0.539062
vt 0.1875 0.40625
vt 0.1875 0.375
vt 0.203125 0.40625
vt 0.1875 0.375
vt 0.203125 0.375
vt 0.203125 0.40625
vt 0.585938 0.507812
vt 0.585938 0.47656199999999993
vt 0.601562 0.507812
vt 0.585938 0.47656199999999993
vt 0.601562 0.47656199999999993
vt 0.601562 0.507812
vt 0.585938 0.601562
vt 0.585938 0.570312
vt 0.601562 0.601562
vt 0.585938 0.570312
vt 0.601562 0.570312
vt 0.601562 0.601562
vn 0 0 -1
vn 0 0 -1
vn 0 0 1
vn 0 0 1
vn 0 1 0
vn 0 1 0
vn 0 -1 0
vn 0 -1 0
vn 1 0 0
vn 1 0 0
vn -1 0 0
vn -1 0 0
vn 0 0 -1
vn 0 0 -1
vn 0 0 1
vn 0 0 1
vn 0 1 0
vn 0 1 0
vn 0 -1 0
vn 0 -1 0
vn 1 0 0
vn 1 0 0
vn -1 0 0
vn -1 0 0
vn 0 0 -1
vn 0 0 -1
vn 0 0 1
vn 0 0 1
vn 0 1 0
vn 0 1 0
vn 0 -1 0
vn 0 -1 0
vn 1 0 0
vn 1 0 0
vn -1 0 0
vn -1 0 0
vn 0 0 -1
vn 0 0 -1
vn 0 0 1
vn 0 0 1
vn 1 0 0
vn 1 0 0
vn -1 0 0
vn -1 0 0
vn 0 0 1
vn 0 0 1
vn 0 1 0
vn 0 1 0
vn 0 -1 0
vn 0 -1 0
vn 1 0 0
vn 1 0 0
vn -1 0 0
vn -1 0 0
vn 0 0 -1
vn 0 0 -1
vn 0 0 1
vn 0 0 1
vn 0 1 0
vn 0 1 0
vn 1 0 0
vn 1 0 0
vn -1 0 0
vn -1 0 0
vn 0 0 -1
vn 0 0 -1
vn 0 0 1
vn 0 0 1
vn 1 0 0
vn 1 0 0
vn -1 0 0
vn -1 0 0
vn 0 0 -1
vn 0 0 -1
vn 0 0 1
vn 0 0 1
vn 0 1 0
vn 0 1 0
vn 0 -1 0
vn 0 -1 0
vn 1 0 0
vn 1 0 0
vn -1 0 0
vn -1 0 0
vn 0 0 -1
vn 0 0 -1
vn 0 0 1
vn 0 0 1
vn 1 0 0
vn 1 0 0
vn -1 0 0
vn -1 0 0
vn 0 0 -1
vn 0 0 -1
vn 0 0 1
vn 0 0 1
vn 0 1 0
vn 0 1 0
vn 1 0 0
vn 1 0 0
vn -1 0 0
vn -1 0 0
vn 0 0 -1
vn 0 0 -1
vn 0 0 1
vn 0 0 1
vn 0 1 0
vn 0 1 0
vn 1 0 0
vn 1 0 0
vn -1 0 0
vn -1 0 0
vn 0 0.9238794002842073 -0.38268375158934237
vn 0 0.9238794002842073 -0.38268375158934237
vn 0 -0.9238798716882876 0.3826826135183481
vn 0 -0.9238798716882876 0.3826826135183481
vn 1 0 0
vn 1 0 0
vn -1 0 0
vn -1 0 0
vn 0 0.7071067811865476 -0.7071067811865476
vn 0 0.7071067811865476 -0.7071067811865476
vn 0 -0.7071041145144209 0.7071094478486175
vn 0 -0.7071041145144209 0.7071094478486175
vn 0 0.7071047811815098 0.7071087811859285
vn 0 0.7071047811815098 0.7071087811859285
vn 0 -0.7071067811865476 -0.7071067811865476
vn 0 -0.7071067811865476 -0.7071067811865476
vn 1 0 0
vn 1 0 0
vn -1 0 0
vn -1 0 0
vn 0 0 -1
vn 0 0 -1
vn 0 0 1
vn 0 0 1
vn 1 0 0
vn 1 0 0
vn -1 0 0
vn -1 0 0
vn 0 0 -1
vn 0 0 -1
vn 0 0 1
vn 0 0 1
vn 1 0 0
vn 1 0 0
vn -1 0 0
vn -1 0 0
usemtl none
f 1/1/1 2/2/1 3/3/1
f 2/4/2 4/5/2 3/6/2
f 5/7/3 6/8/3 7/9/3
f 6/10/4 8/11/4 7/12/4
f 5/13/5 7/14/5 3/15/5
f 7/16/6 1/17/6 3/18/6
f 8/19/7 6/20/7 2/21/7
f 6/22/8 4/23/8 2/24/8
f 7/25/9 8/26/9 1/27/9
f 8/28/10 2/29/10 1/30/10
f 3/31/11 4/32/11 5/33/11
f 4/34/12 6/35/12 5/36/12
f 9/37/13 10/38/13 11/39/13
f 10/40/14 12/41/14 11/42/14
f 13/43/15 14/44/15 15/45/15
f 14/46/16 16/47/16 15/48/16
f 13/49/17 15/50/17 11/51/17
f 15/52/18 9/53/18 11/54/18
f 16/55/19 14/56/19 10/57/19
f 14/58/20 12/59/20 10/60/20
f 15/61/21 16/62/21 9/63/21
f 16/64/22 10/65/22 9/66/22
f 11/67/23 12/68/23 13/69/23
f 12/70/24 14/71/24 13/72/24
f 17/73/25 18/74/25 19/75/25
f 18/76/26 20/77/26 19/78/26
f 21/79/27 22/80/27 23/81/27
f 22/82/28 24/83/28 23/84/28
f 21/85/29 23/86/29 19/87/29
f 23/88/30 17/89/30 19/90/30
f 24/91/31 22/92/31 18/93/31
f 22/94/32 20/95/32 18/96/32
f 23/97/33 24/98/33 17/99/33
f 24/100/34 18/101/34 17/102/34
f 19/103/35 20/104/35 21/105/35
f 20/106/36 22/107/36 21/108/36
f 25/109/37 26/110/37 27/111/37
f 26/112/38 28/113/38 27/114/38
f 29/115/39 30/116/39 31/117/39
f 30/118/40 32/119/40 31/120/40
f 31/121/41 32/122/41 25/123/41
f 32/124/42 26/125/42 25/126/42
f 27/127/43 28/128/43 29/129/43
f 28/130/44 30/131/44 29/132/44
f 33/133/45 34/134/45 35/135/45
f 34/136/46 36/137/46 35/138/46
f 33/139/47 35/140/47 37/141/47
f 35/142/48 38/143/48 37/144/48
f 36/145/49 34/146/49 39/147/49
f 34/148/50 40/149/50 39/150/50
f 35/151/51 36/152/51 38/153/51
f 36/154/52 39/155/52 38/156/52
f 37/157/53 40/158/53 33/159/53
f 40/160/54 34/161/54 33/162/54
f 41/163/55 42/164/55 43/165/55
f 42/166/56 44/167/56 43/168/56
f 45/169/57 46/170/57 47/171/57
f 46/172/58 48/173/58 47/174/58
f 45/175/59 47/176/59 43/177/59
f 47/178/60 41/179/60 43/180/60
f 47/181/61 48/182/61 41/183/61
f 48/184/62 42/185/62 41/186/62
f 43/187/63 44/188/63 45/189/63
f 44/190/64 46/191/64 45/192/64
f 49/193/65 50/194/65 51/195/65
f 50/196/66 52/197/66 51/198/66
f 53/199/67 54/200/67 55/201/67
f 54/202/68 56/203/68 55/204/68
f 55/205/69 56/206/69 49/207/69
f 56/208/70 50/209/70 49/210/70
f 51/211/71 52/212/71 53/213/71
f 52/214/72 54/215/72 53/216/72
f 57/217/73 58/218/73 59/219/73
f 58/220/74 60/221/74 59/222/74
f 61/223/75 62/224/75 63/225/75
f 62/226/76 64/227/76 63/228/76
f 61/229/77 63/230/77 59/231/77
f 63/232/78 57/233/78 59/234/78
f 64/235/79 62/236/79 58/237/79
f 62/238/80 60/239/80 58/240/80
f 63/241/81 64/242/81 57/243/81
f 64/244/82 58/245/82 57/246/82
f 59/247/83 60/248/83 61/249/83
f 60/250/84 62/251/84 61/252/84
f 65/253/85 66/254/85 67/255/85
f 66/256/86 68/257/86 67/258/86
f 69/259/87 70/260/87 71/261/87
f 70/262/88 72/263/88 71/264/88
f 71/265/89 72/266/89 65/267/89
f 72/268/90 66/269/90 65/270/90
f 67/271/91 68/272/91 69/273/91
f 68/274/92 70/275/92 69/276/92
f 73/277/93 74/278/93 75/279/93
f 74/280/94 76/281/94 75/282/94
f 77/283/95 78/284/95 79/285/95
f 78/286/96 80/287/96 79/288/96
f 77/289/97 79/290/97 75/291/97
f 79/292/98 73/293/98 75/294/98
f 79/295/99 80/296/99 73/297/99
f 80/298/100 74/299/100 73/300/100
f 75/301/101 76/302/101 77/303/101
f 76/304/102 78/305/102 77/306/102
f 81/307/103 82/308/103 83/309/103
f 82/310/104 84/311/104 83/312/104
f 85/313/105 86/314/105 87/315/105
f 86/316/106 88/317/106 87/318/106
f 85/319/107 87/320/107 83/321/107
f 87/322/108 81/323/108 83/324/108
f 87/325/109 88/326/109 81/327/109
f 88/328/110 82/329/110 81/330/110
f 83/331/111 84/332/111 85/333/111
f 84/334/112 86/335/112 85/336/112
f 89/337/113 90/338/113 91/339/113
f 90/340/114 92/341/114 91/342/114
f 93/343/115 94/344/115 95/345/115
f 94/346/116 96/347/116 95/348/116
f 90/349/117 93/350/117 92/351/117
f 93/352/118 95/353/118 92/354/118
f 91/355/119 96/356/119 89/357/119
f 96/358/120 94/359/120 89/360/120
f 97/361/121 98/362/121 99/363/121
f 98/364/122 100/365/122 99/366/122
f 101/367/123 102/368/123 103/369/123
f 102/370/124 104/371/124 103/372/124
f 101/373/125 103/374/125 99/375/125
f 103/376/126 97/377/126 99/378/126
f 104/379/127 102/380/127 98/381/127
f 102/382/128 100/383/128 98/384/128
f 103/385/129 104/386/129 97/387/129
f 104/388/130 98/389/130 97/390/130
f 99/391/131 100/392/131 101/393/131
f 100/394/132 102/395/132 101/396/132
f 105/397/133 106/398/133 107/399/133
f 106/400/134 108/401/134 107/402/134
f 109/403/135 110/404/135 111/405/135
f 110/406/136 112/407/136 111/408/136
f 111/409/137 112/410/137 105/411/137
f 112/412/138 106/413/138 105/414/138
f 107/415/139 108/416/139 109/417/139
f 108/418/140 110/419/140 109/420/140
f 113/421/141 114/422/141 115/423/141
f 114/424/142 116/425/142 115/426/142
f 117/427/143 118/428/143 119/429/143
f 118/430/144 120/431/144 119/432/144
f 119/433/145 120/434/145 113/435/145
f 120/436/146 114/437/146 113/438/146
f 115/439/147 116/440/147 117/441/147
f 116/442/148 118/443/148 117/444/148