# Made in Blockbench 4.9.4
mtllib fluidunloader.mtl

o FluidUnloader
v 0 0.75 0.75
v 0 0.75 0.25
v -0.375 0.75 0.25
v -0.375 0.75 0.75
v 0 0.25 0.75
v 0 0.25 0.25
v -0.375 0.25 0.25
v -0.375 0.25 0.75
v 0.717188 1.427801 0.970643
v 0.717188 1.427801 0.470643
v 0.532813 1.427801 0.470643
v 0.532813 1.427801 0.970643
v 0.532813 1.240301 0.970643
v 0.532813 1.240301 0.470643
v 0.717188 1.240301 0.470643
v 0.717188 1.240301 0.970643
v -0.375 0.6875 0.6875
v -0.375 0.6875 0.3125
v -0.875 0.6875 0.3125
v -0.875 0.6875 0.6875
v -0.875 0.3125 0.6875
v -0.875 0.3125 0.3125
v -0.375 0.3125 0.3125
v -0.375 0.3125 0.6875
v -0.75 0.25 -0.125
v -0.75 0.25 -0.25
v -0.75 0.5 -0.25
v -0.75 0.5 -0.125
v -0.875 0.25 -0.25
v -0.875 0.25 -0.125
v -0.875 0.5 -0.125
v -0.875 0.5 -0.25
v -0.75 0.25 0.6875
v -0.75 0.25 0.3125
v -0.75 0.3125 0.3125
v -0.75 0.3125 0.6875
v -0.8125 0.25 0.3125
v -0.8125 0.25 0.6875
v -0.8125 0.3125 0.6875
v -0.8125 0.3125 0.3125
v 1 1.5 0
v 1 1.5 -1
v -1 1.5 -1
v -1 1.5 0
v -1 0.5 0
v -1 0.5 -1
v 1 0.5 -1
v 1 0.5 0
v -0.875 1.1875 0.0625
v -0.875 1.1875 0
v -0.6875 1.1875 0
v -0.6875 1.1875 0.0625
v -0.6875 1.375 0
v -0.6875 1.375 0.0625
v -0.875 1.375 0.0625
v -0.875 1.375 0
v 0.71875 0.490301 0.470643
v 0.71875 1.240301 0.470643
v 0.71875 1.240301 0.658143
v 0.71875 0.490301 0.658143
v 0.53125 1.240301 0.470643
v 0.53125 0.490301 0.470643
v 0.53125 0.490301 0.658143
v 0.53125 1.240301 0.658143
v 0.875 0.25 -0.75
v 0.875 0.25 -0.875
v 0.875 0.5 -0.875
v 0.875 0.5 -0.75
v 0.75 0.25 -0.875
v 0.75 0.25 -0.75
v 0.75 0.5 -0.75
v 0.75 0.5 -0.875
v -0.75 0.25 -0.75
v -0.75 0.25 -0.875
v -0.75 0.5 -0.875
v -0.75 0.5 -0.75
v -0.875 0.25 -0.875
v -0.875 0.25 -0.75
v -0.875 0.5 -0.75
v -0.875 0.5 -0.875
v 0.71875 0.490301 0.470643
v 0.71875 1.240301 0.470643
v 0.71875 1.240301 0.658143
v 0.71875 0.490301 0.658143
v 0.53125 1.240301 0.470643
v 0.53125 0.490301 0.470643
v 0.53125 0.490301 0.658143
v 0.53125 1.240301 0.658143
v 0.5 0.375 0.625
v 0.5 0.375 0.5
v 0 0.375 0.5
v 0 0.375 0.625
v 0 0.25 0.625
v 0 0.25 0.5
v 0.5 0.25 0.5
v 0.5 0.25 0.625
v 0.875 0.25 -0.125
v 0.875 0.25 -0.25
v 0.875 0.5 -0.25
v 0.875 0.5 -0.125
v 0.75 0.25 -0.25
v 0.75 0.25 -0.125
v 0.75 0.5 -0.125
v 0.75 0.5 -0.25
v 1 0.25 1
v 1 0.25 -1
v -1 0.25 -1
v -1 0.25 1
v -1 0 1
v -1 0 -1
v 1 0 -1
v 1 0 1
v 0.75 0.5 0.6875
v 0.75 0.5 0.4375
v 0.5 0.5 0.4375
v 0.5 0.5 0.6875
v 0.75 0.25 0.6875
v 0.75 0.25 0.4375
v 0.5 0.25 0.4375
v 0.5 0.25 0.6875
v 0.53125 1.372884 0.838061
v 0.53125 1.54966 1.014838
v 0.53125 1.417078 1.14742
v 0.53125 1.240301 0.970643
v 0.71875 1.417078 1.14742
v 0.71875 1.240301 0.970643
v 0.71875 1.372884 0.838061
v 0.71875 1.54966 1.014838
vt 0.5625 0.59375
vt 0.5 0.59375
vt 0.5 0.546875
vt 0.5625 0.546875
vt 0.5 0.65625
vt 0.5625 0.65625
vt 0.5625 0.71875
vt 0.5 0.71875
vt 0.5 0.71875
vt 0.5625 0.71875
vt 0.5625 0.78125
vt 0.5 0.78125
vt 0.5 0.59375
vt 0.546875 0.59375
vt 0.546875 0.65625
vt 0.5 0.65625
vt 0.375 0.4375
vt 0.421875 0.4375
vt 0.421875 0.5
vt 0.375 0.5
vt 0.625 0.734375
vt 0.5625 0.734375
vt 0.5625 0.710938
vt 0.625 0.710938
vt 0.625 0.6875
vt 0.5625 0.6875
vt 0.5625 0.710938
vt 0.625 0.710938
vt 0.5625 0.734375
vt 0.625 0.734375
vt 0.625 0.757812
vt 0.5625 0.757812
vt 0.421875 0.42968800000000007
vt 0.484375 0.42968800000000007
vt 0.484375 0.453125
vt 0.421875 0.453125
vt 0.171875 0.39843800000000007
vt 0.195312 0.39843800000000007
vt 0.195312 0.421875
vt 0.171875 0.421875
vt 0.195312 0.39843800000000007
vt 0.21875 0.39843800000000007
vt 0.21875 0.421875
vt 0.195312 0.421875
vt 0.53125 0.5
vt 0.484375 0.5
vt 0.484375 0.4375
vt 0.53125 0.4375
vt 0.171875 0.40625
vt 0.125 0.40625
vt 0.125 0.46875
vt 0.171875 0.46875
vt 0.21875 0.421875
vt 0.265625 0.421875
vt 0.265625 0.46875
vt 0.21875 0.46875
vt 0.171875 0.421875
vt 0.21875 0.421875
vt 0.21875 0.46875
vt 0.171875 0.46875
vt 0.421875 0.453125
vt 0.484375 0.453125
vt 0.484375 0.5
vt 0.421875 0.5
vt 0.5 0.5
vt 0.5625 0.5
vt 0.5625 0.546875
vt 0.5 0.546875
vt 0.59375 0.53125
vt 0.609375 0.53125
vt 0.609375 0.5625
vt 0.59375 0.5625
vt 0.421875 0.375
vt 0.4375 0.375
vt 0.4375 0.40625
vt 0.421875 0.40625
vt 0.4375 0.375
vt 0.453125 0.375
vt 0.453125 0.40625
vt 0.4375 0.40625
vt 0.453125 0.375
vt 0.46875 0.375
vt 0.46875 0.40625
vt 0.453125 0.40625
vt 0.5625 0.65625
vt 0.609375 0.65625
vt 0.609375 0.664062
vt 0.5625 0.664062
vt 0.5625 0.664062
vt 0.609375 0.664062
vt 0.609375 0.671875
vt 0.5625 0.671875
vt 0.515625 0.42968800000000007
vt 0.523438 0.42968800000000007
vt 0.523438 0.4375
vt 0.515625 0.4375
vt 0.523438 0.42968800000000007
vt 0.53125 0.42968800000000007
vt 0.53125 0.4375
vt 0.523438 0.4375
vt 0.375 0.75
vt 0.25 0.75
vt 0.25 0.5
vt 0.375 0.5
vt 0.5 0.5
vt 0.375 0.5
vt 0.375 0.75
vt 0.5 0.75
vt 0.5 0.875
vt 0.625 0.875
vt 0.625 1
vt 0.5 1
vt 0 0.375
vt 0.125 0.375
vt 0.125 0.5
vt 0 0.5
vt 0.25 0.875
vt 0.5 0.875
vt 0.5 1
vt 0.25 1
vt 0.25 0.75
vt 0.5 0.75
vt 0.5 0.875
vt 0.25 0.875
vt 0.507812 0.38281199999999993
vt 0.5 0.38281199999999993
vt 0.5 0.40625
vt 0.507812 0.40625
vt 0.484375 0.38281199999999993
vt 0.492188 0.38281199999999993
vt 0.492188 0.40625
vt 0.484375 0.40625
vt 0.367188 0.38281199999999993
vt 0.375 0.38281199999999993
vt 0.375 0.40625
vt 0.367188 0.40625
vt 0.265625 0.39843800000000007
vt 0.289062 0.39843800000000007
vt 0.289062 0.421875
vt 0.265625 0.421875
vt 0.5 0.40625
vt 0.492188 0.40625
vt 0.492188 0.38281199999999993
vt 0.5 0.38281199999999993
vt 0.53125 0.42968800000000007
vt 0.625 0.42968800000000007
vt 0.625 0.453125
vt 0.53125 0.453125
vt 0.546875 0.609375
vt 0.640625 0.609375
vt 0.640625 0.632812
vt 0.546875 0.632812
vt 0.359375 0.44531199999999993
vt 0.265625 0.44531199999999993
vt 0.265625 0.421875
vt 0.359375 0.421875
vt 0.65625 0.757812
vt 0.5625 0.757812
vt 0.5625 0.78125
vt 0.65625 0.78125
vt 0.640625 0.632812
vt 0.640625 0.609375
vt 0.65625 0.78125
vt 0.53125 0.453125
vt 0.140625 0.375
vt 0.15625 0.375
vt 0.15625 0.40625
vt 0.140625 0.40625
vt 0.578125 0.39843800000000007
vt 0.59375 0.39843800000000007
vt 0.59375 0.42968800000000007
vt 0.578125 0.42968800000000007
vt 0.125 0.375
vt 0.140625 0.375
vt 0.140625 0.40625
vt 0.125 0.40625
vt 0.15625 0.375
vt 0.171875 0.375
vt 0.171875 0.40625
vt 0.15625 0.40625
vt 0.320312 0.390625
vt 0.335938 0.390625
vt 0.335938 0.421875
vt 0.320312 0.421875
vt 0.289062 0.390625
vt 0.304688 0.390625
vt 0.304688 0.421875
vt 0.289062 0.421875
vt 0.304688 0.390625
vt 0.320312 0.390625
vt 0.320312 0.421875
vt 0.304688 0.421875
vt 0.335938 0.390625
vt 0.351562 0.390625
vt 0.351562 0.421875
vt 0.335938 0.421875
vt 0.53125 0.47656199999999993
vt 0.625 0.47656199999999993
vt 0.625 0.5
vt 0.53125 0.5
vt 0.265625 0.44531199999999993
vt 0.359375 0.44531199999999993
vt 0.359375 0.46875
vt 0.265625 0.46875
vt 0.625 0.47656199999999993
vt 0.53125 0.47656199999999993
vt 0.53125 0.453125
vt 0.625 0.453125
vt 0.640625 0.632812
vt 0.546875 0.632812
vt 0.546875 0.65625
vt 0.640625 0.65625
vt 0.359375 0.46875
vt 0.359375 0.44531199999999993
vt 0.640625 0.65625
vt 0.53125 0.5
vt 0.375 0.46875
vt 0.359375 0.46875
vt 0.359375 0.40625
vt 0.375 0.40625
vt 0.390625 0.375
vt 0.375 0.375
vt 0.375 0.4375
vt 0.390625 0.4375
vt 0.59375 0.515625
vt 0.609375 0.515625
vt 0.609375 0.53125
vt 0.59375 0.53125
vt 0.46875 0.390625
vt 0.484375 0.390625
vt 0.484375 0.40625
vt 0.46875 0.40625
vt 0.546875 0.59375
vt 0.609375 0.59375
vt 0.609375 0.609375
vt 0.546875 0.609375
vt 0.5625 0.671875
vt 0.625 0.671875
vt 0.625 0.6875
vt 0.5625 0.6875
vt 0.40625 0.375
vt 0.421875 0.375
vt 0.421875 0.40625
vt 0.40625 0.40625
vt 0.351562 0.375
vt 0.367188 0.375
vt 0.367188 0.40625
vt 0.351562 0.40625
vt 0.390625 0.375
vt 0.40625 0.375
vt 0.40625 0.40625
vt 0.390625 0.40625
vt 0.59375 0.5625
vt 0.609375 0.5625
vt 0.609375 0.59375
vt 0.59375 0.59375
vt 0.25 1
vt 0 1
vt 0 0.75
vt 0.25 0.75
vt 0.25 0.5
vt 0 0.5
vt 0 0.75
vt 0.25 0.75
vt 0.5 0.8125
vt 0.75 0.8125
vt 0.75 0.84375
vt 0.5 0.84375
vt 0.125 0.46875
vt 0.375 0.46875
vt 0.375 0.5
vt 0.125 0.5
vt 0.5 0.84375
vt 0.75 0.84375
vt 0.75 0.875
vt 0.5 0.875
vt 0.5 0.78125
vt 0.75 0.78125
vt 0.75 0.8125
vt 0.5 0.8125
vt 0.515625 0.4375
vt 0.484375 0.4375
vt 0.484375 0.40625
vt 0.515625 0.40625
vt 0.5625 0.53125
vt 0.59375 0.53125
vt 0.59375 0.5625
vt 0.5625 0.5625
vt 0.390625 0.40625
vt 0.421875 0.40625
vt 0.421875 0.4375
vt 0.390625 0.4375
vt 0.5625 0.5625
vt 0.59375 0.5625
vt 0.59375 0.59375
vt 0.5625 0.59375
vt 0.5625 0.5
vt 0.59375 0.5
vt 0.59375 0.53125
vt 0.5625 0.53125
vt 0.425781 0.40234400000000003
vt 0.425781 0.43359400000000003
vt 0.449219 0.43359400000000003
vt 0.449219 0.40234400000000003
vt 0.542969 0.42968800000000007
vt 0.542969 0.42968800000000007
vt 0.542969 0.40625
vt 0.542969 0.40625
vt 0.550781 0.40625
vt 0.550781 0.40625
vt 0.550781 0.42968800000000007
vt 0.550781 0.42968800000000007
vt 0.21875 0.394532
vt 0.242188 0.394532
vt 0.242188 0.394532
vt 0.21875 0.394532
vt 0.480469 0.43359400000000003
vt 0.480469 0.40234400000000003
vt 0.457031 0.40234400000000003
vt 0.457031 0.43359400000000003
vt 0.36328125 0.45703099999999997
vt 0.36328125 0.43359349999999997
vt 0.33984424999999996 0.43359349999999997
vt 0.33984424999999996 0.45703099999999997
vn 0 1 0
vn 1 0 0
vn -1 0 0
vn 0 0 -1
vn 0 0 1
vn 0 1 0
vn 0 -1 0
vn 1 0 0
vn -1 0 0
vn 0 0 -1
vn 0 0 1
vn 0 1 0
vn 0 -1 0
vn 1 0 0
vn -1 0 0
vn 0 0 -1
vn 0 0 1
vn 1 0 0
vn -1 0 0
vn 0 0 -1
vn 0 0 1
vn 1 0 0
vn -1 0 0
vn 0 0 -1
vn 0 0 1
vn 0 1 0
vn 0 -1 0
vn 1 0 0
vn -1 0 0
vn 0 0 -1
vn 0 0 1
vn 0 -1 0
vn 1 0 0
vn -1 0 0
vn 0 0 1
vn 0 1 0
vn 1 0 0
vn -1 0 0
vn 0 0 1
vn 0 0 -1
vn 0 -1 0
vn 1 0 0
vn -1 0 0
vn 0 0 -1
vn 0 0 1
vn 1 0 0
vn -1 0 0
vn 0 0 -1
vn 0 0 1
vn 1 0 0
vn -1 0 0
vn 0 0 1
vn 0 0 -1
vn 0 -1 0
vn 0 1 0
vn 0 -1 0
vn 1 0 0
vn -1 0 0
vn 0 0 -1
vn 0 0 1
vn 1 0 0
vn -1 0 0
vn 0 0 -1
vn 0 0 1
vn 0 1 0
vn 0 -1 0
vn 1 0 0
vn -1 0 0
vn 0 0 -1
vn 0 0 1
vn 0 1 0
vn 1 0 0
vn -1 0 0
vn 0 0 -1
vn 0 0 1
vn 1 0 0
vn 0 0.7071067811865478 -0.7071067811865474
vn 0 -0.7071087811859285 0.7071047811815098
vn 0 0.7071041145144212 0.7071094478486172
vn -1 0 0
vn 0 0.7071067811865481 0.707106781186547
usemtl m_585c6e3c-c13e-467e-7892-124bceebccca
f 1/1/1 2/2/1 3/3/1 4/4/1
f 5/5/2 6/6/2 2/7/2 1/8/2
f 7/9/3 8/10/3 4/11/3 3/12/3
f 6/13/4 7/14/4 3/15/4 2/16/4
f 8/17/5 5/18/5 1/19/5 4/20/5
f 9/21/6 10/22/6 11/23/6 12/24/6
f 13/25/7 14/26/7 15/27/7 16/28/7
f 16/29/8 15/30/8 10/31/8 9/32/8
f 14/33/9 13/34/9 12/35/9 11/36/9
f 15/37/10 14/38/10 11/39/10 10/40/10
f 13/41/11 16/42/11 9/43/11 12/44/11
f 17/45/12 18/46/12 19/47/12 20/48/12
f 21/49/13 22/50/13 23/51/13 24/52/13
f 24/53/14 23/54/14 18/55/14 17/56/14
f 22/57/15 21/58/15 20/59/15 19/60/15
f 23/61/16 22/62/16 19/63/16 18/64/16
f 21/65/17 24/66/17 17/67/17 20/68/17
f 25/69/18 26/70/18 27/71/18 28/72/18
f 29/73/19 30/74/19 31/75/19 32/76/19
f 26/77/20 29/78/20 32/79/20 27/80/20
f 30/81/21 25/82/21 28/83/21 31/84/21
f 33/85/22 34/86/22 35/87/22 36/88/22
f 37/89/23 38/90/23 39/91/23 40/92/23
f 34/93/24 37/94/24 40/95/24 35/96/24
f 38/97/25 33/98/25 36/99/25 39/100/25
f 41/101/26 42/102/26 43/103/26 44/104/26
f 45/105/27 46/106/27 47/107/27 48/108/27
f 48/109/28 47/110/28 42/111/28 41/112/28
f 46/113/29 45/114/29 44/115/29 43/116/29
f 47/117/30 46/118/30 43/119/30 42/120/30
f 45/121/31 48/122/31 41/123/31 44/124/31
f 49/125/32 50/126/32 51/127/32 52/128/32
f 52/129/33 51/130/33 53/131/33 54/132/33
f 50/133/34 49/134/34 55/135/34 56/136/34
f 49/137/35 52/138/35 54/139/35 55/140/35
f 54/141/36 53/142/36 56/143/36 55/144/36
f 57/145/37 58/146/37 59/147/37 60/148/37
f 61/149/38 62/150/38 63/151/38 64/152/38
f 60/153/39 59/154/39 64/155/39 63/156/39
f 62/157/40 61/158/40 58/159/40 57/160/40
f 63/161/41 62/162/41 57/163/41 60/164/41
f 65/165/42 66/166/42 67/167/42 68/168/42
f 69/169/43 70/170/43 71/171/43 72/172/43
f 66/173/44 69/174/44 72/175/44 67/176/44
f 70/177/45 65/178/45 68/179/45 71/180/45
f 73/181/46 74/182/46 75/183/46 76/184/46
f 77/185/47 78/186/47 79/187/47 80/188/47
f 74/189/48 77/190/48 80/191/48 75/192/48
f 78/193/49 73/194/49 76/195/49 79/196/49
f 81/197/50 82/198/50 83/199/50 84/200/50
f 85/201/51 86/202/51 87/203/51 88/204/51
f 84/205/52 83/206/52 88/207/52 87/208/52
f 86/209/53 85/210/53 82/211/53 81/212/53
f 87/213/54 86/214/54 81/215/54 84/216/54
f 89/217/55 90/218/55 91/219/55 92/220/55
f 93/221/56 94/222/56 95/223/56 96/224/56
f 96/225/57 95/226/57 90/227/57 89/228/57
f 94/229/58 93/230/58 92/231/58 91/232/58
f 95/233/59 94/234/59 91/235/59 90/236/59
f 93/237/60 96/238/60 89/239/60 92/240/60
f 97/241/61 98/242/61 99/243/61 100/244/61
f 101/245/62 102/246/62 103/247/62 104/248/62
f 98/249/63 101/250/63 104/251/63 99/252/63
f 102/253/64 97/254/64 100/255/64 103/256/64
f 105/257/65 106/258/65 107/259/65 108/260/65
f 109/261/66 110/262/66 111/263/66 112/264/66
f 112/265/67 111/266/67 106/267/67 105/268/67
f 110/269/68 109/270/68 108/271/68 107/272/68
f 111/273/69 110/274/69 107/275/69 106/276/69
f 109/277/70 112/278/70 105/279/70 108/280/70
f 113/281/71 114/282/71 115/283/71 116/284/71
f 117/285/72 118/286/72 114/287/72 113/288/72
f 119/289/73 120/290/73 116/291/73 115/292/73
f 118/293/74 119/294/74 115/295/74 114/296/74
f 120/297/75 117/298/75 113/299/75 116/300/75
f 121/301/76 122/302/76 123/303/76 124/304/76
f 125/305/77 126/306/77 124/307/77 123/308/77
f 122/309/78 121/310/78 127/311/78 128/312/78
f 127/313/79 121/314/79 124/315/79 126/316/79
f 128/317/80 127/318/80 126/319/80 125/320/80
f 125/321/81 128/322/81 122/323/81 123/324/81