# Blender v2.79 (sub 0) OBJ File: ''
# www.blender.org
mtllib fuelpump.mtl
o cube
v 0.406250 0.062500 0.281250
v 0.406250 -0.000000 0.281250
v 0.406250 0.062500 -0.281250
v 0.406250 0.000000 -0.281250
v -0.406250 0.062500 -0.281250
v -0.406250 0.000000 -0.281250
v -0.406250 0.062500 0.281250
v -0.406250 -0.000000 0.281250
v 0.468750 1.750000 0.281250
v 0.468750 1.125000 0.281250
v 0.468750 1.750000 -0.281250
v 0.468750 1.125000 -0.281250
v -0.468750 1.750000 -0.281250
v -0.468750 1.125000 -0.281250
v -0.468750 1.750000 0.281250
v -0.468750 1.125000 0.281250
v 0.468750 1.125000 0.343750
v 0.468750 0.062500 0.343750
v 0.468750 1.125000 -0.343750
v 0.468750 0.062500 -0.343750
v -0.468750 1.125000 -0.343750
v -0.468750 0.062500 -0.343750
v -0.468750 1.125000 0.343750
v -0.468750 0.062500 0.343750
v -0.468750 1.187500 0.081831
v -0.468750 1.125000 0.081831
v -0.468750 1.187500 -0.043169
v -0.468750 1.125000 -0.043169
v -0.593750 1.187500 -0.043169
v -0.593750 1.125000 -0.043169
v -0.593750 1.187500 0.081831
v -0.593750 1.125000 0.081831
v -0.515625 1.250000 0.113081
v -0.515625 1.031250 0.113081
v -0.515625 1.250000 -0.074419
v -0.515625 1.031250 -0.074419
v -0.578125 1.250000 -0.074419
v -0.578125 1.031250 -0.074419
v -0.578125 1.250000 0.113081
v -0.578125 1.031250 0.113081
v -0.515625 1.312500 0.113081
v -0.515625 1.250000 0.113081
v -0.515625 1.312500 -0.011919
v -0.515625 1.250000 -0.011919
v -0.578125 1.312500 -0.011919
v -0.578125 1.250000 -0.011919
v -0.578125 1.312500 0.113081
v -0.578125 1.250000 0.113081
v -0.515625 1.500000 0.113081
v -0.515625 1.312500 0.113081
v -0.515625 1.500000 0.050581
v -0.515625 1.312500 0.050581
v -0.578125 1.500000 0.050581
v -0.578125 1.312500 0.050581
v -0.578125 1.500000 0.113081
v -0.578125 1.312500 0.113081
v -0.515625 1.031250 0.050581
v -0.515625 0.968750 0.050581
v -0.515625 1.031250 -0.011919
v -0.515625 0.968750 -0.011919
v -0.578125 1.031250 -0.011919
v -0.578125 0.968750 -0.011919
v -0.578125 1.031250 0.050581
v -0.578125 0.968750 0.050581
v -0.453125 0.906250 0.175581
v -0.453125 0.281250 0.175581
v -0.453125 0.906250 -0.136919
v -0.453125 0.281250 -0.136919
v -0.578125 0.906250 -0.136919
v -0.578125 0.281250 -0.136919
v -0.578125 0.906250 0.175581
v -0.578125 0.281250 0.175581
v -0.578125 0.843750 0.175581
v -0.578125 0.343750 0.175581
v -0.578125 0.843750 -0.136919
v -0.578125 0.343750 -0.136919
v -0.640625 0.843750 -0.136919
v -0.640625 0.343750 -0.136919
v -0.640625 0.843750 0.175581
v -0.640625 0.343750 0.175581
v -0.453125 0.843750 0.238081
v -0.453125 0.343750 0.238081
v -0.453125 0.843750 -0.199419
v -0.453125 0.343750 -0.199419
v -0.578125 0.843750 -0.199419
v -0.578125 0.343750 -0.199419
v -0.578125 0.843750 0.238081
v -0.578125 0.343750 0.238081
v -0.515625 1.615485 0.065246
v -0.515625 1.500000 0.113081
v -0.515625 1.591567 0.007503
v -0.515625 1.476082 0.055338
v -0.578125 1.591567 0.007503
v -0.578125 1.476082 0.055338
v -0.578125 1.615485 0.065246
v -0.578125 1.500000 0.113081
v -0.515625 0.992668 0.045824
v -0.515625 0.906054 0.081700
v -0.515625 0.968750 -0.011919
v -0.515625 0.882136 0.023958
v -0.578125 0.968750 -0.011919
v -0.578125 0.882136 0.023958
v -0.578125 0.992668 0.045824
v -0.578125 0.906054 0.081700
v -0.515625 1.279355 0.021227
v -0.515625 1.216855 -0.041273
v -0.515625 1.312500 -0.011919
v -0.515625 1.250000 -0.074419
v -0.578125 1.312500 -0.011919
v -0.578125 1.250000 -0.074419
v -0.578125 1.279355 0.021227
v -0.578125 1.216855 -0.041273
v -0.453125 0.873105 -0.103773
v -0.453125 0.810605 -0.166273
v -0.453125 0.906250 -0.136919
v -0.453125 0.843750 -0.199419
v -0.578125 0.906250 -0.136919
v -0.578125 0.843750 -0.199419
v -0.578125 0.873105 -0.103773
v -0.578125 0.810605 -0.166273
v -0.453125 0.906250 0.175581
v -0.453125 0.843750 0.238080
v -0.453125 0.873104 0.142435
v -0.453125 0.810604 0.204935
v -0.578125 0.873104 0.142435
v -0.578125 0.810604 0.204935
v -0.578125 0.906250 0.175581
v -0.578125 0.843750 0.238080
v -0.453125 0.343750 0.238081
v -0.453125 0.281250 0.175581
v -0.453125 0.376896 0.204935
v -0.453125 0.314396 0.142435
v -0.578125 0.376896 0.204935
v -0.578125 0.314396 0.142435
v -0.578125 0.343750 0.238081
v -0.578125 0.281250 0.175581
v -0.453125 0.376895 -0.166273
v -0.453125 0.314396 -0.103774
v -0.453125 0.343750 -0.199419
v -0.453125 0.281250 -0.136919
v -0.578125 0.343750 -0.199419
v -0.578125 0.281250 -0.136919
v -0.578125 0.376895 -0.166273
v -0.578125 0.314396 -0.103774
v -0.453125 0.343750 0.238080
v -0.453125 0.281250 0.175580
v -0.453125 0.376895 0.204935
v -0.453125 0.314396 0.142435
v -0.578125 0.376895 0.204935
v -0.578125 0.314396 0.142435
v -0.578125 0.343750 0.238080
v -0.578125 0.281250 0.175580
v 0.468750 1.726082 -0.223508
v 0.468750 1.610597 -0.271343
v 0.468750 1.750000 -0.281250
v 0.468750 1.634515 -0.329085
v -0.468750 1.750000 -0.281250
v -0.468750 1.634515 -0.329085
v -0.468750 1.726082 -0.223508
v -0.468750 1.610597 -0.271343
v 0.468750 1.750000 0.281250
v 0.468750 1.634515 0.329086
v 0.468750 1.726082 0.223508
v 0.468750 1.610597 0.271343
v -0.468750 1.726082 0.223508
v -0.468750 1.610597 0.271343
v -0.468750 1.750000 0.281250
v -0.468750 1.634515 0.329086
vt 0.304688 0.625000
vt 0.304688 0.617188
vt 0.375000 0.625000
vt 0.375000 0.617188
vt 0.476562 0.625000
vt 0.476562 0.617188
vt 0.546875 0.625000
vt 0.546875 0.617188
vt 0.476562 0.695312
vt 0.375000 0.695312
vt 0.578125 0.695312
vt 0.578125 0.625000
vt 0.476562 0.695312
vt 0.476562 0.625000
vt 0.648438 0.625000
vt 0.648438 0.617188
vt 0.000000 0.710938
vt 0.000000 0.632812
vt 0.070312 0.710938
vt 0.070312 0.632812
vt 0.187500 0.710938
vt 0.187500 0.632812
vt 0.257812 0.710938
vt 0.257812 0.632812
vt 0.187500 0.781250
vt 0.070312 0.781250
vt 0.304688 0.781250
vt 0.304688 0.710938
vt 0.187500 0.781250
vt 0.187500 0.710938
vt 0.375000 0.710938
vt 0.375000 0.632812
vt 0.000000 0.914062
vt 0.000000 0.781250
vt 0.085938 0.914062
vt 0.085938 0.781250
vt 0.203125 0.914062
vt 0.203125 0.781250
vt 0.289062 0.914062
vt 0.289062 0.781250
vt 0.203125 1.000000
vt 0.085938 1.000000
vt 0.320312 1.000000
vt 0.320312 0.914062
vt 0.203125 1.000000
vt 0.203125 0.914062
vt 0.406250 0.914062
vt 0.406250 0.781250
vt 0.000000 0.937500
vt 0.000000 0.929688
vt 0.015625 0.937500
vt 0.015625 0.929688
vt 0.031250 0.937500
vt 0.031250 0.929688
vt 0.046875 0.937500
vt 0.046875 0.929688
vt 0.031250 0.953125
vt 0.015625 0.953125
vt 0.046875 0.953125
vt 0.046875 0.937500
vt 0.031250 0.953125
vt 0.031250 0.937500
vt 0.062500 0.937500
vt 0.062500 0.929688
vt 0.000000 0.976562
vt 0.000000 0.953125
vt 0.023438 0.976562
vt 0.023438 0.953125
vt 0.031250 0.976562
vt 0.031250 0.953125
vt 0.054688 0.976562
vt 0.054688 0.953125
vt 0.031250 1.000000
vt 0.023438 1.000000
vt 0.039062 1.000000
vt 0.039062 0.976562
vt 0.031250 1.000000
vt 0.031250 0.976562
vt 0.062500 0.976562
vt 0.062500 0.953125
vt 0.039062 0.984375
vt 0.039062 0.976562
vt 0.054688 0.984375
vt 0.054688 0.976562
vt 0.062500 0.984375
vt 0.062500 0.976562
vt 0.078125 0.984375
vt 0.078125 0.976562
vt 0.062500 1.000000
vt 0.054688 1.000000
vt 0.070312 1.000000
vt 0.070312 0.984375
vt 0.062500 1.000000
vt 0.062500 0.984375
vt 0.085938 0.984375
vt 0.085938 0.976562
vt 0.000000 0.773438
vt 0.000000 0.750000
vt 0.007812 0.773438
vt 0.007812 0.750000
vt 0.015625 0.773438
vt 0.015625 0.750000
vt 0.023438 0.773438
vt 0.023438 0.750000
vt 0.015625 0.781250
vt 0.007812 0.781250
vt 0.023438 0.781250
vt 0.023438 0.773438
vt 0.015625 0.781250
vt 0.015625 0.773438
vt 0.031250 0.773438
vt 0.031250 0.750000
vt 0.000000 0.921875
vt 0.000000 0.914062
vt 0.007812 0.921875
vt 0.007812 0.914062
vt 0.015625 0.921875
vt 0.015625 0.914062
vt 0.023438 0.921875
vt 0.023438 0.914062
vt 0.015625 0.929688
vt 0.007812 0.929688
vt 0.023438 0.929688
vt 0.023438 0.921875
vt 0.015625 0.929688
vt 0.015625 0.921875
vt 0.031250 0.921875
vt 0.031250 0.914062
vt 0.140625 0.593750
vt 0.140625 0.515625
vt 0.179688 0.593750
vt 0.179688 0.515625
vt 0.195312 0.593750
vt 0.195312 0.515625
vt 0.234375 0.593750
vt 0.234375 0.515625
vt 0.195312 0.632812
vt 0.179688 0.632812
vt 0.210938 0.632812
vt 0.210938 0.593750
vt 0.195312 0.632812
vt 0.195312 0.593750
vt 0.250000 0.593750
vt 0.250000 0.515625
vt 0.250000 0.593750
vt 0.250000 0.531250
vt 0.289062 0.593750
vt 0.289062 0.531250
vt 0.296875 0.593750
vt 0.296875 0.531250
vt 0.335938 0.593750
vt 0.335938 0.531250
vt 0.296875 0.632812
vt 0.289062 0.632812
vt 0.304688 0.632812
vt 0.304688 0.593750
vt 0.296875 0.632812
vt 0.296875 0.593750
vt 0.343750 0.593750
vt 0.343750 0.531250
vt 0.000000 0.578125
vt 0.000000 0.515625
vt 0.054688 0.578125
vt 0.054688 0.515625
vt 0.070312 0.578125
vt 0.070312 0.515625
vt 0.125000 0.578125
vt 0.125000 0.515625
vt 0.070312 0.632812
vt 0.054688 0.632812
vt 0.085938 0.632812
vt 0.085938 0.578125
vt 0.070312 0.632812
vt 0.070312 0.578125
vt 0.140625 0.578125
vt 0.140625 0.515625
vt 0.054688 0.953125
vt 0.054688 0.937500
vt 0.062500 0.953125
vt 0.062500 0.937500
vt 0.070312 0.953125
vt 0.070312 0.937500
vt 0.078125 0.953125
vt 0.078125 0.937500
vt 0.070312 0.960938
vt 0.062500 0.960938
vt 0.078125 0.960938
vt 0.078125 0.953125
vt 0.070312 0.960938
vt 0.070312 0.953125
vt 0.085938 0.953125
vt 0.085938 0.937500
vt 0.054688 0.929688
vt 0.054688 0.921875
vt 0.062500 0.929688
vt 0.062500 0.921875
vt 0.070312 0.929688
vt 0.070312 0.921875
vt 0.078125 0.929688
vt 0.078125 0.921875
vt 0.070312 0.937500
vt 0.062500 0.937500
vt 0.078125 0.937500
vt 0.078125 0.929688
vt 0.070312 0.937500
vt 0.070312 0.929688
vt 0.085938 0.929688
vt 0.085938 0.921875
vt 0.000000 1.000000
vt 0.000000 0.992188
vt 0.000000 1.000000
vt 0.000000 0.992188
vt 0.007812 1.000000
vt 0.007812 0.992188
vt 0.007812 1.000000
vt 0.007812 0.992188
vt 0.015625 1.000000
vt 0.015625 1.000000
vt 0.007812 1.000000
vt 0.007812 1.000000
vt 0.015625 1.000000
vt 0.015625 0.992188
vt 0.031250 0.765625
vt 0.031250 0.757812
vt 0.031250 0.765625
vt 0.031250 0.757812
vt 0.046875 0.765625
vt 0.046875 0.757812
vt 0.046875 0.765625
vt 0.046875 0.757812
vt 0.062500 0.765625
vt 0.062500 0.765625
vt 0.046875 0.765625
vt 0.046875 0.765625
vt 0.062500 0.765625
vt 0.062500 0.757812
vt 0.023438 0.929688
vt 0.023438 0.921875
vt 0.023438 0.929688
vt 0.023438 0.921875
vt 0.039062 0.929688
vt 0.039062 0.921875
vt 0.039062 0.929688
vt 0.039062 0.921875
vt 0.054688 0.929688
vt 0.054688 0.929688
vt 0.039062 0.929688
vt 0.039062 0.929688
vt 0.054688 0.929688
vt 0.054688 0.921875
vt 0.031250 0.773438
vt 0.031250 0.765625
vt 0.031250 0.773438
vt 0.031250 0.765625
vt 0.046875 0.773438
vt 0.046875 0.765625
vt 0.046875 0.773438
vt 0.046875 0.765625
vt 0.062500 0.773438
vt 0.062500 0.773438
vt 0.046875 0.773438
vt 0.046875 0.773438
vt 0.062500 0.773438
vt 0.062500 0.765625
vt 0.023438 0.781250
vt 0.023438 0.773438
vt 0.023438 0.781250
vt 0.023438 0.773438
vt 0.039062 0.781250
vt 0.039062 0.773438
vt 0.039062 0.781250
vt 0.039062 0.773438
vt 0.054688 0.781250
vt 0.054688 0.781250
vt 0.039062 0.781250
vt 0.039062 0.781250
vt 0.054688 0.781250
vt 0.054688 0.773438
vt 0.031250 0.921875
vt 0.031250 0.914062
vt 0.031250 0.921875
vt 0.031250 0.914062
vt 0.046875 0.921875
vt 0.046875 0.914062
vt 0.046875 0.921875
vt 0.046875 0.914062
vt 0.062500 0.921875
vt 0.062500 0.921875
vt 0.046875 0.921875
vt 0.046875 0.921875
vt 0.062500 0.921875
vt 0.062500 0.914062
vt 0.304688 0.750000
vt 0.304688 0.734375
vt 0.312500 0.750000
vt 0.312500 0.734375
vt 0.429688 0.750000
vt 0.429688 0.734375
vt 0.437500 0.750000
vt 0.437500 0.734375
vt 0.429688 0.757812
vt 0.312500 0.757812
vt 0.546875 0.757812
vt 0.546875 0.750000
vt 0.429688 0.757812
vt 0.429688 0.750000
vt 0.554688 0.750000
vt 0.554688 0.734375
vt 0.304688 0.773438
vt 0.304688 0.757812
vt 0.312500 0.773438
vt 0.312500 0.757812
vt 0.429688 0.773438
vt 0.429688 0.757812
vt 0.437500 0.773438
vt 0.437500 0.757812
vt 0.429688 0.781250
vt 0.312500 0.781250
vt 0.546875 0.781250
vt 0.546875 0.773438
vt 0.429688 0.781250
vt 0.429688 0.773438
vt 0.554688 0.773438
vt 0.554688 0.757812
vn 1.0000 0.0000 0.0000
vn -1.0000 0.0000 0.0000
vn 0.0000 1.0000 0.0000
vn 0.0000 -1.0000 -0.0000
vn 0.0000 0.0000 1.0000
vn 0.0000 0.0000 -1.0000
vn 0.0000 0.9239 -0.3827
vn 0.0000 -0.9239 0.3827
vn 0.0000 0.3827 0.9239
vn 0.0000 -0.3827 -0.9239
vn 0.0000 0.7071 0.7071
vn 0.0000 -0.7071 -0.7071
vn 0.0000 -0.7071 0.7071
vn 0.0000 0.7071 -0.7071
vn 0.0000 0.9239 0.3827
vn 0.0000 -0.9239 -0.3827
vn 0.0000 -0.3827 0.9239
vn 0.0000 0.3827 -0.9239
usemtl 1
s 1
f 1/1/1 2/2/1 3/3/1
f 2/2/1 4/4/1 3/3/1
f 5/5/2 6/6/2 7/7/2
f 6/6/2 8/8/2 7/7/2
f 5/5/3 7/9/3 3/3/3
f 7/9/3 1/10/3 3/3/3
f 8/11/4 6/12/4 2/13/4
f 6/12/4 4/14/4 2/13/4
f 7/7/5 8/8/5 1/15/5
f 8/8/5 2/16/5 1/15/5
f 3/3/6 4/4/6 5/5/6
f 4/4/6 6/6/6 5/5/6
f 9/17/1 10/18/1 11/19/1
f 10/18/1 12/20/1 11/19/1
f 13/21/2 14/22/2 15/23/2
f 14/22/2 16/24/2 15/23/2
f 13/21/3 15/25/3 11/19/3
f 15/25/3 9/26/3 11/19/3
f 16/27/4 14/28/4 10/29/4
f 14/28/4 12/30/4 10/29/4
f 15/23/5 16/24/5 9/31/5
f 16/24/5 10/32/5 9/31/5
f 11/19/6 12/20/6 13/21/6
f 12/20/6 14/22/6 13/21/6
f 17/33/1 18/34/1 19/35/1
f 18/34/1 20/36/1 19/35/1
f 21/37/2 22/38/2 23/39/2
f 22/38/2 24/40/2 23/39/2
f 21/37/3 23/41/3 19/35/3
f 23/41/3 17/42/3 19/35/3
f 24/43/4 22/44/4 18/45/4
f 22/44/4 20/46/4 18/45/4
f 23/39/5 24/40/5 17/47/5
f 24/40/5 18/48/5 17/47/5
f 19/35/6 20/36/6 21/37/6
f 20/36/6 22/38/6 21/37/6
f 25/49/1 26/50/1 27/51/1
f 26/50/1 28/52/1 27/51/1
f 29/53/2 30/54/2 31/55/2
f 30/54/2 32/56/2 31/55/2
f 29/53/3 31/57/3 27/51/3
f 31/57/3 25/58/3 27/51/3
f 32/59/4 30/60/4 26/61/4
f 30/60/4 28/62/4 26/61/4
f 31/55/5 32/56/5 25/63/5
f 32/56/5 26/64/5 25/63/5
f 27/51/6 28/52/6 29/53/6
f 28/52/6 30/54/6 29/53/6
f 33/65/1 34/66/1 35/67/1
f 34/66/1 36/68/1 35/67/1
f 37/69/2 38/70/2 39/71/2
f 38/70/2 40/72/2 39/71/2
f 37/69/3 39/73/3 35/67/3
f 39/73/3 33/74/3 35/67/3
f 40/75/4 38/76/4 34/77/4
f 38/76/4 36/78/4 34/77/4
f 39/71/5 40/72/5 33/79/5
f 40/72/5 34/80/5 33/79/5
f 35/67/6 36/68/6 37/69/6
f 36/68/6 38/70/6 37/69/6
f 41/81/1 42/82/1 43/83/1
f 42/82/1 44/84/1 43/83/1
f 45/85/2 46/86/2 47/87/2
f 46/86/2 48/88/2 47/87/2
f 45/85/3 47/89/3 43/83/3
f 47/89/3 41/90/3 43/83/3
f 48/91/4 46/92/4 42/93/4
f 46/92/4 44/94/4 42/93/4
f 47/87/5 48/88/5 41/95/5
f 48/88/5 42/96/5 41/95/5
f 43/83/6 44/84/6 45/85/6
f 44/84/6 46/86/6 45/85/6
f 49/97/1 50/98/1 51/99/1
f 50/98/1 52/100/1 51/99/1
f 53/101/2 54/102/2 55/103/2
f 54/102/2 56/104/2 55/103/2
f 53/101/3 55/105/3 51/99/3
f 55/105/3 49/106/3 51/99/3
f 56/107/4 54/108/4 50/109/4
f 54/108/4 52/110/4 50/109/4
f 55/103/5 56/104/5 49/111/5
f 56/104/5 50/112/5 49/111/5
f 51/99/6 52/100/6 53/101/6
f 52/100/6 54/102/6 53/101/6
f 57/113/1 58/114/1 59/115/1
f 58/114/1 60/116/1 59/115/1
f 61/117/2 62/118/2 63/119/2
f 62/118/2 64/120/2 63/119/2
f 61/117/3 63/121/3 59/115/3
f 63/121/3 57/122/3 59/115/3
f 64/123/4 62/124/4 58/125/4
f 62/124/4 60/126/4 58/125/4
f 63/119/5 64/120/5 57/127/5
f 64/120/5 58/128/5 57/127/5
f 59/115/6 60/116/6 61/117/6
f 60/116/6 62/118/6 61/117/6
f 65/129/1 66/130/1 67/131/1
f 66/130/1 68/132/1 67/131/1
f 69/133/2 70/134/2 71/135/2
f 70/134/2 72/136/2 71/135/2
f 69/133/3 71/137/3 67/131/3
f 71/137/3 65/138/3 67/131/3
f 72/139/4 70/140/4 66/141/4
f 70/140/4 68/142/4 66/141/4
f 71/135/5 72/136/5 65/143/5
f 72/136/5 66/144/5 65/143/5
f 67/131/6 68/132/6 69/133/6
f 68/132/6 70/134/6 69/133/6
f 73/145/1 74/146/1 75/147/1
f 74/146/1 76/148/1 75/147/1
f 77/149/2 78/150/2 79/151/2
f 78/150/2 80/152/2 79/151/2
f 77/149/3 79/153/3 75/147/3
f 79/153/3 73/154/3 75/147/3
f 80/155/4 78/156/4 74/157/4
f 78/156/4 76/158/4 74/157/4
f 79/151/5 80/152/5 73/159/5
f 80/152/5 74/160/5 73/159/5
f 75/147/6 76/148/6 77/149/6
f 76/148/6 78/150/6 77/149/6
f 81/161/1 82/162/1 83/163/1
f 82/162/1 84/164/1 83/163/1
f 85/165/2 86/166/2 87/167/2
f 86/166/2 88/168/2 87/167/2
f 85/165/3 87/169/3 83/163/3
f 87/169/3 81/170/3 83/163/3
f 88/171/4 86/172/4 82/173/4
f 86/172/4 84/174/4 82/173/4
f 87/167/5 88/168/5 81/175/5
f 88/168/5 82/176/5 81/175/5
f 83/163/6 84/164/6 85/165/6
f 84/164/6 86/166/6 85/165/6
f 89/177/1 90/178/1 91/179/1
f 90/178/1 92/180/1 91/179/1
f 93/181/2 94/182/2 95/183/2
f 94/182/2 96/184/2 95/183/2
f 93/181/7 95/185/7 91/179/7
f 95/185/7 89/186/7 91/179/7
f 96/187/8 94/188/8 90/189/8
f 94/188/8 92/190/8 90/189/8
f 95/183/9 96/184/9 89/191/9
f 96/184/9 90/192/9 89/191/9
f 91/179/10 92/180/10 93/181/10
f 92/180/10 94/182/10 93/181/10
f 97/193/1 98/194/1 99/195/1
f 98/194/1 100/196/1 99/195/1
f 101/197/2 102/198/2 103/199/2
f 102/198/2 104/200/2 103/199/2
f 101/197/7 103/201/7 99/195/7
f 103/201/7 97/202/7 99/195/7
f 104/203/8 102/204/8 98/205/8
f 102/204/8 100/206/8 98/205/8
f 103/199/9 104/200/9 97/207/9
f 104/200/9 98/208/9 97/207/9
f 99/195/10 100/196/10 101/197/10
f 100/196/10 102/198/10 101/197/10
f 105/209/1 106/210/1 107/211/1
f 106/210/1 108/212/1 107/211/1
f 109/213/2 110/214/2 111/215/2
f 110/214/2 112/216/2 111/215/2
f 109/213/11 111/215/11 107/211/11
f 111/215/11 105/209/11 107/211/11
f 112/217/12 110/218/12 106/219/12
f 110/218/12 108/220/12 106/219/12
f 111/215/13 112/216/13 105/221/13
f 112/216/13 106/222/13 105/221/13
f 107/211/14 108/212/14 109/213/14
f 108/212/14 110/214/14 109/213/14
f 113/223/1 114/224/1 115/225/1
f 114/224/1 116/226/1 115/225/1
f 117/227/2 118/228/2 119/229/2
f 118/228/2 120/230/2 119/229/2
f 117/227/11 119/229/11 115/225/11
f 119/229/11 113/223/11 115/225/11
f 120/231/12 118/232/12 114/233/12
f 118/232/12 116/234/12 114/233/12
f 119/229/13 120/230/13 113/235/13
f 120/230/13 114/236/13 113/235/13
f 115/225/14 116/226/14 117/227/14
f 116/226/14 118/228/14 117/227/14
f 121/237/1 122/238/1 123/239/1
f 122/238/1 124/240/1 123/239/1
f 125/241/2 126/242/2 127/243/2
f 126/242/2 128/244/2 127/243/2
f 125/241/14 127/243/14 123/239/14
f 127/243/14 121/237/14 123/239/14
f 128/245/13 126/246/13 122/247/13
f 126/246/13 124/248/13 122/247/13
f 127/243/11 128/244/11 121/249/11
f 128/244/11 122/250/11 121/249/11
f 123/239/12 124/240/12 125/241/12
f 124/240/12 126/242/12 125/241/12
f 129/251/1 130/252/1 131/253/1
f 130/252/1 132/254/1 131/253/1
f 133/255/2 134/256/2 135/257/2
f 134/256/2 136/258/2 135/257/2
f 133/255/11 135/257/11 131/253/11
f 135/257/11 129/251/11 131/253/11
f 136/259/12 134/260/12 130/261/12
f 134/260/12 132/262/12 130/261/12
f 135/257/13 136/258/13 129/263/13
f 136/258/13 130/264/13 129/263/13
f 131/253/14 132/254/14 133/255/14
f 132/254/14 134/256/14 133/255/14
f 137/265/1 138/266/1 139/267/1
f 138/266/1 140/268/1 139/267/1
f 141/269/2 142/270/2 143/271/2
f 142/270/2 144/272/2 143/271/2
f 141/269/14 143/271/14 139/267/14
f 143/271/14 137/265/14 139/267/14
f 144/273/13 142/274/13 138/275/13
f 142/274/13 140/276/13 138/275/13
f 143/271/11 144/272/11 137/277/11
f 144/272/11 138/278/11 137/277/11
f 139/267/12 140/268/12 141/269/12
f 140/268/12 142/270/12 141/269/12
f 145/279/1 146/280/1 147/281/1
f 146/280/1 148/282/1 147/281/1
f 149/283/2 150/284/2 151/285/2
f 150/284/2 152/286/2 151/285/2
f 149/283/11 151/285/11 147/281/11
f 151/285/11 145/279/11 147/281/11
f 152/287/12 150/288/12 146/289/12
f 150/288/12 148/290/12 146/289/12
f 151/285/13 152/286/13 145/291/13
f 152/286/13 146/292/13 145/291/13
f 147/281/14 148/282/14 149/283/14
f 148/282/14 150/284/14 149/283/14
f 153/293/1 154/294/1 155/295/1
f 154/294/1 156/296/1 155/295/1
f 157/297/2 158/298/2 159/299/2
f 158/298/2 160/300/2 159/299/2
f 157/297/15 159/301/15 155/295/15
f 159/301/15 153/302/15 155/295/15
f 160/303/16 158/304/16 154/305/16
f 158/304/16 156/306/16 154/305/16
f 159/299/17 160/300/17 153/307/17
f 160/300/17 154/308/17 153/307/17
f 155/295/18 156/296/18 157/297/18
f 156/296/18 158/298/18 157/297/18
f 161/309/1 162/310/1 163/311/1
f 162/310/1 164/312/1 163/311/1
f 165/313/2 166/314/2 167/315/2
f 166/314/2 168/316/2 167/315/2
f 165/313/7 167/317/7 163/311/7
f 167/317/7 161/318/7 163/311/7
f 168/319/8 166/320/8 162/321/8
f 166/320/8 164/322/8 162/321/8
f 167/315/9 168/316/9 161/323/9
f 168/316/9 162/324/9 161/323/9
f 163/311/10 164/312/10 165/313/10
f 164/312/10 166/314/10 165/313/10
