# Made in Blockbench 4.6.5
mtllib prop1.mtl

o cube
v -0.09016466863250985 0.026189630681818232 0.15722788178807992
v -0.09016466863250985 0.026189630681818232 0.1889447739805708
v -0.09016466863250985 0.05971235795454552 0.1889447739805708
v -0.09016466863250985 0.05971235795454552 0.15722788178807992
v -0.01332200829233476 0.08066406250000008 0.13740482416777303
v -0.01332200829233476 0.0052379261363636465 0.13740482416777303
v 0.14036331238801542 0.0052379261363636465 0.20876783160087758
v 0.1403633123880154 0.0052379261363636465 0.13740482416777297
v 0.1403633123880154 0.08066406250000008 0.13740482416777297
v 0.14036331238801542 0.08066406250000008 0.20876783160087758
v -0.013322008292334745 0.0052379261363636465 0.2087678316008776
v -0.013322008292334745 0.08066406250000008 0.2087678316008776
v -0.06825948800370062 0.026189630681818232 0.02590857920192388
v -0.09487856638328884 0.026189630681818232 0.01005013310567842
v -0.09487856638328884 0.05971235795454552 0.01005013310567842
v -0.06825948800370062 0.05971235795454552 0.02590857920192388
v -0.09004389418654543 0.08066406250000008 0.10448919393155097
v -0.09004389418654543 0.0052379261363636465 0.10448919393155097
v -0.22677948088079394 0.0052379261363636465 0.20614586205394606
v -0.1668865545267204 0.0052379261363636465 0.24182736577049835
v -0.1668865545267204 0.08066406250000008 0.24182736577049835
v -0.22677948088079394 0.08066406250000008 0.20614586205394606
v -0.14993682054061896 0.0052379261363636465 0.06880769021499873
v -0.14993682054061896 0.08066406250000008 0.06880769021499873
v 0.010691323063969874 0.25142045454545464 -0.0013565791743747498
v 0.01069132306396988 0.25142045454545464 0.03036031301811613
v 0.04142838720003995 0.25142045454545464 0.030360313018116123
v 0.04142838720003994 0.25142045454545464 -0.0013565791743747565
v 0.06063905228508374 0.16761363636363644 -0.0211796367946816
v -0.008519342021073876 0.16761363636363644 -0.021179636794681583
v -0.008519342021073826 0 0.05018337063842296
v -0.008519342021073842 0 -0.021179636794681652
v 0.06063905228508377 0 -0.02117963679468167
v 0.06063905228508379 0 0.050183370638422944
v -0.00851934202107386 0.16761363636363644 0.05018337063842296
v 0.06063905228508376 0.16761363636363644 0.050183370638422944
v 0.09458512585198732 0.2514204545454546 0.03342792381264167
v 0.0828225606475702 0.2514204545454546 0.06273051134415103
v 0.11121990509237202 0.2514204545454547 0.07486804051232701
v 0.12298247029678917 0.2514204545454547 0.04556545298081763
v 0.1480824138275513 0.16761363636363663 0.034837291503734207
v 0.0841883888267472 0.16761363636363638 0.007527850875338341
v 0.05772261711680911 -8.326672684688674e-17 0.07345867282123443
v 0.08418838882674776 0 0.0075278508753382715
v 0.14808241382755183 2.220446049250313e-16 0.03483729150373414
v 0.12161664211761322 1.3877787807814457e-16 0.10076811344963033
v 0.05772261711680858 0.1676136363636363 0.07345867282123446
v 0.12161664211761267 0.16761363636363652 0.10076811344963033
v 0.20791013024405774 0.25142045454545514 -0.0654519975737796
v 0.21842282532528676 0.25142045454545514 -0.03564786802623369
v 0.24730621767857489 0.2514204545454553 -0.046495684039754265
v 0.23679352259734598 0.25142045454545525 -0.07629981358730017
v 0.24827520839238332 0.16761363636363713 -0.10170727956296666
v 0.1832875755974849 0.1676136363636368 -0.07729969353254547
v 0.20694113953025065 5.273559366969494e-16 -0.010240402050567216
v 0.1832875755974855 4.440892098500626e-16 -0.07729969353254554
v 0.24827520839238404 7.494005416219807e-16 -0.10170727956296677
v 0.2719287723251491 8.049116928532385e-16 -0.03464798808098841
v 0.20694113953025003 0.1676136363636369 -0.010240402050567216
v 0.27192877232514845 0.16761363636363724 -0.03464798808098841
v -0.1861975017209581 0.43719223484848246 -0.06674082580830498
v -0.1685674460098975 0.43719223484848263 -0.04075986873033253
v -0.1685674460098977 0.47071496212120995 -0.040759868730332494
v -0.18619750172095828 0.4707149621212098 -0.06674082580830494
v -0.13427046423411235 0.4916666666666648 -0.1284590789717859
v -0.1342704642341118 0.4162405303030284 -0.128459078971786
v 0.0312888057282926 0.4162405303030297 -0.16096223552584427
v -0.00837881962159373 0.4162405303030295 -0.2194193889512824
v -0.00837881962159421 0.491666666666666 -0.21941938895128232
v 0.03128880572829213 0.49166666666666614 -0.16096223552584427
v -0.09460283888422553 0.41624053030302866 -0.0700019255463479
v -0.094602838884226 0.4916666666666651 -0.07000192554634782
v 0.2587381433165775 2.7755575615628914e-17 -0.1248865869784832
v 0.2587381433165775 0.41903409090909105 -0.1248865869784832
v -0.3189297037491866 0.41903409090909105 0.09206973329192754
v -0.3189297037491866 2.7755575615628914e-17 0.09206973329192754
v -0.39777491685840377 2.7755575615628914e-17 -0.13146123831466686
v -0.39777491685840377 0.41903409090909105 -0.13146123831466686
v 0.17989293020736044 0.41903409090909105 -0.34841755858507756
v 0.17989293020736044 2.7755575615628914e-17 -0.34841755858507756
vt 0.25 0.8125
vt 0.3125 0.8125
vt 0.3125 0.875
vt 0.25 0.875
vt 0.4375 1
vt 0.375 1
vt 0.375 0.9375
vt 0.4375 0.9375
vt 0.25 0.6875
vt 0.3125 0.6875
vt 0.3125 0.75
vt 0.25 0.75
vt 0 0.9375
vt 0.0625 0.9375
vt 0.0625 1
vt 0 1
vt 0.0625 0.6875
vt 0.0625 0.75
vt 0 0.75
vt 0 0.6875
vt 0.125 0.875
vt 0.125 0.8125
vt 0.1875 0.8125
vt 0.1875 0.875
vt 0 0.875
vt 0 0.75
vt 0.0625 0.75
vt 0.0625 0.875
vt 0.1875 1
vt 0.0625 1
vt 0.0625 0.9375
vt 0.1875 0.9375
vt 0.1875 0.6875
vt 0.1875 0.8125
vt 0.125 0.8125
vt 0.125 0.6875
vt 0.25 0.9375
vt 0.375 0.9375
vt 0.375 1
vt 0.25 1
vt 0.25 0.8125
vt 0.3125 0.8125
vt 0.3125 0.875
vt 0.25 0.875
vt 0.4375 1
vt 0.375 1
vt 0.375 0.9375
vt 0.4375 0.9375
vt 0.25 0.6875
vt 0.3125 0.6875
vt 0.3125 0.75
vt 0.25 0.75
vt 0 0.9375
vt 0.0625 0.9375
vt 0.0625 1
vt 0 1
vt 0.0625 0.6875
vt 0.0625 0.75
vt 0 0.75
vt 0 0.6875
vt 0.125 0.875
vt 0.125 0.8125
vt 0.1875 0.8125
vt 0.1875 0.875
vt 0 0.875
vt 0 0.75
vt 0.0625 0.75
vt 0.0625 0.875
vt 0.1875 1
vt 0.0625 1
vt 0.0625 0.9375
vt 0.1875 0.9375
vt 0.1875 0.6875
vt 0.1875 0.8125
vt 0.125 0.8125
vt 0.125 0.6875
vt 0.25 0.9375
vt 0.375 0.9375
vt 0.375 1
vt 0.25 1
vt 0.25 0.8125
vt 0.3125 0.8125
vt 0.3125 0.875
vt 0.25 0.875
vt 0.4375 1
vt 0.375 1
vt 0.375 0.9375
vt 0.4375 0.9375
vt 0.25 0.6875
vt 0.3125 0.6875
vt 0.3125 0.75
vt 0.25 0.75
vt 0 0.9375
vt 0.0625 0.9375
vt 0.0625 1
vt 0 1
vt 0.0625 0.6875
vt 0.0625 0.75
vt 0 0.75
vt 0 0.6875
vt 0.125 0.875
vt 0.125 0.8125
vt 0.1875 0.8125
vt 0.1875 0.875
vt 0 0.875
vt 0 0.75
vt 0.0625 0.75
vt 0.0625 0.875
vt 0.1875 1
vt 0.0625 1
vt 0.0625 0.9375
vt 0.1875 0.9375
vt 0.1875 0.6875
vt 0.1875 0.8125
vt 0.125 0.8125
vt 0.125 0.6875
vt 0.25 0.9375
vt 0.375 0.9375
vt 0.375 1
vt 0.25 1
vt 0.25 0.8125
vt 0.3125 0.8125
vt 0.3125 0.875
vt 0.25 0.875
vt 0.4375 1
vt 0.375 1
vt 0.375 0.9375
vt 0.4375 0.9375
vt 0.25 0.6875
vt 0.3125 0.6875
vt 0.3125 0.75
vt 0.25 0.75
vt 0 0.9375
vt 0.0625 0.9375
vt 0.0625 1
vt 0 1
vt 0.0625 0.6875
vt 0.0625 0.75
vt 0 0.75
vt 0 0.6875
vt 0.125 0.875
vt 0.125 0.8125
vt 0.1875 0.8125
vt 0.1875 0.875
vt 0 0.875
vt 0 0.75
vt 0.0625 0.75
vt 0.0625 0.875
vt 0.1875 1
vt 0.0625 1
vt 0.0625 0.9375
vt 0.1875 0.9375
vt 0.1875 0.6875
vt 0.1875 0.8125
vt 0.125 0.8125
vt 0.125 0.6875
vt 0.25 0.9375
vt 0.375 0.9375
vt 0.375 1
vt 0.25 1
vt 0.25 0.8125
vt 0.3125 0.8125
vt 0.3125 0.875
vt 0.25 0.875
vt 0.4375 1
vt 0.375 1
vt 0.375 0.9375
vt 0.4375 0.9375
vt 0.25 0.6875
vt 0.3125 0.6875
vt 0.3125 0.75
vt 0.25 0.75
vt 0 0.9375
vt 0.0625 0.9375
vt 0.0625 1
vt 0 1
vt 0.0625 0.6875
vt 0.0625 0.75
vt 0 0.75
vt 0 0.6875
vt 0.125 0.875
vt 0.125 0.8125
vt 0.1875 0.8125
vt 0.1875 0.875
vt 0 0.875
vt 0 0.75
vt 0.0625 0.75
vt 0.0625 0.875
vt 0.1875 1
vt 0.0625 1
vt 0.0625 0.9375
vt 0.1875 0.9375
vt 0.1875 0.6875
vt 0.1875 0.8125
vt 0.125 0.8125
vt 0.125 0.6875
vt 0.25 0.9375
vt 0.375 0.9375
vt 0.375 1
vt 0.25 1
vt 0.25 0.8125
vt 0.3125 0.8125
vt 0.3125 0.875
vt 0.25 0.875
vt 0.4375 1
vt 0.375 1
vt 0.375 0.9375
vt 0.4375 0.9375
vt 0.25 0.6875
vt 0.3125 0.6875
vt 0.3125 0.75
vt 0.25 0.75
vt 0 0.9375
vt 0.0625 0.9375
vt 0.0625 1
vt 0 1
vt 0.0625 0.6875
vt 0.0625 0.75
vt 0 0.75
vt 0 0.6875
vt 0.125 0.875
vt 0.125 0.8125
vt 0.1875 0.8125
vt 0.1875 0.875
vt 0 0.875
vt 0 0.75
vt 0.0625 0.75
vt 0.0625 0.875
vt 0.1875 1
vt 0.0625 1
vt 0.0625 0.9375
vt 0.1875 0.9375
vt 0.1875 0.6875
vt 0.1875 0.8125
vt 0.125 0.8125
vt 0.125 0.6875
vt 0.25 0.9375
vt 0.375 0.9375
vt 0.375 1
vt 0.25 1
vt 1 0.375
vt 1 0.6875
vt 0.5 0.6875
vt 0.5 0.375
vt 0.5 0.375
vt 0.5 0.6875
vt 1 0.6875
vt 1 0.375
vt 1 0.375
vt 0.5 0.375
vt 0.5 0.1875
vt 1 0.1875
vt 0.1875 0.1875
vt 0.1875 0.6875
vt 0 0.6875
vt 0 0.1875
vt 0.6875 0.6875
vt 0.6875 1
vt 0.5 1
vt 0.5 0.6875
vt 1 0.6875
vt 1 1
vt 0.8125 1
vt 0.8125 0.6875
vn -1 0 2.220446049250313e-16
vn -0.2497916989759164 0 -0.9682995957464432
vn 1 0 -2.220446049250313e-16
vn -0.24979169897591563 0 0.9682995957464434
vn -0.2630544799911457 0.9647809806150762 5.84098280833935e-17
vn -0.263054479991146 -0.9647809806150761 5.840982808339357e-17
vn 0 1 0
vn 2.220446049250313e-16 0 1
vn 0 -1 0
vn -4.0264464852553685e-16 0 -1
vn 0.5118116479371307 0 -0.8590976877141963
vn 0.9636554825556556 0 0.2671481067505942
vn -0.5118116479371307 0 0.8590976877141963
vn -0.7297042140519829 0 -0.6837629413727963
vn 0.13173535182225762 0.9663075262358419 -0.22112340857592153
vn 0.1317353518222578 -0.9663075262358419 -0.22112340857592186
vn 0 1 0
vn -0.8726866825218507 0 -0.48828061004816337
vn 0 -1 0
vn 0.8726866825218508 0 0.4882806100481632
vn 0 1 0
vn -2.1608220954208537e-16 0.23018132063541022 -0.9731477583751291
vn 0 -1 0
vn 2.1608220954208537e-16 0.23018132063541002 0.9731477583751291
vn 0.9747198175611996 0.22343069899515147 -2.1643127680297517e-16
vn -0.9747198175611997 0.2234306989951507 2.164312768029752e-16
vn 1 1.6559258672375212e-16 -2.220446049250313e-16
vn 2.220446049250313e-16 0 1
vn -1 -2.069907334046901e-16 2.220446049250313e-16
vn -2.220446049250313e-16 4.139814668093802e-16 -1
vn -3.3370536770630604e-15 1 -1.3395510353782157e-15
vn 0.38256458420924977 0.22915437356634713 -0.8950601164079534
vn 3.427020898969342e-15 -1 1.1272460574696617e-16
vn -0.3825645842092517 0.22915437356634488 0.8950601164079532
vn 0.9043589972837017 0.2243822847628092 0.3630253356401439
vn -0.9043589972837034 0.22438228476280356 -0.36302533564014344
vn 0.928022455567506 2.7655810018634797e-15 0.3725242568779334
vn -0.3930228866880598 -1.3016335289662396e-15 0.9195286893509003
vn -0.9280224555675062 -2.8581118848341206e-15 -0.372524256877933
vn 0.39302288668805957 1.682301364557032e-15 -0.9195286893509005
vn -5.091255848550258e-15 1 1.795818939484502e-15
vn -0.3422206087423743 0.22935991711789017 -0.911196511940028
vn 4.560223043390423e-15 -1 -3.6682165758086067e-16
vn 0.342220608742372 0.22935991711789255 0.9111965119400282
vn 0.9190489949410274 0.22418982407084495 -0.32417258934242255
vn -0.9190489949410294 0.22418982407083685 0.3241725893424225
vn 0.9430539663798522 4.2805621082922336e-15 -0.3326397698640808
vn 0.35159350035221704 1.3973106527659685e-15 0.9361527709247437
vn -0.9430539663798522 -3.4355804056845503e-15 0.3326397698640808
vn -0.351593500352217 -8.933182011037137e-16 -0.9361527709247437
vn -0.8274739904642022 -5.356405894206823e-15 0.5615040472741488
vn -0.765193517869957 -4.9187545348755e-15 -0.6438003418838792
vn 0.8274739904642021 5.859999610756168e-15 -0.5615040472741488
vn 0.3676614489291174 1.2289593037881474e-15 0.9299597082515684
vn -0.21563097499740805 0.9654497135005066 0.14632201927070693
vn -0.21563097499739295 -0.9654497135005102 0.14632201927070554
vn -8.51538757334995e-15 1 1.0303178359387113e-15
vn 0.5856537340219039 2.9616066356295574e-15 0.810561351056292
vn 7.923631993693818e-15 -1 -6.28766661154848e-16
vn -0.5856537340219039 -3.405847630973992e-15 -0.8105613510562918
vn 0.35159350035221704 0 0.9361527709247437
vn -0.3515935003522168 0 -0.9361527709247437
vn 0 1 0
vn 0 -1 0
vn -0.9430539663798522 0 0.3326397698640809
vn 0.9430539663798523 0 -0.3326397698640805
usemtl none
f 1/1/1 2/2/1 3/3/1 4/4/1
f 4/5/2 5/6/2 6/7/2 1/8/2
f 7/9/3 8/10/3 9/11/3 10/12/3
f 2/13/4 11/14/4 12/15/4 3/16/4
f 3/17/5 12/18/5 5/19/5 4/20/5
f 1/21/6 6/22/6 11/23/6 2/24/6
f 9/25/7 5/26/7 12/27/7 10/28/7
f 10/29/8 12/30/8 11/31/8 7/32/8
f 7/33/9 11/34/9 6/35/9 8/36/9
f 8/37/10 6/38/10 5/39/10 9/40/10
f 13/41/11 14/42/11 15/43/11 16/44/11
f 16/45/12 17/46/12 18/47/12 13/48/12
f 19/49/13 20/50/13 21/51/13 22/52/13
f 14/53/14 23/54/14 24/55/14 15/56/14
f 15/57/15 24/58/15 17/59/15 16/60/15
f 13/61/16 18/62/16 23/63/16 14/64/16
f 21/65/17 17/66/17 24/67/17 22/68/17
f 22/69/18 24/70/18 23/71/18 19/72/18
f 19/73/19 23/74/19 18/75/19 20/76/19
f 20/77/20 18/78/20 17/79/20 21/80/20
f 25/81/21 26/82/21 27/83/21 28/84/21
f 28/85/22 29/86/22 30/87/22 25/88/22
f 31/89/23 32/90/23 33/91/23 34/92/23
f 26/93/24 35/94/24 36/95/24 27/96/24
f 27/97/25 36/98/25 29/99/25 28/100/25
f 25/101/26 30/102/26 35/103/26 26/104/26
f 33/105/27 29/106/27 36/107/27 34/108/27
f 34/109/28 36/110/28 35/111/28 31/112/28
f 31/113/29 35/114/29 30/115/29 32/116/29
f 32/117/30 30/118/30 29/119/30 33/120/30
f 37/121/31 38/122/31 39/123/31 40/124/31
f 40/125/32 41/126/32 42/127/32 37/128/32
f 43/129/33 44/130/33 45/131/33 46/132/33
f 38/133/34 47/134/34 48/135/34 39/136/34
f 39/137/35 48/138/35 41/139/35 40/140/35
f 37/141/36 42/142/36 47/143/36 38/144/36
f 45/145/37 41/146/37 48/147/37 46/148/37
f 46/149/38 48/150/38 47/151/38 43/152/38
f 43/153/39 47/154/39 42/155/39 44/156/39
f 44/157/40 42/158/40 41/159/40 45/160/40
f 49/161/41 50/162/41 51/163/41 52/164/41
f 52/165/42 53/166/42 54/167/42 49/168/42
f 55/169/43 56/170/43 57/171/43 58/172/43
f 50/173/44 59/174/44 60/175/44 51/176/44
f 51/177/45 60/178/45 53/179/45 52/180/45
f 49/181/46 54/182/46 59/183/46 50/184/46
f 57/185/47 53/186/47 60/187/47 58/188/47
f 58/189/48 60/190/48 59/191/48 55/192/48
f 55/193/49 59/194/49 54/195/49 56/196/49
f 56/197/50 54/198/50 53/199/50 57/200/50
f 61/201/51 62/202/51 63/203/51 64/204/51
f 64/205/52 65/206/52 66/207/52 61/208/52
f 67/209/53 68/210/53 69/211/53 70/212/53
f 62/213/54 71/214/54 72/215/54 63/216/54
f 63/217/55 72/218/55 65/219/55 64/220/55
f 61/221/56 66/222/56 71/223/56 62/224/56
f 69/225/57 65/226/57 72/227/57 70/228/57
f 70/229/58 72/230/58 71/231/58 67/232/58
f 67/233/59 71/234/59 66/235/59 68/236/59
f 68/237/60 66/238/60 65/239/60 69/240/60
f 73/241/61 74/242/61 75/243/61 76/244/61
f 77/245/62 78/246/62 79/247/62 80/248/62
f 75/249/63 74/250/63 79/251/63 78/252/63
f 73/253/64 76/254/64 77/255/64 80/256/64
f 76/257/65 75/258/65 78/259/65 77/260/65
f 80/261/66 79/262/66 74/263/66 73/264/66