# Made in Blockbench 4.11.2
mtllib signalcontroller.mtl

o boxdoor
v 0.3125 1.25 0
v 0.3125 1.25 -0.0625
v 0.3125 0.3125 0
v 0.3125 0.3125 -0.0625
v -0.3125 1.25 0
v -0.3125 1.25 -0.0625
v -0.3125 0.3125 0
v -0.3125 0.3125 -0.0625
v -0.1875 0.875 0.0625
v -0.1875 0.875 0
v -0.1875 0.6875 0.0625
v -0.1875 0.6875 0
v -0.25 0.875 0.0625
v -0.25 0.875 0
v -0.25 0.6875 0.0625
v -0.25 0.6875 0
v 0.25 1.1875 0.006249999999999978
v 0.25 0.8125 0.006249999999999978
v -0.25 1.1875 0.006249999999999978
v -0.25 0.8125 0.006249999999999978
vt 0.25 0.109375
vt 0.25 0.34375
vt 0.234375 0.34375
vt 0.234375 0.109375
vt 0.578125 0.046875
vt 0.578125 0.28125
vt 0.5625 0.28125
vt 0.5625 0.046875
vt 0.859375 0.765625
vt 0.859375 0.78125
vt 0.703125 0.78125
vt 0.703125 0.765625
vt 0.75 0.265625
vt 0.75 0.28125
vt 0.59375 0.28125
vt 0.59375 0.265625
vt 0.15625 0.4375
vt 0.15625 0.671875
vt 0 0.671875
vt 0 0.4375
vt 0.328125 0.4375
vt 0.328125 0.671875
vt 0.171875 0.671875
vt 0.171875 0.4375
vt 0.484375 0.6875
vt 0.484375 0.734375
vt 0.46875 0.734375
vt 0.46875 0.6875
vt 0.515625 0.6875
vt 0.515625 0.734375
vt 0.5 0.734375
vt 0.5 0.6875
vt 0.703125 0.234375
vt 0.703125 0.25
vt 0.6875 0.25
vt 0.6875 0.234375
vt 0.734375 0.234375
vt 0.734375 0.25
vt 0.71875 0.25
vt 0.71875 0.234375
vt 0.546875 0.6875
vt 0.546875 0.734375
vt 0.53125 0.734375
vt 0.53125 0.6875
vt 0.578125 0.6875
vt 0.578125 0.734375
vt 0.5625 0.734375
vt 0.5625 0.6875
vt 0.859375 0.015625
vt 0.859375 0.203125
vt 0.609375 0.203125
vt 0.609375 0.015625
vn 1 0 0
vn -1 0 0
vn 0 1 0
vn 0 -1 0
vn 0 0 1
vn 0 0 -1
vn 1 0 0
vn -1 0 0
vn 0 1 0
vn 0 -1 0
vn 0 0 1
vn 0 0 -1
vn 0 0 1
usemtl m_d24fb0ac-3dba-e1d1-af0e-b087c8665c84
f 4/1/1 2/2/1 1/3/1 3/4/1
f 7/5/2 5/6/2 6/7/2 8/8/2
f 1/9/3 2/10/3 6/11/3 5/12/3
f 4/13/4 3/14/4 7/15/4 8/16/4
f 3/17/5 1/18/5 5/19/5 7/20/5
f 8/21/6 6/22/6 2/23/6 4/24/6
f 12/25/7 10/26/7 9/27/7 11/28/7
f 15/29/8 13/30/8 14/31/8 16/32/8
f 9/33/9 10/34/9 14/35/9 13/36/9
f 12/37/10 11/38/10 15/39/10 16/40/10
f 11/41/11 9/42/11 13/43/11 15/44/11
f 16/45/12 14/46/12 10/47/12 12/48/12
f 18/49/13 17/50/13 19/51/13 20/52/13
o box
v 0.5 0.25 0.0625
v 0.5 0.25 -0.5
v 0.5 0 0.0625
v 0.5 0 -0.5
v -0.5 0.25 0.0625
v -0.5 0.25 -0.5
v -0.5 0 0.0625
v -0.5 0 -0.5
v -0.3125 1.25 0
v -0.3125 1.25 -0.0625
v -0.3125 0.3125 0
v -0.3125 0.3125 -0.0625
v -0.4375 1.25 0
v -0.4375 1.25 -0.0625
v -0.4375 0.3125 0
v -0.4375 0.3125 -0.0625
v 0.4375 1.5 -0.0625
v 0.4375 1.5 -0.4375
v 0.4375 0.25 -0.0625
v 0.4375 0.25 -0.4375
v -0.4375 1.5 -0.0625
v -0.4375 1.5 -0.4375
v -0.4375 0.25 -0.0625
v -0.4375 0.25 -0.4375
v 0.4375 1.5 0
v 0.4375 1.5 -0.0625
v 0.4375 1.375 0
v 0.4375 1.375 -0.0625
v -0.4375 1.5 0
v -0.4375 1.5 -0.0625
v -0.4375 1.375 0
v -0.4375 1.375 -0.0625
v 0.4375 1.25 0
v 0.4375 1.25 -0.0625
v 0.4375 0.3125 0
v 0.4375 0.3125 -0.0625
v 0.3125 1.25 0
v 0.3125 1.25 -0.0625
v 0.3125 0.3125 0
v 0.3125 0.3125 -0.0625
vt 0.75 0.671875
vt 0.75 0.734375
vt 0.609375 0.734375
vt 0.609375 0.671875
vt 0.75 0.59375
vt 0.75 0.65625
vt 0.609375 0.65625
vt 0.609375 0.59375
vt 0.59375 0.53125
vt 0.59375 0.671875
vt 0.34375 0.671875
vt 0.34375 0.53125
vt 0.71875 0.859375
vt 0.71875 1
vt 0.46875 1
vt 0.46875 0.859375
vt 0.25 0.359375
vt 0.25 0.421875
vt 0 0.421875
vt 0 0.359375
vt 0.8125 0.34375
vt 0.8125 0.40625
vt 0.5625 0.40625
vt 0.5625 0.34375
vt 0.328125 0.1875
vt 0.328125 0.421875
vt 0.3125 0.421875
vt 0.3125 0.1875
vt 0.15625 0.109375
vt 0.15625 0.34375
vt 0.140625 0.34375
vt 0.140625 0.109375
vt 0.765625 0.984375
vt 0.765625 1
vt 0.734375 1
vt 0.734375 0.984375
vt 0.765625 0.953125
vt 0.765625 0.96875
vt 0.734375 0.96875
vt 0.734375 0.953125
vt 0.296875 0.1875
vt 0.296875 0.421875
vt 0.265625 0.421875
vt 0.265625 0.1875
vt 0.03125 0.109375
vt 0.03125 0.34375
vt 0 0.34375
vt 0 0.109375
vt 0.4375 0.203125
vt 0.4375 0.515625
vt 0.34375 0.515625
vt 0.34375 0.203125
vt 0.546875 0.203125
vt 0.546875 0.515625
vt 0.453125 0.515625
vt 0.453125 0.203125
vt 0.6875 0.75
vt 0.6875 0.84375
vt 0.46875 0.84375
vt 0.46875 0.75
vt 0.78125 0.421875
vt 0.78125 0.515625
vt 0.5625 0.515625
vt 0.5625 0.421875
vt 0.21875 0.6875
vt 0.21875 1
vt 0 1
vt 0 0.6875
vt 0.453125 0.6875
vt 0.453125 1
vt 0.234375 1
vt 0.234375 0.6875
vt 0.75 0.90625
vt 0.75 0.9375
vt 0.734375 0.9375
vt 0.734375 0.90625
vt 0.75 0.859375
vt 0.75 0.890625
vt 0.734375 0.890625
vt 0.734375 0.859375
vt 0.921875 0.828125
vt 0.921875 0.84375
vt 0.703125 0.84375
vt 0.703125 0.828125
vt 0.921875 0.796875
vt 0.921875 0.8125
vt 0.703125 0.8125
vt 0.703125 0.796875
vt 0.828125 0.546875
vt 0.828125 0.578125
vt 0.609375 0.578125
vt 0.609375 0.546875
vt 0.78125 0.296875
vt 0.78125 0.328125
vt 0.5625 0.328125
vt 0.5625 0.296875
vt 0.1875 0.109375
vt 0.1875 0.34375
vt 0.171875 0.34375
vt 0.171875 0.109375
vt 0.21875 0.109375
vt 0.21875 0.34375
vt 0.203125 0.34375
vt 0.203125 0.109375
vt 0.625 0.234375
vt 0.625 0.25
vt 0.59375 0.25
vt 0.59375 0.234375
vt 0.671875 0.234375
vt 0.671875 0.25
vt 0.640625 0.25
vt 0.640625 0.234375
vt 0.078125 0.109375
vt 0.078125 0.34375
vt 0.046875 0.34375
vt 0.046875 0.109375
vt 0.125 0.109375
vt 0.125 0.34375
vt 0.09375 0.34375
vt 0.09375 0.109375
vn 1 0 0
vn -1 0 0
vn 0 1 0
vn 0 -1 0
vn 0 0 1
vn 0 0 -1
vn 1 0 0
vn -1 0 0
vn 0 1 0
vn 0 -1 0
vn 0 0 1
vn 0 0 -1
vn 1 0 0
vn -1 0 0
vn 0 1 0
vn 0 -1 0
vn 0 0 1
vn 0 0 -1
vn 1 0 0
vn -1 0 0
vn 0 1 0
vn 0 -1 0
vn 0 0 1
vn 0 0 -1
vn 1 0 0
vn -1 0 0
vn 0 1 0
vn 0 -1 0
vn 0 0 1
vn 0 0 -1
usemtl m_d24fb0ac-3dba-e1d1-af0e-b087c8665c84
f 24/53/14 22/54/14 21/55/14 23/56/14
f 27/57/15 25/58/15 26/59/15 28/60/15
f 21/61/16 22/62/16 26/63/16 25/64/16
f 24/65/17 23/66/17 27/67/17 28/68/17
f 23/69/18 21/70/18 25/71/18 27/72/18
f 28/73/19 26/74/19 22/75/19 24/76/19
f 32/77/20 30/78/20 29/79/20 31/80/20
f 35/81/21 33/82/21 34/83/21 36/84/21
f 29/85/22 30/86/22 34/87/22 33/88/22
f 32/89/23 31/90/23 35/91/23 36/92/23
f 31/93/24 29/94/24 33/95/24 35/96/24
f 36/97/25 34/98/25 30/99/25 32/100/25
f 40/101/26 38/102/26 37/103/26 39/104/26
f 43/105/27 41/106/27 42/107/27 44/108/27
f 37/109/28 38/110/28 42/111/28 41/112/28
f 40/113/29 39/114/29 43/115/29 44/116/29
f 39/117/30 37/118/30 41/119/30 43/120/30
f 44/121/31 42/122/31 38/123/31 40/124/31
f 48/125/32 46/126/32 45/127/32 47/128/32
f 51/129/33 49/130/33 50/131/33 52/132/33
f 45/133/34 46/134/34 50/135/34 49/136/34
f 48/137/35 47/138/35 51/139/35 52/140/35
f 47/141/36 45/142/36 49/143/36 51/144/36
f 52/145/37 50/146/37 46/147/37 48/148/37
f 56/149/38 54/150/38 53/151/38 55/152/38
f 59/153/39 57/154/39 58/155/39 60/156/39
f 53/157/40 54/158/40 58/159/40 57/160/40
f 56/161/41 55/162/41 59/163/41 60/164/41
f 55/165/42 53/166/42 57/167/42 59/168/42
f 60/169/43 58/170/43 54/171/43 56/172/43