# Blender v2.79 (sub 0) OBJ File: ''
# www.blender.org
mtllib signalcontroller.mtl
o nameplate
v -0.343750 1.250000 -0.059375
v -0.343750 0.312500 -0.059375
v 0.343750 1.250000 -0.059375
v 0.343750 0.312500 -0.059375
vt 0.000000 1.000000
vt 0.000000 0.328125
vt 0.640625 1.000000
vt 0.640625 0.328125
vn 0.0000 -0.0000 1.0000
usemtl 0.001
s 1
f 1/1/1 2/2/1 3/3/1
f 2/2/1 4/4/1 3/3/1
o top
v 0.437500 1.500000 -0.062500
v 0.437500 1.375000 -0.062500
v 0.437500 1.500000 -0.500000
v 0.437500 1.375000 -0.500000
v -0.437500 1.500000 -0.500000
v -0.437500 1.375000 -0.500000
v -0.437500 1.500000 -0.062500
v -0.437500 1.375000 -0.062500
vt 0.781250 0.062500
vt 0.781250 0.000000
vt 1.000000 0.062500
vt 1.000000 0.000000
vt 0.781250 0.062500
vt 0.781250 0.000000
vt 1.000000 0.062500
vt 1.000000 0.000000
vt 1.000000 0.437500
vt 0.781250 0.437500
vt 1.000000 0.000000
vt 0.781250 0.000000
vt 0.781250 0.000000
vt 1.000000 0.000000
vt 0.781250 0.437500
vt 1.000000 0.437500
vt 0.562500 0.062500
vt 0.562500 0.000000
vt 1.000000 0.062500
vt 1.000000 0.000000
vt 0.562500 0.062500
vt 0.562500 0.000000
vt 1.000000 0.062500
vn 1.0000 0.0000 0.0000
vn -1.0000 0.0000 0.0000
vn 0.0000 1.0000 0.0000
vn 0.0000 -1.0000 0.0000
vn 0.0000 0.0000 1.0000
vn 0.0000 0.0000 -1.0000
usemtl 0.001
s 1
f 5/5/2 6/6/2 7/7/2
f 6/6/2 8/8/2 7/7/2
f 9/9/3 10/10/3 11/11/3
f 10/10/3 12/12/3 11/11/3
f 9/13/4 11/14/4 7/15/4
f 11/14/4 5/16/4 7/15/4
f 12/17/5 10/18/5 6/19/5
f 10/18/5 8/20/5 6/19/5
f 11/21/6 12/22/6 5/23/6
f 12/22/6 6/24/6 5/23/6
f 7/25/7 8/26/7 9/27/7
f 8/26/7 10/18/7 9/27/7
o center
v 0.437500 1.375000 -0.125000
v 0.437500 0.187500 -0.125000
v 0.437500 1.375000 -0.500000
v 0.437500 0.187500 -0.500000
v -0.437500 1.375000 -0.500000
v -0.437500 0.187500 -0.500000
v -0.437500 1.375000 -0.125000
v -0.437500 0.187500 -0.125000
vt 0.812500 0.593750
vt 0.812500 0.000000
vt 1.000000 0.593750
vt 1.000000 0.000000
vt 0.812500 0.593750
vt 0.812500 0.000000
vt 1.000000 0.593750
vt 1.000000 0.000000
vt 0.562500 0.593750
vt 0.562500 0.000000
vt 1.000000 0.593750
vt 1.000000 0.000000
vt 0.562500 0.593750
vt 0.562500 0.000000
vt 1.000000 0.593750
vt 1.000000 0.000000
vn 1.0000 0.0000 0.0000
vn -1.0000 0.0000 0.0000
vn 0.0000 -0.0000 1.0000
vn 0.0000 0.0000 -1.0000
usemtl 0.001
s 1
f 13/28/8 14/29/8 15/30/8
f 14/29/8 16/31/8 15/30/8
f 17/32/9 18/33/9 19/34/9
f 18/33/9 20/35/9 19/34/9
f 19/36/10 20/37/10 13/38/10
f 20/37/10 14/39/10 13/38/10
f 15/40/11 16/41/11 17/42/11
f 16/41/11 18/43/11 17/42/11
o handle_shaft
v -0.343750 0.937500 -0.031250
v -0.343750 0.875000 -0.031250
v -0.343750 0.937500 -0.062500
v -0.343750 0.875000 -0.062500
v -0.375000 0.937500 -0.062500
v -0.375000 0.875000 -0.062500
v -0.375000 0.937500 -0.031250
v -0.375000 0.875000 -0.031250
vt 0.000000 1.000000
vt 0.000000 0.968750
vt 0.015625 1.000000
vt 0.015625 0.968750
vt 0.000000 1.000000
vt 0.000000 0.968750
vt 0.015625 1.000000
vt 0.015625 0.968750
vt 0.015625 1.000000
vt 0.000000 1.000000
vt 0.015625 0.984375
vt 0.000000 0.984375
vt 0.000000 0.984375
vt 0.015625 0.984375
vt 0.000000 1.000000
vt 0.015625 1.000000
vn 1.0000 0.0000 0.0000
vn -1.0000 0.0000 0.0000
vn 0.0000 1.0000 0.0000
vn 0.0000 -1.0000 0.0000
usemtl 0.001
s 1
f 21/44/12 22/45/12 23/46/12
f 22/45/12 24/47/12 23/46/12
f 25/48/13 26/49/13 27/50/13
f 26/49/13 28/51/13 27/50/13
f 25/52/14 27/53/14 23/54/14
f 27/53/14 21/55/14 23/54/14
f 28/56/15 26/57/15 22/58/15
f 26/57/15 24/59/15 22/58/15
o lock
v -0.281250 0.875000 -0.043750
v -0.281250 0.837500 -0.043750
v -0.281250 0.875000 -0.059375
v -0.281250 0.837500 -0.059375
v -0.318750 0.875000 -0.059375
v -0.318750 0.837500 -0.059375
v -0.318750 0.875000 -0.043750
v -0.318750 0.837500 -0.043750
vt 0.976562 0.984381
vt 0.976562 0.978138
vt 0.982804 0.984381
vt 0.982804 0.978138
vt 0.968739 0.976585
vt 0.968739 0.970343
vt 0.974981 0.976585
vt 0.974981 0.970343
vt 0.982804 0.976585
vt 0.976562 0.976585
vt 0.982804 0.970343
vt 0.976562 0.970343
vt 0.976562 0.978138
vt 0.982804 0.978138
vt 0.976562 0.984381
vt 0.982804 0.984381
vt 0.968739 1.000000
vt 0.968739 0.968761
vt 0.999978 1.000000
vt 0.999978 0.968761
vn 1.0000 0.0000 0.0000
vn -1.0000 0.0000 0.0000
vn 0.0000 1.0000 0.0000
vn 0.0000 -1.0000 0.0000
vn 0.0000 0.0000 1.0000
usemtl 0.001
s 1
f 29/60/16 30/61/16 31/62/16
f 30/61/16 32/63/16 31/62/16
f 33/64/17 34/65/17 35/66/17
f 34/65/17 36/67/17 35/66/17
f 33/68/18 35/69/18 31/70/18
f 35/69/18 29/71/18 31/70/18
f 36/72/19 34/73/19 30/74/19
f 34/73/19 32/75/19 30/74/19
f 35/76/20 36/77/20 29/78/20
f 36/77/20 30/79/20 29/78/20
o base
v 0.500000 0.187500 -0.000000
v 0.500000 -0.000000 -0.000000
v 0.500000 0.187500 -0.500000
v 0.500000 0.000000 -0.500000
v -0.500000 0.187500 -0.500000
v -0.500000 0.000000 -0.500000
v -0.500000 0.187500 -0.000000
v -0.500000 -0.000000 -0.000000
vt 0.750000 0.093750
vt 0.750000 0.000000
vt 1.000000 0.093750
vt 1.000000 0.000000
vt 0.750000 0.093750
vt 0.750000 0.000000
vt 1.000000 0.093750
vt 1.000000 0.000000
vt 1.000000 0.500000
vt 0.750000 0.500000
vt 1.000000 0.000000
vt 0.750000 0.000000
vt 0.750000 0.000000
vt 1.000000 0.000000
vt 0.750000 0.500000
vt 1.000000 0.500000
vt 0.500000 0.093750
vt 0.500000 0.000000
vt 1.000000 0.093750
vt 1.000000 0.000000
vt 0.500000 0.093750
vt 0.500000 0.000000
vt 1.000000 0.093750
vn 1.0000 0.0000 0.0000
vn -1.0000 0.0000 0.0000
vn 0.0000 1.0000 0.0000
vn 0.0000 -1.0000 -0.0000
vn 0.0000 -0.0000 1.0000
vn 0.0000 0.0000 -1.0000
usemtl 0.001
s 1
f 37/80/21 38/81/21 39/82/21
f 38/81/21 40/83/21 39/82/21
f 41/84/22 42/85/22 43/86/22
f 42/85/22 44/87/22 43/86/22
f 41/88/23 43/89/23 39/90/23
f 43/89/23 37/91/23 39/90/23
f 44/92/24 42/93/24 38/94/24
f 42/93/24 40/95/24 38/94/24
f 43/96/25 44/97/25 37/98/25
f 44/97/25 38/99/25 37/98/25
f 39/100/26 40/101/26 41/102/26
f 40/101/26 42/93/26 41/102/26
o handle_grip
v -0.343750 0.937500 0.000000
v -0.343750 0.750000 0.000000
v -0.343750 0.937500 -0.031250
v -0.343750 0.750000 -0.031250
v -0.375000 0.937500 -0.031250
v -0.375000 0.750000 -0.031250
v -0.375000 0.937500 0.000000
v -0.375000 0.750000 0.000000
vt 0.000000 1.000000
vt 0.000000 0.906250
vt 0.015625 1.000000
vt 0.015625 0.906250
vt 0.000000 1.000000
vt 0.000000 0.906250
vt 0.015625 1.000000
vt 0.015625 0.906250
vt 0.015625 1.000000
vt 0.000000 1.000000
vt 0.015625 0.984375
vt 0.000000 0.984375
vt 0.000000 0.984375
vt 0.015625 0.984375
vt 0.000000 1.000000
vt 0.015625 1.000000
vt 0.000000 0.906250
vt 0.015625 1.000000
vt 0.015625 0.906250
vt 0.000000 1.000000
vt 0.000000 0.906250
vt 0.015625 0.906250
vn 1.0000 0.0000 0.0000
vn -1.0000 0.0000 0.0000
vn 0.0000 1.0000 0.0000
vn 0.0000 -1.0000 0.0000
vn 0.0000 0.0000 1.0000
vn 0.0000 0.0000 -1.0000
usemtl 0.001
s 1
f 45/103/27 46/104/27 47/105/27
f 46/104/27 48/106/27 47/105/27
f 49/107/28 50/108/28 51/109/28
f 50/108/28 52/110/28 51/109/28
f 49/111/29 51/112/29 47/113/29
f 51/112/29 45/114/29 47/113/29
f 52/115/30 50/116/30 46/117/30
f 50/116/30 48/118/30 46/117/30
f 51/112/31 52/119/31 45/120/31
f 52/119/31 46/121/31 45/120/31
f 47/122/32 48/123/32 49/111/32
f 48/123/32 50/124/32 49/111/32
o door
v 0.437500 1.250000 -0.062500
v 0.437500 0.312500 -0.062500
v 0.437500 1.250000 -0.125000
v 0.437500 0.312500 -0.125000
v -0.437500 1.250000 -0.125000
v -0.437500 0.312500 -0.125000
v -0.437500 1.250000 -0.062500
v -0.437500 0.312500 -0.062500
vt 0.000000 0.554688
vt 0.000000 0.085938
vt 0.031250 0.554688
vt 0.031250 0.085938
vt 0.000000 0.468750
vt 0.000000 0.000000
vt 0.031250 0.468750
vt 0.031250 0.000000
vt 0.031250 0.437500
vt 0.000000 0.437500
vt 0.031250 0.000000
vt 0.000000 0.000000
vt 0.000000 0.000000
vt 0.031250 0.000000
vt 0.000000 0.437500
vt 0.031250 0.437500
vt 0.562500 0.468750
vt 0.562500 0.000000
vt 1.000000 0.468750
vt 1.000000 0.000000
vn 1.0000 0.0000 0.0000
vn -1.0000 0.0000 0.0000
vn 0.0000 1.0000 0.0000
vn 0.0000 -1.0000 0.0000
vn 0.0000 -0.0000 1.0000
usemtl 0.001
s 1
f 53/125/33 54/126/33 55/127/33
f 54/126/33 56/128/33 55/127/33
f 57/129/34 58/130/34 59/131/34
f 58/130/34 60/132/34 59/131/34
f 57/133/35 59/134/35 55/135/35
f 59/134/35 53/136/35 55/135/35
f 60/137/36 58/138/36 54/139/36
f 58/138/36 56/140/36 54/139/36
f 59/141/37 60/142/37 53/143/37
f 60/142/37 54/144/37 53/143/37
