# Blender v2.79 (sub 0) OBJ File: ''
# www.blender.org
o cube
v -0.437500 -0.000000 0.375000
v 0.437500 -0.000000 0.375000
v 0.437500 1.250000 0.375000
v -0.437500 1.250000 0.375000
v -0.437500 0.000000 -0.375000
v -0.437500 1.250000 -0.375000
v -0.125000 1.250000 -0.125000
v -0.125000 1.250000 -0.250000
v -0.125000 1.312500 -0.250000
v -0.125000 1.312500 -0.125000
v -0.375000 0.000000 -0.437500
v 0.375000 0.000000 -0.437500
v 0.375000 0.000000 -0.375000
v -0.375000 0.000000 -0.375000
v 0.375000 -0.000000 0.437500
v 0.375000 -0.000000 0.375000
v 0.375000 1.250000 0.375000
v 0.375000 1.250000 0.437500
v -0.375000 1.250000 0.437500
v -0.375000 1.250000 0.375000
v 0.437500 0.000000 -0.375000
v 0.437500 1.250000 -0.375000
v -0.250000 1.250000 -0.250000
v -0.250000 1.250000 -0.125000
v -0.250000 1.312500 -0.125000
v -0.250000 1.312500 -0.250000
v -0.375000 -0.000000 0.375000
v -0.375000 -0.000000 0.437500
v 0.375000 1.250000 -0.437500
v 0.375000 1.250000 -0.375000
v -0.375000 1.250000 -0.437500
v -0.375000 1.250000 -0.375000
vt 0.656250 0.453125
vt 0.875000 0.453125
vt 0.875000 0.765625
vt 0.656250 0.765625
vt 0.453125 0.453125
vt 0.640625 0.453125
vt 0.640625 0.765625
vt 0.453125 0.765625
vt 0.125000 0.812500
vt 0.125000 0.781250
vt 0.140625 0.781250
vt 0.140625 0.812500
vt 0.656250 0.765625
vt 0.468750 0.765625
vt 0.468750 0.781250
vt 0.656250 0.781250
vt 0.187500 0.453125
vt 0.203125 0.453125
vt 0.203125 0.765625
vt 0.187500 0.765625
vt 0.687500 0.968750
vt 0.687500 0.781250
vt 0.671875 0.781250
vt 0.671875 0.968750
vt 0.218750 0.453125
vt 0.437500 0.453125
vt 0.437500 0.765625
vt 0.218750 0.765625
vt 0.156250 0.781250
vt 0.156250 0.812500
vt 0.140625 0.812500
vt 0.140625 0.781250
vt 0.171875 0.781250
vt 0.203125 0.781250
vt 0.203125 0.796875
vt 0.171875 0.796875
vt 0.656250 0.968750
vt 0.468750 0.968750
vt 0.468750 0.984375
vt 0.656250 0.984375
vt 0.015625 0.453125
vt 0.203125 0.453125
vt 0.203125 0.765625
vt 0.015625 0.765625
vt 0.171875 0.796875
vt 0.203125 0.796875
vt 0.203125 0.812500
vt 0.171875 0.812500
vt 0.437500 0.968750
vt 0.218750 0.968750
vt 0.218750 0.781250
vt 0.437500 0.781250
vt 0.187500 0.453125
vt 0.203125 0.453125
vt 0.203125 0.765625
vt 0.187500 0.765625
vt 0.437500 0.453125
vt 0.453125 0.453125
vt 0.453125 0.765625
vt 0.437500 0.765625
vt 0.359375 0.812500
vt 0.390625 0.812500
vt 0.390625 0.843750
vt 0.359375 0.843750
vt 0.671875 0.453125
vt 0.859375 0.453125
vt 0.859375 0.765625
vt 0.671875 0.765625
vt 0.234375 0.453125
vt 0.421875 0.453125
vt 0.421875 0.765625
vt 0.234375 0.765625
vt 0.671875 0.968750
vt 0.671875 0.781250
vt 0.656250 0.781250
vt 0.656250 0.968750
vt 0.656250 0.781250
vt 0.437500 0.781250
vt 0.437500 0.968750
vt 0.656250 0.968750
vt 0.437500 0.453125
vt 0.453125 0.453125
vt 0.453125 0.765625
vt 0.437500 0.765625
vn 0.0000 -0.0000 1.0000
vn -1.0000 0.0000 0.0000
vn 1.0000 0.0000 0.0000
vn 0.0000 -1.0000 0.0000
vn 0.0000 1.0000 0.0000
vn 0.0000 0.0000 -1.0000
s 1
f 1/1/1 2/2/1 3/3/1 4/4/1
f 5/5/2 1/6/2 4/7/2 6/8/2
f 7/9/3 8/10/3 9/11/3 10/12/3
f 11/13/4 12/14/4 13/15/4 14/16/4
f 15/17/3 16/18/3 17/19/3 18/20/3
f 19/21/5 18/22/5 17/23/5 20/24/5
f 21/25/6 5/26/6 6/27/6 22/28/6
f 23/29/2 24/30/2 25/31/2 26/32/2
f 8/33/6 23/34/6 26/35/6 9/36/6
f 27/37/4 16/38/4 15/39/4 28/40/4
f 2/41/3 21/42/3 22/43/3 3/44/3
f 24/45/1 7/46/1 10/47/1 25/48/1
f 4/49/5 3/50/5 22/51/5 6/52/5
f 13/53/3 12/54/3 29/55/3 30/56/3
f 27/57/2 28/58/2 19/59/2 20/60/2
f 25/61/5 10/62/5 9/63/5 26/64/5
f 28/65/1 15/66/1 18/67/1 19/68/1
f 12/69/6 11/70/6 31/71/6 29/72/6
f 32/73/5 30/74/5 29/75/5 31/76/5
f 5/77/4 21/78/4 2/79/4 1/80/4
f 11/81/2 14/82/2 32/83/2 31/84/2
