# Blender v2.82 (sub 7) OBJ File: 'bell47-fueltank.blend'
# www.blender.org
mtllib bell47-fueltank.mtl
o bell47-fueltank
v 0.451078 0.631509 0.180431
v 0.451078 -0.000000 0.180431
v 0.451078 0.631509 -0.180431
v 0.451078 0.000000 -0.180431
v -0.451078 0.631509 -0.180431
v -0.451078 0.000000 -0.180431
v -0.451078 0.631509 0.180431
v -0.451078 -0.000000 0.180431
v -0.451078 0.541294 0.180431
v -0.451078 0.090216 0.180431
v -0.451078 0.541294 -0.180431
v -0.451078 0.090216 -0.180431
v -0.541294 0.541294 -0.180431
v -0.541294 0.090216 -0.180431
v -0.541294 0.541294 0.180431
v -0.541294 0.090216 0.180431
v 0.451078 0.541294 -0.180431
v 0.451078 0.090216 -0.180431
v 0.451078 0.541294 -0.270647
v 0.451078 0.090216 -0.270647
v -0.451078 0.541294 -0.270647
v -0.451078 0.090216 -0.270647
v -0.451078 0.541294 -0.180431
v -0.451078 0.090216 -0.180431
v 0.541294 0.541294 0.180431
v 0.541294 0.090216 0.180431
v 0.541294 0.541294 -0.180431
v 0.541294 0.090216 -0.180431
v 0.451078 0.541294 -0.180431
v 0.451078 0.090216 -0.180431
v 0.451078 0.541294 0.180431
v 0.451078 0.090216 0.180431
v 0.451078 0.541294 0.270647
v 0.451078 0.090216 0.270647
v 0.451078 0.541294 0.180431
v 0.451078 0.090216 0.180431
v -0.451078 0.541294 0.180431
v -0.451078 0.090216 0.180431
v -0.451078 0.541294 0.270647
v -0.451078 0.090216 0.270647
vt 0.000488 0.874512
vt 0.000488 0.656738
vt 0.124512 0.874512
vt 0.124512 0.656738
vt 0.437988 0.874512
vt 0.437988 0.656738
vt 0.562012 0.874512
vt 0.562012 0.656738
vt 0.437012 0.875488
vt 0.437012 0.999512
vt 0.125488 0.875488
vt 0.125488 0.999512
vt 0.749512 0.999512
vt 0.749512 0.875488
vt 0.437988 0.999512
vt 0.437988 0.875488
vt 0.562988 0.874512
vt 0.562988 0.656738
vt 0.874512 0.874512
vt 0.874512 0.656738
vt 0.125488 0.874512
vt 0.125488 0.656738
vt 0.437012 0.874512
vt 0.437012 0.656738
vt 0.562988 0.280762
vt 0.562988 0.125488
vt 0.687012 0.280762
vt 0.687012 0.125488
vt 0.719238 0.280762
vt 0.719238 0.125488
vt 0.843262 0.280762
vt 0.843262 0.125488
vt 0.718262 0.281738
vt 0.718262 0.405762
vt 0.687988 0.281738
vt 0.687988 0.405762
vt 0.749512 0.405762
vt 0.749512 0.281738
vt 0.719238 0.405762
vt 0.719238 0.281738
vt 0.844238 0.280762
vt 0.844238 0.125488
vt 0.874512 0.280762
vt 0.874512 0.125488
vt 0.687988 0.280762
vt 0.687988 0.125488
vt 0.718262 0.280762
vt 0.718262 0.125488
vt 0.000488 0.437012
vt 0.000488 0.281738
vt 0.030762 0.437012
vt 0.030762 0.281738
vt 0.344238 0.437012
vt 0.344238 0.281738
vt 0.374512 0.437012
vt 0.374512 0.281738
vt 0.343262 0.437988
vt 0.343262 0.468262
vt 0.031738 0.437988
vt 0.031738 0.468262
vt 0.655762 0.468262
vt 0.655762 0.437988
vt 0.344238 0.468262
vt 0.344238 0.437988
vt 0.375488 0.437012
vt 0.375488 0.281738
vt 0.687012 0.437012
vt 0.687012 0.281738
vt 0.031738 0.437012
vt 0.031738 0.281738
vt 0.343262 0.437012
vt 0.343262 0.281738
vt 0.000488 0.155762
vt 0.000488 0.000488
vt 0.124512 0.155762
vt 0.124512 0.000488
vt 0.156738 0.155762
vt 0.156738 0.000488
vt 0.280762 0.155762
vt 0.280762 0.000488
vt 0.155762 0.156738
vt 0.155762 0.280762
vt 0.125488 0.156738
vt 0.125488 0.280762
vt 0.187012 0.280762
vt 0.187012 0.156738
vt 0.156738 0.280762
vt 0.156738 0.156738
vt 0.281738 0.155762
vt 0.281738 0.000488
vt 0.312012 0.155762
vt 0.312012 0.000488
vt 0.125488 0.155762
vt 0.125488 0.000488
vt 0.155762 0.155762
vt 0.155762 0.000488
vt 0.000488 0.624512
vt 0.000488 0.469238
vt 0.030762 0.624512
vt 0.030762 0.469238
vt 0.344238 0.624512
vt 0.344238 0.469238
vt 0.374512 0.624512
vt 0.374512 0.469238
vt 0.343262 0.625488
vt 0.343262 0.655762
vt 0.031738 0.625488
vt 0.031738 0.655762
vt 0.655762 0.655762
vt 0.655762 0.625488
vt 0.344238 0.655762
vt 0.344238 0.625488
vt 0.375488 0.624512
vt 0.375488 0.469238
vt 0.687012 0.624512
vt 0.687012 0.469238
vt 0.031738 0.624512
vt 0.031738 0.469238
vt 0.343262 0.624512
vt 0.343262 0.469238
vn 1.0000 -0.0000 0.0000
vn -1.0000 0.0000 0.0000
vn 0.0000 1.0000 0.0000
vn 0.0000 -1.0000 -0.0000
vn 0.0000 -0.0000 1.0000
vn 0.0000 0.0000 -1.0000
usemtl 0.001
s 1
f 1/1/1 2/2/1 3/3/1
f 2/2/1 4/4/1 3/3/1
f 5/5/2 6/6/2 7/7/2
f 6/6/2 8/8/2 7/7/2
f 5/9/3 7/10/3 3/11/3
f 7/10/3 1/12/3 3/11/3
f 8/13/4 6/14/4 2/15/4
f 6/14/4 4/16/4 2/15/4
f 7/17/5 8/18/5 1/19/5
f 8/18/5 2/20/5 1/19/5
f 3/21/6 4/22/6 5/23/6
f 4/22/6 6/24/6 5/23/6
f 9/25/1 10/26/1 11/27/1
f 10/26/1 12/28/1 11/27/1
f 13/29/2 14/30/2 15/31/2
f 14/30/2 16/32/2 15/31/2
f 13/33/3 15/34/3 11/35/3
f 15/34/3 9/36/3 11/35/3
f 16/37/4 14/38/4 10/39/4
f 14/38/4 12/40/4 10/39/4
f 15/41/5 16/42/5 9/43/5
f 16/42/5 10/44/5 9/43/5
f 11/45/6 12/46/6 13/47/6
f 12/46/6 14/48/6 13/47/6
f 17/49/1 18/50/1 19/51/1
f 18/50/1 20/52/1 19/51/1
f 21/53/2 22/54/2 23/55/2
f 22/54/2 24/56/2 23/55/2
f 21/57/3 23/58/3 19/59/3
f 23/58/3 17/60/3 19/59/3
f 24/61/4 22/62/4 18/63/4
f 22/62/4 20/64/4 18/63/4
f 23/65/5 24/66/5 17/67/5
f 24/66/5 18/68/5 17/67/5
f 19/69/6 20/70/6 21/71/6
f 20/70/6 22/72/6 21/71/6
f 25/73/1 26/74/1 27/75/1
f 26/74/1 28/76/1 27/75/1
f 29/77/2 30/78/2 31/79/2
f 30/78/2 32/80/2 31/79/2
f 29/81/3 31/82/3 27/83/3
f 31/82/3 25/84/3 27/83/3
f 32/85/4 30/86/4 26/87/4
f 30/86/4 28/88/4 26/87/4
f 31/89/5 32/90/5 25/91/5
f 32/90/5 26/92/5 25/91/5
f 27/93/6 28/94/6 29/95/6
f 28/94/6 30/96/6 29/95/6
f 33/97/1 34/98/1 35/99/1
f 34/98/1 36/100/1 35/99/1
f 37/101/2 38/102/2 39/103/2
f 38/102/2 40/104/2 39/103/2
f 37/105/3 39/106/3 35/107/3
f 39/106/3 33/108/3 35/107/3
f 40/109/4 38/110/4 34/111/4
f 38/110/4 36/112/4 34/111/4
f 39/113/5 40/114/5 33/115/5
f 40/114/5 34/116/5 33/115/5
f 35/117/6 36/118/6 37/119/6
f 36/118/6 38/120/6 37/119/6
