# Blender v2.79 (sub 0) OBJ File: ''
# www.blender.org
mtllib brigbedflat.mtl
o cube.007
v 0.281250 -0.737604 1.328905
v -0.281250 -0.737604 1.328905
v -0.281250 -0.237604 1.328905
v 0.281250 -0.237604 1.328905
v 1.437500 -0.179791 1.953905
v -1.437500 -0.179791 1.953906
v -1.437500 0.929584 1.953905
v 1.437500 0.929584 1.953905
v 0.281250 -0.737604 1.391405
v 0.281250 -0.237604 1.391405
v -1.437500 -0.226666 2.000781
v 1.437500 -0.226666 2.000780
v 1.437500 -0.179791 2.000780
v -1.437500 -0.179791 2.000781
v 1.437500 -0.179791 2.000780
v -1.437500 -0.179791 2.000781
v -1.437500 -0.226667 -2.186719
v -1.437500 -0.179792 -2.186719
v 1.437500 -0.179792 -2.186720
v -0.281250 -0.737604 1.391405
v -0.281250 -0.237604 1.391405
v 0.281250 -0.737604 -0.421094
v 0.281250 -0.737604 -0.483595
v 0.281250 -0.237604 -0.483595
v 0.281250 -0.237604 -0.421094
v -0.281250 -0.737604 -0.421094
v -0.281250 -0.237604 -0.421094
v 1.437500 -0.226667 -2.186720
v -0.281250 -0.737604 -0.483595
v -0.281250 -0.237604 -0.483595
v -1.437500 0.929584 2.000780
v 1.437500 0.929584 2.000780
vt 0.441406 0.539912
vt 0.516347 0.539912
vt 0.516347 0.574219
vt 0.441406 0.574219
vt 0.191406 0.709387
vt 0.435929 0.709387
vt 0.435929 0.804688
vt 0.191406 0.804688
vt 0.593623 0.606309
vt 0.593623 0.612559
vt 0.518682 0.612559
vt 0.518682 0.606309
vt 0.187500 0.655528
vt 0.193750 0.655528
vt 0.193750 0.812500
vt 0.187500 0.812500
vt 0.191406 0.798437
vt 0.435929 0.798437
vt 0.435929 0.804688
vt 0.191406 0.804688
vt 0.435101 0.806250
vt 0.435101 0.812500
vt 0.187500 0.806250
vt 0.435101 0.655528
vt 0.435101 0.812500
vt 0.187500 0.655528
vt 0.394531 0.547724
vt 0.469472 0.547724
vt 0.469472 0.582031
vt 0.394531 0.582031
vt 0.593623 0.606309
vt 0.593623 0.612559
vt 0.518682 0.612559
vt 0.518682 0.606309
vt 0.394531 0.547724
vt 0.469472 0.547724
vt 0.469472 0.582031
vt 0.394531 0.582031
vt 0.435122 0.651579
vt 0.435122 0.808594
vt 0.191406 0.808594
vt 0.191406 0.651579
vt 0.593623 0.618750
vt 0.593623 0.625000
vt 0.518682 0.625000
vt 0.518682 0.618750
vt 0.441406 0.539912
vt 0.516347 0.539912
vt 0.516347 0.574219
vt 0.441406 0.574219
vt 0.518682 0.609460
vt 0.593623 0.609460
vt 0.593623 0.625000
vt 0.518682 0.625000
vt 0.191406 0.709387
vt 0.197656 0.709387
vt 0.197656 0.804688
vt 0.191406 0.804688
vt 0.518682 0.609460
vt 0.593623 0.609460
vt 0.593623 0.625000
vt 0.518682 0.625000
vt 0.435101 0.806250
vt 0.435101 0.812500
vt 0.187500 0.812500
vt 0.187500 0.806250
vt 0.518682 0.609460
vt 0.593623 0.609460
vt 0.593623 0.625000
vt 0.518682 0.625000
vt 0.187500 0.655528
vt 0.193750 0.655528
vt 0.193750 0.812500
vt 0.191406 0.709387
vt 0.435929 0.709387
vt 0.435929 0.804688
vt 0.191406 0.804688
vt 0.191406 0.798437
vt 0.435929 0.798437
vt 0.435929 0.804688
vt 0.191406 0.804688
vt 0.518682 0.609460
vt 0.593623 0.609460
vt 0.593623 0.625000
vt 0.518682 0.625000
vt 0.191406 0.709387
vt 0.197656 0.709387
vt 0.197656 0.804688
vt 0.593623 0.618750
vt 0.593623 0.625000
vt 0.518682 0.625000
vt 0.518682 0.618750
vn 0.0000 0.0000 -1.0000
vn 1.0000 0.0000 0.0000
vn 0.0000 0.0000 1.0000
vn -0.0000 -1.0000 0.0000
vn -1.0000 0.0000 0.0000
vn -0.0000 1.0000 -0.0000
usemtl 0.006
s 1
f 1/1/1 2/2/1 3/3/1 4/4/1
f 5/5/1 6/6/1 7/7/1 8/8/1
f 9/9/2 1/10/2 4/11/2 10/12/2
f 11/13/3 12/14/3 13/15/3 14/16/3
f 15/17/4 16/18/4 6/19/4 5/20/4
f 17/21/5 11/22/5 14/16/5 18/23/5
f 19/24/6 18/25/6 14/16/6 13/26/6
f 20/27/3 9/28/3 10/29/3 21/30/3
f 22/31/2 23/32/2 24/33/2 25/34/2
f 26/35/3 22/36/3 25/37/3 27/38/3
f 12/39/4 11/40/4 17/41/4 28/42/4
f 29/43/5 26/44/5 27/45/5 30/46/5
f 23/47/1 29/48/1 30/49/1 24/50/1
f 4/51/6 3/52/6 21/53/6 10/54/6
f 6/55/5 16/56/5 31/57/5 7/58/5
f 22/59/4 26/60/4 29/61/4 23/62/4
f 12/63/2 28/64/2 19/65/2 13/66/2
f 24/67/6 30/68/6 27/69/6 25/70/6
f 28/71/1 17/72/1 18/73/1 19/65/1
f 16/74/3 15/75/3 32/76/3 31/77/3
f 8/78/6 7/79/6 31/80/6 32/81/6
f 9/82/4 20/83/4 2/84/4 1/85/4
f 15/86/2 5/87/2 8/88/2 32/81/2
f 2/89/5 20/90/5 21/91/5 3/92/5
