# Blender v2.79 (sub 0) OBJ File: ''
# www.blender.org
mtllib brigbedwooden.mtl
o cube.003
v 0.093750 -0.226666 2.000781
v -0.093750 -0.226666 2.000781
v -0.093750 -0.226666 -2.186719
v 0.093750 -0.226666 -2.186719
v -0.750000 -0.226666 -2.186719
v -0.750000 -0.226666 2.000781
v -0.750000 -0.179791 2.000781
v -0.750000 -0.179791 -2.186719
v 0.750000 -0.226666 2.000781
v 0.750000 -0.226666 -2.186719
v 0.750000 -0.179791 -2.186719
v 0.750000 -0.179791 2.000781
v 1.437500 -0.179791 2.000781
v -1.437500 -0.179791 2.000781
v -1.437500 -0.179791 1.953906
v 1.437500 -0.179791 1.953906
v 0.312500 -0.226666 -2.186719
v 0.125000 -0.226666 -2.186719
v 0.125000 -0.179791 -2.186719
v 0.312500 -0.179791 -2.186719
v -1.437500 0.929584 2.000781
v -1.437500 0.929584 1.953906
v 1.437500 0.929584 1.953905
v 1.437500 0.929584 2.000780
v 0.968750 -0.226666 2.000781
v 0.781250 -0.226666 2.000781
v 0.781250 -0.226666 -2.186719
v 0.968750 -0.226666 -2.186719
v -0.343750 -0.226666 2.000781
v -0.531250 -0.226666 2.000781
v -0.531250 -0.226666 -2.186719
v -0.343750 -0.226666 -2.186719
v -1.359375 -0.273541 1.563281
v -1.359375 -0.273541 1.750781
v -1.359375 -0.226666 1.750781
v -1.359375 -0.226666 1.563281
v 1.359375 -0.273541 1.750781
v 1.359375 -0.273541 1.563281
v 1.359375 -0.226666 1.563281
v 1.359375 -0.226666 1.750781
v 0.781250 -0.179791 2.000781
v 0.781250 -0.179791 -2.186719
v 0.968750 -0.179791 -2.186719
v 0.968750 -0.179791 2.000781
v 1.187500 -0.226666 2.000781
v 1.000000 -0.226666 2.000781
v 1.000000 -0.226666 -2.186719
v 1.187500 -0.226666 -2.186719
v 0.562500 -0.226666 -2.186719
v 0.562500 -0.179791 -2.186719
v -0.281250 -0.737604 -0.483594
v -0.281250 -0.737604 -0.421094
v -0.281250 -0.237604 -0.421094
v -0.281250 -0.237604 -0.483594
v 0.281250 -0.737604 -0.421094
v 0.281250 -0.737604 -0.483594
v 0.281250 -0.237604 -0.483594
v 0.281250 -0.237604 -0.421094
v -1.359375 -0.273541 -1.936719
v -1.359375 -0.273541 -1.749219
v -1.359375 -0.226666 -1.749219
v -1.359375 -0.226666 -1.936719
v 1.359375 -0.273541 -1.749219
v 1.359375 -0.273541 -1.936719
v 1.359375 -0.226666 -1.936719
v 1.359375 -0.226666 -1.749219
v -0.312500 -0.226666 2.000781
v -0.125000 -0.226666 2.000781
v -0.125000 -0.179791 2.000781
v -0.312500 -0.179791 2.000781
v -0.562500 -0.226666 2.000781
v -0.562500 -0.179791 2.000781
v -0.281250 -0.737603 1.328906
v -0.281250 -0.737603 1.391406
v -0.281250 -0.237603 1.391406
v -0.281250 -0.237603 1.328906
v 0.281250 -0.737603 1.391406
v 0.281250 -0.737603 1.328906
v 0.281250 -0.237603 1.328906
v 0.281250 -0.237603 1.391406
v -1.187500 -0.226666 2.000781
v -1.000000 -0.226666 2.000781
v -1.000000 -0.179791 2.000781
v -1.187500 -0.179791 2.000781
v 1.000000 -0.179791 2.000781
v 1.000000 -0.179791 -2.186719
v 1.187500 -0.179791 -2.186719
v 1.187500 -0.179791 2.000781
v 0.562500 -0.226666 2.000781
v 0.562500 -0.179791 2.000781
v -0.968750 -0.226666 2.000781
v -0.781250 -0.226666 2.000781
v -0.781250 -0.179791 2.000781
v -0.968750 -0.179791 2.000781
v -0.093750 -0.179791 2.000781
v -0.093750 -0.179791 -2.186719
v 0.093750 -0.179791 -2.186719
v 0.093750 -0.179791 2.000781
v -0.562500 -0.226666 -2.186719
v -0.562500 -0.179791 -2.186719
v 0.312500 -0.226666 2.000781
v 0.125000 -0.226666 2.000781
v 0.125000 -0.179791 2.000781
v 0.312500 -0.179791 2.000781
v 0.531250 -0.226666 2.000781
v 0.343750 -0.226666 2.000781
v 0.343750 -0.226666 -2.186719
v 0.531250 -0.226666 -2.186719
v -0.531250 -0.179791 2.000781
v -0.531250 -0.179791 -2.186719
v -0.343750 -0.179791 -2.186719
v -0.343750 -0.179791 2.000781
v 0.343750 -0.179791 2.000781
v 0.343750 -0.179791 -2.186719
v 0.531250 -0.179791 -2.186719
v 0.531250 -0.179791 2.000781
v -1.421875 -0.226666 -2.186719
v -1.421875 -0.226666 2.000781
v -1.421875 -0.179791 2.000781
v -1.421875 -0.179791 -2.186719
v -1.234375 -0.226666 2.000781
v -1.234375 -0.226666 -2.186719
v -1.234375 -0.179791 -2.186719
v -1.234375 -0.179791 2.000781
v -0.312500 -0.226666 -2.186719
v -0.312500 -0.179791 -2.186719
v -0.125000 -0.226666 -2.186719
v -0.125000 -0.179791 -2.186719
v 1.421875 -0.179791 -2.186719
v 1.234375 -0.179791 -2.186719
v 1.234375 -0.179791 2.000781
v 1.421875 -0.179791 2.000781
v -1.187500 -0.226666 -2.186719
v -1.187500 -0.179791 -2.186719
v -1.000000 -0.226666 -2.186719
v -1.000000 -0.179791 -2.186719
v 1.234375 -0.226666 -2.186719
v 1.234375 -0.226666 2.000781
v 1.421875 -0.226666 2.000781
v 1.421875 -0.226666 -2.186719
v -0.781250 -0.226666 -2.186719
v -0.968750 -0.226666 -2.186719
v -0.968750 -0.179791 -2.186719
v -0.781250 -0.179791 -2.186719
vt 0.614789 0.473484
vt 0.614789 0.488302
vt 0.375000 0.488302
vt 0.375000 0.473484
vt 0.614789 0.482053
vt 0.614789 0.488302
vt 0.375000 0.488302
vt 0.375000 0.482053
vt 0.614789 0.482053
vt 0.614789 0.488302
vt 0.375000 0.488302
vt 0.375000 0.482053
vt 0.187500 0.802344
vt 0.435929 0.802344
vt 0.435929 0.808594
vt 0.187500 0.808594
vt 0.381250 0.473484
vt 0.381250 0.488302
vt 0.375000 0.488302
vt 0.375000 0.473484
vt 0.187500 0.713294
vt 0.193750 0.713294
vt 0.193750 0.808594
vt 0.187500 0.808594
vt 0.187500 0.713294
vt 0.193750 0.713294
vt 0.193750 0.808594
vt 0.187500 0.808594
vt 0.187500 0.802344
vt 0.435929 0.802344
vt 0.435929 0.808594
vt 0.187500 0.713294
vt 0.435929 0.713294
vt 0.435929 0.808594
vt 0.187500 0.808594
vt 0.614789 0.473484
vt 0.614789 0.488302
vt 0.375000 0.488302
vt 0.375000 0.473484
vt 0.614789 0.473484
vt 0.614789 0.488302
vt 0.375000 0.488302
vt 0.375000 0.473484
vt 0.375000 0.473484
vt 0.381250 0.473484
vt 0.381250 0.488302
vt 0.375000 0.488302
vt 0.375000 0.473484
vt 0.381250 0.473484
vt 0.381250 0.488302
vt 0.375000 0.488302
vt 0.375000 0.473484
vt 0.614789 0.473484
vt 0.614789 0.488302
vt 0.614789 0.473484
vt 0.614789 0.488302
vt 0.375000 0.488302
vt 0.375000 0.482053
vt 0.614789 0.482053
vt 0.614789 0.488302
vt 0.375000 0.488302
vt 0.375000 0.482053
vt 0.614789 0.482053
vt 0.614789 0.488302
vt 0.375000 0.488302
vt 0.614789 0.482053
vt 0.375000 0.488302
vt 0.375000 0.482053
vt 0.614789 0.482053
vt 0.614789 0.488302
vt 0.375000 0.488302
vt 0.375000 0.482053
vt 0.614789 0.473484
vt 0.614789 0.488302
vt 0.375000 0.473484
vt 0.381250 0.473484
vt 0.381250 0.488302
vt 0.375000 0.488302
vt 0.375000 0.473484
vt 0.614789 0.473484
vt 0.614789 0.488302
vt 0.375000 0.488302
vt 0.375000 0.473484
vt 0.381250 0.473484
vt 0.381250 0.488302
vt 0.375000 0.488302
vt 0.375000 0.473484
vt 0.593623 0.618750
vt 0.593623 0.625000
vt 0.518682 0.625000
vt 0.518682 0.618750
vt 0.593623 0.618750
vt 0.593623 0.625000
vt 0.518682 0.625000
vt 0.518682 0.618750
vt 0.518682 0.609460
vt 0.593623 0.609460
vt 0.593623 0.625000
vt 0.518682 0.625000
vt 0.518682 0.609460
vt 0.593623 0.609460
vt 0.593623 0.625000
vt 0.518682 0.625000
vt 0.518701 0.590674
vt 0.593652 0.590674
vt 0.593652 0.625000
vt 0.518701 0.590674
vt 0.593652 0.590674
vt 0.593652 0.625000
vt 0.375000 0.473484
vt 0.381250 0.473484
vt 0.381250 0.488302
vt 0.375000 0.488302
vt 0.375000 0.473484
vt 0.381250 0.473484
vt 0.381250 0.488302
vt 0.375000 0.488302
vt 0.381250 0.473484
vt 0.381250 0.488302
vt 0.375000 0.488302
vt 0.375000 0.473484
vt 0.614789 0.473484
vt 0.614789 0.488302
vt 0.375000 0.488302
vt 0.381250 0.473484
vt 0.381250 0.488302
vt 0.375000 0.488302
vt 0.375000 0.473484
vt 0.375000 0.482053
vt 0.614789 0.482053
vt 0.614789 0.488302
vt 0.375000 0.488302
vt 0.593623 0.618750
vt 0.593623 0.625000
vt 0.518682 0.625000
vt 0.518682 0.618750
vt 0.593623 0.618750
vt 0.593623 0.625000
vt 0.518682 0.625000
vt 0.518682 0.618750
vt 0.381250 0.473484
vt 0.381250 0.488302
vt 0.375000 0.488302
vt 0.375000 0.473484
vt 0.518682 0.609460
vt 0.593623 0.609460
vt 0.593623 0.625000
vt 0.518682 0.625000
vt 0.518701 0.590674
vt 0.593652 0.590674
vt 0.593652 0.625000
vt 0.518701 0.590674
vt 0.593652 0.590674
vt 0.593652 0.625000
vt 0.614789 0.482053
vt 0.375000 0.488302
vt 0.375000 0.482053
vt 0.614789 0.482053
vt 0.614789 0.488302
vt 0.375000 0.488302
vt 0.375000 0.482053
vt 0.614789 0.473484
vt 0.614789 0.488302
vt 0.375000 0.473484
vt 0.381250 0.473484
vt 0.381250 0.488302
vt 0.375000 0.488302
vt 0.375000 0.473484
vt 0.381250 0.473484
vt 0.381250 0.488302
vt 0.375000 0.488302
vt 0.375000 0.473484
vt 0.381250 0.473484
vt 0.381250 0.488302
vt 0.375000 0.488302
vt 0.375000 0.473484
vt 0.614789 0.482053
vt 0.375000 0.488302
vt 0.375000 0.482053
vt 0.614789 0.482053
vt 0.614789 0.488302
vt 0.375000 0.488302
vt 0.375000 0.482053
vt 0.614789 0.473484
vt 0.614789 0.488302
vt 0.375000 0.473484
vt 0.614789 0.482053
vt 0.614789 0.488302
vt 0.375000 0.488302
vt 0.375000 0.482053
vt 0.614789 0.473484
vt 0.614789 0.488302
vt 0.375000 0.488302
vt 0.375000 0.473484
vt 0.381250 0.473484
vt 0.381250 0.488302
vt 0.375000 0.488302
vt 0.375000 0.473484
vt 0.614789 0.482053
vt 0.375000 0.488302
vt 0.375000 0.482053
vt 0.614789 0.482053
vt 0.614789 0.488302
vt 0.375000 0.488302
vt 0.375000 0.482053
vt 0.614789 0.473484
vt 0.614789 0.488302
vt 0.375000 0.473484
vt 0.187500 0.713294
vt 0.435929 0.713294
vt 0.435929 0.808594
vt 0.187500 0.808594
vt 0.614789 0.473484
vt 0.614789 0.488302
vt 0.375000 0.488302
vt 0.375000 0.473484
vt 0.381250 0.473484
vt 0.381250 0.488302
vt 0.375000 0.488302
vt 0.375000 0.473484
vt 0.614789 0.482053
vt 0.375000 0.488302
vt 0.375000 0.482053
vt 0.614789 0.482053
vt 0.614789 0.488302
vt 0.375000 0.488302
vt 0.375000 0.482053
vt 0.614789 0.473484
vt 0.614789 0.488302
vt 0.375000 0.473484
vt 0.381250 0.473484
vt 0.381250 0.488302
vt 0.375000 0.488302
vt 0.375000 0.473484
vt 0.381250 0.473484
vt 0.381250 0.488302
vt 0.375000 0.488302
vt 0.375000 0.473484
vt 0.381250 0.473484
vt 0.381250 0.488302
vt 0.375000 0.488302
vt 0.375000 0.473484
vt 0.614789 0.482053
vt 0.375000 0.488302
vt 0.375000 0.482053
vt 0.614789 0.482053
vt 0.614789 0.488302
vt 0.375000 0.488302
vt 0.375000 0.482053
vt 0.614789 0.473484
vt 0.614789 0.488302
vt 0.375000 0.473484
vt 0.381250 0.473484
vt 0.381250 0.488302
vt 0.375000 0.488302
vt 0.375000 0.473484
vt 0.614789 0.473484
vt 0.614789 0.488302
vt 0.375000 0.488302
vt 0.375000 0.473484
vt 0.381250 0.473484
vt 0.381250 0.488302
vt 0.375000 0.488302
vt 0.375000 0.473484
vt 0.614789 0.482053
vt 0.614789 0.488302
vt 0.375000 0.488302
vt 0.375000 0.482053
vt 0.614789 0.482053
vt 0.614789 0.488302
vt 0.375000 0.488302
vt 0.375000 0.482053
vt 0.381250 0.473484
vt 0.381250 0.488302
vt 0.375000 0.488302
vt 0.375000 0.473484
vt 0.614789 0.473484
vt 0.375000 0.488302
vt 0.375000 0.473484
vt 0.614789 0.473484
vt 0.614789 0.488302
vt 0.375000 0.473484
vt 0.381250 0.473484
vt 0.381250 0.488302
vt 0.375000 0.488302
vt 0.375000 0.473484
vt 0.614789 0.482053
vt 0.614789 0.488302
vt 0.375000 0.488302
vt 0.375000 0.482053
vt 0.614789 0.482053
vt 0.614789 0.488302
vt 0.375000 0.488302
vt 0.375000 0.482053
vt 0.614789 0.473484
vt 0.614789 0.488302
vt 0.375000 0.473484
vt 0.614789 0.473484
vt 0.375000 0.488302
vt 0.375000 0.473484
vt 0.381250 0.473484
vt 0.381250 0.488302
vt 0.375000 0.488302
vt 0.375000 0.473484
vt 0.614789 0.473484
vt 0.614789 0.488302
vt 0.375000 0.488302
vt 0.375000 0.473484
vt 0.614789 0.482053
vt 0.614789 0.488302
vt 0.375000 0.488302
vt 0.375000 0.482053
vt 0.614789 0.482053
vt 0.614789 0.488302
vt 0.375000 0.488302
vt 0.375000 0.482053
vt 0.614789 0.473484
vt 0.375000 0.488302
vt 0.375000 0.473484
vt 0.614789 0.473484
vt 0.375000 0.488302
vt 0.375000 0.473484
vt 0.381250 0.473484
vt 0.381250 0.488302
vt 0.375000 0.488302
vt 0.375000 0.473484
vt 0.375000 0.473484
vt 0.614789 0.473484
vt 0.614789 0.488302
vt 0.614789 0.482053
vt 0.614789 0.488302
vt 0.375000 0.482053
vt 0.614789 0.482053
vt 0.614789 0.488302
vt 0.375000 0.488302
vt 0.375000 0.482053
vt 0.381250 0.473484
vt 0.381250 0.488302
vt 0.375000 0.488302
vt 0.375000 0.473484
vt 0.381250 0.473484
vt 0.381250 0.488302
vt 0.375000 0.488302
vt 0.375000 0.473484
vt 0.614789 0.473484
vt 0.375000 0.488302
vt 0.375000 0.473484
vt 0.518682 0.609460
vt 0.593623 0.609460
vt 0.593623 0.625000
vt 0.518682 0.625000
vt 0.614789 0.482053
vt 0.375000 0.488302
vt 0.375000 0.482053
vt 0.381250 0.473484
vt 0.381250 0.488302
vt 0.375000 0.488302
vt 0.375000 0.473484
vt 0.381250 0.473484
vt 0.381250 0.488302
vt 0.375000 0.488302
vt 0.375000 0.473484
vt 0.381250 0.473484
vt 0.381250 0.488302
vt 0.375000 0.488302
vt 0.375000 0.473484
vt 0.614789 0.473484
vt 0.614789 0.488302
vt 0.375000 0.488302
vt 0.375000 0.473484
vt 0.614789 0.473484
vt 0.614789 0.488302
vt 0.375000 0.473484
vt 0.614789 0.482053
vt 0.375000 0.488302
vt 0.375000 0.482053
vt 0.614789 0.482053
vt 0.614789 0.488302
vt 0.375000 0.488302
vt 0.375000 0.482053
vt 0.614789 0.473484
vt 0.614789 0.488302
vt 0.375000 0.473484
vt 0.614789 0.473484
vt 0.614789 0.488302
vt 0.375000 0.473484
vt 0.614789 0.473484
vt 0.614789 0.488302
vt 0.375000 0.473484
vt 0.375000 0.482053
vt 0.614789 0.482053
vt 0.614789 0.488302
vt 0.375000 0.488302
vt 0.381250 0.473484
vt 0.381250 0.488302
vt 0.375000 0.488302
vt 0.375000 0.473484
vn 0.0000 -1.0000 -0.0000
vn -1.0000 0.0000 0.0000
vn 1.0000 0.0000 0.0000
vn 0.0000 0.0000 -1.0000
vn 0.0000 1.0000 0.0000
vn 0.0000 0.0000 1.0000
usemtl 0.002
s 1
f 1/1/1 2/2/1 3/3/1 4/4/1
f 5/5/2 6/6/2 7/7/2 8/8/2
f 9/9/3 10/10/3 11/11/3 12/12/3
f 13/13/1 14/14/1 15/15/1 16/16/1
f 17/17/4 18/18/4 19/19/4 20/20/4
f 15/21/2 14/22/2 21/23/2 22/24/2
f 13/25/3 16/26/3 23/27/3 24/28/3
f 23/29/5 22/30/5 21/31/5 24/28/5
f 16/32/4 15/33/4 22/34/4 23/35/4
f 25/36/1 26/37/1 27/38/1 28/39/1
f 29/40/1 30/41/1 31/42/1 32/43/1
f 33/44/2 34/45/2 35/46/2 36/47/2
f 37/48/3 38/49/3 39/50/3 40/51/3
f 39/52/5 36/53/5 35/54/5 40/51/5
f 37/48/1 34/55/1 33/56/1 38/57/1
f 38/58/4 33/59/4 36/60/4 39/61/4
f 34/62/6 37/63/6 40/64/6 35/65/6
f 27/66/2 26/37/2 41/67/2 42/68/2
f 25/69/3 28/70/3 43/71/3 44/72/3
f 43/73/5 42/74/5 41/67/5 44/75/5
f 28/76/4 27/77/4 42/78/4 43/79/4
f 45/80/1 46/81/1 47/82/1 48/83/1
f 10/84/4 49/85/4 50/86/4 11/87/4
f 51/88/2 52/89/2 53/90/2 54/91/2
f 55/92/3 56/93/3 57/94/3 58/95/3
f 57/96/5 54/97/5 53/98/5 58/99/5
f 55/100/1 52/101/1 51/102/1 56/103/1
f 56/104/4 51/105/4 54/106/4 57/94/4
f 52/107/6 55/108/6 58/109/6 53/90/6
f 59/110/2 60/111/2 61/112/2 62/113/2
f 63/114/3 64/115/3 65/116/3 66/117/3
f 67/118/6 68/119/6 69/120/6 70/121/6
f 63/114/1 60/122/1 59/123/1 64/124/1
f 6/125/6 71/126/6 72/127/6 7/128/6
f 60/129/6 63/130/6 66/131/6 61/132/6
f 73/133/2 74/134/2 75/135/2 76/136/2
f 77/137/3 78/138/3 79/139/3 80/140/3
f 81/141/6 82/142/6 83/143/6 84/144/6
f 77/145/1 74/146/1 73/147/1 78/148/1
f 78/149/4 73/150/4 76/151/4 79/139/4
f 74/152/6 77/153/6 80/154/6 75/135/6
f 47/155/2 46/81/2 85/156/2 86/157/2
f 45/158/3 48/159/3 87/160/3 88/161/3
f 87/162/5 86/163/5 85/156/5 88/164/5
f 89/165/6 9/166/6 12/167/6 90/168/6
f 91/169/6 92/170/6 93/171/6 94/172/6
f 46/173/6 45/174/6 88/175/6 85/176/6
f 3/177/2 2/2/2 95/178/2 96/179/2
f 1/180/3 4/181/3 97/182/3 98/183/3
f 97/184/5 96/185/5 95/178/5 98/186/5
f 71/187/3 99/188/3 100/189/3 72/190/3
f 101/191/1 102/192/1 18/193/1 17/194/1
f 2/195/6 1/196/6 98/197/6 95/198/6
f 18/199/2 102/192/2 103/200/2 19/201/2
f 101/202/3 17/203/3 20/204/3 104/205/3
f 20/206/5 19/207/5 103/200/5 104/208/5
f 14/209/6 13/210/6 24/211/6 21/212/6
f 105/213/1 106/214/1 107/215/1 108/216/1
f 102/217/6 101/218/6 104/219/6 103/220/6
f 31/221/2 30/41/2 109/222/2 110/223/2
f 29/224/3 32/225/3 111/226/3 112/227/3
f 111/228/5 110/229/5 109/222/5 112/230/5
f 26/231/6 25/232/6 44/233/6 41/234/6
f 32/235/4 31/236/4 110/237/4 111/238/4
f 30/239/6 29/240/6 112/241/6 109/242/6
f 107/243/2 106/214/2 113/244/2 114/245/2
f 105/246/3 108/247/3 115/248/3 116/249/3
f 115/250/5 114/251/5 113/244/5 116/252/5
f 108/253/4 107/254/4 114/255/4 115/256/4
f 9/257/1 89/258/1 49/259/1 10/260/1
f 106/261/6 105/262/6 116/263/6 113/264/6
f 117/265/2 118/266/2 119/267/2 120/268/2
f 121/269/3 122/270/3 123/271/3 124/272/3
f 99/273/4 5/274/4 8/275/4 100/276/4
f 121/277/1 118/266/1 117/278/1 122/279/1
f 100/280/5 8/281/5 7/7/5 72/282/5
f 118/283/6 121/284/6 124/285/6 119/286/6
f 125/287/2 67/288/2 70/289/2 126/290/2
f 68/291/3 127/292/3 128/293/3 69/294/3
f 128/295/5 126/296/5 70/289/5 69/297/5
f 68/298/1 67/288/1 125/299/1 127/300/1
f 127/301/4 125/302/4 126/303/4 128/304/4
f 129/305/5 130/306/5 131/307/5 132/308/5
f 133/309/2 81/310/2 84/311/2 134/312/2
f 82/313/3 135/314/3 136/315/3 83/316/3
f 71/317/1 6/6/1 5/318/1 99/319/1
f 82/320/1 81/310/1 133/321/1 135/322/1
f 135/323/4 133/324/4 134/325/4 136/326/4
f 65/327/5 62/328/5 61/329/5 66/117/5
f 137/330/2 138/331/2 131/307/2 130/332/2
f 139/333/3 140/334/3 129/335/3 132/336/3
f 141/337/4 142/338/4 143/339/4 144/340/4
f 140/341/4 137/342/4 130/343/4 129/344/4
f 139/345/1 138/331/1 137/346/1 140/347/1
f 79/348/5 76/349/5 75/350/5 80/351/5
f 49/352/2 89/258/2 90/353/2 50/354/2
f 48/355/4 47/356/4 86/357/4 87/358/4
f 122/359/4 117/360/4 120/361/4 123/362/4
f 138/363/6 139/364/6 132/365/6 131/366/6
f 92/367/1 91/368/1 142/369/1 141/370/1
f 11/371/5 50/372/5 90/353/5 12/373/5
f 142/374/2 91/368/2 94/375/2 143/376/2
f 92/377/3 141/378/3 144/379/3 93/380/3
f 144/381/5 143/382/5 94/375/5 93/383/5
f 136/384/5 134/385/5 84/311/5 83/386/5
f 123/387/5 120/388/5 119/267/5 124/389/5
f 64/390/4 59/391/4 62/392/4 65/393/4
f 4/394/4 3/395/4 96/396/4 97/397/4
