# Blender v2.79 (sub 0) OBJ File: ''
# www.blender.org
mtllib brigbedbox.mtl
o cube.002
v 0.281250 -0.237604 -0.483594
v -0.281250 -0.237604 -0.483594
v -0.281250 -0.237604 -0.421094
v 0.281250 -0.237604 -0.421094
v 0.281250 -0.237604 1.328906
v -0.281250 -0.237604 1.328906
v -0.281250 -0.237604 1.391406
v 0.281250 -0.237604 1.391406
v 1.437500 -0.226666 2.000781
v 1.437562 -0.226666 2.000781
v 1.437562 2.320209 2.000781
v 1.437500 2.320209 2.000781
v -1.437500 2.320210 -2.186718
v -1.437563 2.320210 -2.186718
v -1.437562 2.320209 2.000781
v -1.437500 2.320209 2.000781
v 1.437500 -0.226667 -2.186719
v 1.437562 -0.226667 -2.186719
v 1.437500 2.320210 -2.186719
v -1.437500 -0.226666 2.000781
v -1.437500 -0.226667 -2.186719
v 0.281250 -0.737604 1.391406
v 0.281250 -0.737604 1.328906
v -1.437562 -0.226666 2.000781
v -0.281250 -0.737604 1.328906
v -0.281250 -0.737604 1.391406
v -1.437563 -0.226667 -2.186719
v 0.281250 -0.737604 -0.483594
v -0.281250 -0.737604 -0.483594
v 1.437562 2.320210 -2.186719
v -1.437500 -0.226666 2.000781
v 1.437500 -0.226666 2.000781
v 1.437500 2.320209 2.000781
v -1.437500 2.320209 2.000781
v -1.437500 -0.226667 -2.186719
v 1.437500 -0.226667 -2.186719
v -1.437500 2.320210 -2.186718
v 0.281250 -0.737604 -0.421094
v -0.281250 -0.737604 -0.421094
v 1.437500 2.320210 -2.186719
vt 0.457031 0.564062
vt 0.519531 0.564062
vt 0.519531 0.570312
vt 0.457031 0.570312
vt 0.457031 0.564062
vt 0.519531 0.564062
vt 0.519531 0.570312
vt 0.457031 0.570312
vt 0.382812 0.003179
vt 0.997590 0.003179
vt 0.997590 0.367188
vt 0.382812 0.367188
vt 0.382812 0.003179
vt 0.997590 0.003179
vt 0.997590 0.367188
vt 0.382812 0.367188
vt 0.382812 0.003179
vt 0.997590 0.003179
vt 0.997590 0.367188
vt 0.382812 0.367188
vt 0.382812 0.003179
vt 0.997590 0.367188
vt 0.382812 0.367188
vt 0.382812 0.003179
vt 0.997590 0.003179
vt 0.997590 0.367188
vt 0.457031 0.515625
vt 0.463281 0.515625
vt 0.463281 0.570312
vt 0.382812 0.003179
vt 0.997590 0.003179
vt 0.997590 0.367188
vt 0.382812 0.367188
vt 0.457031 0.515625
vt 0.463281 0.515625
vt 0.463281 0.570312
vt 0.457031 0.570312
vt 0.997590 0.003179
vt 0.997590 0.367188
vt 0.382812 0.367188
vt 0.457031 0.515625
vt 0.519531 0.515625
vt 0.519531 0.570312
vt 0.457031 0.570312
vt 0.382812 0.003179
vt 0.997590 0.003179
vt 0.382812 0.367188
vt 0.997590 0.003179
vt 0.997590 0.367188
vt 0.187500 0.628142
vt 0.396866 0.628142
vt 0.396866 0.812500
vt 0.187500 0.812500
vt 0.457031 0.564062
vt 0.519531 0.564062
vt 0.519531 0.570312
vt 0.457031 0.570312
vt 0.435111 0.651596
vt 0.435111 0.812500
vt 0.187500 0.812500
vt 0.187500 0.651596
vt 0.187500 0.651596
vt 0.435111 0.651596
vt 0.435111 0.812500
vt 0.187500 0.812500
vt 0.457031 0.515625
vt 0.463281 0.515625
vt 0.463281 0.570312
vt 0.457031 0.515625
vt 0.519531 0.515625
vt 0.519531 0.570312
vt 0.457031 0.570312
vt 0.457031 0.515625
vt 0.519531 0.515625
vt 0.519531 0.570312
vt 0.457031 0.570312
vt 0.382812 0.003179
vt 0.382812 0.367188
vt 0.457031 0.564062
vt 0.519531 0.564062
vt 0.519531 0.570312
vt 0.457031 0.570312
vt 0.435111 0.651596
vt 0.435111 0.812500
vt 0.187500 0.651596
vt 0.187500 0.651596
vt 0.435111 0.651596
vt 0.435111 0.812500
vt 0.187500 0.812500
vt 0.457031 0.515625
vt 0.519531 0.515625
vt 0.519531 0.570312
vt 0.457031 0.570312
vt 0.382812 0.003179
vt 0.997590 0.003179
vt 0.997590 0.367188
vt 0.382812 0.367188
vt 0.187500 0.628142
vt 0.396866 0.628142
vt 0.396866 0.812500
vt 0.187500 0.812500
vt 0.382812 0.003179
vt 0.997590 0.003179
vt 0.997590 0.367188
vt 0.382812 0.367188
vt 0.457031 0.515625
vt 0.463281 0.515625
vt 0.463281 0.570312
vt 0.457031 0.570312
vn 0.0000 1.0000 0.0000
vn 0.0000 -0.0000 1.0000
vn 0.0000 -1.0000 0.0000
vn -1.0000 0.0000 0.0000
vn 1.0000 0.0000 0.0000
vn 0.0000 0.0000 -1.0000
usemtl 1
s 1
f 1/1/1 2/2/1 3/3/1 4/4/1
f 5/5/1 6/6/1 7/7/1 8/8/1
f 9/9/2 10/10/2 11/11/2 12/12/2
f 13/13/1 14/14/1 15/15/1 16/16/1
f 10/17/3 9/18/3 17/19/3 18/20/3
f 17/21/4 9/18/4 12/22/4 19/23/4
f 20/24/5 21/25/5 13/26/5 16/16/5
f 22/27/5 23/28/5 5/29/5 8/8/5
f 24/30/2 20/31/2 16/32/2 15/33/2
f 25/34/4 26/35/4 7/36/4 6/37/4
f 20/24/3 24/38/3 27/39/3 21/40/3
f 28/41/6 29/42/6 2/43/6 1/44/6
f 30/45/1 19/46/1 12/22/1 11/47/1
f 10/17/5 18/48/5 30/49/5 11/47/5
f 31/50/2 32/51/2 33/52/2 34/53/2
f 22/54/3 26/55/3 25/56/3 23/57/3
f 32/58/3 31/59/3 35/60/3 36/61/3
f 35/62/4 31/63/4 34/64/4 37/65/4
f 38/66/5 28/67/5 1/68/5 4/4/5
f 23/69/6 25/70/6 6/71/6 5/72/6
f 39/73/2 38/74/2 4/75/2 3/76/2
f 27/77/4 24/38/4 15/15/4 14/78/4
f 38/79/3 39/80/3 29/81/3 28/82/3
f 40/83/1 37/84/1 34/53/1 33/85/1
f 32/86/5 36/87/5 40/88/5 33/89/5
f 26/90/2 22/91/2 8/92/2 7/93/2
f 18/94/6 17/95/6 19/96/6 30/97/6
f 36/98/6 35/99/6 37/100/6 40/101/6
f 21/102/6 27/103/6 14/104/6 13/105/6
f 29/106/4 39/107/4 3/108/4 2/109/4
