# Blender v2.79 (sub 0) OBJ File: ''
# www.blender.org
mtllib cratebell47g.mtl
o bell47-storagecontainer
v 0.539543 0.629466 0.269771
v 0.539543 -0.000000 0.269771
v 0.539543 0.629467 -0.269771
v 0.539543 0.000000 -0.269771
v -0.539543 0.629467 -0.269771
v -0.539543 0.000000 -0.269771
v -0.539543 0.629466 0.269771
v -0.539543 -0.000000 0.269771
v 0.089924 0.539543 -0.269771
v 0.089924 0.269771 -0.269771
v 0.089924 0.539543 -0.359695
v 0.089924 0.269771 -0.359695
v -0.089924 0.539543 -0.359695
v -0.089924 0.269771 -0.359695
v -0.089924 0.539543 -0.269771
v -0.089924 0.269771 -0.269771
vt 0.000000 0.187500
vt 0.187500 0.187500
vt 0.187500 0.625000
vt 0.000000 0.625000
vt 0.031250 0.750000
vt 0.093750 0.750000
vt 0.093750 0.937500
vt 0.031250 0.937500
vt 0.125000 0.750000
vt 0.125000 0.937500
vt 0.000000 0.750000
vt 0.000000 0.937500
vt 0.562500 1.000000
vt 0.187500 1.000000
vt 0.562500 0.625000
vt 0.187500 0.750000
vt 0.187500 0.937500
vt 0.562500 0.187500
vt 0.187500 0.187500
vt 0.562500 0.187500
vt 0.562500 0.625000
vt 0.187500 0.625000
vt 0.562500 0.625000
vt 0.187500 0.625000
vt 0.187500 1.000000
vt 0.562500 1.000000
vt -0.000000 0.187500
vt -0.000000 0.625000
vt 0.093750 1.000000
vt 0.031250 1.000000
vt 0.156250 0.937500
vt 0.093750 0.937500
vt 0.093750 1.000000
vt 0.156250 1.000000
vn 1.0000 0.0000 0.0000
vn 0.0000 0.0000 -1.0000
vn -1.0000 0.0000 0.0000
vn 0.0000 1.0000 0.0000
vn 0.0000 -0.0000 1.0000
vn 0.0000 -1.0000 -0.0000
usemtl 0
s 1
f 2/1/1 4/2/1 3/3/1 1/4/1
f 12/5/2 14/6/2 13/7/2 11/8/2
f 14/6/3 16/9/3 15/10/3 13/7/3
f 10/11/1 12/5/1 11/8/1 9/12/1
f 7/13/4 1/14/4 3/3/4 5/15/4
f 16/9/5 10/16/5 9/17/5 15/10/5
f 4/2/2 6/18/2 5/15/2 3/3/2
f 8/19/5 2/20/5 1/21/5 7/22/5
f 6/23/6 4/24/6 2/25/6 8/26/6
f 6/27/3 8/19/3 7/22/3 5/28/3
f 15/29/4 9/30/4 11/8/4 13/7/4
f 14/31/6 12/32/6 10/33/6 16/34/6
