# Blender v2.79 (sub 0) OBJ File: ''
# www.blender.org
mtllib engineamci4.mtl
o I4_Engine.001
v 0.134897 -0.023380 1.000000
v 0.384897 0.216951 1.000000
v 0.259897 0.289120 1.000000
v 0.009897 -0.023380 1.000000
v -0.115103 0.101620 1.000000
v 0.009897 -0.148380 1.000000
v -0.115103 -0.023380 1.000000
v -0.240103 -0.023380 1.000000
v 0.384897 -0.210880 1.000000
v -0.240103 0.101620 1.000000
v -0.115103 0.289120 1.000000
v 0.134897 -0.148380 1.000000
v -0.365103 -0.210880 1.000000
v -0.365103 0.144782 1.000000
v -0.396353 0.198909 1.000000
v -0.146353 0.343247 1.000000
v 0.009897 0.289120 0.937500
v 0.134897 0.289120 0.937500
v 0.009897 0.289120 0.062500
v 0.134897 0.289120 0.062500
v -0.052603 0.289120 0.062500
v -0.115103 0.289120 0.000000
v -0.052603 0.289120 0.937500
v 0.259897 0.289120 0.000000
v 0.197397 0.289120 0.062500
v 0.197397 0.289120 0.937500
v -0.362859 0.218247 0.437500
v -0.362859 0.218247 0.250000
v -0.396353 0.198909 0.000000
v -0.200480 0.311997 0.750000
v -0.200480 0.311997 0.562500
v -0.146353 0.343247 0.000000
v -0.362859 0.218247 0.750000
v -0.362859 0.218247 0.562500
v -0.200480 0.311997 0.437500
v -0.200480 0.311997 0.250000
v -0.200480 0.311997 0.250000
v -0.362859 0.218247 0.250000
v -0.362859 0.218247 0.062500
v -0.200480 0.311997 0.062500
v -0.362859 0.218247 0.750000
v -0.200480 0.311997 0.750000
v -0.200480 0.311997 0.937500
v -0.362859 0.218247 0.937500
v -0.365103 0.144782 0.000000
v -0.365103 -0.210880 -0.000000
v 0.384897 -0.210880 -0.000000
v 0.384897 0.216951 0.000000
v 0.384897 0.216951 0.000000
v 0.384897 0.216951 1.000000
v -0.394109 0.272373 0.062500
v -0.231730 0.366123 0.062500
v -0.394109 0.272373 0.250000
v -0.231730 0.366123 0.250000
v -0.394109 0.272373 0.562500
v -0.231730 0.366123 0.562500
v -0.394109 0.272373 0.750000
v -0.231730 0.366123 0.750000
v -0.394109 0.272373 0.250000
v -0.231730 0.366123 0.250000
v -0.394109 0.272373 0.437500
v -0.231730 0.366123 0.437500
v -0.394109 0.272373 0.750000
v -0.231730 0.366123 0.750000
v -0.394109 0.272373 0.937500
v -0.231730 0.366123 0.937500
v 0.134897 0.351620 0.062500
v 0.197397 0.351620 0.062500
v 0.134897 0.351620 0.937500
v 0.197397 0.351620 0.937500
v -0.052603 0.351620 0.062500
v 0.009897 0.351620 0.062500
v -0.052603 0.351620 0.937500
v 0.009897 0.351620 0.937500
v 0.009897 -0.148380 1.062500
v 0.009897 -0.023380 1.062500
v 0.134897 -0.148380 1.062500
v 0.134897 -0.023380 1.062500
v -0.240103 -0.023380 1.062500
v -0.240103 0.101620 1.062500
v -0.115103 -0.023380 1.062500
v -0.115103 0.101620 1.062500
vt 0.109375 0.781250
vt 0.078125 0.843750
vt 0.109375 0.718750
vt 0.078125 0.781250
vt 0.046875 0.781250
vt 0.140625 0.781250
vt 0.171875 0.937500
vt 0.046875 0.843750
vt 0.078125 0.937500
vt 0.140625 0.718750
vt 0.203125 0.687500
vt 0.015625 0.687500
vt 0.015625 0.865313
vt 0.007812 0.892500
vt 0.234375 0.937500
vt 0.203125 0.687500
vt 0.390625 0.687500
vt 0.328125 0.937500
vt 0.640625 0.750000
vt 0.640625 0.656250
vt 0.671875 0.656250
vt 0.671875 0.750000
vt 0.765625 0.281250
vt 0.781250 0.312500
vt 0.546875 0.281250
vt 0.531250 0.312500
vt 0.546875 0.250000
vt 0.531250 0.125000
vt 0.546875 0.187500
vt 0.765625 0.250000
vt 0.765625 0.187500
vt 0.781250 0.125000
vt 0.765625 0.156250
vt 0.546875 0.156250
vt 0.593750 0.656250
vt 0.531250 0.625000
vt 0.718750 0.750000
vt 0.781250 0.781250
vt 0.531250 0.781250
vt 0.734375 0.656250
vt 0.781250 0.625000
vt 0.531250 0.031250
vt 0.781250 0.031250
vt 0.593750 0.750000
vt 0.578125 0.750000
vt 0.593750 0.875000
vt 0.640625 0.875000
vt 0.640625 0.968750
vt 0.593750 0.968750
vt 0.578125 0.656250
vt 0.546875 0.656250
vt 0.765625 0.750000
vt 0.765625 0.656250
vt 0.546875 0.750000
vt 0.718750 0.656250
vt 0.453125 0.562500
vt 0.453125 0.593750
vt 0.421875 0.593750
vt 0.421875 0.562500
vt 0.734375 0.750000
vt 0.203125 0.901250
vt 0.070312 0.964688
vt 0.390625 0.865313
vt 0.203125 0.901250
vt 0.421875 0.343750
vt 0.421875 0.312500
vt 0.453125 0.312500
vt 0.453125 0.343750
vt 0.515625 0.500000
vt 0.515625 0.468750
vt 0.734375 0.468750
vt 0.734375 0.500000
vt 0.500000 0.875000
vt 0.546875 0.875000
vt 0.546875 0.968750
vt 0.500000 0.968750
vt 0.640625 1.000000
vt 0.593750 1.000000
vt 0.781250 0.812500
vt 0.531250 0.812500
vt 0.734375 0.968750
vt 0.734375 1.000000
vt 0.687500 1.000000
vt 0.687500 0.968750
vt 0.828125 0.875000
vt 0.843750 0.875000
vt 0.843750 0.968750
vt 0.828125 0.968750
vt 0.296875 0.562500
vt 0.296875 0.062500
vt 0.390625 0.062500
vt 0.390625 0.562500
vt 0.515625 0.531250
vt 0.500000 0.531250
vt 0.500000 0.500000
vt 0.335938 0.964688
vt 0.398438 0.892500
vt 0.468750 0.343750
vt 0.468750 0.406250
vt 0.453125 0.406250
vt 0.734375 0.375000
vt 0.750000 0.375000
vt 0.750000 0.406250
vt 0.734375 0.406250
vt 0.671875 0.968750
vt 0.671875 0.875000
vt 0.687500 0.875000
vt 0.515625 0.375000
vt 0.515625 0.343750
vt 0.734375 0.343750
vt 0.656250 0.875000
vt 0.656250 0.968750
vt 0.453125 0.500000
vt 0.421875 0.500000
vt 0.734375 0.437500
vt 0.515625 0.437500
vt 0.515625 0.406250
vt 0.484375 0.968750
vt 0.484375 0.875000
vt 0.421875 0.406250
vt 0.531250 0.593750
vt 0.781250 0.593750
vt 0.750000 0.500000
vt 0.750000 0.531250
vt 0.734375 0.531250
vt 0.781250 0.875000
vt 0.781250 0.968750
vt 0.828125 1.000000
vt 0.781250 1.000000
vt 0.406250 0.406250
vt 0.406250 0.343750
vt 0.406250 0.562500
vt 0.406250 0.500000
vt 0.546875 1.000000
vt 0.500000 1.000000
vt 0.781250 0.843750
vt 0.828125 0.843750
vt 0.109375 0.062500
vt 0.109375 0.562500
vt 0.000000 0.562500
vt 0.000000 0.062500
vt 0.734375 0.875000
vt 0.500000 0.406250
vt 0.500000 0.375000
vt 0.734375 0.562500
vt 0.515625 0.562500
vt 0.593750 0.843750
vt 0.640625 0.843750
vt 0.687500 0.843750
vt 0.734375 0.843750
vt 0.468750 0.500000
vt 0.468750 0.562500
vt 0.453125 0.437500
vt 0.421875 0.437500
vt 0.500000 0.843750
vt 0.546875 0.843750
vt 0.421875 0.468750
vt 0.453125 0.468750
vn 0.0000 0.0000 1.0000
vn 0.0000 0.0000 -1.0000
vn -0.5000 0.8660 0.0000
vn -0.0000 1.0000 0.0000
vn -0.4426 0.7666 0.4653
vn -0.4395 0.7613 0.4767
vn -0.7613 0.6485 0.0000
vn 0.5000 0.8660 0.0000
vn -0.0586 0.9665 0.2497
vn 0.8706 0.1328 0.4737
vn -0.0486 0.0842 0.9953
vn -0.9996 0.0284 0.0000
vn -1.0000 0.0000 0.0000
vn -0.0770 0.1335 0.9881
vn -0.8660 -0.5000 -0.0000
vn 0.8660 0.5000 0.0000
vn -0.9659 -0.2588 -0.0000
vn 1.0000 -0.0000 0.0000
vn 0.0000 -1.0000 -0.0000
usemtl None.005
s 1
f 4/1/1 5/2/1 6/3/1
f 6/3/1 5/2/1 7/4/1
f 6/3/1 7/4/1 8/5/1
f 4/1/1 1/6/1 5/2/1
f 5/2/1 1/6/1 3/7/1
f 5/2/1 3/7/1 10/8/1
f 10/8/1 3/7/1 11/9/1
f 1/6/1 12/10/1 9/11/1
f 9/11/1 12/10/1 6/3/1
f 9/11/1 6/3/1 13/12/1
f 13/12/1 6/3/1 8/5/1
f 13/12/1 8/5/1 14/13/1
f 14/13/1 8/5/1 10/8/1
f 14/13/1 10/8/1 15/14/1
f 24/15/2 47/16/2 46/17/2 22/18/2
f 35/19/3 27/20/3 34/21/3 31/22/3
f 21/23/4 22/24/4 23/25/4
f 23/25/4 22/24/4 11/26/4
f 23/25/4 11/26/4 17/27/4
f 17/27/4 11/26/4 3/28/4
f 17/27/4 3/28/4 18/29/4
f 21/23/4 19/30/4 22/24/4
f 22/24/4 19/30/4 20/31/4
f 22/24/4 20/31/4 24/32/4
f 24/32/4 20/31/4 25/33/4
f 24/32/4 25/33/4 3/28/4
f 3/28/4 25/33/4 26/34/4
f 3/28/4 26/34/4 18/29/4
f 27/20/3 28/35/5 29/36/3
f 30/37/6 16/38/3 31/22/3
f 31/22/3 16/38/3 32/39/3
f 33/40/7 29/36/3 15/41/3
f 24/32/8 3/28/8 50/42/8 49/43/8
f 35/19/3 31/22/3 32/39/3
f 35/19/3 32/39/3 36/44/9
f 36/44/9 32/39/3 37/45/10
f 58/46/3 56/47/3 55/48/3 57/49/3
f 28/35/5 38/50/11 29/36/3
f 29/36/3 38/50/11 39/51/3
f 43/52/3 44/53/3 15/41/3 16/38/3
f 32/39/3 40/54/3 37/45/10
f 34/21/3 27/20/3 29/36/3
f 34/21/3 29/36/3 41/55/12
f 41/55/12 29/36/3 33/40/7
f 80/56/13 10/57/13 8/58/13 79/59/13
f 30/37/6 42/60/14 16/38/3
f 16/38/3 42/60/14 43/52/3
f 1/6/1 9/11/1 2/61/1 3/7/1
f 15/41/3 44/53/3 33/40/7
f 11/9/1 16/62/1 15/14/1 10/8/1
f 45/63/2 22/18/2 46/17/2
f 39/51/3 40/54/3 32/39/3 29/36/3
f 47/16/2 24/15/2 48/64/2
f 78/65/4 1/66/4 4/67/4 76/68/4
f 71/69/13 21/70/13 23/71/13 73/72/13
f 66/73/3 64/74/3 63/75/3 65/76/3
f 55/48/15 34/77/15 41/78/15 57/49/15
f 16/38/16 11/79/16 22/80/16 32/39/16
f 59/81/15 28/82/15 27/83/15 61/84/15
f 52/85/2 40/86/2 39/87/2 51/88/2
f 18/29/4 20/31/4 19/30/4 17/27/4
f 46/89/13 13/90/13 14/91/17 45/92/17
f 72/93/2 19/94/2 21/95/2 71/69/2
f 32/96/2 22/18/2 45/63/2 29/97/2
f 76/68/13 4/98/13 6/99/13 75/100/13
f 69/101/1 18/102/1 26/103/1 70/104/1
f 61/84/1 27/105/1 35/106/1 62/107/1
f 67/108/13 20/109/13 18/110/13 69/101/13
f 56/47/2 31/111/2 34/112/2 55/48/2
f 82/113/1 80/56/1 79/59/1 81/114/1
f 70/104/18 26/115/18 25/116/18 68/117/18
f 65/76/1 44/118/1 43/119/1 66/73/1
f 78/65/1 76/68/1 75/100/1 77/120/1
f 29/36/15 45/121/17 14/122/17 15/41/15
f 73/72/1 23/123/1 17/124/1 74/125/1
f 70/104/4 68/117/4 67/108/4 69/101/4
f 54/126/3 52/85/3 51/88/3 53/127/3
f 51/88/15 39/128/15 38/129/15 53/127/15
f 77/120/18 12/130/18 1/131/18 78/65/18
f 79/59/19 8/132/19 7/133/19 81/114/19
f 63/75/15 33/134/15 44/135/15 65/76/15
f 54/126/16 37/136/16 40/137/16 52/85/16
f 9/138/18 47/139/18 48/140/18 2/141/18
f 62/107/3 60/142/3 59/81/3 61/84/3
f 68/117/2 25/143/2 20/144/2 67/108/2
f 74/125/18 17/145/18 19/146/18 72/93/18
f 74/125/4 72/93/4 71/69/4 73/72/4
f 58/46/16 30/147/16 31/148/16 56/47/16
f 62/107/16 35/149/16 36/150/16 60/142/16
f 82/113/4 5/151/4 10/152/4 80/56/4
f 75/100/19 6/153/19 12/154/19 77/120/19
f 46/89/19 47/139/19 9/138/19 13/90/19
f 66/73/16 43/155/16 42/156/16 64/74/16
f 81/114/18 7/157/18 5/158/18 82/113/18
