# Blender v2.79 (sub 0) OBJ File: ''
# www.blender.org
mtllib propellerlarge2blade.mtl
o propellerlarge2blade
v -0.156250 0.093750 0.250000
v 0.156250 0.093750 0.250000
v 0.156250 0.093750 0.000000
v -0.156250 0.093750 0.000000
v -0.156250 -0.093750 -0.000000
v 0.156250 -0.093750 -0.000000
v 0.156250 -0.093750 0.250000
v -0.156250 -0.093750 0.250000
v -0.093750 -0.156250 -0.000000
v 0.093750 -0.156250 -0.000000
v 0.093750 -0.156250 0.250000
v -0.093750 -0.156250 0.250000
v 0.093750 -0.093750 0.250000
v -0.093750 -0.093750 0.250000
v -0.093750 -0.093750 -0.000000
v 0.093750 -0.093750 -0.000000
v -0.093750 0.156250 0.250000
v 0.093750 0.156250 0.250000
v 0.093750 0.156250 0.000000
v -0.093750 0.156250 0.000000
v -0.093750 0.093750 0.250000
v 0.093750 0.093750 0.250000
v 0.093750 0.093750 0.000000
v -0.093750 0.093750 0.000000
v -0.062500 0.062500 0.000000
v 0.062500 0.062500 0.000000
v 0.062500 0.062500 -0.312500
v -0.062500 0.062500 -0.312500
v -0.062500 -0.062500 -0.312500
v 0.062500 -0.062500 -0.312500
v 0.062500 -0.062500 -0.000000
v -0.062500 -0.062500 -0.000000
v -0.281250 0.154006 0.016747
v -1.406250 0.154006 0.016747
v -1.406250 0.185256 0.070873
v -0.281250 0.185256 0.070873
v -1.406250 0.131130 0.102123
v -0.281250 0.131130 0.102123
v -0.281250 0.099880 0.047997
v -1.406250 0.099880 0.047997
v -0.156250 -0.031250 0.195873
v -1.531250 -0.031250 0.195873
v -1.531250 -0.062500 0.141747
v -0.156250 -0.062500 0.141747
v -0.156250 0.099880 0.047997
v -1.531250 0.099880 0.047997
v -1.531250 0.131130 0.102123
v -0.156250 0.131130 0.102123
v 0.156250 0.031250 0.195873
v 1.531250 0.031250 0.195873
v 1.531250 0.062500 0.141747
v 0.156250 0.062500 0.141747
v 0.156250 -0.099880 0.047997
v 1.531250 -0.099880 0.047997
v 1.531250 -0.131130 0.102123
v 0.156250 -0.131130 0.102123
v 0.281250 -0.154006 0.016747
v 1.406250 -0.154006 0.016747
v 1.406250 -0.185256 0.070873
v 0.281250 -0.185256 0.070873
v 1.406250 -0.131130 0.102123
v 0.281250 -0.131130 0.102123
v 0.281250 -0.099880 0.047997
v 1.406250 -0.099880 0.047997
v 1.531250 -0.022877 0.164623
v 1.593750 -0.022877 0.164623
v 1.593750 0.008373 0.110497
v 1.531250 0.008373 0.110497
v 1.531250 -0.045753 0.079247
v 1.593750 -0.045753 0.079247
v 1.593750 -0.077003 0.133373
v 1.531250 -0.077003 0.133373
v -1.531250 0.022877 0.164623
v -1.593750 0.022877 0.164623
v -1.593750 -0.008373 0.110497
v -1.531250 -0.008373 0.110497
v -1.531250 0.045753 0.079247
v -1.593750 0.045753 0.079247
v -1.593750 0.077003 0.133373
v -1.531250 0.077003 0.133373
vt 0.062511 0.828083
vt 0.140639 0.828083
vt 0.140639 0.890580
vt 0.062511 0.890580
vt 0.140639 0.828083
vt 0.218767 0.828083
vt 0.218767 0.890580
vt 0.140639 0.890580
vt 0.062511 0.781204
vt 0.140639 0.781204
vt 0.281263 0.828083
vt 0.203143 0.828083
vt 0.203143 0.781204
vt 0.281263 0.781204
vt 0.000015 0.828083
vt 0.000015 0.781204
vt 0.109391 0.937459
vt 0.156263 0.937459
vt 0.156263 0.999956
vt 0.109391 0.999956
vt 0.109391 0.937459
vt 0.062511 0.937459
vt 0.062511 0.921828
vt 0.109391 0.921828
vt 0.218767 0.937459
vt 0.171887 0.937459
vt 0.171887 0.921828
vt 0.218767 0.921828
vt 0.000015 0.937459
vt 0.000015 0.921828
vt 0.062511 0.718707
vt 0.109391 0.718707
vt 0.109391 0.781204
vt 0.062511 0.781204
vt 0.062511 0.703083
vt 0.109391 0.703083
vt 0.218767 0.718707
vt 0.171887 0.718707
vt 0.171887 0.703083
vt 0.218767 0.703083
vt 0.000015 0.718707
vt 0.000015 0.703083
vt 0.078143 0.624955
vt 0.109391 0.624955
vt 0.109391 0.703083
vt 0.078143 0.703083
vt 0.109391 0.624955
vt 0.140639 0.624955
vt 0.140639 0.703083
vt 0.109391 0.703083
vt 0.218767 0.624955
vt 0.187519 0.624955
vt 0.187519 0.593707
vt 0.218767 0.593707
vt 0.109391 0.593707
vt 0.000015 0.624955
vt 0.000015 0.593707
vt 0.078143 0.593707
vt 0.296887 0.421828
vt 0.578143 0.421828
vt 0.578143 0.437459
vt 0.296887 0.437459
vt 0.296887 0.421828
vt 0.015639 0.421828
vt 0.015639 0.406204
vt 0.296887 0.406204
vt 0.593767 0.421828
vt 0.312511 0.421828
vt 0.312511 0.406204
vt 0.593767 0.406204
vt 0.000015 0.421828
vt 0.000015 0.406204
vt 0.015639 0.578083
vt 0.359391 0.578083
vt 0.359391 0.593707
vt 0.015639 0.593707
vt 0.359391 0.578083
vt 0.703143 0.578083
vt 0.703143 0.593707
vt 0.359391 0.593707
vt 0.015639 0.531204
vt 0.359391 0.531204
vt 0.718767 0.578083
vt 0.375015 0.578083
vt 0.375015 0.531204
vt 0.718767 0.531204
vt 0.015639 0.515580
vt 0.359391 0.515580
vt 0.359391 0.531204
vt 0.015639 0.531204
vt 0.359391 0.515580
vt 0.703143 0.515580
vt 0.703143 0.531204
vt 0.359391 0.531204
vt 0.015639 0.468707
vt 0.359391 0.468707
vt 0.718767 0.515580
vt 0.375015 0.515580
vt 0.375015 0.468707
vt 0.718767 0.468707
vt 0.296887 0.453083
vt 0.578143 0.453083
vt 0.578143 0.468707
vt 0.296887 0.468707
vt 0.296887 0.453083
vt 0.015639 0.453083
vt 0.015639 0.437459
vt 0.296887 0.437459
vt 0.593767 0.453083
vt 0.312511 0.453083
vt 0.312511 0.437459
vt 0.593767 0.437459
vt 0.000015 0.453083
vt 0.000015 0.437459
vt 0.359391 0.609331
vt 0.375015 0.609331
vt 0.375015 0.624955
vt 0.359391 0.624955
vt 0.375015 0.609331
vt 0.390639 0.609331
vt 0.390639 0.624955
vt 0.375015 0.624955
vt 0.359391 0.593707
vt 0.375015 0.593707
vt 0.406263 0.609331
vt 0.390639 0.609331
vt 0.390639 0.593707
vt 0.406263 0.593707
vt 0.421887 0.609331
vt 0.437519 0.609331
vt 0.437519 0.624955
vt 0.421887 0.624955
vt 0.437519 0.609331
vt 0.453143 0.609331
vt 0.453143 0.624955
vt 0.437519 0.624955
vt 0.421887 0.593707
vt 0.437519 0.593707
vt 0.468767 0.609331
vt 0.453143 0.609331
vt 0.453143 0.593707
vt 0.468767 0.593707
vn 0.0000 1.0000 0.0000
vn 0.0000 -1.0000 -0.0000
vn 0.0000 -0.0000 1.0000
vn 0.0000 0.0000 -1.0000
vn 1.0000 0.0000 0.0000
vn -1.0000 0.0000 0.0000
vn 0.0000 0.8660 -0.5000
vn 0.0000 0.5000 0.8660
vn 0.0000 -0.5000 -0.8660
vn 0.0000 -0.8660 0.5000
vn 0.0000 0.8660 0.5000
vn 0.0000 -0.8660 -0.5000
vn 0.0000 -0.5000 0.8660
vn 0.0000 0.5000 -0.8660
usemtl ModelMaterial.003
s 1
f 1/1/1 2/2/1 3/3/1 4/4/1
f 5/5/2 6/6/2 7/7/2 8/8/2
f 2/2/3 1/1/3 8/9/3 7/10/3
f 4/11/4 3/12/4 6/13/4 5/14/4
f 3/12/5 2/2/5 7/10/5 6/13/5
f 1/1/6 4/15/6 5/16/6 8/9/6
f 9/17/2 10/18/2 11/19/2 12/20/2
f 13/21/3 14/22/3 12/23/3 11/24/3
f 15/25/4 16/26/4 10/27/4 9/28/4
f 16/26/5 13/21/5 11/24/5 10/27/5
f 14/22/6 15/29/6 9/30/6 12/23/6
f 17/31/1 18/32/1 19/33/1 20/34/1
f 18/32/3 17/31/3 21/35/3 22/36/3
f 20/37/4 19/38/4 23/39/4 24/40/4
f 19/38/5 18/32/5 22/36/5 23/39/5
f 17/31/6 20/41/6 24/42/6 21/35/6
f 25/43/1 26/44/1 27/45/1 28/46/1
f 29/47/2 30/48/2 31/49/2 32/50/2
f 28/51/4 27/52/4 30/53/4 29/54/4
f 27/52/5 26/44/5 31/55/5 30/53/5
f 25/43/6 28/56/6 29/57/6 32/58/6
f 33/59/7 34/60/7 35/61/7 36/62/7
f 37/63/8 38/64/8 36/65/8 35/66/8
f 39/67/9 40/68/9 34/69/9 33/70/9
f 40/68/6 37/63/6 35/66/6 34/69/6
f 38/64/5 39/71/5 33/72/5 36/65/5
f 41/73/10 42/74/10 43/75/10 44/76/10
f 45/77/7 46/78/7 47/79/7 48/80/7
f 42/74/8 41/73/8 48/81/8 47/82/8
f 44/83/9 43/84/9 46/85/9 45/86/9
f 43/84/6 42/74/6 47/82/6 46/85/6
f 49/87/11 50/88/11 51/89/11 52/90/11
f 53/91/12 54/92/12 55/93/12 56/94/12
f 50/88/13 49/87/13 56/95/13 55/96/13
f 52/97/14 51/98/14 54/99/14 53/100/14
f 51/98/5 50/88/5 55/96/5 54/99/5
f 57/101/12 58/102/12 59/103/12 60/104/12
f 61/105/13 62/106/13 60/107/13 59/108/13
f 63/109/14 64/110/14 58/111/14 57/112/14
f 64/110/5 61/105/5 59/108/5 58/111/5
f 62/106/6 63/113/6 57/114/6 60/107/6
f 65/115/11 66/116/11 67/117/11 68/118/11
f 69/119/12 70/120/12 71/121/12 72/122/12
f 66/116/13 65/115/13 72/123/13 71/124/13
f 68/125/14 67/126/14 70/127/14 69/128/14
f 67/126/5 66/116/5 71/124/5 70/127/5
f 73/129/10 74/130/10 75/131/10 76/132/10
f 77/133/7 78/134/7 79/135/7 80/136/7
f 74/130/8 73/129/8 80/137/8 79/138/8
f 76/139/9 75/140/9 78/141/9 77/142/9
f 75/140/6 74/130/6 79/138/6 78/141/6
