# Blender v2.79 (sub 0) OBJ File: ''
# www.blender.org
mtllib propellerrotor.mtl
o Blade2
v -0.048738 -0.146768 -0.048885
v -0.048738 -0.635997 -0.048884
v -0.048739 -0.635997 0.048961
v -0.048738 -0.146768 0.048960
v 0.244796 -6.995972 0.048975
v 0.244799 -0.635997 0.048962
v -0.048739 -0.635997 0.048961
v -0.048741 -6.995972 0.048975
v 0.244796 -6.995972 -0.048870
v 0.244800 -0.635997 -0.048884
v 0.049108 -0.635997 0.048962
v 0.049108 -0.146768 0.048960
v -0.048741 -6.995972 -0.048870
v 0.049108 -0.146768 -0.048885
v 0.049108 -0.635997 -0.048884
v -0.048738 -0.635997 -0.048884
vt 0.312500 0.671875
vt 0.390625 0.671875
vt 0.390625 0.687500
vt 0.312500 0.687500
vt 1.015625 1.000000
vt 0.000000 1.000000
vt 0.000000 0.953125
vt 1.000000 0.953125
vt 0.000000 0.937500
vt 1.000000 0.937500
vt 1.000000 0.953125
vt 0.000000 0.953125
vt 0.390625 0.703125
vt 0.312500 0.703125
vt 0.515625 0.859375
vt 0.562500 0.859375
vt 0.562500 0.875000
vt 0.515625 0.875000
vt 0.296875 0.671875
vt 0.296875 0.687500
vt 0.468750 0.687500
vt 0.390625 0.687500
vt 0.390625 0.703125
vt 0.468750 0.703125
vt 0.515625 0.859375
vt 0.562500 0.859375
vt 0.562500 0.875000
vt 0.515625 0.875000
vt 0.406250 0.671875
vt 0.406250 0.687500
vt 0.484375 0.671875
vt 0.484375 0.687500
vt 1.000000 0.953125
vt -0.000000 0.953125
vt -0.000000 1.000000
vt 1.015625 1.000000
vt -0.000000 0.937500
vt 1.000000 0.937500
vn -1.0000 0.0000 -0.0000
vn -0.0000 0.0000 1.0000
vn 1.0000 -0.0000 0.0000
vn 0.0000 -1.0000 -0.0000
vn -0.0000 1.0000 0.0000
vn -0.0000 -0.0000 -1.0000
usemtl None
s 1
f 1/1/1 2/2/1 3/3/1 4/4/1
f 5/5/2 6/6/2 7/7/2 8/8/2
f 9/9/3 10/10/3 6/11/3 5/12/3
f 11/13/2 12/14/2 4/4/2 3/3/2
f 13/15/4 9/16/4 5/17/4 8/18/4
f 14/19/5 1/1/5 4/4/5 12/20/5
f 2/21/6 1/22/6 14/23/6 15/24/6
f 10/25/5 16/26/5 7/27/5 6/28/5
f 2/2/4 15/29/4 11/30/4 3/3/4
f 15/29/3 14/31/3 12/32/3 11/30/3
f 13/33/6 16/34/6 10/35/6 9/36/6
f 16/37/1 13/38/1 8/8/1 7/7/1
o Blade1
v -0.244428 0.635998 -0.048953
v 0.049109 0.635998 -0.048953
v 0.049109 0.635998 0.048893
v -0.244428 0.635998 0.048892
v 0.049107 6.995975 -0.048967
v -0.244431 6.995974 -0.048968
v -0.244430 6.995975 0.048879
v 0.049108 6.995975 0.048878
v 0.049109 0.146770 0.048894
v 0.049109 0.635998 0.048893
v -0.048736 0.635998 0.048893
v -0.048736 0.146770 0.048894
v -0.048737 0.146769 -0.048952
v -0.048736 0.635998 -0.048953
v 0.049109 0.635998 -0.048953
v 0.049110 0.146769 -0.048951
vt 0.515625 0.796875
vt 0.562500 0.796875
vt 0.562500 0.812500
vt 0.515625 0.812500
vt 0.515625 0.796875
vt 0.562500 0.796875
vt 0.562500 0.812500
vt 0.515625 0.812500
vt 0.093750 0.718750
vt 0.015625 0.718750
vt 0.015625 0.703125
vt 0.093750 0.703125
vt 1.000000 0.890625
vt -0.000000 0.890625
vt -0.000000 0.937500
vt 1.000000 0.937500
vt 0.171875 0.703125
vt 0.093750 0.703125
vt 0.093750 0.718750
vt 0.171875 0.718750
vt 0.015625 0.687500
vt 0.093750 0.687500
vt 0.109375 0.687500
vt 0.109375 0.703125
vt -0.000000 0.875000
vt 1.000000 0.875000
vt 1.000000 0.890625
vt -0.000000 0.890625
vt -0.000000 0.687500
vt -0.000000 0.703125
vt 0.187500 0.687500
vt 0.187500 0.703125
vt 1.000000 0.937500
vt -0.000000 0.937500
vt -0.000000 0.875000
vt 1.000000 0.875000
vt 1.000000 0.890625
vt -0.000000 0.890625
vn 0.0000 -1.0000 0.0000
vn -0.0000 1.0000 0.0000
vn -0.0000 0.0000 1.0000
vn 0.0000 -0.0000 -1.0000
vn -1.0000 0.0000 0.0000
vn 1.0000 0.0000 0.0000
usemtl None
s 1
f 17/39/7 18/40/7 19/41/7 20/42/7
f 21/43/8 22/44/8 23/45/8 24/46/8
f 25/47/9 26/48/9 27/49/9 28/50/9
f 17/51/10 22/52/10 21/53/10 18/54/10
f 29/55/10 30/56/10 31/57/10 32/58/10
f 30/59/11 29/60/11 28/50/11 27/49/11
f 29/60/7 32/61/7 25/62/7 28/50/7
f 22/63/11 17/64/11 20/65/11 23/66/11
f 31/67/8 30/59/8 27/49/8 26/68/8
f 32/61/12 31/69/12 26/70/12 25/62/12
f 19/71/9 24/72/9 23/66/9 20/65/9
f 18/73/12 21/74/12 24/75/12 19/76/12
o MainRotor
v -0.146768 -0.146769 -0.146769
v 0.146768 -0.146769 -0.146769
v 0.146768 -0.146769 0.146769
v -0.146768 -0.146768 0.146769
v -0.146580 -0.146769 -0.538147
v -0.146580 0.146768 -0.538148
v -0.146580 0.146768 -0.440302
v -0.146580 -0.146769 -0.440301
v 0.049111 -0.048925 -1.223067
v 0.049111 0.048921 -1.223068
v 0.146957 0.048921 -1.223068
v 0.146957 -0.048925 -1.223068
v 0.146768 0.146769 0.146768
v -0.146768 0.146769 0.146768
v -0.146768 0.146768 -0.146769
v 0.146768 0.146768 -0.146770
v -0.146580 0.244614 -0.538148
v -0.146580 -0.244615 -0.538146
v -0.146580 -0.244615 -0.440301
v -0.146580 0.244614 -0.440302
v -0.048734 -0.048923 -0.440301
v -0.048734 0.048922 -0.440302
v 0.049112 0.048922 -0.440302
v 0.049112 -0.048923 -0.440301
v 0.146957 -0.146770 -0.538147
v 0.244803 -0.146770 -0.538147
v 0.244803 -0.146769 -0.440301
v 0.146957 -0.146769 -0.440301
v -0.048734 0.048921 -1.223068
v -0.146580 0.048921 -1.223068
v -0.146580 0.048922 -0.538147
v -0.048734 0.048922 -0.538147
v 0.244803 0.146768 -0.538148
v 0.146957 0.146768 -0.538148
v 0.146957 0.146768 -0.440302
v 0.244803 0.146768 -0.440302
v -0.048734 -0.048921 0.244619
v -0.048734 0.048924 0.244619
v -0.244426 0.146768 -0.538147
v -0.244426 0.146768 -0.440302
v -0.048734 -0.048924 -0.538147
v -0.146580 -0.048924 -0.538147
v 0.790294 0.046477 -0.340010
v -0.789916 0.046477 -0.340010
v -0.789916 0.046477 -0.247056
v 0.790294 0.046477 -0.247056
v -0.146580 -0.048925 -1.223067
v -0.048734 -0.048925 -1.223067
v 0.146957 -0.244615 -0.538146
v 0.146957 0.244614 -0.538148
v 0.146957 0.244614 -0.440302
v 0.146957 -0.244615 -0.440301
v 0.049112 -0.048921 0.244619
v 0.049112 0.048924 0.244619
v 0.146957 0.048922 -0.538147
v 0.146957 -0.048924 -0.538147
v 0.790294 -0.046477 -0.247056
v -0.789916 -0.046477 -0.247055
v -0.244426 -0.146769 -0.538147
v -0.244426 -0.146769 -0.440301
v -0.789916 -0.046477 -0.340009
v 0.049111 -0.048924 -0.538147
v 0.049112 0.048922 -0.538147
v 0.790294 -0.046477 -0.340010
vt 0.093750 0.718750
vt 0.140625 0.718750
vt 0.140625 0.765625
vt 0.093750 0.765625
vt 0.375000 0.718750
vt 0.421875 0.718750
vt 0.421875 0.734375
vt 0.375000 0.734375
vt 0.343750 0.859375
vt 0.328125 0.859375
vt 0.328125 0.875000
vt 0.343750 0.875000
vt 0.093750 0.812500
vt 0.046875 0.812500
vt 0.046875 0.765625
vt 0.140625 0.765625
vt 0.093750 0.765625
vt 0.093750 0.812500
vt 0.140625 0.812500
vt 0.187500 0.718750
vt 0.187500 0.765625
vt 0.046875 0.812500
vt 0.125000 0.812500
vt 0.125000 0.828125
vt 0.046875 0.828125
vt 0.046875 0.718750
vt 0.406250 0.859375
vt 0.390625 0.859375
vt 0.390625 0.875000
vt 0.406250 0.875000
vt 0.062500 0.656250
vt 0.078125 0.656250
vt 0.078125 0.671875
vt 0.062500 0.671875
vt 0.187500 0.687500
vt 0.203125 0.687500
vt 0.203125 0.796875
vt 0.187500 0.796875
vt -0.000000 0.656250
vt 0.015625 0.656250
vt 0.015625 0.671875
vt -0.000000 0.671875
vt 0.375000 0.750000
vt 0.390625 0.750000
vt 0.390625 0.859375
vt 0.375000 0.859375
vt 0.296875 0.718750
vt 0.312500 0.718750
vt 0.312500 0.734375
vt 0.296875 0.734375
vt 0.218750 0.812500
vt 0.203125 0.812500
vt 0.218750 0.796875
vt -0.000000 0.593750
vt 0.265625 0.593750
vt 0.265625 0.609375
vt -0.000000 0.609375
vt 0.234375 0.796875
vt 0.218750 0.796875
vt 0.218750 0.812500
vt 0.234375 0.812500
vt 0.171875 0.812500
vt 0.250000 0.812500
vt 0.250000 0.828125
vt 0.171875 0.828125
vt 0.390625 0.875000
vt 0.375000 0.875000
vt 0.406250 0.750000
vt 0.421875 0.750000
vt 0.421875 0.859375
vt 0.406250 0.859375
vt 0.203125 0.828125
vt 0.125000 0.828125
vt 0.125000 0.875000
vt 0.203125 0.875000
vt 0.343750 0.750000
vt 0.359375 0.750000
vt 0.359375 0.859375
vt 0.343750 0.859375
vt 0.281250 0.875000
vt 0.265625 0.875000
vt 0.281250 0.609375
vt 0.359375 0.718750
vt 0.359375 0.734375
vt 0.281250 0.593750
vt -0.000000 0.812500
vt -0.000000 0.828125
vt 0.062500 0.687500
vt 0.015625 0.687500
vt 0.125000 0.875000
vt 0.046875 0.875000
vt 0.359375 0.750000
vt 0.359375 0.859375
vt 0.218750 0.687500
vt 0.328125 0.750000
vt 0.328125 0.859375
vt 0.359375 0.750000
vt 0.312500 0.750000
vt 0.328125 0.875000
vt 0.312500 0.875000
vt 0.312500 0.859375
vt 0.296875 0.609375
vt 0.281250 0.609375
vt 0.281250 0.875000
vt 0.296875 0.875000
vt 0.109375 0.671875
vt 0.062500 0.671875
vt 0.062500 0.687500
vt 0.109375 0.687500
vt 0.546875 0.593750
vt 0.562500 0.593750
vt 0.562500 0.609375
vt 0.546875 0.609375
vt -0.000000 0.718750
vt -0.000000 0.765625
vt 0.125000 0.656250
vt 0.125000 0.671875
vt 0.406250 0.734375
vt 0.359375 0.734375
vt 0.359375 0.750000
vt 0.406250 0.750000
vt 0.234375 0.687500
vt 0.250000 0.687500
vt 0.250000 0.796875
vt 0.234375 0.796875
vt 0.296875 0.750000
vt 0.312500 0.750000
vt 0.296875 0.859375
vn -0.0000 -1.0000 0.0000
vn 1.0000 0.0000 0.0000
vn -0.0000 -0.0000 -1.0000
vn 0.0000 0.0000 1.0000
vn -1.0000 -0.0000 0.0000
vn 0.0000 1.0000 -0.0000
usemtl None
s 1
f 33/77/13 34/78/13 35/79/13 36/80/13
f 37/81/14 38/82/14 39/83/14 40/84/14
f 41/85/15 42/86/15 43/87/15 44/88/15
f 35/89/16 45/90/16 46/91/16 36/80/16
f 33/92/15 47/93/15 48/94/15 34/95/15
f 34/78/14 48/96/14 45/97/14 35/79/14
f 49/98/17 50/99/17 51/100/17 52/101/17
f 47/102/17 33/77/17 36/80/17 46/91/17
f 53/103/15 54/104/15 55/105/15 56/106/15
f 57/107/13 58/108/13 59/109/13 60/110/13
f 61/111/18 62/112/18 63/113/18 64/114/18
f 65/115/18 66/116/18 67/117/18 68/118/18
f 54/119/17 53/120/17 69/121/17 70/122/17
f 38/123/18 71/124/18 72/125/18 39/126/18
f 73/127/16 64/128/16 63/113/16 74/129/16
f 75/130/18 76/131/18 77/132/18 78/133/18
f 79/134/15 62/135/15 61/136/15 80/137/15
f 81/138/14 82/139/14 83/140/14 84/141/14
f 85/142/16 86/143/16 70/122/16 69/121/16
f 56/144/14 55/145/14 86/146/14 85/147/14
f 50/148/15 49/149/15 82/150/15 81/151/15
f 44/152/14 43/153/14 87/154/14 88/155/14
f 89/156/16 78/157/16 77/132/16 90/158/16
f 71/124/17 91/159/17 92/160/17 72/125/17
f 76/131/17 93/161/17 90/158/17 77/132/17
f 82/162/18 49/98/18 52/101/18 83/163/18
f 59/164/16 68/165/16 67/117/16 60/110/16
f 84/166/16 83/167/16 52/101/16 51/100/16
f 55/168/18 54/119/18 70/122/18 86/169/18
f 62/112/17 79/170/17 74/129/17 63/113/17
f 41/171/13 44/152/13 88/155/13 94/172/13
f 53/120/13 56/144/13 85/147/13 69/121/13
f 40/173/16 39/174/16 72/125/16 92/160/16
f 91/159/13 37/81/13 40/84/13 92/160/13
f 50/99/13 81/138/13 84/141/13 51/100/13
f 66/116/17 57/107/17 60/110/17 67/117/17
f 88/175/16 87/176/16 95/177/16 94/172/16
f 93/178/15 76/179/15 75/180/15 96/181/15
f 57/182/15 66/183/15 65/184/15 58/185/15
f 96/186/14 75/187/14 78/188/14 89/189/14
f 48/190/18 47/102/18 46/91/18 45/191/18
f 58/108/14 65/192/14 68/193/14 59/109/14
f 91/194/15 71/195/15 38/196/15 37/197/15
f 93/161/13 96/186/13 89/189/13 90/158/13
f 80/198/14 61/199/14 64/200/14 73/201/14
f 43/202/18 42/203/18 95/177/18 87/204/18
f 42/203/17 41/171/17 94/172/17 95/177/17
f 79/170/13 80/198/13 73/201/13 74/129/13
