# Blender v2.79 (sub 0) OBJ File: ''
# www.blender.org
mtllib propellersmall3blade.mtl
o $blade_3
v -0.259703 -0.174820 -0.038398
v -0.603454 -0.770212 -0.038397
v -0.603454 -0.770212 0.024102
v -0.259704 -0.174820 0.024102
v -0.259703 -0.174820 -0.038398
v -0.603454 -0.770212 -0.038397
v -0.603454 -0.770212 0.024102
v -0.259704 -0.174820 0.024102
v -0.549328 -0.801462 0.024102
v -0.205577 -0.206069 0.024102
v -0.205577 -0.206070 -0.038397
v -0.549327 -0.801462 -0.038398
v -0.003574 -0.106190 0.024102
v -0.503575 -0.972215 0.024102
v -0.503574 -0.972215 -0.038397
v -0.003573 -0.106190 -0.038398
v -0.111826 -0.043690 -0.038397
v -0.611827 -0.909715 -0.038398
v -0.611828 -0.909715 0.024102
v -0.111827 -0.043689 0.024102
vt 0.187500 0.500000
vt 0.375000 0.500000
vt 0.375000 0.515625
vt 0.187500 0.515625
vt 0.187500 0.500000
vt 0.015625 0.500000
vt 0.015625 0.484375
vt 0.187500 0.484375
vt 0.390625 0.500000
vt 0.203125 0.500000
vt 0.203125 0.484375
vt 0.390625 0.484375
vt -0.000000 0.500000
vt -0.000000 0.484375
vt 0.015625 0.546875
vt 0.265625 0.546875
vt 0.265625 0.562500
vt 0.015625 0.562500
vt 0.531250 0.562500
vt 0.265625 0.562500
vt 0.265625 0.546875
vt 0.531250 0.546875
vt 0.015625 0.515625
vt 0.265625 0.515625
vt 0.546875 0.546875
vt 0.296875 0.546875
vt 0.296875 0.515625
vt 0.546875 0.515625
vn -0.8660 0.5000 -0.0000
vn 0.0000 -0.0000 1.0000
vn -0.0000 0.0000 -1.0000
vn -0.5000 -0.8660 -0.0000
vn 0.5000 0.8660 0.0000
vn 0.8660 -0.5000 0.0000
usemtl Material.002
s 1
f 1/1/1 2/2/1 3/3/1 4/4/1
f 9/5/2 10/6/2 8/7/2 7/8/2
f 11/9/3 12/10/3 6/11/3 5/12/3
f 12/10/4 9/5/4 7/8/4 6/11/4
f 10/6/5 11/13/5 5/14/5 8/7/5
f 13/15/6 14/16/6 15/17/6 16/18/6
f 17/19/1 18/20/1 19/21/1 20/22/1
f 14/16/2 13/15/2 20/23/2 19/24/2
f 16/25/3 15/26/3 18/27/3 17/28/3
f 15/26/4 14/16/4 19/24/4 18/27/4
o $blade_2
v -0.021547 0.312320 -0.038397
v -0.365297 0.907712 -0.038397
v -0.365296 0.907712 0.024103
v -0.021546 0.312320 0.024102
v -0.419423 0.876462 0.024103
v -0.075673 0.281069 0.024102
v -0.075673 0.281069 -0.038397
v -0.419423 0.876462 -0.038397
v -0.090176 0.056190 0.024102
v -0.590176 0.922215 0.024103
v -0.590176 0.922215 -0.038397
v -0.090177 0.056190 -0.038397
v 0.018077 0.118689 -0.038398
v -0.481923 0.984715 -0.038397
v -0.481923 0.984715 0.024103
v 0.018077 0.118689 0.024102
vt 0.187500 0.343750
vt 0.375000 0.343750
vt 0.375000 0.359375
vt 0.187500 0.359375
vt 0.187500 0.343750
vt 0.015625 0.343750
vt 0.015625 0.328125
vt 0.187500 0.328125
vt 0.390625 0.343750
vt 0.203125 0.343750
vt 0.203125 0.328125
vt 0.390625 0.328125
vt 0.000000 0.343750
vt 0.000000 0.328125
vt 0.015625 0.390625
vt 0.265625 0.390625
vt 0.265625 0.406250
vt 0.015625 0.406250
vt 0.531250 0.406250
vt 0.265625 0.406250
vt 0.265625 0.390625
vt 0.531250 0.390625
vt 0.015625 0.359375
vt 0.265625 0.359375
vt 0.546875 0.390625
vt 0.296875 0.390625
vt 0.296875 0.359375
vt 0.546875 0.359375
vn 0.8660 0.5000 -0.0000
vn 0.0000 -0.0000 1.0000
vn 0.0000 0.0000 -1.0000
vn -0.5000 0.8660 0.0000
vn 0.5000 -0.8660 -0.0000
vn -0.8660 -0.5000 0.0000
usemtl Material.002
s 1
f 21/29/7 22/30/7 23/31/7 24/32/7
f 25/33/8 26/34/8 24/35/8 23/36/8
f 27/37/9 28/38/9 22/39/9 21/40/9
f 28/38/10 25/33/10 23/36/10 22/39/10
f 26/34/11 27/41/11 21/42/11 24/35/11
f 29/43/12 30/44/12 31/45/12 32/46/12
f 33/47/7 34/48/7 35/49/7 36/50/7
f 30/44/8 29/43/8 36/51/8 35/52/8
f 32/53/9 31/54/9 34/55/9 33/56/9
f 31/54/10 30/44/10 35/52/10 34/55/10
o $blade_1
v 0.093750 0.050000 0.024102
v 1.093750 0.050000 0.024102
v 1.093750 0.050000 -0.038397
v 0.093750 0.050000 -0.038397
v 0.093750 -0.075000 -0.038397
v 1.093750 -0.075000 -0.038397
v 1.093750 -0.075000 0.024102
v 0.093750 -0.075000 0.024102
v 0.281250 -0.137500 -0.038397
v 0.968750 -0.137500 -0.038397
v 0.968750 -0.137501 0.024102
v 0.281250 -0.137500 0.024102
v 0.968750 -0.075000 0.024102
v 0.281250 -0.075000 0.024102
v 0.281250 -0.075000 -0.038397
v 0.968750 -0.075000 -0.038397
vt 0.015625 0.468750
vt 0.265625 0.468750
vt 0.265625 0.484375
vt 0.015625 0.484375
vt 0.531250 0.484375
vt 0.265625 0.484375
vt 0.265625 0.468750
vt 0.531250 0.468750
vt 0.015625 0.437500
vt 0.265625 0.437500
vt 0.546875 0.468750
vt 0.296875 0.468750
vt 0.296875 0.437500
vt 0.546875 0.437500
vt 0.187500 0.421875
vt 0.375000 0.421875
vt 0.375000 0.437500
vt 0.187500 0.437500
vt 0.187500 0.421875
vt 0.015625 0.421875
vt 0.015625 0.406250
vt 0.187500 0.406250
vt 0.390625 0.421875
vt 0.203125 0.421875
vt 0.203125 0.406250
vt 0.390625 0.406250
vt 0.000000 0.421875
vt 0.000000 0.406250
vn 0.0000 1.0000 0.0000
vn -0.0000 -1.0000 -0.0000
vn 0.0000 -0.0000 1.0000
vn 0.0000 0.0000 -1.0000
vn 1.0000 -0.0000 0.0000
vn -1.0000 0.0000 0.0000
usemtl Material.002
s 1
f 37/57/13 38/58/13 39/59/13 40/60/13
f 41/61/14 42/62/14 43/63/14 44/64/14
f 38/58/15 37/57/15 44/65/15 43/66/15
f 40/67/16 39/68/16 42/69/16 41/70/16
f 39/68/17 38/58/17 43/66/17 42/69/17
f 45/71/14 46/72/14 47/73/14 48/74/14
f 49/75/15 50/76/15 48/77/15 47/78/15
f 51/79/16 52/80/16 46/81/16 45/82/16
f 52/80/17 49/75/17 47/78/17 46/81/17
f 50/76/18 51/83/18 45/84/18 48/77/18
o shaft
v -0.156250 0.093750 0.100000
v 0.156250 0.093750 0.100000
v 0.156250 0.093750 -0.150000
v -0.156250 0.093750 -0.150000
v -0.156250 -0.093750 -0.150000
v 0.156250 -0.093750 -0.150000
v 0.156250 -0.093750 0.100000
v -0.156250 -0.093750 0.100000
v -0.093750 -0.156250 -0.150000
v 0.093750 -0.156250 -0.150000
v 0.093750 -0.156250 0.100000
v -0.093750 -0.156250 0.100000
v 0.093750 -0.093750 0.100000
v -0.093750 -0.093750 0.100000
v -0.093750 -0.093750 -0.150000
v 0.093750 -0.093750 -0.150000
v -0.093750 0.156250 0.100000
v 0.093750 0.156250 0.100000
v 0.093750 0.156250 -0.150000
v -0.093750 0.156250 -0.150000
v -0.093750 0.093750 0.100000
v 0.093750 0.093750 0.100000
v 0.093750 0.093750 -0.150000
v -0.093750 0.093750 -0.150000
v -0.062500 0.062500 -0.150000
v 0.062500 0.062500 -0.150000
v 0.062500 0.062500 -0.462500
v -0.062500 0.062500 -0.462500
v -0.062500 -0.062500 -0.462500
v 0.062500 -0.062500 -0.462500
v 0.062500 -0.062500 -0.150000
v -0.062500 -0.062500 -0.150000
vt 0.062500 0.828125
vt 0.140625 0.828125
vt 0.140625 0.906250
vt 0.062500 0.906250
vt 0.140625 0.828125
vt 0.218750 0.828125
vt 0.218750 0.906250
vt 0.140625 0.906250
vt 0.062500 0.781250
vt 0.140625 0.781250
vt 0.296875 0.828125
vt 0.203125 0.828125
vt 0.203125 0.781250
vt 0.296875 0.781250
vt -0.000000 0.828125
vt -0.000000 0.781250
vt 0.109375 0.937500
vt 0.156250 0.937500
vt 0.156250 1.000000
vt 0.109375 1.000000
vt 0.109375 0.937500
vt 0.062500 0.937500
vt 0.062500 0.921875
vt 0.109375 0.921875
vt 0.218750 0.937500
vt 0.171875 0.937500
vt 0.171875 0.921875
vt 0.218750 0.921875
vt -0.000000 0.937500
vt -0.000000 0.921875
vt 0.062500 0.718750
vt 0.109375 0.718750
vt 0.109375 0.781250
vt 0.062500 0.781250
vt 0.062500 0.703125
vt 0.109375 0.703125
vt 0.218750 0.718750
vt 0.171875 0.718750
vt 0.171875 0.703125
vt 0.218750 0.703125
vt -0.000000 0.718750
vt -0.000000 0.703125
vt 0.078125 0.625000
vt 0.109375 0.625000
vt 0.109375 0.703125
vt 0.078125 0.703125
vt 0.109375 0.625000
vt 0.140625 0.625000
vt 0.140625 0.703125
vt 0.109375 0.703125
vt 0.218750 0.625000
vt 0.187500 0.625000
vt 0.187500 0.593750
vt 0.218750 0.593750
vt 0.109375 0.593750
vt -0.000000 0.625000
vt -0.000000 0.593750
vt 0.078125 0.593750
vn 0.0000 1.0000 0.0000
vn -0.0000 -1.0000 -0.0000
vn 0.0000 -0.0000 1.0000
vn -0.0000 0.0000 -1.0000
vn 1.0000 -0.0000 -0.0000
vn -1.0000 0.0000 0.0000
usemtl Material.002
s 1
f 53/85/19 54/86/19 55/87/19 56/88/19
f 57/89/20 58/90/20 59/91/20 60/92/20
f 54/86/21 53/85/21 60/93/21 59/94/21
f 56/95/22 55/96/22 58/97/22 57/98/22
f 55/96/23 54/86/23 59/94/23 58/97/23
f 53/85/24 56/99/24 57/100/24 60/93/24
f 61/101/20 62/102/20 63/103/20 64/104/20
f 65/105/21 66/106/21 64/107/21 63/108/21
f 67/109/22 68/110/22 62/111/22 61/112/22
f 68/110/23 65/105/23 63/108/23 62/111/23
f 66/106/24 67/113/24 61/114/24 64/107/24
f 69/115/19 70/116/19 71/117/19 72/118/19
f 70/116/21 69/115/21 73/119/21 74/120/21
f 72/121/22 71/122/22 75/123/22 76/124/22
f 71/122/23 70/116/23 74/120/23 75/123/23
f 69/115/24 72/125/24 76/126/24 73/119/24
f 77/127/19 78/128/19 79/129/19 80/130/19
f 81/131/20 82/132/20 83/133/20 84/134/20
f 80/135/22 79/136/22 82/137/22 81/138/22
f 79/136/23 78/128/23 83/139/23 82/137/23
f 77/127/24 80/140/24 81/141/24 84/142/24
