# Blender v2.79 (sub 0) OBJ File: ''
# www.blender.org
mtllib propellerrotor.mtl
o Blade2
v -0.048738 -0.146768 -0.048885
v -0.048738 -0.635997 -0.048884
v -0.048739 -0.635997 0.048961
v -0.048738 -0.146768 0.048960
v 0.244796 -6.995972 0.048974
v 0.244799 -0.635997 0.048962
v -0.048739 -0.635997 0.048961
v -0.048741 -6.995972 0.048974
v 0.244796 -6.995972 -0.048871
v 0.244800 -0.635997 -0.048884
v 0.049108 -0.635997 0.048962
v 0.049108 -0.146768 0.048960
v -0.048741 -6.995972 -0.048871
v 0.049108 -0.146768 -0.048885
v 0.049108 -0.635997 -0.048884
v -0.048738 -0.635997 -0.048884
vt 0.828125 0.917969
vt 0.847656 0.917969
vt 0.847656 0.921875
vt 0.828125 0.921875
vt 1.000000 1.000000
vt 0.750000 1.000000
vt 0.750000 0.988281
vt 1.000000 0.988281
vt 0.750000 0.984375
vt 1.000000 0.984375
vt 1.000000 0.988281
vt 0.750000 0.988281
vt 0.847656 0.925781
vt 0.828125 0.925781
vt 0.878906 0.964844
vt 0.890625 0.964844
vt 0.890625 0.968750
vt 0.878906 0.968750
vt 0.824219 0.917969
vt 0.824219 0.921875
vt 0.867188 0.921875
vt 0.847656 0.921875
vt 0.847656 0.925781
vt 0.867188 0.925781
vt 0.878906 0.964844
vt 0.890625 0.964844
vt 0.890625 0.968750
vt 0.878906 0.968750
vt 0.851562 0.917969
vt 0.851562 0.921875
vt 0.871094 0.917969
vt 0.871094 0.921875
vt 1.000000 0.988281
vt 0.750000 0.988281
vt 0.750000 1.000000
vt 1.000000 1.000000
vt 0.750000 0.984375
vt 1.000000 0.984375
vn -1.0000 0.0000 -0.0000
vn -0.0000 0.0000 1.0000
vn 1.0000 -0.0000 0.0000
vn 0.0000 -1.0000 0.0000
vn 0.0000 1.0000 0.0000
vn 0.0000 -0.0000 -1.0000
usemtl m_0
s 1
f 1/1/1 2/2/1 3/3/1 4/4/1
f 5/5/2 6/6/2 7/7/2 8/8/2
f 9/9/3 10/10/3 6/11/3 5/12/3
f 11/13/2 12/14/2 4/4/2 3/3/2
f 13/15/4 9/16/4 5/17/4 8/18/4
f 14/19/5 1/1/5 4/4/5 12/20/5
f 2/21/6 1/22/6 14/23/6 15/24/6
f 10/25/5 16/26/5 7/27/5 6/28/5
f 2/2/4 15/29/4 11/30/4 3/3/4
f 15/29/3 14/31/3 12/32/3 11/30/3
f 13/33/6 16/34/6 10/35/6 9/36/6
f 16/37/1 13/38/1 8/8/1 7/7/1
o MainRotor
v -0.146768 -0.146769 -0.146769
v 0.146768 -0.146769 -0.146769
v 0.146768 -0.146769 0.146769
v -0.146768 -0.146768 0.146769
v -0.146580 -0.146769 -0.538147
v -0.146580 0.146768 -0.538148
v -0.146580 0.146768 -0.440302
v -0.146580 -0.146769 -0.440301
v 0.049111 -0.048925 -1.223067
v 0.049111 0.048921 -1.223068
v 0.146957 0.048921 -1.223068
v 0.146957 -0.048925 -1.223068
v 0.146768 0.146769 0.146768
v -0.146768 0.146769 0.146768
v -0.146768 0.146768 -0.146769
v 0.146768 0.146768 -0.146770
v -0.146580 0.244614 -0.538148
v -0.146580 -0.244615 -0.538146
v -0.146580 -0.244615 -0.440301
v -0.146580 0.244614 -0.440302
v -0.048734 -0.048923 -0.440301
v -0.048734 0.048922 -0.440302
v 0.049112 0.048922 -0.440302
v 0.049112 -0.048923 -0.440301
v 0.146957 -0.146770 -0.538147
v 0.244803 -0.146770 -0.538147
v 0.244803 -0.146769 -0.440301
v 0.146957 -0.146769 -0.440301
v -0.048734 0.048921 -1.223068
v -0.146580 0.048921 -1.223068
v -0.146580 0.048922 -0.538147
v -0.048734 0.048922 -0.538147
v 0.244803 0.146768 -0.538148
v 0.146957 0.146768 -0.538148
v 0.146957 0.146768 -0.440302
v 0.244803 0.146768 -0.440302
v -0.048734 -0.048921 0.244619
v -0.048734 0.048924 0.244619
v -0.244426 0.146768 -0.538147
v -0.244426 0.146768 -0.440302
v -0.048734 -0.048924 -0.538147
v -0.146580 -0.048924 -0.538147
v 0.790294 0.046477 -0.340010
v -0.789916 0.046477 -0.340010
v -0.789916 0.046477 -0.247056
v 0.790294 0.046477 -0.247056
v -0.146580 -0.048925 -1.223067
v -0.048734 -0.048925 -1.223067
v 0.146957 -0.244615 -0.538146
v 0.146957 0.244614 -0.538148
v 0.146957 0.244614 -0.440302
v 0.146957 -0.244615 -0.440301
v 0.049112 -0.048921 0.244619
v 0.049112 0.048924 0.244619
v 0.146957 0.048922 -0.538147
v 0.146957 -0.048924 -0.538147
v 0.790294 -0.046477 -0.247056
v -0.789916 -0.046477 -0.247055
v -0.244426 -0.146769 -0.538147
v -0.244426 -0.146769 -0.440301
v -0.789916 -0.046477 -0.340009
v 0.049111 -0.048924 -0.538147
v 0.049112 0.048922 -0.538147
v 0.790294 -0.046477 -0.340010
vt 0.773438 0.929688
vt 0.785156 0.929688
vt 0.785156 0.941406
vt 0.773438 0.941406
vt 0.843750 0.929688
vt 0.855469 0.929688
vt 0.855469 0.933594
vt 0.843750 0.933594
vt 0.835938 0.964844
vt 0.832031 0.964844
vt 0.832031 0.968750
vt 0.835938 0.968750
vt 0.773438 0.953125
vt 0.761719 0.953125
vt 0.761719 0.941406
vt 0.785156 0.941406
vt 0.773438 0.941406
vt 0.773438 0.953125
vt 0.785156 0.953125
vt 0.796875 0.929688
vt 0.796875 0.941406
vt 0.761719 0.953125
vt 0.781250 0.953125
vt 0.781250 0.957031
vt 0.761719 0.957031
vt 0.761719 0.929688
vt 0.851562 0.964844
vt 0.847656 0.964844
vt 0.847656 0.968750
vt 0.851562 0.968750
vt 0.765625 0.914062
vt 0.769531 0.914062
vt 0.769531 0.917969
vt 0.765625 0.917969
vt 0.796875 0.921875
vt 0.800781 0.921875
vt 0.800781 0.949219
vt 0.796875 0.949219
vt 0.750000 0.914062
vt 0.753906 0.914062
vt 0.753906 0.917969
vt 0.750000 0.917969
vt 0.843750 0.937500
vt 0.847656 0.937500
vt 0.847656 0.964844
vt 0.843750 0.964844
vt 0.824219 0.929688
vt 0.828125 0.929688
vt 0.828125 0.933594
vt 0.824219 0.933594
vt 0.804688 0.953125
vt 0.800781 0.953125
vt 0.804688 0.949219
vt 0.750000 0.898438
vt 0.816406 0.898438
vt 0.816406 0.902344
vt 0.750000 0.902344
vt 0.808594 0.949219
vt 0.804688 0.949219
vt 0.804688 0.953125
vt 0.808594 0.953125
vt 0.792969 0.953125
vt 0.812500 0.953125
vt 0.812500 0.957031
vt 0.792969 0.957031
vt 0.847656 0.968750
vt 0.843750 0.968750
vt 0.851562 0.937500
vt 0.855469 0.937500
vt 0.855469 0.964844
vt 0.851562 0.964844
vt 0.800781 0.957031
vt 0.781250 0.957031
vt 0.781250 0.968750
vt 0.800781 0.968750
vt 0.835938 0.937500
vt 0.839844 0.937500
vt 0.839844 0.964844
vt 0.835938 0.964844
vt 0.820312 0.968750
vt 0.816406 0.968750
vt 0.820312 0.902344
vt 0.839844 0.929688
vt 0.839844 0.933594
vt 0.820312 0.898438
vt 0.750000 0.953125
vt 0.750000 0.957031
vt 0.765625 0.921875
vt 0.753906 0.921875
vt 0.781250 0.968750
vt 0.761719 0.968750
vt 0.839844 0.937500
vt 0.839844 0.964844
vt 0.804688 0.921875
vt 0.832031 0.937500
vt 0.832031 0.964844
vt 0.839844 0.937500
vt 0.828125 0.937500
vt 0.832031 0.968750
vt 0.828125 0.968750
vt 0.828125 0.964844
vt 0.824219 0.902344
vt 0.820312 0.902344
vt 0.820312 0.968750
vt 0.824219 0.968750
vt 0.777344 0.917969
vt 0.765625 0.917969
vt 0.765625 0.921875
vt 0.777344 0.921875
vt 0.886719 0.898438
vt 0.890625 0.898438
vt 0.890625 0.902344
vt 0.886719 0.902344
vt 0.750000 0.929688
vt 0.750000 0.941406
vt 0.781250 0.914062
vt 0.781250 0.917969
vt 0.851562 0.933594
vt 0.839844 0.933594
vt 0.839844 0.937500
vt 0.851562 0.937500
vt 0.808594 0.921875
vt 0.812500 0.921875
vt 0.812500 0.949219
vt 0.808594 0.949219
vt 0.824219 0.937500
vt 0.828125 0.937500
vt 0.824219 0.964844
vn -0.0000 -1.0000 0.0000
vn 1.0000 0.0000 0.0000
vn -0.0000 -0.0000 -1.0000
vn 0.0000 0.0000 1.0000
vn -1.0000 -0.0000 0.0000
vn 0.0000 1.0000 -0.0000
usemtl m_0
s 1
f 17/39/7 18/40/7 19/41/7 20/42/7
f 21/43/8 22/44/8 23/45/8 24/46/8
f 25/47/9 26/48/9 27/49/9 28/50/9
f 19/51/10 29/52/10 30/53/10 20/42/10
f 17/54/9 31/55/9 32/56/9 18/57/9
f 18/40/8 32/58/8 29/59/8 19/41/8
f 33/60/11 34/61/11 35/62/11 36/63/11
f 31/64/11 17/39/11 20/42/11 30/53/11
f 37/65/9 38/66/9 39/67/9 40/68/9
f 41/69/7 42/70/7 43/71/7 44/72/7
f 45/73/12 46/74/12 47/75/12 48/76/12
f 49/77/12 50/78/12 51/79/12 52/80/12
f 38/81/11 37/82/11 53/83/11 54/84/11
f 22/85/12 55/86/12 56/87/12 23/88/12
f 57/89/10 48/90/10 47/75/10 58/91/10
f 59/92/12 60/93/12 61/94/12 62/95/12
f 63/96/9 46/97/9 45/98/9 64/99/9
f 65/100/8 66/101/8 67/102/8 68/103/8
f 69/104/10 70/105/10 54/84/10 53/83/10
f 40/106/8 39/107/8 70/108/8 69/109/8
f 34/110/9 33/111/9 66/112/9 65/113/9
f 28/114/8 27/115/8 71/116/8 72/117/8
f 73/118/10 62/119/10 61/94/10 74/120/10
f 55/86/11 75/121/11 76/122/11 56/87/11
f 60/93/11 77/123/11 74/120/11 61/94/11
f 66/124/12 33/60/12 36/63/12 67/125/12
f 43/126/10 52/127/10 51/79/10 44/72/10
f 68/128/10 67/129/10 36/63/10 35/62/10
f 39/130/12 38/81/12 54/84/12 70/131/12
f 46/74/11 63/132/11 58/91/11 47/75/11
f 25/133/7 28/114/7 72/117/7 78/134/7
f 37/82/7 40/106/7 69/109/7 53/83/7
f 24/135/10 23/136/10 56/87/10 76/122/10
f 75/121/7 21/43/7 24/46/7 76/122/7
f 34/61/7 65/100/7 68/103/7 35/62/7
f 50/78/11 41/69/11 44/72/11 51/79/11
f 72/137/10 71/138/10 79/139/10 78/134/10
f 77/140/9 60/141/9 59/142/9 80/143/9
f 41/144/9 50/145/9 49/146/9 42/147/9
f 80/148/8 59/149/8 62/150/8 73/151/8
f 32/152/12 31/64/12 30/53/12 29/153/12
f 42/70/8 49/154/8 52/155/8 43/71/8
f 75/156/9 55/157/9 22/158/9 21/159/9
f 77/123/7 80/148/7 73/151/7 74/120/7
f 64/160/8 45/161/8 48/162/8 57/163/8
f 27/164/12 26/165/12 79/139/12 71/166/12
f 26/165/11 25/133/11 78/134/11 79/139/11
f 63/132/7 64/160/7 57/163/7 58/91/7
o Blade1
v -0.244428 0.635998 -0.048953
v 0.049109 0.635998 -0.048953
v 0.049109 0.635998 0.048893
v -0.244428 0.635998 0.048892
v 0.049107 6.995975 -0.048966
v -0.244431 6.995974 -0.048967
v -0.244430 6.995975 0.048880
v 0.049108 6.995975 0.048879
v 0.049109 0.146770 0.048894
v 0.049109 0.635998 0.048893
v -0.048736 0.635998 0.048893
v -0.048736 0.146770 0.048894
v -0.048737 0.146769 -0.048952
v -0.048736 0.635998 -0.048953
v 0.049109 0.635998 -0.048953
v 0.049110 0.146769 -0.048951
vt 0.878906 0.949219
vt 0.890625 0.949219
vt 0.890625 0.953125
vt 0.878906 0.953125
vt 0.878906 0.949219
vt 0.890625 0.949219
vt 0.890625 0.953125
vt 0.878906 0.953125
vt 0.773438 0.929688
vt 0.753906 0.929688
vt 0.753906 0.925781
vt 0.773438 0.925781
vt 1.000000 0.972656
vt 0.750000 0.972656
vt 0.750000 0.984375
vt 1.000000 0.984375
vt 0.792969 0.925781
vt 0.773438 0.925781
vt 0.773438 0.929688
vt 0.792969 0.929688
vt 0.753906 0.921875
vt 0.773438 0.921875
vt 0.777344 0.921875
vt 0.777344 0.925781
vt 0.750000 0.968750
vt 1.000000 0.968750
vt 1.000000 0.972656
vt 0.750000 0.972656
vt 0.750000 0.921875
vt 0.750000 0.925781
vt 0.796875 0.921875
vt 0.796875 0.925781
vt 1.000000 0.984375
vt 0.750000 0.984375
vt 0.750000 0.968750
vt 1.000000 0.968750
vt 1.000000 0.972656
vt 0.750000 0.972656
vn 0.0000 -1.0000 0.0000
vn -0.0000 1.0000 -0.0000
vn 0.0000 0.0000 1.0000
vn 0.0000 -0.0000 -1.0000
vn -1.0000 0.0000 0.0000
vn 1.0000 0.0000 0.0000
usemtl m_0
s 1
f 81/167/13 82/168/13 83/169/13 84/170/13
f 85/171/14 86/172/14 87/173/14 88/174/14
f 89/175/15 90/176/15 91/177/15 92/178/15
f 81/179/16 86/180/16 85/181/16 82/182/16
f 93/183/16 94/184/16 95/185/16 96/186/16
f 94/187/17 93/188/17 92/178/17 91/177/17
f 93/188/13 96/189/13 89/190/13 92/178/13
f 86/191/17 81/192/17 84/193/17 87/194/17
f 95/195/14 94/187/14 91/177/14 90/196/14
f 96/189/18 95/197/18 90/198/18 89/190/18
f 83/199/15 88/200/15 87/194/15 84/193/15
f 82/201/18 85/202/18 88/203/18 83/204/18
