# Made in Blockbench 4.5.2
mtllib propellerlarge2blade.mtl

o propellerlarge2blade
v -0.15625 0.09375 0.25
v 0.15625 0.09375 0.25
v 0.15625 0.09375 0
v -0.15625 0.09375 0
v -0.15625 -0.09375 0
v 0.15625 -0.09375 0
v 0.15625 -0.09375 0.25
v -0.15625 -0.09375 0.25
v -0.09375 -0.15625 0
v 0.09375 -0.15625 0
v 0.09375 -0.15625 0.25
v -0.09375 -0.15625 0.25
v 0.09375 -0.09375 0.25
v -0.09375 -0.09375 0.25
v -0.09375 -0.09375 0
v 0.09375 -0.09375 0
v -0.09375 0.15625 0.25
v 0.09375 0.15625 0.25
v 0.09375 0.15625 0
v -0.09375 0.15625 0
v -0.09375 0.09375 0.25
v 0.09375 0.09375 0.25
v 0.09375 0.09375 0
v -0.09375 0.09375 0
v -0.0625 0.0625 0
v 0.0625 0.0625 0
v 0.0625 0.0625 -0.3125
v -0.0625 0.0625 -0.3125
v -0.0625 -0.0625 -0.3125
v 0.0625 -0.0625 -0.3125
v 0.0625 -0.0625 0
v -0.0625 -0.0625 0
v -0.28125 0.154006 0.016747
v -1.40625 0.154006 0.016747
v -1.40625 0.185256 0.070873
v -0.28125 0.185256 0.070873
v -1.40625 0.13113 0.102123
v -0.28125 0.13113 0.102123
v -0.28125 0.09988 0.047997
v -1.40625 0.09988 0.047997
v -0.15625 -0.03125 0.195873
v -1.53125 -0.03125 0.195873
v -1.53125 -0.0625 0.141747
v -0.15625 -0.0625 0.141747
v -0.15625 0.09988 0.047997
v -1.53125 0.09988 0.047997
v -1.53125 0.13113 0.102123
v -0.15625 0.13113 0.102123
v 0.15625 0.03125 0.195873
v 1.53125 0.03125 0.195873
v 1.53125 0.0625 0.141747
v 0.15625 0.0625 0.141747
v 0.15625 -0.09988 0.047997
v 1.53125 -0.09988 0.047997
v 1.53125 -0.13113 0.102123
v 0.15625 -0.13113 0.102123
v 0.28125 -0.154006 0.016747
v 1.40625 -0.154006 0.016747
v 1.40625 -0.185256 0.070873
v 0.28125 -0.185256 0.070873
v 1.40625 -0.13113 0.102123
v 0.28125 -0.13113 0.102123
v 0.28125 -0.09988 0.047997
v 1.40625 -0.09988 0.047997
v 1.53125 -0.022877 0.164623
v 1.59375 -0.022877 0.164623
v 1.59375 0.008373 0.110497
v 1.53125 0.008373 0.110497
v 1.53125 -0.045753 0.079247
v 1.59375 -0.045753 0.079247
v 1.59375 -0.077003 0.133373
v 1.53125 -0.077003 0.133373
v -1.53125 0.022877 0.164623
v -1.59375 0.022877 0.164623
v -1.59375 -0.008373 0.110497
v -1.53125 -0.008373 0.110497
v -1.53125 0.045753 0.079247
v -1.59375 0.045753 0.079247
v -1.59375 0.077003 0.133373
v -1.53125 0.077003 0.133373
vt 0.030312042157922218 0.9166248710616829
vt 0.06819233728496399 0.9166248710616829
vt 0.06819233728496399 0.9469259978544776
vt 0.030312042157922218 0.9469259978544776
vt 0.06819233728496399 0.9166248710616829
vt 0.10607263241200572 0.9166248710616829
vt 0.10607263241200572 0.9469259978544776
vt 0.06819233728496399 0.9469259978544776
vt 0.06819233728496399 0.9166248710616829
vt 0.030312042157922218 0.9166248710616829
vt 0.030312042157922218 0.8938959957089552
vt 0.06819233728496399 0.8938959957089552
vt 0.13637376547901886 0.9166248710616829
vt 0.09849734914525245 0.9166248710616829
vt 0.09849734914525245 0.8938959957089552
vt 0.13637376547901886 0.8938959957089552
vt 0.09849734914525245 0.9166248710616829
vt 0.06819233728496399 0.9166248710616829
vt 0.06819233728496399 0.8938959957089552
vt 0.09849734914525245 0.8938959957089552
vt 0.030312042157922218 0.9166248710616829
vt 0.000010909090909090909 0.9166248710616829
vt 0.000010909090909090909 0.8938959957089552
vt 0.030312042157922218 0.8938959957089552
vt 0.053041770751457405 0.9696548732072052
vt 0.07576762055171728 0.9696548732072052
vt 0.07576762055171728 0.999956
vt 0.053041770751457405 0.999956
vt 0.053041770751457405 0.9696548732072052
vt 0.030312042157922218 0.9696548732072052
vt 0.030312042157922218 0.9620763188302244
vt 0.053041770751457405 0.9620763188302244
vt 0.10607263241200572 0.9696548732072052
vt 0.08334290381847055 0.9696548732072052
vt 0.08334290381847055 0.9620763188302244
vt 0.10607263241200572 0.9620763188302244
vt 0.08334290381847055 0.9696548732072052
vt 0.053041770751457405 0.9696548732072052
vt 0.053041770751457405 0.9620763188302244
vt 0.08334290381847055 0.9620763188302244
vt 0.030312042157922218 0.9696548732072052
vt 0.000010909090909090909 0.9696548732072052
vt 0.000010909090909090909 0.9620763188302244
vt 0.030312042157922218 0.9620763188302244
vt 0.030312042157922218 0.8635948689161606
vt 0.053041770751457405 0.8635948689161606
vt 0.053041770751457405 0.8938959957089552
vt 0.030312042157922218 0.8938959957089552
vt 0.053041770751457405 0.8635948689161606
vt 0.030312042157922218 0.8635948689161606
vt 0.030312042157922218 0.8560197084282871
vt 0.053041770751457405 0.8560197084282871
vt 0.10607263241200572 0.8635948689161606
vt 0.08334290381847055 0.8635948689161606
vt 0.08334290381847055 0.8560197084282871
vt 0.10607263241200572 0.8560197084282871
vt 0.08334290381847055 0.8635948689161606
vt 0.053041770751457405 0.8635948689161606
vt 0.053041770751457405 0.8560197084282871
vt 0.08334290381847055 0.8560197084282871
vt 0.030312042157922218 0.8635948689161606
vt 0.000010909090909090909 0.8635948689161606
vt 0.000010909090909090909 0.8560197084282871
vt 0.030312042157922218 0.8560197084282871
vt 0.03789120421795085 0.8181400272585115
vt 0.053041770751457405 0.8181400272585115
vt 0.053041770751457405 0.8560197084282871
vt 0.03789120421795085 0.8560197084282871
vt 0.053041770751457405 0.8181400272585115
vt 0.06819233728496399 0.8181400272585115
vt 0.06819233728496399 0.8560197084282871
vt 0.053041770751457405 0.8560197084282871
vt 0.10607263241200572 0.8181400272585115
vt 0.09092206587849917 0.8181400272585115
vt 0.09092206587849917 0.8029897062827647
vt 0.10607263241200572 0.8029897062827647
vt 0.09092206587849917 0.8181400272585115
vt 0.053041770751457405 0.8181400272585115
vt 0.053041770751457405 0.8029897062827647
vt 0.09092206587849917 0.8029897062827647
vt 0.03789120421795085 0.8181400272585115
vt 0.000010909090909090909 0.8181400272585115
vt 0.000010909090909090909 0.8029897062827647
vt 0.03789120421795085 0.8029897062827647
vt 0.14394904874577213 0.7196556682966413
vt 0.2803157839271572 0.7196556682966413
vt 0.2803157839271572 0.7272342226736221
vt 0.14394904874577213 0.7272342226736221
vt 0.14394904874577213 0.7196556682966413
vt 0.007586192357662372 0.7196556682966413
vt 0.007586192357662372 0.7120805078087677
vt 0.14394904874577213 0.7120805078087677
vt 0.2878910671939106 0.7196556682966413
vt 0.1515243320125254 0.7196556682966413
vt 0.1515243320125254 0.7120805078087677
vt 0.2878910671939106 0.7120805078087677
vt 0.1515243320125254 0.7196556682966413
vt 0.14394904874577213 0.7196556682966413
vt 0.14394904874577213 0.7120805078087677
vt 0.1515243320125254 0.7120805078087677
vt 0.007586192357662372 0.7196556682966413
vt 0.000010909090909090909 0.7196556682966413
vt 0.000010909090909090909 0.7120805078087677
vt 0.007586192357662372 0.7120805078087677
vt 0.007586192357662372 0.7954145457948913
vt 0.17425406060606063 0.7954145457948913
vt 0.17425406060606063 0.8029897062827647
vt 0.007586192357662372 0.8029897062827647
vt 0.17425406060606063 0.7954145457948913
vt 0.3409219288544589 0.7954145457948913
vt 0.3409219288544589 0.8029897062827647
vt 0.17425406060606063 0.8029897062827647
vt 0.17425406060606063 0.7954145457948913
vt 0.007586192357662372 0.7954145457948913
vt 0.007586192357662372 0.7726856704421636
vt 0.17425406060606063 0.7726856704421636
vt 0.34849721212121215 0.7954145457948913
vt 0.18182934387281388 0.7954145457948913
vt 0.18182934387281388 0.7726856704421636
vt 0.34849721212121215 0.7726856704421636
vt 0.18182934387281388 0.7954145457948913
vt 0.17425406060606063 0.7954145457948913
vt 0.17425406060606063 0.7726856704421636
vt 0.18182934387281388 0.7726856704421636
vt 0.007586192357662372 0.7651105099542902
vt 0.17425406060606063 0.7651105099542902
vt 0.17425406060606063 0.7726856704421636
vt 0.007586192357662372 0.7726856704421636
vt 0.17425406060606063 0.7651105099542902
vt 0.3409219288544589 0.7651105099542902
vt 0.3409219288544589 0.7726856704421636
vt 0.17425406060606063 0.7726856704421636
vt 0.17425406060606063 0.7651105099542902
vt 0.007586192357662372 0.7651105099542902
vt 0.007586192357662372 0.7423845436493689
vt 0.17425406060606063 0.7423845436493689
vt 0.34849721212121215 0.7651105099542902
vt 0.18182934387281388 0.7651105099542902
vt 0.18182934387281388 0.7423845436493689
vt 0.34849721212121215 0.7423845436493689
vt 0.18182934387281388 0.7651105099542902
vt 0.17425406060606063 0.7651105099542902
vt 0.17425406060606063 0.7423845436493689
vt 0.18182934387281388 0.7423845436493689
vt 0.14394904874577213 0.7348093831614955
vt 0.2803157839271572 0.7348093831614955
vt 0.2803157839271572 0.7423845436493689
vt 0.14394904874577213 0.7423845436493689
vt 0.14394904874577213 0.7348093831614955
vt 0.007586192357662372 0.7348093831614955
vt 0.007586192357662372 0.7272342226736221
vt 0.14394904874577213 0.7272342226736221
vt 0.2878910671939106 0.7348093831614955
vt 0.1515243320125254 0.7348093831614955
vt 0.1515243320125254 0.7272342226736221
vt 0.2878910671939106 0.7272342226736221
vt 0.1515243320125254 0.7348093831614955
vt 0.14394904874577213 0.7348093831614955
vt 0.14394904874577213 0.7272342226736221
vt 0.1515243320125254 0.7272342226736221
vt 0.007586192357662372 0.7348093831614955
vt 0.000010909090909090909 0.7348093831614955
vt 0.000010909090909090909 0.7272342226736221
vt 0.007586192357662372 0.7272342226736221
vt 0.17425406060606063 0.8105648667706381
vt 0.18182934387281388 0.8105648667706381
vt 0.18182934387281388 0.8181400272585115
vt 0.17425406060606063 0.8181400272585115
vt 0.18182934387281388 0.8105648667706381
vt 0.18940462713956718 0.8105648667706381
vt 0.18940462713956718 0.8181400272585115
vt 0.18182934387281388 0.8181400272585115
vt 0.18182934387281388 0.8105648667706381
vt 0.17425406060606063 0.8105648667706381
vt 0.17425406060606063 0.8029897062827647
vt 0.18182934387281388 0.8029897062827647
vt 0.19697991040632049 0.8105648667706381
vt 0.18940462713956718 0.8105648667706381
vt 0.18940462713956718 0.8029897062827647
vt 0.19697991040632049 0.8029897062827647
vt 0.18940462713956718 0.8105648667706381
vt 0.18182934387281388 0.8105648667706381
vt 0.18182934387281388 0.8029897062827647
vt 0.18940462713956718 0.8029897062827647
vt 0.20455519367307376 0.8105648667706381
vt 0.21213435573310238 0.8105648667706381
vt 0.21213435573310238 0.8181400272585115
vt 0.20455519367307376 0.8181400272585115
vt 0.21213435573310238 0.8105648667706381
vt 0.21970963899985566 0.8105648667706381
vt 0.21970963899985566 0.8181400272585115
vt 0.21213435573310238 0.8181400272585115
vt 0.21213435573310238 0.8105648667706381
vt 0.20455519367307376 0.8105648667706381
vt 0.20455519367307376 0.8029897062827647
vt 0.21213435573310238 0.8029897062827647
vt 0.22728492226660896 0.8105648667706381
vt 0.21970963899985566 0.8105648667706381
vt 0.21970963899985566 0.8029897062827647
vt 0.22728492226660896 0.8029897062827647
vt 0.21970963899985566 0.8105648667706381
vt 0.21213435573310238 0.8105648667706381
vt 0.21213435573310238 0.8029897062827647
vt 0.21970963899985566 0.8029897062827647
vn 0 1 0
vn 0 -1 0
vn 0 0 1
vn 0 0 -1
vn 1 0 0
vn -1 0 0
vn 0 -1 0
vn 0 0 1
vn 0 0 -1
vn 1 0 0
vn -1 0 0
vn 0 1 0
vn 0 0 1
vn 0 0 -1
vn 1 0 0
vn -1 0 0
vn 0 1 0
vn 0 -1 0
vn 0 0 -1
vn 1 0 0
vn -1 0 0
vn 0 0.8660230528096099 -0.5000040719857426
vn 0 0.5000040719857426 0.8660230528096099
vn 0 -0.5000040719857426 -0.8660230528096101
vn -1 0 0
vn 1 0 0
vn 0 -0.8660230528096099 0.5000040719857429
vn 0 0.8660230528096099 -0.5000040719857426
vn 0 0.49999945315645267 0.8660257195044778
vn 0 -0.4999994531564528 -0.8660257195044777
vn -1 0 0
vn 0 0.8660230528096099 0.5000040719857429
vn 0 -0.8660230528096099 -0.5000040719857426
vn 0 -0.49999945315645267 0.8660257195044778
vn 0 0.4999994531564528 -0.8660257195044777
vn 1 0 0
vn 0 -0.8660230528096099 -0.5000040719857426
vn 0 -0.5000040719857426 0.8660230528096099
vn 0 0.5000040719857426 -0.8660230528096101
vn 1 0 0
vn -1 0 0
vn 0 0.8660230528096098 0.5000040719857427
vn 0 -0.8660230528096098 -0.5000040719857427
vn 0 -0.5000040719857427 0.8660230528096098
vn 0 0.5000040719857427 -0.8660230528096098
vn 1 0 0
vn 0 -0.8660230528096098 0.5000040719857427
vn 0 0.8660230528096098 -0.5000040719857427
vn 0 0.5000040719857427 0.8660230528096098
vn 0 -0.5000040719857427 -0.8660230528096098
vn -1 0 0
usemtl m_1a0b8531-ba39-2cb3-85cb-a7d4fa88fb75
f 1/1/1 2/2/1 3/3/1 4/4/1
f 5/5/2 6/6/2 7/7/2 8/8/2
f 2/9/3 1/10/3 8/11/3 7/12/3
f 4/13/4 3/14/4 6/15/4 5/16/4
f 3/17/5 2/18/5 7/19/5 6/20/5
f 1/21/6 4/22/6 5/23/6 8/24/6
f 9/25/7 10/26/7 11/27/7 12/28/7
f 13/29/8 14/30/8 12/31/8 11/32/8
f 15/33/9 16/34/9 10/35/9 9/36/9
f 16/37/10 13/38/10 11/39/10 10/40/10
f 14/41/11 15/42/11 9/43/11 12/44/11
f 17/45/12 18/46/12 19/47/12 20/48/12
f 18/49/13 17/50/13 21/51/13 22/52/13
f 20/53/14 19/54/14 23/55/14 24/56/14
f 19/57/15 18/58/15 22/59/15 23/60/15
f 17/61/16 20/62/16 24/63/16 21/64/16
f 25/65/17 26/66/17 27/67/17 28/68/17
f 29/69/18 30/70/18 31/71/18 32/72/18
f 28/73/19 27/74/19 30/75/19 29/76/19
f 27/77/20 26/78/20 31/79/20 30/80/20
f 25/81/21 28/82/21 29/83/21 32/84/21
f 33/85/22 34/86/22 35/87/22 36/88/22
f 37/89/23 38/90/23 36/91/23 35/92/23
f 39/93/24 40/94/24 34/95/24 33/96/24
f 40/97/25 37/98/25 35/99/25 34/100/25
f 38/101/26 39/102/26 33/103/26 36/104/26
f 41/105/27 42/106/27 43/107/27 44/108/27
f 45/109/28 46/110/28 47/111/28 48/112/28
f 42/113/29 41/114/29 48/115/29 47/116/29
f 44/117/30 43/118/30 46/119/30 45/120/30
f 43/121/31 42/122/31 47/123/31 46/124/31
f 49/125/32 50/126/32 51/127/32 52/128/32
f 53/129/33 54/130/33 55/131/33 56/132/33
f 50/133/34 49/134/34 56/135/34 55/136/34
f 52/137/35 51/138/35 54/139/35 53/140/35
f 51/141/36 50/142/36 55/143/36 54/144/36
f 57/145/37 58/146/37 59/147/37 60/148/37
f 61/149/38 62/150/38 60/151/38 59/152/38
f 63/153/39 64/154/39 58/155/39 57/156/39
f 64/157/40 61/158/40 59/159/40 58/160/40
f 62/161/41 63/162/41 57/163/41 60/164/41
f 65/165/42 66/166/42 67/167/42 68/168/42
f 69/169/43 70/170/43 71/171/43 72/172/43
f 66/173/44 65/174/44 72/175/44 71/176/44
f 68/177/45 67/178/45 70/179/45 69/180/45
f 67/181/46 66/182/46 71/183/46 70/184/46
f 73/185/47 74/186/47 75/187/47 76/188/47
f 77/189/48 78/190/48 79/191/48 80/192/48
f 74/193/49 73/194/49 80/195/49 79/196/49
f 76/197/50 75/198/50 78/199/50 77/200/50
f 75/201/51 74/202/51 79/203/51 78/204/51
o #translucent_2bladel_mblur
v 1.6875 -1.6875 0.125
v -1.6875 -1.6875 0.125
v -1.6875 1.6875 0.125
v 1.6875 1.6875 0.125
v 1.6875 -1.6875 0.12531249999999994
v 1.6875 1.6875 0.12531249999999994
v -1.6875 -1.6875 0.12531249999999994
v -1.6875 1.6875 0.12531249999999994
vt 0 0.27272727272727293
vt 0.4090909090909091 0.27272727272727293
vt 0.4090909090909091 0.6818114315211687
vt 0 0.6818114315211687
vt 0.9843749999999999 0.9895833333333334
vt 1 0.9895833333333334
vt 1 1
vt 0.9843749999999999 1
vt 0.4090909090909091 0.27272727272727293
vt 0 0.27272727272727293
vt 0 0.6818114315211687
vt 0.4090909090909091 0.6818114315211687
vt 0.9947916666666663 1
vt 1 1
vt 1 0.9947916666666667
vt 0.9947916666666663 0.9947916666666667
vt 1 1
vt 0.9843749999999999 1
vt 0.9843749999999999 0.9895833333333334
vt 1 0.9895833333333334
vt 1 0.9895833333333334
vt 0.9895833333333334 0.9895833333333334
vt 0.9895833333333334 0.9895833333333334
vt 1 0.9895833333333334
vn 0 0 -1
vn 1 0 0
vn 0 0 1
vn -1 0 0
vn 0 1 0
vn 0 -1 0
usemtl m_1a0b8531-ba39-2cb3-85cb-a7d4fa88fb75
f 81/205/52 82/206/52 83/207/52 84/208/52
f 85/209/53 81/210/53 84/211/53 86/212/53
f 87/213/54 85/214/54 86/215/54 88/216/54
f 82/217/55 87/218/55 88/219/55 83/220/55
f 88/221/56 86/222/56 84/223/56 83/224/56
f 82/225/57 81/226/57 85/227/57 87/228/57