# Blender v2.79 (sub 0) OBJ File: ''
# www.blender.org
mtllib seat.mtl
o WHeadBeam
v 0.062500 0.937500 -0.283203
v 0.062500 0.812500 -0.283203
v 0.062500 0.937500 -0.220703
v 0.062500 0.812500 -0.220703
v 0.125000 0.937500 -0.220703
v 0.125000 0.812500 -0.220703
v 0.125000 0.937500 -0.283203
v 0.125000 0.812500 -0.283203
vt 0.000000 1.000000
vt 0.000000 0.875000
vt 0.062500 1.000000
vt 0.062500 0.875000
vt 0.000000 1.000000
vt 0.000000 0.875000
vt 0.062500 1.000000
vt 0.062500 0.875000
vt 0.000000 0.875000
vt 0.062500 0.875000
vt 0.000000 1.000000
vt 0.062500 1.000000
vt 0.000000 1.000000
vt 0.000000 0.875000
vt 0.062500 1.000000
vt 0.062500 0.875000
vt 0.000000 1.000000
vt 0.000000 0.875000
vt 0.062500 1.000000
vt 0.062500 0.875000
vn -1.0000 0.0000 0.0000
vn 1.0000 0.0000 -0.0000
vn 0.0000 1.0000 0.0000
vn 0.0000 -1.0000 0.0000
vn 0.0000 -0.0000 -1.0000
vn 0.0000 0.0000 1.0000
usemtl 0
s 1
f 1/1/1 2/2/1 3/3/1
f 2/2/1 4/4/1 3/3/1
f 5/5/2 6/6/2 7/7/2
f 6/6/2 8/8/2 7/7/2
f 5/5/3 7/9/3 3/3/3
f 7/9/3 1/10/3 3/3/3
f 8/11/4 6/6/4 2/12/4
f 6/6/4 4/4/4 2/12/4
f 7/13/5 8/14/5 1/15/5
f 8/14/5 2/16/5 1/15/5
f 3/17/6 4/18/6 5/19/6
f 4/18/6 6/20/6 5/19/6
o SeatCushion
v -0.375000 -0.062500 -0.283203
v -0.375000 -0.250000 -0.283203
v -0.375000 -0.062500 0.466797
v -0.375000 -0.250000 0.466797
v 0.375000 -0.062500 0.466797
v 0.375000 -0.250000 0.466797
v 0.375000 -0.062500 -0.283203
v 0.375000 -0.250000 -0.283203
vt 0.000000 1.000000
vt 0.000000 0.895898
vt 0.270801 1.000000
vt 0.270801 0.895898
vt 0.000000 1.000000
vt 0.000000 0.895849
vt 0.312500 1.000000
vt 0.312500 0.895849
vt 0.687500 1.000000
vt 0.687500 0.687500
vt 1.000000 1.000000
vt 1.000000 0.687500
vt 0.000000 1.000000
vt 0.000000 0.687500
vt 0.312500 1.000000
vt 0.312500 0.687500
vt 0.000000 1.000000
vt 0.000000 0.895849
vt 0.312500 1.000000
vt 0.312500 0.895849
vt 0.708301 1.000000
vt 0.708301 0.916699
vt 0.999951 1.000000
vt 0.999951 0.916699
vn -1.0000 0.0000 0.0000
vn 1.0000 0.0000 -0.0000
vn -0.0000 1.0000 -0.0000
vn 0.0000 -1.0000 0.0000
vn -0.0000 -0.0000 -1.0000
vn 0.0000 0.0000 1.0000
usemtl 0
s 1
f 9/21/7 10/22/7 11/23/7
f 10/22/7 12/24/7 11/23/7
f 13/25/8 14/26/8 15/27/8
f 14/26/8 16/28/8 15/27/8
f 13/29/9 15/30/9 11/31/9
f 15/30/9 9/32/9 11/31/9
f 16/33/10 14/34/10 10/35/10
f 14/34/10 12/36/10 10/35/10
f 15/37/11 16/38/11 9/39/11
f 16/38/11 10/40/11 9/39/11
f 11/41/12 12/42/12 13/43/12
f 12/42/12 14/44/12 13/43/12
o LowerBrace
v -0.312500 0.062500 -0.283203
v -0.312500 -0.062500 -0.283203
v -0.312500 0.062500 -0.220703
v -0.312500 -0.062500 -0.220703
v 0.312500 0.062500 -0.220703
v 0.312500 -0.062500 -0.220703
v 0.312500 0.062500 -0.283203
v 0.312500 -0.062500 -0.283203
vt 0.000000 1.000000
vt 0.000000 0.916699
vt 0.062500 1.000000
vt 0.062500 0.916699
vt 0.000000 1.000000
vt 0.000000 0.916699
vt 0.062500 1.000000
vt 0.062500 0.916699
vt 0.000000 0.750000
vt 0.250000 1.000000
vt 0.250000 0.750000
vt 0.000000 1.000000
vt 0.000000 0.750000
vt 0.250000 1.000000
vt 0.250000 0.750000
vt 0.000000 1.000000
vt 0.000000 0.937500
vt 0.250000 1.000000
vt 0.250000 0.937500
vt 0.000000 1.000000
vt 0.000000 0.937549
vt 0.250000 1.000000
vt 0.250000 0.937549
vn -1.0000 0.0000 0.0000
vn 1.0000 0.0000 0.0000
vn -0.0000 1.0000 -0.0000
vn 0.0000 -1.0000 0.0000
vn -0.0000 0.0000 -1.0000
vn 0.0000 0.0000 1.0000
usemtl 0
s 1
f 17/45/13 18/46/13 19/47/13
f 18/46/13 20/48/13 19/47/13
f 21/49/14 22/50/14 23/51/14
f 22/50/14 24/52/14 23/51/14
f 21/49/15 23/53/15 19/54/15
f 23/53/15 17/55/15 19/54/15
f 24/56/16 22/57/16 18/58/16
f 22/57/16 20/59/16 18/58/16
f 23/60/17 24/61/17 17/62/17
f 24/61/17 18/63/17 17/62/17
f 19/64/18 20/65/18 21/66/18
f 20/65/18 22/67/18 21/66/18
o WArm
v 0.312500 0.000000 -0.033203
v 0.312500 -0.062500 -0.033203
v 0.312500 0.000000 0.404297
v 0.312500 -0.062500 0.404297
v 0.375000 0.000000 0.404297
v 0.375000 -0.062500 0.404297
v 0.375000 0.000000 -0.033203
v 0.375000 -0.062500 -0.033203
vt 0.749902 1.000000
vt 0.749902 0.958448
vt 0.999805 1.000000
vt 0.999805 0.958448
vt 0.000000 1.000000
vt 0.000000 0.958349
vt 0.249854 1.000000
vt 0.249854 0.958349
vt 0.958301 1.000000
vt 0.958301 0.687500
vt 0.999951 1.000000
vt 0.999951 0.687500
vt 0.958301 1.000000
vt 0.958301 0.687500
vt 0.999951 1.000000
vt 0.999951 0.687500
vt 0.958301 1.000000
vt 0.958301 0.958448
vt 0.999902 1.000000
vt 0.999902 0.958448
vt 0.958252 1.000000
vt 0.958252 0.958398
vt 0.999805 1.000000
vt 0.999805 0.958398
vn -1.0000 0.0000 0.0000
vn 1.0000 0.0000 -0.0000
vn 0.0000 1.0000 -0.0000
vn 0.0000 -1.0000 0.0000
vn -0.0000 -0.0000 -1.0000
vn 0.0000 0.0000 1.0000
usemtl 0
s 1
f 25/68/19 26/69/19 27/70/19
f 26/69/19 28/71/19 27/70/19
f 29/72/20 30/73/20 31/74/20
f 30/73/20 32/75/20 31/74/20
f 29/76/21 31/77/21 27/78/21
f 31/77/21 25/79/21 27/78/21
f 32/80/22 30/81/22 26/82/22
f 30/81/22 28/83/22 26/82/22
f 31/84/23 32/85/23 25/86/23
f 32/85/23 26/87/23 25/86/23
f 27/88/24 28/89/24 29/90/24
f 28/89/24 30/91/24 29/90/24
o NWFoot
v 0.187500 -0.312500 0.341797
v 0.187500 -0.375000 0.341797
v 0.187500 -0.312500 0.404297
v 0.187500 -0.375000 0.404297
v 0.312500 -0.312500 0.404297
v 0.312500 -0.375000 0.404297
v 0.312500 -0.312500 0.341797
v 0.312500 -0.375000 0.341797
vt 0.375000 0.812500
vt 0.375000 0.750000
vt 0.500000 0.812500
vt 0.500000 0.750000
vt 0.375000 0.812500
vt 0.375000 0.750000
vt 0.500000 0.812500
vt 0.500000 0.750000
vt 0.375000 0.750000
vt 0.500000 0.750000
vt 0.375000 0.812500
vt 0.500000 0.812500
vt 0.375000 0.812500
vt 0.375000 0.750000
vt 0.500000 0.812500
vt 0.500000 0.750000
vt 0.375000 0.812500
vt 0.375000 0.750000
vt 0.500000 0.812500
vt 0.500000 0.750000
vn -1.0000 0.0000 0.0000
vn 1.0000 0.0000 0.0000
vn 0.0000 1.0000 0.0000
vn 0.0000 -1.0000 0.0000
vn 0.0000 0.0000 -1.0000
vn 0.0000 0.0000 1.0000
usemtl 0
s 1
f 33/92/25 34/93/25 35/94/25
f 34/93/25 36/95/25 35/94/25
f 37/96/26 38/97/26 39/98/26
f 38/97/26 40/99/26 39/98/26
f 37/96/27 39/100/27 35/94/27
f 39/100/27 33/101/27 35/94/27
f 40/102/28 38/97/28 34/103/28
f 38/97/28 36/95/28 34/103/28
f 39/104/29 40/105/29 33/106/29
f 40/105/29 34/107/29 33/106/29
f 35/108/30 36/109/30 37/110/30
f 36/109/30 38/111/30 37/110/30
o WBackWall
v 0.312500 0.812500 -0.158203
v 0.312500 0.125000 -0.158203
v 0.312500 0.812500 -0.095703
v 0.312500 0.125000 -0.095703
v 0.375000 0.812500 -0.095703
v 0.375000 0.125000 -0.095703
v 0.375000 0.812500 -0.158203
v 0.375000 0.125000 -0.158203
vt 0.958301 1.000000
vt 0.958301 0.666699
vt 0.999951 1.000000
vt 0.999951 0.666699
vt 0.000000 1.000000
vt 0.000000 0.666699
vt 0.041651 1.000000
vt 0.041651 0.666699
vt 0.937500 1.000000
vt 0.937500 0.958349
vt 1.000000 0.958349
vt 0.937500 1.000000
vt 0.937500 0.937500
vt 1.000000 1.000000
vt 1.000000 0.937500
vt 0.958301 1.000000
vt 0.958301 0.666699
vt 0.999951 1.000000
vt 0.999951 0.666699
vt 0.958301 1.000000
vt 0.958301 0.666699
vt 0.999951 1.000000
vt 0.999951 0.666699
vn -1.0000 0.0000 0.0000
vn 1.0000 0.0000 -0.0000
vn 0.0000 1.0000 0.0000
vn 0.0000 -1.0000 0.0000
vn 0.0000 -0.0000 -1.0000
vn 0.0000 0.0000 1.0000
usemtl 0
s 1
f 41/112/31 42/113/31 43/114/31
f 42/113/31 44/115/31 43/114/31
f 45/116/32 46/117/32 47/118/32
f 46/117/32 48/119/32 47/118/32
f 45/120/33 47/121/33 43/114/33
f 47/121/33 41/122/33 43/114/33
f 48/123/34 46/124/34 42/125/34
f 46/124/34 44/126/34 42/125/34
f 47/127/35 48/128/35 41/129/35
f 48/128/35 42/130/35 41/129/35
f 43/131/36 44/132/36 45/133/36
f 44/132/36 46/134/36 45/133/36
o EHeadBeam
v -0.125000 0.937500 -0.283203
v -0.125000 0.812500 -0.283203
v -0.125000 0.937500 -0.220703
v -0.125000 0.812500 -0.220703
v -0.062500 0.937500 -0.220703
v -0.062500 0.812500 -0.220703
v -0.062500 0.937500 -0.283203
v -0.062500 0.812500 -0.283203
vt 0.000000 1.000000
vt 0.000000 0.875000
vt 0.062500 1.000000
vt 0.062500 0.875000
vt 0.000000 1.000000
vt 0.000000 0.875000
vt 0.062500 1.000000
vt 0.062500 0.875000
vt 0.000000 0.875000
vt 0.062500 0.875000
vt 0.000000 1.000000
vt 0.062500 1.000000
vt 0.000000 1.000000
vt 0.000000 0.875000
vt 0.062500 1.000000
vt 0.062500 0.875000
vt 0.000000 1.000000
vt 0.000000 0.875000
vt 0.062500 1.000000
vt 0.062500 0.875000
vn -1.0000 0.0000 0.0000
vn 1.0000 0.0000 -0.0000
vn 0.0000 1.0000 0.0000
vn 0.0000 -1.0000 0.0000
vn 0.0000 -0.0000 -1.0000
vn 0.0000 0.0000 1.0000
usemtl 0
s 1
f 49/135/37 50/136/37 51/137/37
f 50/136/37 52/138/37 51/137/37
f 53/139/38 54/140/38 55/141/38
f 54/140/38 56/142/38 55/141/38
f 53/139/39 55/143/39 51/137/39
f 55/143/39 49/144/39 51/137/39
f 56/145/40 54/140/40 50/146/40
f 54/140/40 52/138/40 50/146/40
f 55/147/41 56/148/41 49/149/41
f 56/148/41 50/150/41 49/149/41
f 51/151/42 52/152/42 53/153/42
f 52/152/42 54/154/42 53/153/42
o SWFoot
v 0.187500 -0.312500 -0.095703
v 0.187500 -0.375000 -0.095703
v 0.187500 -0.312500 0.029297
v 0.187500 -0.375000 0.029297
v 0.312500 -0.312500 0.029297
v 0.312500 -0.375000 0.029297
v 0.312500 -0.312500 -0.095703
v 0.312500 -0.375000 -0.095703
vt 0.375000 0.812500
vt 0.375000 0.750000
vt 0.500000 0.812500
vt 0.500000 0.750000
vt 0.375000 0.812500
vt 0.375000 0.750000
vt 0.500000 0.812500
vt 0.500000 0.750000
vt 0.375000 0.750000
vt 0.500000 0.750000
vt 0.375000 0.812500
vt 0.500000 0.812500
vt 0.375000 0.812500
vt 0.375000 0.750000
vt 0.500000 0.812500
vt 0.500000 0.750000
vt 0.375000 0.812500
vt 0.375000 0.750000
vt 0.500000 0.812500
vt 0.500000 0.750000
vn -1.0000 0.0000 0.0000
vn 1.0000 0.0000 0.0000
vn -0.0000 1.0000 0.0000
vn 0.0000 -1.0000 0.0000
vn -0.0000 -0.0000 -1.0000
vn 0.0000 0.0000 1.0000
usemtl 0
s 1
f 57/155/43 58/156/43 59/157/43
f 58/156/43 60/158/43 59/157/43
f 61/159/44 62/160/44 63/161/44
f 62/160/44 64/162/44 63/161/44
f 61/159/45 63/163/45 59/157/45
f 63/163/45 57/164/45 59/157/45
f 64/165/46 62/160/46 58/166/46
f 62/160/46 60/158/46 58/166/46
f 63/167/47 64/168/47 57/169/47
f 64/168/47 58/170/47 57/169/47
f 59/171/48 60/172/48 61/173/48
f 60/172/48 62/174/48 61/173/48
o EArm
v -0.375000 0.000000 -0.033203
v -0.375000 -0.062500 -0.033203
v -0.375000 0.000000 0.404297
v -0.375000 -0.062500 0.404297
v -0.312500 0.000000 0.404297
v -0.312500 -0.062500 0.404297
v -0.312500 0.000000 -0.033203
v -0.312500 -0.062500 -0.033203
vt 0.000000 1.000000
vt 0.000000 0.958496
vt 0.249854 1.000000
vt 0.249854 0.958496
vt 0.749902 1.000000
vt 0.749902 0.958349
vt 0.999707 1.000000
vt 0.999707 0.958349
vt 0.958301 1.000000
vt 0.958301 0.687500
vt 0.999951 1.000000
vt 0.999951 0.687500
vt 0.958301 1.000000
vt 0.958301 0.687500
vt 0.999951 1.000000
vt 0.999951 0.687500
vt 0.958301 1.000000
vt 0.958301 0.958398
vt 0.999902 1.000000
vt 0.999902 0.958398
vt 0.958252 1.000000
vt 0.958252 0.958398
vt 0.999805 1.000000
vt 0.999805 0.958398
vn -1.0000 0.0000 0.0000
vn 1.0000 0.0000 -0.0000
vn -0.0000 1.0000 -0.0000
vn 0.0000 -1.0000 0.0000
vn -0.0000 -0.0000 -1.0000
vn 0.0000 0.0000 1.0000
usemtl 0
s 1
f 65/175/49 66/176/49 67/177/49
f 66/176/49 68/178/49 67/177/49
f 69/179/50 70/180/50 71/181/50
f 70/180/50 72/182/50 71/181/50
f 69/183/51 71/184/51 67/185/51
f 71/184/51 65/186/51 67/185/51
f 72/187/52 70/188/52 66/189/52
f 70/188/52 68/190/52 66/189/52
f 71/191/53 72/192/53 65/193/53
f 72/192/53 66/194/53 65/193/53
f 67/195/54 68/196/54 69/197/54
f 68/196/54 70/198/54 69/197/54
o Back
v -0.375000 0.812500 -0.345703
v -0.375000 0.062500 -0.345703
v -0.375000 0.812500 -0.158203
v -0.375000 0.062500 -0.158203
v 0.375000 0.812500 -0.158203
v 0.375000 0.062500 -0.158203
v 0.375000 0.812500 -0.345703
v 0.375000 0.062500 -0.345703
vt 0.000000 1.000000
vt 0.000000 0.666699
vt 0.083301 1.000000
vt 0.083301 0.666699
vt 0.000000 1.000000
vt 0.000000 0.666699
vt 0.083301 1.000000
vt 0.083301 0.666699
vt 0.708301 1.000000
vt 0.708301 0.916699
vt 0.999951 1.000000
vt 0.999951 0.916699
vt 0.000000 1.000000
vt 0.000000 0.750000
vt 0.250000 1.000000
vt 0.250000 0.750000
vt 0.000000 1.000000
vt 0.000000 0.687500
vt 0.312500 1.000000
vt 0.312500 0.687500
vt 0.687500 1.000000
vt 0.687500 0.687500
vt 1.000000 1.000000
vt 1.000000 0.687500
vn -1.0000 -0.0000 0.0000
vn 1.0000 0.0000 -0.0000
vn -0.0000 1.0000 0.0000
vn 0.0000 -1.0000 0.0000
vn -0.0000 -0.0000 -1.0000
vn 0.0000 0.0000 1.0000
usemtl 0
s 1
f 73/199/55 74/200/55 75/201/55
f 74/200/55 76/202/55 75/201/55
f 77/203/56 78/204/56 79/205/56
f 78/204/56 80/206/56 79/205/56
f 77/207/57 79/208/57 75/209/57
f 79/208/57 73/210/57 75/209/57
f 80/211/58 78/212/58 74/213/58
f 78/212/58 76/214/58 74/213/58
f 79/215/59 80/216/59 73/217/59
f 80/216/59 74/218/59 73/217/59
f 75/219/60 76/220/60 77/221/60
f 76/220/60 78/222/60 77/221/60
o HeadRest
v -0.250000 1.187500 -0.345703
v -0.250000 0.937500 -0.345703
v -0.250000 1.187500 -0.158203
v -0.250000 0.937500 -0.158203
v 0.250000 1.187500 -0.158203
v 0.250000 0.937500 -0.158203
v 0.250000 1.187500 -0.345703
v 0.250000 0.937500 -0.345703
vt 0.875000 1.000000
vt 0.875000 0.833349
vt 1.000000 1.000000
vt 1.000000 0.833349
vt 0.875000 1.000000
vt 0.875000 0.833349
vt 1.000000 1.000000
vt 1.000000 0.833349
vt 0.687500 1.000000
vt 0.687500 0.875000
vt 1.000000 0.875000
vt 0.000000 1.000000
vt 0.000000 0.875000
vt 0.312500 1.000000
vt 0.312500 0.875000
vt 0.000000 1.000000
vt 0.000000 0.854199
vt 0.250000 1.000000
vt 0.250000 0.854199
vt 0.750000 1.000000
vt 0.750000 0.854199
vt 1.000000 1.000000
vt 1.000000 0.854199
vn -1.0000 0.0000 0.0000
vn 1.0000 0.0000 -0.0000
vn 0.0000 1.0000 0.0000
vn 0.0000 -1.0000 0.0000
vn 0.0000 -0.0000 -1.0000
vn 0.0000 0.0000 1.0000
usemtl 0
s 1
f 81/223/61 82/224/61 83/225/61
f 82/224/61 84/226/61 83/225/61
f 85/227/62 86/228/62 87/229/62
f 86/228/62 88/230/62 87/229/62
f 85/231/63 87/232/63 83/225/63
f 87/232/63 81/233/63 83/225/63
f 88/234/64 86/235/64 82/236/64
f 86/235/64 84/237/64 82/236/64
f 87/238/65 88/239/65 81/240/65
f 88/239/65 82/241/65 81/240/65
f 83/242/66 84/243/66 85/244/66
f 84/243/66 86/245/66 85/244/66
o EBackWall
v -0.375000 0.812500 -0.158203
v -0.375000 0.125000 -0.158203
v -0.375000 0.812500 -0.095703
v -0.375000 0.125000 -0.095703
v -0.312500 0.812500 -0.095703
v -0.312500 0.125000 -0.095703
v -0.312500 0.812500 -0.158203
v -0.312500 0.125000 -0.158203
vt 0.000000 1.000000
vt 0.000000 0.666699
vt 0.041651 1.000000
vt 0.041651 0.666699
vt 0.958301 1.000000
vt 0.958301 0.666699
vt 0.999951 1.000000
vt 0.999951 0.666699
vt 0.937500 1.000000
vt 0.937500 0.958349
vt 0.979151 1.000000
vt 0.979151 0.958349
vt 0.937500 1.000000
vt 0.937500 0.937500
vt 1.000000 1.000000
vt 1.000000 0.937500
vt 0.937500 1.000000
vt 0.937500 0.687500
vt 1.000000 1.000000
vt 1.000000 0.687500
vt 0.937500 1.000000
vt 0.937500 0.666748
vt 0.999951 1.000000
vt 0.999951 0.666748
vn -1.0000 0.0000 0.0000
vn 1.0000 0.0000 -0.0000
vn 0.0000 1.0000 0.0000
vn 0.0000 -1.0000 0.0000
vn 0.0000 -0.0000 -1.0000
vn 0.0000 0.0000 1.0000
usemtl 0
s 1
f 89/246/67 90/247/67 91/248/67
f 90/247/67 92/249/67 91/248/67
f 93/250/68 94/251/68 95/252/68
f 94/251/68 96/253/68 95/252/68
f 93/254/69 95/255/69 91/256/69
f 95/255/69 89/257/69 91/256/69
f 96/258/70 94/259/70 90/260/70
f 94/259/70 92/261/70 90/260/70
f 95/262/71 96/263/71 89/264/71
f 96/263/71 90/265/71 89/264/71
f 91/266/72 92/267/72 93/268/72
f 92/267/72 94/269/72 93/268/72
o WTBeam
v -0.250000 -0.250000 -0.033203
v -0.250000 -0.312500 -0.033203
v -0.250000 -0.250000 0.404297
v -0.250000 -0.312500 0.404297
v -0.187500 -0.250000 0.404297
v -0.187500 -0.312500 0.404297
v -0.187500 -0.250000 -0.033203
v -0.187500 -0.312500 -0.033203
vt 0.437500 1.000000
vt 0.437500 0.958349
vt 0.666651 1.000000
vt 0.666651 0.958349
vt 0.437500 1.000000
vt 0.437500 0.958349
vt 0.666651 1.000000
vt 0.666651 0.958349
vt 0.437500 0.729199
vt 0.479151 1.000000
vt 0.479151 0.729199
vt 0.437500 1.000000
vt 0.437500 0.729199
vt 0.479151 1.000000
vt 0.479151 0.729199
vt 0.520801 1.000000
vt 0.520801 0.958349
vt 0.562451 1.000000
vt 0.562451 0.958349
vt 0.520801 1.000000
vt 0.520801 0.958349
vt 0.562451 1.000000
vt 0.562451 0.958349
vn -1.0000 -0.0000 0.0000
vn 1.0000 0.0000 -0.0000
vn 0.0000 1.0000 -0.0000
vn 0.0000 -1.0000 0.0000
vn -0.0000 -0.0000 -1.0000
vn 0.0000 0.0000 1.0000
usemtl 0
s 1
f 97/270/73 98/271/73 99/272/73
f 98/271/73 100/273/73 99/272/73
f 101/274/74 102/275/74 103/276/74
f 102/275/74 104/277/74 103/276/74
f 101/274/75 103/278/75 99/279/75
f 103/278/75 97/280/75 99/279/75
f 104/281/76 102/282/76 98/283/76
f 102/282/76 100/284/76 98/283/76
f 103/285/77 104/286/77 97/287/77
f 104/286/77 98/288/77 97/287/77
f 99/289/78 100/290/78 101/291/78
f 100/290/78 102/292/78 101/291/78
o ETBeam
v 0.187500 -0.250000 -0.033203
v 0.187500 -0.312500 -0.033203
v 0.187500 -0.250000 0.404297
v 0.187500 -0.312500 0.404297
v 0.250000 -0.250000 0.404297
v 0.250000 -0.312500 0.404297
v 0.250000 -0.250000 -0.033203
v 0.250000 -0.312500 -0.033203
vt 0.437500 1.000000
vt 0.437500 0.958349
vt 0.666651 1.000000
vt 0.666651 0.958349
vt 0.437500 1.000000
vt 0.437500 0.958349
vt 0.666651 1.000000
vt 0.666651 0.958349
vt 0.437500 0.729199
vt 0.479151 1.000000
vt 0.479151 0.729199
vt 0.437500 1.000000
vt 0.437500 0.729199
vt 0.479151 1.000000
vt 0.479151 0.729199
vt 0.520801 1.000000
vt 0.520801 0.958349
vt 0.562451 1.000000
vt 0.562451 0.958349
vt 0.520801 1.000000
vt 0.520801 0.958349
vt 0.562451 1.000000
vt 0.562451 0.958349
vn -1.0000 0.0000 0.0000
vn 1.0000 0.0000 -0.0000
vn 0.0000 1.0000 -0.0000
vn 0.0000 -1.0000 0.0000
vn -0.0000 -0.0000 -1.0000
vn 0.0000 0.0000 1.0000
usemtl 0
s 1
f 105/293/79 106/294/79 107/295/79
f 106/294/79 108/296/79 107/295/79
f 109/297/80 110/298/80 111/299/80
f 110/298/80 112/300/80 111/299/80
f 109/297/81 111/301/81 107/302/81
f 111/301/81 105/303/81 107/302/81
f 112/304/82 110/305/82 106/306/82
f 110/305/82 108/307/82 106/306/82
f 111/308/83 112/309/83 105/310/83
f 112/309/83 106/311/83 105/310/83
f 107/312/84 108/313/84 109/314/84
f 108/313/84 110/315/84 109/314/84
o NEFoot
v -0.312500 -0.312500 0.341797
v -0.312500 -0.375000 0.341797
v -0.312500 -0.312500 0.404297
v -0.312500 -0.375000 0.404297
v -0.187500 -0.312500 0.404297
v -0.187500 -0.375000 0.404297
v -0.187500 -0.312500 0.341797
v -0.187500 -0.375000 0.341797
vt 0.375000 0.812500
vt 0.375000 0.750000
vt 0.500000 0.812500
vt 0.500000 0.750000
vt 0.375000 0.812500
vt 0.375000 0.750000
vt 0.500000 0.812500
vt 0.500000 0.750000
vt 0.375000 0.750000
vt 0.500000 0.750000
vt 0.375000 0.812500
vt 0.500000 0.812500
vt 0.375000 0.812500
vt 0.375000 0.750000
vt 0.500000 0.812500
vt 0.500000 0.750000
vt 0.375000 0.812500
vt 0.375000 0.750000
vt 0.500000 0.812500
vt 0.500000 0.750000
vn -1.0000 0.0000 0.0000
vn 1.0000 0.0000 -0.0000
vn 0.0000 1.0000 0.0000
vn 0.0000 -1.0000 0.0000
vn 0.0000 -0.0000 -1.0000
vn 0.0000 0.0000 1.0000
usemtl 0
s 1
f 113/316/85 114/317/85 115/318/85
f 114/317/85 116/319/85 115/318/85
f 117/320/86 118/321/86 119/322/86
f 118/321/86 120/323/86 119/322/86
f 117/320/87 119/324/87 115/318/87
f 119/324/87 113/325/87 115/318/87
f 120/326/88 118/321/88 114/327/88
f 118/321/88 116/319/88 114/327/88
f 119/328/89 120/329/89 113/330/89
f 120/329/89 114/331/89 113/330/89
f 115/332/90 116/333/90 117/334/90
f 116/333/90 118/335/90 117/334/90
o SEFoot
v -0.312500 -0.312500 -0.095703
v -0.312500 -0.375000 -0.095703
v -0.312500 -0.312500 0.029297
v -0.312500 -0.375000 0.029297
v -0.187500 -0.312500 0.029297
v -0.187500 -0.375000 0.029297
v -0.187500 -0.312500 -0.095703
v -0.187500 -0.375000 -0.095703
vt 0.375000 0.812500
vt 0.375000 0.750000
vt 0.500000 0.812500
vt 0.500000 0.750000
vt 0.375000 0.812500
vt 0.375000 0.750000
vt 0.500000 0.812500
vt 0.500000 0.750000
vt 0.375000 0.750000
vt 0.500000 0.750000
vt 0.375000 0.812500
vt 0.500000 0.812500
vt 0.375000 0.812500
vt 0.375000 0.750000
vt 0.500000 0.812500
vt 0.500000 0.750000
vt 0.375000 0.812500
vt 0.375000 0.750000
vt 0.500000 0.812500
vt 0.500000 0.750000
vn -1.0000 0.0000 0.0000
vn 1.0000 -0.0000 -0.0000
vn -0.0000 1.0000 0.0000
vn 0.0000 -1.0000 0.0000
vn -0.0000 -0.0000 -1.0000
vn 0.0000 0.0000 1.0000
usemtl 0
s 1
f 121/336/91 122/337/91 123/338/91
f 122/337/91 124/339/91 123/338/91
f 125/340/92 126/341/92 127/342/92
f 126/341/92 128/343/92 127/342/92
f 125/340/93 127/344/93 123/338/93
f 127/344/93 121/345/93 123/338/93
f 128/346/94 126/341/94 122/347/94
f 126/341/94 124/339/94 122/347/94
f 127/348/95 128/349/95 121/350/95
f 128/349/95 122/351/95 121/350/95
f 123/352/96 124/353/96 125/354/96
f 124/353/96 126/355/96 125/354/96
