# Made in Blockbench 4.2.5
mtllib wheelmedium.mtl

o rim
v -0.15625 0.15625 0.15625
v 0.15625 0.15625 0.15625
v 0.15625 0.15625 -0.15625
v -0.15625 0.15625 -0.15625
v -0.15625 -0.15625 0.15625
v 0.15625 -0.15625 0.15625
v 0.15625 -0.15625 -0.15625
v -0.15625 -0.15625 -0.15625
vt 0 0.84375
vt 0.15625 0.84375
vt 0.15625 1
vt 0 1
vt 0 0.6875
vt 0.15625 0.6875
vt 0.15625 0.84375
vt 0 0.84375
vt 0.15625 0.84375
vt 0.3125 0.84375
vt 0.3125 1
vt 0.15625 1
vt 0.15625 0.6875
vt 0.3125 0.6875
vt 0.3125 0.84375
vt 0.15625 0.84375
vt 0 0.53125
vt 0.15625 0.53125
vt 0.15625 0.6875
vt 0 0.6875
vt 0.3125 0.84375
vt 0.46875 0.84375
vt 0.46875 1
vt 0.3125 1
vn 0 1 0
vn 0 0 1
vn 1 0 0
vn 0 0 -1
vn 0 -1 0
vn -1 0 0
usemtl m_0
f 1/1/1 2/2/1 3/3/1 4/4/1
f 5/5/2 6/6/2 2/7/2 1/8/2
f 6/9/3 7/10/3 3/11/3 2/12/3
f 7/13/4 8/14/4 4/15/4 3/16/4
f 8/17/5 7/18/5 6/19/5 5/20/5
f 8/21/6 5/22/6 1/23/6 4/24/6
o tire
v 0.125 0.28125 -0.15625
v 0.125 0.15625 -0.15625
v 0.125 0.15625 -0.28125
v 0.125 0.28125 -0.28125
v 0.125 -0.28125 -0.15625
v 0.125 -0.28125 -0.28125
v 0.125 -0.15625 -0.28125
v 0.125 -0.15625 -0.15625
v 0.125 -0.15625 0.28125
v 0.125 -0.28125 0.28125
v 0.125 -0.28125 0.15625
v 0.125 -0.15625 0.15625
v 0.125 0.28125 0.15625
v 0.125 0.28125 0.28125
v 0.125 0.15625 0.28125
v 0.125 0.15625 0.15625
v -0.125 0.28125 -0.15625
v -0.125 0.28125 -0.28125
v -0.125 0.15625 -0.28125
v -0.125 0.15625 -0.15625
v -0.125 0.28125 0.15625
v -0.125 0.28125 0.28125
v -0.125 0.15625 0.28125
v -0.125 0.15625 0.15625
v -0.125 -0.15625 0.28125
v -0.125 -0.15625 0.15625
v -0.125 -0.28125 0.15625
v -0.125 -0.28125 0.28125
v -0.125 -0.28125 -0.15625
v -0.125 -0.15625 -0.15625
v -0.125 -0.15625 -0.28125
v -0.125 -0.28125 -0.28125
v 0.125 -0.34375 0.15625
v 0.125 -0.34375 -0.15625
v 0.125 -0.15625 -0.34375
v 0.125 0.15625 -0.34375
v -0.125 -0.34375 -0.15625
v -0.125 -0.34375 0.15625
v -0.125 -0.15625 -0.34375
v -0.125 0.15625 -0.34375
v -0.125 -0.15625 0.34375
v 0.125 -0.15625 0.34375
v 0.125 0.15625 0.34375
v -0.125 0.15625 0.34375
v -0.125 0.34375 0.15625
v 0.125 0.34375 0.15625
v -0.125 0.34375 -0.15625
v 0.125 0.34375 -0.15625
vt 0.4375 0.75
vt 0.4375 0.6875
vt 0.5 0.6875
vt 0.5 0.75
vt 0 0.3125
vt 0.0625 0.3125
vt 0.0625 0.375
vt 0 0.375
vt 0.625 1
vt 0.625 0.9375
vt 0.6875 0.9375
vt 0.6875 1
vt 0.125 0.375
vt 0.0625 0.375
vt 0.0625 0.3125
vt 0.125 0.3125
vt 0.1875 0.375
vt 0.125 0.375
vt 0.125 0.3125
vt 0.1875 0.3125
vt 0.59375 0.84375
vt 0.59375 0.90625
vt 0.46875 0.90625
vt 0.46875 0.84375
vt 0.65625 0.53125
vt 0.65625 0.59375
vt 0.53125 0.59375
vt 0.53125 0.53125
vt 0.1875 0.375
vt 0.1875 0.3125
vt 0.25 0.3125
vt 0.25 0.375
vt 0.6875 0.78125
vt 0.625 0.78125
vt 0.625 0.71875
vt 0.6875 0.71875
vt 0.3125 0.3125
vt 0.3125 0.375
vt 0.25 0.375
vt 0.25 0.3125
vt 0.3125 0.375
vt 0.3125 0.4375
vt 0.1875 0.4375
vt 0.1875 0.375
vt 0.4375 0.4375
vt 0.4375 0.375
vt 0.5625 0.375
vt 0.5625 0.4375
vt 0.5625 0.4375
vt 0.5625 0.375
vt 0.6875 0.375
vt 0.6875 0.4375
vt 0.71875 0.84375
vt 0.71875 0.90625
vt 0.59375 0.90625
vt 0.59375 0.84375
vt 0.71875 0.78125
vt 0.71875 0.84375
vt 0.59375 0.84375
vt 0.59375 0.78125
vt 0.71875 0.46875
vt 0.71875 0.53125
vt 0.59375 0.53125
vt 0.59375 0.46875
vt 0.4375 0.75
vt 0.59375 0.75
vt 0.59375 0.84375
vt 0.4375 0.84375
vt 0.09375 0.375
vt 0.09375 0.53125
vt 0 0.53125
vt 0 0.375
vt 0.15625 0.53125
vt 0.28125 0.53125
vt 0.28125 0.6875
vt 0.15625 0.6875
vt 0.3125 0.6875
vt 0.4375 0.6875
vt 0.4375 0.84375
vt 0.3125 0.84375
vt 0.28125 0.53125
vt 0.40625 0.53125
vt 0.40625 0.6875
vt 0.28125 0.6875
vt 0.59375 0.46875
vt 0.59375 0.4375
vt 0.71875 0.4375
vt 0.71875 0.46875
vt 0.625 1
vt 0.46875 1
vt 0.46875 0.90625
vt 0.625 0.90625
vt 0.625 0.90625
vt 0.75 0.90625
vt 0.75 0.9375
vt 0.625 0.9375
vt 0.09375 0.53125
vt 0.09375 0.375
vt 0.1875 0.375
vt 0.1875 0.53125
vt 0.34375 0.53125
vt 0.1875 0.53125
vt 0.1875 0.4375
vt 0.34375 0.4375
vt 0.4375 0.375
vt 0.4375 0.53125
vt 0.34375 0.53125
vt 0.34375 0.375
vt 0.4375 0.4375
vt 0.59375 0.4375
vt 0.59375 0.53125
vt 0.4375 0.53125
vt 0.53125 0.75
vt 0.53125 0.59375
vt 0.625 0.59375
vt 0.625 0.75
vt 0.40625 0.53125
vt 0.53125 0.53125
vt 0.53125 0.6875
vt 0.40625 0.6875
vt 0.75 0.71875
vt 0.625 0.71875
vt 0.625 0.6875
vt 0.75 0.6875
vt 0.3125 0.375
vt 0.3125 0.34375
vt 0.4375 0.34375
vt 0.4375 0.375
vt 0.625 0.65625
vt 0.75 0.65625
vt 0.75 0.6875
vt 0.625 0.6875
vt 0.625 0.625
vt 0.75 0.625
vt 0.75 0.65625
vt 0.625 0.65625
vt 0.75 0.625
vt 0.625 0.625
vt 0.625 0.59375
vt 0.75 0.59375
vt 0.4375 0.34375
vt 0.5625 0.34375
vt 0.5625 0.375
vt 0.4375 0.375
vn 1 0 0
vn 1 0 0
vn 1 0 0
vn 1 0 0
vn -1 0 0
vn 0 1 0
vn 0 0 1
vn -1 0 0
vn -1 0 0
vn -1 0 0
vn 0 0 -1
vn 0 1 0
vn 0 0 -1
vn 0 -1 0
vn 0 0 1
vn 0 -1 0
vn 1 0 0
vn 1 0 0
vn 0 -1 0
vn 0 0 -1
vn 0 0 1
vn 0 0 1
vn -1 0 0
vn 0 1 0
vn 1 0 0
vn 1 0 0
vn -1 0 0
vn -1 0 0
vn -1 0 0
vn 0 1 0
vn 0 1 0
vn 0 0 -1
vn 0 -1 0
vn 0 0 -1
vn 0 -1 0
vn 0 0 1
usemtl m_0
f 9/25/7 10/26/7 11/27/7 12/28/7
f 13/29/8 14/30/8 15/31/8 16/32/8
f 17/33/9 18/34/9 19/35/9 20/36/9
f 21/37/10 22/38/10 23/39/10 24/40/10
f 25/41/11 26/42/11 27/43/11 28/44/11
f 22/45/12 21/46/12 29/47/12 30/48/12
f 23/49/13 22/50/13 30/51/13 31/52/13
f 29/53/14 32/54/14 31/55/14 30/56/14
f 33/57/15 34/58/15 35/59/15 36/60/15
f 37/61/16 38/62/16 39/63/16 40/64/16
f 27/65/17 26/66/17 12/67/17 11/68/17
f 26/69/18 25/70/18 9/71/18 12/72/18
f 15/73/19 14/74/19 40/75/19 39/76/19
f 14/77/20 13/78/20 37/79/20 40/80/20
f 18/81/21 17/82/21 33/83/21 36/84/21
f 19/85/22 18/86/22 36/87/22 35/88/22
f 41/89/23 42/90/23 16/91/23 20/92/23
f 43/93/24 44/94/24 10/95/24 16/96/24
f 45/97/25 42/98/25 41/99/25 46/100/25
f 43/101/26 47/102/26 48/103/26 44/104/26
f 49/105/27 50/106/27 51/107/27 52/108/27
f 53/109/28 29/110/28 21/111/28 54/112/28
f 53/113/29 55/114/29 28/115/29 32/116/29
f 52/117/30 51/118/30 23/119/30 31/120/30
f 51/121/31 50/122/31 20/123/31 24/124/31
f 56/125/32 54/126/32 24/127/32 10/128/32
f 49/129/33 52/130/33 32/131/33 34/132/33
f 45/133/34 46/134/34 34/135/34 38/136/34
f 48/137/35 47/138/35 38/139/35 28/140/35
f 53/141/36 54/142/36 56/143/36 55/144/36
f 44/145/37 48/146/37 27/147/37 11/148/37
f 56/149/38 9/150/38 25/151/38 55/152/38
f 47/153/39 43/154/39 15/155/39 39/156/39
f 42/157/40 45/158/40 37/159/40 13/160/40
f 50/161/41 49/162/41 33/163/41 17/164/41
f 46/165/42 41/166/42 19/167/42 35/168/42