# Made in Blockbench 4.2.5
mtllib wheelsmall.mtl

o rim
v -0.125 0.09375 0.09375
v 0.125 0.09375 0.09375
v 0.125 0.09375 -0.09375
v -0.125 0.09375 -0.09375
v -0.125 -0.09375 0.09375
v 0.125 -0.09375 0.09375
v 0.125 -0.09375 -0.09375
v -0.125 -0.09375 -0.09375
vt 0.40625 0.71875
vt 0.53125 0.71875
vt 0.53125 0.8125
vt 0.40625 0.8125
vt 0.25 0.5
vt 0.375 0.5
vt 0.375 0.59375
vt 0.25 0.59375
vt 0.1875 0.40625
vt 0.28125 0.40625
vt 0.28125 0.5
vt 0.1875 0.5
vt 0.40625 0.625
vt 0.53125 0.625
vt 0.53125 0.71875
vt 0.40625 0.71875
vt 0.375 0.5
vt 0.5 0.5
vt 0.5 0.59375
vt 0.375 0.59375
vt 0.28125 0.40625
vt 0.375 0.40625
vt 0.375 0.5
vt 0.28125 0.5
vn 0 1 0
vn 0 0 1
vn 1 0 0
vn 0 0 -1
vn 0 -1 0
vn -1 0 0
usemtl m_1
f 1/1/1 2/2/1 3/3/1 4/4/1
f 5/5/2 6/6/2 2/7/2 1/8/2
f 6/9/3 7/10/3 3/11/3 2/12/3
f 7/13/4 8/14/4 4/15/4 3/16/4
f 8/17/5 7/18/5 6/19/5 5/20/5
f 8/21/6 5/22/6 1/23/6 4/24/6
o tire
v 0.09375 -0.21875 0.15625
v 0.09375 -0.21875 -0.15625
v 0.09375 -0.15625 -0.15625
v 0.09375 -0.15625 0.15625
v -0.09375 -0.21875 -0.15625
v -0.09375 -0.21875 0.15625
v -0.09375 -0.15625 0.15625
v -0.09375 -0.15625 -0.15625
v -0.09375 0.21875 0.15625
v -0.09375 0.21875 -0.15625
v -0.09375 0.15625 -0.15625
v -0.09375 0.15625 0.15625
v -0.125 0.09375 0.09375
v 0.125 0.09375 0.09375
v 0.125 0.09375 -0.09375
v -0.125 0.09375 -0.09375
v 0.09375 -0.15625 0.21875
v -0.09375 -0.15625 0.21875
v -0.09375 0.15625 0.21875
v 0.09375 0.15625 0.21875
v 0.09375 0.15625 0.15625
v 0.09375 0.21875 0.15625
v -0.125 -0.09375 0.09375
v 0.125 -0.09375 0.09375
v 0.125 -0.09375 -0.09375
v -0.125 -0.09375 -0.09375
v 0.09375 -0.15625 -0.21875
v -0.09375 -0.15625 -0.21875
v -0.09375 0.15625 -0.21875
v 0.09375 0.15625 -0.21875
v 0.09375 0.21875 -0.15625
v 0.09375 0.15625 -0.15625
vt 0.03125 0.78125
vt 0.1875 0.78125
vt 0.1875 0.8125
vt 0.03125 0.8125
vt 0.21875 0.59375
vt 0.375 0.59375
vt 0.375 0.625
vt 0.21875 0.625
vt 0.375 0.8125
vt 0.21875 0.8125
vt 0.21875 0.78125
vt 0.375 0.78125
vt 0 0.625
vt 0.09375 0.625
vt 0.09375 0.78125
vt 0 0.78125
vt 0 0.53125
vt 0.125 0.53125
vt 0.125 0.625
vt 0 0.625
vt 0.21875 0.8125
vt 0.3125 0.8125
vt 0.3125 0.84375
vt 0.21875 0.84375
vt 0.40625 0.8125
vt 0.40625 0.84375
vt 0.3125 0.84375
vt 0.3125 0.8125
vt 0.40625 0.625
vt 0.40625 0.59375
vt 0.5 0.59375
vt 0.5 0.625
vt 0.46875 0.5
vt 0.375 0.5
vt 0.375 0.46875
vt 0.46875 0.46875
vt 0.40625 0.90625
vt 0.53125 0.90625
vt 0.53125 1
vt 0.40625 1
vt 0 0.4375
vt 0.09375 0.4375
vt 0.09375 0.53125
vt 0 0.53125
vt 0.40625 0.8125
vt 0.53125 0.8125
vt 0.53125 0.90625
vt 0.40625 0.90625
vt 0.21875 0.84375
vt 0.3125 0.84375
vt 0.3125 1
vt 0.21875 1
vt 0.125 0.5
vt 0.25 0.5
vt 0.25 0.59375
vt 0.125 0.59375
vt 0.09375 0.40625
vt 0.1875 0.40625
vt 0.1875 0.5
vt 0.09375 0.5
vt 0.1875 0.78125
vt 0.1875 0.625
vt 0.21875 0.625
vt 0.21875 0.78125
vt 0.40625 0.625
vt 0.40625 0.78125
vt 0.375 0.78125
vt 0.375 0.625
vt 0.5 0.625
vt 0.5 0.59375
vt 0.59375 0.59375
vt 0.59375 0.625
vt 0.59375 0.59375
vt 0.5 0.59375
vt 0.5 0.5625
vt 0.59375 0.5625
vt 0.5 0.53125
vt 0.59375 0.53125
vt 0.59375 0.5625
vt 0.5 0.5625
vt 0.5625 0.46875
vt 0.5625 0.5
vt 0.46875 0.5
vt 0.46875 0.46875
vt 0.09375 0.625
vt 0.1875 0.625
vt 0.1875 0.78125
vt 0.09375 0.78125
vt 0.1875 1
vt 0.03125 1
vt 0.03125 0.96875
vt 0.1875 0.96875
vt 0 0.96875
vt 0 0.8125
vt 0.03125 0.8125
vt 0.03125 0.96875
vt 0.21875 0.8125
vt 0.21875 0.96875
vt 0.1875 0.96875
vt 0.1875 0.8125
vt 0.21875 0.625
vt 0.375 0.625
vt 0.375 0.78125
vt 0.21875 0.78125
vt 0.1875 0.8125
vt 0.1875 0.96875
vt 0.03125 0.96875
vt 0.03125 0.8125
vt 0.3125 0.84375
vt 0.40625 0.84375
vt 0.40625 1
vt 0.3125 1
vn 1 0 0
vn -1 0 0
vn -1 0 0
vn 0 -1 0
vn 0 1 0
vn 0 -1 0
vn 0 0 1
vn 0 1 0
vn 0 0 1
vn 0 0 1
vn 1 0 0
vn 0 0 -1
vn 0 0 -1
vn 0 -1 0
vn -1 0 0
vn -1 0 0
vn -1 0 0
vn 0 0 -1
vn 0 1 0
vn 0 -1 0
vn 0 0 -1
vn 0 0 1
vn 1 0 0
vn 1 0 0
vn 1 0 0
vn -1 0 0
vn 1 0 0
vn 0 1 0
usemtl m_1
f 9/25/7 10/26/7 11/27/7 12/28/7
f 13/29/8 14/30/8 15/31/8 16/32/8
f 17/33/9 18/34/9 19/35/9 20/36/9
f 13/37/10 10/38/10 9/39/10 14/40/10
f 21/41/11 22/42/11 23/43/11 24/44/11
f 15/45/12 12/46/12 25/47/12 26/48/12
f 9/49/13 12/50/13 15/51/13 14/52/13
f 20/53/14 27/54/14 28/55/14 29/56/14
f 30/57/15 17/58/15 20/59/15 29/60/15
f 31/61/16 32/62/16 22/63/16 21/64/16
f 32/65/17 33/66/17 23/67/17 22/68/17
f 33/69/18 34/70/18 24/71/18 23/72/18
f 35/73/19 36/74/19 37/75/19 38/76/19
f 34/77/20 33/78/20 32/79/20 31/80/20
f 34/81/21 31/82/21 21/83/21 24/84/21
f 37/85/22 36/86/22 16/87/22 19/88/22
f 26/89/23 27/90/23 20/91/23 15/92/23
f 39/93/24 40/94/24 19/95/24 18/96/24
f 38/97/25 37/98/25 19/99/25 40/100/25
f 36/101/26 35/102/26 11/103/26 16/104/26
f 13/105/27 16/106/27 11/107/27 10/108/27
f 26/109/28 25/110/28 28/111/28 27/112/28
f 39/113/29 30/114/29 29/115/29 40/116/29
f 28/117/30 25/118/30 12/119/30 29/120/30
f 35/121/31 38/122/31 40/123/31 11/124/31
f 16/125/32 15/126/32 20/127/32 19/128/32
f 11/129/33 40/130/33 29/131/33 12/132/33
f 17/133/34 30/134/34 39/135/34 18/136/34