# Made in Blockbench 4.9.4
mtllib basicbomb_hardpoint.mtl

o basicbomb1
v 0.125 -0.09375 0.5
v 0.0625 -0.15625 0.625
v 0.0625 -0.28125 0.625
v 0.125 -0.34375 0.5
v -0.0625 -0.15625 0.625
v -0.125 -0.09375 0.5
v -0.125 -0.34375 0.5
v -0.0625 -0.28125 0.625
v -0.1250000000000001 -0.09375 -0.12500000000000022
v -0.015624999999999861 -0.203125 -0.4375
v -0.015624999999999861 -0.234375 -0.4375
v -0.1250000000000001 -0.34375 -0.12500000000000022
v 0.01562500000000014 -0.203125 -0.4375
v 0.12499999999999989 -0.09375 -0.12499999999999978
v 0.12499999999999986 -0.34375 -0.12499999999999978
v 0.01562500000000014 -0.234375 -0.4375
v 0.015625 -0.21875 -0.1875
v 0.015625 -0.21875 -0.625
v 0.015625 -0.09375 -0.625
v 0.015625 -0.09375 -0.3515625
v -0.015625 -0.21875 -0.625
v -0.015625 -0.21875 -0.1875
v -0.015625 -0.09375 -0.3515625
v -0.015625 -0.09375 -0.625
v -0.015625 -0.34375 -0.625
v 0.015625 -0.34375 -0.625
v 0.015625 -0.34375 -0.3515625
v -0.015625 -0.34375 -0.3515625
v 0 -0.234375 -0.1875
v 0 -0.234375 -0.625
v 0.125 -0.234375 -0.625
v 0.125 -0.234375 -0.3515625
v 0 -0.203125 -0.625
v 0 -0.203125 -0.1875
v 0.125 -0.203125 -0.3515625
v 0.125 -0.203125 -0.625
v -0.125 -0.203125 -0.625
v -0.125 -0.234375 -0.625
v -0.125 -0.234375 -0.3515625
v -0.125 -0.203125 -0.3515625
v 0.125 -0.34375 -0.125
v 0.125 -0.09375 -0.125
v 0.125 -0.09375 0.5
v 0.125 -0.34375 0.5
v -0.125 -0.34375 0.5
v -0.125 -0.09375 0.5
v -0.125 -0.09375 -0.125
v -0.125 -0.34375 -0.125
vt 0.03125 0.3125
vt 0.09375 0.28125
vt 0.09375 0.21875
vt 0.03125 0.1875
vt 0.03125 0.28125
vt 0.09375 0.3125
vt 0.09375 0.1875
vt 0.03125 0.21875
vt 0.09375 0.28125
vt 0.09375 0.21875
vt 0.03125 0.1875
vt 0.03125 0.3125
vt 0.03125 0.1875
vt 0.031249999999999993 0.3125
vt 0.09375 0.28125
vt 0.09375 0.21875
vt 0.15625 0.21875
vt 0.28125 0.21875
vt 0.28125 0.09375
vt 0.15625 0.09375
vt 0.09375 0.15625
vt 0.03125 0.15625
vt 0.03125 0.09375
vt 0.09375 0.09375
vt 0.5625 0.5
vt 0.75 0.4375
vt 0.75 0.4375
vt 0.5625 0.375
vt 0.75 0.4375
vt 0.5625881505126784 0.5
vt 0.5625 0.375
vt 0.75 0.4375
vt 0.75 0.4375
vt 0.75 0.4375
vt 0.5625 0.5
vt 0.5625 0.375
vt 0.5625 0.375
vt 0.5626773461368838 0.49916289408453973
vt 0.75 0.4375
vt 0.75 0.4375
vt 0.6875 0.34375
vt 0.8125 0.34375
vt 0.8125 0.21875
vt 0.6875 0.21875
vt 0.65625 0.84375
vt 0.6875 0.84375
vt 0.6875 0.8125
vt 0.65625 0.8125
vt 0.466796875 0.25
vt 0.685546875 0.25
vt 0.685546875 0.3125
vt 0.548828125 0.3125
vt 0.6875 0.25
vt 0.46875 0.25
vt 0.55078125 0.3125
vt 0.6875 0.3125
vt 0.65625 0.3125
vt 0.685546875 0.3125
vt 0.685546875 0.1875
vt 0.65625 0.1875
vt 0.65625 0.3125
vt 0.6875 0.3125
vt 0.6875 0.1875
vt 0.65625 0.1875
vt 0.09375 0.25
vt 0.0625 0.25
vt 0.0625 0.1875
vt 0.09375 0.1875
vt 0.6875 0.21875
vt 0.65625 0.21875
vt 0.65625 0.28125
vt 0.6875 0.28125
vt 0.65625 0.28125
vt 0.6875 0.28125
vt 0.6875 0.21875
vt 0.65625 0.21875
vt 0.685546875 0.25
vt 0.466796875 0.25
vt 0.548828125 0.1875
vt 0.685546875 0.1875
vt 0.0625 0.25
vt 0.09375 0.25
vt 0.09375 0.1875
vt 0.0625 0.1875
vt 0.46875 0.25
vt 0.6875 0.25
vt 0.6875 0.1875
vt 0.55078125 0.1875
vt 0.466796875 0.25
vt 0.685546875 0.25
vt 0.685546875 0.3125
vt 0.548828125 0.3125
vt 0.6875 0.25
vt 0.46875 0.25
vt 0.55078125 0.3125
vt 0.6875 0.3125
vt 0.65390625 0.31171875000000004
vt 0.68671875 0.31171875000000004
vt 0.68671875 0.19062500000000004
vt 0.65390625 0.19062500000000004
vt 0.65625 0.3125
vt 0.6875 0.3125
vt 0.6875 0.19062500000000004
vt 0.65625 0.19062500000000004
vt 0.09375 0.25
vt 0.0625 0.25
vt 0.0625 0.1875
vt 0.09375 0.1875
vt 0.6875 0.2109375
vt 0.65625 0.2109375
vt 0.65625 0.28125
vt 0.6875 0.28125
vt 0.03125 0.3125
vt 0.0625 0.3125
vt 0.0625 0.23046875
vt 0.03125 0.23046875
vt 0.685546875 0.25
vt 0.466796875 0.25
vt 0.548828125 0.1875
vt 0.685546875 0.1875
vt 0.0625 0.25
vt 0.09375 0.25
vt 0.09375 0.1875
vt 0.0625 0.1875
vt 0.46875 0.25
vt 0.6875 0.25
vt 0.6875 0.1875
vt 0.55078125 0.1875
vt 0.125 0.1875
vt 0.125 0.3125
vt 0.4375 0.3125
vt 0.4375 0.1875
vt 0.125 0.1875
vt 0.125 0.3125
vt 0.4375 0.3125
vt 0.4375 0.1875
vt 0.4375 0.1875
vt 0.125 0.1875
vt 0.125 0.3125
vt 0.4375 0.3125
vt 0.125 0.1875
vt 0.4375 0.1875
vt 0.4375 0.3125
vt 0.125 0.3125
vt 0.3125 0.125
vt 0.3125 0.25
vt 0.4375 0.25
vt 0.4375 0.125
vt 0 0.09375
vt 0 0.21875
vt 0.125 0.21875
vt 0.125 0.09375
vn 0.8944271909999161 0 0.44721359549995804
vn -0.8944271909999161 0 0.44721359549995804
vn 0 0.8944271909999161 0.44721359549995804
vn 0 -0.8944271909999161 0.44721359549995804
vn 0 0 -1
vn 0 0 1
vn -0.9438583563660172 0 -0.3303504247281067
vn 0.9438583563660178 -8.383146233779266e-17 -0.33035042472810516
vn 0 0.9438583563660173 -0.33035042472810633
vn 5.868202363645491e-16 -0.9438583563660176 -0.33035042472810616
vn -1.7763568394002505e-15 0 1
vn 0 0 -1
vn 1 0 0
vn -1 0 0
vn 0 1 0
vn 0 -1 0
vn 0 0 -1
vn 0 0.7954317200324987 0.6060432152628562
vn 0 -0.7954317200324987 0.6060432152628562
vn 1 0 0
vn 0 0 -1
vn -1 0 0
vn 0 -1 0
vn 0 1 0
vn 1 0 0
vn -1 0 0
vn 0 0 -1
vn 0.7954317200324987 0 0.6060432152628562
vn -0.7954317200324987 0 0.6060432152628562
vn 0 -1 0
vn 0 0 -1
vn 0 1 0
vn 1 0 0
vn -1 0 0
vn 0 1 0
vn 0 -1 0
vn 0 0 1
vn 0 0 -1
usemtl none
f 1/1/1 2/2/1 3/3/1 4/4/1
f 5/5/2 6/6/2 7/7/2 8/8/2
f 5/9/3 2/10/3 1/11/3 6/12/3
f 7/13/4 4/14/4 3/15/4 8/16/4
f 6/17/5 1/18/5 4/19/5 7/20/5
f 2/21/6 5/22/6 8/23/6 3/24/6
f 9/25/7 10/26/7 11/27/7 12/28/7
f 13/29/8 14/30/8 15/31/8 16/32/8
f 13/33/9 10/34/9 9/35/9 14/36/9
f 15/37/10 12/38/10 11/39/10 16/40/10
f 14/41/11 9/42/11 12/43/11 15/44/11
f 10/45/12 13/46/12 16/47/12 11/48/12
f 17/49/13 18/50/13 19/51/13 20/52/13
f 21/53/14 22/54/14 23/55/14 24/56/14
f 23/57/15 20/58/15 19/59/15 24/60/15
f 25/61/16 26/62/16 27/63/16 28/64/16
f 18/65/17 21/66/17 24/67/17 19/68/17
f 22/69/18 17/70/18 20/71/18 23/72/18
f 17/73/19 22/74/19 28/75/19 27/76/19
f 18/77/20 17/78/20 27/79/20 26/80/20
f 21/81/21 18/82/21 26/83/21 25/84/21
f 22/85/22 21/86/22 25/87/22 28/88/22
f 29/89/23 30/90/23 31/91/23 32/92/23
f 33/93/24 34/94/24 35/95/24 36/96/24
f 35/97/25 32/98/25 31/99/25 36/100/25
f 37/101/26 38/102/26 39/103/26 40/104/26
f 30/105/27 33/106/27 36/107/27 31/108/27
f 34/109/28 29/110/28 32/111/28 35/112/28
f 29/113/29 34/114/29 40/115/29 39/116/29
f 30/117/30 29/118/30 39/119/30 38/120/30
f 33/121/31 30/122/31 38/123/31 37/124/31
f 34/125/32 33/126/32 37/127/32 40/128/32
f 41/129/33 42/130/33 43/131/33 44/132/33
f 45/133/34 46/134/34 47/135/34 48/136/34
f 43/137/35 42/138/35 47/139/35 46/140/35
f 41/141/36 44/142/36 45/143/36 48/144/36
f 44/145/37 43/146/37 46/147/37 45/148/37
f 48/149/38 47/150/38 42/151/38 41/152/38
o cube
v 0.0625 -0.0625 -0.375
v -0.0625 -0.0625 -0.375
v -0.0625 0 -0.375
v 0.0625 0 -0.375
v 0.0625 -0.0625 0.625
v 0.0625 0 0.625
v -0.0625 -0.0625 0.625
v -0.0625 0 0.625
v -0.15625 -0.125 0.28125
v -0.15625 -0.125 0.40625
v -0.15625 -0.0625 0.40625
v -0.15625 -0.0625 0.28125
v 0.15625 -0.125 0.28125
v 0.15625 -0.0625 0.28125
v 0.15625 -0.125 0.40625
v 0.15625 -0.0625 0.40625
v -0.15625 -0.125 -0.03125
v -0.15625 -0.125 0.09375
v -0.15625 -0.0625 0.09375
v -0.15625 -0.0625 -0.03125
v 0.15625 -0.125 -0.031249999999999944
v 0.15625 -0.0625 -0.031249999999999944
v 0.15625 -0.125 0.09375
v 0.15625 -0.0625 0.09375
v 0.06250000000000011 -0.125 0.09375
v -0.06249999999999989 -0.125 0.09375
v -0.06249999999999989 -0.0625 0.09375
v 0.06250000000000011 -0.0625 0.09375
v 0.06250000000000011 -0.125 0.28125
v 0.06250000000000011 -0.0625 0.28125
v -0.06249999999999989 -0.125 0.28125
v -0.06249999999999989 -0.0625 0.28125
vt 0.375 0.46875
vt 0.4375 0.46875
vt 0.4375 0.5
vt 0.375 0.5
vt 0.1875 0.96875
vt 0.6875 0.96875
vt 0.6875 1
vt 0.1875 1
vt 0.46875 0.46875
vt 0.53125 0.46875
vt 0.53125 0.5
vt 0.46875 0.5
vt 0.1875 0.90625
vt 0.6875 0.90625
vt 0.6875 0.9375
vt 0.1875 0.9375
vt 0.0625 1
vt 0 1
vt 0 0.5
vt 0.0625 0.5
vt 0.15625 0.5
vt 0.09375 0.5
vt 0.09375 1
vt 0.15625 1
vt 0 0.4375
vt 0.0625 0.4375
vt 0.0625 0.46875
vt 0 0.46875
vt 0.46875 0.84375
vt 0.625 0.84375
vt 0.625 0.875
vt 0.46875 0.875
vt 0.09375 0.4375
vt 0.15625 0.4375
vt 0.15625 0.46875
vt 0.09375 0.46875
vt 0.46875 0.78125
vt 0.625 0.78125
vt 0.625 0.8125
vt 0.46875 0.8125
vt 0.25 0.6875
vt 0.1875 0.6875
vt 0.1875 0.53125
vt 0.25 0.53125
vt 0.34375 0.53125
vt 0.28125 0.53125
vt 0.28125 0.6875
vt 0.34375 0.6875
vt 0.1875 0.46875
vt 0.25 0.46875
vt 0.25 0.5
vt 0.1875 0.5
vt 0.375 0.59375
vt 0.53125 0.59375
vt 0.53125 0.625
vt 0.375 0.625
vt 0.28125 0.46875
vt 0.34375 0.46875
vt 0.34375 0.5
vt 0.28125 0.5
vt 0.375 0.53125
vt 0.53125 0.53125
vt 0.53125 0.5625
vt 0.375 0.5625
vt 0.25 0.875
vt 0.1875 0.875
vt 0.1875 0.71875
vt 0.25 0.71875
vt 0.34375 0.71875
vt 0.28125 0.71875
vt 0.28125 0.875
vt 0.34375 0.875
vt 0.1875 0.40625
vt 0.25 0.40625
vt 0.25 0.4375
vt 0.1875 0.4375
vt 0.46875 0.71875
vt 0.5625 0.71875
vt 0.5625 0.75
vt 0.46875 0.75
vt 0.28125 0.40625
vt 0.34375 0.40625
vt 0.34375 0.4375
vt 0.28125 0.4375
vt 0.46875 0.65625
vt 0.5625 0.65625
vt 0.5625 0.6875
vt 0.46875 0.6875
vt 0.4375 0.875
vt 0.375 0.875
vt 0.375 0.78125
vt 0.4375 0.78125
vt 0.4375 0.65625
vt 0.375 0.65625
vt 0.375 0.75
vt 0.4375 0.75
vn 0 0 -1
vn 1 0 0
vn 0 0 1
vn -1 0 0
vn 0 1 0
vn 0 -1 0
vn -1 0 0
vn 0 0 -1
vn 1 0 0
vn 0 0 1
vn 0 1 0
vn 0 -1 0
vn -1 0 0
vn 1.7763568394002506e-16 0 -1
vn 1 0 0
vn 0 0 1
vn 0 1 0
vn 0 -1 0
vn 0 0 -1
vn 1 0 0
vn 0 0 1
vn -1 0 0
vn 0 1 0
vn 0 -1 0
usemtl none
f 49/153/39 50/154/39 51/155/39 52/156/39
f 53/157/40 49/158/40 52/159/40 54/160/40
f 55/161/41 53/162/41 54/163/41 56/164/41
f 50/165/42 55/166/42 56/167/42 51/168/42
f 56/169/43 54/170/43 52/171/43 51/172/43
f 50/173/44 49/174/44 53/175/44 55/176/44
f 57/177/45 58/178/45 59/179/45 60/180/45
f 61/181/46 57/182/46 60/183/46 62/184/46
f 63/185/47 61/186/47 62/187/47 64/188/47
f 58/189/48 63/190/48 64/191/48 59/192/48
f 64/193/49 62/194/49 60/195/49 59/196/49
f 58/197/50 57/198/50 61/199/50 63/200/50
f 65/201/51 66/202/51 67/203/51 68/204/51
f 69/205/52 65/206/52 68/207/52 70/208/52
f 71/209/53 69/210/53 70/211/53 72/212/53
f 66/213/54 71/214/54 72/215/54 67/216/54
f 72/217/55 70/218/55 68/219/55 67/220/55
f 66/221/56 65/222/56 69/223/56 71/224/56
f 73/225/57 74/226/57 75/227/57 76/228/57
f 77/229/58 73/230/58 76/231/58 78/232/58
f 79/233/59 77/234/59 78/235/59 80/236/59
f 74/237/60 79/238/60 80/239/60 75/240/60
f 80/241/61 78/242/61 76/243/61 75/244/61
f 74/245/62 73/246/62 77/247/62 79/248/62