# Blender v2.79 (sub 0) OBJ File: ''
# www.blender.org
mtllib brigbedflat.mtl
o ObjObject
v -1.312501 0.312500 -2.255071
v -1.312500 0.312500 1.994929
v 1.312500 0.312500 1.994929
v 1.312499 0.312500 -2.255071
v 1.312499 0.187500 -2.255071
v 1.312500 0.187500 1.994929
v -1.312500 0.187500 1.994929
v -1.312501 0.187500 -2.255071
v -1.250000 0.187500 1.869929
v -1.250000 0.187500 1.932429
v 1.250000 0.187500 1.932429
v 1.250000 0.187500 1.869929
v 1.250000 0.000000 1.869929
v 1.250000 -0.000000 1.932429
v -1.250000 -0.000000 1.932429
v -1.250000 -0.000000 1.869929
v -1.250000 0.187500 -2.192571
v -1.250000 0.187500 -2.130071
v 1.250000 0.187500 -2.130071
v 1.250000 0.187500 -2.192571
v 1.250000 0.000000 -2.192571
v 1.250000 0.000000 -2.130071
v -1.250000 0.000000 -2.130071
v -1.250000 0.000000 -2.192571
v -1.250000 0.937500 1.869929
v -1.250000 0.937500 1.932429
v 1.250000 0.937500 1.932429
v 1.250000 0.937500 1.869929
v 1.250000 0.312500 1.869929
v 1.250000 0.312500 1.932429
v -1.250000 0.312500 1.932429
v -1.250000 0.312500 1.869929
v -1.250000 1.562500 1.869929
v -1.250000 1.562500 1.932429
v -1.187500 1.562500 1.932429
v -1.187500 1.562500 1.869929
v -1.187500 0.937500 1.869929
v -1.187500 0.937500 1.932429
v -1.250000 0.937500 1.932429
v -1.250000 0.937500 1.869929
v 1.187500 1.562500 1.869929
v 1.187500 1.562500 1.932429
v 1.250000 1.562500 1.932429
v 1.250000 1.562500 1.869929
v 1.250000 0.937500 1.869929
v 1.250000 0.937500 1.932429
v 1.187500 0.937500 1.932429
v 1.187500 0.937500 1.869929
v 0.687500 1.562500 1.869929
v 0.687500 1.562500 1.932429
v 0.750000 1.562500 1.932429
v 0.750000 1.562500 1.869929
v 0.750000 0.937500 1.869929
v 0.750000 0.937500 1.932429
v 0.687500 0.937500 1.932429
v 0.687500 0.937500 1.869929
v -0.750000 1.562500 1.869929
v -0.750000 1.562500 1.932429
v -0.687500 1.562500 1.932429
v -0.687500 1.562500 1.869929
v -0.687500 0.937500 1.869929
v -0.687500 0.937500 1.932429
v -0.750000 0.937500 1.932429
v -0.750000 0.937500 1.869929
v -0.250000 1.562500 1.869929
v -0.250000 1.562500 1.932429
v -0.187500 1.562500 1.932429
v -0.187500 1.562500 1.869929
v -0.187500 0.937500 1.869929
v -0.187500 0.937500 1.932429
v -0.250000 0.937500 1.932429
v -0.250000 0.937500 1.869929
v 0.187500 1.562500 1.869929
v 0.187500 1.562500 1.932429
v 0.250000 1.562500 1.932429
v 0.250000 1.562500 1.869929
v 0.250000 0.937500 1.869929
v 0.250000 0.937500 1.932429
v 0.187500 0.937500 1.932429
v 0.187500 0.937500 1.869929
v -1.187500 1.625000 1.869929
v -1.187500 1.625000 1.932429
v 1.187500 1.625000 1.932429
v 1.187500 1.625000 1.869929
v 1.250000 1.562500 1.869929
v 1.250000 1.562500 1.932429
v -1.250000 1.562500 1.932429
v -1.250000 1.562500 1.869929
vt 1.167969 0.832031
vt 1.433594 0.832031
vt 1.433594 0.996094
vt 1.167969 0.996094
vt 1.433594 0.832031
vt 1.699219 0.832031
vt 1.699219 0.996094
vt 1.433594 0.996094
vt 1.167969 0.824219
vt 1.433594 0.824219
vt 1.863281 0.832031
vt 1.597656 0.832031
vt 1.597656 0.824219
vt 1.863281 0.824219
vt 1.003906 0.832031
vt 1.003906 0.824219
vt 1.160156 0.652344
vt 1.164062 0.652344
vt 1.164062 0.808594
vt 1.160156 0.808594
vt 1.164062 0.652344
vt 1.167969 0.652344
vt 1.167969 0.808594
vt 1.164062 0.808594
vt 1.160156 0.640625
vt 1.164062 0.640625
vt 1.324219 0.652344
vt 1.320312 0.652344
vt 1.320312 0.640625
vt 1.324219 0.640625
vt 1.003906 0.652344
vt 1.003906 0.640625
vt 1.503906 0.652344
vt 1.507812 0.652344
vt 1.507812 0.808594
vt 1.503906 0.808594
vt 1.507812 0.652344
vt 1.511719 0.652344
vt 1.511719 0.808594
vt 1.507812 0.808594
vt 1.503906 0.640625
vt 1.507812 0.640625
vt 1.667969 0.652344
vt 1.664062 0.652344
vt 1.664062 0.640625
vt 1.667969 0.640625
vt 1.347656 0.652344
vt 1.347656 0.640625
vt 1.691406 0.621094
vt 1.695312 0.621094
vt 1.695312 0.777344
vt 1.691406 0.777344
vt 1.695312 0.621094
vt 1.699219 0.621094
vt 1.699219 0.777344
vt 1.695312 0.777344
vt 1.691406 0.582031
vt 1.695312 0.582031
vt 1.855469 0.621094
vt 1.851562 0.621094
vt 1.851562 0.582031
vt 1.855469 0.582031
vt 1.535156 0.621094
vt 1.535156 0.582031
vt 1.007812 0.992188
vt 1.011719 0.992188
vt 1.011719 0.996094
vt 1.007812 0.996094
vt 1.011719 0.992188
vt 1.015625 0.992188
vt 1.015625 0.996094
vt 1.011719 0.996094
vt 1.007812 0.953125
vt 1.011719 0.953125
vt 1.019531 0.992188
vt 1.015625 0.992188
vt 1.015625 0.953125
vt 1.019531 0.953125
vt 1.003906 0.992188
vt 1.003906 0.953125
vt 1.039062 0.992188
vt 1.042969 0.992188
vt 1.042969 0.996094
vt 1.039062 0.996094
vt 1.042969 0.992188
vt 1.046875 0.992188
vt 1.046875 0.996094
vt 1.042969 0.996094
vt 1.039062 0.953125
vt 1.042969 0.953125
vt 1.050781 0.992188
vt 1.046875 0.992188
vt 1.046875 0.953125
vt 1.050781 0.953125
vt 1.035156 0.992188
vt 1.035156 0.953125
vt 1.070312 0.992188
vt 1.074219 0.992188
vt 1.074219 0.996094
vt 1.070312 0.996094
vt 1.074219 0.992188
vt 1.078125 0.992188
vt 1.078125 0.996094
vt 1.074219 0.996094
vt 1.070312 0.953125
vt 1.074219 0.953125
vt 1.082031 0.992188
vt 1.078125 0.992188
vt 1.078125 0.953125
vt 1.082031 0.953125
vt 1.066406 0.992188
vt 1.066406 0.953125
vt 1.101562 0.992188
vt 1.105469 0.992188
vt 1.105469 0.996094
vt 1.101562 0.996094
vt 1.105469 0.992188
vt 1.109375 0.992188
vt 1.109375 0.996094
vt 1.105469 0.996094
vt 1.101562 0.953125
vt 1.105469 0.953125
vt 1.113281 0.992188
vt 1.109375 0.992188
vt 1.109375 0.953125
vt 1.113281 0.953125
vt 1.097656 0.992188
vt 1.097656 0.953125
vt 1.132812 0.992188
vt 1.136719 0.992188
vt 1.136719 0.996094
vt 1.132812 0.996094
vt 1.136719 0.992188
vt 1.140625 0.992188
vt 1.140625 0.996094
vt 1.136719 0.996094
vt 1.132812 0.953125
vt 1.136719 0.953125
vt 1.144531 0.992188
vt 1.140625 0.992188
vt 1.140625 0.953125
vt 1.144531 0.953125
vt 1.128906 0.992188
vt 1.128906 0.953125
vt 1.726562 0.992188
vt 1.730469 0.992188
vt 1.730469 0.996094
vt 1.726562 0.996094
vt 1.730469 0.992188
vt 1.734375 0.992188
vt 1.734375 0.996094
vt 1.730469 0.996094
vt 1.726562 0.953125
vt 1.730469 0.953125
vt 1.738281 0.992188
vt 1.734375 0.992188
vt 1.734375 0.953125
vt 1.738281 0.953125
vt 1.722656 0.992188
vt 1.722656 0.953125
vt 1.160156 0.464844
vt 1.164062 0.464844
vt 1.164062 0.621094
vt 1.160156 0.621094
vt 1.164062 0.464844
vt 1.167969 0.464844
vt 1.167969 0.621094
vt 1.164062 0.621094
vt 1.160156 0.460938
vt 1.164062 0.460938
vt 1.324219 0.464844
vt 1.320312 0.464844
vt 1.320312 0.460938
vt 1.324219 0.460938
vt 1.003906 0.464844
vt 1.003906 0.460938
vn 0.0000 1.0000 0.0000
vn 0.0000 -1.0000 -0.0000
vn -1.0000 0.0000 0.0000
vn 1.0000 0.0000 -0.0000
vn 0.0000 0.0000 1.0000
vn 0.0000 0.0000 -1.0000
vn -0.7071 0.7071 0.0000
vn 0.7071 0.7071 0.0000
usemtl ModelMaterial.001
s 1
f 1/1/1 2/2/1 3/3/1 4/4/1
f 5/5/2 6/6/2 7/7/2 8/8/2
f 2/2/3 1/1/3 8/9/3 7/10/3
f 4/11/4 3/12/4 6/13/4 5/14/4
f 3/12/5 2/2/5 7/10/5 6/13/5
f 1/1/6 4/15/6 5/16/6 8/9/6
f 9/17/1 10/18/1 11/19/1 12/20/1
f 13/21/2 14/22/2 15/23/2 16/24/2
f 10/18/3 9/17/3 16/25/3 15/26/3
f 12/27/4 11/28/4 14/29/4 13/30/4
f 11/28/5 10/18/5 15/26/5 14/29/5
f 9/17/6 12/31/6 13/32/6 16/25/6
f 17/33/1 18/34/1 19/35/1 20/36/1
f 21/37/2 22/38/2 23/39/2 24/40/2
f 18/34/3 17/33/3 24/41/3 23/42/3
f 20/43/4 19/44/4 22/45/4 21/46/4
f 19/44/5 18/34/5 23/42/5 22/45/5
f 17/33/6 20/47/6 21/48/6 24/41/6
f 25/49/1 26/50/1 27/51/1 28/52/1
f 29/53/2 30/54/2 31/55/2 32/56/2
f 26/50/3 25/49/3 32/57/3 31/58/3
f 28/59/4 27/60/4 30/61/4 29/62/4
f 27/60/5 26/50/5 31/58/5 30/61/5
f 25/49/6 28/63/6 29/64/6 32/57/6
f 33/65/1 34/66/1 35/67/1 36/68/1
f 37/69/2 38/70/2 39/71/2 40/72/2
f 34/66/3 33/65/3 40/73/3 39/74/3
f 36/75/4 35/76/4 38/77/4 37/78/4
f 35/76/5 34/66/5 39/74/5 38/77/5
f 33/65/6 36/79/6 37/80/6 40/73/6
f 41/81/1 42/82/1 43/83/1 44/84/1
f 45/85/2 46/86/2 47/87/2 48/88/2
f 42/82/3 41/81/3 48/89/3 47/90/3
f 44/91/4 43/92/4 46/93/4 45/94/4
f 43/92/5 42/82/5 47/90/5 46/93/5
f 41/81/6 44/95/6 45/96/6 48/89/6
f 49/97/1 50/98/1 51/99/1 52/100/1
f 53/101/2 54/102/2 55/103/2 56/104/2
f 50/98/3 49/97/3 56/105/3 55/106/3
f 52/107/4 51/108/4 54/109/4 53/110/4
f 51/108/5 50/98/5 55/106/5 54/109/5
f 49/97/6 52/111/6 53/112/6 56/105/6
f 57/113/1 58/114/1 59/115/1 60/116/1
f 61/117/2 62/118/2 63/119/2 64/120/2
f 58/114/3 57/113/3 64/121/3 63/122/3
f 60/123/4 59/124/4 62/125/4 61/126/4
f 59/124/5 58/114/5 63/122/5 62/125/5
f 57/113/6 60/127/6 61/128/6 64/121/6
f 65/129/1 66/130/1 67/131/1 68/132/1
f 69/133/2 70/134/2 71/135/2 72/136/2
f 66/130/3 65/129/3 72/137/3 71/138/3
f 68/139/4 67/140/4 70/141/4 69/142/4
f 67/140/5 66/130/5 71/138/5 70/141/5
f 65/129/6 68/143/6 69/144/6 72/137/6
f 73/145/1 74/146/1 75/147/1 76/148/1
f 77/149/2 78/150/2 79/151/2 80/152/2
f 74/146/3 73/145/3 80/153/3 79/154/3
f 76/155/4 75/156/4 78/157/4 77/158/4
f 75/156/5 74/146/5 79/154/5 78/157/5
f 73/145/6 76/159/6 77/160/6 80/153/6
f 81/161/1 82/162/1 83/163/1 84/164/1
f 85/165/2 86/166/2 87/167/2 88/168/2
f 82/162/7 81/161/7 88/169/7 87/170/7
f 84/171/8 83/172/8 86/173/8 85/174/8
f 83/172/5 82/162/5 87/170/5 86/173/5
f 81/161/6 84/175/6 85/176/6 88/169/6
