# Blender v2.79 (sub 0) OBJ File: ''
# www.blender.org
mtllib brigbedstake.mtl
o ObjObject.001
v -1.312501 0.312500 -2.255075
v -1.312500 0.312500 1.994925
v 1.312500 0.312500 1.994925
v 1.312499 0.312500 -2.255075
v 1.312499 0.187500 -2.255075
v 1.312500 0.187500 1.994925
v -1.312500 0.187500 1.994925
v -1.312501 0.187500 -2.255075
v -1.250000 0.187500 1.869925
v -1.250000 0.187500 1.932425
v 1.250000 0.187500 1.932425
v 1.250000 0.187500 1.869925
v 1.250000 0.000000 1.869925
v 1.250000 -0.000000 1.932425
v -1.250000 -0.000000 1.932425
v -1.250000 -0.000000 1.869925
v -1.250000 0.187500 -2.192575
v -1.250000 0.187500 -2.130075
v 1.250000 0.187500 -2.130075
v 1.250000 0.187500 -2.192575
v 1.250000 0.000000 -2.192575
v 1.250000 0.000000 -2.130075
v -1.250000 0.000000 -2.130075
v -1.250000 0.000000 -2.192575
v -1.250000 0.937500 1.869925
v -1.250000 0.937500 1.932425
v 1.250000 0.937500 1.932425
v 1.250000 0.937500 1.869925
v 1.250000 0.312500 1.869925
v 1.250000 0.312500 1.932425
v -1.250000 0.312500 1.932425
v -1.250000 0.312500 1.869925
v -1.250000 1.562500 1.869925
v -1.250000 1.562500 1.932425
v -1.187500 1.562500 1.932425
v -1.187500 1.562500 1.869925
v -1.187500 0.937500 1.869925
v -1.187500 0.937500 1.932425
v -1.250000 0.937500 1.932425
v -1.250000 0.937500 1.869925
v 1.187500 1.562500 1.869925
v 1.187500 1.562500 1.932425
v 1.250000 1.562500 1.932425
v 1.250000 1.562500 1.869925
v 1.250000 0.937500 1.869925
v 1.250000 0.937500 1.932425
v 1.187500 0.937500 1.932425
v 1.187500 0.937500 1.869925
v 0.687500 1.562500 1.869925
v 0.687500 1.562500 1.932425
v 0.750000 1.562500 1.932425
v 0.750000 1.562500 1.869925
v 0.750000 0.937500 1.869925
v 0.750000 0.937500 1.932425
v 0.687500 0.937500 1.932425
v 0.687500 0.937500 1.869925
v -0.750000 1.562500 1.869925
v -0.750000 1.562500 1.932425
v -0.687500 1.562500 1.932425
v -0.687500 1.562500 1.869925
v -0.687500 0.937500 1.869925
v -0.687500 0.937500 1.932425
v -0.750000 0.937500 1.932425
v -0.750000 0.937500 1.869925
v -0.250000 1.562500 1.869925
v -0.250000 1.562500 1.932425
v -0.187500 1.562500 1.932425
v -0.187500 1.562500 1.869925
v -0.187500 0.937500 1.869925
v -0.187500 0.937500 1.932425
v -0.250000 0.937500 1.932425
v -0.250000 0.937500 1.869925
v 0.187500 1.562500 1.869925
v 0.187500 1.562500 1.932425
v 0.250000 1.562500 1.932425
v 0.250000 1.562500 1.869925
v 0.250000 0.937500 1.869925
v 0.250000 0.937500 1.932425
v 0.187500 0.937500 1.932425
v 0.187500 0.937500 1.869925
v -1.187500 1.625000 1.869925
v -1.187500 1.625000 1.932425
v 1.187500 1.625000 1.932425
v 1.187500 1.625000 1.869925
v 1.250000 1.562500 1.869925
v 1.250000 1.562500 1.932425
v -1.250000 1.562500 1.932425
v -1.250000 1.562500 1.869925
v 1.187499 1.312500 -2.192575
v 1.187499 1.312500 -2.130075
v 1.249999 1.312500 -2.130075
v 1.249999 1.312500 -2.192575
v 1.249999 0.312500 -2.192575
v 1.249999 0.312500 -2.130075
v 1.187499 0.312500 -2.130075
v 1.187499 0.312500 -2.192575
v -1.250001 1.312500 -2.192575
v -1.250001 1.312500 -2.130075
v -1.187501 1.312500 -2.130075
v -1.187501 1.312500 -2.192575
v -1.187501 0.312500 -2.192575
v -1.187501 0.312500 -2.130075
v -1.250001 0.312500 -2.130075
v -1.250001 0.312500 -2.192575
v -1.312501 1.312500 -2.255075
v -1.312500 1.312500 1.994925
v -1.250000 1.312500 1.994925
v -1.250001 1.312500 -2.255075
v -1.250001 1.125000 -2.255075
v -1.250000 1.125000 1.994925
v -1.312500 1.125000 1.994925
v -1.312501 1.125000 -2.255075
v -1.312501 1.062500 -2.255075
v -1.312500 1.062500 1.994925
v -1.250000 1.062500 1.994925
v -1.250001 1.062500 -2.255075
v -1.250001 0.875000 -2.255075
v -1.250000 0.875000 1.994925
v -1.312500 0.875000 1.994925
v -1.312501 0.875000 -2.255075
v -1.312501 0.812500 -2.255075
v -1.312500 0.812500 1.994925
v -1.250000 0.812500 1.994925
v -1.250001 0.812500 -2.255075
v -1.250001 0.625000 -2.255075
v -1.250000 0.625000 1.994925
v -1.312500 0.625000 1.994925
v -1.312501 0.625000 -2.255075
v -1.312501 0.562500 -2.255075
v -1.312500 0.562500 1.994925
v -1.250000 0.562500 1.994925
v -1.250001 0.562500 -2.255075
v -1.250001 0.375000 -2.255075
v -1.250000 0.375000 1.994925
v -1.312500 0.375000 1.994925
v -1.312501 0.375000 -2.255075
v -1.250001 1.312500 -0.067575
v -1.250001 1.312500 -0.005075
v -1.187501 1.312500 -0.005075
v -1.187501 1.312500 -0.067575
v -1.187500 0.312500 -0.067575
v -1.187500 0.312500 -0.005075
v -1.250000 0.312500 -0.005075
v -1.250000 0.312500 -0.067575
v 1.187499 1.312500 -0.067575
v 1.187499 1.312500 -0.005075
v 1.249999 1.312500 -0.005075
v 1.249999 1.312500 -0.067575
v 1.250000 0.312500 -0.067575
v 1.250000 0.312500 -0.005075
v 1.187500 0.312500 -0.005075
v 1.187500 0.312500 -0.067575
v 1.249999 0.562500 -2.255075
v 1.250000 0.562500 1.994925
v 1.312500 0.562500 1.994925
v 1.312499 0.562500 -2.255075
v 1.312499 0.375000 -2.255075
v 1.312500 0.375000 1.994925
v 1.250000 0.375000 1.994925
v 1.249999 0.375000 -2.255075
v 1.249999 0.812500 -2.255075
v 1.250000 0.812500 1.994925
v 1.312500 0.812500 1.994925
v 1.312499 0.812500 -2.255075
v 1.312499 0.625000 -2.255075
v 1.312500 0.625000 1.994925
v 1.250000 0.625000 1.994925
v 1.249999 0.625000 -2.255075
v 1.249999 1.062500 -2.255075
v 1.250000 1.062500 1.994925
v 1.312500 1.062500 1.994925
v 1.312499 1.062500 -2.255075
v 1.312499 0.875000 -2.255075
v 1.312500 0.875000 1.994925
v 1.250000 0.875000 1.994925
v 1.249999 0.875000 -2.255075
v 1.249999 1.312500 -2.255075
v 1.250000 1.312500 1.994925
v 1.312500 1.312500 1.994925
v 1.312499 1.312500 -2.255075
v 1.312499 1.125000 -2.255075
v 1.312500 1.125000 1.994925
v 1.250000 1.125000 1.994925
v 1.249999 1.125000 -2.255075
vt 1.167969 0.832031
vt 1.433594 0.832031
vt 1.433594 0.996094
vt 1.167969 0.996094
vt 1.433594 0.832031
vt 1.699219 0.832031
vt 1.699219 0.996094
vt 1.433594 0.996094
vt 1.167969 0.824219
vt 1.433594 0.824219
vt 1.863281 0.832031
vt 1.597656 0.832031
vt 1.597656 0.824219
vt 1.863281 0.824219
vt 1.003906 0.832031
vt 1.003906 0.824219
vt 1.160156 0.652344
vt 1.164062 0.652344
vt 1.164062 0.808594
vt 1.160156 0.808594
vt 1.164062 0.652344
vt 1.167969 0.652344
vt 1.167969 0.808594
vt 1.164062 0.808594
vt 1.160156 0.640625
vt 1.164062 0.640625
vt 1.324219 0.652344
vt 1.320312 0.652344
vt 1.320312 0.640625
vt 1.324219 0.640625
vt 1.003906 0.652344
vt 1.003906 0.640625
vt 1.503906 0.652344
vt 1.507812 0.652344
vt 1.507812 0.808594
vt 1.503906 0.808594
vt 1.507812 0.652344
vt 1.511719 0.652344
vt 1.511719 0.808594
vt 1.507812 0.808594
vt 1.503906 0.640625
vt 1.507812 0.640625
vt 1.667969 0.652344
vt 1.664062 0.652344
vt 1.664062 0.640625
vt 1.667969 0.640625
vt 1.347656 0.652344
vt 1.347656 0.640625
vt 1.691406 0.621094
vt 1.695312 0.621094
vt 1.695312 0.777344
vt 1.691406 0.777344
vt 1.695312 0.621094
vt 1.699219 0.621094
vt 1.699219 0.777344
vt 1.695312 0.777344
vt 1.691406 0.582031
vt 1.695312 0.582031
vt 1.855469 0.621094
vt 1.851562 0.621094
vt 1.851562 0.582031
vt 1.855469 0.582031
vt 1.535156 0.621094
vt 1.535156 0.582031
vt 1.007812 0.992188
vt 1.011719 0.992188
vt 1.011719 0.996094
vt 1.007812 0.996094
vt 1.011719 0.992188
vt 1.015625 0.992188
vt 1.015625 0.996094
vt 1.011719 0.996094
vt 1.007812 0.953125
vt 1.011719 0.953125
vt 1.019531 0.992188
vt 1.015625 0.992188
vt 1.015625 0.953125
vt 1.019531 0.953125
vt 1.003906 0.992188
vt 1.003906 0.953125
vt 1.039062 0.992188
vt 1.042969 0.992188
vt 1.042969 0.996094
vt 1.039062 0.996094
vt 1.042969 0.992188
vt 1.046875 0.992188
vt 1.046875 0.996094
vt 1.042969 0.996094
vt 1.039062 0.953125
vt 1.042969 0.953125
vt 1.050781 0.992188
vt 1.046875 0.992188
vt 1.046875 0.953125
vt 1.050781 0.953125
vt 1.035156 0.992188
vt 1.035156 0.953125
vt 1.070312 0.992188
vt 1.074219 0.992188
vt 1.074219 0.996094
vt 1.070312 0.996094
vt 1.074219 0.992188
vt 1.078125 0.992188
vt 1.078125 0.996094
vt 1.074219 0.996094
vt 1.070312 0.953125
vt 1.074219 0.953125
vt 1.082031 0.992188
vt 1.078125 0.992188
vt 1.078125 0.953125
vt 1.082031 0.953125
vt 1.066406 0.992188
vt 1.066406 0.953125
vt 1.101562 0.992188
vt 1.105469 0.992188
vt 1.105469 0.996094
vt 1.101562 0.996094
vt 1.105469 0.992188
vt 1.109375 0.992188
vt 1.109375 0.996094
vt 1.105469 0.996094
vt 1.101562 0.953125
vt 1.105469 0.953125
vt 1.113281 0.992188
vt 1.109375 0.992188
vt 1.109375 0.953125
vt 1.113281 0.953125
vt 1.097656 0.992188
vt 1.097656 0.953125
vt 1.132812 0.992188
vt 1.136719 0.992188
vt 1.136719 0.996094
vt 1.132812 0.996094
vt 1.136719 0.992188
vt 1.140625 0.992188
vt 1.140625 0.996094
vt 1.136719 0.996094
vt 1.132812 0.953125
vt 1.136719 0.953125
vt 1.144531 0.992188
vt 1.140625 0.992188
vt 1.140625 0.953125
vt 1.144531 0.953125
vt 1.128906 0.992188
vt 1.128906 0.953125
vt 1.726562 0.992188
vt 1.730469 0.992188
vt 1.730469 0.996094
vt 1.726562 0.996094
vt 1.730469 0.992188
vt 1.734375 0.992188
vt 1.734375 0.996094
vt 1.730469 0.996094
vt 1.726562 0.953125
vt 1.730469 0.953125
vt 1.738281 0.992188
vt 1.734375 0.992188
vt 1.734375 0.953125
vt 1.738281 0.953125
vt 1.722656 0.992188
vt 1.722656 0.953125
vt 1.160156 0.464844
vt 1.164062 0.464844
vt 1.164062 0.621094
vt 1.160156 0.621094
vt 1.164062 0.464844
vt 1.167969 0.464844
vt 1.167969 0.621094
vt 1.164062 0.621094
vt 1.160156 0.460938
vt 1.164062 0.460938
vt 1.324219 0.464844
vt 1.320312 0.464844
vt 1.320312 0.460938
vt 1.324219 0.460938
vt 1.003906 0.464844
vt 1.003906 0.460938
vt 1.757812 0.992188
vt 1.761719 0.992188
vt 1.761719 0.996094
vt 1.757812 0.996094
vt 1.761719 0.992188
vt 1.765625 0.992188
vt 1.765625 0.996094
vt 1.761719 0.996094
vt 1.757812 0.929688
vt 1.761719 0.929688
vt 1.769531 0.992188
vt 1.765625 0.992188
vt 1.765625 0.929688
vt 1.769531 0.929688
vt 1.753906 0.992188
vt 1.753906 0.929688
vt 1.789062 0.992188
vt 1.792969 0.992188
vt 1.792969 0.996094
vt 1.789062 0.996094
vt 1.792969 0.992188
vt 1.796875 0.992188
vt 1.796875 0.996094
vt 1.792969 0.996094
vt 1.789062 0.929688
vt 1.792969 0.929688
vt 1.800781 0.992188
vt 1.796875 0.992188
vt 1.796875 0.929688
vt 1.800781 0.929688
vt 1.785156 0.992188
vt 1.785156 0.929688
vt 1.195312 0.554688
vt 1.460938 0.554688
vt 1.460938 0.558594
vt 1.195312 0.558594
vt 1.460938 0.554688
vt 1.726562 0.554688
vt 1.726562 0.558594
vt 1.460938 0.558594
vt 1.195312 0.542969
vt 1.460938 0.542969
vt 1.730469 0.554688
vt 1.464844 0.554688
vt 1.464844 0.542969
vt 1.730469 0.542969
vt 1.191406 0.554688
vt 1.191406 0.542969
vt 1.195312 0.523438
vt 1.460938 0.523438
vt 1.460938 0.527344
vt 1.195312 0.527344
vt 1.460938 0.523438
vt 1.726562 0.523438
vt 1.726562 0.527344
vt 1.460938 0.527344
vt 1.195312 0.511719
vt 1.460938 0.511719
vt 1.730469 0.523438
vt 1.464844 0.523438
vt 1.464844 0.511719
vt 1.730469 0.511719
vt 1.191406 0.523438
vt 1.191406 0.511719
vt 1.195312 0.492188
vt 1.460938 0.492188
vt 1.460938 0.496094
vt 1.195312 0.496094
vt 1.460938 0.492188
vt 1.726562 0.492188
vt 1.726562 0.496094
vt 1.460938 0.496094
vt 1.195312 0.480469
vt 1.460938 0.480469
vt 1.730469 0.492188
vt 1.464844 0.492188
vt 1.464844 0.480469
vt 1.730469 0.480469
vt 1.191406 0.492188
vt 1.191406 0.480469
vt 1.351562 0.460938
vt 1.617188 0.460938
vt 1.617188 0.464844
vt 1.351562 0.464844
vt 1.617188 0.460938
vt 1.882812 0.460938
vt 1.882812 0.464844
vt 1.617188 0.464844
vt 1.351562 0.449219
vt 1.617188 0.449219
vt 1.886719 0.460938
vt 1.621094 0.460938
vt 1.621094 0.449219
vt 1.886719 0.449219
vt 1.347656 0.460938
vt 1.347656 0.449219
vt 1.820312 0.992188
vt 1.824219 0.992188
vt 1.824219 0.996094
vt 1.820312 0.996094
vt 1.824219 0.992188
vt 1.828125 0.992188
vt 1.828125 0.996094
vt 1.824219 0.996094
vt 1.820312 0.929688
vt 1.824219 0.929688
vt 1.832031 0.992188
vt 1.828125 0.992188
vt 1.828125 0.929688
vt 1.832031 0.929688
vt 1.816406 0.992188
vt 1.816406 0.929688
vt 1.851562 0.992188
vt 1.855469 0.992188
vt 1.855469 0.996094
vt 1.851562 0.996094
vt 1.855469 0.992188
vt 1.859375 0.992188
vt 1.859375 0.996094
vt 1.855469 0.996094
vt 1.851562 0.929688
vt 1.855469 0.929688
vt 1.863281 0.992188
vt 1.859375 0.992188
vt 1.859375 0.929688
vt 1.863281 0.929688
vt 1.847656 0.992188
vt 1.847656 0.929688
vt 1.007812 0.429688
vt 1.273438 0.429688
vt 1.273438 0.433594
vt 1.007812 0.433594
vt 1.273438 0.429688
vt 1.539062 0.429688
vt 1.539062 0.433594
vt 1.273438 0.433594
vt 1.007812 0.417969
vt 1.273438 0.417969
vt 1.542969 0.429688
vt 1.277344 0.429688
vt 1.277344 0.417969
vt 1.542969 0.417969
vt 1.003906 0.429688
vt 1.003906 0.417969
vt 1.007812 0.398438
vt 1.273438 0.398438
vt 1.273438 0.402344
vt 1.007812 0.402344
vt 1.273438 0.398438
vt 1.539062 0.398438
vt 1.539062 0.402344
vt 1.273438 0.402344
vt 1.007812 0.386719
vt 1.273438 0.386719
vt 1.542969 0.398438
vt 1.277344 0.398438
vt 1.277344 0.386719
vt 1.542969 0.386719
vt 1.003906 0.398438
vt 1.003906 0.386719
vt 1.007812 0.367188
vt 1.273438 0.367188
vt 1.273438 0.371094
vt 1.007812 0.371094
vt 1.273438 0.367188
vt 1.539062 0.367188
vt 1.539062 0.371094
vt 1.273438 0.371094
vt 1.007812 0.355469
vt 1.273438 0.355469
vt 1.542969 0.367188
vt 1.277344 0.367188
vt 1.277344 0.355469
vt 1.542969 0.355469
vt 1.003906 0.367188
vt 1.003906 0.355469
vt 1.007812 0.335938
vt 1.273438 0.335938
vt 1.273438 0.339844
vt 1.007812 0.339844
vt 1.273438 0.335938
vt 1.539062 0.335938
vt 1.539062 0.339844
vt 1.273438 0.339844
vt 1.007812 0.324219
vt 1.273438 0.324219
vt 1.542969 0.335938
vt 1.277344 0.335938
vt 1.277344 0.324219
vt 1.542969 0.324219
vt 1.003906 0.335938
vt 1.003906 0.324219
vn 0.0000 1.0000 0.0000
vn 0.0000 -1.0000 -0.0000
vn -1.0000 0.0000 0.0000
vn 1.0000 0.0000 -0.0000
vn 0.0000 0.0000 1.0000
vn 0.0000 0.0000 -1.0000
vn -0.7071 0.7071 0.0000
vn 0.7071 0.7071 0.0000
usemtl ModelMaterial.002
s 1
f 1/1/1 2/2/1 3/3/1 4/4/1
f 5/5/2 6/6/2 7/7/2 8/8/2
f 2/2/3 1/1/3 8/9/3 7/10/3
f 4/11/4 3/12/4 6/13/4 5/14/4
f 3/12/5 2/2/5 7/10/5 6/13/5
f 1/1/6 4/15/6 5/16/6 8/9/6
f 9/17/1 10/18/1 11/19/1 12/20/1
f 13/21/2 14/22/2 15/23/2 16/24/2
f 10/18/3 9/17/3 16/25/3 15/26/3
f 12/27/4 11/28/4 14/29/4 13/30/4
f 11/28/5 10/18/5 15/26/5 14/29/5
f 9/17/6 12/31/6 13/32/6 16/25/6
f 17/33/1 18/34/1 19/35/1 20/36/1
f 21/37/2 22/38/2 23/39/2 24/40/2
f 18/34/3 17/33/3 24/41/3 23/42/3
f 20/43/4 19/44/4 22/45/4 21/46/4
f 19/44/5 18/34/5 23/42/5 22/45/5
f 17/33/6 20/47/6 21/48/6 24/41/6
f 25/49/1 26/50/1 27/51/1 28/52/1
f 29/53/2 30/54/2 31/55/2 32/56/2
f 26/50/3 25/49/3 32/57/3 31/58/3
f 28/59/4 27/60/4 30/61/4 29/62/4
f 27/60/5 26/50/5 31/58/5 30/61/5
f 25/49/6 28/63/6 29/64/6 32/57/6
f 33/65/1 34/66/1 35/67/1 36/68/1
f 37/69/2 38/70/2 39/71/2 40/72/2
f 34/66/3 33/65/3 40/73/3 39/74/3
f 36/75/4 35/76/4 38/77/4 37/78/4
f 35/76/5 34/66/5 39/74/5 38/77/5
f 33/65/6 36/79/6 37/80/6 40/73/6
f 41/81/1 42/82/1 43/83/1 44/84/1
f 45/85/2 46/86/2 47/87/2 48/88/2
f 42/82/3 41/81/3 48/89/3 47/90/3
f 44/91/4 43/92/4 46/93/4 45/94/4
f 43/92/5 42/82/5 47/90/5 46/93/5
f 41/81/6 44/95/6 45/96/6 48/89/6
f 49/97/1 50/98/1 51/99/1 52/100/1
f 53/101/2 54/102/2 55/103/2 56/104/2
f 50/98/3 49/97/3 56/105/3 55/106/3
f 52/107/4 51/108/4 54/109/4 53/110/4
f 51/108/5 50/98/5 55/106/5 54/109/5
f 49/97/6 52/111/6 53/112/6 56/105/6
f 57/113/1 58/114/1 59/115/1 60/116/1
f 61/117/2 62/118/2 63/119/2 64/120/2
f 58/114/3 57/113/3 64/121/3 63/122/3
f 60/123/4 59/124/4 62/125/4 61/126/4
f 59/124/5 58/114/5 63/122/5 62/125/5
f 57/113/6 60/127/6 61/128/6 64/121/6
f 65/129/1 66/130/1 67/131/1 68/132/1
f 69/133/2 70/134/2 71/135/2 72/136/2
f 66/130/3 65/129/3 72/137/3 71/138/3
f 68/139/4 67/140/4 70/141/4 69/142/4
f 67/140/5 66/130/5 71/138/5 70/141/5
f 65/129/6 68/143/6 69/144/6 72/137/6
f 73/145/1 74/146/1 75/147/1 76/148/1
f 77/149/2 78/150/2 79/151/2 80/152/2
f 74/146/3 73/145/3 80/153/3 79/154/3
f 76/155/4 75/156/4 78/157/4 77/158/4
f 75/156/5 74/146/5 79/154/5 78/157/5
f 73/145/6 76/159/6 77/160/6 80/153/6
f 81/161/1 82/162/1 83/163/1 84/164/1
f 85/165/2 86/166/2 87/167/2 88/168/2
f 82/162/7 81/161/7 88/169/7 87/170/7
f 84/171/8 83/172/8 86/173/8 85/174/8
f 83/172/5 82/162/5 87/170/5 86/173/5
f 81/161/6 84/175/6 85/176/6 88/169/6
f 89/177/1 90/178/1 91/179/1 92/180/1
f 93/181/2 94/182/2 95/183/2 96/184/2
f 90/178/3 89/177/3 96/185/3 95/186/3
f 92/187/4 91/188/4 94/189/4 93/190/4
f 91/188/5 90/178/5 95/186/5 94/189/5
f 89/177/6 92/191/6 93/192/6 96/185/6
f 97/193/1 98/194/1 99/195/1 100/196/1
f 101/197/2 102/198/2 103/199/2 104/200/2
f 98/194/3 97/193/3 104/201/3 103/202/3
f 100/203/4 99/204/4 102/205/4 101/206/4
f 99/204/5 98/194/5 103/202/5 102/205/5
f 97/193/6 100/207/6 101/208/6 104/201/6
f 105/209/1 106/210/1 107/211/1 108/212/1
f 109/213/2 110/214/2 111/215/2 112/216/2
f 106/210/3 105/209/3 112/217/3 111/218/3
f 108/219/4 107/220/4 110/221/4 109/222/4
f 107/220/5 106/210/5 111/218/5 110/221/5
f 105/209/6 108/223/6 109/224/6 112/217/6
f 113/225/1 114/226/1 115/227/1 116/228/1
f 117/229/2 118/230/2 119/231/2 120/232/2
f 114/226/3 113/225/3 120/233/3 119/234/3
f 116/235/4 115/236/4 118/237/4 117/238/4
f 115/236/5 114/226/5 119/234/5 118/237/5
f 113/225/6 116/239/6 117/240/6 120/233/6
f 121/241/1 122/242/1 123/243/1 124/244/1
f 125/245/2 126/246/2 127/247/2 128/248/2
f 122/242/3 121/241/3 128/249/3 127/250/3
f 124/251/4 123/252/4 126/253/4 125/254/4
f 123/252/5 122/242/5 127/250/5 126/253/5
f 121/241/6 124/255/6 125/256/6 128/249/6
f 129/257/1 130/258/1 131/259/1 132/260/1
f 133/261/2 134/262/2 135/263/2 136/264/2
f 130/258/3 129/257/3 136/265/3 135/266/3
f 132/267/4 131/268/4 134/269/4 133/270/4
f 131/268/5 130/258/5 135/266/5 134/269/5
f 129/257/6 132/271/6 133/272/6 136/265/6
f 137/273/1 138/274/1 139/275/1 140/276/1
f 141/277/2 142/278/2 143/279/2 144/280/2
f 138/274/3 137/273/3 144/281/3 143/282/3
f 140/283/4 139/284/4 142/285/4 141/286/4
f 139/284/5 138/274/5 143/282/5 142/285/5
f 137/273/6 140/287/6 141/288/6 144/281/6
f 145/289/1 146/290/1 147/291/1 148/292/1
f 149/293/2 150/294/2 151/295/2 152/296/2
f 146/290/3 145/289/3 152/297/3 151/298/3
f 148/299/4 147/300/4 150/301/4 149/302/4
f 147/300/5 146/290/5 151/298/5 150/301/5
f 145/289/6 148/303/6 149/304/6 152/297/6
f 153/305/1 154/306/1 155/307/1 156/308/1
f 157/309/2 158/310/2 159/311/2 160/312/2
f 154/306/3 153/305/3 160/313/3 159/314/3
f 156/315/4 155/316/4 158/317/4 157/318/4
f 155/316/5 154/306/5 159/314/5 158/317/5
f 153/305/6 156/319/6 157/320/6 160/313/6
f 161/321/1 162/322/1 163/323/1 164/324/1
f 165/325/2 166/326/2 167/327/2 168/328/2
f 162/322/3 161/321/3 168/329/3 167/330/3
f 164/331/4 163/332/4 166/333/4 165/334/4
f 163/332/5 162/322/5 167/330/5 166/333/5
f 161/321/6 164/335/6 165/336/6 168/329/6
f 169/337/1 170/338/1 171/339/1 172/340/1
f 173/341/2 174/342/2 175/343/2 176/344/2
f 170/338/3 169/337/3 176/345/3 175/346/3
f 172/347/4 171/348/4 174/349/4 173/350/4
f 171/348/5 170/338/5 175/346/5 174/349/5
f 169/337/6 172/351/6 173/352/6 176/345/6
f 177/353/1 178/354/1 179/355/1 180/356/1
f 181/357/2 182/358/2 183/359/2 184/360/2
f 178/354/3 177/353/3 184/361/3 183/362/3
f 180/363/4 179/364/4 182/365/4 181/366/4
f 179/364/5 178/354/5 183/362/5 182/365/5
f 177/353/6 180/367/6 181/368/6 184/361/6
