# Blender v2.79 (sub 0) OBJ File: ''
# www.blender.org
mtllib brigbedbox.mtl
o sideTextureURL
v -1.251001 2.562500 -2.322763
v -1.251001 0.187500 -2.322763
v -1.251001 2.562500 1.927237
v -1.251000 0.187500 1.927237
v 1.250999 2.562500 -2.322763
v 1.250999 0.187500 -2.322763
v 1.250999 2.562500 1.927236
v 1.251000 0.187500 1.927236
vt 1.000000 1.000000
vt -0.000000 1.000000
vt 0.000000 -0.000000
vt 1.000000 -0.000000
vt 1.000000 1.000000
vt 0.000000 1.000000
vt 0.000000 0.000000
vt 1.000000 0.000000
vn -1.0000 -0.0000 0.0000
vn 1.0000 0.0000 -0.0000
usemtl ModelMaterial.002
s 1
f 3/1/1 1/2/1 2/3/1 4/4/1
f 5/5/2 7/6/2 8/7/2 6/8/2
o ford_box.obj.017
v -1.250001 0.187500 -2.572763
v 1.249999 0.187500 -2.572763
v 1.250000 -0.062500 -2.572763
v -1.250000 -0.062500 -2.572763
v -1.250000 0.187500 -2.260263
v 1.250000 0.187500 -2.260263
v -1.250000 -0.062500 -2.260263
v 1.250000 -0.062500 -2.260263
v -1.187501 2.562500 -2.322763
v 1.187499 2.562500 -2.322763
v 1.187499 2.500000 -2.322763
v -1.187501 2.500000 -2.322763
v -1.187501 2.562500 1.927237
v 1.187499 2.562500 1.927236
v -1.187501 2.500000 1.927237
v 1.187499 2.500000 1.927236
v -1.187501 0.250000 -2.322763
v 1.187499 0.250000 -2.322763
v 1.187499 0.187500 -2.322763
v -1.187501 0.187500 -2.322763
v -1.187500 0.250000 1.927237
v 1.187500 0.250000 1.927236
v -1.187500 0.187500 1.927237
v 1.187500 0.187500 1.927236
v -1.250001 2.562500 -2.322763
v -1.187501 2.562500 -2.322763
v -1.187501 0.187500 -2.322763
v -1.250001 0.187500 -2.322763
v -1.250001 2.562500 1.927237
v -1.187501 2.562500 1.927237
v -1.250000 0.187500 1.927237
v -1.187500 0.187500 1.927237
v -1.187501 2.500000 -2.291513
v 1.187499 2.500000 -2.291513
v 1.187499 0.250000 -2.291513
v -1.187501 0.250000 -2.291513
v -1.187501 2.500000 -2.229013
v 1.187499 2.500000 -2.229013
v -1.187501 0.250000 -2.229013
v 1.187499 0.250000 -2.229013
v -1.187501 2.500000 1.864737
v 1.187499 2.500000 1.864736
v 1.187500 0.250000 1.864736
v -1.187500 0.250000 1.864737
v -1.187501 2.500000 1.927237
v 1.187499 2.500000 1.927236
v -1.187500 0.250000 1.927237
v 1.187500 0.250000 1.927236
v 1.187499 2.562500 -2.322763
v 1.249999 2.562500 -2.322763
v 1.249999 0.187500 -2.322763
v 1.187499 0.187500 -2.322763
v 1.187499 2.562500 1.927236
v 1.249999 2.562500 1.927236
v 1.187500 0.187500 1.927236
v 1.250000 0.187500 1.927236
v -1.187500 0.187500 -2.260263
v 1.187500 0.187500 -2.260263
v 1.187500 0.000000 -2.260263
v -1.187500 0.000000 -2.260263
v -1.187500 0.187500 -2.197763
v 1.187500 0.187500 -2.197763
v -1.187500 0.000000 -2.197763
v 1.187500 0.000000 -2.197763
v -1.187500 0.187500 1.802237
v -1.187500 0.187500 1.864737
v 1.187500 0.187500 1.864736
v 1.187500 0.187500 1.802236
v 1.187500 0.000000 1.802236
v 1.187500 -0.000000 1.864736
v -1.187500 -0.000000 1.864737
v -1.187500 0.000000 1.802237
vt 0.160156 0.300781
vt 0.003906 0.300781
vt 0.003906 0.285156
vt 0.160156 0.285156
vt 0.179688 0.300781
vt 0.179688 0.457031
vt 0.160156 0.457031
vt 0.179688 0.285156
vt 0.179688 0.300781
vt 0.199219 0.300781
vt 0.199219 0.457031
vt 0.179688 0.457031
vt 0.335938 0.300781
vt 0.335938 0.285156
vt 0.355469 0.300781
vt 0.355469 0.285156
vt 0.382812 0.593750
vt 0.234375 0.593750
vt 0.234375 0.593750
vt 0.382812 0.593750
vt 0.152344 0.500000
vt 0.417969 0.500000
vt 0.417969 0.652344
vt 0.152344 0.652344
vt 0.152344 0.500000
vt 0.417969 0.500000
vt 0.417969 0.500000
vt 0.683594 0.500000
vt 0.683594 0.652344
vt 0.417969 0.652344
vt 0.417969 0.531250
vt 0.269531 0.531250
vt 0.269531 0.531250
vt 0.417969 0.531250
vt 0.832031 0.500000
vt 0.566406 0.500000
vt 0.566406 0.500000
vt 0.832031 0.500000
vt 0.363281 0.625000
vt 0.214844 0.625000
vt 0.214844 0.625000
vt 0.363281 0.625000
vt 0.152344 0.656250
vt 0.417969 0.656250
vt 0.417969 0.808594
vt 0.152344 0.808594
vt 0.152344 0.656250
vt 0.417969 0.656250
vt 0.417969 0.656250
vt 0.683594 0.656250
vt 0.683594 0.808594
vt 0.417969 0.808594
vt 0.585938 0.667969
vt 0.437500 0.667969
vt 0.437500 0.667969
vt 0.585938 0.667969
vt 0.832031 0.656250
vt 0.566406 0.656250
vt 0.566406 0.656250
vt 0.832031 0.656250
vt 0.457031 0.992188
vt 0.453125 0.992188
vt 0.453125 0.843750
vt 0.457031 0.843750
vt 0.722656 0.992188
vt 0.722656 0.996094
vt 0.457031 0.996094
vt 0.722656 0.843750
vt 0.722656 0.992188
vt 0.988281 0.992188
vt 0.988281 0.996094
vt 0.722656 0.996094
vt 0.726562 0.992188
vt 0.726562 0.843750
vt 0.992188 0.992188
vt 0.992188 0.843750
vt 0.835938 0.492188
vt 0.687500 0.492188
vt 0.687500 0.355469
vt 0.835938 0.355469
vt 0.839844 0.492188
vt 0.839844 0.644531
vt 0.835938 0.644531
vt 0.839844 0.355469
vt 0.839844 0.492188
vt 0.843750 0.492188
vt 0.843750 0.644531
vt 0.839844 0.644531
vt 0.988281 0.492188
vt 0.988281 0.355469
vt 0.992188 0.492188
vt 0.992188 0.355469
vt 0.640625 0.343750
vt 0.492188 0.343750
vt 0.492188 0.207031
vt 0.640625 0.207031
vt 0.644531 0.343750
vt 0.644531 0.496094
vt 0.640625 0.496094
vt 0.644531 0.207031
vt 0.644531 0.343750
vt 0.648438 0.343750
vt 0.648438 0.496094
vt 0.644531 0.496094
vt 0.792969 0.343750
vt 0.792969 0.207031
vt 0.796875 0.343750
vt 0.796875 0.207031
vt 0.003906 0.195312
vt 0.000000 0.195312
vt 0.000000 0.046875
vt 0.003906 0.046875
vt 0.269531 0.195312
vt 0.269531 0.199219
vt 0.003906 0.199219
vt 0.269531 0.046875
vt 0.269531 0.195312
vt 0.535156 0.195312
vt 0.535156 0.199219
vt 0.269531 0.199219
vt 0.273438 0.195312
vt 0.273438 0.046875
vt 0.539062 0.195312
vt 0.539062 0.046875
vt 0.183594 0.292969
vt 0.035156 0.292969
vt 0.035156 0.285156
vt 0.183594 0.285156
vt 0.187500 0.292969
vt 0.187500 0.445312
vt 0.183594 0.445312
vt 0.187500 0.285156
vt 0.187500 0.292969
vt 0.191406 0.292969
vt 0.191406 0.445312
vt 0.187500 0.445312
vt 0.335938 0.292969
vt 0.335938 0.285156
vt 0.339844 0.292969
vt 0.339844 0.285156
vt 0.187500 0.292969
vt 0.191406 0.292969
vt 0.191406 0.445312
vt 0.187500 0.445312
vt 0.191406 0.292969
vt 0.195312 0.292969
vt 0.195312 0.445312
vt 0.191406 0.445312
vt 0.187500 0.285156
vt 0.191406 0.285156
vt 0.343750 0.292969
vt 0.339844 0.292969
vt 0.339844 0.285156
vt 0.343750 0.285156
vt 0.039062 0.292969
vt 0.039062 0.285156
vn 0.0000 0.0000 -1.0000
vn 0.0000 1.0000 0.0000
vn -1.0000 -0.0000 0.0000
vn 0.0000 -1.0000 -0.0000
vn 0.0000 0.0000 1.0000
vn 1.0000 0.0000 -0.0000
usemtl ModelMaterial.002_NONE
s 1
f 9/9/3 10/10/3 11/11/3 12/12/3
f 9/9/4 13/13/4 14/14/4 10/15/4
f 13/13/5 9/9/5 12/12/5 15/16/5
f 11/17/6 16/18/6 15/19/6 12/20/6
f 14/21/7 13/13/7 15/16/7 16/22/7
f 10/23/8 14/21/8 16/22/8 11/24/8
f 17/25/3 18/26/3 19/27/3 20/28/3
f 17/29/4 21/30/4 22/31/4 18/32/4
f 21/30/5 17/29/5 20/33/5 23/34/5
f 19/35/6 24/36/6 23/37/6 20/38/6
f 22/39/7 21/40/7 23/41/7 24/42/7
f 18/43/8 22/44/8 24/45/8 19/46/8
f 25/47/3 26/48/3 27/49/3 28/50/3
f 25/51/4 29/52/4 30/53/4 26/54/4
f 29/52/5 25/51/5 28/55/5 31/56/5
f 27/57/6 32/58/6 31/59/6 28/60/6
f 30/61/7 29/62/7 31/63/7 32/64/7
f 26/65/8 30/66/8 32/67/8 27/68/8
f 33/69/3 34/70/3 35/71/3 36/72/3
f 33/69/4 37/73/4 38/74/4 34/75/4
f 37/73/5 33/69/5 36/72/5 39/76/5
f 35/77/6 40/78/6 39/79/6 36/80/6
f 38/81/7 37/73/7 39/76/7 40/82/7
f 34/83/8 38/81/8 40/82/8 35/84/8
f 41/85/3 42/86/3 43/87/3 44/88/3
f 41/85/4 45/89/4 46/90/4 42/91/4
f 45/89/5 41/85/5 44/88/5 47/92/5
f 43/93/6 48/94/6 47/95/6 44/96/6
f 46/97/7 45/89/7 47/92/7 48/98/7
f 42/99/8 46/97/8 48/98/8 43/100/8
f 49/101/3 50/102/3 51/103/3 52/104/3
f 49/101/4 53/105/4 54/106/4 50/107/4
f 53/105/5 49/101/5 52/104/5 55/108/5
f 51/109/6 56/110/6 55/111/6 52/112/6
f 54/113/7 53/105/7 55/108/7 56/114/7
f 50/115/8 54/113/8 56/114/8 51/116/8
f 57/117/3 58/118/3 59/119/3 60/120/3
f 57/117/4 61/121/4 62/122/4 58/123/4
f 61/121/5 57/117/5 60/120/5 63/124/5
f 59/125/6 64/126/6 63/127/6 60/128/6
f 62/129/7 61/121/7 63/124/7 64/130/7
f 58/131/8 62/129/8 64/130/8 59/132/8
f 65/133/3 66/134/3 67/135/3 68/136/3
f 65/133/4 69/137/4 70/138/4 66/139/4
f 69/137/5 65/133/5 68/136/5 71/140/5
f 67/141/6 72/142/6 71/143/6 68/144/6
f 70/145/7 69/137/7 71/140/7 72/146/7
f 66/147/8 70/145/8 72/146/8 67/148/8
f 73/149/4 74/150/4 75/151/4 76/152/4
f 77/153/6 78/154/6 79/155/6 80/156/6
f 74/150/5 73/149/5 80/157/5 79/158/5
f 76/159/8 75/160/8 78/161/8 77/162/8
f 75/160/7 74/150/7 79/158/7 78/161/7
f 73/149/3 76/163/3 77/164/3 80/157/3
