# Made in Blockbench 4.8.3
mtllib cratebell47g.mtl

o $lid
v -0.089924 0.269771 -0.269771
v -0.089924 0.539543 -0.269771
v 0.089924 0.269771 -0.269771
v 0.089924 0.539543 -0.269771
v 0.089924 0.269771 -0.359695
v -0.089924 0.269771 -0.359695
v -0.089924 0.269771 -0.269771
v 0.089924 0.269771 -0.269771
v -0.539543 0.3591545 -0.269771
v 0.539543 0.3591545 -0.269771
v 0.539543 0.35915392943077235 0.269771
v -0.539543 0.35915392943077235 0.269771
v 0.539543 0.629467 -0.269771
v 0.539543 0.629466 0.269771
v -0.089924 0.539543 -0.359695
v 0.089924 0.539543 -0.359695
v -0.089924 0.539543 -0.269771
v 0.089924 0.539543 -0.269771
v -0.539543 0.629466 0.269771
v -0.539543 0.629467 -0.269771
vt 0.62109375 0.8515625
vt 0.62890625 0.8515625
vt 0.62890625 0.859375
vt 0.62109375 0.859375
vt 0.6328125 0.84375
vt 0.6328125 0.8320077523176354
vt 0.6562500000000001 0.8320077523176354
vt 0.6562500000000001 0.84375
vt 0.6562500000000001 0.84375
vt 0.6562500000000001 0.8320077523176354
vt 0.703125 0.8320077523176354
vt 0.703125 0.84375
vt 0.703125 0.84375
vt 0.703125 0.8320077523176354
vt 0.6562500000000001 0.8320077523176354
vt 0.6562500000000001 0.84375
vt 0.6328125 0.84375
vt 0.6328125 0.8320077523176354
vt 0.6562500000000001 0.8320077523176354
vt 0.6562500000000001 0.84375
vt 0.64453125 0.8515625
vt 0.6367187499999999 0.8515625
vt 0.6367187499999999 0.85546875
vt 0.64453125 0.85546875
vt 0.5859375000000001 0.83984375
vt 0.6328125 0.83984375
vt 0.6328125 0.81640625
vt 0.5859375000000001 0.81640625
vt 0.6367187499999999 0.8515625
vt 0.64453125 0.8515625
vt 0.64453125 0.86328125
vt 0.6367187499999999 0.86328125
vt 0.64453125 0.8515625
vt 0.6484375 0.8515625
vt 0.6484375 0.86328125
vt 0.64453125 0.86328125
vt 0.6328125 0.8515625
vt 0.6367187499999999 0.8515625
vt 0.6367187499999999 0.86328125
vt 0.6328125 0.86328125
vt 0.703125 0.84375
vt 0.6562500000000001 0.84375
vt 0.6562500000000001 0.8671875
vt 0.703125 0.8671875
vt 0.64453125 0.86328125
vt 0.6367187499999999 0.86328125
vt 0.6367187499999999 0.8671875
vt 0.64453125 0.8671875
vn 0 0 1
vn 1 0 0
vn 0 0 -1
vn 0 0 1
vn -1 0 0
vn 0 -1 0
vn 0 -0.9999999999994409 -0.0000010575066030859833
vn 0 0 -1
vn -1 0 0
vn 1 0 0
vn 0 0.9999999999982825 0.000001853423829890978
vn 0 1 0
usemtl m_abaec210-d21e-6075-e979-5cc5fd6f2c88
f 1/1/1 3/2/1 4/3/1 2/4/1
f 14/5/2 11/6/2 10/7/2 13/8/2
f 13/9/3 10/10/3 9/11/3 20/12/3
f 19/13/4 12/14/4 11/15/4 14/16/4
f 20/17/5 9/18/5 12/19/5 19/20/5
f 6/21/6 5/22/6 8/23/6 7/24/6
f 9/25/7 10/26/7 11/27/7 12/28/7
f 5/29/8 6/30/8 15/31/8 16/32/8
f 6/33/9 7/34/9 17/35/9 15/36/9
f 8/37/10 5/38/10 16/39/10 18/40/10
f 19/41/11 14/42/11 13/43/11 20/44/11
f 17/45/12 18/46/12 16/47/12 15/48/12
o bell47-storagecontainer
v 0.539543 0 0.269771
v 0.539543 0 -0.269771
v -0.539543 0 -0.269771
v -0.539543 0 0.269771
v -0.539543 0.3591545 -0.269771
v 0.539543 0.3591545 -0.269771
v 0.539543 0.35915392943077235 0.269771
v -0.539543 0.35915392943077235 0.269771
vt 0.703125 0.84375
vt 0.6562500000000001 0.84375
vt 0.6562500000000001 0.8671875
vt 0.703125 0.8671875
vt 0.703125 0.81640625
vt 0.703125 0.8320077523176354
vt 0.6562500000000001 0.8320077523176354
vt 0.6562500000000001 0.81640625
vt 0.6562500000000001 0.81640625
vt 0.6562500000000001 0.8320077523176354
vt 0.6328125 0.8320077523176354
vt 0.6328125 0.81640625
vt 0.6562500000000001 0.81640625
vt 0.6562500000000001 0.8320077523176354
vt 0.703125 0.8320077523176354
vt 0.703125 0.81640625
vt 0.6562500000000001 0.81640625
vt 0.6562500000000001 0.8320077523176354
vt 0.6328125 0.8320077523176354
vt 0.6328125 0.81640625
vt 0.5859375000000001 0.81640625
vt 0.6328125 0.81640625
vt 0.6328125 0.83984375
vt 0.5859375000000001 0.83984375
vn 0 -1 0
vn 0 0 -1
vn 1 0 0
vn 0 0 1
vn -1 0 0
vn 0 0.9999999999994409 0.0000010575066030859833
usemtl m_abaec210-d21e-6075-e979-5cc5fd6f2c88
f 23/49/13 22/50/13 21/51/13 24/52/13
f 23/53/14 25/54/14 26/55/14 22/56/14
f 22/57/15 26/58/15 27/59/15 21/60/15
f 21/61/16 27/62/16 28/63/16 24/64/16
f 24/65/17 28/66/17 25/67/17 23/68/17
f 28/69/18 27/70/18 26/71/18 25/72/18