# Blender v2.79 (sub 0) OBJ File: ''
# www.blender.org
mtllib cratebell47g.mtl
o bell47-storagecontainer
v 0.539543 -0.000000 0.269771
v 0.539543 0.000000 -0.269771
v 0.539543 0.629467 -0.269771
v 0.539543 0.629466 0.269771
v 0.089924 0.269771 -0.359695
v -0.089924 0.269771 -0.359695
v -0.089924 0.539543 -0.359695
v 0.089924 0.539543 -0.359695
v -0.089924 0.269771 -0.269771
v -0.089924 0.539543 -0.269771
v 0.089924 0.269771 -0.269771
v 0.089924 0.539543 -0.269771
v -0.539543 0.629466 0.269771
v -0.539543 0.629467 -0.269771
v -0.539543 0.000000 -0.269771
v -0.539543 -0.000000 0.269771
vt 0.632812 0.816406
vt 0.656250 0.816406
vt 0.656250 0.843750
vt 0.632812 0.843750
vt 0.636719 0.851562
vt 0.644531 0.851562
vt 0.644531 0.863281
vt 0.636719 0.863281
vt 0.648438 0.851562
vt 0.648438 0.863281
vt 0.632812 0.851562
vt 0.632812 0.863281
vt 0.703125 0.867188
vt 0.656250 0.867188
vt 0.703125 0.843750
vt 0.656250 0.851562
vt 0.656250 0.863281
vt 0.703125 0.816406
vt 0.656250 0.816406
vt 0.703125 0.816406
vt 0.703125 0.843750
vt 0.656250 0.843750
vt 0.703125 0.843750
vt 0.656250 0.843750
vt 0.656250 0.867188
vt 0.703125 0.867188
vt 0.632812 0.816406
vt 0.632812 0.843750
vt 0.644531 0.867188
vt 0.636719 0.867188
vt 0.652344 0.863281
vt 0.644531 0.863281
vt 0.644531 0.867188
vt 0.652344 0.867188
vn 1.0000 0.0000 0.0000
vn 0.0000 0.0000 -1.0000
vn -1.0000 0.0000 0.0000
vn 0.0000 1.0000 0.0000
vn 0.0000 -0.0000 1.0000
vn 0.0000 -1.0000 -0.0000
usemtl 0
s 1
f 1/1/1 2/2/1 3/3/1 4/4/1
f 5/5/2 6/6/2 7/7/2 8/8/2
f 6/6/3 9/9/3 10/10/3 7/7/3
f 11/11/1 5/5/1 8/8/1 12/12/1
f 13/13/4 4/14/4 3/3/4 14/15/4
f 9/9/5 11/16/5 12/17/5 10/10/5
f 2/2/2 15/18/2 14/15/2 3/3/2
f 16/19/5 1/20/5 4/21/5 13/22/5
f 15/23/6 2/24/6 1/25/6 16/26/6
f 15/27/3 16/19/3 13/22/3 14/28/3
f 10/29/4 12/30/4 8/8/4 7/7/4
f 6/31/6 5/32/6 11/33/6 9/34/6
