# Made in Blockbench 4.9.4
mtllib engineamci4.mtl

o driveshaft
v -0.125 -0.125 1.25
v -0.125 0.125 1.25
v -0.125 0.125 0
v -0.125 -0.125 0
v 0.125 -0.125 0
v 0.125 0.125 0
v 0.125 0.125 1.25
v 0.125 -0.125 1.25
vt 0.3671875 0.7109375
vt 0.3671875 0.7421875
vt 0.2109375 0.7421875
vt 0.2109375 0.7109375
vt 0.15625 0.703125
vt 0.15625 0.734375
vt 0 0.734375
vt 0 0.703125
vt 0.1640625 0.734375
vt 0.1640625 0.578125
vt 0.1953125 0.578125
vt 0.1953125 0.734375
vt 0.2890625 0.7578125
vt 0.2890625 0.9140625
vt 0.3203125 0.9140625
vt 0.3203125 0.7578125
vt 0.140625 0.5546875
vt 0.140625 0.5859375
vt 0.109375 0.5859375
vt 0.109375 0.5546875
vt 0.4453125 0.96875
vt 0.4453125 1
vt 0.4140625 1
vt 0.4140625 0.96875
vn -1 0 0
vn 1 0 0
vn 0 1 0
vn 0 -1 0
vn 0 0 -1
vn 0 0 1
usemtl none
f 1/1/1 2/2/1 3/3/1 4/4/1
f 5/5/2 6/6/2 7/7/2 8/8/2
f 3/9/3 2/10/3 7/11/3 6/12/3
f 1/13/4 4/14/4 5/15/4 8/16/4
f 4/17/5 3/18/5 6/19/5 5/20/5
f 8/21/6 7/22/6 2/23/6 1/24/6
o genroller
v -0.421875 0.375 1.25
v -0.421875 0.5 1.25
v -0.421875 0.5 1.125
v -0.421875 0.375 1.125
v -0.296875 0.375 1.125
v -0.296875 0.5 1.125
v -0.296875 0.5 1.25
v -0.296875 0.375 1.25
vt 0.484375 0.9375
vt 0.484375 0.953125
vt 0.46875 0.953125
vt 0.46875 0.9375
vt 0.1015625 0.515625
vt 0.1015625 0.53125
vt 0.0859375 0.53125
vt 0.0859375 0.515625
vt 0.46875 0.90625
vt 0.46875 0.890625
vt 0.484375 0.890625
vt 0.484375 0.90625
vt 0.1796875 0.515625
vt 0.1796875 0.53125
vt 0.1953125 0.53125
vt 0.1953125 0.515625
vt 0.484375 0.9140625
vt 0.484375 0.9296875
vt 0.46875 0.9296875
vt 0.46875 0.9140625
vt 0.484375 0.9609375
vt 0.484375 0.9765625
vt 0.46875 0.9765625
vt 0.46875 0.9609375
vn -1 0 0
vn 1 0 0
vn 0 1 0
vn 0 -1 0
vn 0 0 -1
vn 0 0 1
usemtl none
f 9/25/7 10/26/7 11/27/7 12/28/7
f 13/29/8 14/30/8 15/31/8 16/32/8
f 11/33/9 10/34/9 15/35/9 14/36/9
f 9/37/10 12/38/10 13/39/10 16/40/10
f 12/41/11 11/42/11 14/43/11 13/44/11
f 16/45/12 15/46/12 10/47/12 9/48/12
o roller2
v -0.09375 0.15625 1.25
v -0.09375 0.375 1.25
v -0.09375 0.375 1.125
v -0.09375 0.15625 1.125
v 0.125 0.15625 1.125
v 0.125 0.375 1.125
v 0.125 0.375 1.25
v 0.125 0.15625 1.25
vt 0.4453125 0.59375
vt 0.4453125 0.625
vt 0.4296875 0.625
vt 0.4296875 0.59375
vt 0.453125 0.6640625
vt 0.453125 0.6953125
vt 0.4375 0.6953125
vt 0.4375 0.6640625
vt 0.4375 0.65625
vt 0.4375 0.640625
vt 0.46875 0.640625
vt 0.46875 0.65625
vt 0 0.5390625
vt 0 0.5546875
vt 0.03125 0.5546875
vt 0.03125 0.5390625
vt 0.453125 0.734375
vt 0.453125 0.765625
vt 0.421875 0.765625
vt 0.421875 0.734375
vt 0.375 0.5546875
vt 0.375 0.5859375
vt 0.34375 0.5859375
vt 0.34375 0.5546875
vn -1 0 0
vn 1 0 0
vn 0 1 0
vn 0 -1 0
vn 0 0 -1
vn 0 0 1
usemtl none
f 17/49/13 18/50/13 19/51/13 20/52/13
f 21/53/14 22/54/14 23/55/14 24/56/14
f 19/57/15 18/58/15 23/59/15 22/60/15
f 17/61/16 20/62/16 21/63/16 24/64/16
f 20/65/17 19/66/17 22/67/17 21/68/17
f 24/69/18 23/70/18 18/71/18 17/72/18
o roller1
v 0.15625 0.328125 1.25
v 0.15625 0.546875 1.25
v 0.15625 0.546875 1.125
v 0.15625 0.328125 1.125
v 0.375 0.328125 1.125
v 0.375 0.546875 1.125
v 0.375 0.546875 1.25
v 0.375 0.328125 1.25
v 0.203125 0.375 1.125
v 0.203125 0.5 1.125
v 0.203125 0.5 1.0625
v 0.203125 0.375 1.0625
v 0.328125 0.375 1.0625
v 0.328125 0.5 1.0625
v 0.328125 0.5 1.125
v 0.328125 0.375 1.125
vt 0.4609375 0.9296875
vt 0.4609375 0.9609375
vt 0.4453125 0.9609375
vt 0.4453125 0.9296875
vt 0.4609375 0.890625
vt 0.4609375 0.921875
vt 0.4453125 0.921875
vt 0.4453125 0.890625
vt 0.203125 0.5546875
vt 0.203125 0.5390625
vt 0.234375 0.5390625
vt 0.234375 0.5546875
vt 0.453125 0.984375
vt 0.453125 1
vt 0.484375 1
vt 0.484375 0.984375
vt 0.453125 0.546875
vt 0.453125 0.578125
vt 0.421875 0.578125
vt 0.421875 0.546875
vt 0.4140625 0.546875
vt 0.4140625 0.578125
vt 0.3828125 0.578125
vt 0.3828125 0.546875
vt 0.03125 0.515625
vt 0.03125 0.53125
vt 0.0234375 0.53125
vt 0.0234375 0.515625
vt 0.234375 0.515625
vt 0.234375 0.53125
vt 0.2265625 0.53125
vt 0.2265625 0.515625
vt 0.375 0.71875
vt 0.375 0.7109375
vt 0.390625 0.7109375
vt 0.390625 0.71875
vt 0.4609375 0.6640625
vt 0.4609375 0.671875
vt 0.4765625 0.671875
vt 0.4765625 0.6640625
vt 0.484375 0.7734375
vt 0.484375 0.7890625
vt 0.46875 0.7890625
vt 0.46875 0.7734375
vt 0.21875 0.515625
vt 0.21875 0.53125
vt 0.203125 0.53125
vt 0.203125 0.515625
vn -1 0 0
vn 1 0 0
vn 0 1 0
vn 0 -1 0
vn 0 0 -1
vn 0 0 1
vn -1 0 0
vn 1 0 0
vn 0 1 0
vn 0 -1 0
vn 0 0 -1
vn 0 0 1
usemtl none
f 25/73/19 26/74/19 27/75/19 28/76/19
f 29/77/20 30/78/20 31/79/20 32/80/20
f 27/81/21 26/82/21 31/83/21 30/84/21
f 25/85/22 28/86/22 29/87/22 32/88/22
f 28/89/23 27/90/23 30/91/23 29/92/23
f 32/93/24 31/94/24 26/95/24 25/96/24
f 33/97/25 34/98/25 35/99/25 36/100/25
f 37/101/26 38/102/26 39/103/26 40/104/26
f 35/105/27 34/106/27 39/107/27 38/108/27
f 33/109/28 36/110/28 37/111/28 40/112/28
f 36/113/29 35/114/29 38/115/29 37/116/29
f 40/117/30 39/118/30 34/119/30 33/120/30
o roller3
v 0.1875 0.015625 1.25
v 0.1875 0.203125 1.25
v 0.1875 0.203125 1.125
v 0.1875 0.015625 1.125
v 0.375 0.015625 1.125
v 0.375 0.203125 1.125
v 0.375 0.203125 1.25
v 0.375 0.015625 1.25
vt 0.1484375 0.515625
vt 0.1484375 0.5390625
vt 0.1328125 0.5390625
vt 0.1328125 0.515625
vt 0.171875 0.515625
vt 0.171875 0.5390625
vt 0.15625 0.5390625
vt 0.15625 0.515625
vt 0.453125 0.6015625
vt 0.453125 0.5859375
vt 0.4765625 0.5859375
vt 0.4765625 0.6015625
vt 0.4609375 0.75
vt 0.4609375 0.765625
vt 0.484375 0.765625
vt 0.484375 0.75
vt 0.171875 0.546875
vt 0.171875 0.5703125
vt 0.1484375 0.5703125
vt 0.1484375 0.546875
vt 0.4296875 0.671875
vt 0.4296875 0.6953125
vt 0.40625 0.6953125
vt 0.40625 0.671875
vn -1 0 0
vn 1 0 0
vn 0 1 0
vn 0 -1 0
vn 0 0 -1
vn 0 0 1
usemtl none
f 41/121/31 42/122/31 43/123/31 44/124/31
f 45/125/32 46/126/32 47/127/32 48/128/32
f 43/129/33 42/130/33 47/131/33 46/132/33
f 41/133/34 44/134/34 45/135/34 48/136/34
f 44/137/35 43/138/35 46/139/35 45/140/35
f 48/141/36 47/142/36 42/143/36 41/144/36
o MainBlock
v 0.1572310782073898 0.546920905802577 1.125
v -0.42222712202499113 0.5013165564107673 1.125
v -0.42222712202499113 0.5013165564107673 1.125
v 0.1572310782073898 0.546920905802577 1.125
v 0.1572310782073898 0.546920905802577 1.25
v 0.1572310782073898 0.546920905802577 1.25
v -0.42222712202499113 0.5013165564107673 1.25
v -0.42222712202499113 0.5013165564107673 1.25
v -0.1250005592617815 -0.12813505050001467 1.125
v -0.4231793475011951 0.37807208125938163 1.125
v -0.4231793475011951 0.37807208125938163 1.125
v -0.1250005592617815 -0.12813505050001467 1.125
v -0.1250005592617815 -0.12813505050001467 1.25
v -0.1250005592617815 -0.12813505050001467 1.25
v -0.4231793475011951 0.37807208125938163 1.25
v -0.4231793475011951 0.37807208125938163 1.25
v -0.0625 0.6875 0.65625
v -0.0625 0.75 0.65625
v -0.0625 0.75 0.53125
v -0.0625 0.6875 0.53125
v 0.0625 0.6875 0.53125
v 0.0625 0.75 0.53125
v 0.0625 0.75 0.65625
v 0.0625 0.6875 0.65625
v -0.15625 0.4375 1
v -0.15625 0.6875 1
v -0.15625 0.6875 0.1875
v -0.15625 0.4375 0.1875
v 0.15625 0.4375 0.1875
v 0.15625 0.6875 0.1875
v 0.15625 0.6875 1
v 0.15625 0.4375 1
v -0.25 -0.1875 1.125
v -0.25 0.4375 1.125
v -0.25 0.4375 0.125
v -0.25 -0.1875 0.125
v 0.3125 -0.1875 0.125
v 0.3125 0.4375 0.125
v 0.3125 0.4375 1.125
v 0.3125 -0.1875 1.125
v 0.15625 0.3125 0.8125
v 0.15625 0.5625 0.8125
v 0.15625 0.5625 0.3125
v 0.15625 0.3125 0.3125
v 0.53125 0.3125 0.3125
v 0.53125 0.5625 0.3125
v 0.53125 0.5625 0.8125
v 0.53125 0.3125 0.8125
v 0.15625 0.1875 1.0625
v 0.15625 0.5625 1.0625
v 0.15625 0.5625 0.8125
v 0.15625 0.1875 0.8125
v 0.46875 0.1875 0.8125
v 0.46875 0.5625 0.8125
v 0.46875 0.5625 1.0625
v 0.46875 0.1875 1.0625
v 0.28125 0 0.9375
v 0.28125 0.1875 0.9375
v 0.28125 0.1875 0.8125
v 0.28125 0 0.8125
v 0.40625 0 0.8125
v 0.40625 0.1875 0.8125
v 0.40625 0.1875 0.9375
v 0.40625 0 0.9375
v -0.484375 0.3125 1.125
v -0.484375 0.5625 1.125
v -0.484375 0.5625 0.8125
v -0.484375 0.3125 0.8125
v -0.234375 0.3125 0.8125
v -0.234375 0.5625 0.8125
v -0.234375 0.5625 1.125
v -0.234375 0.3125 1.125
v 0.34375 0.0625 0.625
v 0.34375 0.1875 0.625
v 0.34375 0.1875 0.125
v 0.34375 0.0625 0.125
v 0.46875 0.0625 0.125
v 0.46875 0.1875 0.125
v 0.46875 0.1875 0.625
v 0.46875 0.0625 0.625
v 0.34375 0.0625 0.75
v 0.34375 0.3125 0.75
v 0.34375 0.3125 0.625
v 0.34375 0.0625 0.625
v 0.46875 0.0625 0.625
v 0.46875 0.3125 0.625
v 0.46875 0.3125 0.75
v 0.46875 0.0625 0.75
v 0.375 0.203125 1.25
v 0.375 0.328125 1.25
v 0.375 0.328125 1.125
v 0.375 0.203125 1.125
v 0.375 0.203125 1.125
v 0.375 0.328125 1.125
v 0.375 0.328125 1.25
v 0.375 0.203125 1.25
v 0.18785024533047578 0.02049471620031318 1.25
v 0.1254454314814227 0.3744100024390754 1.25
v 0.1254454314814227 0.3744100024390754 1.125
v 0.18785024533047578 0.02049471620031318 1.125
v 0.18785024533047578 0.02049471620031318 1.125
v 0.1254454314814227 0.3744100024390754 1.125
v 0.1254454314814227 0.3744100024390754 1.25
v 0.18785024533047578 0.02049471620031318 1.25
vt 0.4765625 0.875
vt 0.546875 0.875
vt 0.546875 0.875
vt 0.4765625 0.875
vt 0.4296875 0.5859375
vt 0.4453125 0.5859375
vt 0.4453125 0.5859375
vt 0.4296875 0.5859375
vt 0.4765625 0.8828125
vt 0.546875 0.8828125
vt 0.546875 0.8828125
vt 0.4765625 0.8828125
vt 0.421875 0.7265625
vt 0.4375 0.7265625
vt 0.4375 0.7265625
vt 0.421875 0.7265625
vt 0.3984375 0.8203125
vt 0.46875 0.8203125
vt 0.46875 0.8359375
vt 0.3984375 0.8359375
vt 0.3984375 0.8125
vt 0.46875 0.8125
vt 0.46875 0.796875
vt 0.3984375 0.796875
vt 0.453125 0.53125
vt 0.5234375 0.53125
vt 0.5234375 0.53125
vt 0.453125 0.53125
vt 0.3984375 0.765625
vt 0.4140625 0.765625
vt 0.4140625 0.765625
vt 0.3984375 0.765625
vt 0 0.7421875
vt 0.0703125 0.7421875
vt 0.0703125 0.7421875
vt 0 0.7421875
vt 0.2890625 0.75
vt 0.3046875 0.75
vt 0.3046875 0.75
vt 0.2890625 0.75
vt 0.3984375 0.8671875
vt 0.46875 0.8671875
vt 0.46875 0.8828125
vt 0.3984375 0.8828125
vt 0.3984375 0.859375
vt 0.46875 0.859375
vt 0.46875 0.84375
vt 0.3984375 0.84375
vt 0.34375 0.75
vt 0.34375 0.7578125
vt 0.328125 0.7578125
vt 0.328125 0.75
vt 0.375 0.84375
vt 0.375 0.8515625
vt 0.359375 0.8515625
vt 0.359375 0.84375
vt 0.3828125 0.5390625
vt 0.3828125 0.5234375
vt 0.3984375 0.5234375
vt 0.3984375 0.5390625
vt 0.40625 0.5234375
vt 0.40625 0.5390625
vt 0.421875 0.5390625
vt 0.421875 0.5234375
vt 0.3671875 0.75
vt 0.3671875 0.7578125
vt 0.3515625 0.7578125
vt 0.3515625 0.75
vt 0.3203125 0.921875
vt 0.3203125 0.9296875
vt 0.3046875 0.9296875
vt 0.3046875 0.921875
vt 0.3984375 0.671875
vt 0.3984375 0.703125
vt 0.296875 0.703125
vt 0.296875 0.671875
vt 0.1015625 0.6640625
vt 0.1015625 0.6953125
vt 0 0.6953125
vt 0 0.6640625
vt 0.203125 0.703125
vt 0.203125 0.6015625
vt 0.2421875 0.6015625
vt 0.2421875 0.703125
vt 0.25 0.6015625
vt 0.25 0.703125
vt 0.2890625 0.703125
vt 0.2890625 0.6015625
vt 0.4140625 0.7265625
vt 0.4140625 0.7578125
vt 0.375 0.7578125
vt 0.375 0.7265625
vt 0.1484375 0.59375
vt 0.1484375 0.625
vt 0.109375 0.625
vt 0.109375 0.59375
vt 0.125 0.921875
vt 0.125 1
vt 0 1
vt 0 0.921875
vt 0.125 0.8359375
vt 0.125 0.9140625
vt 0 0.9140625
vt 0 0.8359375
vt 0.1328125 1
vt 0.1328125 0.875
vt 0.203125 0.875
vt 0.203125 1
vt 0.1328125 0.7421875
vt 0.1328125 0.8671875
vt 0.203125 0.8671875
vt 0.203125 0.7421875
vt 0.28125 0.75
vt 0.28125 0.828125
vt 0.2109375 0.828125
vt 0.2109375 0.75
vt 0.28125 0.8359375
vt 0.28125 0.9140625
vt 0.2109375 0.9140625
vt 0.2109375 0.8359375
vt 0.390625 0.8046875
vt 0.390625 0.8359375
vt 0.328125 0.8359375
vt 0.328125 0.8046875
vt 0.390625 0.765625
vt 0.390625 0.796875
vt 0.328125 0.796875
vt 0.328125 0.765625
vt 0.3046875 1
vt 0.3046875 0.9375
vt 0.3515625 0.9375
vt 0.3515625 1
vt 0.109375 0.6328125
vt 0.109375 0.6953125
vt 0.15625 0.6953125
vt 0.15625 0.6328125
vt 0.40625 0.96875
vt 0.40625 1
vt 0.359375 1
vt 0.359375 0.96875
vt 0.390625 0.6328125
vt 0.390625 0.6640625
vt 0.34375 0.6640625
vt 0.34375 0.6328125
vt 0.390625 0.9140625
vt 0.390625 0.9609375
vt 0.359375 0.9609375
vt 0.359375 0.9140625
vt 0.390625 0.859375
vt 0.390625 0.90625
vt 0.359375 0.90625
vt 0.359375 0.859375
vt 0.3984375 0.9609375
vt 0.3984375 0.9296875
vt 0.4375 0.9296875
vt 0.4375 0.9609375
vt 0.3984375 0.890625
vt 0.3984375 0.921875
vt 0.4375 0.921875
vt 0.4375 0.890625
vt 0.0390625 0.609375
vt 0.0390625 0.65625
vt 0 0.65625
vt 0 0.609375
vt 0.3359375 0.6171875
vt 0.3359375 0.6640625
vt 0.296875 0.6640625
vt 0.296875 0.6171875
vt 0.3515625 0.5234375
vt 0.3515625 0.546875
vt 0.3359375 0.546875
vt 0.3359375 0.5234375
vt 0.46875 0.609375
vt 0.46875 0.6328125
vt 0.453125 0.6328125
vt 0.453125 0.609375
vt 0.4609375 0.7421875
vt 0.4609375 0.7265625
vt 0.4765625 0.7265625
vt 0.4765625 0.7421875
vt 0.4609375 0.6796875
vt 0.4609375 0.6953125
vt 0.4765625 0.6953125
vt 0.4765625 0.6796875
vt 0.375 0.5234375
vt 0.375 0.546875
vt 0.359375 0.546875
vt 0.359375 0.5234375
vt 0.125 0.5234375
vt 0.125 0.546875
vt 0.109375 0.546875
vt 0.109375 0.5234375
vt 0.3828125 0.59375
vt 0.3828125 0.625
vt 0.34375 0.625
vt 0.34375 0.59375
vt 0.3359375 0.578125
vt 0.3359375 0.609375
vt 0.296875 0.609375
vt 0.296875 0.578125
vt 0.390625 0.625
vt 0.390625 0.5859375
vt 0.421875 0.5859375
vt 0.421875 0.625
vt 0 0.5625
vt 0 0.6015625
vt 0.03125 0.6015625
vt 0.03125 0.5625
vt 0.234375 0.5625
vt 0.234375 0.59375
vt 0.203125 0.59375
vt 0.203125 0.5625
vt 0.4296875 0.6328125
vt 0.4296875 0.6640625
vt 0.3984375 0.6640625
vt 0.3984375 0.6328125
vt 0.4609375 0.7734375
vt 0.4609375 0.7890625
vt 0.3984375 0.7890625
vt 0.3984375 0.7734375
vt 0.46875 0.703125
vt 0.46875 0.71875
vt 0.40625 0.71875
vt 0.40625 0.703125
vt 0.2421875 0.59375
vt 0.2421875 0.53125
vt 0.2578125 0.53125
vt 0.2578125 0.59375
vt 0.265625 0.53125
vt 0.265625 0.59375
vt 0.28125 0.59375
vt 0.28125 0.53125
vt 0.015625 0.515625
vt 0.015625 0.53125
vt 0 0.53125
vt 0 0.515625
vt 0.4765625 0.5390625
vt 0.4765625 0.5546875
vt 0.4609375 0.5546875
vt 0.4609375 0.5390625
vt 0.1953125 0.5390625
vt 0.1953125 0.5703125
vt 0.1796875 0.5703125
vt 0.1796875 0.5390625
vt 0.328125 0.5390625
vt 0.328125 0.5703125
vt 0.3125 0.5703125
vt 0.3125 0.5390625
vt 0.4609375 0.578125
vt 0.4609375 0.5625
vt 0.4765625 0.5625
vt 0.4765625 0.578125
vt 0.4296875 0.5234375
vt 0.4296875 0.5390625
vt 0.4453125 0.5390625
vt 0.4453125 0.5234375
vt 0.3046875 0.5390625
vt 0.3046875 0.5703125
vt 0.2890625 0.5703125
vt 0.2890625 0.5390625
vt 0.1015625 0.5390625
vt 0.1015625 0.5703125
vt 0.0859375 0.5703125
vt 0.0859375 0.5390625
vt 0.3046875 0.515625
vt 0.3046875 0.53125
vt 0.2890625 0.53125
vt 0.2890625 0.515625
vt 0.328125 0.515625
vt 0.328125 0.53125
vt 0.3125 0.53125
vt 0.3125 0.515625
vt 0.125 0.765625
vt 0.125 0.765625
vt 0.125 0.78125
vt 0.125 0.78125
vt 0.125 0.7578125
vt 0.125 0.7578125
vt 0.125 0.7421875
vt 0.125 0.7421875
vt 0.125 0.8046875
vt 0.125 0.8046875
vt 0.125 0.7890625
vt 0.125 0.7890625
vt 0.125 0.828125
vt 0.125 0.828125
vt 0.125 0.8125
vt 0.125 0.8125
vt 0.0546875 0.5234375
vt 0.0546875 0.5703125
vt 0.0390625 0.5703125
vt 0.0390625 0.5234375
vt 0.078125 0.5234375
vt 0.078125 0.5703125
vt 0.0625 0.5703125
vt 0.0625 0.5234375
vt 0.203125 0.71875
vt 0.203125 0.71875
vt 0.203125 0.734375
vt 0.203125 0.734375
vt 0.0390625 0.6015625
vt 0.0390625 0.6015625
vt 0.0390625 0.5859375
vt 0.0390625 0.5859375
vt 0.4765625 0.8671875
vt 0.4765625 0.8671875
vt 0.4765625 0.8203125
vt 0.4765625 0.8203125
vt 0.15625 0.625
vt 0.15625 0.625
vt 0.15625 0.578125
vt 0.15625 0.578125
vn 0 0 0
vn 0 0 0
vn 0 0 0
vn 0 0 0
vn -0.07845909572784458 0.996917333733128 0
vn 0.07845909572784458 -0.996917333733128 0
vn 0 0 0
vn 0 0 0
vn 0 0 0
vn 0 0 0
vn 0.8616291604415258 0.5075383629607041 0
vn -0.8616291604415258 -0.5075383629607041 0
vn -1 0 0
vn 1 0 0
vn 0 1 0
vn 0 -1 0
vn 0 0 -1
vn 0 0 1
vn -1 0 0
vn 1 0 0
vn 0 1 0
vn 0 -1 0
vn 0 0 -1
vn 0 0 1
vn -1 0 0
vn 1 0 0
vn 0 1 0
vn 0 -1 0
vn 0 0 -1
vn 0 0 1
vn -1 0 0
vn 1 0 0
vn 0 1 0
vn 0 -1 0
vn 0 0 -1
vn 0 0 1
vn -1 0 0
vn 1 0 0
vn 0 1 0
vn 0 -1 0
vn 0 0 -1
vn 0 0 1
vn -1 0 0
vn 1 0 0
vn 0 1 0
vn 0 -1 0
vn 0 0 -1
vn 0 0 1
vn -1 0 0
vn 1 0 0
vn 0 1 0
vn 0 -1 0
vn 0 0 -1
vn 0 0 1
vn -1 0 0
vn 1 0 0
vn 0 1 0
vn 0 -1 0
vn 0 0 -1
vn 0 0 1
vn -1 0 0
vn 1 0 0
vn 0 1 0
vn 0 -1 0
vn 0 0 -1
vn 0 0 1
vn -1 0 0
vn 1 0 0
vn 0 0 0
vn 0 0 0
vn 0 0 0
vn 0 0 0
vn -0.9848077530122081 -0.17364817766693033 0
vn 0.9848077530122081 0.17364817766693033 0
vn 0 0 0
vn 0 0 0
vn 0 0 0
vn 0 0 0
usemtl none
f 49/145/37 50/146/37 51/147/37 52/148/37
f 53/149/38 49/150/38 52/151/38 54/152/38
f 55/153/39 53/154/39 54/155/39 56/156/39
f 50/157/40 55/158/40 56/159/40 51/160/40
f 56/161/41 54/162/41 52/163/41 51/164/41
f 50/165/42 49/166/42 53/167/42 55/168/42
f 57/169/43 58/170/43 59/171/43 60/172/43
f 61/173/44 57/174/44 60/175/44 62/176/44
f 63/177/45 61/178/45 62/179/45 64/180/45
f 58/181/46 63/182/46 64/183/46 59/184/46
f 64/185/47 62/186/47 60/187/47 59/188/47
f 58/189/48 57/190/48 61/191/48 63/192/48
f 65/193/49 66/194/49 67/195/49 68/196/49
f 69/197/50 70/198/50 71/199/50 72/200/50
f 67/201/51 66/202/51 71/203/51 70/204/51
f 65/205/52 68/206/52 69/207/52 72/208/52
f 68/209/53 67/210/53 70/211/53 69/212/53
f 72/213/54 71/214/54 66/215/54 65/216/54
f 73/217/55 74/218/55 75/219/55 76/220/55
f 77/221/56 78/222/56 79/223/56 80/224/56
f 75/225/57 74/226/57 79/227/57 78/228/57
f 73/229/58 76/230/58 77/231/58 80/232/58
f 76/233/59 75/234/59 78/235/59 77/236/59
f 80/237/60 79/238/60 74/239/60 73/240/60
f 81/241/61 82/242/61 83/243/61 84/244/61
f 85/245/62 86/246/62 87/247/62 88/248/62
f 83/249/63 82/250/63 87/251/63 86/252/63
f 81/253/64 84/254/64 85/255/64 88/256/64
f 84/257/65 83/258/65 86/259/65 85/260/65
f 88/261/66 87/262/66 82/263/66 81/264/66
f 89/265/67 90/266/67 91/267/67 92/268/67
f 93/269/68 94/270/68 95/271/68 96/272/68
f 91/273/69 90/274/69 95/275/69 94/276/69
f 89/277/70 92/278/70 93/279/70 96/280/70
f 92/281/71 91/282/71 94/283/71 93/284/71
f 96/285/72 95/286/72 90/287/72 89/288/72
f 97/289/73 98/290/73 99/291/73 100/292/73
f 101/293/74 102/294/74 103/295/74 104/296/74
f 99/297/75 98/298/75 103/299/75 102/300/75
f 97/301/76 100/302/76 101/303/76 104/304/76
f 100/305/77 99/306/77 102/307/77 101/308/77
f 104/309/78 103/310/78 98/311/78 97/312/78
f 105/313/79 106/314/79 107/315/79 108/316/79
f 109/317/80 110/318/80 111/319/80 112/320/80
f 107/321/81 106/322/81 111/323/81 110/324/81
f 105/325/82 108/326/82 109/327/82 112/328/82
f 108/329/83 107/330/83 110/331/83 109/332/83
f 112/333/84 111/334/84 106/335/84 105/336/84
f 113/337/85 114/338/85 115/339/85 116/340/85
f 117/341/86 118/342/86 119/343/86 120/344/86
f 115/345/87 114/346/87 119/347/87 118/348/87
f 113/349/88 116/350/88 117/351/88 120/352/88
f 116/353/89 115/354/89 118/355/89 117/356/89
f 120/357/90 119/358/90 114/359/90 113/360/90
f 121/361/91 122/362/91 123/363/91 124/364/91
f 125/365/92 126/366/92 127/367/92 128/368/92
f 123/369/93 122/370/93 127/371/93 126/372/93
f 121/373/94 124/374/94 125/375/94 128/376/94
f 124/377/95 123/378/95 126/379/95 125/380/95
f 128/381/96 127/382/96 122/383/96 121/384/96
f 129/385/97 130/386/97 131/387/97 132/388/97
f 133/389/98 134/390/98 135/391/98 136/392/98
f 131/393/99 130/394/99 135/395/99 134/396/99
f 129/397/100 132/398/100 133/399/100 136/400/100
f 132/401/101 131/402/101 134/403/101 133/404/101
f 136/405/102 135/406/102 130/407/102 129/408/102
f 137/409/103 138/410/103 139/411/103 140/412/103
f 141/413/104 142/414/104 143/415/104 144/416/104
f 138/417/105 143/418/105 139/419/105 142/420/105
f 140/421/106 141/422/106 137/423/106 144/424/106
f 139/425/107 142/426/107 140/427/107 141/428/107
f 143/429/108 138/430/108 144/431/108 137/432/108
f 145/433/109 146/434/109 147/435/109 148/436/109
f 149/437/110 150/438/110 151/439/110 152/440/110
f 146/441/111 151/442/111 147/443/111 150/444/111
f 148/445/112 149/446/112 145/447/112 152/448/112
f 147/449/113 150/450/113 148/451/113 149/452/113
f 151/453/114 146/454/114 152/455/114 145/456/114