# Made in Blockbench 4.9.4
mtllib gunfireextinguisher.mtl

o extinguisher
v 0.125 0.71875 0.125
v 0.125 0.71875 -0.125
v 0.125 0.03125 0.125
v 0.125 0.03125 -0.125
v -0.125 0.71875 0.125
v -0.125 0.71875 -0.125
v -0.125 0.03125 0.125
v -0.125 0.03125 -0.125
v 0.03125 0.84375 -0.03125
v 0.03125 0.84375 -0.21875
v 0.03125 0.78125 -0.03125
v 0.03125 0.78125 -0.21875
v -0.03125 0.84375 -0.03125
v -0.03125 0.84375 -0.21875
v -0.03125 0.78125 -0.03125
v -0.03125 0.78125 -0.21875
v 0.03125 0.90625 0.03125
v 0.03125 0.90625 -0.03125
v 0.03125 0.71875 0.03125
v 0.03125 0.71875 -0.03125
v -0.03125 0.90625 0.03125
v -0.03125 0.90625 -0.03125
v -0.03125 0.71875 0.03125
v -0.03125 0.71875 -0.03125
v 0.03125 0.78125 0.21875
v 0.03125 0.78125 0.03125
v 0.03125 0.71875 0.21875
v 0.03125 0.71875 0.03125
v -0.03125 0.78125 0.21875
v -0.03125 0.78125 0.03125
v -0.03125 0.71875 0.21875
v -0.03125 0.71875 0.03125
v 0.03125 0.875 0.0625
v 0.03125 0.875 -0.0625
v 0.03125 0.75 0.0625
v 0.03125 0.75 -0.0625
v 0.09375 0.875 0.0625
v 0.09375 0.875 -0.0625
v 0.09375 0.75 0.0625
v 0.09375 0.75 -0.0625
v 0.09453124999999996 0.86328125 0.0625
v 0.09453124999999996 0.86328125 -0.0625
v 0.09453124999999996 0.78515625 0.0625
v 0.09453124999999996 0.78515625 -0.0625
vt 0.15625 0.5
vt 0.28125 0.5
vt 0.28125 0.625
vt 0.15625 0.625
vt 0.4375 0.5
vt 0.4375 0.625
vt 0.3125 0.625
vt 0.3125 0.5
vt 0.125 0.65625
vt 0.125 1
vt 0 1
vt 0 0.65625
vt 0.28125 1
vt 0.15625 1
vt 0.15625 0.65625
vt 0.28125 0.65625
vt 0.3125 1
vt 0.4375 1
vt 0.4375 0.65625
vt 0.3125 0.65625
vt 0.125 0.28125
vt 0.125 0.625
vt 0 0.625
vt 0 0.28125
vt 0.5625 0.375
vt 0.59375 0.375
vt 0.59375 0.46875
vt 0.5625 0.46875
vt 0.65625 0.90625
vt 0.65625 1
vt 0.625 1
vt 0.625 0.90625
vt 0.75 0.5625
vt 0.75 0.59375
vt 0.71875 0.59375
vt 0.71875 0.5625
vt 0.75 0.53125
vt 0.71875 0.53125
vt 0.71875 0.5
vt 0.75 0.5
vt 0.71875 0.46875
vt 0.625 0.46875
vt 0.625 0.4375
vt 0.71875 0.4375
vt 0.71875 0.375
vt 0.71875 0.40625
vt 0.625 0.40625
vt 0.625 0.375
vt 0.6875 0.25
vt 0.71875 0.25
vt 0.71875 0.28125
vt 0.6875 0.28125
vt 0.03125 0.21875
vt 0.03125 0.25
vt 0 0.25
vt 0 0.21875
vt 0.6875 0.78125
vt 0.6875 0.875
vt 0.65625 0.875
vt 0.65625 0.78125
vt 0.6875 0.75
vt 0.65625 0.75
vt 0.65625 0.65625
vt 0.6875 0.65625
vt 0.6875 0.625
vt 0.65625 0.625
vt 0.65625 0.53125
vt 0.6875 0.53125
vt 0.59375 0.25
vt 0.59375 0.34375
vt 0.5625 0.34375
vt 0.5625 0.25
vt 0.625 0.25
vt 0.65625 0.25
vt 0.65625 0.34375
vt 0.625 0.34375
vt 0.71875 0.90625
vt 0.71875 1
vt 0.6875 1
vt 0.6875 0.90625
vt 0.78125 0.96875
vt 0.78125 1
vt 0.75 1
vt 0.75 0.96875
vt 0.09375 0.25
vt 0.0625 0.25
vt 0.0625 0.21875
vt 0.09375 0.21875
vt 0.34375 0.3125
vt 0.25 0.3125
vt 0.25 0.28125
vt 0.34375 0.28125
vt 0.78125 0.3125
vt 0.78125 0.34375
vt 0.6875 0.34375
vt 0.6875 0.3125
vt 0.40625 0.3125
vt 0.40625 0.25
vt 0.375 0.25
vt 0.375 0.3125
vt 0.71875 0.875
vt 0.75 0.875
vt 0.75 0.8125
vt 0.71875 0.8125
vt 0.71875 0.78125
vt 0.75 0.78125
vt 0.75 0.71875
vt 0.71875 0.71875
vt 0.71875 0.625
vt 0.71875 0.6875
vt 0.75 0.6875
vt 0.75 0.625
vt 0.5625 0.59375
vt 0.5625 0.65625
vt 0.625 0.65625
vt 0.625 0.59375
vt 0.5625 0.5625
vt 0.625 0.5625
vt 0.625 0.5
vt 0.5625 0.5
vt 0.34374999999999994 0
vt 0.34374999999999994 0.21875
vt 0 0.21875
vt 0 0
vn 0 1 0
vn 0 -1 0
vn 0 0 1
vn 0 0 -1
vn 1 0 0
vn -1 0 0
vn 0 1 0
vn 0 -1 0
vn 0 0 1
vn 0 0 -1
vn 1 0 0
vn -1 0 0
vn 0 1 0
vn 0 -1 0
vn 0 0 1
vn 0 0 -1
vn 1 0 0
vn -1 0 0
vn 0 1 0
vn 0 -1 0
vn 0 0 1
vn 0 0 -1
vn 1 0 0
vn -1 0 0
vn 0 1 0
vn 0 -1 0
vn 0 0 1
vn 0 0 -1
vn -1 0 0
vn 1 0 0
vn 1 0 0
usemtl m_2dee5e95-e93e-c36b-3973-509836ba82d1
f 5/1/1 1/2/1 2/3/1 6/4/1
f 4/5/2 3/6/2 7/7/2 8/8/2
f 3/9/3 1/10/3 5/11/3 7/12/3
f 6/13/4 2/14/4 4/15/4 8/16/4
f 2/17/5 1/18/5 3/19/5 4/20/5
f 7/21/6 5/22/6 6/23/6 8/24/6
f 13/25/7 9/26/7 10/27/7 14/28/7
f 12/29/8 11/30/8 15/31/8 16/32/8
f 11/33/9 9/34/9 13/35/9 15/36/9
f 14/37/10 10/38/10 12/39/10 16/40/10
f 10/41/11 9/42/11 11/43/11 12/44/11
f 15/45/12 13/46/12 14/47/12 16/48/12
f 21/49/13 17/50/13 18/51/13 22/52/13
f 20/53/14 19/54/14 23/55/14 24/56/14
f 19/57/15 17/58/15 21/59/15 23/60/15
f 22/61/16 18/62/16 20/63/16 24/64/16
f 18/65/17 17/66/17 19/67/17 20/68/17
f 23/69/18 21/70/18 22/71/18 24/72/18
f 29/73/19 25/74/19 26/75/19 30/76/19
f 28/77/20 27/78/20 31/79/20 32/80/20
f 27/81/21 25/82/21 29/83/21 31/84/21
f 30/85/22 26/86/22 28/87/22 32/88/22
f 26/89/23 25/90/23 27/91/23 28/92/23
f 31/93/24 29/94/24 30/95/24 32/96/24
f 34/97/25 33/98/25 37/99/25 38/100/25
f 39/101/26 35/102/26 36/103/26 40/104/26
f 37/105/27 33/106/27 35/107/27 39/108/27
f 36/109/28 34/110/28 38/111/28 40/112/28
f 35/113/29 33/114/29 34/115/29 36/116/29
f 38/117/30 37/118/30 39/119/30 40/120/30
f 44/121/31 42/122/31 41/123/31 43/124/31
o extingusher_hose
v 0.03125 0.71875 0.21875
v 0.03125 0.71875 0.15625
v 0.03125 0.46875 0.21875
v 0.03125 0.46875 0.15625
v -0.03125 0.71875 0.21875
v -0.03125 0.71875 0.15625
v -0.03125 0.46875 0.21875
v -0.03125 0.46875 0.15625
v 0.0625 0.46875 0.25
v 0.0625 0.46875 0.125
v 0.0625 0.0625 0.25
v 0.0625 0.0625 0.125
v -0.0625 0.46875 0.25
v -0.0625 0.46875 0.125
v -0.0625 0.0625 0.25
v -0.0625 0.0625 0.125
vt 0.75 0.90625
vt 0.78125 0.90625
vt 0.78125 0.9375
vt 0.75 0.9375
vt 0.28125 0.21875
vt 0.28125 0.25
vt 0.25 0.25
vt 0.25 0.21875
vt 0.28125 0.34375
vt 0.28125 0.46875
vt 0.25 0.46875
vt 0.25 0.34375
vt 0.34375 0.46875
vt 0.3125 0.46875
vt 0.3125 0.34375
vt 0.34375 0.34375
vt 0.40625 0.46875
vt 0.375 0.46875
vt 0.375 0.34375
vt 0.40625 0.34375
vt 0.59375 0.875
vt 0.59375 1
vt 0.5625 1
vt 0.5625 0.875
vt 0.5625 0.78125
vt 0.625 0.78125
vt 0.625 0.84375
vt 0.5625 0.84375
vt 0.625 0.6875
vt 0.625 0.75
vt 0.5625 0.75
vt 0.5625 0.6875
vt 0.21875 0.25
vt 0.21875 0.46875
vt 0.15625 0.46875
vt 0.15625 0.25
vt 0.21875 0.46875
vt 0.15625 0.46875
vt 0.15625 0.25
vt 0.21875 0.25
vt 0.15625 0.46875
vt 0.21875 0.46875
vt 0.21875 0.25
vt 0.15625 0.25
vt 0.21875 0.25
vt 0.21875 0.46875
vt 0.15625 0.46875
vt 0.15625 0.25
vn 0 1 0
vn 0 -1 0
vn 0 0 1
vn 0 0 -1
vn 1 0 0
vn -1 0 0
vn 0 1 0
vn 0 -1 0
vn 0 0 1
vn 0 0 -1
vn 1 0 0
vn -1 0 0
usemtl m_2dee5e95-e93e-c36b-3973-509836ba82d1
f 49/125/32 45/126/32 46/127/32 50/128/32
f 48/129/33 47/130/33 51/131/33 52/132/33
f 47/133/34 45/134/34 49/135/34 51/136/34
f 50/137/35 46/138/35 48/139/35 52/140/35
f 46/141/36 45/142/36 47/143/36 48/144/36
f 51/145/37 49/146/37 50/147/37 52/148/37
f 57/149/38 53/150/38 54/151/38 58/152/38
f 56/153/39 55/154/39 59/155/39 60/156/39
f 55/157/40 53/158/40 57/159/40 59/160/40
f 58/161/41 54/162/41 56/163/41 60/164/41
f 54/165/42 53/166/42 55/167/42 56/168/42
f 59/169/43 57/170/43 58/171/43 60/172/43
o ammo_gauge
v 0.1015625 0.813055217280199 -0.04419417382415923
v 0.1015625 0.8020066738241592 -0.05524271728019903
v 0.1015625 0.7578125 0.011048543456039804
v 0.1015625 0.7467639565439602 8.673617379884035e-19
v 0.09375 0.813055217280199 -0.04419417382415923
v 0.09375 0.8020066738241592 -0.05524271728019903
v 0.09375 0.7578125 0.011048543456039804
v 0.09375 0.7467639565439602 8.673617379884035e-19
vt 0.1640625 0.4140625
vt 0.1640625 0.453125
vt 0.15625 0.453125
vt 0.15625 0.4140625
vt 0.1640625 0.4140625
vt 0.1640625 0.453125
vt 0.15625 0.453125
vt 0.15625 0.4140625
vt 0.16015625 0.4453125
vt 0.16015625 0.453125
vt 0.15625 0.453125
vt 0.15625 0.4453125
vt 0.16015625 0.4453125
vt 0.16015625 0.453125
vt 0.15625 0.453125
vt 0.15625 0.4453125
vt 0.16015625 0.4140625
vt 0.16015625 0.453125
vt 0.15625 0.453125
vt 0.15625 0.4140625
vt 0.16015625 0.4140625
vt 0.16015625 0.453125
vt 0.15625 0.453125
vt 0.15625 0.4140625
vn 1 0 0
vn -1 0 0
vn 0 0.7071067811865475 -0.7071067811865476
vn 0 -0.7071067811865475 0.7071067811865476
vn 0 0.7071067811865476 0.7071067811865475
vn 0 -0.7071067811865476 -0.7071067811865475
usemtl m_2dee5e95-e93e-c36b-3973-509836ba82d1
f 64/173/44 62/174/44 61/175/44 63/176/44
f 67/177/45 65/178/45 66/179/45 68/180/45
f 61/181/46 62/182/46 66/183/46 65/184/46
f 64/185/47 63/186/47 67/187/47 68/188/47
f 63/189/48 61/190/48 65/191/48 67/192/48
f 68/193/49 66/194/49 62/195/49 64/196/49