# Made in Blockbench 4.10.4
mtllib gunflaregun.mtl

o frame
v -0.029687500000000006 -0.1859375 0.1234375
v 0.029687500000000006 -0.1859375 0.1234375
v 0.029687500000000006 -0.1859375 -0.060937500000000006
v -0.029687500000000006 -0.1859375 -0.060937500000000006
v -0.029687500000000006 -0.0640625 0.1234375
v 0.029687500000000006 -0.0640625 0.1234375
v 0.029687500000000006 -0.0640625 -0.060937500000000006
v -0.029687500000000006 -0.0640625 -0.060937500000000006
v 0.029687500000000006 -0.1875 -0.0625
v 0.029687500000000006 -0.1875 0.125
v -0.029687500000000006 -0.1875 0.125
v -0.029687500000000006 -0.1875 -0.0625
v 0.029687500000000006 -0.0625 0.125
v -0.029687500000000006 -0.0625 0.125
v -0.029687500000000006 -0.0625 -0.0625
v 0.029687500000000006 -0.0625 -0.0625
v 0.029687500000000006 -0.0625 -0.0625
v 0.029687500000000006 0 -0.0625
v 0.029687500000000006 0 0.25
v 0.029687500000000006 -0.0625 0.25
v -0.029687500000000006 -0.0625 0.25
v -0.029687500000000006 0 0.25
v -0.029687500000000006 0 -0.0625
v -0.029687500000000006 -0.0625 -0.0625
v 0.03125 -0.31110268123530327 -0.19161636834186585
v 0.03125 -0.23500750260921321 -0.2907855358782703
v 0.03125 0.0625 -0.0625
v 0.03125 -0.013595178626090082 0.036669167536404396
v -0.03125 -0.013595178626090082 0.036669167536404396
v -0.03125 0.0625 -0.0625
v -0.03125 -0.23500750260921321 -0.2907855358782703
v -0.03125 -0.31110268123530327 -0.19161636834186585
v 0.029687500000000006 0 -0.0625
v 0.029687500000000006 0.0625 -0.0625
v 0.029687500000000006 0.0625 0
v 0.029687500000000006 0 0
v -0.029687500000000006 0 0
v -0.029687500000000006 0.0625 0
v -0.029687500000000006 0.0625 -0.0625
v -0.029687500000000006 0 -0.0625
vt 0.4375 0.65625
vt 0.46875 0.65625
vt 0.46875 0.5625
vt 0.4375 0.5625
vt 0.5 1
vt 0.53125 1
vt 0.53125 0.9375
vt 0.5 0.9375
vt 0.0625 0.5
vt 0.09375 0.5
vt 0.09375 0.4375
vt 0.0625 0.4375
vt 0.46875 0.4375
vt 0.46875 0.53125
vt 0.4375 0.53125
vt 0.4375 0.4375
vt 0.53125 0.84375
vt 0.53125 0.90625
vt 0.5 0.90625
vt 0.5 0.84375
vt 0.15625 0.4375
vt 0.15625 0.5
vt 0.125 0.5
vt 0.125 0.4375
vt 0.375 0.875
vt 0.375 0.90625
vt 0.21875 0.90625
vt 0.21875 0.875
vt 0.46875 0.6875
vt 0.46875 0.71875
vt 0.3125 0.71875
vt 0.3125 0.6875
vt 0.3125 0.65625
vt 0.3125 0.5
vt 0.34375 0.5
vt 0.34375 0.65625
vt 0.375 0.5
vt 0.375 0.65625
vt 0.40625 0.65625
vt 0.40625 0.5
vt 0.53125 0.6875
vt 0.53125 0.71875
vt 0.5 0.71875
vt 0.5 0.6875
vt 0.28125 0.46875
vt 0.28125 0.5
vt 0.25 0.5
vt 0.25 0.46875
vt 0.375 0.75
vt 0.375 0.8125
vt 0.1875 0.8125
vt 0.1875 0.75
vt 0.40625 0.9375
vt 0.40625 1
vt 0.21875 1
vt 0.21875 0.9375
vt 0.1875 0.71875
vt 0.1875 0.53125
vt 0.21875 0.53125
vt 0.21875 0.71875
vt 0.25 0.53125
vt 0.25 0.71875
vt 0.28125 0.71875
vt 0.28125 0.53125
vt 0.03125 0.4375
vt 0.03125 0.5
vt 0 0.5
vt 0 0.4375
vt 0.46875 0.9375
vt 0.46875 1
vt 0.4375 1
vt 0.4375 0.9375
vt 0.53125 0.5625
vt 0.53125 0.59375
vt 0.5 0.59375
vt 0.5 0.5625
vt 0.34375 0.4375
vt 0.34375 0.46875
vt 0.3125 0.46875
vt 0.3125 0.4375
vt 0.375 0.46875
vt 0.375 0.4375
vt 0.40625 0.4375
vt 0.40625 0.46875
vt 0.5 0.4375
vt 0.5 0.46875
vt 0.53125 0.46875
vt 0.53125 0.4375
vt 0.53125 0.5
vt 0.53125 0.53125
vt 0.5 0.53125
vt 0.5 0.5
vt 0.53125 0.625
vt 0.53125 0.65625
vt 0.5 0.65625
vt 0.5 0.625
vn 0 1 0
vn 0 0 -1
vn 0 0 1
vn 0 -1 0
vn 0 0 1
vn 0 0 -1
vn 1 0 0
vn -1 0 0
vn 0 1 0
vn 0 -1 0
vn 0 0 1
vn 0 0 -1
vn 1 0 0
vn -1 0 0
vn 0 0.6087614290087207 -0.7933533402912352
vn 0 -0.6087614290087207 0.7933533402912354
vn 0 0.7933533402912352 0.6087614290087207
vn 0 -0.7933533402912354 -0.6087614290087204
vn 1 0 0
vn -1 0 0
vn 0 1 0
vn 0 -1 0
vn 0 0 1
vn 0 0 -1
usemtl none
f 1/1/1 2/2/1 3/3/1 4/4/1
f 5/5/2 6/6/2 2/7/2 1/8/2
f 7/9/3 8/10/3 4/11/3 3/12/3
f 9/13/4 10/14/4 11/15/4 12/16/4
f 10/17/5 13/18/5 14/19/5 11/20/5
f 12/21/6 15/22/6 16/23/6 9/24/6
f 17/25/7 18/26/7 19/27/7 20/28/7
f 21/29/8 22/30/8 23/31/8 24/32/8
f 19/33/9 18/34/9 23/35/9 22/36/9
f 17/37/10 20/38/10 21/39/10 24/40/10
f 20/41/11 19/42/11 22/43/11 21/44/11
f 24/45/12 23/46/12 18/47/12 17/48/12
f 25/49/13 26/50/13 27/51/13 28/52/13
f 29/53/14 30/54/14 31/55/14 32/56/14
f 27/57/15 26/58/15 31/59/15 30/60/15
f 25/61/16 28/62/16 29/63/16 32/64/16
f 28/65/17 27/66/17 30/67/17 29/68/17
f 32/69/18 31/70/18 26/71/18 25/72/18
f 33/73/19 34/74/19 35/75/19 36/76/19
f 37/77/20 38/78/20 39/79/20 40/80/20
f 35/81/21 34/82/21 39/83/21 38/84/21
f 33/85/22 36/86/22 37/87/22 40/88/22
f 36/89/23 35/90/23 38/91/23 37/92/23
f 40/93/24 39/94/24 34/95/24 33/96/24
o hammer
v 0 0 -0.049999999999999996
v 0 0.125 -0.049999999999999996
v 0 0.125 0.012500000000000004
v 0 0 0.012500000000000004
v 0 0 0.012500000000000004
v 0 0.125 0.012500000000000004
v 0 0.125 -0.049999999999999996
v 0 0 -0.049999999999999996
vt 0.4375 0.84375
vt 0.4375 0.90625
vt 0.40625 0.90625
vt 0.40625 0.84375
vt 0.46875 0.75
vt 0.46875 0.8125
vt 0.4375 0.8125
vt 0.4375 0.75
vt 0.5625 0.75
vt 0.5625 0.75
vt 0.5625 0.8125
vt 0.5625 0.8125
vt 0.25 0.4375
vt 0.25 0.4375
vt 0.25 0.375
vt 0.25 0.375
vt 0.5625 0.90625
vt 0.5625 0.90625
vt 0.5625 0.84375
vt 0.5625 0.84375
vt 0.5625 1
vt 0.5625 1
vt 0.5625 0.9375
vt 0.5625 0.9375
vn 1 0 0
vn -1 0 0
vn 0 0 0
vn 0 0 0
vn 0 0 0
vn 0 0 0
usemtl none
f 41/97/25 42/98/25 43/99/25 44/100/25
f 45/101/26 46/102/26 47/103/26 48/104/26
f 42/105/27 47/106/27 43/107/27 46/108/27
f 44/109/28 45/110/28 41/111/28 48/112/28
f 43/113/29 46/114/29 44/115/29 45/116/29
f 47/117/30 42/118/30 48/119/30 41/120/30
o trigger
v 0 -0.15625 -0.015625
v 0 -0.03125 -0.015625
v 0 -0.03125 0.046875
v 0 -0.15625 0.046875
v 0 -0.15625 0.046875
v 0 -0.03125 0.046875
v 0 -0.03125 -0.015625
v 0 -0.15625 -0.015625
vt 0.21875 0.4375
vt 0.21875 0.5
vt 0.1875 0.5
vt 0.1875 0.4375
vt 0.53125 0.75
vt 0.53125 0.8125
vt 0.5 0.8125
vt 0.5 0.75
vt 0.5625 0.59375
vt 0.5625 0.59375
vt 0.5625 0.625
vt 0.5625 0.625
vt 0.5625 0.5625
vt 0.5625 0.5625
vt 0.5625 0.53125
vt 0.5625 0.53125
vt 0.5625 0.71875
vt 0.5625 0.71875
vt 0.5625 0.65625
vt 0.5625 0.65625
vt 0.28125 0.4375
vt 0.28125 0.4375
vt 0.28125 0.375
vt 0.28125 0.375
vn 1 0 0
vn -1 0 0
vn 0 0 0
vn 0 0 0
vn 0 0 0
vn 0 0 0
usemtl none
f 49/121/31 50/122/31 51/123/31 52/124/31
f 53/125/32 54/126/32 55/127/32 56/128/32
f 50/129/33 55/130/33 51/131/33 54/132/33
f 52/133/34 53/134/34 49/135/34 56/136/34
f 51/137/35 54/138/35 52/139/35 53/140/35
f 55/141/36 50/142/36 56/143/36 49/144/36
o $barrel
v 0 0.09375 0.03125
v 0 0.15625 0.03125
v 0 0.15625 0.09375
v 0 0.09375 0.09375
v 0 0.09375 0.09375
v 0 0.15625 0.09375
v 0 0.15625 0.03125
v 0 0.09375 0.03125
v 0.0625 0 0
v 0.0625 0.125 0
v 0.0625 0.125 0.375
v 0.0625 0 0.375
v -0.0625 0 0.375
v -0.0625 0.125 0.375
v -0.0625 0.125 0
v -0.0625 0 0
vt 0.03125 0.96875
vt 0.03125 1
vt 0 1
vt 0 0.96875
vt 0.03125 0.96875
vt 0.03125 1
vt 0 1
vt 0 0.96875
vt 0 1
vt 0 1
vt 0 0.96875
vt 0 0.96875
vt 0 1
vt 0 1
vt 0 0.96875
vt 0 0.96875
vt 0 1
vt 0 1
vt 0 0.96875
vt 0 0.96875
vt 0 1
vt 0 1
vt 0 0.96875
vt 0 0.96875
vt 0.1875 0.9375
vt 0.1875 1
vt 0 1
vt 0 0.9375
vt 0.1875 0.84375
vt 0.1875 0.90625
vt 0 0.90625
vt 0 0.84375
vt 0 0.8125
vt 0 0.625
vt 0.0625 0.625
vt 0.0625 0.8125
vt 0.09375 0.625
vt 0.09375 0.8125
vt 0.15625 0.8125
vt 0.15625 0.625
vt 0.15625 0.53125
vt 0.15625 0.59375
vt 0.09375 0.59375
vt 0.09375 0.53125
vt 0.0625 0.53125
vt 0.0625 0.59375
vt 0 0.59375
vt 0 0.53125
vn 1 0 0
vn -1 0 0
vn 0 0 0
vn 0 0 0
vn 0 0 0
vn 0 0 0
vn 1 0 0
vn -1 0 0
vn 0 1 0
vn 0 -1 0
vn 0 0 1
vn 0 0 -1
usemtl none
f 57/145/37 58/146/37 59/147/37 60/148/37
f 61/149/38 62/150/38 63/151/38 64/152/38
f 58/153/39 63/154/39 59/155/39 62/156/39
f 60/157/40 61/158/40 57/159/40 64/160/40
f 59/161/41 62/162/41 60/163/41 61/164/41
f 63/165/42 58/166/42 64/167/42 57/168/42
f 65/169/43 66/170/43 67/171/43 68/172/43
f 69/173/44 70/174/44 71/175/44 72/176/44
f 67/177/45 66/178/45 71/179/45 70/180/45
f 65/181/46 68/182/46 69/183/46 72/184/46
f 68/185/47 67/186/47 70/187/47 69/188/47
f 72/189/48 71/190/48 66/191/48 65/192/48
o #shell
v 0.05625 0.006249999999999999 -0.49407216494845363
v 0.05625 0.11875 -0.49407216494845363
v 0.05625 0.11875 -0.15000000000000002
v 0.05625 0.006249999999999999 -0.15000000000000002
v -0.05625 0.006249999999999999 -0.15000000000000002
v -0.05625 0.11875 -0.15000000000000002
v -0.05625 0.11875 -0.49407216494845363
v -0.05625 0.006249999999999999 -0.49407216494845363
v -0.028125 0.034375 -0.49765625
v -0.028125 0.090625 -0.49765625
v 0.028125 0.090625 -0.49765625
v 0.028125 0.034375 -0.49765625
vt 0.1875 0.34375
vt 0.1875 0.40625
vt 0 0.40625
vt 0 0.34375
vt 0 0.34375
vt 0 0.40625
vt 0.1875 0.40625
vt 0.1875 0.34375
vt 0 0.34375
vt 0.1875 0.34375
vt 0.1875 0.40625
vt 0 0.40625
vt 0.1875 0.34375
vt 0 0.34375
vt 0 0.40625
vt 0.1875 0.40625
vt 0.28125 1
vt 0.28125 0.9375
vt 0.21875 0.9375
vt 0.21875 1
vt 0 0.25
vt 0 0.3125
vt 0.0625 0.3125
vt 0.0625 0.25
vt 0.21875 0.375
vt 0.21875 0.40625
vt 0.1875 0.40625
vt 0.1875 0.375
vn 1 0 0
vn -1 0 0
vn 0 1 0
vn 0 -1 0
vn 0 0 1
vn 0 0 -1
vn 0 0 -1
usemtl none
f 73/193/49 74/194/49 75/195/49 76/196/49
f 77/197/50 78/198/50 79/199/50 80/200/50
f 75/201/51 74/202/51 79/203/51 78/204/51
f 73/205/52 76/206/52 77/207/52 80/208/52
f 76/209/53 75/210/53 78/211/53 77/212/53
f 80/213/54 79/214/54 74/215/54 73/216/54
f 81/217/55 82/218/55 83/219/55 84/220/55