# Blender v2.79 (sub 0) OBJ File: ''
# www.blender.org
mtllib gunm1919.mtl
o model
v 0.031250 -0.018750 -0.625000
v -0.031250 -0.018750 -0.625000
v -0.031250 0.043750 -0.625000
v 0.031250 0.043750 -0.625000
v -0.031250 0.043750 -0.562500
v 0.031250 0.043750 -0.562500
v 0.031250 -0.018750 -0.562500
v -0.031250 -0.018750 -0.562500
v -0.031250 -0.031250 0.500000
v 0.031250 -0.031250 0.500000
v 0.031250 0.031250 0.500000
v -0.031250 0.031250 0.500000
v 0.031250 0.031250 -0.562500
v -0.031250 0.031250 -0.562500
v -0.031250 -0.031250 -0.562500
v 0.031250 -0.031250 -0.562500
v -0.031250 0.031250 -0.475000
v 0.031250 0.031250 -0.475000
v 0.031250 0.093750 -0.475000
v -0.031250 0.093750 -0.475000
v 0.031250 0.031250 -0.537500
v -0.031250 0.031250 -0.537500
v -0.031250 0.093750 -0.537500
v 0.031250 0.093750 -0.537500
v -0.062500 -0.056250 -0.131250
v 0.062500 -0.056250 -0.131250
v 0.062500 0.068750 -0.131250
v -0.062500 0.068750 -0.131250
v 0.062500 -0.056250 -0.568750
v -0.062500 -0.056250 -0.568750
v -0.062500 0.068750 -0.568750
v 0.062500 0.068750 -0.568750
vt 0.046875 0.937500
vt 0.062500 0.937500
vt 0.062500 0.968750
vt 0.046875 0.968750
vt 0.015625 0.968750
vt 0.031250 0.968750
vt 0.031250 1.000000
vt 0.015625 1.000000
vt 0.031250 0.968750
vt 0.046875 0.968750
vt 0.046875 1.000000
vt 0.031250 1.000000
vt 0.000000 0.937500
vt 0.015625 0.937500
vt 0.000000 0.968750
vt 0.031250 0.937500
vt 0.281250 0.437500
vt 0.296875 0.437500
vt 0.296875 0.468750
vt 0.281250 0.468750
vt 0.296875 1.000000
vt 0.281250 1.000000
vt 0.296875 0.468750
vt 0.312500 0.468750
vt 0.312500 1.000000
vt 0.296875 1.000000
vt 0.015625 0.437500
vt 0.015625 0.468750
vt 0.562500 0.437500
vt 0.562500 0.468750
vt 0.187500 0.937500
vt 0.203125 0.937500
vt 0.203125 0.968750
vt 0.187500 0.968750
vt 0.218750 0.937500
vt 0.234375 0.937500
vt 0.234375 0.968750
vt 0.218750 0.968750
vt 0.203125 1.000000
vt 0.187500 1.000000
vt 0.171875 0.937500
vt 0.171875 0.968750
vt 0.109375 0.718750
vt 0.140625 0.718750
vt 0.140625 0.781250
vt 0.109375 0.781250
vt 0.250000 0.718750
vt 0.281250 0.718750
vt 0.281250 0.781250
vt 0.250000 0.781250
vt 0.140625 1.000000
vt 0.109375 1.000000
vt 0.140625 0.781250
vt 0.171875 0.781250
vt 0.171875 1.000000
vt 0.140625 1.000000
vt 0.000000 0.718750
vt 0.000000 0.781250
vn 0.0000 0.0000 -1.0000
vn 0.0000 1.0000 -0.0000
vn 0.0000 -1.0000 0.0000
vn -1.0000 0.0000 0.0000
vn 1.0000 0.0000 -0.0000
vn 0.0000 0.0000 1.0000
usemtl None
s 1
f 1/1/1 2/2/1 3/3/1 4/4/1
f 5/5/2 6/6/2 4/7/2 3/8/2
f 2/9/3 1/10/3 7/11/3 8/12/3
f 2/13/4 8/14/4 5/5/4 3/15/4
f 7/16/5 1/1/5 4/4/5 6/6/5
f 9/17/6 10/18/6 11/19/6 12/20/6
f 12/20/2 11/19/2 13/21/2 14/22/2
f 15/23/3 16/24/3 10/25/3 9/26/3
f 15/27/4 9/17/4 12/20/4 14/28/4
f 10/18/5 16/29/5 13/30/5 11/19/5
f 17/31/6 18/32/6 19/33/6 20/34/6
f 21/35/1 22/36/1 23/37/1 24/38/1
f 20/34/2 19/33/2 24/39/2 23/40/2
f 22/41/4 17/31/4 20/34/4 23/42/4
f 18/32/5 21/35/5 24/38/5 19/33/5
f 25/43/6 26/44/6 27/45/6 28/46/6
f 29/47/1 30/48/1 31/49/1 32/50/1
f 28/46/2 27/45/2 32/51/2 31/52/2
f 30/53/3 29/54/3 26/55/3 25/56/3
f 30/57/4 25/43/4 28/46/4 31/58/4
f 26/44/5 29/47/5 32/50/5 27/45/5
