# Made in Blockbench 4.9.4
mtllib gunrocketlauncher.mtl

o maintube
v -0.03125 0.28125 -0.1875
v -0.03125 0.28125 -0.8125
v -0.03125 0.21875 -0.8125
v -0.03125 0.21875 -0.1875
v 0.03125 0.21875 -0.8125
v 0.03125 0.28125 -0.8125
v 0.03125 0.28125 -0.1875
v 0.03125 0.21875 -0.1875
v -0.0625 0.34375 -0.625
v -0.0625 0.34375 -0.8125
v -0.0625 0.28125 -0.8125
v -0.0625 0.28125 -0.625
v 0.0625 0.28125 -0.8125
v 0.0625 0.34375 -0.8125
v 0.0625 0.34375 -0.625
v 0.0625 0.28125 -0.625
v -0.09375 0.25 -0.8125
v -0.09375 0.25 -0.875
v -0.09375 0.0625 -0.875
v -0.09375 0.0625 -0.8125
v 0.09375 0.0625 -0.875
v 0.09375 0.25 -0.875
v 0.09375 0.25 -0.8125
v 0.09375 0.0625 -0.8125
v -0.0625 0.21875 -0.875
v -0.0625 0.09375 -0.875
v 0.0625 0.21875 -0.875
v 0.0625 0.09375 -0.875
v -0.0625 0.21875 -0.8125
v -0.0625 0.09375 -0.8125
v 0.0625 0.21875 -0.8125
v 0.0625 0.09375 -0.8125
v -0.0625 0.21875 -0.8125
v 0.0625 0.21875 -0.8125
v -0.0625 0.09375 -0.8125
v 0.0625 0.09375 -0.8125
v -0.078125 0.234375 -0.375
v -0.078125 0.234375 -0.8125
v -0.078125 0.078125 -0.8125
v -0.078125 0.078125 -0.375
v 0.078125 0.078125 -0.8125
v 0.078125 0.234375 -0.8125
v 0.078125 0.234375 -0.375
v 0.078125 0.078125 -0.375
v -0.0625 0.3125 0.8125
v -0.0625 0.3125 0.625
v -0.0625 0.25 0.625
v -0.0625 0.25 0.8125
v 0.0625 0.25 0.625
v 0.0625 0.3125 0.625
v 0.0625 0.3125 0.8125
v 0.0625 0.25 0.8125
v -0.0625 0.296875 0.625
v -0.0625 0.296875 0.1875
v -0.0625 0.234375 0.1875
v -0.0625 0.234375 0.625
v 0.0625 0.234375 0.1875
v 0.0625 0.296875 0.1875
v 0.0625 0.296875 0.625
v 0.0625 0.234375 0.625
v -0.03125 0.3125 0.375
v -0.03125 0.3125 0.3125
v -0.03125 0.28125 0.3125
v -0.03125 0.28125 0.375
v 0.03125 0.28125 0.3125
v 0.03125 0.3125 0.3125
v 0.03125 0.3125 0.375
v 0.03125 0.28125 0.375
v -0.046875 0.34375 0.1875
v -0.046875 0.34375 -0.1875
v -0.046875 0.25 -0.1875
v -0.046875 0.25 0.1875
v 0.046875 0.25 -0.1875
v 0.046875 0.34375 -0.1875
v 0.046875 0.34375 0.1875
v 0.046875 0.25 0.1875
v -0.09375 0.25 0.875
v -0.09375 0.25 -0.375
v -0.09375 0.0625 -0.375
v -0.09375 0.0625 0.875
v 0.09375 0.0625 -0.375
v 0.09375 0.25 -0.375
v 0.09375 0.25 0.875
v 0.09375 0.0625 0.875
v 0.0625 0.21875 0.8125
v -0.0625 0.21875 0.8125
v -0.0625 0.09375 0.8125
v 0.0625 0.09375 0.8125
v -0.0625 0.21875 0.875
v 0.0625 0.21875 0.875
v -0.0625 0.09375 0.875
v 0.0625 0.09375 0.875
v -0.0625 0.09106917382415922 -0.33080582617584076
v -0.0625 0.0625 -0.375
v -0.0625 0.018305826175840784 -0.33080582617584076
v -0.0625 0.0625 -0.2866116523516815
v 0.0625 0.018305826175840784 -0.33080582617584076
v 0.0625 0.0625 -0.375
v 0.0625 0.09106917382415922 -0.33080582617584076
v 0.0625 0.0625 -0.2866116523516815
v -0.0625 0.09106917382415922 0.8308058261758408
v -0.0625 0.0625 0.7866116523516815
v -0.0625 0.018305826175840784 0.8308058261758408
v -0.0625 0.0625 0.875
v 0.0625 0.018305826175840784 0.8308058261758408
v 0.0625 0.0625 0.7866116523516815
v 0.0625 0.09106917382415922 0.8308058261758408
v 0.0625 0.0625 0.875
v -0.03125 0.375 0.125
v -0.03125 0.375 0
v -0.03125 0.34375 0
v -0.03125 0.34375 0.125
v 0.03125 0.34375 0
v 0.03125 0.375 0
v 0.03125 0.375 0.125
v 0.03125 0.34375 0.125
v -0.09375 0.03125 0.859375
v -0.09375 0.03125 0.796875
v -0.09375 -0.15625 0.796875
v -0.09375 -0.15625 0.859375
v 0.09375 -0.15625 0.796875
v 0.09375 0.03125 0.796875
v 0.09375 0.03125 0.859375
v 0.09375 -0.15625 0.859375
v -0.09375 0.022957285477181927 -0.3016325292180445
v -0.09375 0.04687500000000003 -0.3593749999999999
v -0.09375 -0.12635241234586622 -0.43112814356845425
v -0.09375 -0.15027012686868432 -0.3733856727864988
v 0.09375 -0.12635241234586622 -0.43112814356845425
v 0.09375 0.04687500000000003 -0.3593749999999999
v 0.09375 0.022957285477181927 -0.3016325292180445
v 0.09375 -0.15027012686868432 -0.3733856727864988
v -0.03125 -0.0964552691923436 -0.38782129048198766
v -0.03125 -0.1203729837151617 -0.4455637612639431
v -0.03125 -0.17811545449711713 -0.42164604674112494
v -0.03125 -0.15419773997429903 -0.3639035759591695
v 0.03125 -0.17811545449711713 -0.42164604674112494
v 0.03125 -0.1203729837151617 -0.4455637612639431
v 0.03125 -0.0964552691923436 -0.38782129048198766
v 0.03125 -0.15419773997429903 -0.3639035759591695
v -0.03125 0.4375 0.78125
v -0.03125 0.4375 0.75
v -0.03125 0.3125 0.75
v -0.03125 0.3125 0.78125
v 0.03125 0.3125 0.75
v 0.03125 0.4375 0.75
v 0.03125 0.4375 0.78125
v 0.03125 0.3125 0.78125
v 0.03125 0.40625 0.75
v -0.03125 0.40625 0.75
v -0.03125 0.40625 0.78125
v 0.03125 0.40625 0.78125
v 0.03125 0.375 0.75
v -0.03125 0.375 0.75
v -0.03125 0.375 0.78125
v 0.03125 0.375 0.78125
v 0.03125 0.34375 0.75
v -0.03125 0.34375 0.75
v -0.03125 0.34375 0.78125
v 0.03125 0.34375 0.78125
v 0.03125 0.3125 0.75
v -0.03125 0.3125 0.75
v -0.03125 0.328125 0.78125
v 0.03125 0.328125 0.78125
v -0.03125 0.3125 0.78125
v 0.03125 0.3125 0.78125
v -0.03125 0.3125 0.75
v -0.03125 0.4375 0.75
v -0.03125 0.4375 0.78125
v -0.03125 0.3125 0.78125
v 0.03125 0.4375 0.78125
v 0.03125 0.4375 0.75
v 0.03125 0.3125 0.75
v 0.03125 0.3125 0.78125
v 0.03125 0.421875 -0.21875
v -0.03125 0.421875 -0.21875
v -0.03125 0.421875 -0.15625
v 0.03125 0.421875 -0.15625
v -0.03125 0.46875 -0.15625
v -0.03125 0.46875 -0.21875
v -0.03125 0.34375 -0.21875
v -0.03125 0.34375 -0.15625
v 0.03125 0.34375 -0.21875
v 0.03125 0.46875 -0.21875
v 0.03125 0.46875 -0.15625
v 0.03125 0.34375 -0.15625
v 0.03125 0.46875 -0.21875
v -0.03125 0.46875 -0.21875
v -0.03125 0.46875 -0.15625
v 0.03125 0.46875 -0.15625
v -0.03125 0.46875 -0.15625
v -0.03125 0.46875 -0.21875
v 0.03125 0.46875 -0.21875
v 0.03125 0.46875 -0.15625
v -0.03125 0.34375 -0.21875
v -0.03125 0.46875 -0.21875
v -0.03125 0.46875 -0.15625
v -0.03125 0.34375 -0.15625
v 0.03125 0.46875 -0.15625
v 0.03125 0.46875 -0.21875
v 0.03125 0.34375 -0.21875
v 0.03125 0.34375 -0.15625
vt 0.4375 0.65625
vt 0.28125 0.65625
vt 0.28125 0.640625
vt 0.4375 0.640625
vt 0.515625 0.875
vt 0.515625 0.890625
vt 0.359375 0.890625
vt 0.359375 0.875
vt 0.125 0.46875
vt 0.140625 0.46875
vt 0.140625 0.625
vt 0.125 0.625
vt 0.171875 0.46875
vt 0.171875 0.625
vt 0.15625 0.625
vt 0.15625 0.46875
vt 0.515625 0.453125
vt 0.515625 0.46875
vt 0.5 0.46875
vt 0.5 0.453125
vt 0.546875 0.46875
vt 0.53125 0.46875
vt 0.53125 0.453125
vt 0.546875 0.453125
vt 0.296875 0.53125
vt 0.25 0.53125
vt 0.25 0.515625
vt 0.296875 0.515625
vt 0.5 0.515625
vt 0.5 0.53125
vt 0.453125 0.53125
vt 0.453125 0.515625
vt 0.4375 0.578125
vt 0.46875 0.578125
vt 0.46875 0.625
vt 0.4375 0.625
vt 0.4375 0.515625
vt 0.4375 0.5625
vt 0.40625 0.5625
vt 0.40625 0.515625
vt 0.546875 0.640625
vt 0.546875 0.65625
vt 0.515625 0.65625
vt 0.515625 0.640625
vt 0.546875 0.5625
vt 0.515625 0.5625
vt 0.515625 0.546875
vt 0.546875 0.546875
vt 0.109375 0.546875
vt 0.09375 0.546875
vt 0.09375 0.5
vt 0.109375 0.5
vt 0.46875 0.703125
vt 0.46875 0.75
vt 0.453125 0.75
vt 0.453125 0.703125
vt 0.453125 0.671875
vt 0.5 0.671875
vt 0.5 0.6875
vt 0.453125 0.6875
vt 0.5 0.640625
vt 0.5 0.65625
vt 0.453125 0.65625
vt 0.453125 0.640625
vt 0.4140625 0.6171875
vt 0.4140625 0.5859375
vt 0.421875 0.578125
vt 0.421875 0.625
vt 0.3828125 0.6171875
vt 0.4140625 0.6171875
vt 0.421875 0.625
vt 0.375 0.625
vt 0.3828125 0.5859375
vt 0.3828125 0.6171875
vt 0.375 0.625
vt 0.375 0.578125
vt 0.4140625 0.5859375
vt 0.3828125 0.5859375
vt 0.375 0.578125
vt 0.421875 0.578125
vt 0.265625 0.5
vt 0.265625 0.46875
vt 0.28125 0.46875
vt 0.28125 0.5
vt 0.296875 0.484375
vt 0.328125 0.484375
vt 0.328125 0.5
vt 0.296875 0.5
vt 0.359375 0.46875
vt 0.359375 0.5
vt 0.34375 0.5
vt 0.34375 0.46875
vt 0.40625 0.5
vt 0.375 0.5
vt 0.375 0.484375
vt 0.40625 0.484375
vt 0.32421875 0.61328125
vt 0.34765625 0.61328125
vt 0.359375 0.625
vt 0.3125 0.625
vt 0.32421875 0.58984375
vt 0.32421875 0.61328125
vt 0.3125 0.625
vt 0.3125 0.578125
vt 0.34765625 0.58984375
vt 0.32421875 0.58984375
vt 0.3125 0.578125
vt 0.359375 0.578125
vt 0.34765625 0.61328125
vt 0.34765625 0.58984375
vt 0.359375 0.578125
vt 0.359375 0.625
vt 0.234375 0.875
vt 0.125 0.875
vt 0.125 0.828125
vt 0.234375 0.828125
vt 0.234375 0.765625
vt 0.234375 0.8125
vt 0.125 0.8125
vt 0.125 0.765625
vt 0.125 0.640625
vt 0.171875 0.640625
vt 0.171875 0.75
vt 0.125 0.75
vt 0.296875 0.765625
vt 0.296875 0.875
vt 0.25 0.875
vt 0.25 0.765625
vt 0.234375 0.578125
vt 0.234375 0.625
vt 0.1875 0.625
vt 0.1875 0.578125
vt 0.296875 0.625
vt 0.25 0.625
vt 0.25 0.578125
vt 0.296875 0.578125
vt 0.5 0.5625
vt 0.453125 0.5625
vt 0.453125 0.546875
vt 0.5 0.546875
vt 0.234375 0.515625
vt 0.234375 0.53125
vt 0.1875 0.53125
vt 0.1875 0.515625
vt 0.3125 0.515625
vt 0.34375 0.515625
vt 0.34375 0.5625
vt 0.3125 0.5625
vt 0.390625 0.515625
vt 0.390625 0.5625
vt 0.359375 0.5625
vt 0.359375 0.515625
vt 0.453125 0.484375
vt 0.453125 0.5
vt 0.421875 0.5
vt 0.421875 0.484375
vt 0.5 0.5
vt 0.46875 0.5
vt 0.46875 0.484375
vt 0.5 0.484375
vt 0.484375 0.9375
vt 0.375 0.9375
vt 0.375 0.921875
vt 0.484375 0.921875
vt 0.296875 0.546875
vt 0.296875 0.5625
vt 0.1875 0.5625
vt 0.1875 0.546875
vt 0.1875 0.640625
vt 0.21875 0.640625
vt 0.21875 0.75
vt 0.1875 0.75
vt 0.265625 0.640625
vt 0.265625 0.75
vt 0.234375 0.75
vt 0.234375 0.640625
vt 0.546875 0.84375
vt 0.546875 0.859375
vt 0.515625 0.859375
vt 0.515625 0.84375
vt 0.546875 0.828125
vt 0.515625 0.828125
vt 0.515625 0.8125
vt 0.546875 0.8125
vt 0.5625 0.796875
vt 0.546875 0.796875
vt 0.546875 0.78125
vt 0.5625 0.78125
vt 0.25 0.4375
vt 0.25 0.453125
vt 0.234375 0.453125
vt 0.234375 0.4375
vt 0.265625 0.4375
vt 0.28125 0.4375
vt 0.28125 0.453125
vt 0.265625 0.453125
vt 0.5625 0.6875
vt 0.5625 0.703125
vt 0.546875 0.703125
vt 0.546875 0.6875
vt 0.359375 0.4375
vt 0.359375 0.453125
vt 0.34375 0.453125
vt 0.34375 0.4375
vt 0.5625 0.625
vt 0.546875 0.625
vt 0.546875 0.609375
vt 0.5625 0.609375
vt 0.28125 0.71875
vt 0.375 0.71875
vt 0.375 0.75
vt 0.28125 0.75
vt 0.28125 0.703125
vt 0.28125 0.671875
vt 0.375 0.671875
vt 0.375 0.703125
vt 0.3125 0.78125
vt 0.34375 0.78125
vt 0.34375 0.875
vt 0.3125 0.875
vt 0.359375 0.90625
vt 0.359375 1
vt 0.328125 1
vt 0.328125 0.90625
vt 0.078125 0.515625
vt 0.078125 0.546875
vt 0.046875 0.546875
vt 0.046875 0.515625
vt 0.484375 0.796875
vt 0.453125 0.796875
vt 0.453125 0.765625
vt 0.484375 0.765625
vt 0 0.953125
vt 0.3125 0.953125
vt 0.3125 1
vt 0 1
vt 0 0.9375
vt 0 0.890625
vt 0.3125 0.890625
vt 0.3125 0.9375
vt 0.046875 0.875
vt 0 0.875
vt 0 0.5625
vt 0.046875 0.5625
vt 0.109375 0.875
vt 0.109375 0.5625
vt 0.0625 0.5625
vt 0.0625 0.875
vt 0.40625 0.8125
vt 0.40625 0.859375
vt 0.359375 0.859375
vt 0.359375 0.8125
vt 0.03125 0.546875
vt 0 0.546875
vt 0 0.515625
vt 0.03125 0.515625
vt 0.3828125 0.9921875
vt 0.4140625 0.9921875
vt 0.421875 1
vt 0.375 1
vt 0.3828125 0.9609375
vt 0.3828125 0.9921875
vt 0.375 1
vt 0.375 0.953125
vt 0.4140625 0.9609375
vt 0.3828125 0.9609375
vt 0.375 0.953125
vt 0.421875 0.953125
vt 0.4140625 0.9921875
vt 0.4140625 0.9609375
vt 0.421875 0.953125
vt 0.421875 1
vt 0.21875 0.5
vt 0.1875 0.5
vt 0.1875 0.484375
vt 0.21875 0.484375
vt 0.375 0.765625
vt 0.375 0.796875
vt 0.359375 0.796875
vt 0.359375 0.765625
vt 0.5 0.78125
vt 0.53125 0.78125
vt 0.53125 0.796875
vt 0.5 0.796875
vt 0.234375 0.5
vt 0.234375 0.46875
vt 0.25 0.46875
vt 0.25 0.5
vt 0.2003625 0.4347375
vt 0.1875 0.4375
vt 0.1875 0.421875
vt 0.203125 0.421875
vt 0.578125 0.75
vt 0.578125 0.765625
vt 0.5652625 0.7628625
vt 0.5625 0.75
vt 0.21875 0.46875
vt 0.1875 0.46875
vt 0.1875 0.453125
vt 0.21875 0.453125
vt 0.5625 0.953125
vt 0.5625 0.96875
vt 0.53125 0.96875
vt 0.53125 0.953125
vt 0.5625 0.890625
vt 0.5625 0.90625
vt 0.53125 0.90625
vt 0.53125 0.890625
vt 0.328125 0.46875
vt 0.296875 0.46875
vt 0.296875 0.453125
vt 0.328125 0.453125
vt 0.5597375 0.5909875
vt 0.546875 0.59375
vt 0.546875 0.578125
vt 0.5625 0.578125
vt 0.015625 0.421875
vt 0.015625 0.4375
vt 0.0027625 0.4347375
vt 0 0.421875
vt 0.5625 1
vt 0.53125 1
vt 0.53125 0.984375
vt 0.5625 0.984375
vt 0.546875 0.515625
vt 0.546875 0.53125
vt 0.515625 0.53125
vt 0.515625 0.515625
vt 0.546875 0.484375
vt 0.546875 0.5
vt 0.515625 0.5
vt 0.515625 0.484375
vt 0.0625 0.46875
vt 0.03125 0.46875
vt 0.03125 0.453125
vt 0.0625 0.453125
vt 0.546875 0.765625
vt 0.515625 0.765625
vt 0.515625 0.75
vt 0.546875 0.75
vt 0.546875 0.71875
vt 0.546875 0.734375
vt 0.515625 0.734375
vt 0.515625 0.71875
vt 0.09375 0.453125
vt 0.109375 0.453125
vt 0.109375 0.484375
vt 0.09375 0.484375
vt 0.53125 0.671875
vt 0.53125 0.703125
vt 0.515625 0.703125
vt 0.515625 0.671875
vt 0.140625 0.4375
vt 0.140625 0.453125
vt 0.125 0.453125
vt 0.125 0.4375
vt 0.171875 0.453125
vt 0.15625 0.453125
vt 0.15625 0.4375
vt 0.171875 0.4375
vt 0.484375 0.8125
vt 0.5 0.8125
vt 0.5 0.859375
vt 0.484375 0.859375
vt 0.484375 0.75
vt 0.484375 0.703125
vt 0.5 0.703125
vt 0.5 0.75
vt 0.53125 0.625
vt 0.484375 0.625
vt 0.484375 0.609375
vt 0.53125 0.609375
vt 0.53125 0.578125
vt 0.53125 0.59375
vt 0.484375 0.59375
vt 0.484375 0.578125
vt 0.390625 0.796875
vt 0.390625 0.75
vt 0.4375 0.75
vt 0.4375 0.796875
vt 0.390625 0.6875
vt 0.4375 0.6875
vt 0.4375 0.734375
vt 0.390625 0.734375
vt 0 0.453125
vt 0.015625 0.453125
vt 0.015625 0.5
vt 0 0.5
vt 0.5 1
vt 0.5 0.953125
vt 0.515625 0.953125
vt 0.515625 1
vt 0.078125 0.5
vt 0.03125 0.5
vt 0.03125 0.484375
vt 0.078125 0.484375
vt 0.546875 0.921875
vt 0.546875 0.9375
vt 0.5 0.9375
vt 0.5 0.921875
vt 0.421875 0.859375
vt 0.421875 0.8125
vt 0.46875 0.8125
vt 0.46875 0.859375
vt 0.4375 0.953125
vt 0.484375 0.953125
vt 0.484375 1
vt 0.4375 1
vt 0.046875 0.4375
vt 0.03125 0.4375
vt 0.03125 0.421875
vt 0.046875 0.421875
vt 0.0625 0.421875
vt 0.078125 0.421875
vt 0.078125 0.4375
vt 0.0625 0.4375
vt 0.5625 0.921875
vt 0.578125 0.921875
vt 0.578125 0.9375
vt 0.5625 0.9375
vt 0.09375 0.4375
vt 0.09375 0.421875
vt 0.109375 0.421875
vt 0.109375 0.4375
vt 0.578125 0.859375
vt 0.578125 0.875
vt 0.5625 0.875
vt 0.5625 0.859375
vt 0.578125 0.84375
vt 0.5625 0.84375
vt 0.5625 0.828125
vt 0.578125 0.828125
vt 0.390625 0.46875
vt 0.375 0.46875
vt 0.375 0.4375
vt 0.390625 0.4375
vt 0.421875 0.4375
vt 0.421875 0.46875
vt 0.40625 0.46875
vt 0.40625 0.4375
vt 0.5625 0.71875
vt 0.578125 0.71875
vt 0.578125 0.734375
vt 0.5625 0.734375
vt 0.3125 0.421875
vt 0.3125 0.4375
vt 0.296875 0.4375
vt 0.296875 0.421875
vt 0.5625 0.515625
vt 0.578125 0.515625
vt 0.578125 0.53125
vt 0.5625 0.53125
vt 0.5625 0.515625
vt 0.578125 0.515625
vt 0.578125 0.53125
vt 0.5625 0.53125
vt 0.5625 0.515625
vt 0.578125 0.515625
vt 0.578125 0.53125
vt 0.5625 0.53125
vt 0.5625 0.484375
vt 0.578125 0.484375
vt 0.578125 0.5
vt 0.5625 0.5
vt 0.296875 0.75
vt 0.296875 0.765625
vt 0.28125 0.765625
vt 0.28125 0.75
vt 0.375 0.4375
vt 0.375 0.46875
vt 0.390625 0.46875
vt 0.390625 0.4375
vt 0.40625 0.46875
vt 0.421875 0.46875
vt 0.421875 0.4375
vt 0.40625 0.4375
vt 0.578125 0.734375
vt 0.578125 0.71875
vt 0.5625 0.71875
vt 0.5625 0.734375
vt 0.296875 0.4375
vt 0.3125 0.4375
vt 0.3125 0.421875
vt 0.296875 0.421875
vt 0.5625 0.515625
vt 0.578125 0.515625
vt 0.578125 0.53125
vt 0.5625 0.53125
vt 0.453125 0.46875
vt 0.4375 0.46875
vt 0.4375 0.4375
vt 0.453125 0.4375
vt 0.484375 0.4375
vt 0.484375 0.46875
vt 0.46875 0.46875
vt 0.46875 0.4375
vt 0.578125 0.65625
vt 0.578125 0.671875
vt 0.5625 0.671875
vt 0.5625 0.65625
vt 0.5625 0.546875
vt 0.578125 0.546875
vt 0.578125 0.5625
vt 0.5625 0.5625
vt 0.578125 0.5625
vt 0.578125 0.546875
vt 0.5625 0.546875
vt 0.5625 0.5625
vt 0.4375 0.4375
vt 0.4375 0.46875
vt 0.453125 0.46875
vt 0.453125 0.4375
vt 0.46875 0.46875
vt 0.484375 0.46875
vt 0.484375 0.4375
vt 0.46875 0.4375
vt 0.5625 0.671875
vt 0.578125 0.671875
vt 0.578125 0.65625
vt 0.5625 0.65625
vn -1 0 0
vn 1 0 0
vn 0 1 0
vn 0 -1 0
vn 0 0 -1
vn 0 0 1
vn -1 0 0
vn 1 0 0
vn 0 1 0
vn 0 -1 0
vn 0 0 -1
vn 0 0 1
vn -1 0 0
vn 1 0 0
vn 0 1 0
vn 0 -1 0
vn 0 0 -1
vn 0 0 -1
vn 0 0 -1
vn 0 0 -1
vn 1 0 0
vn 0 -1 0
vn -1 0 0
vn 0 1 0
vn 0 0 1
vn 0 0 1
vn 0 0 1
vn 0 0 1
vn -1 0 0
vn 1 0 0
vn 0 1 0
vn 0 -1 0
vn 0 0 -1
vn 0 0 1
vn -1 0 0
vn 1 0 0
vn 0 1 0
vn 0 -1 0
vn 0 0 -1
vn 0 0 1
vn -1 0 0
vn 1 0 0
vn 0 1 0
vn 0 -1 0
vn 0 0 -1
vn 0 0 1
vn -1 0 0
vn 1 0 0
vn 0 1 0
vn 0 -1 0
vn 0 0 -1
vn 0 0 1
vn -1 0 0
vn 1 0 0
vn 0 1 0
vn 0 -1 0
vn 0 0 -1
vn 0 0 1
vn -1 0 0
vn 1 0 0
vn 0 1 0
vn 0 -1 0
vn 0 0 -1
vn 0 0 1
vn 0 0 1
vn 0 0 1
vn 0 0 1
vn 0 0 1
vn 0 -1 0
vn 1 0 0
vn 0 1 0
vn -1 0 0
vn -1 0 0
vn 1 0 0
vn 0 0.8398045770360257 -0.5428888213891883
vn 0 -0.7071067811865478 0.7071067811865474
vn 0 -0.7071067811865478 -0.7071067811865474
vn 0 0.8398045770360257 0.5428888213891883
vn -1 0 0
vn 1 0 0
vn 0 0.8398045770360257 -0.5428888213891883
vn 0 -0.7071067811865478 0.7071067811865474
vn 0 -0.7071067811865478 -0.7071067811865474
vn 0 0.8398045770360257 0.5428888213891883
vn -1 0 0
vn 1 0 0
vn 0 1 0
vn 0 -1 0
vn 0 0 -1
vn 0 0 1
vn -1 0 0
vn 1 0 0
vn 0 1 0
vn 0 -1 0
vn 0 0 -1
vn 0 0 1
vn -1 0 0
vn 1 0 0
vn 0 0.9238795325112867 0.3826834323650899
vn 0 -0.9238795325112868 -0.38268343236508956
vn 0 0.38268343236509 -0.9238795325112868
vn 0 -0.3826834323650897 0.9238795325112868
vn -1 0 0
vn 1 0 0
vn 0 0.923879532511287 -0.3826834323650896
vn 0 -0.923879532511287 0.3826834323650896
vn 0 -0.38268343236509034 -0.9238795325112865
vn 0 0.38268343236509034 0.9238795325112865
vn -1 0 0
vn 1 0 0
vn 0 1 0
vn 0 -1 0
vn 0 1 0
vn 0 1 0
vn 0 1 0
vn 0 0.8944271909999161 -0.44721359549995804
vn 0 0 1
vn 1 0 0
vn -1 0 0
vn 0 -1 0
vn 0 1 0
vn 0 1 0
vn -1 0 0
vn 1 0 0
vn 0 -1 0
vn 0 1 0
vn 0 -1 0
vn 1 0 0
vn -1 0 0
vn 0 1 0
usemtl m_49e728ef-5999-ce81-6088-ae3cbce663b7
f 1/1/1 2/2/1 3/3/1 4/4/1
f 5/5/2 6/6/2 7/7/2 8/8/2
f 6/9/3 2/10/3 1/11/3 7/12/3
f 4/13/4 3/14/4 5/15/4 8/16/4
f 3/17/5 2/18/5 6/19/5 5/20/5
f 7/21/6 1/22/6 4/23/6 8/24/6
f 9/25/7 10/26/7 11/27/7 12/28/7
f 13/29/8 14/30/8 15/31/8 16/32/8
f 14/33/9 10/34/9 9/35/9 15/36/9
f 12/37/10 11/38/10 13/39/10 16/40/10
f 11/41/11 10/42/11 14/43/11 13/44/11
f 15/45/12 9/46/12 12/47/12 16/48/12
f 17/49/13 18/50/13 19/51/13 20/52/13
f 21/53/14 22/54/14 23/55/14 24/56/14
f 22/57/15 18/58/15 17/59/15 23/60/15
f 20/61/16 19/62/16 21/63/16 24/64/16
f 25/65/17 26/66/17 19/67/17 18/68/17
f 27/69/18 25/70/18 18/71/18 22/72/18
f 28/73/19 27/74/19 22/75/19 21/76/19
f 26/77/20 28/78/20 21/79/20 19/80/20
f 29/81/21 30/82/21 26/83/21 25/84/21
f 31/85/22 29/86/22 25/87/22 27/88/22
f 32/89/23 31/90/23 27/91/23 28/92/23
f 30/93/24 32/94/24 28/95/24 26/96/24
f 33/97/25 34/98/25 23/99/25 17/100/25
f 35/101/26 33/102/26 17/103/26 20/104/26
f 36/105/27 35/106/27 20/107/27 24/108/27
f 34/109/28 36/110/28 24/111/28 23/112/28
f 37/113/29 38/114/29 39/115/29 40/116/29
f 41/117/30 42/118/30 43/119/30 44/120/30
f 42/121/31 38/122/31 37/123/31 43/124/31
f 40/125/32 39/126/32 41/127/32 44/128/32
f 39/129/33 38/130/33 42/131/33 41/132/33
f 43/133/34 37/134/34 40/135/34 44/136/34
f 45/137/35 46/138/35 47/139/35 48/140/35
f 49/141/36 50/142/36 51/143/36 52/144/36
f 50/145/37 46/146/37 45/147/37 51/148/37
f 48/149/38 47/150/38 49/151/38 52/152/38
f 47/153/39 46/154/39 50/155/39 49/156/39
f 51/157/40 45/158/40 48/159/40 52/160/40
f 53/161/41 54/162/41 55/163/41 56/164/41
f 57/165/42 58/166/42 59/167/42 60/168/42
f 58/169/43 54/170/43 53/171/43 59/172/43
f 56/173/44 55/174/44 57/175/44 60/176/44
f 55/177/45 54/178/45 58/179/45 57/180/45
f 59/181/46 53/182/46 56/183/46 60/184/46
f 61/185/47 62/186/47 63/187/47 64/188/47
f 65/189/48 66/190/48 67/191/48 68/192/48
f 66/193/49 62/194/49 61/195/49 67/196/49
f 64/197/50 63/198/50 65/199/50 68/200/50
f 63/201/51 62/202/51 66/203/51 65/204/51
f 67/205/52 61/206/52 64/207/52 68/208/52
f 69/209/53 70/210/53 71/211/53 72/212/53
f 73/213/54 74/214/54 75/215/54 76/216/54
f 74/217/55 70/218/55 69/219/55 75/220/55
f 72/221/56 71/222/56 73/223/56 76/224/56
f 71/225/57 70/226/57 74/227/57 73/228/57
f 75/229/58 69/230/58 72/231/58 76/232/58
f 77/233/59 78/234/59 79/235/59 80/236/59
f 81/237/60 82/238/60 83/239/60 84/240/60
f 82/241/61 78/242/61 77/243/61 83/244/61
f 80/245/62 79/246/62 81/247/62 84/248/62
f 79/249/63 78/250/63 82/251/63 81/252/63
f 85/253/64 86/254/64 87/255/64 88/256/64
f 89/257/65 90/258/65 83/259/65 77/260/65
f 91/261/66 89/262/66 77/263/66 80/264/66
f 92/265/67 91/266/67 80/267/67 84/268/67
f 90/269/68 92/270/68 84/271/68 83/272/68
f 86/273/69 85/274/69 90/275/69 89/276/69
f 87/277/70 86/278/70 89/279/70 91/280/70
f 88/281/71 87/282/71 91/283/71 92/284/71
f 85/285/72 88/286/72 92/287/72 90/288/72
f 93/289/73 94/290/73 95/291/73 96/292/73
f 97/293/74 98/294/74 99/295/74 100/296/74
f 98/297/75 94/298/75 93/299/75 99/300/75
f 96/301/76 95/302/76 97/303/76 100/304/76
f 95/305/77 94/306/77 98/307/77 97/308/77
f 99/309/78 93/310/78 96/311/78 100/312/78
f 101/313/79 102/314/79 103/315/79 104/316/79
f 105/317/80 106/318/80 107/319/80 108/320/80
f 106/321/81 102/322/81 101/323/81 107/324/81
f 104/325/82 103/326/82 105/327/82 108/328/82
f 103/329/83 102/330/83 106/331/83 105/332/83
f 107/333/84 101/334/84 104/335/84 108/336/84
f 109/337/85 110/338/85 111/339/85 112/340/85
f 113/341/86 114/342/86 115/343/86 116/344/86
f 114/345/87 110/346/87 109/347/87 115/348/87
f 112/349/88 111/350/88 113/351/88 116/352/88
f 111/353/89 110/354/89 114/355/89 113/356/89
f 115/357/90 109/358/90 112/359/90 116/360/90
f 117/361/91 118/362/91 119/363/91 120/364/91
f 121/365/92 122/366/92 123/367/92 124/368/92
f 122/369/93 118/370/93 117/371/93 123/372/93
f 120/373/94 119/374/94 121/375/94 124/376/94
f 119/377/95 118/378/95 122/379/95 121/380/95
f 123/381/96 117/382/96 120/383/96 124/384/96
f 125/385/97 126/386/97 127/387/97 128/388/97
f 129/389/98 130/390/98 131/391/98 132/392/98
f 130/393/99 126/394/99 125/395/99 131/396/99
f 128/397/100 127/398/100 129/399/100 132/400/100
f 127/401/101 126/402/101 130/403/101 129/404/101
f 131/405/102 125/406/102 128/407/102 132/408/102
f 133/409/103 134/410/103 135/411/103 136/412/103
f 137/413/104 138/414/104 139/415/104 140/416/104
f 138/417/105 134/418/105 133/419/105 139/420/105
f 136/421/106 135/422/106 137/423/106 140/424/106
f 135/425/107 134/426/107 138/427/107 137/428/107
f 139/429/108 133/430/108 136/431/108 140/432/108
f 141/433/109 142/434/109 143/435/109 144/436/109
f 145/437/110 146/438/110 147/439/110 148/440/110
f 146/441/111 142/442/111 141/443/111 147/444/111
f 144/445/112 143/446/112 145/447/112 148/448/112
f 149/449/113 150/450/113 151/451/113 152/452/113
f 153/453/114 154/454/114 155/455/114 156/456/114
f 157/457/115 158/458/115 159/459/115 160/460/115
f 161/461/116 162/462/116 163/463/116 164/464/116
f 163/465/117 165/466/117 166/467/117 164/468/117
f 167/469/118 168/470/118 169/471/118 170/472/118
f 171/473/119 172/474/119 173/475/119 174/476/119
f 169/477/120 168/478/120 172/479/120 171/480/120
f 173/481/121 167/482/121 170/483/121 174/484/121
f 175/485/122 176/486/122 177/487/122 178/488/122
f 179/489/123 180/490/123 181/491/123 182/492/123
f 183/493/124 184/494/124 185/495/124 186/496/124
f 182/497/125 181/498/125 183/499/125 186/500/125
f 187/501/126 188/502/126 189/503/126 190/504/126
f 191/505/127 192/506/127 193/507/127 194/508/127
f 195/509/128 196/510/128 197/511/128 198/512/128
f 199/513/129 200/514/129 201/515/129 202/516/129
f 201/517/130 195/518/130 198/519/130 202/520/130