# Made in Blockbench 4.6.5
mtllib heavy_bombrack.mtl

o basicbomb1
v 0.1875 -0.125 1.4000000000000001
v 0.09375000000000001 -0.21875 1.625
v 0.09375000000000001 -0.40625 1.625
v 0.1875 -0.5 1.4000000000000001
v -0.09374999999999996 -0.21875 1.625
v -0.18749999999999994 -0.125 1.4000000000000001
v -0.18749999999999994 -0.5 1.4000000000000001
v -0.09374999999999996 -0.40625 1.625
v -0.1875000000000001 -0.125 0.27499999999999947
v -0.02343749999999974 -0.2890625 -0.2875000000000001
v -0.023437499999999743 -0.3359375 -0.2875000000000001
v -0.1875000000000001 -0.5 0.27499999999999947
v 0.023437500000000243 -0.2890625 -0.2875000000000001
v 0.1874999999999999 -0.12500000000000006 0.27500000000000036
v 0.18749999999999978 -0.5 0.27500000000000036
v 0.023437500000000232 -0.3359375 -0.2875000000000001
v 0.02343750000000003 -0.3125 0.1625000000000001
v 0.02343750000000003 -0.3125 -0.625
v 0.02343750000000003 -0.125 -0.625
v 0.02343750000000003 -0.125 -0.1328125
v -0.023437499999999962 -0.3125 -0.625
v -0.023437499999999962 -0.3125 0.1625000000000001
v -0.023437499999999962 -0.125 -0.1328125
v -0.023437499999999962 -0.125 -0.625
v -0.023437499999999962 -0.5 -0.625
v 0.02343750000000003 -0.5 -0.625
v 0.02343750000000003 -0.5 -0.1328125
v -0.023437499999999962 -0.5 -0.1328125
v 2.949029909160571e-17 -0.3359375 0.1625000000000001
v 2.949029909160571e-17 -0.3359375 -0.625
v 0.1875 -0.3359375 -0.625
v 0.1875 -0.3359375 -0.1328125
v 3.989863994746655e-17 -0.2890625 -0.625
v 3.989863994746655e-17 -0.2890625 0.1625000000000001
v 0.1875 -0.2890625 -0.1328125
v 0.1875 -0.2890625 -0.625
v -0.18749999999999994 -0.2890625 -0.625
v -0.18749999999999994 -0.3359375 -0.625
v -0.18749999999999994 -0.3359375 -0.1328125
v -0.18749999999999994 -0.2890625 -0.1328125
v 0.1875 -0.5 0.2749999999999999
v 0.1875 -0.125 0.2749999999999999
v 0.1875 -0.125 1.4000000000000001
v 0.1875 -0.5 1.4000000000000001
v -0.18749999999999994 -0.5 1.4000000000000001
v -0.18749999999999994 -0.125 1.4000000000000001
v -0.18749999999999994 -0.125 0.2749999999999999
v -0.18749999999999994 -0.5 0.2749999999999999
vt 0.78125 0.90625
vt 0.8046875 0.84375
vt 0.8515625 0.84375
vt 0.875 0.90625
vt 0.8046875 0.84375
vt 0.78125 0.90625
vt 0.875 0.90625
vt 0.8515625 0.84375
vt 0.8046875 0.84375
vt 0.8515625 0.84375
vt 0.875 0.90625
vt 0.78125 0.90625
vt 0.78125 0.90625
vt 0.875 0.90625
vt 0.8515625 0.84375
vt 0.8046875 0.84375
vt 0.734375 0.21875
vt 0.640625 0.21875
vt 0.640625 0.125
vt 0.734375 0.125
vt 0.734375 0.984375
vt 0.6875 0.984375
vt 0.6875 0.9375
vt 0.734375 0.9375
vt 0.53125 0.109375
vt 0.678060789594978 0.06985509406388402
vt 0.6779876184622451 0.05813657250406956
vt 0.53125 0.015625
vt 0.678125 0.06640625
vt 0.53125 0.10956629651674776
vt 0.53125 0.015830575095836075
vt 0.678125 0.0546875
vt 0.678060789594978 0.05517956475326524
vt 0.677987618462245 0.06728871131307956
vt 0.53125 0.10934202261326842
vt 0.53125 0.015203225134753251
vt 0.53125 0.015345457324970169
vt 0.53125 0.10948425480348511
vt 0.677987618462245 0.07016531850329633
vt 0.678060789594978 0.05844679694348198
vt 0.609375 0.890625
vt 0.515625 0.890625
vt 0.515625 0.796875
vt 0.609375 0.796875
vt 0.578125 0.59375
vt 0.5625 0.59375
vt 0.5625 0.578125
vt 0.578125 0.578125
vt 0.5 0.09375
vt 0.296875 0.09375
vt 0.296875 0.140625
vt 0.421875 0.140625
vt 0.296875 0.09375
vt 0.49375 0.09375
vt 0.419921875 0.140625
vt 0.296875 0.140625
vt 0.71875 0.71875
vt 0.734375 0.71875
vt 0.734375 0.84375
vt 0.71875 0.84375
vt 0.75 0.71875
vt 0.765625 0.71875
vt 0.765625 0.84375
vt 0.75 0.84375
vt 0.75 0.9375
vt 0.765625 0.9375
vt 0.765625 0.984375
vt 0.75 0.984375
vt 0.78125 0.734375
vt 0.796875 0.734375
vt 0.796875 0.828125
vt 0.78125 0.828125
vt 0.828125 0.828125
vt 0.8125 0.828125
vt 0.8125 0.734375
vt 0.828125 0.734375
vt 0.296875 0.09375
vt 0.5 0.09375
vt 0.421875 0.046875
vt 0.296875 0.046875
vt 0.859375 0.828125
vt 0.84375 0.828125
vt 0.84375 0.78125
vt 0.859375 0.78125
vt 0.49375 0.09375
vt 0.296875 0.09375
vt 0.296875 0.046875
vt 0.419921875 0.046875
vt 0.49375 0.09375
vt 0.296875 0.09375
vt 0.296875 0.046875
vt 0.419921875 0.046875
vt 0.296875 0.09375
vt 0.5 0.09375
vt 0.421875 0.046875
vt 0.296875 0.046875
vt 0.328125 0.359375
vt 0.328125 0.34375
vt 0.453125 0.34375
vt 0.453125 0.359375
vt 0.375 0.21875
vt 0.375 0.203125
vt 0.5 0.203125
vt 0.5 0.21875
vt 0.4375 0.171875
vt 0.4375 0.1875
vt 0.390625 0.1875
vt 0.390625 0.171875
vt 0.390625 0.390625
vt 0.390625 0.375
vt 0.484375 0.375
vt 0.484375 0.390625
vt 0.484375 0.234375
vt 0.484375 0.25
vt 0.390625 0.25
vt 0.390625 0.234375
vt 0.296875 0.09375
vt 0.49375 0.09375
vt 0.419921875 0.140625
vt 0.296875 0.140625
vt 0.75 0.125
vt 0.75 0.109375
vt 0.796875 0.109375
vt 0.796875 0.125
vt 0.5 0.09375
vt 0.296875 0.09375
vt 0.296875 0.140625
vt 0.421875 0.140625
vt 0.28125 0.046875
vt 0.28125 0.140625
vt 0 0.140625
vt 0 0.046875
vt 0 0.046875
vt 0 0.140625
vt 0.28125 0.140625
vt 0.28125 0.046875
vt 0.09375 0.15625
vt 0.09375 0.4375
vt 0 0.4375
vt 0 0.15625
vt 0.28125 0.046875
vt 0 0.046875
vt 0 0.140625
vt 0.28125 0.140625
vt 0.609375 0.90625
vt 0.609375 1
vt 0.515625 1
vt 0.515625 0.90625
vt 0.625 0.125
vt 0.625 0.21875
vt 0.53125 0.21875
vt 0.53125 0.125
vn 0.923076923076923 0 0.38461538461538486
vn -0.923076923076923 0 0.38461538461538475
vn 0 0.923076923076923 0.3846153846153848
vn 0 -0.923076923076923 0.3846153846153848
vn 0 0 -1
vn 0 0 1
vn -0.9599999999999997 0 -0.28000000000000086
vn 0.9600000000000003 -3.157967714489333e-16 -0.27999999999999914
vn 0 0.9600000000000001 -0.2800000000000002
vn 6.631732200427604e-16 -0.96 -0.28
vn -2.3684757858670005e-15 0 1
vn 0 0 -1
vn 1 0 0
vn -1 0 0
vn 0 1 0
vn 0 -1 0
vn 0 0 -1
vn 0 0.8442128152478041 0.5360081366652723
vn 0 -0.8442128152478041 0.5360081366652723
vn 1 0 0
vn 0 0 -1
vn -1 0 0
vn 0 -1 0
vn 0 1 0
vn 1 0 0
vn -1 0 0
vn 0 0 -1
vn 0.8442128152478042 -1.8745290103434714e-16 0.5360081366652723
vn -0.8442128152478042 1.8745290103434714e-16 0.5360081366652723
vn 0 -1 0
vn 0 0 -1
vn 0 1 0
vn 1 0 0
vn -1 0 0
vn 0 1 0
vn 0 -1 0
vn 0 0 1
vn 0 0 -1
usemtl none
f 1/1/1 2/2/1 3/3/1 4/4/1
f 5/5/2 6/6/2 7/7/2 8/8/2
f 5/9/3 2/10/3 1/11/3 6/12/3
f 7/13/4 4/14/4 3/15/4 8/16/4
f 6/17/5 1/18/5 4/19/5 7/20/5
f 2/21/6 5/22/6 8/23/6 3/24/6
f 9/25/7 10/26/7 11/27/7 12/28/7
f 13/29/8 14/30/8 15/31/8 16/32/8
f 13/33/9 10/34/9 9/35/9 14/36/9
f 15/37/10 12/38/10 11/39/10 16/40/10
f 14/41/11 9/42/11 12/43/11 15/44/11
f 10/45/12 13/46/12 16/47/12 11/48/12
f 17/49/13 18/50/13 19/51/13 20/52/13
f 21/53/14 22/54/14 23/55/14 24/56/14
f 23/57/15 20/58/15 19/59/15 24/60/15
f 25/61/16 26/62/16 27/63/16 28/64/16
f 18/65/17 21/66/17 24/67/17 19/68/17
f 22/69/18 17/70/18 20/71/18 23/72/18
f 17/73/19 22/74/19 28/75/19 27/76/19
f 18/77/20 17/78/20 27/79/20 26/80/20
f 21/81/21 18/82/21 26/83/21 25/84/21
f 22/85/22 21/86/22 25/87/22 28/88/22
f 29/89/23 30/90/23 31/91/23 32/92/23
f 33/93/24 34/94/24 35/95/24 36/96/24
f 35/97/25 32/98/25 31/99/25 36/100/25
f 37/101/26 38/102/26 39/103/26 40/104/26
f 30/105/27 33/106/27 36/107/27 31/108/27
f 34/109/28 29/110/28 32/111/28 35/112/28
f 29/113/29 34/114/29 40/115/29 39/116/29
f 30/117/30 29/118/30 39/119/30 38/120/30
f 33/121/31 30/122/31 38/123/31 37/124/31
f 34/125/32 33/126/32 37/127/32 40/128/32
f 41/129/33 42/130/33 43/131/33 44/132/33
f 45/133/34 46/134/34 47/135/34 48/136/34
f 43/137/35 42/138/35 47/139/35 46/140/35
f 41/141/36 44/142/36 45/143/36 48/144/36
f 44/145/37 43/146/37 46/147/37 45/148/37
f 48/149/38 47/150/38 42/151/38 41/152/38
o cube
v 0.0625 -0.1875 0.5
v 0.0625 -0.125 0.5
v 0.0625 -0.125 1.125
v 0.0625 -0.1875 1.125
v -0.0625 -0.1875 1.125
v -0.0625 -0.125 1.125
v -0.0625 -0.125 0.5
v -0.0625 -0.1875 0.5
v 0.21875 -0.44062500000000004 1.21875
v 0.21875 -0.06562499999999999 1.21875
v 0.21875 -0.06562499999999999 1.34375
v 0.21875 -0.44062500000000004 1.34375
v 0.15625 -0.44062500000000004 1.34375
v 0.15625 -0.06562499999999999 1.34375
v 0.15625 -0.06562499999999999 1.21875
v 0.15625 -0.44062500000000004 1.21875
v -0.15625 -0.44062500000000004 1.21875
v -0.15625 -0.06562499999999999 1.21875
v -0.15625 -0.06562499999999999 1.34375
v -0.15625 -0.44062500000000004 1.34375
v -0.21875 -0.44062500000000004 1.34375
v -0.21875 -0.06562499999999999 1.34375
v -0.21875 -0.06562499999999999 1.21875
v -0.21875 -0.44062500000000004 1.21875
v -0.15625 -0.44062500000000004 0.75
v -0.15625 -0.06562499999999999 0.75
v -0.15625 -0.06562499999999999 0.875
v -0.15625 -0.44062500000000004 0.875
v -0.21875 -0.44062500000000004 0.875
v -0.21875 -0.06562499999999999 0.875
v -0.21875 -0.06562499999999999 0.75
v -0.21875 -0.44062500000000004 0.75
v 0.21875 -0.44062500000000004 0.75
v 0.21875 -0.06562499999999999 0.75
v 0.21875 -0.06562499999999999 0.875
v 0.21875 -0.44062500000000004 0.875
v 0.15625 -0.44062500000000004 0.875
v 0.15625 -0.06562499999999999 0.875
v 0.15625 -0.06562499999999999 0.75
v 0.15625 -0.44062500000000004 0.75
v -0.15625 -0.44062500000000004 0.28125
v -0.15625 -0.06562499999999999 0.28125
v -0.15625 -0.06562499999999999 0.40625
v -0.15625 -0.44062500000000004 0.40625
v -0.21875 -0.44062500000000004 0.40625
v -0.21875 -0.06562499999999999 0.40625
v -0.21875 -0.06562499999999999 0.28125
v -0.21875 -0.44062500000000004 0.28125
v 0.21875 -0.44062500000000004 0.28125
v 0.21875 -0.06562499999999999 0.28125
v 0.21875 -0.06562499999999999 0.40625
v 0.21875 -0.44062500000000004 0.40625
v 0.15625 -0.44062500000000004 0.40625
v 0.15625 -0.06562499999999999 0.40625
v 0.15625 -0.06562499999999999 0.28125
v 0.15625 -0.44062500000000004 0.28125
v 0.1875 -0.125 -0.125
v 0.1875 -0.0625 -0.125
v 0.1875 -0.0625 1.59375
v 0.1875 -0.125 1.59375
v -0.1875 -0.125 1.59375
v -0.1875 -0.0625 1.59375
v -0.1875 -0.0625 -0.125
v -0.1875 -0.125 -0.125
v 0.1875 -0.0625 -0.0625
v 0.1875 0 -0.0625
v 0.1875 0 0.6875
v 0.1875 -0.0625 0.6875
v -0.1875 -0.0625 0.6875
v -0.1875 0 0.6875
v -0.1875 0 -0.0625
v -0.1875 -0.0625 -0.0625
vt 0.40625 0.921875
vt 0.40625 0.9375
vt 0.5625 0.9375
vt 0.5625 0.921875
vt 0.40625 0.890625
vt 0.40625 0.90625
vt 0.5625 0.90625
vt 0.5625 0.890625
vt 0.25 0.78125
vt 0.25 0.9375
vt 0.21875 0.9375
vt 0.21875 0.78125
vt 0.25 0.765625
vt 0.25 0.609375
vt 0.21875 0.609375
vt 0.21875 0.765625
vt 0.1875 0.53125
vt 0.1875 0.546875
vt 0.15625 0.546875
vt 0.15625 0.53125
vt 0.5 0.828125
vt 0.5 0.84375
vt 0.46875 0.84375
vt 0.46875 0.828125
vt 0.359375 0.84375
vt 0.359375 0.9375
vt 0.390625 0.9375
vt 0.390625 0.84375
vt 0.265625 0.734375
vt 0.265625 0.828125
vt 0.296875 0.828125
vt 0.296875 0.734375
vt 0.484375 0.78125
vt 0.484375 0.8125
vt 0.46875 0.8125
vt 0.46875 0.78125
vt 0.484375 0.765625
vt 0.484375 0.734375
vt 0.46875 0.734375
vt 0.46875 0.765625
vt 0.421875 0.78125
vt 0.421875 0.875
vt 0.40625 0.875
vt 0.40625 0.78125
vt 0.234375 0.5
vt 0.234375 0.59375
vt 0.21875 0.59375
vt 0.21875 0.5
vt 0.265625 0.625
vt 0.265625 0.71875
vt 0.296875 0.71875
vt 0.296875 0.625
vt 0.3125 0.84375
vt 0.3125 0.9375
vt 0.34375 0.9375
vt 0.34375 0.84375
vt 0.484375 0.6875
vt 0.484375 0.71875
vt 0.46875 0.71875
vt 0.46875 0.6875
vt 0.484375 0.671875
vt 0.484375 0.640625
vt 0.46875 0.640625
vt 0.46875 0.671875
vt 0.421875 0.671875
vt 0.421875 0.765625
vt 0.40625 0.765625
vt 0.40625 0.671875
vt 0.421875 0.5625
vt 0.421875 0.65625
vt 0.40625 0.65625
vt 0.40625 0.5625
vt 0.3125 0.734375
vt 0.3125 0.828125
vt 0.34375 0.828125
vt 0.34375 0.734375
vt 0.3125 0.625
vt 0.3125 0.71875
vt 0.34375 0.71875
vt 0.34375 0.625
vt 0.484375 0.59375
vt 0.484375 0.625
vt 0.46875 0.625
vt 0.46875 0.59375
vt 0.171875 0.515625
vt 0.171875 0.484375
vt 0.15625 0.484375
vt 0.15625 0.515625
vt 0.453125 0.78125
vt 0.453125 0.875
vt 0.4375 0.875
vt 0.4375 0.78125
vt 0.453125 0.671875
vt 0.453125 0.765625
vt 0.4375 0.765625
vt 0.4375 0.671875
vt 0.265625 0.84375
vt 0.265625 0.9375
vt 0.296875 0.9375
vt 0.296875 0.84375
vt 0.359375 0.734375
vt 0.359375 0.828125
vt 0.390625 0.828125
vt 0.390625 0.734375
vt 0.203125 0.484375
vt 0.203125 0.515625
vt 0.1875 0.515625
vt 0.1875 0.484375
vt 0.421875 0.515625
vt 0.421875 0.484375
vt 0.40625 0.484375
vt 0.40625 0.515625
vt 0.453125 0.5625
vt 0.453125 0.65625
vt 0.4375 0.65625
vt 0.4375 0.5625
vt 0.015625 0.453125
vt 0.015625 0.546875
vt 0 0.546875
vt 0 0.453125
vt 0.359375 0.625
vt 0.359375 0.71875
vt 0.390625 0.71875
vt 0.390625 0.625
vt 0.265625 0.515625
vt 0.265625 0.609375
vt 0.296875 0.609375
vt 0.296875 0.515625
vt 0.453125 0.484375
vt 0.453125 0.515625
vt 0.4375 0.515625
vt 0.4375 0.484375
vt 0.46875 0.515625
vt 0.46875 0.484375
vt 0.484375 0.484375
vt 0.484375 0.515625
vt 0.046875 0.453125
vt 0.046875 0.546875
vt 0.03125 0.546875
vt 0.03125 0.453125
vt 0.078125 0.453125
vt 0.078125 0.546875
vt 0.0625 0.546875
vt 0.0625 0.453125
vt 0.3125 0.515625
vt 0.3125 0.609375
vt 0.34375 0.609375
vt 0.34375 0.515625
vt 0.390625 0.515625
vt 0.390625 0.609375
vt 0.359375 0.609375
vt 0.359375 0.515625
vt 0.515625 0.78125
vt 0.515625 0.8125
vt 0.5 0.8125
vt 0.5 0.78125
vt 0.515625 0.765625
vt 0.515625 0.734375
vt 0.5 0.734375
vt 0.5 0.765625
vt 0.109375 0.453125
vt 0.109375 0.546875
vt 0.09375 0.546875
vt 0.09375 0.453125
vt 0.140625 0.453125
vt 0.140625 0.546875
vt 0.125 0.546875
vt 0.125 0.453125
vt 0.21875 0.984375
vt 0.21875 1
vt 0.65625 1
vt 0.65625 0.984375
vt 0.65625 0.953125
vt 0.65625 0.96875
vt 0.21875 0.96875
vt 0.21875 0.953125
vt 0 1
vt 0 0.5625
vt 0.09375 0.5625
vt 0.09375 1
vt 0.203125 0.5625
vt 0.203125 1
vt 0.109375 1
vt 0.109375 0.5625
vt 0.40625 0.53125
vt 0.40625 0.546875
vt 0.5 0.546875
vt 0.5 0.53125
vt 0.46875 0.859375
vt 0.46875 0.875
vt 0.5625 0.875
vt 0.5625 0.859375
vt 0.46875 0.984375
vt 0.46875 1
vt 0.65625 1
vt 0.65625 0.984375
vt 0.65625 0.984375
vt 0.65625 1
vt 0.46875 1
vt 0.46875 0.984375
vt 0.578125 0.75
vt 0.578125 0.9375
vt 0.671875 0.9375
vt 0.671875 0.75
vt 0.671875 0.75
vt 0.671875 0.9375
vt 0.578125 0.9375
vt 0.578125 0.75
vt 0.5625 0.859375
vt 0.5625 0.875
vt 0.46875 0.875
vt 0.46875 0.859375
vt 0.5 0.53125
vt 0.5 0.546875
vt 0.40625 0.546875
vt 0.40625 0.53125
vn 1 0 0
vn -1 0 0
vn 0 1 0
vn 0 -1 0
vn 0 0 1
vn 0 0 -1
vn 1 0 0
vn -1 0 0
vn 0 1 0
vn 0 -1 0
vn 0 0 1
vn 0 0 -1
vn 1 0 0
vn -1 0 0
vn 0 1 0
vn 0 -1 0
vn 0 0 1
vn 0 0 -1
vn 1 0 0
vn -1 0 0
vn 0 1 0
vn 0 -1 0
vn 0 0 1
vn 0 0 -1
vn 1 0 0
vn -1 0 0
vn 0 1 0
vn 0 -1 0
vn 0 0 1
vn 0 0 -1
vn 1 0 0
vn -1 0 0
vn 0 1 0
vn 0 -1 0
vn 0 0 1
vn 0 0 -1
vn 1 0 0
vn -1 0 0
vn 0 1 0
vn 0 -1 0
vn 0 0 1
vn 0 0 -1
vn 1 0 0
vn -1 0 0
vn 0 1 0
vn 0 -1 0
vn 0 0 1
vn 0 0 -1
vn 1 0 0
vn -1 0 0
vn 0 1 0
vn 0 -1 0
vn 0 0 1
vn 0 0 -1
usemtl none
f 49/153/39 50/154/39 51/155/39 52/156/39
f 53/157/40 54/158/40 55/159/40 56/160/40
f 51/161/41 50/162/41 55/163/41 54/164/41
f 49/165/42 52/166/42 53/167/42 56/168/42
f 52/169/43 51/170/43 54/171/43 53/172/43
f 56/173/44 55/174/44 50/175/44 49/176/44
f 57/177/45 58/178/45 59/179/45 60/180/45
f 61/181/46 62/182/46 63/183/46 64/184/46
f 59/185/47 58/186/47 63/187/47 62/188/47
f 57/189/48 60/190/48 61/191/48 64/192/48
f 60/193/49 59/194/49 62/195/49 61/196/49
f 64/197/50 63/198/50 58/199/50 57/200/50
f 65/201/51 66/202/51 67/203/51 68/204/51
f 69/205/52 70/206/52 71/207/52 72/208/52
f 67/209/53 66/210/53 71/211/53 70/212/53
f 65/213/54 68/214/54 69/215/54 72/216/54
f 68/217/55 67/218/55 70/219/55 69/220/55
f 72/221/56 71/222/56 66/223/56 65/224/56
f 73/225/57 74/226/57 75/227/57 76/228/57
f 77/229/58 78/230/58 79/231/58 80/232/58
f 75/233/59 74/234/59 79/235/59 78/236/59
f 73/237/60 76/238/60 77/239/60 80/240/60
f 76/241/61 75/242/61 78/243/61 77/244/61
f 80/245/62 79/246/62 74/247/62 73/248/62
f 81/249/63 82/250/63 83/251/63 84/252/63
f 85/253/64 86/254/64 87/255/64 88/256/64
f 83/257/65 82/258/65 87/259/65 86/260/65
f 81/261/66 84/262/66 85/263/66 88/264/66
f 84/265/67 83/266/67 86/267/67 85/268/67
f 88/269/68 87/270/68 82/271/68 81/272/68
f 89/273/69 90/274/69 91/275/69 92/276/69
f 93/277/70 94/278/70 95/279/70 96/280/70
f 91/281/71 90/282/71 95/283/71 94/284/71
f 89/285/72 92/286/72 93/287/72 96/288/72
f 92/289/73 91/290/73 94/291/73 93/292/73
f 96/293/74 95/294/74 90/295/74 89/296/74
f 97/297/75 98/298/75 99/299/75 100/300/75
f 101/301/76 102/302/76 103/303/76 104/304/76
f 99/305/77 98/306/77 103/307/77 102/308/77
f 97/309/78 100/310/78 101/311/78 104/312/78
f 100/313/79 99/314/79 102/315/79 101/316/79
f 104/317/80 103/318/80 98/319/80 97/320/80
f 105/321/81 106/322/81 107/323/81 108/324/81
f 109/325/82 110/326/82 111/327/82 112/328/82
f 107/329/83 106/330/83 111/331/83 110/332/83
f 105/333/84 108/334/84 109/335/84 112/336/84
f 108/337/85 107/338/85 110/339/85 109/340/85
f 112/341/86 111/342/86 106/343/86 105/344/86
f 113/345/87 114/346/87 115/347/87 116/348/87
f 117/349/88 118/350/88 119/351/88 120/352/88
f 115/353/89 114/354/89 119/355/89 118/356/89
f 113/357/90 116/358/90 117/359/90 120/360/90
f 116/361/91 115/362/91 118/363/91 117/364/91
f 120/365/92 119/366/92 114/367/92 113/368/92