# Made in Blockbench 4.8.3
mtllib propellersmall2blade.mtl

o propellersmall2blade
v -0.15625 0.09375 0.25
v 0.15625 0.09375 0.25
v 0.15625 0.09375 0
v -0.15625 0.09375 0
v -0.15625 -0.09375 0
v 0.15625 -0.09375 0
v 0.15625 -0.09375 0.25
v -0.15625 -0.09375 0.25
v -0.09375 -0.15625 0
v 0.09375 -0.15625 0
v 0.09375 -0.15625 0.25
v -0.09375 -0.15625 0.25
v 0.09375 -0.09375 0.25
v -0.09375 -0.09375 0.25
v -0.09375 -0.09375 0
v 0.09375 -0.09375 0
v -0.09375 0.15625 0.25
v 0.09375 0.15625 0.25
v 0.09375 0.15625 0
v -0.09375 0.15625 0
v -0.09375 0.09375 0.25
v 0.09375 0.09375 0.25
v 0.09375 0.09375 0
v -0.09375 0.09375 0
v -0.0625 0.0625 0
v 0.0625 0.0625 0
v 0.0625 0.0625 -0.3125
v -0.0625 0.0625 -0.3125
v -0.0625 -0.0625 -0.3125
v 0.0625 -0.0625 -0.3125
v 0.0625 -0.0625 0
v -0.0625 -0.0625 0
vt 0 0.75
vt 0.078125 0.75
vt 0.078125 0.8125
vt 0 0.8125
vt 0.09375 0.75
vt 0.171875 0.75
vt 0.171875 0.8125
vt 0.09375 0.8125
vt 0.265625 0.8125
vt 0.1875 0.8125
vt 0.1875 0.765625
vt 0.265625 0.765625
vt 0.28125 1
vt 0.203125 1
vt 0.203125 0.953125
vt 0.28125 0.953125
vt 0.265625 0.9375
vt 0.203125 0.9375
vt 0.203125 0.890625
vt 0.265625 0.890625
vt 0.265625 0.875
vt 0.203125 0.875
vt 0.203125 0.828125
vt 0.265625 0.828125
vt 0.1875 0.6875
vt 0.234375 0.6875
vt 0.234375 0.75
vt 0.1875 0.75
vt 0.25 0.640625
vt 0.203125 0.640625
vt 0.203125 0.625
vt 0.25 0.625
vt 0.3125 0.640625
vt 0.265625 0.640625
vt 0.265625 0.625
vt 0.3125 0.625
vt 0.296875 0.671875
vt 0.234375 0.671875
vt 0.234375 0.65625
vt 0.296875 0.65625
vt 0.375 0.671875
vt 0.3125 0.671875
vt 0.3125 0.65625
vt 0.375 0.65625
vt 0.25 0.6875
vt 0.296875 0.6875
vt 0.296875 0.75
vt 0.25 0.75
vt 0.375 0.640625
vt 0.328125 0.640625
vt 0.328125 0.625
vt 0.375 0.625
vt 0.421875 0.8125
vt 0.375 0.8125
vt 0.375 0.796875
vt 0.421875 0.796875
vt 0.0625 0.640625
vt 0 0.640625
vt 0 0.625
vt 0.0625 0.625
vt 0.140625 0.640625
vt 0.078125 0.640625
vt 0.078125 0.625
vt 0.140625 0.625
vt 0 0.65625
vt 0.03125 0.65625
vt 0.03125 0.734375
vt 0 0.734375
vt 0.046875 0.65625
vt 0.078125 0.65625
vt 0.078125 0.734375
vt 0.046875 0.734375
vt 0.1875 0.640625
vt 0.15625 0.640625
vt 0.15625 0.609375
vt 0.1875 0.609375
vt 0.171875 0.734375
vt 0.09375 0.734375
vt 0.09375 0.703125
vt 0.171875 0.703125
vt 0.359375 0.8125
vt 0.28125 0.8125
vt 0.28125 0.78125
vt 0.359375 0.78125
vn 0 1 0
vn 0 -1 0
vn 0 0 1
vn 0 0 -1
vn 1 0 0
vn -1 0 0
vn 0 -1 0
vn 0 0 1
vn 0 0 -1
vn 1 0 0
vn -1 0 0
vn 0 1 0
vn 0 0 1
vn 0 0 -1
vn 1 0 0
vn -1 0 0
vn 0 1 0
vn 0 -1 0
vn 0 0 -1
vn 1 0 0
vn -1 0 0
usemtl none
f 1/1/1 2/2/1 3/3/1 4/4/1
f 5/5/2 6/6/2 7/7/2 8/8/2
f 2/9/3 1/10/3 8/11/3 7/12/3
f 4/13/4 3/14/4 6/15/4 5/16/4
f 3/17/5 2/18/5 7/19/5 6/20/5
f 1/21/6 4/22/6 5/23/6 8/24/6
f 9/25/7 10/26/7 11/27/7 12/28/7
f 13/29/8 14/30/8 12/31/8 11/32/8
f 15/33/9 16/34/9 10/35/9 9/36/9
f 16/37/10 13/38/10 11/39/10 10/40/10
f 14/41/11 15/42/11 9/43/11 12/44/11
f 17/45/12 18/46/12 19/47/12 20/48/12
f 18/49/13 17/50/13 21/51/13 22/52/13
f 20/53/14 19/54/14 23/55/14 24/56/14
f 19/57/15 18/58/15 22/59/15 23/60/15
f 17/61/16 20/62/16 24/63/16 21/64/16
f 25/65/17 26/66/17 27/67/17 28/68/17
f 29/69/18 30/70/18 31/71/18 32/72/18
f 28/73/19 27/74/19 30/75/19 29/76/19
f 27/77/20 26/78/20 31/79/20 30/80/20
f 25/81/21 28/82/21 29/83/21 32/84/21
o #translucent_2blade_mblur
v 0.9375 -0.9375 0.125
v 0.9375 0.9375 0.125
v 0.9375 0.9375 0.1253125
v 0.9375 -0.9375 0.1253125
v -0.9375 -0.9375 0.1253125
v -0.9375 0.9375 0.1253125
v -0.9375 0.9375 0.125
v -0.9375 -0.9375 0.125
vt 0 0.53125
vt 0 1
vt 0 1
vt 0 0.53125
vt 0 0.53125
vt 0 1
vt 0 1
vt 0 0.53125
vt 0 1
vt 0 1
vt 0.46875 1
vt 0.46875 1
vt 0 1
vt 0 1
vt 0.46875 1
vt 0.46875 1
vt 0.46888020833333344 0
vt 0.46888020833333344 0.4684734513274338
vt 0 0.4684734513274338
vt 0 0
vt 0.0001296874999999753 0
vt 0.0001296874999999753 0.46847345132743357
vt 0.4688796875 0.46847345132743357
vt 0.4688796875 0
vn 1 0 0
vn -1 0 0
vn 0 1 0
vn 0 -1 0
vn 0 0 1
vn 0 0 -1
usemtl none
f 33/85/22 34/86/22 35/87/22 36/88/22
f 37/89/23 38/90/23 39/91/23 40/92/23
f 35/93/24 34/94/24 39/95/24 38/96/24
f 33/97/25 36/98/25 37/99/25 40/100/25
f 36/101/26 35/102/26 38/103/26 37/104/26
f 40/105/27 39/106/27 34/107/27 33/108/27
o blade_1
v -0.28125 0.09988 0.047997
v -0.78125 0.09988 0.047997
v -0.78125 0.13113 0.102123
v -0.28125 0.13113 0.102123
v -0.78125 0.077003 0.133373
v -0.28125 0.077003 0.133373
v -0.28125 0.045753 0.079247
v -0.78125 0.045753 0.079247
v -0.15625 -0.03125 0.195873
v -0.90625 -0.03125 0.195873
v -0.90625 -0.0625 0.141747
v -0.15625 -0.0625 0.141747
v -0.15625 0.045753 0.079247
v -0.90625 0.045753 0.079247
v -0.90625 0.077003 0.133373
v -0.15625 0.077003 0.133373
vt 0.3125 0.6875
vt 0.4375 0.6875
vt 0.4375 0.703125
vt 0.3125 0.703125
vt 0.296875 0.984375
vt 0.421875 0.984375
vt 0.421875 1
vt 0.296875 1
vt 0.3125 0.75
vt 0.4375 0.75
vt 0.4375 0.765625
vt 0.3125 0.765625
vt 0.0625 0.59375
vt 0.078125 0.59375
vt 0.078125 0.609375
vt 0.0625 0.609375
vt 0.09375 0.609375
vt 0.09375 0.59375
vt 0.109375 0.59375
vt 0.109375 0.609375
vt 0.46875 0.875
vt 0.28125 0.875
vt 0.28125 0.859375
vt 0.46875 0.859375
vt 0.28125 0.921875
vt 0.46875 0.921875
vt 0.46875 0.9375
vt 0.28125 0.9375
vt 0 0.875
vt 0.1875 0.875
vt 0.1875 0.90625
vt 0 0.90625
vt 0 0.96875
vt 0.1875 0.96875
vt 0.1875 1
vt 0 1
vt 0 0.578125
vt 0.015625 0.578125
vt 0.015625 0.609375
vt 0 0.609375
vn 0 0.8660230528096099 -0.5000040719857426
vn 0 0.4999971437684743 0.866027052824199
vn 0 -0.49999714376847443 -0.8660270528241988
vn -1 0 0
vn 1 0 0
vn 0 -0.8660230528096099 0.5000040719857429
vn 0 0.8660230528096098 -0.5000040719857428
vn 0 0.5000006078571084 0.866025052837689
vn 0 -0.5000006078571085 -0.866025052837689
vn -1 0 0
usemtl none
f 41/109/28 42/110/28 43/111/28 44/112/28
f 45/113/29 46/114/29 44/115/29 43/116/29
f 47/117/30 48/118/30 42/119/30 41/120/30
f 48/121/31 45/122/31 43/123/31 42/124/31
f 46/125/32 47/126/32 41/127/32 44/128/32
f 49/129/33 50/130/33 51/131/33 52/132/33
f 53/133/34 54/134/34 55/135/34 56/136/34
f 50/137/35 49/138/35 56/139/35 55/140/35
f 52/141/36 51/142/36 54/143/36 53/144/36
f 51/145/37 50/146/37 55/147/37 54/148/37
o blade_2
v 0.15625 0.03125 0.195873
v 0.90625 0.03125 0.195873
v 0.90625 0.0625 0.141747
v 0.15625 0.0625 0.141747
v 0.15625 -0.045753 0.079247
v 0.90625 -0.045753 0.079247
v 0.90625 -0.077003 0.133373
v 0.15625 -0.077003 0.133373
v 0.28125 -0.09988 0.047997
v 0.78125 -0.09988 0.047997
v 0.78125 -0.13113 0.102123
v 0.28125 -0.13113 0.102123
v 0.78125 -0.077003 0.133373
v 0.28125 -0.077003 0.133373
v 0.28125 -0.045753 0.079247
v 0.78125 -0.045753 0.079247
vt 0.28125 0.828125
vt 0.46875 0.828125
vt 0.46875 0.84375
vt 0.28125 0.84375
vt 0.46875 0.90625
vt 0.28125 0.90625
vt 0.28125 0.890625
vt 0.46875 0.890625
vt 0.1875 0.859375
vt 0 0.859375
vt 0 0.828125
vt 0.1875 0.828125
vt 0.1875 0.953125
vt 0 0.953125
vt 0 0.921875
vt 0.1875 0.921875
vt 0.046875 0.609375
vt 0.03125 0.609375
vt 0.03125 0.578125
vt 0.046875 0.578125
vt 0.21875 0.671875
vt 0.09375 0.671875
vt 0.09375 0.65625
vt 0.21875 0.65625
vt 0.421875 0.96875
vt 0.296875 0.96875
vt 0.296875 0.953125
vt 0.421875 0.953125
vt 0.4375 0.734375
vt 0.3125 0.734375
vt 0.3125 0.71875
vt 0.4375 0.71875
vt 0.140625 0.609375
vt 0.125 0.609375
vt 0.125 0.59375
vt 0.140625 0.59375
vt 0.21875 0.59375
vt 0.21875 0.609375
vt 0.203125 0.609375
vt 0.203125 0.59375
vn 0 0.8660230528096099 0.5000040719857429
vn 0 -0.8660230528096098 -0.5000040719857428
vn 0 -0.5000006078571084 0.866025052837689
vn 0 0.5000006078571085 -0.866025052837689
vn 1 0 0
vn 0 -0.8660230528096099 -0.5000040719857426
vn 0 -0.4999971437684743 0.866027052824199
vn 0 0.49999714376847443 -0.8660270528241988
vn 1 0 0
vn -1 0 0
usemtl none
f 57/149/38 58/150/38 59/151/38 60/152/38
f 61/153/39 62/154/39 63/155/39 64/156/39
f 58/157/40 57/158/40 64/159/40 63/160/40
f 60/161/41 59/162/41 62/163/41 61/164/41
f 59/165/42 58/166/42 63/167/42 62/168/42
f 65/169/43 66/170/43 67/171/43 68/172/43
f 69/173/44 70/174/44 68/175/44 67/176/44
f 71/177/45 72/178/45 66/179/45 65/180/45
f 72/181/46 69/182/46 67/183/46 66/184/46
f 70/185/47 71/186/47 65/187/47 68/188/47