# Made in Blockbench 4.5.2
mtllib propellerrotor.mtl

o Blade2
v -0.048738 -0.146768 -0.048885
v -0.048738 -0.635997 -0.048884
v -0.048739 -0.635997 0.048961
v -0.048738 -0.146768 0.04896
v 0.244796 -6.995972 0.048975
v 0.244799 -0.635997 0.048962
v -0.048739 -0.635997 0.048961
v -0.048741 -6.995972 0.048975
v 0.244796 -6.995972 -0.04887
v 0.2448 -0.635997 -0.048884
v 0.049108 -0.635997 0.048962
v 0.049108 -0.146768 0.04896
v -0.048741 -6.995972 -0.04887
v 0.049108 -0.146768 -0.048885
v 0.049108 -0.635997 -0.048884
v -0.048738 -0.635997 -0.048884
vt 0.828125 0.91796875
vt 0.84765625 0.91796875
vt 0.84765625 0.921875
vt 0.828125 0.921875
vt 1 1
vt 0.75 1
vt 0.75 0.98828125
vt 1 0.98828125
vt 0.75 0.984375
vt 1 0.984375
vt 1 0.98828125
vt 0.75 0.98828125
vt 0.84765625 0.92578125
vt 0.828125 0.92578125
vt 0.828125 0.921875
vt 0.84765625 0.921875
vt 0.87890625 0.96484375
vt 0.890625 0.96484375
vt 0.890625 0.96875
vt 0.87890625 0.96875
vt 0.82421875 0.91796875
vt 0.828125 0.91796875
vt 0.828125 0.921875
vt 0.82421875 0.921875
vt 0.8671875 0.921875
vt 0.84765625 0.921875
vt 0.84765625 0.92578125
vt 0.8671875 0.92578125
vt 0.87890625 0.96484375
vt 0.890625 0.96484375
vt 0.890625 0.96875
vt 0.87890625 0.96875
vt 0.84765625 0.91796875
vt 0.8515625 0.91796875
vt 0.8515625 0.921875
vt 0.84765625 0.921875
vt 0.8515625 0.91796875
vt 0.87109375 0.91796875
vt 0.87109375 0.921875
vt 0.8515625 0.921875
vt 1 0.98828125
vt 0.75 0.98828125
vt 0.75 1
vt 1 1
vt 0.75 0.984375
vt 1 0.984375
vt 1 0.98828125
vt 0.75 0.98828125
vn -0.9999999999477734 -2.0890516112950575e-11 -0.000010220246307412477
vn -0.0000034067139518328407 0.0000020440347988849614 0.9999999999921081
vn 0.9999999999475766 -6.289107925393701e-7 0.000010220141855043402
vn 0 0.000004088065098318554 0.9999999999916439
vn 0 -1 0
vn 0 1 0
vn 0 -0.0000020440325491720875 -0.9999999999979111
vn 0 1 0
vn 0 -1 0
vn 1 0 0
vn 0 -0.0000022012665144070856 -0.9999999999975773
vn -0.9999999999998889 4.7169996737450477e-7 0
usemtl m_cbf3955c-d24a-8d0e-c36e-e12d03906151
f 1/1/1 2/2/1 3/3/1 4/4/1
f 5/5/2 6/6/2 7/7/2 8/8/2
f 9/9/3 10/10/3 6/11/3 5/12/3
f 11/13/4 12/14/4 4/15/4 3/16/4
f 13/17/5 9/18/5 5/19/5 8/20/5
f 14/21/6 1/22/6 4/23/6 12/24/6
f 2/25/7 1/26/7 14/27/7 15/28/7
f 10/29/8 16/30/8 7/31/8 6/32/8
f 2/33/9 15/34/9 11/35/9 3/36/9
f 15/37/10 14/38/10 12/39/10 11/40/10
f 13/41/11 16/42/11 10/43/11 9/44/11
f 16/45/12 13/46/12 8/47/12 7/48/12
o Blade1
v -0.244428 0.635998 -0.048953
v 0.049109 0.635998 -0.048953
v 0.049109 0.635998 0.048893
v -0.244428 0.635998 0.048892
v 0.049107 6.995975 -0.048967
v -0.244431 6.995974 -0.048968
v -0.24443 6.995975 0.048879
v 0.049108 6.995975 0.048878
v 0.049109 0.14677 0.048894
v 0.049109 0.635998 0.048893
v -0.048736 0.635998 0.048893
v -0.048736 0.14677 0.048894
v -0.048737 0.146769 -0.048952
v -0.048736 0.635998 -0.048953
v 0.049109 0.635998 -0.048953
v 0.04911 0.146769 -0.048951
vt 0.87890625 0.94921875
vt 0.890625 0.94921875
vt 0.890625 0.953125
vt 0.87890625 0.953125
vt 0.87890625 0.94921875
vt 0.890625 0.94921875
vt 0.890625 0.953125
vt 0.87890625 0.953125
vt 0.7734375 0.9296875
vt 0.75390625 0.9296875
vt 0.75390625 0.92578125
vt 0.7734375 0.92578125
vt 1 0.97265625
vt 0.75 0.97265625
vt 0.75 0.984375
vt 1 0.984375
vt 0.79296875 0.92578125
vt 0.7734375 0.92578125
vt 0.7734375 0.9296875
vt 0.79296875 0.9296875
vt 0.75390625 0.921875
vt 0.7734375 0.921875
vt 0.7734375 0.92578125
vt 0.75390625 0.92578125
vt 0.7734375 0.921875
vt 0.77734375 0.921875
vt 0.77734375 0.92578125
vt 0.7734375 0.92578125
vt 0.75 0.96875
vt 1 0.96875
vt 1 0.97265625
vt 0.75 0.97265625
vt 0.75 0.921875
vt 0.75390625 0.921875
vt 0.75390625 0.92578125
vt 0.75 0.92578125
vt 0.77734375 0.921875
vt 0.796875 0.921875
vt 0.796875 0.92578125
vt 0.77734375 0.92578125
vt 1 0.984375
vt 0.75 0.984375
vt 0.75 0.97265625
vt 1 0.97265625
vt 0.75 0.96875
vt 1 0.96875
vt 1 0.97265625
vt 0.75 0.97265625
vn 0 -1 0
vn -0.0000034066791324836707 0.9999999999419731 -0.000010220002580707023
vn 0 0.00000204403672724969 0.999999999997911
vn 0.000003406721986558039 -0.0000023584978590641635 -0.999999999991416
vn 0 -0.000002044032549172088 -0.999999999997911
vn -0.9999999999456856 0.0000020440534393252452 0.000010220120964507964
vn -1.0445129954270624e-10 -0.9999999999477733 0.000010220246306344956
vn -0.9999999999998889 -4.7169989320756347e-7 0
vn 0 1 0
vn 0.9999999999979111 0.000002044032549172088 0
vn 0.000003406713951830478 0.0000023584996308298463 0.9999999999914159
vn 0.9999999999477239 3.14444048531802e-7 -0.000010220246307411967
usemtl m_cbf3955c-d24a-8d0e-c36e-e12d03906151
f 17/49/13 18/50/13 19/51/13 20/52/13
f 21/53/14 22/54/14 23/55/14 24/56/14
f 25/57/15 26/58/15 27/59/15 28/60/15
f 17/61/16 22/62/16 21/63/16 18/64/16
f 29/65/17 30/66/17 31/67/17 32/68/17
f 30/69/18 29/70/18 28/71/18 27/72/18
f 29/73/19 32/74/19 25/75/19 28/76/19
f 22/77/20 17/78/20 20/79/20 23/80/20
f 31/81/21 30/82/21 27/83/21 26/84/21
f 32/85/22 31/86/22 26/87/22 25/88/22
f 19/89/23 24/90/23 23/91/23 20/92/23
f 18/93/24 21/94/24 24/95/24 19/96/24
o MainRotor
v -0.146768 -0.146769 -0.146769
v 0.146768 -0.146769 -0.146769
v 0.146768 -0.146769 0.146769
v -0.146768 -0.146768 0.146769
v -0.14658 -0.146769 -0.538147
v -0.14658 0.146768 -0.538148
v -0.14658 0.146768 -0.440302
v -0.14658 -0.146769 -0.440301
v 0.049111 -0.048925 -1.223067
v 0.049111 0.048921 -1.223068
v 0.146957 0.048921 -1.223068
v 0.146957 -0.048925 -1.223068
v 0.146768 0.146769 0.146768
v -0.146768 0.146769 0.146768
v -0.146768 0.146768 -0.146769
v 0.146768 0.146768 -0.14677
v -0.14658 0.244614 -0.538148
v -0.14658 -0.244615 -0.538146
v -0.14658 -0.244615 -0.440301
v -0.14658 0.244614 -0.440302
v -0.048734 -0.048923 -0.440301
v -0.048734 0.048922 -0.440302
v 0.049112 0.048922 -0.440302
v 0.049112 -0.048923 -0.440301
v 0.146957 -0.14677 -0.538147
v 0.244803 -0.14677 -0.538147
v 0.244803 -0.146769 -0.440301
v 0.146957 -0.146769 -0.440301
v -0.048734 0.048921 -1.223068
v -0.14658 0.048921 -1.223068
v -0.14658 0.048922 -0.538147
v -0.048734 0.048922 -0.538147
v 0.244803 0.146768 -0.538148
v 0.146957 0.146768 -0.538148
v 0.146957 0.146768 -0.440302
v 0.244803 0.146768 -0.440302
v -0.048734 -0.048921 0.244619
v -0.048734 0.048924 0.244619
v -0.244426 0.146768 -0.538147
v -0.244426 0.146768 -0.440302
v -0.048734 -0.048924 -0.538147
v -0.14658 -0.048924 -0.538147
v 0.790294 0.046477 -0.34001
v -0.789916 0.046477 -0.34001
v -0.789916 0.046477 -0.247056
v 0.790294 0.046477 -0.247056
v -0.14658 -0.048925 -1.223067
v -0.048734 -0.048925 -1.223067
v 0.146957 -0.244615 -0.538146
v 0.146957 0.244614 -0.538148
v 0.146957 0.244614 -0.440302
v 0.146957 -0.244615 -0.440301
v 0.049112 -0.048921 0.244619
v 0.049112 0.048924 0.244619
v 0.146957 0.048922 -0.538147
v 0.146957 -0.048924 -0.538147
v 0.790294 -0.046477 -0.247056
v -0.789916 -0.046477 -0.247055
v -0.244426 -0.146769 -0.538147
v -0.244426 -0.146769 -0.440301
v -0.789916 -0.046477 -0.340009
v 0.049111 -0.048924 -0.538147
v 0.049112 0.048922 -0.538147
v 0.790294 -0.046477 -0.34001
vt 0.7734375 0.9296875
vt 0.78515625 0.9296875
vt 0.78515625 0.94140625
vt 0.7734375 0.94140625
vt 0.84375 0.9296875
vt 0.85546875 0.9296875
vt 0.85546875 0.93359375
vt 0.84375 0.93359375
vt 0.8359375 0.96484375
vt 0.83203125 0.96484375
vt 0.83203125 0.96875
vt 0.8359375 0.96875
vt 0.7734375 0.953125
vt 0.76171875 0.953125
vt 0.76171875 0.94140625
vt 0.7734375 0.94140625
vt 0.78515625 0.94140625
vt 0.7734375 0.94140625
vt 0.7734375 0.953125
vt 0.78515625 0.953125
vt 0.78515625 0.9296875
vt 0.796875 0.9296875
vt 0.796875 0.94140625
vt 0.78515625 0.94140625
vt 0.76171875 0.953125
vt 0.78125 0.953125
vt 0.78125 0.95703125
vt 0.76171875 0.95703125
vt 0.76171875 0.9296875
vt 0.7734375 0.9296875
vt 0.7734375 0.94140625
vt 0.76171875 0.94140625
vt 0.8515625 0.96484375
vt 0.84765625 0.96484375
vt 0.84765625 0.96875
vt 0.8515625 0.96875
vt 0.765625 0.9140625
vt 0.76953125 0.9140625
vt 0.76953125 0.91796875
vt 0.765625 0.91796875
vt 0.796875 0.921875
vt 0.80078125 0.921875
vt 0.80078125 0.94921875
vt 0.796875 0.94921875
vt 0.75 0.9140625
vt 0.75390625 0.9140625
vt 0.75390625 0.91796875
vt 0.75 0.91796875
vt 0.84375 0.9375
vt 0.84765625 0.9375
vt 0.84765625 0.96484375
vt 0.84375 0.96484375
vt 0.82421875 0.9296875
vt 0.828125 0.9296875
vt 0.828125 0.93359375
vt 0.82421875 0.93359375
vt 0.8046875 0.953125
vt 0.80078125 0.953125
vt 0.80078125 0.94921875
vt 0.8046875 0.94921875
vt 0.75 0.8984375
vt 0.81640625 0.8984375
vt 0.81640625 0.90234375
vt 0.75 0.90234375
vt 0.80859375 0.94921875
vt 0.8046875 0.94921875
vt 0.8046875 0.953125
vt 0.80859375 0.953125
vt 0.79296875 0.953125
vt 0.8125 0.953125
vt 0.8125 0.95703125
vt 0.79296875 0.95703125
vt 0.84765625 0.96875
vt 0.84375 0.96875
vt 0.84375 0.96484375
vt 0.84765625 0.96484375
vt 0.8515625 0.9375
vt 0.85546875 0.9375
vt 0.85546875 0.96484375
vt 0.8515625 0.96484375
vt 0.80078125 0.95703125
vt 0.78125 0.95703125
vt 0.78125 0.96875
vt 0.80078125 0.96875
vt 0.8359375 0.9375
vt 0.83984375 0.9375
vt 0.83984375 0.96484375
vt 0.8359375 0.96484375
vt 0.8203125 0.96875
vt 0.81640625 0.96875
vt 0.81640625 0.90234375
vt 0.8203125 0.90234375
vt 0.828125 0.9296875
vt 0.83984375 0.9296875
vt 0.83984375 0.93359375
vt 0.828125 0.93359375
vt 0.81640625 0.8984375
vt 0.8203125 0.8984375
vt 0.8203125 0.90234375
vt 0.81640625 0.90234375
vt 0.75 0.953125
vt 0.76171875 0.953125
vt 0.76171875 0.95703125
vt 0.75 0.95703125
vt 0.765625 0.921875
vt 0.75390625 0.921875
vt 0.75390625 0.91796875
vt 0.765625 0.91796875
vt 0.78125 0.96875
vt 0.76171875 0.96875
vt 0.76171875 0.95703125
vt 0.78125 0.95703125
vt 0.83984375 0.9375
vt 0.84375 0.9375
vt 0.84375 0.96484375
vt 0.83984375 0.96484375
vt 0.80078125 0.921875
vt 0.8046875 0.921875
vt 0.8046875 0.94921875
vt 0.80078125 0.94921875
vt 0.83203125 0.9375
vt 0.8359375 0.9375
vt 0.8359375 0.96484375
vt 0.83203125 0.96484375
vt 0.84765625 0.9375
vt 0.8515625 0.9375
vt 0.8515625 0.96484375
vt 0.84765625 0.96484375
vt 0.83984375 0.9375
vt 0.828125 0.9375
vt 0.828125 0.93359375
vt 0.83984375 0.93359375
vt 0.83984375 0.9296875
vt 0.84375 0.9296875
vt 0.84375 0.93359375
vt 0.83984375 0.93359375
vt 0.78125 0.953125
vt 0.79296875 0.953125
vt 0.79296875 0.95703125
vt 0.78125 0.95703125
vt 0.75390625 0.9140625
vt 0.765625 0.9140625
vt 0.765625 0.91796875
vt 0.75390625 0.91796875
vt 0.83203125 0.96875
vt 0.828125 0.96875
vt 0.828125 0.96484375
vt 0.83203125 0.96484375
vt 0.82421875 0.90234375
vt 0.8203125 0.90234375
vt 0.8203125 0.96875
vt 0.82421875 0.96875
vt 0.77734375 0.91796875
vt 0.765625 0.91796875
vt 0.765625 0.921875
vt 0.77734375 0.921875
vt 0.88671875 0.8984375
vt 0.890625 0.8984375
vt 0.890625 0.90234375
vt 0.88671875 0.90234375
vt 0.75 0.9296875
vt 0.76171875 0.9296875
vt 0.76171875 0.94140625
vt 0.75 0.94140625
vt 0.76953125 0.9140625
vt 0.78125 0.9140625
vt 0.78125 0.91796875
vt 0.76953125 0.91796875
vt 0.8515625 0.93359375
vt 0.83984375 0.93359375
vt 0.83984375 0.9375
vt 0.8515625 0.9375
vt 0.8203125 0.8984375
vt 0.88671875 0.8984375
vt 0.88671875 0.90234375
vt 0.8203125 0.90234375
vt 0.80859375 0.921875
vt 0.8125 0.921875
vt 0.8125 0.94921875
vt 0.80859375 0.94921875
vt 0.82421875 0.9375
vt 0.828125 0.9375
vt 0.828125 0.96484375
vt 0.82421875 0.96484375
vt 0.828125 0.9375
vt 0.83203125 0.9375
vt 0.83203125 0.96484375
vt 0.828125 0.96484375
vt 0.8046875 0.921875
vt 0.80859375 0.921875
vt 0.80859375 0.94921875
vt 0.8046875 0.94921875
vn 0 -1 0
vn 1 0 0
vn 0 -0.000010220141856463752 -0.9999999999477744
vn 0 0.000003406713951839957 0.9999999999941973
vn -0.0000034067371633980057 0 -0.9999999999941971
vn 1 0 0
vn -1 0 0
vn -1 0 0
vn 0 -0.000010220246307696141 -0.9999999999477733
vn 0 -0.9999999999477744 0.00001022014185504542
vn 0 0.9999999999989342 -0.0000014600223967434702
vn 0 1 0
vn -1 0 0
vn 0 1 0
vn 0 0 1
vn 0 1 0
vn 0 -0.000010220141856463752 -0.9999999999477744
vn 1 0 0
vn 0 0 1
vn 1 0 0
vn 0 -0.000004088065098205087 -0.9999999999916439
vn 1 0 0
vn 0 0 1
vn -1 0 0
vn -1 0 0
vn 0 1 0
vn 0 0.0000034067255576739987 0.9999999999941971
vn 0 0.0000020440325492288205 0.9999999999979111
vn 0 0.9999999999957369 -0.000002920044793477604
vn -1 0 0
vn 1.4921636009111756e-11 -0.9999999999989342 0.00000146002239674347
vn 0 -0.9999999999957366 0.0000029200490568146264
vn 0 0.000003406725557673999 0.9999999999941972
vn 0 -1 0
vn 0 -1 0
vn -1 0 0
vn 0 0 1
vn 0 -0.000010758009337041732 -0.9999999999421327
vn 0 -0.000003406713951556291 -0.9999999999941972
vn 1 0 0
vn -1.1605818562571033e-11 0.9999999999941971 -0.0000034067255575794436
vn 1 0 0
vn -0.000010220141854194424 0 -0.9999999999477743
vn 0 -1 0
vn 1 0 0
vn 0 0.9999999999989342 -0.00000146002239674347
vn -1 0 0
vn 0 -0.9999999999989342 0.0000014600245284119816
usemtl m_cbf3955c-d24a-8d0e-c36e-e12d03906151
f 33/97/25 34/98/25 35/99/25 36/100/25
f 37/101/26 38/102/26 39/103/26 40/104/26
f 41/105/27 42/106/27 43/107/27 44/108/27
f 35/109/28 45/110/28 46/111/28 36/112/28
f 33/113/29 47/114/29 48/115/29 34/116/29
f 34/117/30 48/118/30 45/119/30 35/120/30
f 49/121/31 50/122/31 51/123/31 52/124/31
f 47/125/32 33/126/32 36/127/32 46/128/32
f 53/129/33 54/130/33 55/131/33 56/132/33
f 57/133/34 58/134/34 59/135/34 60/136/34
f 61/137/35 62/138/35 63/139/35 64/140/35
f 65/141/36 66/142/36 67/143/36 68/144/36
f 54/145/37 53/146/37 69/147/37 70/148/37
f 38/149/38 71/150/38 72/151/38 39/152/38
f 73/153/39 64/154/39 63/155/39 74/156/39
f 75/157/40 76/158/40 77/159/40 78/160/40
f 79/161/41 62/162/41 61/163/41 80/164/41
f 81/165/42 82/166/42 83/167/42 84/168/42
f 85/169/43 86/170/43 70/171/43 69/172/43
f 56/173/44 55/174/44 86/175/44 85/176/44
f 50/177/45 49/178/45 82/179/45 81/180/45
f 44/181/46 43/182/46 87/183/46 88/184/46
f 89/185/47 78/186/47 77/187/47 90/188/47
f 71/189/48 91/190/48 92/191/48 72/192/48
f 76/193/49 93/194/49 90/195/49 77/196/49
f 82/197/50 49/198/50 52/199/50 83/200/50
f 59/201/51 68/202/51 67/203/51 60/204/51
f 84/205/52 83/206/52 52/207/52 51/208/52
f 55/209/53 54/210/53 70/211/53 86/212/53
f 62/213/54 79/214/54 74/215/54 63/216/54
f 41/217/55 44/218/55 88/219/55 94/220/55
f 53/221/56 56/222/56 85/223/56 69/224/56
f 40/225/57 39/226/57 72/227/57 92/228/57
f 91/229/58 37/230/58 40/231/58 92/232/58
f 50/233/59 81/234/59 84/235/59 51/236/59
f 66/237/60 57/238/60 60/239/60 67/240/60
f 88/241/61 87/242/61 95/243/61 94/244/61
f 93/245/62 76/246/62 75/247/62 96/248/62
f 57/249/63 66/250/63 65/251/63 58/252/63
f 96/253/64 75/254/64 78/255/64 89/256/64
f 48/257/65 47/258/65 46/259/65 45/260/65
f 58/261/66 65/262/66 68/263/66 59/264/66
f 91/265/67 71/266/67 38/267/67 37/268/67
f 93/269/68 96/270/68 89/271/68 90/272/68
f 80/273/69 61/274/69 64/275/69 73/276/69
f 43/277/70 42/278/70 95/279/70 87/280/70
f 42/281/71 41/282/71 94/283/71 95/284/71
f 79/285/72 80/286/72 73/287/72 74/288/72
o translucent_b47g_mblur
v 7 7 0.06343749999999998
v 7 7 0.0625
v 7 -7 0.06343749999999998
v 7 -7 0.0625
v -7 7 0.06343749999999998
v -7 7 0.0625
v -7 -7 0.06343749999999998
v -7 -7 0.0625
vt 0.59765625 1
vt 0.59765625 1
vt 0.59375 1
vt 0.59375 1
vt 0.59765625 1
vt 0.59765625 1
vt 0.59375 1
vt 0.59375 1
vt 0.6015625 0.69921875
vt 0.6015625 1
vt 0.5859375 1
vt 0.5859375 0.69921875
vt 0.59765625 0.9375
vt 0.59765625 1
vt 0.5859375 1
vt 0.5859375 0.9375
vt 0.99609375 0.09765625
vt 0.99609375 0.515625
vt 0.578125 0.515625
vt 0.578125 0.09765625
vt 0.578125 0.09765625
vt 0.578125 0.515625
vt 0.99609375 0.515625
vt 0.99609375 0.09765625
vn 1 0 0
vn -1 0 0
vn 0 1 0
vn 0 -1 0
vn 0 0 1
vn 0 0 -1
usemtl m_cbf3955c-d24a-8d0e-c36e-e12d03906151
f 100/289/73 98/290/73 97/291/73 99/292/73
f 103/293/74 101/294/74 102/295/74 104/296/74
f 97/297/75 98/298/75 102/299/75 101/300/75
f 100/301/76 99/302/76 103/303/76 104/304/76
f 99/305/77 97/306/77 101/307/77 103/308/77
f 104/309/78 102/310/78 98/311/78 100/312/78