# Made in Blockbench 4.9.4
mtllib scoutpickuproof.mtl

o cube
v 0.584375 0.7062500000000003 0.021874999999999645
v 0.584375 1.34375 0.07499999999999973
v 0.584375 1.34375 -0.03125
v 0.584375 0.7062500000000003 -0.08437500000000009
v 0.85 1.34375 -0.03125
v 0.85 1.34375 0.07499999999999973
v 0.9562499999999999 0.7062500000000003 0.021874999999999645
v 0.9562499999999999 0.7062500000000003 -0.08437500000000009
v 0.903125 1.396875 -0.03125
v 0.903125 1.396875 0.925
v 0.903125 1.34375 0.925
v 0.903125 1.34375 -0.03125
v -0.903125 1.34375 0.925
v -0.903125 1.396875 0.925
v -0.903125 1.396875 -0.03125
v -0.903125 1.34375 -0.03125
v 0 1.396875 0.925
v 0 1.396875 -0.03125
v 0 1.34375 -0.03125
v 0 1.34375 0.925
v -0.85 1.34375 -0.03125
v -0.85 1.34375 0.12812499999999982
v -0.9562499999999999 0.7062500000000003 0.12812499999999982
v -0.9562499999999999 0.7062500000000003 -0.08437500000000009
v -1.009375 0.7062500000000003 0.12812499999999982
v -0.903125 1.34375 0.12812499999999982
v -0.903125 1.34375 -0.03125
v -1.009375 0.7062500000000003 -0.08437500000000009
v 0.9562499999999999 0.7062500000000003 0.12812499999999982
v 0.85 1.34375 0.12812499999999982
v 0.85 1.34375 -0.03125
v 0.9562499999999999 0.7062500000000003 -0.08437500000000009
v 0.903125 1.34375 -0.03125
v 0.903125 1.34375 0.12812499999999982
v 1.009375 0.7062500000000003 0.12812499999999982
v 1.009375 0.7062500000000003 -0.08437500000000009
v 0.903125 0.7062499999999998 -0.08437500000000009
v 0.903125 0.7062499999999998 0.02187500000000009
v 0.903125 -0.03750000000000009 0.02187500000000009
v 0.903125 -0.03750000000000009 -0.08437500000000009
v -0.903125 -0.03750000000000009 0.02187500000000009
v -0.903125 0.7062499999999998 0.02187500000000009
v -0.903125 0.7062499999999998 -0.08437500000000009
v -0.903125 -0.03750000000000009 -0.08437500000000009
v -0.584375 1.34375 -0.03125
v -0.584375 1.34375 0.07499999999999973
v -0.584375 0.7062500000000003 0.021874999999999645
v -0.584375 0.7062500000000003 -0.08437500000000009
v -0.9562499999999999 0.7062500000000003 0.021874999999999645
v -0.85 1.34375 0.07499999999999973
v -0.85 1.34375 -0.03125
v -0.9562499999999999 0.7062500000000003 -0.08437500000000009
vt 0.00390625 0.04296875
vt 0.05078125 0.04296875
vt 0.046875 0.05078125
vt 0 0.05078125
vt 0.171875 0.05859375
vt 0.1640625 0.05859375
vt 0.1640625 0.01171875
vt 0.171875 0.01171875
vt 0.078125 0.03515625
vt 0.078125 0.02734375
vt 0.09765625 0.02734375
vt 0.09765625 0.03515625
vt 0.234375 0.0703125
vt 0.20703125 0.0703125
vt 0.20703125 0.0625
vt 0.234375 0.0625
vt 0.05078125 0.1015625
vt 0.03125 0.1015625
vt 0.03125 0.0546875
vt 0.05859375 0.0546875
vt 0.08984375 0.0546875
vt 0.08984375 0.1015625
vt 0.0703125 0.1015625
vt 0.0625 0.0546875
vt 0.125 0.05078125
vt 0.0546875 0.05078125
vt 0.0546875 0.046875
vt 0.125 0.046875
vt 0.125 0.0390625
vt 0.125 0.04296875
vt 0.0546875 0.04296875
vt 0.0546875 0.0390625
vt 0 0.1796875
vt 0.06640625 0.1796875
vt 0.06640625 0.25
vt 0 0.25
vt 0 0.10546875
vt 0.06640625 0.10546875
vt 0.06640625 0.17578125
vt 0 0.17578125
vt 0.18359375 0.10546875
vt 0.25 0.10546875
vt 0.25 0.109375
vt 0.18359375 0.109375
vt 0.31640625 0.1015625
vt 0.25 0.1015625
vt 0.25 0.09765625
vt 0.31640625 0.09765625
vt 0.31640625 0.109375
vt 0.25 0.109375
vt 0.25 0.10546875
vt 0.31640625 0.10546875
vt 0.1328125 0.17578125
vt 0.06640625 0.17578125
vt 0.06640625 0.10546875
vt 0.1328125 0.10546875
vt 0.18359375 0.09765625
vt 0.25 0.09765625
vt 0.25 0.1015625
vt 0.18359375 0.1015625
vt 0.1328125 0.25
vt 0.06640625 0.25
vt 0.06640625 0.1796875
vt 0.1328125 0.1796875
vt 0.10546875 0.1015625
vt 0.09375 0.1015625
vt 0.09375 0.0546875
vt 0.109375 0.0546875
vt 0.12890625 0.0546875
vt 0.12890625 0.1015625
vt 0.1171875 0.1015625
vt 0.11328125 0.0546875
vt 0.109375 0.0234375
vt 0.11328125 0.0234375
vt 0.11328125 0.03515625
vt 0.109375 0.03515625
vt 0.0625 0.0859375
vt 0.0625 0.1015625
vt 0.05859375 0.1015625
vt 0.05859375 0.0859375
vt 0 0.03515625
vt 0.05078125 0.03515625
vt 0.05078125 0.0390625
vt 0 0.0390625
vt 0.1796875 0.05859375
vt 0.17578125 0.05859375
vt 0.17578125 0.01171875
vt 0.1796875 0.01171875
vt 0.1796875 0.0625
vt 0.1796875 0.109375
vt 0.16796875 0.109375
vt 0.1640625 0.0625
vt 0.14453125 0.07421875
vt 0.1328125 0.07421875
vt 0.1328125 0.02734375
vt 0.1484375 0.02734375
vt 0.1171875 0.03515625
vt 0.1171875 0.0234375
vt 0.12109375 0.0234375
vt 0.12109375 0.03515625
vt 0.10546875 0.03515625
vt 0.1015625 0.03515625
vt 0.1015625 0.01953125
vt 0.10546875 0.01953125
vt 0.2109375 0.05078125
vt 0.20703125 0.05078125
vt 0.20703125 0.00390625
vt 0.2109375 0.00390625
vt 0.20703125 0.0546875
vt 0.2578125 0.0546875
vt 0.2578125 0.05859375
vt 0.20703125 0.05859375
vt 0.16015625 0.07421875
vt 0.15234375 0.07421875
vt 0.15234375 0.01953125
vt 0.16015625 0.01953125
vt 0.19140625 0.0390625
vt 0.19140625 0.09375
vt 0.18359375 0.09375
vt 0.18359375 0.0390625
vt 0.1640625 0.125
vt 0.296875 0.125
vt 0.296875 0.1328125
vt 0.1640625 0.1328125
vt 0.296875 0.11328125
vt 0.296875 0.12109375
vt 0.1640625 0.12109375
vt 0.1640625 0.11328125
vt 0.26953125 0.1953125
vt 0.26953125 0.25
vt 0.13671875 0.25
vt 0.13671875 0.1953125
vt 0.26953125 0.19140625
vt 0.13671875 0.19140625
vt 0.13671875 0.13671875
vt 0.26953125 0.13671875
vt 0.203125 0.08203125
vt 0.1953125 0.08203125
vt 0.1953125 0.03515625
vt 0.203125 0.03515625
vt 0.1953125 0.0859375
vt 0.24609375 0.0859375
vt 0.24609375 0.09375
vt 0.1953125 0.09375
vt 0.0546875 0.02734375
vt 0.07421875 0.02734375
vt 0.07421875 0.03515625
vt 0.0546875 0.03515625
vt 0.234375 0.07421875
vt 0.234375 0.08203125
vt 0.20703125 0.08203125
vt 0.20703125 0.07421875
vt 0.16015625 0.078125
vt 0.16015625 0.125
vt 0.140625 0.125
vt 0.1328125 0.078125
vt 0.01953125 0.1015625
vt 0 0.1015625
vt 0 0.0546875
vt 0.02734375 0.0546875
vn -1 0 0
vn 0.9863939238321437 0.1643989873053573 0
vn 0 1 0
vn 0 -1 0
vn 0 -0.08304547985374015 0.9965457582448798
vn 0 0.08304547985374015 -0.9965457582448798
vn 1 0 0
vn -1 0 0
vn 0 1 0
vn 0 -1 0
vn 0 0 1
vn 0 0 -1
vn 0 0 1
vn 0 -1 0
vn 0 0 -1
vn 0 1 0
vn 0.9863939238321437 -0.16439898730535732 0
vn -0.9863939238321437 0.16439898730535732 0
vn 0 1 0
vn 0 -1 0
vn 0 0 1
vn 0 0.08304547985374015 -0.9965457582448798
vn -0.9863939238321437 -0.16439898730535732 0
vn 0.9863939238321437 0.16439898730535732 0
vn 0 1 0
vn 0 -1 0
vn 0 0 1
vn 0 0.08304547985374015 -0.9965457582448798
vn 1 0 0
vn -1 0 0
vn 0 1 0
vn 0 -1 0
vn 0 0 1
vn 0 0 -1
vn 1 0 0
vn -0.9863939238321437 0.16439898730535732 0
vn 0 1 0
vn 0 -1 0
vn 0 -0.08304547985374015 0.9965457582448798
vn 0 0.08304547985374015 -0.9965457582448798
usemtl none
f 1/1/1 2/2/1 3/3/1 4/4/1
f 5/5/2 6/6/2 7/7/2 8/8/2
f 3/9/3 2/10/3 6/11/3 5/12/3
f 7/13/4 1/14/4 4/15/4 8/16/4
f 6/17/5 2/18/5 1/19/5 7/20/5
f 4/21/6 3/22/6 5/23/6 8/24/6
f 9/25/7 10/26/7 11/27/7 12/28/7
f 13/29/8 14/30/8 15/31/8 16/32/8
f 14/33/9 17/34/9 18/35/9 15/36/9
f 16/37/10 19/38/10 20/39/10 13/40/10
f 13/41/11 20/42/11 17/43/11 14/44/11
f 15/45/12 18/46/12 19/47/12 16/48/12
f 10/49/13 17/50/13 20/51/13 11/52/13
f 11/53/14 20/54/14 19/55/14 12/56/14
f 12/57/15 19/58/15 18/59/15 9/60/15
f 9/61/16 18/62/16 17/63/16 10/64/16
f 21/65/17 22/66/17 23/67/17 24/68/17
f 25/69/18 26/70/18 27/71/18 28/72/18
f 26/73/19 22/74/19 21/75/19 27/76/19
f 24/77/20 23/78/20 25/79/20 28/80/20
f 23/81/21 22/82/21 26/83/21 25/84/21
f 27/85/22 21/86/22 24/87/22 28/88/22
f 29/89/23 30/90/23 31/91/23 32/92/23
f 33/93/24 34/94/24 35/95/24 36/96/24
f 31/97/25 30/98/25 34/99/25 33/100/25
f 35/101/26 29/102/26 32/103/26 36/104/26
f 34/105/27 30/106/27 29/107/27 35/108/27
f 32/109/28 31/110/28 33/111/28 36/112/28
f 37/113/29 38/114/29 39/115/29 40/116/29
f 41/117/30 42/118/30 43/119/30 44/120/30
f 42/121/31 38/122/31 37/123/31 43/124/31
f 40/125/32 39/126/32 41/127/32 44/128/32
f 39/129/33 38/130/33 42/131/33 41/132/33
f 43/133/34 37/134/34 40/135/34 44/136/34
f 45/137/35 46/138/35 47/139/35 48/140/35
f 49/141/36 50/142/36 51/143/36 52/144/36
f 50/145/37 46/146/37 45/147/37 51/148/37
f 48/149/38 47/150/38 49/151/38 52/152/38
f 47/153/39 46/154/39 50/155/39 49/156/39
f 51/157/40 45/158/40 48/159/40 52/160/40
o Wlndow
v 0.584375 1.3415032379567136 0.022356118384766505
v 0.584375 0.703125 -0.031250000000000056
v -0.5875 0.703125 -0.031250000000000056
v -0.5875 1.3415032379567136 0.022356118384766505
vt 0.21484375 0.04296875
vt 0.21484375 0
vt 0.29296875 0
vt 0.29296875 0.04296875
vn 0 0.08367784333231854 -0.9964928592495041
usemtl none
f 53/161/41 54/162/41 55/163/41 56/164/41