# Made in Blockbench 4.10.4
mtllib seat.mtl

o seat
v -0.3125 -0.265625 -0.095703
v -0.3125 -0.328125 -0.095703
v -0.3125 -0.265625 0.029297
v -0.3125 -0.328125 0.029297
v -0.1875 -0.265625 0.029297
v -0.1875 -0.328125 0.029297
v -0.1875 -0.265625 -0.095703
v -0.1875 -0.328125 -0.095703
v 0.0625 0.984375 -0.283203
v 0.0625 0.859375 -0.283203
v 0.0625 0.984375 -0.220703
v 0.0625 0.859375 -0.220703
v 0.125 0.984375 -0.220703
v 0.125 0.859375 -0.220703
v 0.125 0.984375 -0.283203
v 0.125 0.859375 -0.283203
v -0.375 -0.015625 -0.283203
v -0.375 -0.203125 -0.283203
v -0.375 -0.015625 0.466797
v -0.375 -0.203125 0.466797
v 0.375 -0.015625 0.466797
v 0.375 -0.203125 0.466797
v 0.375 -0.015625 -0.283203
v 0.375 -0.203125 -0.283203
v -0.3125 0.109375 -0.283203
v -0.3125 -0.015625 -0.283203
v -0.3125 0.109375 -0.220703
v -0.3125 -0.015625 -0.220703
v 0.3125 0.109375 -0.220703
v 0.3125 -0.015625 -0.220703
v 0.3125 0.109375 -0.283203
v 0.3125 -0.015625 -0.283203
v 0.3125 0.046875 -0.033203
v 0.3125 -0.015625 -0.033203
v 0.3125 0.046875 0.404297
v 0.3125 -0.015625 0.404297
v 0.375 0.046875 0.404297
v 0.375 -0.015625 0.404297
v 0.375 0.046875 -0.033203
v 0.375 -0.015625 -0.033203
v 0.1875 -0.265625 0.341797
v 0.1875 -0.328125 0.341797
v 0.1875 -0.265625 0.404297
v 0.1875 -0.328125 0.404297
v 0.3125 -0.265625 0.404297
v 0.3125 -0.328125 0.404297
v 0.3125 -0.265625 0.341797
v 0.3125 -0.328125 0.341797
v 0.3125 0.859375 -0.158203
v 0.3125 0.171875 -0.158203
v 0.3125 0.859375 -0.095703
v 0.3125 0.171875 -0.095703
v 0.375 0.859375 -0.095703
v 0.375 0.171875 -0.095703
v 0.375 0.859375 -0.158203
v 0.375 0.171875 -0.158203
v -0.125 0.984375 -0.283203
v -0.125 0.859375 -0.283203
v -0.125 0.984375 -0.220703
v -0.125 0.859375 -0.220703
v -0.0625 0.984375 -0.220703
v -0.0625 0.859375 -0.220703
v -0.0625 0.984375 -0.283203
v -0.0625 0.859375 -0.283203
v 0.1875 -0.265625 -0.095703
v 0.1875 -0.328125 -0.095703
v 0.1875 -0.265625 0.029297
v 0.1875 -0.328125 0.029297
v 0.3125 -0.265625 0.029297
v 0.3125 -0.328125 0.029297
v 0.3125 -0.265625 -0.095703
v 0.3125 -0.328125 -0.095703
v -0.375 0.046875 -0.033203
v -0.375 -0.015625 -0.033203
v -0.375 0.046875 0.404297
v -0.375 -0.015625 0.404297
v -0.3125 0.046875 0.404297
v -0.3125 -0.015625 0.404297
v -0.3125 0.046875 -0.033203
v -0.3125 -0.015625 -0.033203
v -0.375 0.859375 -0.345703
v -0.375 0.109375 -0.345703
v -0.375 0.859375 -0.158203
v -0.375 0.109375 -0.158203
v 0.375 0.859375 -0.158203
v 0.375 0.109375 -0.158203
v 0.375 0.859375 -0.345703
v 0.375 0.109375 -0.345703
v -0.25 1.234375 -0.345703
v -0.25 0.984375 -0.345703
v -0.25 1.234375 -0.158203
v -0.25 0.984375 -0.158203
v 0.25 1.234375 -0.158203
v 0.25 0.984375 -0.158203
v 0.25 1.234375 -0.345703
v 0.25 0.984375 -0.345703
v -0.375 0.859375 -0.158203
v -0.375 0.171875 -0.158203
v -0.375 0.859375 -0.095703
v -0.375 0.171875 -0.095703
v -0.3125 0.859375 -0.095703
v -0.3125 0.171875 -0.095703
v -0.3125 0.859375 -0.158203
v -0.3125 0.171875 -0.158203
v -0.25 -0.203125 -0.033203
v -0.25 -0.265625 -0.033203
v -0.25 -0.203125 0.404297
v -0.25 -0.265625 0.404297
v -0.1875 -0.203125 0.404297
v -0.1875 -0.265625 0.404297
v -0.1875 -0.203125 -0.033203
v -0.1875 -0.265625 -0.033203
v 0.1875 -0.203125 -0.033203
v 0.1875 -0.265625 -0.033203
v 0.1875 -0.203125 0.404297
v 0.1875 -0.265625 0.404297
v 0.25 -0.203125 0.404297
v 0.25 -0.265625 0.404297
v 0.25 -0.203125 -0.033203
v 0.25 -0.265625 -0.033203
v -0.3125 -0.265625 0.341797
v -0.3125 -0.328125 0.341797
v -0.3125 -0.265625 0.404297
v -0.3125 -0.328125 0.404297
v -0.1875 -0.265625 0.404297
v -0.1875 -0.328125 0.404297
v -0.1875 -0.265625 0.341797
v -0.1875 -0.328125 0.341797
vt 0.296875 0.53125
vt 0.296875 0.515625
vt 0.328125 0.53125
vt 0.296875 0.515625
vt 0.328125 0.515625
vt 0.328125 0.53125
vt 0.328125 0.53125
vt 0.328125 0.515625
vt 0.359375 0.53125
vt 0.328125 0.515625
vt 0.359375 0.515625
vt 0.359375 0.53125
vt 0.03125 0.4375
vt 0.03125 0.46875
vt 0 0.4375
vt 0.03125 0.46875
vt 0 0.46875
vt 0 0.4375
vt 0.0625 0.4375
vt 0.0625 0.46875
vt 0.03125 0.4375
vt 0.0625 0.46875
vt 0.03125 0.46875
vt 0.03125 0.4375
vt 0.328125 0.46875
vt 0.328125 0.453125
vt 0.359375 0.46875
vt 0.328125 0.453125
vt 0.359375 0.453125
vt 0.359375 0.46875
vt 0.359375 0.46875
vt 0.359375 0.453125
vt 0.390625 0.46875
vt 0.359375 0.453125
vt 0.390625 0.453125
vt 0.390625 0.46875
vt 0.09375 0.46875
vt 0.09375 0.4375
vt 0.109375 0.46875
vt 0.09375 0.4375
vt 0.109375 0.4375
vt 0.109375 0.46875
vt 0.390625 0.46875
vt 0.390625 0.4375
vt 0.40625 0.46875
vt 0.390625 0.4375
vt 0.40625 0.4375
vt 0.40625 0.46875
vt 0.578125 0.953125
vt 0.578125 0.96875
vt 0.5625 0.953125
vt 0.0625 0.4375
vt 0.046875 0.4375
vt 0.046875 0.421875
vt 0.578125 0.9375
vt 0.578125 0.953125
vt 0.5625 0.9375
vt 0.078125 0.4375
vt 0.0625 0.4375
vt 0.0625 0.421875
vt 0.53125 0.578125
vt 0.53125 0.546875
vt 0.546875 0.578125
vt 0.53125 0.546875
vt 0.546875 0.546875
vt 0.546875 0.578125
vt 0.53125 0.546875
vt 0.53125 0.515625
vt 0.546875 0.546875
vt 0.53125 0.515625
vt 0.546875 0.515625
vt 0.546875 0.546875
vt 0 0.625
vt 0 0.578125
vt 0.1875 0.625
vt 0 0.578125
vt 0.1875 0.578125
vt 0.1875 0.625
vt 0.375 1
vt 0.375 0.953125
vt 0.5625 1
vt 0.375 0.953125
vt 0.5625 0.953125
vt 0.5625 1
vt 0.1875 0.8125
vt 0.1875 1
vt 0 0.8125
vt 0.1875 1
vt 0 1
vt 0 0.8125
vt 0.1875 0.625
vt 0.1875 0.8125
vt 0 0.625
vt 0.1875 0.8125
vt 0 0.8125
vt 0 0.625
vt 0.375 0.953125
vt 0.375 0.90625
vt 0.5625 0.953125
vt 0.375 0.90625
vt 0.5625 0.90625
vt 0.5625 0.953125
vt 0.375 0.90625
vt 0.375 0.859375
vt 0.5625 0.90625
vt 0.375 0.859375
vt 0.5625 0.859375
vt 0.5625 0.90625
vt 0.53125 0.515625
vt 0.53125 0.484375
vt 0.546875 0.515625
vt 0.53125 0.484375
vt 0.546875 0.484375
vt 0.546875 0.515625
vt 0.5 0.46875
vt 0.5 0.4375
vt 0.515625 0.46875
vt 0.5 0.4375
vt 0.515625 0.4375
vt 0.515625 0.46875
vt 0.578125 0.671875
vt 0.578125 0.6875
vt 0.421875 0.671875
vt 0.578125 0.6875
vt 0.421875 0.6875
vt 0.421875 0.671875
vt 0.15625 0.5
vt 0.15625 0.515625
vt 0 0.5
vt 0.15625 0.515625
vt 0 0.515625
vt 0 0.5
vt 0.421875 0.75
vt 0.421875 0.71875
vt 0.578125 0.75
vt 0.421875 0.71875
vt 0.578125 0.71875
vt 0.578125 0.75
vt 0.421875 0.71875
vt 0.421875 0.6875
vt 0.578125 0.71875
vt 0.421875 0.6875
vt 0.578125 0.6875
vt 0.578125 0.71875
vt 0.296875 0.515625
vt 0.296875 0.5
vt 0.40625 0.515625
vt 0.296875 0.5
vt 0.40625 0.5
vt 0.40625 0.515625
vt 0.484375 0.625
vt 0.484375 0.609375
vt 0.59375 0.625
vt 0.484375 0.609375
vt 0.59375 0.609375
vt 0.59375 0.625
vt 0.171875 0.40625
vt 0.171875 0.515625
vt 0.15625 0.40625
vt 0.171875 0.515625
vt 0.15625 0.515625
vt 0.15625 0.40625
vt 0.5 0.5
vt 0.5 0.609375
vt 0.484375 0.5
vt 0.5 0.609375
vt 0.484375 0.609375
vt 0.484375 0.5
vt 0.5625 0.9375
vt 0.5625 0.921875
vt 0.578125 0.9375
vt 0.078125 0.421875
vt 0.09375 0.421875
vt 0.09375 0.4375
vt 0.5625 0.921875
vt 0.5625 0.90625
vt 0.578125 0.921875
vt 0.09375 0.421875
vt 0.109375 0.421875
vt 0.109375 0.4375
vt 0.5625 0.90625
vt 0.5625 0.890625
vt 0.578125 0.90625
vt 0.5625 0.875
vt 0.578125 0.875
vt 0.578125 0.890625
vt 0.5625 0.875
vt 0.5625 0.859375
vt 0.578125 0.875
vt 0.5625 0.8125
vt 0.578125 0.8125
vt 0.578125 0.828125
vt 0.546875 0.453125
vt 0.546875 0.46875
vt 0.515625 0.453125
vt 0.546875 0.46875
vt 0.515625 0.46875
vt 0.515625 0.453125
vt 0.5625 0.46875
vt 0.5625 0.484375
vt 0.53125 0.46875
vt 0.5625 0.484375
vt 0.53125 0.484375
vt 0.53125 0.46875
vt 0.546875 0.859375
vt 0.546875 0.84375
vt 0.578125 0.859375
vt 0.546875 0.84375
vt 0.578125 0.84375
vt 0.578125 0.859375
vt 0.546875 0.84375
vt 0.546875 0.828125
vt 0.578125 0.84375
vt 0.546875 0.828125
vt 0.578125 0.828125
vt 0.578125 0.84375
vt 0.421875 0.625
vt 0.421875 0.453125
vt 0.4375 0.625
vt 0.421875 0.453125
vt 0.4375 0.453125
vt 0.4375 0.625
vt 0.171875 0.578125
vt 0.171875 0.40625
vt 0.1875 0.578125
vt 0.171875 0.40625
vt 0.1875 0.40625
vt 0.1875 0.578125
vt 0.5625 0.5
vt 0.5625 0.515625
vt 0.546875 0.5
vt 0.53125 0.453125
vt 0.515625 0.453125
vt 0.515625 0.4375
vt 0.546875 0.4375
vt 0.546875 0.453125
vt 0.53125 0.4375
vt 0.015625 0.4375
vt 0 0.4375
vt 0 0.421875
vt 0.234375 0.53125
vt 0.234375 0.359375
vt 0.25 0.53125
vt 0.234375 0.359375
vt 0.25 0.359375
vt 0.25 0.53125
vt 0.25 0.53125
vt 0.25 0.359375
vt 0.265625 0.53125
vt 0.25 0.359375
vt 0.265625 0.359375
vt 0.265625 0.53125
vt 0.546875 0.828125
vt 0.546875 0.796875
vt 0.5625 0.828125
vt 0.546875 0.796875
vt 0.5625 0.796875
vt 0.5625 0.828125
vt 0.546875 0.796875
vt 0.546875 0.765625
vt 0.5625 0.796875
vt 0.546875 0.765625
vt 0.5625 0.765625
vt 0.5625 0.796875
vt 0.203125 0.421875
vt 0.203125 0.4375
vt 0.1875 0.421875
vt 0.578125 0.8125
vt 0.5625 0.8125
vt 0.5625 0.796875
vt 0.21875 0.421875
vt 0.21875 0.4375
vt 0.203125 0.421875
vt 0.578125 0.796875
vt 0.5625 0.796875
vt 0.5625 0.78125
vt 0.328125 0.453125
vt 0.328125 0.421875
vt 0.34375 0.453125
vt 0.328125 0.421875
vt 0.34375 0.421875
vt 0.34375 0.453125
vt 0.34375 0.453125
vt 0.34375 0.421875
vt 0.359375 0.453125
vt 0.34375 0.421875
vt 0.359375 0.421875
vt 0.359375 0.453125
vt 0.546875 0.765625
vt 0.546875 0.75
vt 0.578125 0.765625
vt 0.546875 0.75
vt 0.578125 0.75
vt 0.578125 0.765625
vt 0.359375 0.453125
vt 0.359375 0.4375
vt 0.390625 0.453125
vt 0.359375 0.4375
vt 0.390625 0.4375
vt 0.390625 0.453125
vt 0.09375 0.4375
vt 0.09375 0.46875
vt 0.0625 0.4375
vt 0.09375 0.46875
vt 0.0625 0.46875
vt 0.0625 0.4375
vt 0.328125 0.4375
vt 0.328125 0.46875
vt 0.296875 0.4375
vt 0.328125 0.46875
vt 0.296875 0.46875
vt 0.296875 0.4375
vt 0.421875 0.453125
vt 0.421875 0.4375
vt 0.453125 0.453125
vt 0.421875 0.4375
vt 0.453125 0.4375
vt 0.453125 0.453125
vt 0.546875 0.578125
vt 0.546875 0.5625
vt 0.578125 0.578125
vt 0.546875 0.5625
vt 0.578125 0.5625
vt 0.578125 0.578125
vt 0 0.5
vt 0 0.484375
vt 0.109375 0.5
vt 0 0.484375
vt 0.109375 0.484375
vt 0.109375 0.5
vt 0.296875 0.5
vt 0.296875 0.484375
vt 0.40625 0.5
vt 0.296875 0.484375
vt 0.40625 0.484375
vt 0.40625 0.5
vt 0.125 0.390625
vt 0.125 0.5
vt 0.109375 0.390625
vt 0.125 0.5
vt 0.109375 0.5
vt 0.109375 0.390625
vt 0.140625 0.390625
vt 0.140625 0.5
vt 0.125 0.390625
vt 0.140625 0.5
vt 0.125 0.5
vt 0.125 0.390625
vt 0.21875 0.4375
vt 0.21875 0.421875
vt 0.234375 0.4375
vt 0.5625 0.765625
vt 0.578125 0.765625
vt 0.578125 0.78125
vt 0.296875 0.4375
vt 0.296875 0.421875
vt 0.3125 0.4375
vt 0.3125 0.421875
vt 0.328125 0.421875
vt 0.328125 0.4375
vt 0.375 0.859375
vt 0.375 0.671875
vt 0.421875 0.859375
vt 0.375 0.671875
vt 0.421875 0.671875
vt 0.421875 0.859375
vt 0.1875 0.625
vt 0.1875 0.4375
vt 0.234375 0.625
vt 0.1875 0.4375
vt 0.234375 0.4375
vt 0.234375 0.625
vt 0.421875 0.578125
vt 0.421875 0.625
vt 0.234375 0.578125
vt 0.421875 0.625
vt 0.234375 0.625
vt 0.234375 0.578125
vt 0.5625 0.625
vt 0.5625 0.671875
vt 0.375 0.625
vt 0.5625 0.671875
vt 0.375 0.671875
vt 0.375 0.625
vt 0.1875 1
vt 0.1875 0.8125
vt 0.375 1
vt 0.1875 0.8125
vt 0.375 0.8125
vt 0.375 1
vt 0.1875 0.8125
vt 0.1875 0.625
vt 0.375 0.8125
vt 0.1875 0.625
vt 0.375 0.625
vt 0.375 0.8125
vt 0.125 0.578125
vt 0.125 0.515625
vt 0.171875 0.578125
vt 0.125 0.515625
vt 0.171875 0.515625
vt 0.171875 0.578125
vt 0.359375 0.578125
vt 0.359375 0.515625
vt 0.40625 0.578125
vt 0.359375 0.515625
vt 0.40625 0.515625
vt 0.40625 0.578125
vt 0.546875 0.75
vt 0.546875 0.796875
vt 0.421875 0.75
vt 0.546875 0.796875
vt 0.421875 0.796875
vt 0.421875 0.75
vt 0.359375 0.53125
vt 0.359375 0.578125
vt 0.234375 0.53125
vt 0.359375 0.578125
vt 0.234375 0.578125
vt 0.234375 0.53125
vt 0 0.578125
vt 0 0.515625
vt 0.125 0.578125
vt 0 0.515625
vt 0.125 0.515625
vt 0.125 0.578125
vt 0.421875 0.859375
vt 0.421875 0.796875
vt 0.546875 0.859375
vt 0.421875 0.796875
vt 0.546875 0.796875
vt 0.546875 0.859375
vt 0.453125 0.625
vt 0.453125 0.453125
vt 0.46875 0.625
vt 0.453125 0.453125
vt 0.46875 0.453125
vt 0.46875 0.625
vt 0.40625 0.578125
vt 0.40625 0.40625
vt 0.421875 0.578125
vt 0.40625 0.40625
vt 0.421875 0.40625
vt 0.421875 0.578125
vt 0.5625 0.453125
vt 0.5625 0.46875
vt 0.546875 0.453125
vt 0.578125 1
vt 0.5625 1
vt 0.5625 0.984375
vt 0.03125 0.421875
vt 0.03125 0.4375
vt 0.015625 0.421875
vt 0.046875 0.4375
vt 0.03125 0.4375
vt 0.03125 0.421875
vt 0.265625 0.53125
vt 0.265625 0.359375
vt 0.28125 0.53125
vt 0.265625 0.359375
vt 0.28125 0.359375
vt 0.28125 0.53125
vt 0.28125 0.53125
vt 0.28125 0.359375
vt 0.296875 0.53125
vt 0.28125 0.359375
vt 0.296875 0.359375
vt 0.296875 0.53125
vt 0.5 0.609375
vt 0.5 0.59375
vt 0.609375 0.609375
vt 0.5 0.59375
vt 0.609375 0.59375
vt 0.609375 0.609375
vt 0.5 0.59375
vt 0.5 0.578125
vt 0.609375 0.59375
vt 0.5 0.578125
vt 0.609375 0.578125
vt 0.609375 0.59375
vt 0.15625 0.390625
vt 0.15625 0.5
vt 0.140625 0.390625
vt 0.15625 0.5
vt 0.140625 0.5
vt 0.140625 0.390625
vt 0.515625 0.46875
vt 0.515625 0.578125
vt 0.5 0.46875
vt 0.515625 0.578125
vt 0.5 0.578125
vt 0.5 0.46875
vt 0.5625 0.671875
vt 0.5625 0.65625
vt 0.578125 0.671875
vt 0.5625 0.640625
vt 0.578125 0.640625
vt 0.578125 0.65625
vt 0.359375 0.4375
vt 0.359375 0.421875
vt 0.375 0.4375
vt 0.5625 0.625
vt 0.578125 0.625
vt 0.578125 0.640625
vt 0 0.484375
vt 0 0.46875
vt 0.109375 0.484375
vt 0 0.46875
vt 0.109375 0.46875
vt 0.109375 0.484375
vt 0.296875 0.484375
vt 0.296875 0.46875
vt 0.40625 0.484375
vt 0.296875 0.46875
vt 0.40625 0.46875
vt 0.40625 0.484375
vt 0.5 0.390625
vt 0.5 0.5
vt 0.484375 0.390625
vt 0.5 0.5
vt 0.484375 0.5
vt 0.484375 0.390625
vt 0.53125 0.46875
vt 0.53125 0.578125
vt 0.515625 0.46875
vt 0.53125 0.578125
vt 0.515625 0.578125
vt 0.515625 0.46875
vt 0.375 0.4375
vt 0.375 0.421875
vt 0.390625 0.4375
vt 0.390625 0.421875
vt 0.40625 0.421875
vt 0.40625 0.4375
vt 0.421875 0.4375
vt 0.421875 0.421875
vt 0.4375 0.4375
vt 0.4375 0.421875
vt 0.453125 0.421875
vt 0.453125 0.4375
vt 0.453125 0.4375
vt 0.453125 0.421875
vt 0.46875 0.4375
vt 0.46875 0.421875
vt 0.484375 0.421875
vt 0.484375 0.4375
vt 0.5625 0.515625
vt 0.5625 0.5
vt 0.578125 0.515625
vt 0.5 0.421875
vt 0.515625 0.421875
vt 0.515625 0.4375
vt 0.578125 0.546875
vt 0.578125 0.5625
vt 0.546875 0.546875
vt 0.578125 0.5625
vt 0.546875 0.5625
vt 0.546875 0.546875
vt 0.484375 0.4375
vt 0.484375 0.453125
vt 0.453125 0.4375
vt 0.484375 0.453125
vt 0.453125 0.453125
vt 0.453125 0.4375
vt 0.546875 0.546875
vt 0.546875 0.53125
vt 0.578125 0.546875
vt 0.546875 0.53125
vt 0.578125 0.53125
vt 0.578125 0.546875
vt 0.546875 0.53125
vt 0.546875 0.515625
vt 0.578125 0.53125
vt 0.546875 0.515625
vt 0.578125 0.515625
vt 0.578125 0.53125
vn -1 0 0
vn -1 0 0
vn 1 0 0
vn 1 0 0
vn 0 1 0
vn 0 1 0
vn 0 -1 0
vn 0 -1 0
vn 0 0 -1
vn 0 0 -1
vn 0 0 1
vn 0 0 1
vn -1 0 0
vn -1 0 0
vn 1 0 0
vn 1 0 0
vn 0 1 0
vn 0 1 0
vn 0 -1 0
vn 0 -1 0
vn 0 0 -1
vn 0 0 -1
vn 0 0 1
vn 0 0 1
vn -1 0 0
vn -1 0 0
vn 1 0 0
vn 1 0 0
vn 0 1 0
vn 0 1 0
vn 0 -1 0
vn 0 -1 0
vn 0 0 -1
vn 0 0 -1
vn 0 0 1
vn 0 0 1
vn -1 0 0
vn -1 0 0
vn 1 0 0
vn 1 0 0
vn 0 1 0
vn 0 1 0
vn 0 -1 0
vn 0 -1 0
vn 0 0 -1
vn 0 0 -1
vn 0 0 1
vn 0 0 1
vn -1 0 0
vn -1 0 0
vn 1 0 0
vn 1 0 0
vn 0 1 0
vn 0 1 0
vn 0 -1 0
vn 0 -1 0
vn 0 0 -1
vn 0 0 -1
vn 0 0 1
vn 0 0 1
vn -1 0 0
vn -1 0 0
vn 1 0 0
vn 1 0 0
vn 0 1 0
vn 0 1 0
vn 0 -1 0
vn 0 -1 0
vn 0 0 -1
vn 0 0 -1
vn 0 0 1
vn 0 0 1
vn -1 0 0
vn -1 0 0
vn 1 0 0
vn 1 0 0
vn 0 1 0
vn 0 1 0
vn 0 -1 0
vn 0 -1 0
vn 0 0 -1
vn 0 0 -1
vn 0 0 1
vn 0 0 1
vn -1 0 0
vn -1 0 0
vn 1 0 0
vn 1 0 0
vn 0 1 0
vn 0 1 0
vn 0 -1 0
vn 0 -1 0
vn 0 0 -1
vn 0 0 -1
vn 0 0 1
vn 0 0 1
vn -1 0 0
vn -1 0 0
vn 1 0 0
vn 1 0 0
vn 0 1 0
vn 0 1 0
vn 0 -1 0
vn 0 -1 0
vn 0 0 -1
vn 0 0 -1
vn 0 0 1
vn 0 0 1
vn -1 0 0
vn -1 0 0
vn 1 0 0
vn 1 0 0
vn 0 1 0
vn 0 1 0
vn 0 -1 0
vn 0 -1 0
vn 0 0 -1
vn 0 0 -1
vn 0 0 1
vn 0 0 1
vn -1 0 0
vn -1 0 0
vn 1 0 0
vn 1 0 0
vn 0 1 0
vn 0 1 0
vn 0 -1 0
vn 0 -1 0
vn 0 0 -1
vn 0 0 -1
vn 0 0 1
vn 0 0 1
vn -1 0 0
vn -1 0 0
vn 1 0 0
vn 1 0 0
vn 0 1 0
vn 0 1 0
vn 0 -1 0
vn 0 -1 0
vn 0 0 -1
vn 0 0 -1
vn 0 0 1
vn 0 0 1
vn -1 0 0
vn -1 0 0
vn 1 0 0
vn 1 0 0
vn 0 1 0
vn 0 1 0
vn 0 -1 0
vn 0 -1 0
vn 0 0 -1
vn 0 0 -1
vn 0 0 1
vn 0 0 1
vn -1 0 0
vn -1 0 0
vn 1 0 0
vn 1 0 0
vn 0 1 0
vn 0 1 0
vn 0 -1 0
vn 0 -1 0
vn 0 0 -1
vn 0 0 -1
vn 0 0 1
vn 0 0 1
vn -1 0 0
vn -1 0 0
vn 1 0 0
vn 1 0 0
vn 0 1 0
vn 0 1 0
vn 0 -1 0
vn 0 -1 0
vn 0 0 -1
vn 0 0 -1
vn 0 0 1
vn 0 0 1
vn -1 0 0
vn -1 0 0
vn 1 0 0
vn 1 0 0
vn 0 1 0
vn 0 1 0
vn 0 -1 0
vn 0 -1 0
vn 0 0 -1
vn 0 0 -1
vn 0 0 1
vn 0 0 1
usemtl none
f 1/1/1 2/2/1 3/3/1
f 2/4/2 4/5/2 3/6/2
f 5/7/3 6/8/3 7/9/3
f 6/10/4 8/11/4 7/12/4
f 5/13/5 7/14/5 3/15/5
f 7/16/6 1/17/6 3/18/6
f 8/19/7 6/20/7 2/21/7
f 6/22/8 4/23/8 2/24/8
f 7/25/9 8/26/9 1/27/9
f 8/28/10 2/29/10 1/30/10
f 3/31/11 4/32/11 5/33/11
f 4/34/12 6/35/12 5/36/12
f 9/37/13 10/38/13 11/39/13
f 10/40/14 12/41/14 11/42/14
f 13/43/15 14/44/15 15/45/15
f 14/46/16 16/47/16 15/48/16
f 13/49/17 15/50/17 11/51/17
f 15/52/18 9/53/18 11/54/18
f 16/55/19 14/56/19 10/57/19
f 14/58/20 12/59/20 10/60/20
f 15/61/21 16/62/21 9/63/21
f 16/64/22 10/65/22 9/66/22
f 11/67/23 12/68/23 13/69/23
f 12/70/24 14/71/24 13/72/24
f 17/73/25 18/74/25 19/75/25
f 18/76/26 20/77/26 19/78/26
f 21/79/27 22/80/27 23/81/27
f 22/82/28 24/83/28 23/84/28
f 21/85/29 23/86/29 19/87/29
f 23/88/30 17/89/30 19/90/30
f 24/91/31 22/92/31 18/93/31
f 22/94/32 20/95/32 18/96/32
f 23/97/33 24/98/33 17/99/33
f 24/100/34 18/101/34 17/102/34
f 19/103/35 20/104/35 21/105/35
f 20/106/36 22/107/36 21/108/36
f 25/109/37 26/110/37 27/111/37
f 26/112/38 28/113/38 27/114/38
f 29/115/39 30/116/39 31/117/39
f 30/118/40 32/119/40 31/120/40
f 29/121/41 31/122/41 27/123/41
f 31/124/42 25/125/42 27/126/42
f 32/127/43 30/128/43 26/129/43
f 30/130/44 28/131/44 26/132/44
f 31/133/45 32/134/45 25/135/45
f 32/136/46 26/137/46 25/138/46
f 27/139/47 28/140/47 29/141/47
f 28/142/48 30/143/48 29/144/48
f 33/145/49 34/146/49 35/147/49
f 34/148/50 36/149/50 35/150/50
f 37/151/51 38/152/51 39/153/51
f 38/154/52 40/155/52 39/156/52
f 37/157/53 39/158/53 35/159/53
f 39/160/54 33/161/54 35/162/54
f 40/163/55 38/164/55 34/165/55
f 38/166/56 36/167/56 34/168/56
f 39/169/57 40/170/57 33/171/57
f 40/172/58 34/173/58 33/174/58
f 35/175/59 36/176/59 37/177/59
f 36/178/60 38/179/60 37/180/60
f 41/181/61 42/182/61 43/183/61
f 42/184/62 44/185/62 43/186/62
f 45/187/63 46/188/63 47/189/63
f 46/190/64 48/191/64 47/192/64
f 45/193/65 47/194/65 43/195/65
f 47/196/66 41/197/66 43/198/66
f 48/199/67 46/200/67 42/201/67
f 46/202/68 44/203/68 42/204/68
f 47/205/69 48/206/69 41/207/69
f 48/208/70 42/209/70 41/210/70
f 43/211/71 44/212/71 45/213/71
f 44/214/72 46/215/72 45/216/72
f 49/217/73 50/218/73 51/219/73
f 50/220/74 52/221/74 51/222/74
f 53/223/75 54/224/75 55/225/75
f 54/226/76 56/227/76 55/228/76
f 53/229/77 55/230/77 51/231/77
f 55/232/78 49/233/78 51/234/78
f 56/235/79 54/236/79 50/237/79
f 54/238/80 52/239/80 50/240/80
f 55/241/81 56/242/81 49/243/81
f 56/244/82 50/245/82 49/246/82
f 51/247/83 52/248/83 53/249/83
f 52/250/84 54/251/84 53/252/84
f 57/253/85 58/254/85 59/255/85
f 58/256/86 60/257/86 59/258/86
f 61/259/87 62/260/87 63/261/87
f 62/262/88 64/263/88 63/264/88
f 61/265/89 63/266/89 59/267/89
f 63/268/90 57/269/90 59/270/90
f 64/271/91 62/272/91 58/273/91
f 62/274/92 60/275/92 58/276/92
f 63/277/93 64/278/93 57/279/93
f 64/280/94 58/281/94 57/282/94
f 59/283/95 60/284/95 61/285/95
f 60/286/96 62/287/96 61/288/96
f 65/289/97 66/290/97 67/291/97
f 66/292/98 68/293/98 67/294/98
f 69/295/99 70/296/99 71/297/99
f 70/298/100 72/299/100 71/300/100
f 69/301/101 71/302/101 67/303/101
f 71/304/102 65/305/102 67/306/102
f 72/307/103 70/308/103 66/309/103
f 70/310/104 68/311/104 66/312/104
f 71/313/105 72/314/105 65/315/105
f 72/316/106 66/317/106 65/318/106
f 67/319/107 68/320/107 69/321/107
f 68/322/108 70/323/108 69/324/108
f 73/325/109 74/326/109 75/327/109
f 74/328/110 76/329/110 75/330/110
f 77/331/111 78/332/111 79/333/111
f 78/334/112 80/335/112 79/336/112
f 77/337/113 79/338/113 75/339/113
f 79/340/114 73/341/114 75/342/114
f 80/343/115 78/344/115 74/345/115
f 78/346/116 76/347/116 74/348/116
f 79/349/117 80/350/117 73/351/117
f 80/352/118 74/353/118 73/354/118
f 75/355/119 76/356/119 77/357/119
f 76/358/120 78/359/120 77/360/120
f 81/361/121 82/362/121 83/363/121
f 82/364/122 84/365/122 83/366/122
f 85/367/123 86/368/123 87/369/123
f 86/370/124 88/371/124 87/372/124
f 85/373/125 87/374/125 83/375/125
f 87/376/126 81/377/126 83/378/126
f 88/379/127 86/380/127 82/381/127
f 86/382/128 84/383/128 82/384/128
f 87/385/129 88/386/129 81/387/129
f 88/388/130 82/389/130 81/390/130
f 83/391/131 84/392/131 85/393/131
f 84/394/132 86/395/132 85/396/132
f 89/397/133 90/398/133 91/399/133
f 90/400/134 92/401/134 91/402/134
f 93/403/135 94/404/135 95/405/135
f 94/406/136 96/407/136 95/408/136
f 93/409/137 95/410/137 91/411/137
f 95/412/138 89/413/138 91/414/138
f 96/415/139 94/416/139 90/417/139
f 94/418/140 92/419/140 90/420/140
f 95/421/141 96/422/141 89/423/141
f 96/424/142 90/425/142 89/426/142
f 91/427/143 92/428/143 93/429/143
f 92/430/144 94/431/144 93/432/144
f 97/433/145 98/434/145 99/435/145
f 98/436/146 100/437/146 99/438/146
f 101/439/147 102/440/147 103/441/147
f 102/442/148 104/443/148 103/444/148
f 101/445/149 103/446/149 99/447/149
f 103/448/150 97/449/150 99/450/150
f 104/451/151 102/452/151 98/453/151
f 102/454/152 100/455/152 98/456/152
f 103/457/153 104/458/153 97/459/153
f 104/460/154 98/461/154 97/462/154
f 99/463/155 100/464/155 101/465/155
f 100/466/156 102/467/156 101/468/156
f 105/469/157 106/470/157 107/471/157
f 106/472/158 108/473/158 107/474/158
f 109/475/159 110/476/159 111/477/159
f 110/478/160 112/479/160 111/480/160
f 109/481/161 111/482/161 107/483/161
f 111/484/162 105/485/162 107/486/162
f 112/487/163 110/488/163 106/489/163
f 110/490/164 108/491/164 106/492/164
f 111/493/165 112/494/165 105/495/165
f 112/496/166 106/497/166 105/498/166
f 107/499/167 108/500/167 109/501/167
f 108/502/168 110/503/168 109/504/168
f 113/505/169 114/506/169 115/507/169
f 114/508/170 116/509/170 115/510/170
f 117/511/171 118/512/171 119/513/171
f 118/514/172 120/515/172 119/516/172
f 117/517/173 119/518/173 115/519/173
f 119/520/174 113/521/174 115/522/174
f 120/523/175 118/524/175 114/525/175
f 118/526/176 116/527/176 114/528/176
f 119/529/177 120/530/177 113/531/177
f 120/532/178 114/533/178 113/534/178
f 115/535/179 116/536/179 117/537/179
f 116/538/180 118/539/180 117/540/180
f 121/541/181 122/542/181 123/543/181
f 122/544/182 124/545/182 123/546/182
f 125/547/183 126/548/183 127/549/183
f 126/550/184 128/551/184 127/552/184
f 125/553/185 127/554/185 123/555/185
f 127/556/186 121/557/186 123/558/186
f 128/559/187 126/560/187 122/561/187
f 126/562/188 124/563/188 122/564/188
f 127/565/189 128/566/189 121/567/189
f 128/568/190 122/569/190 121/570/190
f 123/571/191 124/572/191 125/573/191
f 124/574/192 126/575/192 125/576/192