# Blender v2.79 (sub 0) OBJ File: ''
# www.blender.org
mtllib skidhelicopter.mtl
o skid
v 0.049088 -0.049089 3.486736
v 0.049087 -0.049086 -0.047500
v 0.049087 0.049086 -0.047500
v 0.049088 0.049084 3.486736
v -0.049086 -0.049086 -0.047500
v -0.049086 -0.049089 3.486736
v -0.049086 0.049084 3.486736
v -0.049086 0.049086 -0.047500
v -0.049086 0.077956 3.960876
v -0.049086 -0.049089 3.486736
v 0.049088 -0.049089 3.486736
v 0.049088 0.077956 3.960876
v 0.049088 0.077956 3.960876
v -0.049086 0.077956 3.960876
v -0.049086 0.147375 3.891457
v 0.049088 0.147375 3.891457
v 0.049088 0.172784 3.935466
v -0.049086 0.172784 3.935466
v -0.049085 0.355632 4.238551
v -0.049085 0.425051 4.169133
v 0.049088 0.355632 4.238551
v 0.049088 0.425051 4.169133
v 0.049088 0.045739 3.461327
v -0.049086 0.045739 3.461327
vt 0.757812 0.824219
vt 0.898438 0.824219
vt 0.898438 0.828125
vt 0.757812 0.828125
vt 0.757812 0.824219
vt 0.898438 0.824219
vt 0.898438 0.828125
vt 0.757812 0.828125
vt 0.898438 0.832031
vt 0.757812 0.832031
vt 0.796875 0.820312
vt 0.777344 0.820312
vt 0.777344 0.824219
vt 0.796875 0.824219
vt 0.804688 0.816406
vt 0.808594 0.816406
vt 0.808594 0.820312
vt 0.804688 0.820312
vt 0.777344 0.816406
vt 0.781250 0.816406
vt 0.781250 0.820312
vt 0.777344 0.820312
vt 0.898438 0.828125
vt 0.757812 0.828125
vt 0.757812 0.832031
vt 0.898438 0.832031
vt 0.824219 0.816406
vt 0.824219 0.820312
vt 0.828125 0.816406
vt 0.843750 0.816406
vt 0.843750 0.820312
vt 0.828125 0.820312
vt 0.824219 0.824219
vt 0.808594 0.824219
vt 0.800781 0.816406
vt 0.800781 0.820312
vt 0.839844 0.820312
vt 0.824219 0.820312
vt 0.824219 0.824219
vt 0.839844 0.824219
vt 0.753906 0.824219
vt 0.753906 0.828125
vt 0.753906 0.816406
vt 0.757812 0.816406
vt 0.757812 0.820312
vt 0.753906 0.820312
vt 0.777344 0.824219
vt 0.757812 0.824219
vt 0.753906 0.824219
vt 0.753906 0.828125
vn 1.0000 0.0000 -0.0000
vn -1.0000 0.0000 0.0000
vn 0.0000 1.0000 0.0000
vn 0.0000 -0.9659 0.2588
vn 0.0000 -0.7071 -0.7071
vn 0.0000 0.2588 0.9659
vn 0.0000 -1.0000 -0.0000
vn 0.0000 0.7071 -0.7071
vn 0.0000 -0.7071 0.7071
vn 0.0000 0.0000 -1.0000
vn 0.0000 -0.2588 -0.9659
vn 0.0000 0.9659 -0.2588
vn 0.0000 0.0000 1.0000
vn 0.0000 0.7071 0.7071
usemtl None
s 1
f 1/1/1 2/2/1 3/3/1 4/4/1
f 5/5/2 6/6/2 7/7/2 8/8/2
f 4/9/3 3/10/3 8/8/3 7/7/3
f 9/11/4 10/12/4 11/13/4 12/14/4
f 13/15/5 14/16/5 15/17/5 16/18/5
f 9/19/6 12/20/6 17/21/6 18/22/6
f 6/23/7 5/24/7 2/25/7 1/26/7
f 14/16/2 19/27/2 20/28/2 15/17/2
f 21/29/1 13/30/1 16/31/1 22/32/1
f 22/33/8 16/34/8 15/17/8 20/28/8
f 12/20/1 11/35/1 23/36/1 17/21/1
f 19/37/9 14/38/9 13/39/9 21/40/9
f 2/41/10 5/5/10 8/8/10 3/42/10
f 11/43/11 10/44/11 24/45/11 23/46/11
f 17/47/12 23/48/12 24/45/12 18/22/12
f 6/49/13 1/1/13 4/4/13 7/50/13
f 10/44/2 9/19/2 18/22/2 24/45/2
f 19/27/14 21/29/14 22/32/14 20/28/14
