# Made in Blockbench 4.11.2
mtllib smokecan_red.mtl

o cube
v -0.09375000000000003 0 -0.1875
v -0.09374999999999997 0 0.1875
v -0.09375000000000003 -0.1875 -0.1875
v -0.09374999999999997 -0.1875 0.1875
v 0.09374999999999997 0 -0.1875
v 0.09375000000000003 0 0.1875
v 0.09374999999999997 -0.1875 -0.1875
v 0.09375000000000003 -0.1875 0.1875
vt 0.375 0.625
vt 0.375 0.8125
vt 0 0.8125
vt 0 0.625
vt 0.375 0.375
vt 0.375 0.5625
vt 0 0.5625
vt 0 0.375
vt 0.625 0.4375
vt 0.625 0.8125
vt 0.4375 0.8125
vt 0.4375 0.4375
vt 0.625 0
vt 0.625 0.375
vt 0.4375 0.375
vt 0.4375 0
vt 0.1875 0.125
vt 0.1875 0.3125
vt 0 0.3125
vt 0 0.125
vt 0.875 0.8125
vt 0.875 1
vt 0.6875 1
vt 0.6875 0.8125
vn -1 0 1.2246467991473532e-16
vn 1 0 -1.2246467991473532e-16
vn 0 1 0
vn 0 -1 0
vn -1.2246467991473532e-16 0 -1
vn 1.2246467991473532e-16 0 1
usemtl m_6ae60973-17d9-1cf4-f9fd-8d357404ac59
f 4/1/1 2/2/1 1/3/1 3/4/1
f 7/5/2 5/6/2 6/7/2 8/8/2
f 1/9/3 2/10/3 6/11/3 5/12/3
f 4/13/4 3/14/4 7/15/4 8/16/4
f 3/17/5 1/18/5 5/19/5 7/20/5
f 8/21/6 6/22/6 2/23/6 4/24/6
o #tape
v -0.2772082390328521 0.0062500000000000056 -0.1275323849137888
v -0.3163537148433204 0.0062500000000000056 -0.008819994138554308
v 0.3163537148433203 0.0062500000000000056 0.0681949941385543
v 0.27720823903285197 0.0062500000000000056 0.18690738491378892
vt 0.625 0.875
vt 0.625 1
vt 0 1
vt 0 0.875
vn 0 -1 0
usemtl m_6ae60973-17d9-1cf4-f9fd-8d357404ac59
f 10/25/7 9/26/7 11/27/7 12/28/7