# Made in Blockbench 4.11.2
mtllib spraycan_glow.mtl

o cap
v 0.125 0.5 -0.125
v 0.125 0.6875 -0.125
v 0.125 0.6875 0.125
v 0.125 0.5 0.125
v -0.125 0.5 0.125
v -0.125 0.6875 0.125
v -0.125 0.6875 -0.125
v -0.125 0.5 -0.125
vt 0.59375 0.75
vt 0.59375 0.84375
vt 0.46875 0.84375
vt 0.46875 0.75
vt 0.59375 0.625
vt 0.59375 0.71875
vt 0.46875 0.71875
vt 0.46875 0.625
vt 0.4375 0.875
vt 0.4375 1
vt 0.3125 1
vt 0.3125 0.875
vt 0.4375 0.71875
vt 0.4375 0.84375
vt 0.3125 0.84375
vt 0.3125 0.71875
vt 0.4375 0.4375
vt 0.4375 0.53125
vt 0.3125 0.53125
vt 0.3125 0.4375
vt 0.59375 0.5
vt 0.59375 0.59375
vt 0.46875 0.59375
vt 0.46875 0.5
vn 1 0 0
vn -1 0 0
vn 0 1 0
vn 0 -1 0
vn 0 0 1
vn 0 0 -1
usemtl m_cedc8adb-8832-6356-f607-724cbeb32800
f 1/1/1 2/2/1 3/3/1 4/4/1
f 5/5/2 6/6/2 7/7/2 8/8/2
f 3/9/3 2/10/3 7/11/3 6/12/3
f 1/13/4 4/14/4 5/15/4 8/16/4
f 4/17/5 3/18/5 6/19/5 5/20/5
f 8/21/6 7/22/6 2/23/6 1/24/6
o can
v 0.09375 0.5 -0.09375
v 0.09375 0.5625 -0.09375
v 0.09375 0.5625 0.09375
v 0.09375 0.5 0.09375
v -0.09375 0.5 0.09375
v -0.09375 0.5625 0.09375
v -0.09375 0.5625 -0.09375
v -0.09375 0.5 -0.09375
v 0.125 0 -0.125
v 0.125 0.5 -0.125
v 0.125 0.5 0.125
v 0.125 0 0.125
v -0.125 0 0.125
v -0.125 0.5 0.125
v -0.125 0.5 -0.125
v -0.125 0 -0.125
vt 0.21875 0.40625
vt 0.21875 0.4375
vt 0.125 0.4375
vt 0.125 0.40625
vt 0.34375 0.375
vt 0.34375 0.40625
vt 0.25 0.40625
vt 0.25 0.375
vt 0.5625 0.375
vt 0.5625 0.46875
vt 0.46875 0.46875
vt 0.46875 0.375
vt 0.09375 0.34375
vt 0.09375 0.4375
vt 0 0.4375
vt 0 0.34375
vt 0.6875 0.4375
vt 0.6875 0.46875
vt 0.59375 0.46875
vt 0.59375 0.4375
vt 0.6875 0.375
vt 0.6875 0.40625
vt 0.59375 0.40625
vt 0.59375 0.375
vt 0.125 0.75
vt 0.125 1
vt 0 1
vt 0 0.75
vt 0.28125 0.75
vt 0.28125 1
vt 0.15625 1
vt 0.15625 0.75
vt 0.4375 0.5625
vt 0.4375 0.6875
vt 0.3125 0.6875
vt 0.3125 0.5625
vt 0.59375 0.875
vt 0.59375 1
vt 0.46875 1
vt 0.46875 0.875
vt 0 0.46875
vt 0 0.71875
vt 0.125 0.71875
vt 0.125 0.46875
vt 0.28125 0.46875
vt 0.28125 0.71875
vt 0.15625 0.71875
vt 0.15625 0.46875
vn 1 0 0
vn -1 0 0
vn 0 1 0
vn 0 -1 0
vn 0 0 1
vn 0 0 -1
vn 1 0 0
vn -1 0 0
vn 0 1 0
vn 0 -1 0
vn 0 0 1
vn 0 0 -1
usemtl m_cedc8adb-8832-6356-f607-724cbeb32800
f 9/25/7 10/26/7 11/27/7 12/28/7
f 13/29/8 14/30/8 15/31/8 16/32/8
f 11/33/9 10/34/9 15/35/9 14/36/9
f 9/37/10 12/38/10 13/39/10 16/40/10
f 12/41/11 11/42/11 14/43/11 13/44/11
f 16/45/12 15/46/12 10/47/12 9/48/12
f 17/49/13 18/50/13 19/51/13 20/52/13
f 21/53/14 22/54/14 23/55/14 24/56/14
f 19/57/15 18/58/15 23/59/15 22/60/15
f 17/61/16 20/62/16 21/63/16 24/64/16
f 20/65/17 19/66/17 22/67/17 21/68/17
f 24/69/18 23/70/18 18/71/18 17/72/18
o nipp
v 0.03125 0.53125 -0.03125
v 0.03125 0.65625 -0.03125
v 0.03125 0.65625 0.03125
v 0.03125 0.53125 0.03125
v -0.03125 0.53125 0.03125
v -0.03125 0.65625 0.03125
v -0.03125 0.65625 -0.03125
v -0.03125 0.53125 -0.03125
vt 0.40625 0.34375
vt 0.40625 0.40625
vt 0.375 0.40625
vt 0.375 0.34375
vt 0.65625 0.9375
vt 0.65625 1
vt 0.625 1
vt 0.625 0.9375
vt 0.21875 0.34375
vt 0.21875 0.375
vt 0.1875 0.375
vt 0.1875 0.34375
vt 0.65625 0.78125
vt 0.65625 0.8125
vt 0.625 0.8125
vt 0.625 0.78125
vt 0.65625 0.84375
vt 0.65625 0.90625
vt 0.625 0.90625
vt 0.625 0.84375
vt 0.15625 0.3125
vt 0.15625 0.375
vt 0.125 0.375
vt 0.125 0.3125
vn 1 0 0
vn -1 0 0
vn 0 1 0
vn 0 -1 0
vn 0 0 1
vn 0 0 -1
usemtl m_cedc8adb-8832-6356-f607-724cbeb32800
f 25/73/19 26/74/19 27/75/19 28/76/19
f 29/77/20 30/78/20 31/79/20 32/80/20
f 27/81/21 26/82/21 31/83/21 30/84/21
f 25/85/22 28/86/22 29/87/22 32/88/22
f 28/89/23 27/90/23 30/91/23 29/92/23
f 32/93/24 31/94/24 26/95/24 25/96/24