# Made in Blockbench 4.9.4
mtllib testingmodule1.mtl

o cube
v 0.4375 0 -0.4375
v -0.4375 0 -0.4375
v -0.4375 0.0625 -0.4375
v 0.4375 0.0625 -0.4375
v 0.4375 0 0.4375
v 0.4375 0.0625 0.4375
v -0.4375 0 0.4375
v -0.4375 0.0625 0.4375
v 0.375 0.0625 -0.375
v -0.375 0.0625 -0.375
v -0.375 0.8125 -0.375
v 0.375 0.8125 -0.375
v 0.375 0.0625 0.375
v 0.375 0.8125 0.375
v -0.375 0.0625 0.375
v -0.375 0.8125 0.375
vt 0 0.515625
vt 0.21875 0.515625
vt 0.21875 0.53125
vt 0 0.53125
vt 0 0.484375
vt 0.21875 0.484375
vt 0.21875 0.5
vt 0 0.5
vt 0 0.453125
vt 0.21875 0.453125
vt 0.21875 0.46875
vt 0 0.46875
vt 0 0.421875
vt 0.21875 0.421875
vt 0.21875 0.4375
vt 0 0.4375
vt 0.21875 1
vt 0 1
vt 0 0.78125
vt 0.21875 0.78125
vt 0.21875 0.546875
vt 0 0.546875
vt 0 0.765625
vt 0.21875 0.765625
vt 0.234375 0.8125
vt 0.421875 0.8125
vt 0.421875 1
vt 0.234375 1
vt 0.234375 0.609375
vt 0.421875 0.609375
vt 0.421875 0.796875
vt 0.234375 0.796875
vt 0.234375 0.40625
vt 0.421875 0.40625
vt 0.421875 0.59375
vt 0.234375 0.59375
vt 0.4375 0.8125
vt 0.625 0.8125
vt 0.625 1
vt 0.4375 1
vt 0.625 0.796875
vt 0.4375 0.796875
vt 0.4375 0.609375
vt 0.625 0.609375
vt 0.625 0.40625
vt 0.4375 0.40625
vt 0.4375 0.59375
vt 0.625 0.59375
vn 0 0 -1
vn 1 0 0
vn 0 0 1
vn -1 0 0
vn 0 1 0
vn 0 -1 0
vn 0 0 -1
vn 1 0 0
vn 0 0 1
vn -1 0 0
vn 0 1 0
vn 0 -1 0
usemtl none
f 1/1/1 2/2/1 3/3/1 4/4/1
f 5/5/2 1/6/2 4/7/2 6/8/2
f 7/9/3 5/10/3 6/11/3 8/12/3
f 2/13/4 7/14/4 8/15/4 3/16/4
f 8/17/5 6/18/5 4/19/5 3/20/5
f 2/21/6 1/22/6 5/23/6 7/24/6
f 9/25/7 10/26/7 11/27/7 12/28/7
f 13/29/8 9/30/8 12/31/8 14/32/8
f 15/33/9 13/34/9 14/35/9 16/36/9
f 10/37/10 15/38/10 16/39/10 11/40/10
f 16/41/11 14/42/11 12/43/11 11/44/11
f 10/45/12 9/46/12 13/47/12 15/48/12