# Made in Blockbench 4.9.4
mtllib wheelsmall.mtl

o rim
v -0.125 0.09375 0.09375
v 0.125 0.09375 0.09375
v 0.125 0.09375 -0.09375
v -0.125 0.09375 -0.09375
v -0.125 -0.09375 0.09375
v 0.125 -0.09375 0.09375
v 0.125 -0.09375 -0.09375
v -0.125 -0.09375 -0.09375
vt 0 0.53125
vt 0.125 0.53125
vt 0.125 0.625
vt 0 0.625
vt 0 0.53125
vt 0.125 0.53125
vt 0.125 0.625
vt 0 0.625
vt 0 0.4375
vt 0.09375 0.4375
vt 0.09375 0.53125
vt 0 0.53125
vt 0.125 0.53125
vt 0 0.53125
vt 0 0.625
vt 0.125 0.625
vt 0 0.625
vt 0.125 0.625
vt 0.125 0.53125
vt 0 0.53125
vt 0.09375 0.40625
vt 0.1875 0.40625
vt 0.1875 0.5
vt 0.09375 0.5
vn 0 1 0
vn 0 0 1
vn 1 0 0
vn 0 0 -1
vn 0 -1 0
vn -1 0 0
usemtl none
f 1/1/1 2/2/1 3/3/1 4/4/1
f 5/5/2 6/6/2 2/7/2 1/8/2
f 6/9/3 7/10/3 3/11/3 2/12/3
f 7/13/4 8/14/4 4/15/4 3/16/4
f 8/17/5 7/18/5 6/19/5 5/20/5
f 8/21/6 5/22/6 1/23/6 4/24/6
o tire
v 0.09375 -0.21875 0.15625
v 0.09375 -0.21875 -0.15625
v 0.09375 -0.15625 -0.15625
v 0.09375 -0.15625 0.15625
v -0.09375 -0.21875 -0.15625
v -0.09375 -0.21875 0.15625
v -0.09375 -0.15625 0.15625
v -0.09375 -0.15625 -0.15625
v -0.09375 0.21875 0.15625
v -0.09375 0.21875 -0.15625
v -0.09375 0.15625 -0.15625
v -0.09375 0.15625 0.15625
v -0.125 0.09375 0.09375
v 0.125 0.09375 0.09375
v 0.125 0.09375 -0.09375
v -0.125 0.09375 -0.09375
v 0.09375 -0.15625 0.21875
v -0.09375 -0.15625 0.21875
v -0.09375 0.15625 0.21875
v 0.09375 0.15625 0.21875
v 0.09375 0.15625 0.15625
v 0.09375 0.21875 0.15625
v -0.125 -0.09375 0.09375
v 0.125 -0.09375 0.09375
v 0.125 -0.09375 -0.09375
v -0.125 -0.09375 -0.09375
v 0.09375 -0.15625 -0.21875
v -0.09375 -0.15625 -0.21875
v -0.09375 0.15625 -0.21875
v 0.09375 0.15625 -0.21875
v 0.09375 0.21875 -0.15625
v 0.09375 0.15625 -0.15625
vt 0.03125 0.78125
vt 0.1875 0.78125
vt 0.1875 0.8125
vt 0.03125 0.8125
vt 0.21875 0.59375
vt 0.375 0.59375
vt 0.375 0.625
vt 0.21875 0.625
vt 0.375 0.8125
vt 0.21875 0.8125
vt 0.21875 0.78125
vt 0.375 0.78125
vt 0 0.625
vt 0.09375 0.625
vt 0.09375 0.78125
vt 0 0.78125
vt 0 0.53125
vt 0.125 0.53125
vt 0.125 0.625
vt 0 0.625
vt 0.21875 0.8125
vt 0.3125 0.8125
vt 0.3125 0.84375
vt 0.21875 0.84375
vt 0.40625 0.8125
vt 0.40625 0.84375
vt 0.3125 0.84375
vt 0.3125 0.8125
vt 0.40625 0.625
vt 0.40625 0.59375
vt 0.5 0.59375
vt 0.5 0.625
vt 0.46875 0.5
vt 0.375 0.5
vt 0.375 0.46875
vt 0.46875 0.46875
vt 0.40625 0.90625
vt 0.53125 0.90625
vt 0.53125 1
vt 0.40625 1
vt 0 0.4375
vt 0.09375 0.4375
vt 0.09375 0.53125
vt 0 0.53125
vt 0.40625 0.8125
vt 0.53125 0.8125
vt 0.53125 0.90625
vt 0.40625 0.90625
vt 0.21875 0.84375
vt 0.3125 0.84375
vt 0.3125 1
vt 0.21875 1
vt 0.125 0.5
vt 0.25 0.5
vt 0.25 0.59375
vt 0.125 0.59375
vt 0.09375 0.40625
vt 0.1875 0.40625
vt 0.1875 0.5
vt 0.09375 0.5
vt 0.1875 0.78125
vt 0.1875 0.625
vt 0.21875 0.625
vt 0.21875 0.78125
vt 0.40625 0.625
vt 0.40625 0.78125
vt 0.375 0.78125
vt 0.375 0.625
vt 0.5 0.625
vt 0.5 0.59375
vt 0.59375 0.59375
vt 0.59375 0.625
vt 0.59375 0.59375
vt 0.5 0.59375
vt 0.5 0.5625
vt 0.59375 0.5625
vt 0.5 0.53125
vt 0.59375 0.53125
vt 0.59375 0.5625
vt 0.5 0.5625
vt 0.5625 0.46875
vt 0.5625 0.5
vt 0.46875 0.5
vt 0.46875 0.46875
vt 0.09375 0.625
vt 0.1875 0.625
vt 0.1875 0.78125
vt 0.09375 0.78125
vt 0.1875 1
vt 0.03125 1
vt 0.03125 0.96875
vt 0.1875 0.96875
vt 0 0.96875
vt 0 0.8125
vt 0.03125 0.8125
vt 0.03125 0.96875
vt 0.21875 0.8125
vt 0.21875 0.96875
vt 0.1875 0.96875
vt 0.1875 0.8125
vt 0.21875 0.625
vt 0.375 0.625
vt 0.375 0.78125
vt 0.21875 0.78125
vt 0.1875 0.8125
vt 0.1875 0.96875
vt 0.03125 0.96875
vt 0.03125 0.8125
vt 0.3125 0.84375
vt 0.40625 0.84375
vt 0.40625 1
vt 0.3125 1
vn 1 0 0
vn -1 0 0
vn -1 0 0
vn 0 -1 0
vn 0 1 0
vn 0 -1 0
vn 0 0 1
vn 0 1 0
vn 0 0 1
vn 0 0 1
vn 1 0 0
vn 0 0 -1
vn 0 0 -1
vn 0 -1 0
vn -1 0 0
vn -1 0 0
vn -1 0 0
vn 0 0 -1
vn 0 1 0
vn 0 -1 0
vn 0 0 -1
vn 0 0 1
vn 1 0 0
vn 1 0 0
vn 1 0 0
vn -1 0 0
vn 1 0 0
vn 0 1 0
usemtl none
f 9/25/7 10/26/7 11/27/7 12/28/7
f 13/29/8 14/30/8 15/31/8 16/32/8
f 17/33/9 18/34/9 19/35/9 20/36/9
f 13/37/10 10/38/10 9/39/10 14/40/10
f 21/41/11 22/42/11 23/43/11 24/44/11
f 15/45/12 12/46/12 25/47/12 26/48/12
f 9/49/13 12/50/13 15/51/13 14/52/13
f 20/53/14 27/54/14 28/55/14 29/56/14
f 30/57/15 17/58/15 20/59/15 29/60/15
f 31/61/16 32/62/16 22/63/16 21/64/16
f 32/65/17 33/66/17 23/67/17 22/68/17
f 33/69/18 34/70/18 24/71/18 23/72/18
f 35/73/19 36/74/19 37/75/19 38/76/19
f 34/77/20 33/78/20 32/79/20 31/80/20
f 34/81/21 31/82/21 21/83/21 24/84/21
f 37/85/22 36/86/22 16/87/22 19/88/22
f 26/89/23 27/90/23 20/91/23 15/92/23
f 39/93/24 40/94/24 19/95/24 18/96/24
f 38/97/25 37/98/25 19/99/25 40/100/25
f 36/101/26 35/102/26 11/103/26 16/104/26
f 13/105/27 16/106/27 11/107/27 10/108/27
f 26/109/28 25/110/28 28/111/28 27/112/28
f 39/113/29 30/114/29 29/115/29 40/116/29
f 28/117/30 25/118/30 12/119/30 29/120/30
f 35/121/31 38/122/31 40/123/31 11/124/31
f 16/125/32 15/126/32 20/127/32 19/128/32
f 11/129/33 40/130/33 29/131/33 12/132/33
f 17/133/34 30/134/34 39/135/34 18/136/34
o #translucent_mudAcc_tire
v 0.095551 -0.220551 0.158051
v 0.095551 -0.220551 -0.158051
v 0.096572 -0.157191 -0.157191
v 0.096572 -0.157191 0.157191
v -0.095551 -0.220551 -0.158051
v -0.095551 -0.220551 0.158051
v -0.096572 -0.157191 0.157191
v -0.096572 -0.157191 -0.157191
v -0.095551 0.220551 0.158051
v -0.095551 0.220551 -0.158051
v -0.096572 0.157191 -0.157191
v -0.096572 0.157191 0.157191
v 0.095551 -0.158051 0.220551
v -0.095551 -0.158051 0.220551
v -0.095551 0.158051 0.220551
v 0.095551 0.158051 0.220551
v 0.096572 0.157191 0.157191
v 0.095551 0.220551 0.158051
v 0.095551 -0.158051 -0.220551
v -0.095551 -0.158051 -0.220551
v -0.095551 0.158051 -0.220551
v 0.095551 0.158051 -0.220551
v 0.095551 0.220551 -0.158051
v 0.096572 0.157191 -0.157191
vt 0.625 0.53125
vt 0.78125 0.53125
vt 0.78125 0.5625
vt 0.625 0.5625
vt 0.625 0.78125
vt 0.78125 0.78125
vt 0.78125 0.8125
vt 0.625 0.8125
vt 0.78125 1
vt 0.625 1
vt 0.625 0.96875
vt 0.78125 0.96875
vt 0.8125 0.40625
vt 0.90625 0.40625
vt 0.90625 0.5625
vt 0.8125 0.5625
vt 0.8125 0.59375
vt 0.90625 0.59375
vt 0.90625 0.625
vt 0.8125 0.625
vt 0.90625 0.5625
vt 0.90625 0.59375
vt 0.8125 0.59375
vt 0.8125 0.5625
vt 0.8125 0.8125
vt 0.8125 0.78125
vt 0.90625 0.78125
vt 0.90625 0.8125
vt 0.90625 0.84375
vt 0.8125 0.84375
vt 0.8125 0.8125
vt 0.90625 0.8125
vt 0.8125 0.1875
vt 0.90625 0.1875
vt 0.90625 0.34375
vt 0.8125 0.34375
vt 0.59375 0.96875
vt 0.59375 0.8125
vt 0.625 0.8125
vt 0.625 0.96875
vt 0.8125 0.8125
vt 0.8125 0.96875
vt 0.78125 0.96875
vt 0.78125 0.8125
vt 0.8125 0.15625
vt 0.8125 0.125
vt 0.90625 0.125
vt 0.90625 0.15625
vt 0.90625 0.1875
vt 0.8125 0.1875
vt 0.8125 0.15625
vt 0.90625 0.15625
vt 0.8125 0.34375
vt 0.90625 0.34375
vt 0.90625 0.375
vt 0.8125 0.375
vt 0.90625 0.375
vt 0.90625 0.40625
vt 0.8125 0.40625
vt 0.8125 0.375
vt 0.8125 0.625
vt 0.90625 0.625
vt 0.90625 0.78125
vt 0.8125 0.78125
vt 0.78125 0.75
vt 0.625 0.75
vt 0.625 0.71875
vt 0.78125 0.71875
vt 0.59375 0.71875
vt 0.59375 0.5625
vt 0.625 0.5625
vt 0.625 0.71875
vt 0.8125 0.5625
vt 0.8125 0.71875
vt 0.78125 0.71875
vt 0.78125 0.5625
vt 0.625 0.8125
vt 0.78125 0.8125
vt 0.78125 0.96875
vt 0.625 0.96875
vt 0.78125 0.5625
vt 0.78125 0.71875
vt 0.625 0.71875
vt 0.625 0.5625
vt 0.8125 0.84375
vt 0.90625 0.84375
vt 0.90625 1
vt 0.8125 1
vn 0.9998701904687678 -0.016112175891234534 0
vn -0.9998701904687678 -0.016112175891234534 0
vn -0.9998701904687678 0.016112175891234534 0
vn 0 -1 0
vn 0 -0.9999078964083201 -0.013571982179784645
vn 0 0.013571982179784642 0.9999078964083201
vn 0 0.99990789640832 -0.01357198217978464
vn 0 -0.013571982179784642 0.99990789640832
vn 0 0 -1
vn -0.9998701904687678 0 -0.016112175891234534
vn -0.9998701904687678 0 0.016112175891234534
vn 0 -0.013571982179784642 -0.9999078964083201
vn 0 0.99990789640832 0.013571982179784642
vn 0 -0.99990789640832 0.013571982179784642
vn 0 0.013571982179784642 -0.9999078964083201
vn 0 0 1
vn 0.9998701904687678 0.016112175891234534 0
vn 0.9998701904687678 0 0.016112175891234534
vn 0.9998701904687678 0 -0.016112175891234534
vn -1 0 0
vn 1 0 0
vn 0 1 0
usemtl none
f 41/137/35 42/138/35 43/139/35 44/140/35
f 45/141/36 46/142/36 47/143/36 48/144/36
f 49/145/37 50/146/37 51/147/37 52/148/37
f 45/149/38 42/150/38 41/151/38 46/152/38
f 47/153/39 44/154/39 53/155/39 54/156/39
f 41/157/40 44/158/40 47/159/40 46/160/40
f 52/161/41 55/162/41 56/163/41 57/164/41
f 58/165/42 49/166/42 52/167/42 57/168/42
f 59/169/43 60/170/43 61/171/43 62/172/43
f 61/173/44 60/174/44 48/175/44 51/176/44
f 54/177/45 55/178/45 52/179/45 47/180/45
f 63/181/46 64/182/46 51/183/46 50/184/46
f 62/185/47 61/186/47 51/187/47 64/188/47
f 60/189/48 59/190/48 43/191/48 48/192/48
f 45/193/49 48/194/49 43/195/49 42/196/49
f 54/197/50 53/198/50 56/199/50 55/200/50
f 63/201/51 58/202/51 57/203/51 64/204/51
f 56/205/52 53/206/52 44/207/52 57/208/52
f 59/209/53 62/210/53 64/211/53 43/212/53
f 48/213/54 47/214/54 52/215/54 51/216/54
f 43/217/55 64/218/55 57/219/55 44/220/55
f 49/221/56 58/222/56 63/223/56 50/224/56
o #translucent_mudAcc_rim
v -0.126801 0.095551 0.095551
v 0.126801 0.095551 0.095551
v 0.126801 0.095551 -0.095551
v -0.126801 0.095551 -0.095551
v -0.126801 -0.095551 0.095551
v 0.126801 -0.095551 0.095551
v 0.126801 -0.095551 -0.095551
v -0.126801 -0.095551 -0.095551
vt 0.65625 0.40625
vt 0.78125 0.40625
vt 0.78125 0.5
vt 0.65625 0.5
vt 0.65625 0.3125
vt 0.78125 0.3125
vt 0.78125 0.40625
vt 0.65625 0.40625
vt 0.90625 0.78125
vt 1 0.78125
vt 1 0.875
vt 0.90625 0.875
vt 0.65625 0.125
vt 0.78125 0.125
vt 0.78125 0.21875
vt 0.65625 0.21875
vt 0.65625 0.21875
vt 0.78125 0.21875
vt 0.78125 0.3125
vt 0.65625 0.3125
vt 0.90625 0.90625
vt 1 0.90625
vt 1 1
vt 0.90625 1
vn 0 1 0
vn 0 0 1
vn 1 0 0
vn 0 0 -1
vn 0 -1 0
vn -1 0 0
usemtl none
f 65/225/57 66/226/57 67/227/57 68/228/57
f 69/229/58 70/230/58 66/231/58 65/232/58
f 70/233/59 71/234/59 67/235/59 66/236/59
f 71/237/60 72/238/60 68/239/60 67/240/60
f 72/241/61 71/242/61 70/243/61 69/244/61
f 72/245/62 69/246/62 65/247/62 68/248/62