# Made in Blockbench 4.2.5
mtllib wheellarge.mtl

o rim
v 0.1875 -0.15625 -0.21875
v 0.1875 0.15625 -0.21875
v 0.1875 0.15625 -0.15625
v 0.1875 -0.15625 -0.15625
v -0.1875 -0.21875 -0.15625
v -0.1875 -0.21875 0.15625
v -0.1875 -0.15625 0.15625
v -0.1875 -0.15625 -0.15625
v -0.1875 -0.15625 0.21875
v -0.1875 0.15625 0.21875
v -0.1875 0.15625 0.15625
v -0.1875 -0.15625 -0.21875
v 0.1875 0.21875 0.15625
v 0.1875 0.21875 -0.15625
v -0.1875 0.21875 -0.15625
v -0.1875 0.21875 0.15625
v -0.1875 0.15625 -0.15625
v -0.1875 0.15625 -0.21875
v 0.1875 -0.21875 -0.15625
v 0.1875 -0.21875 0.15625
v 0.1875 -0.15625 0.15625
v 0.1875 -0.15625 0.21875
v 0.1875 0.15625 0.21875
v 0.1875 0.15625 0.15625
vt 0.109375 0.703125
vt 0.109375 0.78125
vt 0.09375 0.78125
vt 0.09375 0.703125
vt 0.21875 0.890625
vt 0.296875 0.890625
vt 0.296875 0.90625
vt 0.21875 0.90625
vt 0.3125 0.90625
vt 0.3125 0.984375
vt 0.296875 0.984375
vt 0.296875 0.90625
vt 0.375 0.828125
vt 0.375 0.84375
vt 0.28125 0.84375
vt 0.28125 0.828125
vt 0.09375 0.609375
vt 0.09375 0.6875
vt 0 0.6875
vt 0 0.609375
vt 0.46875 0.65625
vt 0.375 0.65625
vt 0.375 0.640625
vt 0.46875 0.640625
vt 0.3125 0.921875
vt 0.40625 0.921875
vt 0.40625 1
vt 0.3125 1
vt 0.296875 1
vt 0.21875 1
vt 0.21875 0.984375
vt 0.296875 0.984375
vt 0.203125 0.984375
vt 0.203125 0.90625
vt 0.21875 0.90625
vt 0.21875 0.984375
vt 0.4375 0.640625
vt 0.4375 0.625
vt 0.53125 0.625
vt 0.53125 0.640625
vt 0.3125 0.84375
vt 0.40625 0.84375
vt 0.40625 0.921875
vt 0.3125 0.921875
vt 0.53125 0.609375
vt 0.53125 0.625
vt 0.4375 0.625
vt 0.4375 0.609375
vt 0.4375 0.59375
vt 0.53125 0.59375
vt 0.53125 0.609375
vt 0.4375 0.609375
vt 0.09375 0.640625
vt 0.09375 0.5625
vt 0.1875 0.5625
vt 0.1875 0.640625
vt 0.53125 0.578125
vt 0.53125 0.59375
vt 0.4375 0.59375
vt 0.4375 0.578125
vt 0.515625 0.546875
vt 0.515625 0.5625
vt 0.421875 0.5625
vt 0.421875 0.546875
vt 0.53125 0.5625
vt 0.53125 0.578125
vt 0.4375 0.578125
vt 0.4375 0.5625
vt 0.296875 0.90625
vt 0.296875 0.984375
vt 0.21875 0.984375
vt 0.21875 0.90625
vt 0.015625 0.6875
vt 0.09375 0.6875
vt 0.09375 0.703125
vt 0.015625 0.703125
vt 0 0.78125
vt 0 0.703125
vt 0.015625 0.703125
vt 0.015625 0.78125
vt 0.09375 0.796875
vt 0.015625 0.796875
vt 0.015625 0.78125
vt 0.09375 0.78125
vt 0.09375 0.703125
vt 0.09375 0.78125
vt 0.015625 0.78125
vt 0.015625 0.703125
vn 1 0 0
vn -1 0 0
vn -1 0 0
vn 0 -1 0
vn 0 1 0
vn 0 0 -1
vn 0 0 -1
vn -1 0 0
vn -1 0 0
vn 0 0 -1
vn 0 -1 0
vn 0 0 1
vn 0 -1 0
vn 0 0 1
vn 0 1 0
vn 0 0 1
vn 0 1 0
vn -1 0 0
vn 1 0 0
vn 1 0 0
vn 1 0 0
vn 1 0 0
usemtl m_1
f 1/1/1 2/2/1 3/3/1 4/4/1
f 5/5/2 6/6/2 7/7/2 8/8/2
f 9/9/3 10/10/3 11/11/3 7/12/3
f 1/13/4 4/14/4 8/15/4 12/16/4
f 13/17/5 14/18/5 15/19/5 16/20/5
f 15/21/6 14/22/6 3/23/6 17/24/6
f 1/25/7 12/26/7 18/27/7 2/28/7
f 16/29/8 15/30/8 17/31/8 11/32/8
f 18/33/9 12/34/9 8/35/9 17/36/9
f 4/37/10 19/38/10 5/39/10 8/40/10
f 5/41/11 19/42/11 20/43/11 6/44/11
f 20/45/12 21/46/12 7/47/12 6/48/12
f 7/49/13 21/50/13 22/51/13 9/52/13
f 10/53/14 9/54/14 22/55/14 23/56/14
f 23/57/15 24/58/15 11/59/15 10/60/15
f 24/61/16 13/62/16 16/63/16 11/64/16
f 3/65/17 2/66/17 18/67/17 17/68/17
f 7/69/18 11/70/18 17/71/18 8/72/18
f 20/73/19 19/74/19 4/75/19 21/76/19
f 23/77/20 22/78/20 21/79/20 24/80/20
f 14/81/21 13/82/21 24/83/21 3/84/21
f 4/85/22 3/86/22 24/87/22 21/88/22
o tire
v -0.15625 0.28125 0.28125
v -0.15625 0.28125 -0.28125
v -0.15625 -0.28125 -0.28125
v -0.15625 -0.28125 0.28125
v 0.15625 0.28125 0.28125
v 0.15625 -0.28125 0.28125
v 0.15625 -0.28125 -0.28125
v 0.15625 0.28125 -0.28125
v -0.15625 0.40625 -0.15625
v -0.15625 0.46875 -0.15625
v 0.15625 0.46875 -0.15625
v 0.15625 0.40625 -0.15625
v 0.15625 -0.46875 0.15625
v 0.15625 -0.46875 -0.15625
v 0.15625 -0.40625 -0.15625
v 0.15625 -0.40625 0.15625
v -0.15625 -0.40625 0.28125
v -0.15625 -0.40625 -0.28125
v -0.15625 -0.46875 -0.15625
v -0.15625 -0.46875 0.15625
v 0.15625 -0.15625 -0.46875
v -0.15625 -0.15625 -0.46875
v -0.15625 0.15625 -0.46875
v 0.15625 0.15625 -0.46875
v -0.15625 0.46875 0.15625
v 0.15625 0.46875 0.15625
v -0.15625 -0.40625 0.15625
v -0.15625 -0.40625 -0.15625
v -0.15625 0.15625 0.46875
v -0.15625 0.15625 0.40625
v -0.15625 -0.15625 0.40625
v -0.15625 -0.15625 0.46875
v -0.15625 0.40625 0.15625
v -0.15625 -0.15625 -0.40625
v -0.15625 0.15625 -0.40625
v 0.15625 -0.40625 -0.28125
v 0.15625 -0.40625 0.28125
v 0.15625 0.28125 -0.40625
v 0.15625 -0.28125 -0.40625
v 0.15625 0.40625 0.28125
v 0.15625 0.40625 -0.28125
v -0.15625 -0.28125 -0.40625
v -0.15625 0.28125 -0.40625
v -0.15625 0.40625 -0.28125
v -0.15625 0.40625 0.28125
v -0.15625 0.28125 0.40625
v -0.15625 -0.28125 0.40625
v 0.15625 0.40625 0.15625
v 0.15625 -0.28125 0.40625
v 0.15625 0.28125 0.40625
v 0.15625 0.15625 0.46875
v 0.15625 -0.15625 0.46875
v 0.15625 -0.15625 0.40625
v 0.15625 0.15625 0.40625
v 0.15625 0.15625 -0.40625
v 0.15625 -0.15625 -0.40625
vt 0.171875 0.96875
vt 0.03125 0.96875
vt 0.03125 0.828125
vt 0.171875 0.828125
vt 0.203125 0.796875
vt 0.203125 0.65625
vt 0.34375 0.65625
vt 0.34375 0.796875
vt 0.171875 0.640625
vt 0.171875 0.65625
vt 0.09375 0.65625
vt 0.09375 0.640625
vt 0 0.53125
vt 0.078125 0.53125
vt 0.078125 0.546875
vt 0 0.546875
vt 0.171875 0.796875
vt 0.171875 0.828125
vt 0.03125 0.828125
vt 0.03125 0.796875
vt 0.359375 0.5625
vt 0.4375 0.5625
vt 0.4375 0.640625
vt 0.359375 0.640625
vt 0.375 0.765625
vt 0.453125 0.765625
vt 0.453125 0.84375
vt 0.375 0.84375
vt 0.1875 0.546875
vt 0.265625 0.546875
vt 0.265625 0.625
vt 0.1875 0.625
vt 0.234375 0.53125
vt 0.234375 0.546875
vt 0.15625 0.546875
vt 0.15625 0.53125
vt 0.125 0.796875
vt 0.109375 0.796875
vt 0.109375 0.71875
vt 0.125 0.71875
vt 0.453125 0.84375
vt 0.453125 0.828125
vt 0.53125 0.828125
vt 0.53125 0.84375
vt 0.125 0.796875
vt 0.125 0.71875
vt 0.140625 0.71875
vt 0.140625 0.796875
vt 0.34375 0.625
vt 0.34375 0.65625
vt 0.203125 0.65625
vt 0.203125 0.625
vt 0.375 0.796875
vt 0.34375 0.796875
vt 0.34375 0.65625
vt 0.375 0.65625
vt 0.203125 0.828125
vt 0.203125 0.796875
vt 0.34375 0.796875
vt 0.34375 0.828125
vt 0 0.828125
vt 0.03125 0.828125
vt 0.03125 0.96875
vt 0 0.96875
vt 0.03125 1
vt 0.03125 0.96875
vt 0.171875 0.96875
vt 0.171875 1
vt 0.203125 0.96875
vt 0.171875 0.96875
vt 0.171875 0.828125
vt 0.203125 0.828125
vt 0.53125 0.828125
vt 0.453125 0.828125
vt 0.453125 0.8125
vt 0.53125 0.8125
vt 0.171875 0.65625
vt 0.203125 0.65625
vt 0.203125 0.796875
vt 0.171875 0.796875
vt 0.140625 0.796875
vt 0.140625 0.71875
vt 0.15625 0.71875
vt 0.15625 0.796875
vt 0.171875 0.71875
vt 0.171875 0.796875
vt 0.15625 0.796875
vt 0.15625 0.71875
vt 0.28125 0.890625
vt 0.203125 0.890625
vt 0.203125 0.859375
vt 0.28125 0.859375
vt 0.203125 0.828125
vt 0.28125 0.828125
vt 0.28125 0.859375
vt 0.203125 0.859375
vt 0.171875 0.65625
vt 0.171875 0.6875
vt 0.09375 0.6875
vt 0.09375 0.65625
vt 0.34375 0.625
vt 0.265625 0.625
vt 0.265625 0.59375
vt 0.34375 0.59375
vt 0.453125 0.8125
vt 0.453125 0.796875
vt 0.53125 0.796875
vt 0.53125 0.8125
vt 0.53125 0.78125
vt 0.53125 0.796875
vt 0.453125 0.796875
vt 0.453125 0.78125
vt 0.375 0.65625
vt 0.453125 0.65625
vt 0.453125 0.6875
vt 0.375 0.6875
vt 0.078125 0.609375
vt 0 0.609375
vt 0 0.578125
vt 0.078125 0.578125
vt 0.484375 1
vt 0.40625 1
vt 0.40625 0.96875
vt 0.484375 0.96875
vt 0.453125 0.78125
vt 0.453125 0.765625
vt 0.53125 0.765625
vt 0.53125 0.78125
vt 0.40625 0.9375
vt 0.484375 0.9375
vt 0.484375 0.96875
vt 0.40625 0.96875
vt 0.53125 0.765625
vt 0.453125 0.765625
vt 0.453125 0.75
vt 0.53125 0.75
vt 0.484375 0.9375
vt 0.40625 0.9375
vt 0.40625 0.90625
vt 0.484375 0.90625
vt 0.40625 0.90625
vt 0.40625 0.875
vt 0.484375 0.875
vt 0.484375 0.90625
vt 0.40625 0.84375
vt 0.484375 0.84375
vt 0.484375 0.875
vt 0.40625 0.875
vt 0.265625 0.5625
vt 0.34375 0.5625
vt 0.34375 0.59375
vt 0.265625 0.59375
vt 0.453125 0.75
vt 0.453125 0.734375
vt 0.53125 0.734375
vt 0.53125 0.75
vt 0.453125 0.6875
vt 0.453125 0.765625
vt 0.375 0.765625
vt 0.375 0.6875
vt 0.453125 0.734375
vt 0.453125 0.71875
vt 0.53125 0.71875
vt 0.53125 0.734375
vt 0.078125 0.578125
vt 0 0.578125
vt 0 0.546875
vt 0.078125 0.546875
vt 0.078125 0.5625
vt 0.078125 0.53125
vt 0.15625 0.53125
vt 0.15625 0.5625
vt 0.34375 0.53125
vt 0.34375 0.5625
vt 0.265625 0.5625
vt 0.265625 0.53125
vt 0.34375 0.53125
vt 0.421875 0.53125
vt 0.421875 0.5625
vt 0.34375 0.5625
vt 0.453125 0.71875
vt 0.453125 0.703125
vt 0.53125 0.703125
vt 0.53125 0.71875
vn -1 0 0
vn 1 0 0
vn 0 0 -1
vn 1 0 0
vn -1 0 0
vn 0 -1 0
vn 0 0 -1
vn 0 1 0
vn -1 0 0
vn -1 0 0
vn -1 0 0
vn -1 0 0
vn 1 0 0
vn 1 0 0
vn 1 0 0
vn -1 0 0
vn -1 0 0
vn -1 0 0
vn 1 0 0
vn 1 0 0
vn 1 0 0
vn 1 0 0
vn 0 1 0
vn 0 0 -1
vn 0 1 0
vn 0 0 -1
vn 0 1 0
vn 0 -1 0
vn 0 0 -1
vn 0 -1 0
vn 0 0 -1
vn 0 0 -1
vn 0 -1 0
vn 0 0 1
vn 0 -1 0
vn 0 0 1
vn 0 -1 0
vn 0 0 1
vn 0 -1 0
vn 0 0 1
vn 0 1 0
vn 0 0 1
vn 0 1 0
vn 0 0 1
vn 0 1 0
vn 0 0 1
usemtl m_1
f 25/89/23 26/90/23 27/91/23 28/92/23
f 29/93/24 30/94/24 31/95/24 32/96/24
f 33/97/25 34/98/25 35/99/25 36/100/25
f 37/101/26 38/102/26 39/103/26 40/104/26
f 41/105/27 28/106/27 27/107/27 42/108/27
f 43/109/28 38/110/28 37/111/28 44/112/28
f 45/113/29 46/114/29 47/115/29 48/116/29
f 49/117/30 50/118/30 35/119/30 34/120/30
f 44/121/31 51/122/31 52/123/31 43/124/31
f 53/125/32 54/126/32 55/127/32 56/128/32
f 34/129/33 33/130/33 57/131/33 49/132/33
f 47/133/34 46/134/34 58/135/34 59/136/34
f 60/137/35 31/138/35 30/139/35 61/140/35
f 62/141/36 32/142/36 31/143/36 63/144/36
f 64/145/37 29/146/37 32/147/37 65/148/37
f 66/149/38 27/150/38 26/151/38 67/152/38
f 68/153/39 26/154/39 25/155/39 69/156/39
f 70/157/40 25/158/40 28/159/40 71/160/40
f 35/161/41 50/162/41 72/163/41 36/164/41
f 73/165/42 30/166/42 29/167/42 74/168/42
f 75/169/43 76/170/43 77/171/43 78/172/43
f 45/173/44 48/174/44 79/175/44 80/176/44
f 65/177/45 68/178/45 33/179/45 36/180/45
f 32/181/46 26/182/46 68/183/46 65/184/46
f 32/185/47 62/186/47 67/187/47 26/188/47
f 67/189/48 62/190/48 79/191/48 59/192/48
f 47/193/49 59/194/49 79/195/49 48/196/49
f 45/197/50 80/198/50 58/199/50 46/200/50
f 63/201/51 66/202/51 58/203/51 80/204/51
f 31/205/52 27/206/52 66/207/52 63/208/52
f 27/209/53 31/210/53 60/211/53 42/212/53
f 39/213/54 38/214/54 43/215/54 52/216/54
f 42/217/55 60/218/55 39/219/55 52/220/55
f 40/221/56 51/222/56 44/223/56 37/224/56
f 61/225/57 41/226/57 51/227/57 40/228/57
f 28/229/58 41/230/58 61/231/58 30/232/58
f 28/233/59 30/234/59 73/235/59 71/236/59
f 71/237/60 73/238/60 77/239/60 55/240/60
f 56/241/61 55/242/61 77/243/61 76/244/61
f 76/245/62 75/246/62 53/247/62 56/248/62
f 54/249/63 53/250/63 75/251/63 78/252/63
f 74/253/64 70/254/64 54/255/64 78/256/64
f 25/257/65 70/258/65 74/259/65 29/260/65
f 29/261/66 64/262/66 69/263/66 25/264/66
f 69/265/67 64/266/67 72/267/67 57/268/67
f 49/269/68 57/270/68 72/271/68 50/272/68