# Made in Blockbench 4.9.4
mtllib wheellarge.mtl

o rim
v 0.1875 -0.15625 -0.21875
v 0.1875 0.15625 -0.21875
v 0.1875 0.15625 -0.15625
v 0.1875 -0.15625 -0.15625
v -0.1875 -0.21875 -0.15625
v -0.1875 -0.21875 0.15625
v -0.1875 -0.15625 0.15625
v -0.1875 -0.15625 -0.15625
v -0.1875 -0.15625 0.21875
v -0.1875 0.15625 0.21875
v -0.1875 0.15625 0.15625
v -0.1875 -0.15625 -0.21875
v 0.1875 0.21875 0.15625
v 0.1875 0.21875 -0.15625
v -0.1875 0.21875 -0.15625
v -0.1875 0.21875 0.15625
v -0.1875 0.15625 -0.15625
v -0.1875 0.15625 -0.21875
v 0.1875 -0.21875 -0.15625
v 0.1875 -0.21875 0.15625
v 0.1875 -0.15625 0.15625
v 0.1875 -0.15625 0.21875
v 0.1875 0.15625 0.21875
v 0.1875 0.15625 0.15625
vt 0.109375 0.703125
vt 0.109375 0.78125
vt 0.09375 0.78125
vt 0.09375 0.703125
vt 0.21875 0.890625
vt 0.296875 0.890625
vt 0.296875 0.90625
vt 0.21875 0.90625
vt 0.3125 0.90625
vt 0.3125 0.984375
vt 0.296875 0.984375
vt 0.296875 0.90625
vt 0.375 0.828125
vt 0.375 0.84375
vt 0.28125 0.84375
vt 0.28125 0.828125
vt 0.09375 0.609375
vt 0.09375 0.6875
vt 0 0.6875
vt 0 0.609375
vt 0.46875 0.65625
vt 0.375 0.65625
vt 0.375 0.640625
vt 0.46875 0.640625
vt 0.3125 0.921875
vt 0.40625 0.921875
vt 0.40625 1
vt 0.3125 1
vt 0.296875 1
vt 0.21875 1
vt 0.21875 0.984375
vt 0.296875 0.984375
vt 0.203125 0.984375
vt 0.203125 0.90625
vt 0.21875 0.90625
vt 0.21875 0.984375
vt 0.4375 0.640625
vt 0.4375 0.625
vt 0.53125 0.625
vt 0.53125 0.640625
vt 0.3125 0.84375
vt 0.40625 0.84375
vt 0.40625 0.921875
vt 0.3125 0.921875
vt 0.53125 0.609375
vt 0.53125 0.625
vt 0.4375 0.625
vt 0.4375 0.609375
vt 0.4375 0.59375
vt 0.53125 0.59375
vt 0.53125 0.609375
vt 0.4375 0.609375
vt 0.09375 0.640625
vt 0.09375 0.5625
vt 0.1875 0.5625
vt 0.1875 0.640625
vt 0.53125 0.578125
vt 0.53125 0.59375
vt 0.4375 0.59375
vt 0.4375 0.578125
vt 0.515625 0.546875
vt 0.515625 0.5625
vt 0.421875 0.5625
vt 0.421875 0.546875
vt 0.53125 0.5625
vt 0.53125 0.578125
vt 0.4375 0.578125
vt 0.4375 0.5625
vt 0.296875 0.90625
vt 0.296875 0.984375
vt 0.21875 0.984375
vt 0.21875 0.90625
vt 0.015625 0.6875
vt 0.09375 0.6875
vt 0.09375 0.703125
vt 0.015625 0.703125
vt 0 0.78125
vt 0 0.703125
vt 0.015625 0.703125
vt 0.015625 0.78125
vt 0.09375 0.796875
vt 0.015625 0.796875
vt 0.015625 0.78125
vt 0.09375 0.78125
vt 0.09375 0.703125
vt 0.09375 0.78125
vt 0.015625 0.78125
vt 0.015625 0.703125
vn 1 0 0
vn -1 0 0
vn -1 0 0
vn 0 -1 0
vn 0 1 0
vn 0 0 -1
vn 0 0 -1
vn -1 0 0
vn -1 0 0
vn 0 0 -1
vn 0 -1 0
vn 0 0 1
vn 0 -1 0
vn 0 0 1
vn 0 1 0
vn 0 0 1
vn 0 1 0
vn -1 0 0
vn 1 0 0
vn 1 0 0
vn 1 0 0
vn 1 0 0
usemtl none
f 1/1/1 2/2/1 3/3/1 4/4/1
f 5/5/2 6/6/2 7/7/2 8/8/2
f 9/9/3 10/10/3 11/11/3 7/12/3
f 1/13/4 4/14/4 8/15/4 12/16/4
f 13/17/5 14/18/5 15/19/5 16/20/5
f 15/21/6 14/22/6 3/23/6 17/24/6
f 1/25/7 12/26/7 18/27/7 2/28/7
f 16/29/8 15/30/8 17/31/8 11/32/8
f 18/33/9 12/34/9 8/35/9 17/36/9
f 4/37/10 19/38/10 5/39/10 8/40/10
f 5/41/11 19/42/11 20/43/11 6/44/11
f 20/45/12 21/46/12 7/47/12 6/48/12
f 7/49/13 21/50/13 22/51/13 9/52/13
f 10/53/14 9/54/14 22/55/14 23/56/14
f 23/57/15 24/58/15 11/59/15 10/60/15
f 24/61/16 13/62/16 16/63/16 11/64/16
f 3/65/17 2/66/17 18/67/17 17/68/17
f 7/69/18 11/70/18 17/71/18 8/72/18
f 20/73/19 19/74/19 4/75/19 21/76/19
f 23/77/20 22/78/20 21/79/20 24/80/20
f 14/81/21 13/82/21 24/83/21 3/84/21
f 4/85/22 3/86/22 24/87/22 21/88/22
o tire
v -0.15625 0.28125 0.28125
v -0.15625 0.28125 -0.28125
v -0.15625 -0.28125 -0.28125
v -0.15625 -0.28125 0.28125
v 0.15625 0.28125 0.28125
v 0.15625 -0.28125 0.28125
v 0.15625 -0.28125 -0.28125
v 0.15625 0.28125 -0.28125
v -0.15625 0.40625 -0.15625
v -0.15625 0.46875 -0.15625
v 0.15625 0.46875 -0.15625
v 0.15625 0.40625 -0.15625
v 0.15625 -0.46875 0.15625
v 0.15625 -0.46875 -0.15625
v 0.15625 -0.40625 -0.15625
v 0.15625 -0.40625 0.15625
v -0.15625 -0.40625 0.28125
v -0.15625 -0.40625 -0.28125
v -0.15625 -0.46875 -0.15625
v -0.15625 -0.46875 0.15625
v 0.15625 -0.15625 -0.46875
v -0.15625 -0.15625 -0.46875
v -0.15625 0.15625 -0.46875
v 0.15625 0.15625 -0.46875
v -0.15625 0.46875 0.15625
v 0.15625 0.46875 0.15625
v -0.15625 -0.40625 0.15625
v -0.15625 -0.40625 -0.15625
v -0.15625 0.15625 0.46875
v -0.15625 0.15625 0.40625
v -0.15625 -0.15625 0.40625
v -0.15625 -0.15625 0.46875
v -0.15625 0.40625 0.15625
v -0.15625 -0.15625 -0.40625
v -0.15625 0.15625 -0.40625
v 0.15625 -0.40625 -0.28125
v 0.15625 -0.40625 0.28125
v 0.15625 0.28125 -0.40625
v 0.15625 -0.28125 -0.40625
v 0.15625 0.40625 0.28125
v 0.15625 0.40625 -0.28125
v -0.15625 -0.28125 -0.40625
v -0.15625 0.28125 -0.40625
v -0.15625 0.40625 -0.28125
v -0.15625 0.40625 0.28125
v -0.15625 0.28125 0.40625
v -0.15625 -0.28125 0.40625
v 0.15625 0.40625 0.15625
v 0.15625 -0.28125 0.40625
v 0.15625 0.28125 0.40625
v 0.15625 0.15625 0.46875
v 0.15625 -0.15625 0.46875
v 0.15625 -0.15625 0.40625
v 0.15625 0.15625 0.40625
v 0.15625 0.15625 -0.40625
v 0.15625 -0.15625 -0.40625
vt 0.171875 0.96875
vt 0.03125 0.96875
vt 0.03125 0.828125
vt 0.171875 0.828125
vt 0.203125 0.796875
vt 0.203125 0.65625
vt 0.34375 0.65625
vt 0.34375 0.796875
vt 0.171875 0.640625
vt 0.171875 0.65625
vt 0.09375 0.65625
vt 0.09375 0.640625
vt 0 0.53125
vt 0.078125 0.53125
vt 0.078125 0.546875
vt 0 0.546875
vt 0.171875 0.796875
vt 0.171875 0.828125
vt 0.03125 0.828125
vt 0.03125 0.796875
vt 0.359375 0.5625
vt 0.4375 0.5625
vt 0.4375 0.640625
vt 0.359375 0.640625
vt 0.375 0.765625
vt 0.453125 0.765625
vt 0.453125 0.84375
vt 0.375 0.84375
vt 0.1875 0.546875
vt 0.265625 0.546875
vt 0.265625 0.625
vt 0.1875 0.625
vt 0.234375 0.53125
vt 0.234375 0.546875
vt 0.15625 0.546875
vt 0.15625 0.53125
vt 0.125 0.796875
vt 0.109375 0.796875
vt 0.109375 0.71875
vt 0.125 0.71875
vt 0.453125 0.84375
vt 0.453125 0.828125
vt 0.53125 0.828125
vt 0.53125 0.84375
vt 0.125 0.796875
vt 0.125 0.71875
vt 0.140625 0.71875
vt 0.140625 0.796875
vt 0.34375 0.625
vt 0.34375 0.65625
vt 0.203125 0.65625
vt 0.203125 0.625
vt 0.375 0.796875
vt 0.34375 0.796875
vt 0.34375 0.65625
vt 0.375 0.65625
vt 0.203125 0.828125
vt 0.203125 0.796875
vt 0.34375 0.796875
vt 0.34375 0.828125
vt 0 0.828125
vt 0.03125 0.828125
vt 0.03125 0.96875
vt 0 0.96875
vt 0.03125 1
vt 0.03125 0.96875
vt 0.171875 0.96875
vt 0.171875 1
vt 0.203125 0.96875
vt 0.171875 0.96875
vt 0.171875 0.828125
vt 0.203125 0.828125
vt 0.53125 0.828125
vt 0.453125 0.828125
vt 0.453125 0.8125
vt 0.53125 0.8125
vt 0.171875 0.65625
vt 0.203125 0.65625
vt 0.203125 0.796875
vt 0.171875 0.796875
vt 0.140625 0.796875
vt 0.140625 0.71875
vt 0.15625 0.71875
vt 0.15625 0.796875
vt 0.171875 0.71875
vt 0.171875 0.796875
vt 0.15625 0.796875
vt 0.15625 0.71875
vt 0.28125 0.890625
vt 0.203125 0.890625
vt 0.203125 0.859375
vt 0.28125 0.859375
vt 0.203125 0.828125
vt 0.28125 0.828125
vt 0.28125 0.859375
vt 0.203125 0.859375
vt 0.171875 0.65625
vt 0.171875 0.6875
vt 0.09375 0.6875
vt 0.09375 0.65625
vt 0.34375 0.625
vt 0.265625 0.625
vt 0.265625 0.59375
vt 0.34375 0.59375
vt 0.453125 0.8125
vt 0.453125 0.796875
vt 0.53125 0.796875
vt 0.53125 0.8125
vt 0.53125 0.78125
vt 0.53125 0.796875
vt 0.453125 0.796875
vt 0.453125 0.78125
vt 0.375 0.65625
vt 0.453125 0.65625
vt 0.453125 0.6875
vt 0.375 0.6875
vt 0.078125 0.609375
vt 0 0.609375
vt 0 0.578125
vt 0.078125 0.578125
vt 0.484375 1
vt 0.40625 1
vt 0.40625 0.96875
vt 0.484375 0.96875
vt 0.453125 0.78125
vt 0.453125 0.765625
vt 0.53125 0.765625
vt 0.53125 0.78125
vt 0.40625 0.9375
vt 0.484375 0.9375
vt 0.484375 0.96875
vt 0.40625 0.96875
vt 0.53125 0.765625
vt 0.453125 0.765625
vt 0.453125 0.75
vt 0.53125 0.75
vt 0.484375 0.9375
vt 0.40625 0.9375
vt 0.40625 0.90625
vt 0.484375 0.90625
vt 0.40625 0.90625
vt 0.40625 0.875
vt 0.484375 0.875
vt 0.484375 0.90625
vt 0.40625 0.84375
vt 0.484375 0.84375
vt 0.484375 0.875
vt 0.40625 0.875
vt 0.265625 0.5625
vt 0.34375 0.5625
vt 0.34375 0.59375
vt 0.265625 0.59375
vt 0.453125 0.75
vt 0.453125 0.734375
vt 0.53125 0.734375
vt 0.53125 0.75
vt 0.453125 0.6875
vt 0.453125 0.765625
vt 0.375 0.765625
vt 0.375 0.6875
vt 0.453125 0.734375
vt 0.453125 0.71875
vt 0.53125 0.71875
vt 0.53125 0.734375
vt 0.078125 0.578125
vt 0 0.578125
vt 0 0.546875
vt 0.078125 0.546875
vt 0.078125 0.5625
vt 0.078125 0.53125
vt 0.15625 0.53125
vt 0.15625 0.5625
vt 0.34375 0.53125
vt 0.34375 0.5625
vt 0.265625 0.5625
vt 0.265625 0.53125
vt 0.34375 0.53125
vt 0.421875 0.53125
vt 0.421875 0.5625
vt 0.34375 0.5625
vt 0.453125 0.71875
vt 0.453125 0.703125
vt 0.53125 0.703125
vt 0.53125 0.71875
vn -1 0 0
vn 1 0 0
vn 0 0 -1
vn 1 0 0
vn -1 0 0
vn 0 -1 0
vn 0 0 -1
vn 0 1 0
vn -1 0 0
vn -1 0 0
vn -1 0 0
vn -1 0 0
vn 1 0 0
vn 1 0 0
vn 1 0 0
vn -1 0 0
vn -1 0 0
vn -1 0 0
vn 1 0 0
vn 1 0 0
vn 1 0 0
vn 1 0 0
vn 0 1 0
vn 0 0 -1
vn 0 1 0
vn 0 0 -1
vn 0 1 0
vn 0 -1 0
vn 0 0 -1
vn 0 -1 0
vn 0 0 -1
vn 0 0 -1
vn 0 -1 0
vn 0 0 1
vn 0 -1 0
vn 0 0 1
vn 0 -1 0
vn 0 0 1
vn 0 -1 0
vn 0 0 1
vn 0 1 0
vn 0 0 1
vn 0 1 0
vn 0 0 1
vn 0 1 0
vn 0 0 1
usemtl none
f 25/89/23 26/90/23 27/91/23 28/92/23
f 29/93/24 30/94/24 31/95/24 32/96/24
f 33/97/25 34/98/25 35/99/25 36/100/25
f 37/101/26 38/102/26 39/103/26 40/104/26
f 41/105/27 28/106/27 27/107/27 42/108/27
f 43/109/28 38/110/28 37/111/28 44/112/28
f 45/113/29 46/114/29 47/115/29 48/116/29
f 49/117/30 50/118/30 35/119/30 34/120/30
f 44/121/31 51/122/31 52/123/31 43/124/31
f 53/125/32 54/126/32 55/127/32 56/128/32
f 34/129/33 33/130/33 57/131/33 49/132/33
f 47/133/34 46/134/34 58/135/34 59/136/34
f 60/137/35 31/138/35 30/139/35 61/140/35
f 62/141/36 32/142/36 31/143/36 63/144/36
f 64/145/37 29/146/37 32/147/37 65/148/37
f 66/149/38 27/150/38 26/151/38 67/152/38
f 68/153/39 26/154/39 25/155/39 69/156/39
f 70/157/40 25/158/40 28/159/40 71/160/40
f 35/161/41 50/162/41 72/163/41 36/164/41
f 73/165/42 30/166/42 29/167/42 74/168/42
f 75/169/43 76/170/43 77/171/43 78/172/43
f 45/173/44 48/174/44 79/175/44 80/176/44
f 65/177/45 68/178/45 33/179/45 36/180/45
f 32/181/46 26/182/46 68/183/46 65/184/46
f 32/185/47 62/186/47 67/187/47 26/188/47
f 67/189/48 62/190/48 79/191/48 59/192/48
f 47/193/49 59/194/49 79/195/49 48/196/49
f 45/197/50 80/198/50 58/199/50 46/200/50
f 63/201/51 66/202/51 58/203/51 80/204/51
f 31/205/52 27/206/52 66/207/52 63/208/52
f 27/209/53 31/210/53 60/211/53 42/212/53
f 39/213/54 38/214/54 43/215/54 52/216/54
f 42/217/55 60/218/55 39/219/55 52/220/55
f 40/221/56 51/222/56 44/223/56 37/224/56
f 61/225/57 41/226/57 51/227/57 40/228/57
f 28/229/58 41/230/58 61/231/58 30/232/58
f 28/233/59 30/234/59 73/235/59 71/236/59
f 71/237/60 73/238/60 77/239/60 55/240/60
f 56/241/61 55/242/61 77/243/61 76/244/61
f 76/245/62 75/246/62 53/247/62 56/248/62
f 54/249/63 53/250/63 75/251/63 78/252/63
f 74/253/64 70/254/64 54/255/64 78/256/64
f 25/257/65 70/258/65 74/259/65 29/260/65
f 29/261/66 64/262/66 69/263/66 25/264/66
f 69/265/67 64/266/67 72/267/67 57/268/67
f 49/269/68 57/270/68 72/271/68 50/272/68
o #translucent_mudAcc_tire
v -0.159072 0.282191 0.282191
v -0.159072 0.282191 -0.282191
v -0.159072 -0.282191 -0.282191
v -0.159072 -0.282191 0.282191
v 0.159072 0.282191 0.282191
v 0.159072 -0.282191 0.282191
v 0.159072 -0.282191 -0.282191
v 0.159072 0.282191 -0.282191
v -0.158051 0.408051 -0.158051
v -0.158051 0.470551 -0.158051
v 0.158051 0.470551 -0.158051
v 0.158051 0.408051 -0.158051
v 0.158051 -0.470551 0.158051
v 0.158051 -0.470551 -0.158051
v 0.158051 -0.408051 -0.158051
v 0.158051 -0.408051 0.158051
v -0.158051 -0.408051 0.283051
v -0.158051 -0.408051 -0.283051
v -0.158051 -0.470551 -0.158051
v -0.158051 -0.470551 0.158051
v 0.158051 -0.158051 -0.470551
v -0.158051 -0.158051 -0.470551
v -0.158051 0.158051 -0.470551
v 0.158051 0.158051 -0.470551
v -0.158051 0.470551 0.158051
v 0.158051 0.470551 0.158051
v -0.158051 -0.408051 0.158051
v -0.158051 -0.408051 -0.158051
v -0.158051 0.158051 0.470551
v -0.158051 0.158051 0.408051
v -0.158051 -0.158051 0.408051
v -0.158051 -0.158051 0.470551
v -0.158051 0.408051 0.158051
v -0.158051 -0.158051 -0.408051
v -0.158051 0.158051 -0.408051
v 0.158051 -0.408051 -0.283051
v 0.158051 -0.408051 0.283051
v 0.158051 0.283051 -0.408051
v 0.158051 -0.283051 -0.408051
v 0.158051 0.408051 0.283051
v 0.158051 0.408051 -0.283051
v -0.158051 -0.283051 -0.408051
v -0.158051 0.283051 -0.408051
v -0.158051 0.408051 -0.283051
v -0.158051 0.408051 0.283051
v -0.158051 0.283051 0.408051
v -0.158051 -0.283051 0.408051
v 0.158051 0.408051 0.158051
v 0.158051 -0.283051 0.408051
v 0.158051 0.283051 0.408051
v 0.158051 0.158051 0.470551
v 0.158051 -0.158051 0.470551
v 0.158051 -0.158051 0.408051
v 0.158051 0.158051 0.408051
v 0.158051 0.158051 -0.408051
v 0.158051 -0.158051 -0.408051
vt 0.828125 0.953125
vt 0.6875 0.953125
vt 0.6875 0.8125
vt 0.828125 0.8125
vt 0.6875 0.71875
vt 0.6875 0.578125
vt 0.828125 0.578125
vt 0.828125 0.71875
vt 1 0.90625
vt 1 0.921875
vt 0.921875 0.921875
vt 0.921875 0.90625
vt 0.71875 0.53125
vt 0.796875 0.53125
vt 0.796875 0.546875
vt 0.71875 0.546875
vt 0.828125 0.78125
vt 0.828125 0.8125
vt 0.6875 0.8125
vt 0.6875 0.78125
vt 0.921875 0.453125
vt 1 0.453125
vt 1 0.53125
vt 0.921875 0.53125
vt 0.921875 0.6875
vt 1 0.6875
vt 1 0.765625
vt 0.921875 0.765625
vt 0.921875 0.921875
vt 1 0.921875
vt 1 1
vt 0.921875 1
vt 0.796875 0.765625
vt 0.796875 0.78125
vt 0.71875 0.78125
vt 0.71875 0.765625
vt 0.875 0.921875
vt 0.859375 0.921875
vt 0.859375 0.84375
vt 0.875 0.84375
vt 0.71875 1
vt 0.71875 0.984375
vt 0.796875 0.984375
vt 0.796875 1
vt 0.640625 0.921875
vt 0.640625 0.84375
vt 0.65625 0.84375
vt 0.65625 0.921875
vt 0.828125 0.546875
vt 0.828125 0.578125
vt 0.6875 0.578125
vt 0.6875 0.546875
vt 0.859375 0.71875
vt 0.828125 0.71875
vt 0.828125 0.578125
vt 0.859375 0.578125
vt 0.6875 0.75
vt 0.6875 0.71875
vt 0.828125 0.71875
vt 0.828125 0.75
vt 0.65625 0.8125
vt 0.6875 0.8125
vt 0.6875 0.953125
vt 0.65625 0.953125
vt 0.6875 0.984375
vt 0.6875 0.953125
vt 0.828125 0.953125
vt 0.828125 0.984375
vt 0.859375 0.953125
vt 0.828125 0.953125
vt 0.828125 0.8125
vt 0.859375 0.8125
vt 0.796875 0.765625
vt 0.71875 0.765625
vt 0.71875 0.75
vt 0.796875 0.75
vt 0.65625 0.578125
vt 0.6875 0.578125
vt 0.6875 0.71875
vt 0.65625 0.71875
vt 0.640625 0.6875
vt 0.640625 0.609375
vt 0.65625 0.609375
vt 0.65625 0.6875
vt 0.875 0.609375
vt 0.875 0.6875
vt 0.859375 0.6875
vt 0.859375 0.609375
vt 1 0.90625
vt 0.921875 0.90625
vt 0.921875 0.875
vt 1 0.875
vt 0.921875 0.84375
vt 1 0.84375
vt 1 0.875
vt 0.921875 0.875
vt 1 0.8125
vt 1 0.84375
vt 0.921875 0.84375
vt 0.921875 0.8125
vt 1 0.8125
vt 0.921875 0.8125
vt 0.921875 0.78125
vt 1 0.78125
vt 0.921875 0.78125
vt 0.921875 0.765625
vt 1 0.765625
vt 1 0.78125
vt 1 0.671875
vt 1 0.6875
vt 0.921875 0.6875
vt 0.921875 0.671875
vt 0.921875 0.640625
vt 1 0.640625
vt 1 0.671875
vt 0.921875 0.671875
vt 1 0.640625
vt 0.921875 0.640625
vt 0.921875 0.609375
vt 1 0.609375
vt 1 0.609375
vt 0.921875 0.609375
vt 0.921875 0.578125
vt 1 0.578125
vt 0.921875 0.546875
vt 0.921875 0.53125
vt 1 0.53125
vt 1 0.546875
vt 0.921875 0.546875
vt 1 0.546875
vt 1 0.578125
vt 0.921875 0.578125
vt 1 0.453125
vt 0.921875 0.453125
vt 0.921875 0.4375
vt 1 0.4375
vt 1 0.4375
vt 0.921875 0.4375
vt 0.921875 0.40625
vt 1 0.40625
vt 0.921875 0.40625
vt 0.921875 0.375
vt 1 0.375
vt 1 0.40625
vt 0.921875 0.34375
vt 1 0.34375
vt 1 0.375
vt 0.921875 0.375
vt 0.921875 0.3125
vt 1 0.3125
vt 1 0.34375
vt 0.921875 0.34375
vt 0.921875 0.3125
vt 0.921875 0.296875
vt 1 0.296875
vt 1 0.3125
vt 1 0.21875
vt 1 0.296875
vt 0.921875 0.296875
vt 0.921875 0.21875
vt 0.921875 0.21875
vt 0.921875 0.203125
vt 1 0.203125
vt 1 0.21875
vt 1 0.203125
vt 0.921875 0.203125
vt 0.921875 0.171875
vt 1 0.171875
vt 0.921875 0.171875
vt 0.921875 0.140625
vt 1 0.140625
vt 1 0.171875
vt 1 0.109375
vt 1 0.140625
vt 0.921875 0.140625
vt 0.921875 0.109375
vt 0.921875 0.078125
vt 1 0.078125
vt 1 0.109375
vt 0.921875 0.109375
vt 0.921875 0.078125
vt 0.921875 0.0625
vt 1 0.0625
vt 1 0.078125
vn -1 0 0
vn 1 0 0
vn 0 0 -1
vn 1 0 0
vn -0.9999670978256465 -0.008111921236929758 0
vn 0 -1 0
vn 0 0 -1
vn 0 1 0
vn -1 0 0
vn -1 0 0
vn -1 0 0
vn -1 0 0
vn 0.9999670978256465 -0.008111921236929758 0
vn 0.9999670978256465 0 -0.008111921236929758
vn 0.9999670978256465 0.008111921236929758 0
vn -0.9999670978256465 0 -0.008111921236929758
vn -0.9999670978256465 0.008111921236929758 0
vn -0.9999670978256465 0 0.008111921236929758
vn 1 0 0
vn 0.9999670978256465 0 0.008111921236929758
vn 1 0 0
vn 1 0 0
vn 0 1 0
vn 0 -0.006832829525783685 -0.9999766559478634
vn 0 0.9999766559478636 0.006832829525783685
vn 0 0 -1
vn 0 1 0
vn 0 -1 0
vn 0 0 -1
vn 0 -0.9999766559478634 0.006832829525783685
vn 0 0.006832829525783685 -0.9999766559478634
vn 0 0 -1
vn 0 -1 0
vn 0 0 1
vn 0 -1 0
vn 0 0.006832829525783685 0.9999766559478636
vn 0 -0.9999766559478634 -0.006832829525783685
vn 0 0 1
vn 0 -1 0
vn 0 0 1
vn 0 1 0
vn 0 0 1
vn 0 0.9999766559478636 -0.006832829525783685
vn 0 -0.006832829525783685 0.9999766559478636
vn 0 1 0
vn 0 0 1
usemtl none
f 81/273/69 82/274/69 83/275/69 84/276/69
f 85/277/70 86/278/70 87/279/70 88/280/70
f 89/281/71 90/282/71 91/283/71 92/284/71
f 93/285/72 94/286/72 95/287/72 96/288/72
f 97/289/73 84/290/73 83/291/73 98/292/73
f 99/293/74 94/294/74 93/295/74 100/296/74
f 101/297/75 102/298/75 103/299/75 104/300/75
f 105/301/76 106/302/76 91/303/76 90/304/76
f 100/305/77 107/306/77 108/307/77 99/308/77
f 109/309/78 110/310/78 111/311/78 112/312/78
f 90/313/79 89/314/79 113/315/79 105/316/79
f 103/317/80 102/318/80 114/319/80 115/320/80
f 116/321/81 87/322/81 86/323/81 117/324/81
f 118/325/82 88/326/82 87/327/82 119/328/82
f 120/329/83 85/330/83 88/331/83 121/332/83
f 122/333/84 83/334/84 82/335/84 123/336/84
f 124/337/85 82/338/85 81/339/85 125/340/85
f 126/341/86 81/342/86 84/343/86 127/344/86
f 91/345/87 106/346/87 128/347/87 92/348/87
f 129/349/88 86/350/88 85/351/88 130/352/88
f 131/353/89 132/354/89 133/355/89 134/356/89
f 101/357/90 104/358/90 135/359/90 136/360/90
f 121/361/91 124/362/91 89/363/91 92/364/91
f 88/365/92 82/366/92 124/367/92 121/368/92
f 88/369/93 118/370/93 123/371/93 82/372/93
f 123/373/94 118/374/94 135/375/94 115/376/94
f 103/377/95 115/378/95 135/379/95 104/380/95
f 101/381/96 136/382/96 114/383/96 102/384/96
f 119/385/97 122/386/97 114/387/97 136/388/97
f 87/389/98 83/390/98 122/391/98 119/392/98
f 83/393/99 87/394/99 116/395/99 98/396/99
f 95/397/100 94/398/100 99/399/100 108/400/100
f 98/401/101 116/402/101 95/403/101 108/404/101
f 96/405/102 107/406/102 100/407/102 93/408/102
f 117/409/103 97/410/103 107/411/103 96/412/103
f 84/413/104 97/414/104 117/415/104 86/416/104
f 84/417/105 86/418/105 129/419/105 127/420/105
f 127/421/106 129/422/106 133/423/106 111/424/106
f 112/425/107 111/426/107 133/427/107 132/428/107
f 132/429/108 131/430/108 109/431/108 112/432/108
f 110/433/109 109/434/109 131/435/109 134/436/109
f 130/437/110 126/438/110 110/439/110 134/440/110
f 81/441/111 126/442/111 130/443/111 85/444/111
f 85/445/112 120/446/112 125/447/112 81/448/112
f 125/449/113 120/450/113 128/451/113 113/452/113
f 105/453/114 113/454/114 128/455/114 106/456/114
o #translucent_mudAcc_rim
v 0.189301 -0.158051 -0.220551
v 0.189301 0.158051 -0.220551
v 0.190322 0.157191 -0.157191
v 0.190322 -0.157191 -0.157191
v -0.189301 -0.220551 -0.158051
v -0.189301 -0.220551 0.158051
v -0.190322 -0.157191 0.157191
v -0.190322 -0.157191 -0.157191
v -0.189301 -0.158051 0.220551
v -0.189301 0.158051 0.220551
v -0.190322 0.157191 0.157191
v -0.189301 -0.158051 -0.220551
v 0.189301 0.220551 0.158051
v 0.189301 0.220551 -0.158051
v -0.189301 0.220551 -0.158051
v -0.189301 0.220551 0.158051
v -0.190322 0.157191 -0.157191
v -0.189301 0.158051 -0.220551
v 0.189301 -0.220551 -0.158051
v 0.189301 -0.220551 0.158051
v 0.190322 -0.157191 0.157191
v 0.189301 -0.158051 0.220551
v 0.189301 0.158051 0.220551
v 0.190322 0.157191 0.157191
vt 0.8125 0.609375
vt 0.8125 0.6875
vt 0.796875 0.6875
vt 0.796875 0.609375
vt 0.71875 0.828125
vt 0.796875 0.828125
vt 0.796875 0.84375
vt 0.71875 0.84375
vt 0.8125 0.84375
vt 0.8125 0.921875
vt 0.796875 0.921875
vt 0.796875 0.84375
vt 0.8125 0.1875
vt 0.8125 0.203125
vt 0.71875 0.203125
vt 0.71875 0.1875
vt 0.8125 0.421875
vt 0.8125 0.5
vt 0.71875 0.5
vt 0.71875 0.421875
vt 0.8125 0.09375
vt 0.71875 0.09375
vt 0.71875 0.078125
vt 0.8125 0.078125
vt 0.71875 0.109375
vt 0.8125 0.109375
vt 0.8125 0.1875
vt 0.71875 0.1875
vt 0.796875 0.9375
vt 0.71875 0.9375
vt 0.71875 0.921875
vt 0.796875 0.921875
vt 0.703125 0.921875
vt 0.703125 0.84375
vt 0.71875 0.84375
vt 0.71875 0.921875
vt 0.71875 0.21875
vt 0.71875 0.203125
vt 0.8125 0.203125
vt 0.8125 0.21875
vt 0.71875 0.21875
vt 0.8125 0.21875
vt 0.8125 0.296875
vt 0.71875 0.296875
vt 0.8125 0.296875
vt 0.8125 0.3125
vt 0.71875 0.3125
vt 0.71875 0.296875
vt 0.71875 0.3125
vt 0.8125 0.3125
vt 0.8125 0.328125
vt 0.71875 0.328125
vt 0.71875 0.40625
vt 0.71875 0.328125
vt 0.8125 0.328125
vt 0.8125 0.40625
vt 0.8125 0.40625
vt 0.8125 0.421875
vt 0.71875 0.421875
vt 0.71875 0.40625
vt 0.8125 0.5
vt 0.8125 0.515625
vt 0.71875 0.515625
vt 0.71875 0.5
vt 0.8125 0.09375
vt 0.8125 0.109375
vt 0.71875 0.109375
vt 0.71875 0.09375
vt 0.796875 0.84375
vt 0.796875 0.921875
vt 0.71875 0.921875
vt 0.71875 0.84375
vt 0.71875 0.59375
vt 0.796875 0.59375
vt 0.796875 0.609375
vt 0.71875 0.609375
vt 0.703125 0.6875
vt 0.703125 0.609375
vt 0.71875 0.609375
vt 0.71875 0.6875
vt 0.796875 0.703125
vt 0.71875 0.703125
vt 0.71875 0.6875
vt 0.796875 0.6875
vt 0.796875 0.609375
vt 0.796875 0.6875
vt 0.71875 0.6875
vt 0.71875 0.609375
vn 0.9998701904687678 0 -0.01611217589123431
vn -0.9998701904687678 -0.01611217589123431 0
vn -0.9998701904687678 0 0.01611217589123431
vn 0 -0.99990789640832 0.01357198217978464
vn 0 1 0
vn 0 -0.013571982179784638 -0.99990789640832
vn 0 0 -1
vn -0.9998701904687678 0.01611217589123431 0
vn -0.9998701904687678 0 -0.01611217589123431
vn 0 0.013571982179784644 -0.99990789640832
vn 0 -1 0
vn 0 0.01357198217978464 0.99990789640832
vn 0 -0.99990789640832 -0.01357198217978464
vn 0 0 1
vn 0 0.99990789640832 -0.01357198217978464
vn 0 -0.013571982179784644 0.99990789640832
vn 0 0.99990789640832 0.013571982179784644
vn -1 0 0
vn 0.9998701904687678 -0.01611217589123431 0
vn 0.9998701904687678 0 0.01611217589123431
vn 0.9998701904687678 0.01611217589123431 0
vn 1 0 0
usemtl none
f 137/457/115 138/458/115 139/459/115 140/460/115
f 141/461/116 142/462/116 143/463/116 144/464/116
f 145/465/117 146/466/117 147/467/117 143/468/117
f 137/469/118 140/470/118 144/471/118 148/472/118
f 149/473/119 150/474/119 151/475/119 152/476/119
f 151/477/120 150/478/120 139/479/120 153/480/120
f 137/481/121 148/482/121 154/483/121 138/484/121
f 152/485/122 151/486/122 153/487/122 147/488/122
f 154/489/123 148/490/123 144/491/123 153/492/123
f 140/493/124 155/494/124 141/495/124 144/496/124
f 141/497/125 155/498/125 156/499/125 142/500/125
f 156/501/126 157/502/126 143/503/126 142/504/126
f 143/505/127 157/506/127 158/507/127 145/508/127
f 146/509/128 145/510/128 158/511/128 159/512/128
f 159/513/129 160/514/129 147/515/129 146/516/129
f 160/517/130 149/518/130 152/519/130 147/520/130
f 139/521/131 138/522/131 154/523/131 153/524/131
f 143/525/132 147/526/132 153/527/132 144/528/132
f 156/529/133 155/530/133 140/531/133 157/532/133
f 159/533/134 158/534/134 157/535/134 160/536/134
f 150/537/135 149/538/135 160/539/135 139/540/135
f 140/541/136 139/542/136 160/543/136 157/544/136