# Blender v2.79 (sub 0) OBJ File: ''
# www.blender.org
mtllib ndb_top.mtl
o bodyModel
v -1.000000 0.187500 0.437500
v -0.437500 0.187500 0.437500
v -0.437500 0.187500 -0.437500
v -1.000000 0.187500 -0.437500
v -1.000000 0.000000 -0.437500
v -0.437500 0.000000 -0.437500
v -0.437500 -0.000000 0.437500
v -1.000000 -0.000000 0.437500
v -0.437500 0.187500 1.000000
v 0.437500 0.187500 1.000000
v 0.437500 0.187500 0.437500
v -0.437500 0.187500 0.437500
v -0.437500 -0.000000 0.437500
v 0.437500 -0.000000 0.437500
v 0.437500 -0.000000 1.000000
v -0.437500 -0.000000 1.000000
v -0.437500 0.187500 -0.437500
v 0.437500 0.187500 -0.437500
v 0.437500 0.187500 -1.000000
v -0.437500 0.187500 -1.000000
v -0.437500 0.000000 -1.000000
v 0.437500 0.000000 -1.000000
v 0.437500 0.000000 -0.437500
v -0.437500 0.000000 -0.437500
v -1.000000 0.187500 0.437500
v -0.437500 0.187500 1.000000
v -0.437500 0.187500 0.437500
v -1.000000 0.187500 0.437500
v -1.000000 -0.000000 0.437500
v -0.437500 -0.000000 0.437500
v -0.437500 -0.000000 1.000000
v -1.000000 -0.000000 0.437500
v -1.000000 0.187500 -0.437500
v -0.437500 0.187500 -0.437500
v -0.437500 0.187500 -1.000000
v -1.000000 0.187500 -0.437500
v -1.000000 0.000000 -0.437500
v -0.437500 0.000000 -1.000000
v -0.437500 0.000000 -0.437500
v -1.000000 0.000000 -0.437500
v 0.437500 0.187500 -0.437500
v 1.000000 0.187500 -0.437500
v 1.000000 0.187500 -0.437500
v 0.437500 0.187500 -1.000000
v 0.437500 0.000000 -1.000000
v 1.000000 0.000000 -0.437500
v 1.000000 0.000000 -0.437500
v 0.437500 0.000000 -0.437500
v 0.437500 0.187500 1.000000
v 1.000000 0.187500 0.437500
v 1.000000 0.187500 0.437500
v 0.437500 0.187500 0.437500
v 0.437500 -0.000000 0.437500
v 1.000000 -0.000000 0.437500
v 1.000000 -0.000000 0.437500
v 0.437500 -0.000000 1.000000
v -0.437500 1.187500 0.437500
v 0.437500 1.187500 0.437500
v 0.437500 1.187500 -0.437500
v -0.437500 1.187500 -0.437500
v -0.437500 1.000000 -0.437500
v 0.437500 1.000000 -0.437500
v 0.437500 1.000000 0.437500
v -0.437500 1.000000 0.437500
v -0.437500 1.000000 0.437500
v -0.437500 1.000000 0.437500
v -0.437500 1.000000 -0.437500
v -0.437500 1.000000 -0.437500
v -1.000000 0.187500 -0.437500
v -0.437500 0.187500 -0.437500
v -0.437500 0.187500 0.437500
v -1.000000 0.187500 0.437500
v -0.437500 1.000000 -0.437500
v 0.437500 1.000000 -0.437500
v 0.437500 1.000000 -0.437500
v -0.437500 1.000000 -0.437500
v -0.437500 0.187500 -1.000000
v 0.437500 0.187500 -1.000000
v 0.437500 0.187500 -0.437500
v -0.437500 0.187500 -0.437500
v 0.437500 1.000000 0.437500
v 0.437500 1.000000 0.437500
v 0.437500 1.000000 -0.437500
v 0.437500 1.000000 -0.437500
v 0.437500 0.187500 -0.437500
v 1.000000 0.187500 -0.437500
v 1.000000 0.187500 0.437500
v 0.437500 0.187500 0.437500
v -0.437500 1.000000 0.437500
v 0.437500 1.000000 0.437500
v 0.437500 1.000000 0.437500
v -0.437500 1.000000 0.437500
v -0.437500 0.187500 0.437500
v 0.437500 0.187500 0.437500
v 0.437500 0.187500 1.000000
v -0.437500 0.187500 1.000000
v -0.437500 1.000000 0.437500
v -0.437500 1.000000 0.437500
v -0.437500 1.000000 0.437500
v -0.437500 1.000000 0.437500
v -1.000000 0.187500 0.437500
v -0.437500 0.187500 0.437500
v -0.437500 0.187500 1.000000
v -1.000000 0.187500 0.437500
v -0.437500 1.000000 -0.437500
v -0.437500 1.000000 -0.437500
v -0.437500 1.000000 -0.437500
v -0.437500 1.000000 -0.437500
v -0.437500 0.187500 -1.000000
v -0.437500 0.187500 -1.000000
v -0.437500 0.187500 -0.437500
v -1.000000 0.187500 -0.437500
v 0.437500 1.000000 -0.437500
v 0.437500 1.000000 -0.437500
v 0.437500 1.000000 -0.437500
v 0.437500 1.000000 -0.437500
v 0.437500 0.187500 -1.000000
v 1.000000 0.187500 -0.437500
v 1.000000 0.187500 -0.437500
v 0.437500 0.187500 -0.437500
v 0.437500 1.000000 0.437500
v 0.437500 1.000000 0.437500
v 0.437500 1.000000 0.437500
v 0.437500 1.000000 0.437500
v 0.437500 0.187500 0.437500
v 1.000000 0.187500 0.437500
v 0.437500 0.187500 1.000000
v 0.437500 0.187500 1.000000
v 0.437500 0.187500 0.437500
v 1.000000 0.187500 0.437500
v 1.000000 0.187500 -0.437500
v 0.437500 0.187500 -0.437500
v 0.437500 0.000000 -0.437500
v 1.000000 0.000000 -0.437500
v 1.000000 -0.000000 0.437500
v 0.437500 -0.000000 0.437500
v -0.437500 0.187500 0.437500
v 0.437500 0.187500 0.437500
v 0.437500 0.187500 -0.437500
v -0.437500 0.187500 -0.437500
v -0.437500 0.000000 -0.437500
v 0.437500 0.000000 -0.437500
v 0.437500 -0.000000 0.437500
v -0.437500 -0.000000 0.437500
vt 1.343750 0.078125
vt 1.484375 0.078125
vt 1.484375 0.296875
vt 1.343750 0.296875
vt 1.484375 0.078125
vt 1.625000 0.078125
vt 1.625000 0.296875
vt 1.484375 0.296875
vt 1.343750 0.031250
vt 1.484375 0.031250
vt 1.843750 0.078125
vt 1.703125 0.078125
vt 1.703125 0.031250
vt 1.843750 0.031250
vt 1.125000 0.078125
vt 1.125000 0.031250
vt 1.281250 0.078125
vt 1.500000 0.078125
vt 1.500000 0.218750
vt 1.281250 0.218750
vt 1.500000 0.078125
vt 1.718750 0.078125
vt 1.718750 0.218750
vt 1.500000 0.218750
vt 1.281250 0.031250
vt 1.500000 0.031250
vt 1.859375 0.078125
vt 1.640625 0.078125
vt 1.640625 0.031250
vt 1.859375 0.031250
vt 1.140625 0.078125
vt 1.140625 0.031250
vt 1.250000 0.078125
vt 1.468750 0.078125
vt 1.468750 0.218750
vt 1.250000 0.218750
vt 1.468750 0.078125
vt 1.687500 0.078125
vt 1.687500 0.218750
vt 1.468750 0.218750
vt 1.250000 0.031250
vt 1.468750 0.031250
vt 1.828125 0.078125
vt 1.609375 0.078125
vt 1.609375 0.031250
vt 1.828125 0.031250
vt 1.109375 0.078125
vt 1.109375 0.031250
vt 1.343750 0.078125
vt 1.484375 0.078125
vt 1.484375 0.218750
vt 1.343750 0.218750
vt 1.484375 0.078125
vt 1.625000 0.078125
vt 1.625000 0.218750
vt 1.484375 0.218750
vt 1.343750 0.031250
vt 1.484375 0.031250
vt 1.765625 0.078125
vt 1.625000 0.078125
vt 1.625000 0.031250
vt 1.765625 0.031250
vt 1.203125 0.078125
vt 1.203125 0.031250
vt 1.359375 0.078125
vt 1.500000 0.078125
vt 1.500000 0.218750
vt 1.359375 0.218750
vt 1.500000 0.078125
vt 1.640625 0.078125
vt 1.640625 0.218750
vt 1.500000 0.218750
vt 1.359375 0.031250
vt 1.500000 0.031250
vt 1.781250 0.078125
vt 1.640625 0.078125
vt 1.640625 0.031250
vt 1.781250 0.031250
vt 1.218750 0.078125
vt 1.218750 0.031250
vt 1.281250 0.109375
vt 1.421875 0.109375
vt 1.421875 0.250000
vt 1.281250 0.250000
vt 1.421875 0.109375
vt 1.562500 0.109375
vt 1.562500 0.250000
vt 1.421875 0.250000
vt 1.281250 0.062500
vt 1.421875 0.062500
vt 1.703125 0.109375
vt 1.562500 0.109375
vt 1.562500 0.062500
vt 1.703125 0.062500
vt 1.140625 0.109375
vt 1.140625 0.062500
vt 1.328125 0.093750
vt 1.468750 0.093750
vt 1.468750 0.234375
vt 1.328125 0.234375
vt 1.468750 0.093750
vt 1.609375 0.093750
vt 1.609375 0.234375
vt 1.468750 0.234375
vt 1.328125 0.046875
vt 1.468750 0.046875
vt 1.750000 0.093750
vt 1.609375 0.093750
vt 1.609375 0.046875
vt 1.750000 0.046875
vt 1.187500 0.093750
vt 1.187500 0.046875
vt 1.265625 0.078125
vt 1.484375 0.078125
vt 1.484375 0.296875
vt 1.265625 0.296875
vt 1.484375 0.078125
vt 1.703125 0.078125
vt 1.703125 0.296875
vt 1.484375 0.296875
vt 1.265625 0.031250
vt 1.484375 0.031250
vt 1.921875 0.078125
vt 1.703125 0.078125
vt 1.703125 0.031250
vt 1.921875 0.031250
vt 1.046875 0.078125
vt 1.046875 0.031250
vt 1.390625 0.703125
vt 1.531250 0.703125
vt 1.531250 0.921875
vt 1.390625 0.921875
vt 1.531250 0.703125
vt 1.671875 0.703125
vt 1.671875 0.921875
vt 1.531250 0.921875
vt 1.390625 0.500000
vt 1.531250 0.500000
vt 1.890625 0.703125
vt 1.750000 0.703125
vt 1.750000 0.500000
vt 1.890625 0.500000
vt 1.171875 0.703125
vt 1.171875 0.500000
vt 1.296875 0.703125
vt 1.515625 0.703125
vt 1.515625 0.843750
vt 1.296875 0.843750
vt 1.515625 0.703125
vt 1.734375 0.703125
vt 1.734375 0.843750
vt 1.515625 0.843750
vt 1.296875 0.500000
vt 1.515625 0.500000
vt 1.875000 0.703125
vt 1.656250 0.703125
vt 1.656250 0.500000
vt 1.875000 0.500000
vt 1.156250 0.703125
vt 1.156250 0.500000
vt 1.375000 0.687500
vt 1.515625 0.687500
vt 1.515625 0.906250
vt 1.375000 0.906250
vt 1.515625 0.687500
vt 1.656250 0.687500
vt 1.656250 0.906250
vt 1.515625 0.906250
vt 1.375000 0.484375
vt 1.515625 0.484375
vt 1.875000 0.687500
vt 1.734375 0.687500
vt 1.734375 0.484375
vt 1.875000 0.484375
vt 1.156250 0.687500
vt 1.156250 0.484375
vt 1.296875 0.718750
vt 1.515625 0.718750
vt 1.515625 0.859375
vt 1.296875 0.859375
vt 1.515625 0.718750
vt 1.734375 0.718750
vt 1.734375 0.859375
vt 1.515625 0.859375
vt 1.296875 0.515625
vt 1.515625 0.515625
vt 1.875000 0.718750
vt 1.656250 0.718750
vt 1.656250 0.515625
vt 1.875000 0.515625
vt 1.156250 0.718750
vt 1.156250 0.515625
vt 1.359375 0.718750
vt 1.500000 0.718750
vt 1.500000 0.859375
vt 1.359375 0.859375
vt 1.500000 0.718750
vt 1.640625 0.718750
vt 1.640625 0.859375
vt 1.500000 0.859375
vt 1.359375 0.515625
vt 1.500000 0.515625
vt 1.781250 0.718750
vt 1.640625 0.718750
vt 1.640625 0.515625
vt 1.781250 0.515625
vt 1.218750 0.718750
vt 1.218750 0.515625
vt 1.359375 0.718750
vt 1.500000 0.718750
vt 1.500000 0.859375
vt 1.359375 0.859375
vt 1.500000 0.718750
vt 1.640625 0.718750
vt 1.640625 0.859375
vt 1.500000 0.859375
vt 1.359375 0.515625
vt 1.500000 0.515625
vt 1.781250 0.718750
vt 1.640625 0.718750
vt 1.640625 0.515625
vt 1.781250 0.515625
vt 1.218750 0.718750
vt 1.218750 0.515625
vt 1.359375 0.718750
vt 1.500000 0.718750
vt 1.500000 0.859375
vt 1.359375 0.859375
vt 1.500000 0.718750
vt 1.640625 0.718750
vt 1.640625 0.859375
vt 1.500000 0.859375
vt 1.359375 0.515625
vt 1.500000 0.515625
vt 1.781250 0.718750
vt 1.640625 0.718750
vt 1.640625 0.515625
vt 1.781250 0.515625
vt 1.218750 0.718750
vt 1.218750 0.515625
vt 1.359375 0.718750
vt 1.500000 0.718750
vt 1.500000 0.859375
vt 1.359375 0.859375
vt 1.500000 0.718750
vt 1.640625 0.718750
vt 1.640625 0.859375
vt 1.500000 0.859375
vt 1.359375 0.515625
vt 1.500000 0.515625
vt 1.781250 0.718750
vt 1.640625 0.718750
vt 1.640625 0.515625
vt 1.781250 0.515625
vt 1.218750 0.718750
vt 1.218750 0.515625
vt 1.343750 0.078125
vt 1.484375 0.078125
vt 1.484375 0.296875
vt 1.343750 0.296875
vt 1.484375 0.078125
vt 1.625000 0.078125
vt 1.625000 0.296875
vt 1.484375 0.296875
vt 1.343750 0.031250
vt 1.484375 0.031250
vt 1.843750 0.078125
vt 1.703125 0.078125
vt 1.703125 0.031250
vt 1.843750 0.031250
vt 1.125000 0.078125
vt 1.125000 0.031250
vt 1.265625 0.078125
vt 1.484375 0.078125
vt 1.484375 0.296875
vt 1.265625 0.296875
vt 1.484375 0.078125
vt 1.703125 0.078125
vt 1.703125 0.296875
vt 1.484375 0.296875
vt 1.265625 0.031250
vt 1.484375 0.031250
vt 1.921875 0.078125
vt 1.703125 0.078125
vt 1.703125 0.031250
vt 1.921875 0.031250
vt 1.046875 0.078125
vt 1.046875 0.031250
vn 0.0000 1.0000 0.0000
vn 0.0000 -1.0000 -0.0000
vn 0.0000 -0.0000 1.0000
vn 0.0000 0.0000 -1.0000
vn 1.0000 0.0000 0.0000
vn -1.0000 0.0000 0.0000
vn -0.7071 -0.0000 0.7071
vn -0.7071 0.0000 -0.7071
vn 0.7071 0.0000 -0.7071
vn 0.7071 -0.0000 0.7071
vn -0.8222 0.5692 0.0000
vn 0.0000 0.5692 -0.8222
vn 0.8222 0.5692 0.0000
vn 0.0000 0.5692 0.8222
vn -0.6351 0.4397 0.6351
vn -0.6351 0.4397 -0.6351
vn 0.6351 0.4397 -0.6351
vn 0.6351 0.4397 0.6351
usemtl ModelMaterial
s off
f 1/1/1 2/2/1 3/3/1 4/4/1
f 5/5/2 6/6/2 7/7/2 8/8/2
f 2/2/3 1/1/3 8/9/3 7/10/3
f 4/11/4 3/12/4 6/13/4 5/14/4
f 3/12/5 2/2/5 7/10/5 6/13/5
f 1/1/6 4/15/6 5/16/6 8/9/6
f 9/17/1 10/18/1 11/19/1 12/20/1
f 13/21/2 14/22/2 15/23/2 16/24/2
f 10/18/3 9/17/3 16/25/3 15/26/3
f 12/27/4 11/28/4 14/29/4 13/30/4
f 11/28/5 10/18/5 15/26/5 14/29/5
f 9/17/6 12/31/6 13/32/6 16/25/6
f 17/33/1 18/34/1 19/35/1 20/36/1
f 21/37/2 22/38/2 23/39/2 24/40/2
f 18/34/3 17/33/3 24/41/3 23/42/3
f 20/43/4 19/44/4 22/45/4 21/46/4
f 19/44/5 18/34/5 23/42/5 22/45/5
f 17/33/6 20/47/6 21/48/6 24/41/6
f 25/49/1 26/50/1 27/51/1 28/52/1
f 29/53/2 30/54/2 31/55/2 32/56/2
f 26/50/7 25/49/7 32/57/7 31/58/7
f 28/59/4 27/60/4 30/61/4 29/62/4
f 27/60/5 26/50/5 31/58/5 30/61/5
f 25/49/3 28/63/3 29/64/3 32/57/3
f 33/65/1 34/66/1 35/67/1 36/68/1
f 37/69/2 38/70/2 39/71/2 40/72/2
f 34/66/3 33/65/3 40/73/3 39/74/3
f 36/75/8 35/76/8 38/77/8 37/78/8
f 35/76/5 34/66/5 39/74/5 38/77/5
f 33/65/3 36/79/3 37/80/3 40/73/3
f 41/81/1 42/82/1 43/83/1 44/84/1
f 45/85/2 46/86/2 47/87/2 48/88/2
f 42/82/3 41/81/3 48/89/3 47/90/3
f 44/91/9 43/92/9 46/93/9 45/94/9
f 43/92/3 42/82/3 47/90/3 46/93/3
f 41/81/6 44/95/6 45/96/6 48/89/6
f 49/97/1 50/98/1 51/99/1 52/100/1
f 53/101/2 54/102/2 55/103/2 56/104/2
f 50/98/10 49/97/10 56/105/10 55/106/10
f 52/107/4 51/108/4 54/109/4 53/110/4
f 51/108/3 50/98/3 55/106/3 54/109/3
f 49/97/6 52/111/6 53/112/6 56/105/6
f 57/113/1 58/114/1 59/115/1 60/116/1
f 61/117/2 62/118/2 63/119/2 64/120/2
f 58/114/3 57/113/3 64/121/3 63/122/3
f 60/123/4 59/124/4 62/125/4 61/126/4
f 59/124/5 58/114/5 63/122/5 62/125/5
f 57/113/6 60/127/6 61/128/6 64/121/6
f 65/129/3 66/130/3 67/131/3 68/132/3
f 69/133/2 70/134/2 71/135/2 72/136/2
f 66/130/3 65/129/3 72/137/3 71/138/3
f 68/139/4 67/140/4 70/141/4 69/142/4
f 67/140/5 66/130/5 71/138/5 70/141/5
f 65/129/11 68/143/11 69/144/11 72/137/11
f 73/145/3 74/146/3 75/147/3 76/148/3
f 77/149/2 78/150/2 79/151/2 80/152/2
f 74/146/3 73/145/3 80/153/3 79/154/3
f 76/155/12 75/156/12 78/157/12 77/158/12
f 75/156/5 74/146/5 79/154/5 78/157/5
f 73/145/6 76/159/6 77/160/6 80/153/6
f 81/161/3 82/162/3 83/163/3 84/164/3
f 85/165/2 86/166/2 87/167/2 88/168/2
f 82/162/3 81/161/3 88/169/3 87/170/3
f 84/171/4 83/172/4 86/173/4 85/174/4
f 83/172/13 82/162/13 87/170/13 86/173/13
f 81/161/6 84/175/6 85/176/6 88/169/6
f 89/177/3 90/178/3 91/179/3 92/180/3
f 93/181/2 94/182/2 95/183/2 96/184/2
f 90/178/14 89/177/14 96/185/14 95/186/14
f 92/187/4 91/188/4 94/189/4 93/190/4
f 91/188/5 90/178/5 95/186/5 94/189/5
f 89/177/6 92/191/6 93/192/6 96/185/6
f 97/193/3 98/194/3 99/195/3 100/196/3
f 101/197/2 102/198/2 103/199/2 104/200/2
f 98/194/15 97/193/15 104/201/15 103/202/15
f 100/203/4 99/204/4 102/205/4 101/206/4
f 99/204/5 98/194/5 103/202/5 102/205/5
f 97/193/3 100/207/3 101/208/3 104/201/3
f 105/209/3 106/210/3 107/211/3 108/212/3
f 109/213/2 110/214/2 111/215/2 112/216/2
f 106/210/3 105/209/3 112/217/3 111/218/3
f 108/219/3 107/220/3 110/221/3 109/222/3
f 107/220/5 106/210/5 111/218/5 110/221/5
f 105/209/16 108/223/16 109/224/16 112/217/16
f 113/225/3 114/226/3 115/227/3 116/228/3
f 117/229/2 118/230/2 119/231/2 120/232/2
f 114/226/3 113/225/3 120/233/3 119/234/3
f 116/235/17 115/236/17 118/237/17 117/238/17
f 115/236/3 114/226/3 119/234/3 118/237/3
f 113/225/6 116/239/6 117/240/6 120/233/6
f 121/241/3 122/242/3 123/243/3 124/244/3
f 125/245/2 126/246/2 127/247/2 128/248/2
f 122/242/3 121/241/3 128/249/3 127/250/3
f 124/251/4 123/252/4 126/253/4 125/254/4
f 123/252/18 122/242/18 127/250/18 126/253/18
f 121/241/6 124/255/6 125/256/6 128/249/6
f 129/257/1 130/258/1 131/259/1 132/260/1
f 133/261/2 134/262/2 135/263/2 136/264/2
f 130/258/3 129/257/3 136/265/3 135/266/3
f 132/267/4 131/268/4 134/269/4 133/270/4
f 131/268/5 130/258/5 135/266/5 134/269/5
f 129/257/6 132/271/6 133/272/6 136/265/6
f 137/273/1 138/274/1 139/275/1 140/276/1
f 141/277/2 142/278/2 143/279/2 144/280/2
f 138/274/3 137/273/3 144/281/3 143/282/3
f 140/283/4 139/284/4 142/285/4 141/286/4
f 139/284/5 138/274/5 143/282/5 142/285/5
f 137/273/6 140/287/6 141/288/6 144/281/6
