# Blender v2.79 (sub 0) OBJ File: ''
# www.blender.org
mtllib fluidloader.mtl
o pole.006_pole.016
v 0.750000 0.875000 -0.000000
v 0.750000 1.000000 -0.000000
v 0.750000 1.000000 0.625000
v 0.750000 0.875000 0.625000
v 0.625000 0.875000 0.625000
v 0.625000 1.000000 0.625000
v 0.625000 1.000000 -0.000000
v 0.625000 0.875000 -0.000000
vt 0.437500 1.000000
vt 0.421875 1.000000
vt 0.421875 0.843750
vt 0.437500 0.843750
vt 0.390625 0.843750
vt 0.406250 0.843750
vt 0.406250 1.000000
vt 0.390625 1.000000
vt 0.375000 0.843750
vt 0.375000 1.000000
vn 1.0000 -0.0000 -0.0000
vn -1.0000 -0.0000 0.0000
vn 0.0000 -1.0000 0.0000
vn -0.0000 1.0000 -0.0000
usemtl None
s 1
f 1/1/1 2/2/1 3/3/1 4/4/1
f 5/5/2 6/6/2 7/7/2 8/8/2
f 4/9/3 5/5/3 8/8/3 1/10/3
f 6/6/4 3/3/4 2/2/4 7/7/4
o pole.004_pole.012
v 0.750000 -0.000000 -0.125000
v 0.750000 1.000000 -0.125000
v 0.750000 1.000000 -0.000000
v 0.750000 0.000000 -0.000000
v 0.625000 1.000000 -0.000000
v 0.625000 0.000000 -0.000000
v 0.625000 1.000000 -0.125000
v 0.625000 -0.000000 -0.125000
vt 0.343750 0.718750
vt 0.343750 0.968750
vt 0.328125 0.968750
vt 0.328125 0.718750
vt 0.312500 0.968750
vt 0.312500 0.718750
vt 0.375000 0.718750
vt 0.375000 0.968750
vt 0.359375 0.968750
vt 0.359375 0.718750
vt 0.328125 1.000000
vt 0.343750 1.000000
vn 1.0000 -0.0000 0.0000
vn 0.0000 0.0000 1.0000
vn -1.0000 0.0000 0.0000
vn -0.0000 -0.0000 -1.0000
vn 0.0000 1.0000 0.0000
usemtl None
s 1
f 9/11/5 10/12/5 11/13/5 12/14/5
f 12/14/6 11/13/6 13/15/6 14/16/6
f 14/17/7 13/18/7 15/19/7 16/20/7
f 16/20/8 15/19/8 10/12/8 9/11/8
f 13/21/9 11/13/9 10/12/9 15/22/9
o hopper
v 0.875000 1.032893 -0.875000
v 0.875000 2.000000 -0.875000
v 0.875000 2.000000 -0.125000
v 0.875000 1.032893 -0.125000
v 0.125000 2.000000 -0.125000
v 0.125000 1.032893 -0.125000
v 0.125000 2.000000 -0.875000
v 0.125000 1.032893 -0.875000
v 0.375000 0.720393 -0.375000
v 0.375000 0.720393 -0.625000
v 0.375000 0.407893 -0.625000
v 0.375000 0.407893 -0.375000
v 0.625000 0.720393 -0.375000
v 0.625000 0.720393 -0.625000
v 0.625000 0.407893 -0.375000
v 0.625000 0.407893 -0.625000
vt 0.914062 0.375000
vt 0.789062 0.375000
vt 0.789062 0.187500
vt 0.914062 0.187500
vt 0.789062 -0.000000
vt 0.914062 -0.000000
vt 0.914062 0.750000
vt 0.789062 0.750000
vt 0.789062 0.562500
vt 0.914062 0.562500
vt 0.960938 0.687500
vt 0.960938 0.625000
vt 1.000000 0.625000
vt 1.000000 0.687500
vt 0.960938 0.250000
vt 0.960938 0.312500
vt 0.960938 0.062500
vt 0.960938 0.125000
vt 0.960938 0.437500
vt 0.960938 0.500000
vt 1.000000 0.375000
vt 1.000000 0.437500
vt 0.968750 0.437500
vt 0.968750 0.375000
vt 1.000000 0.250000
vt 1.000000 0.312500
vt 1.000000 0.437500
vt 1.000000 0.500000
vt 1.000000 0.062500
vt 1.000000 0.125000
vt 0.695312 0.562500
vt 0.695312 0.375000
vn 1.0000 0.0000 -0.0000
vn 0.0000 0.0000 1.0000
vn -1.0000 -0.0000 0.0000
vn -0.0000 -0.0000 -1.0000
vn 0.7809 -0.6247 0.0000
vn 0.0000 -0.6247 0.7809
vn -0.7809 -0.6247 0.0000
vn -0.0000 -0.6247 -0.7809
vn 0.0000 -1.0000 0.0000
vn -0.0000 1.0000 -0.0000
usemtl None
s 1
f 17/23/10 18/24/10 19/25/10 20/26/10
f 20/26/11 19/25/11 21/27/11 22/28/11
f 22/29/12 21/30/12 23/31/12 24/32/12
f 25/33/12 26/34/12 27/35/12 28/36/12
f 24/32/13 23/31/13 18/24/13 17/23/13
f 29/37/14 30/38/14 17/23/14 20/26/14
f 25/39/15 29/40/15 20/26/15 22/28/15
f 26/34/16 25/33/16 22/29/16 24/32/16
f 30/41/17 26/42/17 24/32/17 17/23/17
f 31/43/18 28/44/18 27/45/18 32/46/18
f 30/38/10 29/37/10 31/47/10 32/48/10
f 26/42/13 30/41/13 32/49/13 27/50/13
f 29/40/11 25/39/11 28/51/11 31/52/11
f 18/24/19 23/31/19 21/53/19 19/54/19
o piston.001
v 0.062500 0.316721 0.531314
v 0.062500 0.778661 0.339972
v 0.062500 0.826497 0.455457
v 0.062500 0.364557 0.646799
v -0.062500 0.826497 0.455457
v -0.062500 0.364557 0.646799
v -0.062500 0.778661 0.339972
v -0.062500 0.316721 0.531314
vt 0.953125 0.843750
vt 0.953125 0.968750
vt 0.937500 0.968750
vt 0.937500 0.843750
vt 0.921875 0.968750
vt 0.921875 0.843750
vt 0.906250 0.968750
vt 0.906250 0.843750
vt 0.968750 0.843750
vt 0.968750 0.968750
vt 0.921875 0.812500
vt 0.937500 0.812500
vt 0.937500 1.000000
vt 0.921875 1.000000
vn 1.0000 -0.0000 -0.0000
vn 0.0000 0.3827 0.9239
vn -1.0000 0.0000 0.0000
vn 0.0000 -0.3827 -0.9239
vn 0.0000 -0.9239 0.3827
vn -0.0000 0.9239 -0.3827
usemtl None
s 1
f 33/55/20 34/56/20 35/57/20 36/58/20
f 36/58/21 35/57/21 37/59/21 38/60/21
f 38/60/22 37/59/22 39/61/22 40/62/22
f 40/63/23 39/64/23 34/56/23 33/55/23
f 36/58/24 38/60/24 40/65/24 33/66/24
f 37/59/25 35/57/25 34/67/25 39/68/25
o head
v 0.187500 2.566576 2.148406
v 0.187500 3.316576 2.148406
v 0.187500 3.316576 2.523406
v 0.187500 2.566576 2.523406
v -0.187500 3.316576 2.523406
v -0.187500 2.566576 2.523406
v -0.187500 3.316576 2.148406
v -0.187500 2.566576 2.148406
vt 0.687500 0.718750
vt 0.687500 0.906250
vt 0.640625 0.906250
vt 0.640625 0.718750
vt 0.593750 0.906250
vt 0.593750 0.718750
vt 0.546875 0.906250
vt 0.546875 0.718750
vt 0.500000 0.906250
vt 0.500000 0.718750
vt 0.593750 0.625000
vt 0.546875 0.625000
vt 0.593750 1.000000
vt 0.546875 1.000000
vn 1.0000 0.0000 -0.0000
vn 0.0000 0.0000 1.0000
vn -1.0000 0.0000 0.0000
vn 0.0000 0.0000 -1.0000
vn 0.0000 -1.0000 0.0000
vn 0.0000 1.0000 -0.0000
usemtl None
s 1
f 41/69/26 42/70/26 43/71/26 44/72/26
f 44/72/27 43/71/27 45/73/27 46/74/27
f 46/74/28 45/73/28 47/75/28 48/76/28
f 48/76/29 47/75/29 42/77/29 41/78/29
f 44/79/30 46/74/30 48/76/30 41/80/30
f 45/73/31 43/81/31 42/82/31 47/75/31
o pole.003_pole.005
v 0.312500 -0.000000 -0.812500
v 0.312500 1.000000 -0.812500
v 0.312500 1.000000 -0.687500
v 0.312500 -0.000000 -0.687500
v 0.187500 1.000000 -0.687500
v 0.187500 -0.000000 -0.687500
v 0.187500 1.000000 -0.812500
v 0.187500 -0.000000 -0.812500
vt 0.343750 0.718750
vt 0.343750 0.968750
vt 0.328125 0.968750
vt 0.328125 0.718750
vt 0.312500 0.968750
vt 0.312500 0.718750
vt 0.375000 0.718750
vt 0.375000 0.968750
vt 0.359375 0.968750
vt 0.359375 0.718750
vt 0.328125 1.000000
vt 0.343750 1.000000
vn 1.0000 0.0000 -0.0000
vn 0.0000 0.0000 1.0000
vn -1.0000 0.0000 0.0000
vn 0.0000 -0.0000 -1.0000
vn 0.0000 1.0000 0.0000
usemtl None
s 1
f 49/83/32 50/84/32 51/85/32 52/86/32
f 52/86/33 51/85/33 53/87/33 54/88/33
f 54/89/34 53/90/34 55/91/34 56/92/34
f 56/92/35 55/91/35 50/84/35 49/83/35
f 53/93/36 51/85/36 50/84/36 55/94/36
o pole.008_pole.015
v -0.500000 -0.000000 -0.125000
v -0.500000 1.000000 -0.125000
v -0.500000 1.000000 -0.000000
v -0.500000 0.000000 0.000000
v -0.625000 1.000000 -0.000000
v -0.625000 0.000000 0.000000
v -0.625000 1.000000 -0.125000
v -0.625000 -0.000000 -0.125000
vt 0.343750 0.718750
vt 0.343750 0.968750
vt 0.328125 0.968750
vt 0.328125 0.718750
vt 0.312500 0.968750
vt 0.312500 0.718750
vt 0.375000 0.718750
vt 0.375000 0.968750
vt 0.359375 0.968750
vt 0.359375 0.718750
vt 0.328125 1.000000
vt 0.343750 1.000000
vn 1.0000 -0.0000 0.0000
vn 0.0000 0.0000 1.0000
vn -1.0000 0.0000 0.0000
vn -0.0000 -0.0000 -1.0000
vn 0.0000 1.0000 0.0000
usemtl None
s 1
f 57/95/37 58/96/37 59/97/37 60/98/37
f 60/98/38 59/97/38 61/99/38 62/100/38
f 62/101/39 61/102/39 63/103/39 64/104/39
f 64/104/40 63/103/40 58/96/40 57/95/40
f 61/105/41 59/97/41 58/96/41 63/106/41
o pole.002_pole.001
v 0.812500 -0.000000 -0.812500
v 0.812500 1.000000 -0.812500
v 0.812500 1.000000 -0.687500
v 0.812500 -0.000000 -0.687500
v 0.687500 1.000000 -0.687500
v 0.687500 -0.000000 -0.687500
v 0.687500 1.000000 -0.812500
v 0.687500 -0.000000 -0.812500
vt 0.343750 0.718750
vt 0.343750 0.968750
vt 0.328125 0.968750
vt 0.328125 0.718750
vt 0.312500 0.968750
vt 0.312500 0.718750
vt 0.375000 0.718750
vt 0.375000 0.968750
vt 0.359375 0.968750
vt 0.359375 0.718750
vt 0.328125 1.000000
vt 0.343750 1.000000
vn 1.0000 -0.0000 0.0000
vn 0.0000 0.0000 1.0000
vn -1.0000 0.0000 0.0000
vn -0.0000 -0.0000 -1.0000
vn 0.0000 1.0000 0.0000
usemtl None
s 1
f 65/107/42 66/108/42 67/109/42 68/110/42
f 68/110/43 67/109/43 69/111/43 70/112/43
f 70/113/44 69/114/44 71/115/44 72/116/44
f 72/116/45 71/115/45 66/108/45 65/107/45
f 69/117/46 67/109/46 66/108/46 71/118/46
o pole.007_pole.014
v -0.500000 0.000000 0.625000
v -0.500000 1.000000 0.625000
v -0.500000 1.000000 0.750000
v -0.500000 0.000000 0.750000
v -0.625000 1.000000 0.750000
v -0.625000 0.000000 0.750000
v -0.625000 1.000000 0.625000
v -0.625000 0.000000 0.625000
vt 0.343750 0.718750
vt 0.343750 0.968750
vt 0.328125 0.968750
vt 0.328125 0.718750
vt 0.312500 0.968750
vt 0.312500 0.718750
vt 0.375000 0.718750
vt 0.375000 0.968750
vt 0.359375 0.968750
vt 0.359375 0.718750
vt 0.328125 1.000000
vt 0.343750 1.000000
vn 1.0000 -0.0000 -0.0000
vn 0.0000 0.0000 1.0000
vn -1.0000 -0.0000 0.0000
vn 0.0000 -0.0000 -1.0000
vn 0.0000 1.0000 0.0000
usemtl None
s 1
f 73/119/47 74/120/47 75/121/47 76/122/47
f 76/122/48 75/121/48 77/123/48 78/124/48
f 78/125/49 77/126/49 79/127/49 80/128/49
f 80/128/50 79/127/50 74/120/50 73/119/50
f 77/129/51 75/121/51 74/120/51 79/130/51
o pole
v 0.625000 0.875000 0.750000
v 0.625000 1.000000 0.750000
v -0.500000 1.000000 0.750000
v -0.500000 0.875000 0.750000
v -0.500000 0.875000 0.625000
v -0.500000 1.000000 0.625000
v 0.625000 1.000000 0.625000
v 0.625000 0.875000 0.625000
vt 0.500000 1.000000
vt 0.484375 1.000000
vt 0.484375 0.718750
vt 0.500000 0.718750
vt 0.453125 0.718750
vt 0.468750 0.718750
vt 0.468750 1.000000
vt 0.453125 1.000000
vt 0.437500 1.000000
vt 0.437500 0.718750
vn 0.0000 0.0000 1.0000
vn -0.0000 0.0000 -1.0000
vn 0.0000 -1.0000 0.0000
vn 0.0000 1.0000 0.0000
usemtl None
s 1
f 81/131/52 82/132/52 83/133/52 84/134/52
f 85/135/53 86/136/53 87/137/53 88/138/53
f 81/139/54 84/140/54 85/135/54 88/138/54
f 83/133/55 82/132/55 87/137/55 86/136/55
o base
v -1.000000 0.000000 0.999999
v -1.000000 -0.000000 -1.000000
v 1.000000 -0.000000 -0.999999
v 0.999999 0.000000 1.000000
v -1.000000 0.125000 0.999999
v 0.999999 0.125000 1.000000
v 1.000000 0.125000 -0.999999
v -0.999999 0.125000 -1.000000
vt 0.375000 0.031250
vt 0.375000 0.531250
vt 0.125000 0.531250
vt 0.125000 0.031250
vt 0.390625 0.031250
vt 0.640625 0.031250
vt 0.640625 0.531250
vt 0.390625 0.531250
vt 0.390625 0.562500
vt 0.640625 0.562500
vt 0.656250 0.531250
vt 0.656250 0.031250
vt 0.390625 0.000000
vt 0.640625 0.000000
vn 0.0000 -1.0000 0.0000
vn 0.0000 1.0000 -0.0000
vn -1.0000 0.0000 -0.0000
vn 0.0000 -0.0000 -1.0000
vn 1.0000 0.0000 0.0000
vn -0.0000 0.0000 1.0000
usemtl None
s 1
f 89/141/56 90/142/56 91/143/56 92/144/56
f 93/145/57 94/146/57 95/147/57 96/148/57
f 89/141/58 93/145/58 96/148/58 90/142/58
f 90/149/59 96/148/59 95/147/59 91/150/59
f 91/151/60 95/147/60 94/146/60 92/152/60
f 93/145/61 89/153/61 92/154/61 94/146/61
o controlbox
v -0.625000 0.437500 -0.250000
v -0.625000 1.062500 -0.250000
v -0.625000 1.062500 0.250000
v -0.625000 0.437500 0.250000
v -0.875000 1.062500 0.250000
v -0.875000 0.437500 0.250000
v -0.875000 1.062500 -0.250000
v -0.875000 0.437500 -0.250000
vt 0.187500 0.593750
vt 0.187500 0.750000
vt 0.125000 0.750000
vt 0.125000 0.593750
vt 0.312500 0.593750
vt 0.312500 0.750000
vt 0.281250 0.750000
vt 0.281250 0.593750
vt 0.218750 0.750000
vt 0.218750 0.593750
vt 0.281250 0.531250
vt 0.218750 0.531250
vt 0.281250 0.812500
vt 0.218750 0.812500
vn 1.0000 -0.0000 -0.0000
vn 0.0000 0.0000 1.0000
vn -1.0000 -0.0000 0.0000
vn -0.0000 -0.0000 -1.0000
vn 0.0000 -1.0000 0.0000
vn 0.0000 1.0000 0.0000
usemtl None
s 1
f 97/155/62 98/156/62 99/157/62 100/158/62
f 100/159/63 99/160/63 101/161/63 102/162/63
f 102/162/64 101/161/64 103/163/64 104/164/64
f 104/164/65 103/163/65 98/156/65 97/155/65
f 100/165/66 102/162/66 104/164/66 97/166/66
f 101/161/67 99/167/67 98/168/67 103/163/67
o pipe
v 0.125000 0.562664 -0.470030
v 0.125000 3.214315 2.181619
v 0.125000 3.037539 2.358397
v 0.125000 0.385888 -0.293254
v -0.125000 3.037539 2.358397
v -0.125000 0.385888 -0.293254
v -0.125000 3.214315 2.181619
v -0.125000 0.562664 -0.470030
vt 0.031250 0.062500
vt 0.031250 1.000000
vt 0.000000 1.000000
vt 0.000000 0.062500
vt 0.125000 0.062500
vt 0.125000 1.000000
vt 0.093750 1.000000
vt 0.093750 0.062500
vt 0.062500 1.000000
vt 0.062500 0.062500
vt 0.031250 0.000000
vt 0.062500 0.000000
vn 1.0000 0.0000 -0.0000
vn 0.0000 -0.7071 0.7071
vn -1.0000 -0.0000 0.0000
vn 0.0000 0.7071 -0.7071
vn -0.0000 -0.7071 -0.7071
usemtl None
s 1
f 105/169/68 106/170/68 107/171/68 108/172/68
f 108/173/69 107/174/69 109/175/69 110/176/69
f 110/176/70 109/175/70 111/177/70 112/178/70
f 112/178/71 111/177/71 106/170/71 105/169/71
f 108/179/72 110/180/72 112/178/72 105/169/72
o pole.005_pole.013
v 0.750000 0.000000 0.625000
v 0.750000 1.000000 0.625000
v 0.750000 1.000000 0.750000
v 0.750000 0.000000 0.750000
v 0.625000 1.000000 0.750000
v 0.625000 0.000000 0.750000
v 0.625000 1.000000 0.625000
v 0.625000 0.000000 0.625000
vt 0.343750 0.718750
vt 0.343750 0.968750
vt 0.328125 0.968750
vt 0.328125 0.718750
vt 0.312500 0.968750
vt 0.312500 0.718750
vt 0.375000 0.718750
vt 0.375000 0.968750
vt 0.359375 0.968750
vt 0.359375 0.718750
vt 0.328125 1.000000
vt 0.343750 1.000000
vn 1.0000 -0.0000 0.0000
vn 0.0000 0.0000 1.0000
vn -1.0000 -0.0000 0.0000
vn -0.0000 -0.0000 -1.0000
vn 0.0000 1.0000 0.0000
usemtl None
s 1
f 113/181/73 114/182/73 115/183/73 116/184/73
f 116/184/74 115/183/74 117/185/74 118/186/74
f 118/187/75 117/188/75 119/189/75 120/190/75
f 120/190/76 119/189/76 114/182/76 113/181/76
f 117/191/77 115/183/77 114/182/77 119/192/77
o piston
v 0.093750 0.044746 0.610145
v 0.093750 0.506686 0.418803
v 0.093750 0.578439 0.592031
v 0.093750 0.116499 0.783372
v -0.093750 0.578439 0.592031
v -0.093750 0.116499 0.783372
v -0.093750 0.506686 0.418803
v -0.093750 0.044746 0.610145
vt 0.859375 0.828125
vt 0.859375 0.953125
vt 0.835938 0.953125
vt 0.835938 0.828125
vt 0.812500 0.953125
vt 0.812500 0.828125
vt 0.906250 0.828125
vt 0.906250 0.953125
vt 0.882812 0.953125
vt 0.882812 0.828125
vt 0.835938 0.781250
vt 0.859375 0.781250
vt 0.835938 1.000000
vt 0.859375 1.000000
vn 1.0000 -0.0000 -0.0000
vn 0.0000 0.3827 0.9239
vn -1.0000 0.0000 0.0000
vn -0.0000 -0.3827 -0.9239
vn 0.0000 -0.9239 0.3827
vn -0.0000 0.9239 -0.3827
usemtl None
s 1
f 121/193/78 122/194/78 123/195/78 124/196/78
f 124/196/79 123/195/79 125/197/79 126/198/79
f 126/199/80 125/200/80 127/201/80 128/202/80
f 128/202/81 127/201/81 122/194/81 121/193/81
f 124/196/82 126/203/82 128/204/82 121/193/82
f 125/205/83 123/195/83 122/194/83 127/206/83
o pole.009_pole.011
v 0.812500 -0.000000 -0.312500
v 0.812500 1.000000 -0.312500
v 0.812500 1.000000 -0.187500
v 0.812500 -0.000000 -0.187500
v 0.687500 1.000000 -0.187500
v 0.687500 -0.000000 -0.187500
v 0.687500 1.000000 -0.312500
v 0.687500 -0.000000 -0.312500
vt 0.343750 0.718750
vt 0.343750 0.968750
vt 0.328125 0.968750
vt 0.328125 0.718750
vt 0.312500 0.968750
vt 0.312500 0.718750
vt 0.375000 0.718750
vt 0.375000 0.968750
vt 0.359375 0.968750
vt 0.359375 0.718750
vt 0.328125 1.000000
vt 0.343750 1.000000
vn 1.0000 -0.0000 -0.0000
vn 0.0000 0.0000 1.0000
vn -1.0000 -0.0000 0.0000
vn -0.0000 -0.0000 -1.0000
vn 0.0000 1.0000 0.0000
usemtl None
s 1
f 129/207/84 130/208/84 131/209/84 132/210/84
f 132/210/85 131/209/85 133/211/85 134/212/85
f 134/213/86 133/214/86 135/215/86 136/216/86
f 136/216/87 135/215/87 130/208/87 129/207/87
f 133/217/88 131/209/88 130/208/88 135/218/88
o pole.001_pole.007
v -0.500000 0.875000 -0.000000
v -0.500000 1.000000 -0.000000
v -0.500000 1.000000 0.625000
v -0.500000 0.875000 0.625000
v -0.625000 0.875000 0.625000
v -0.625000 1.000000 0.625000
v -0.625000 1.000000 -0.000000
v -0.625000 0.875000 -0.000000
vt 0.437500 1.000000
vt 0.421875 1.000000
vt 0.421875 0.843750
vt 0.437500 0.843750
vt 0.390625 0.843750
vt 0.406250 0.843750
vt 0.406250 1.000000
vt 0.390625 1.000000
vt 0.375000 0.843750
vt 0.375000 1.000000
vn 1.0000 0.0000 -0.0000
vn -1.0000 0.0000 0.0000
vn 0.0000 -1.0000 0.0000
vn 0.0000 1.0000 -0.0000
usemtl None
s 1
f 137/219/89 138/220/89 139/221/89 140/222/89
f 141/223/90 142/224/90 143/225/90 144/226/90
f 140/227/91 141/223/91 144/226/91 137/228/91
f 142/224/92 139/221/92 138/220/92 143/225/92
o pump
v 0.500000 0.378392 -0.123972
v 0.500000 0.643557 -0.389137
v 0.500000 0.997111 -0.035584
v 0.500000 0.731946 0.229581
v 0.125000 0.997111 -0.035584
v 0.125000 0.731946 0.229581
v 0.125000 0.643557 -0.389137
v 0.125000 0.378392 -0.123972
vt 0.656250 0.281250
vt 0.656250 0.187500
vt 0.734375 0.187500
vt 0.734375 0.281250
vt 0.781250 0.187500
vt 0.734375 0.093750
vt 0.781250 0.093750
vt 0.734375 0.000000
vt 0.656250 0.093750
vt 0.656250 0.000000
vt 0.734375 0.375000
vt 0.656250 0.375000
vn 1.0000 -0.0000 -0.0000
vn 0.0000 0.7071 0.7071
vn -1.0000 0.0000 0.0000
vn 0.0000 -0.7071 0.7071
vn -0.0000 0.7071 -0.7071
usemtl None
s 1
f 145/229/93 146/230/93 147/231/93 148/232/93
f 148/233/94 147/231/94 149/234/94 150/235/94
f 150/236/95 149/234/95 151/237/95 152/238/95
f 148/232/96 150/239/96 152/240/96 145/229/96
f 149/234/97 147/231/97 146/230/97 151/237/97
o pump.001
v 0.562500 0.201615 -0.212361
v 0.562500 0.555169 -0.565914
v 0.562500 0.687751 -0.433332
v 0.562500 0.334198 -0.079778
v 0.062500 0.687751 -0.433332
v 0.062500 0.334198 -0.079778
v 0.062500 0.555169 -0.565914
v 0.062500 0.201615 -0.212361
vt 0.148438 0.953125
vt 0.210938 0.953125
vt 0.210938 1.000000
vt 0.148438 1.000000
vt 0.296875 0.953125
vt 0.234375 0.953125
vt 0.234375 0.828125
vt 0.296875 0.828125
vt 0.148438 0.781250
vt 0.210938 0.781250
vt 0.210938 0.828125
vt 0.148438 0.828125
vt 0.125000 0.953125
vt 0.125000 0.828125
vn 1.0000 0.0000 -0.0000
vn 0.0000 0.7071 0.7071
vn -1.0000 0.0000 0.0000
vn -0.0000 -0.7071 -0.7071
vn 0.0000 -0.7071 0.7071
vn -0.0000 0.7071 -0.7071
usemtl None
s 1
f 153/241/98 154/242/98 155/243/98 156/244/98
f 156/245/99 155/246/99 157/247/99 158/248/99
f 158/249/100 157/250/100 159/251/100 160/252/100
f 160/252/101 159/251/101 154/242/101 153/241/101
f 156/253/102 158/254/102 160/252/102 153/241/102
f 157/247/103 155/246/103 154/242/103 159/251/103
o piston.002
v 0.031250 0.542846 0.471475
v 0.031250 1.004786 0.280133
v 0.031250 1.028704 0.337875
v 0.031250 0.566764 0.529217
v -0.031250 1.028704 0.337875
v -0.031250 0.566764 0.529217
v -0.031250 1.004786 0.280133
v -0.031250 0.542846 0.471475
vt 0.992188 0.859375
vt 0.992188 0.984375
vt 0.984375 0.984375
vt 0.984375 0.859375
vt 0.976562 0.984375
vt 0.976562 0.859375
vt 0.968750 0.984375
vt 0.968750 0.859375
vt 1.000000 0.859375
vt 1.000000 0.984375
vt 0.976562 0.843750
vt 0.984375 0.843750
vt 0.984375 1.000000
vt 0.976562 1.000000
vn 1.0000 -0.0000 -0.0000
vn 0.0000 0.3827 0.9239
vn -1.0000 0.0000 0.0000
vn 0.0000 -0.3827 -0.9239
vn 0.0000 -0.9239 0.3827
vn -0.0000 0.9239 -0.3827
usemtl None
s 1
f 161/255/104 162/256/104 163/257/104 164/258/104
f 164/258/105 163/257/105 165/259/105 166/260/105
f 166/260/106 165/259/106 167/261/106 168/262/106
f 168/263/107 167/264/107 162/256/107 161/255/107
f 164/258/108 166/260/108 168/265/108 161/266/108
f 165/259/109 163/257/109 162/267/109 167/268/109
