# Made in Blockbench 4.5.2
mtllib bullet3700solid_mage.mtl

o #tracer
v 0.0625 -0.0625 -0.75
v -0.0625 -0.0625 -0.75
v -0.0625 0.0625 -0.75
v 0.0625 0.0625 -0.75
v 0.0625 -0.0625 0.75
v 0.0625 0.0625 0.75
v -0.0625 -0.0625 0.75
v -0.0625 0.0625 0.75
vt 0 0.875
vt 0.125 0.875
vt 0.125 1
vt 0 1
vt 0 0.875
vt 1 0.875
vt 1 1
vt 0 1
vt 0 0.875
vt 0.125 0.875
vt 0.125 1
vt 0 1
vt 0 0.875
vt 1 0.875
vt 1 1
vt 0 1
vt 0 0
vt 0.125 0
vt 0.125 1
vt 0 1
vt 0 0
vt 0.125 0
vt 0.125 1
vt 0 1
vn 0 0 -1
vn 1 0 0
vn 0 0 1
vn -1 0 0
vn 0 1 0
vn 0 -1 0
usemtl none
f 1/1/1 2/2/1 3/3/1 4/4/1
f 5/5/2 1/6/2 4/7/2 6/8/2
f 7/9/3 5/10/3 6/11/3 8/12/3
f 2/13/4 7/14/4 8/15/4 3/16/4
f 8/17/5 6/18/5 4/19/5 3/20/5
f 2/21/6 1/22/6 5/23/6 7/24/6
o bodyModel
v 0.046875 0.1875 0.25
v 0.046875 0.1875 -0.25
v 0.046875 -0.1875 0.25
v 0.046875 -0.1875 -0.25
v -0.046875 0.1875 -0.25
v -0.046875 0.1875 0.25
v -0.046875 -0.1875 -0.25
v -0.046875 -0.1875 0.25
vt 0.625 1
vt 0.75 1
vt 0.75 0.625
vt 0.625 0.625
vt 0 1
vt 0.5 1
vt 0.5 0.625
vt 0 0.625
vt 0.625 0.625
vt 0.75 0.625
vt 0.75 0.25
vt 0.625 0.25
vt 0 0.625
vt 0.5 0.625
vt 0.5 0.25
vt 0 0.25
vt 0.625 0.5
vt 0.5 0.5
vt 0.5 1
vt 0.625 1
vt 0.625 0.5
vt 0.5 0.5
vt 0.5 0
vt 0.625 0
vn 0 0 -1
vn 1 0 0
vn 0 0 1
vn -1 0 0
vn 0 1 0
vn 0 -1 0
usemtl m_a7378906-5b73-7c68-6318-84d27e821535
f 12/28/7 15/27/7 13/26/7 10/25/7
f 11/32/8 12/31/8 10/30/8 9/29/8
f 16/36/9 11/35/9 9/34/9 14/33/9
f 15/40/10 16/39/10 14/38/10 13/37/10
f 14/44/11 9/43/11 10/42/11 13/41/11
f 15/48/12 12/47/12 11/46/12 16/45/12