# Made in Blockbench 4.10.4
mtllib bullet762.mtl

o cube
v 0.11264406380243253 0.01953125 0.08508003254533728
v 0.1376440638024325 0.01953125 0.08508003254533728
v 0.1376440638024325 0.04453125000000002 0.08508003254533728
v 0.11264406380243253 0.04453125000000002 0.08508003254533728
v 0.09701906380243251 0.06015625000000002 0.02258003254533726
v 0.09701906380243251 0.003906249999999986 0.02258003254533726
v 0.1532690638024325 0.003906249999999986 -0.10241996745466272
v 0.09701906380243247 0.003906249999999986 -0.10241996745466272
v 0.09701906380243247 0.06015625000000002 -0.10241996745466272
v 0.1532690638024325 0.06015625000000002 -0.10241996745466272
v 0.1532690638024325 0.003906249999999986 0.02258003254533726
v 0.1532690638024325 0.06015625000000002 0.02258003254533726
v 0.009135102560916033 0.01953125 0.06726344754893265
v -0.0033648974390839644 0.01953125 0.08891408264354361
v -0.0033648974390839644 0.04453125000000002 0.08891408264354361
v 0.009135102560916033 0.04453125000000002 0.06726344754893265
v 0.07107419029744345 0.06015625000000002 0.08498180061480076
v 0.07107419029744345 0.003906249999999986 0.08498180061480076
v 0.15120236577049828 0.003906249999999986 0.19619572957767537
v 0.1793273657704983 0.003906249999999986 0.14748180061480068
v 0.1793273657704983 0.06015625000000002 0.14748180061480068
v 0.15120236577049828 0.06015625000000002 0.19619572957767537
v 0.04294919029744348 0.003906249999999986 0.13369572957767542
v 0.04294919029744348 0.06015625000000002 0.13369572957767542
v -0.012355936197567469 0.1875 0.0030487825453372995
v 0.012644063802432498 0.1875 0.0030487825453372995
v 0.012644063802432498 0.1875 -0.021951217454662726
v -0.012355936197567469 0.1875 -0.021951217454662726
v -0.02798093619756747 0.125 -0.03757621745466274
v -0.02798093619756747 0.125 0.018673782545337282
v 0.028269063802432496 -1.3877787807814457e-17 0.018673782545337254
v -0.027980936197567526 -1.3877787807814457e-17 0.018673782545337254
v -0.027980936197567526 -1.3877787807814457e-17 -0.03757621745466277
v 0.028269063802432496 -1.3877787807814457e-17 -0.03757621745466277
v 0.028269063802432496 0.125 0.018673782545337282
v 0.028269063802432496 0.125 -0.03757621745466274
v 0.015062026741477821 0.18749999999999997 -0.06518626620283495
v 0.038159015054259955 0.18749999999999994 -0.05561918039370774
v 0.04772610086338721 0.18750000000000003 -0.07871616870648991
v 0.024629112550605074 0.18750000000000006 -0.08828325451561714
v 0.01617292348582074 0.12500000000000014 -0.10869830084181073
v -0.005353019584715563 0.12499999999999996 -0.05673007713805085
v 0.046615204119044275 -6.938893903907228e-17 -0.035204134067515006
v -0.0053530195847156185 -1.3877787807814457e-17 -0.05673007713805131
v 0.016172923485820685 1.5265566588595902e-16 -0.10869830084181119
v 0.06814114718958059 9.71445146547012e-17 -0.08717235777127488
v 0.04661520411904429 0.12499999999999989 -0.035204134067514575
v 0.06814114718958059 0.12500000000000006 -0.08717235777127445
v -0.0628774516808685 0.18750000000000036 -0.1573591912831155
v -0.039385136161220795 0.1875000000000004 -0.16590969486625723
v -0.04793563974436254 0.1875000000000005 -0.18940201038590493
v -0.07142795526401025 0.18750000000000044 -0.18085150680276324
v -0.0914547172032536 0.1250000000000005 -0.19019013926307976
v -0.07221608414118474 0.12500000000000028 -0.1373324293438724
v -0.019358374221977444 3.7470027081099033e-16 -0.15657106240594176
v -0.0722160841411848 3.191891195797325e-16 -0.1373324293438729
v -0.09145471720325368 5.412337245047638e-16 -0.19019013926308026
v -0.038597007284046296 5.967448757360216e-16 -0.20942877232514912
v -0.019358374221977444 0.12500000000000036 -0.15657106240594124
v -0.038597007284046296 0.12500000000000058 -0.20942877232514862
v -0.06389333639200565 0.3260416666666648 0.16318836509730125
v -0.04341453528478089 0.3260416666666649 0.14884895418852515
v -0.04341453528478086 0.3510416666666649 0.1488489541885253
v -0.06389333639200562 0.3510416666666648 0.16318836509730142
v -0.11254111435596148 0.36666666666666514 0.12095349414722473
v -0.11254111435596154 0.3104166666666651 0.12095349414722428
v -0.13816086640858655 0.3104166666666661 -0.013704185933645984
v -0.18423816889984235 0.31041666666666595 0.018559488611100336
v -0.1842381688998423 0.36666666666666603 0.018559488611100725
v -0.13816086640858655 0.36666666666666614 -0.013704185933645596
v -0.06646381186470579 0.31041666666666534 0.08868981960247801
v -0.06646381186470574 0.36666666666666536 0.0886898196024784
v -0.1097251921877197 0 -0.19870017040811344
v -0.1097251921877197 0.3125 -0.19870017040811344
v 0.06128487947511465 0.3125 0.2711461399848408
v 0.06128487947511465 0 0.2711461399848408
v -0.11490748692224317 0 0.33527491685840366
v -0.11490748692224317 0.3125 0.33527491685840366
v -0.2859175585850775 0.3125 -0.1345713935345506
v -0.2859175585850775 0 -0.1345713935345506
vt 0.25 0.8125
vt 0.3125 0.8125
vt 0.3125 0.875
vt 0.25 0.875
vt 0.4375 1
vt 0.375 1
vt 0.375 0.9375
vt 0.4375 0.9375
vt 0.25 0.6875
vt 0.3125 0.6875
vt 0.3125 0.75
vt 0.25 0.75
vt 0 0.9375
vt 0.0625 0.9375
vt 0.0625 1
vt 0 1
vt 0.0625 0.6875
vt 0.0625 0.75
vt 0 0.75
vt 0 0.6875
vt 0.125 0.875
vt 0.125 0.8125
vt 0.1875 0.8125
vt 0.1875 0.875
vt 0 0.875
vt 0 0.75
vt 0.0625 0.75
vt 0.0625 0.875
vt 0.1875 1
vt 0.0625 1
vt 0.0625 0.9375
vt 0.1875 0.9375
vt 0.1875 0.6875
vt 0.1875 0.8125
vt 0.125 0.8125
vt 0.125 0.6875
vt 0.25 0.9375
vt 0.375 0.9375
vt 0.375 1
vt 0.25 1
vt 0.25 0.8125
vt 0.3125 0.8125
vt 0.3125 0.875
vt 0.25 0.875
vt 0.4375 1
vt 0.375 1
vt 0.375 0.9375
vt 0.4375 0.9375
vt 0.25 0.6875
vt 0.3125 0.6875
vt 0.3125 0.75
vt 0.25 0.75
vt 0 0.9375
vt 0.0625 0.9375
vt 0.0625 1
vt 0 1
vt 0.0625 0.6875
vt 0.0625 0.75
vt 0 0.75
vt 0 0.6875
vt 0.125 0.875
vt 0.125 0.8125
vt 0.1875 0.8125
vt 0.1875 0.875
vt 0 0.875
vt 0 0.75
vt 0.0625 0.75
vt 0.0625 0.875
vt 0.1875 1
vt 0.0625 1
vt 0.0625 0.9375
vt 0.1875 0.9375
vt 0.1875 0.6875
vt 0.1875 0.8125
vt 0.125 0.8125
vt 0.125 0.6875
vt 0.25 0.9375
vt 0.375 0.9375
vt 0.375 1
vt 0.25 1
vt 0.25 0.8125
vt 0.3125 0.8125
vt 0.3125 0.875
vt 0.25 0.875
vt 0.4375 1
vt 0.375 1
vt 0.375 0.9375
vt 0.4375 0.9375
vt 0.25 0.6875
vt 0.3125 0.6875
vt 0.3125 0.75
vt 0.25 0.75
vt 0 0.9375
vt 0.0625 0.9375
vt 0.0625 1
vt 0 1
vt 0.0625 0.6875
vt 0.0625 0.75
vt 0 0.75
vt 0 0.6875
vt 0.125 0.875
vt 0.125 0.8125
vt 0.1875 0.8125
vt 0.1875 0.875
vt 0 0.875
vt 0 0.75
vt 0.0625 0.75
vt 0.0625 0.875
vt 0.1875 1
vt 0.0625 1
vt 0.0625 0.9375
vt 0.1875 0.9375
vt 0.1875 0.6875
vt 0.1875 0.8125
vt 0.125 0.8125
vt 0.125 0.6875
vt 0.25 0.9375
vt 0.375 0.9375
vt 0.375 1
vt 0.25 1
vt 0.25 0.8125
vt 0.3125 0.8125
vt 0.3125 0.875
vt 0.25 0.875
vt 0.4375 1
vt 0.375 1
vt 0.375 0.9375
vt 0.4375 0.9375
vt 0.25 0.6875
vt 0.3125 0.6875
vt 0.3125 0.75
vt 0.25 0.75
vt 0 0.9375
vt 0.0625 0.9375
vt 0.0625 1
vt 0 1
vt 0.0625 0.6875
vt 0.0625 0.75
vt 0 0.75
vt 0 0.6875
vt 0.125 0.875
vt 0.125 0.8125
vt 0.1875 0.8125
vt 0.1875 0.875
vt 0 0.875
vt 0 0.75
vt 0.0625 0.75
vt 0.0625 0.875
vt 0.1875 1
vt 0.0625 1
vt 0.0625 0.9375
vt 0.1875 0.9375
vt 0.1875 0.6875
vt 0.1875 0.8125
vt 0.125 0.8125
vt 0.125 0.6875
vt 0.25 0.9375
vt 0.375 0.9375
vt 0.375 1
vt 0.25 1
vt 0.25 0.8125
vt 0.3125 0.8125
vt 0.3125 0.875
vt 0.25 0.875
vt 0.4375 1
vt 0.375 1
vt 0.375 0.9375
vt 0.4375 0.9375
vt 0.25 0.6875
vt 0.3125 0.6875
vt 0.3125 0.75
vt 0.25 0.75
vt 0 0.9375
vt 0.0625 0.9375
vt 0.0625 1
vt 0 1
vt 0.0625 0.6875
vt 0.0625 0.75
vt 0 0.75
vt 0 0.6875
vt 0.125 0.875
vt 0.125 0.8125
vt 0.1875 0.8125
vt 0.1875 0.875
vt 0 0.875
vt 0 0.75
vt 0.0625 0.75
vt 0.0625 0.875
vt 0.1875 1
vt 0.0625 1
vt 0.0625 0.9375
vt 0.1875 0.9375
vt 0.1875 0.6875
vt 0.1875 0.8125
vt 0.125 0.8125
vt 0.125 0.6875
vt 0.25 0.9375
vt 0.375 0.9375
vt 0.375 1
vt 0.25 1
vt 0.25 0.8125
vt 0.3125 0.8125
vt 0.3125 0.875
vt 0.25 0.875
vt 0.4375 1
vt 0.375 1
vt 0.375 0.9375
vt 0.4375 0.9375
vt 0.25 0.6875
vt 0.3125 0.6875
vt 0.3125 0.75
vt 0.25 0.75
vt 0 0.9375
vt 0.0625 0.9375
vt 0.0625 1
vt 0 1
vt 0.0625 0.6875
vt 0.0625 0.75
vt 0 0.75
vt 0 0.6875
vt 0.125 0.875
vt 0.125 0.8125
vt 0.1875 0.8125
vt 0.1875 0.875
vt 0 0.875
vt 0 0.75
vt 0.0625 0.75
vt 0.0625 0.875
vt 0.1875 1
vt 0.0625 1
vt 0.0625 0.9375
vt 0.1875 0.9375
vt 0.1875 0.6875
vt 0.1875 0.8125
vt 0.125 0.8125
vt 0.125 0.6875
vt 0.25 0.9375
vt 0.375 0.9375
vt 0.375 1
vt 0.25 1
vt 1 0.375
vt 1 0.6875
vt 0.5 0.6875
vt 0.5 0.375
vt 0.5 0.375
vt 0.5 0.6875
vt 1 0.6875
vt 1 0.375
vt 1 0.375
vt 0.5 0.375
vt 0.5 0.1875
vt 1 0.1875
vt 0.1875 0.1875
vt 0.1875 0.6875
vt 0 0.6875
vt 0 0.1875
vt 0.6875 0.6875
vt 0.6875 1
vt 0.5 1
vt 0.5 0.6875
vt 1 0.6875
vt 1 1
vt 0.8125 1
vt 0.8125 0.6875
vn 0 0 1
vn -0.9701425001453319 0 0.2425356250363331
vn 0 0 -1
vn 0.970142500145332 0 0.24253562503633294
vn 0 0.970142500145332 0.24253562503633294
vn 0 -0.9701425001453319 0.2425356250363331
vn 0 1 0
vn 1 0 0
vn 0 -1 0
vn -1 0 3.33066907387547e-16
vn -0.8660254037844388 0 -0.5000000000000001
vn 0.27502923746846397 0 -0.9614358629349726
vn 0.8660254037844386 0 0.5000000000000001
vn -0.6951132626768669 0 0.71890023789864
vn -0.2100420126042015 0.9701425001453319 -0.12126781251816646
vn -0.2100420126042017 -0.9701425001453319 -0.12126781251816657
vn 0 1 0
vn -0.4999999999999999 0 0.8660254037844389
vn 0 -1 0
vn 0.4999999999999995 0 -0.866025403784439
vn 0 1 0
vn -0.970142500145332 0.242535625036333 0
vn 0 -1 0
vn 0.970142500145332 0.24253562503633294 0
vn 0 0.24253562503633314 -0.9701425001453319
vn 0 0.24253562503633275 0.970142500145332
vn 0 2.220446049250313e-16 -1
vn 1 0 0
vn 0 -2.220446049250313e-16 1
vn -1 4.440892098500626e-16 0
vn -2.48879544288959e-16 1 3.502000944676177e-15
vn -0.8962947995036002 0.2425356250363344 -0.37125746183886443
vn 2.2122626159018964e-16 -1 -3.112889728601045e-15
vn 0.8962947995036004 0.2425356250363318 0.371257461838866
vn 0.3712574618388651 0.24253562503633597 -0.8962947995035994
vn -0.37125746183886515 0.24253562503632975 0.8962947995036012
vn 0.3826834323650896 3.2149051025123347e-15 -0.9238795325112868
vn 0.9238795325112867 -1.3170782690383504e-15 0.3826834323650897
vn -0.3826834323650896 -3.1372218240438357e-15 0.9238795325112868
vn -0.9238795325112868 1.812335992178795e-15 -0.38268343236509
vn 4.756061683561427e-16 1 4.5527921726732405e-15
vn -0.9116357484973606 0.2425356250363311 0.3318082769460298
vn -4.227610385387923e-16 -1 -4.046926375709545e-15
vn 0.9116357484973607 0.24253562503633386 -0.3318082769460276
vn -0.33180827694602905 0.24253562503633724 -0.9116357484973593
vn 0.33180827694602877 0.2425356250363289 0.9116357484973616
vn -0.3420201433256688 3.983597364004191e-15 -0.9396926207859085
vn 0.9396926207859086 1.3669870968207114e-15 -0.3420201433256683
vn 0.3420201433256684 -3.964419857934112e-15 0.9396926207859085
vn -0.9396926207859086 -9.496797433539638e-16 0.3420201433256686
vn 0.5735764363510457 -6.071532165918835e-15 0.8191520442889922
vn -0.6555814927491681 -5.385372704143812e-15 0.755124431047475
vn -0.5735764363510458 6.236437977832661e-15 -0.819152044288992
vn 0.9338069317421954 1.5557743367526567e-15 -0.3577773249246335
vn 0.13911271949651383 0.9701425001453303 0.19867355306142775
vn 0.13911271949651302 -0.9701425001453334 0.19867355306141352
vn 8.419360661207935e-16 1 8.084595180261351e-15
vn 0.8191520442889918 3.083952846180989e-15 -0.5735764363510464
vn -3.3249785330528363e-16 -1 -7.357042012070634e-15
vn -0.8191520442889916 -3.700743415417187e-15 0.5735764363510465
vn 0.9396926207859085 0 -0.3420201433256687
vn -0.9396926207859085 0 0.34202014332566866
vn 0 1 0
vn 0 -1 0
vn 0.3420201433256687 0 0.9396926207859084
vn -0.3420201433256685 0 -0.9396926207859085
usemtl m_c64858d7-a413-84a6-be78-4f0973703bf6
f 1/1/1 2/2/1 3/3/1 4/4/1
f 4/5/2 5/6/2 6/7/2 1/8/2
f 7/9/3 8/10/3 9/11/3 10/12/3
f 2/13/4 11/14/4 12/15/4 3/16/4
f 3/17/5 12/18/5 5/19/5 4/20/5
f 1/21/6 6/22/6 11/23/6 2/24/6
f 9/25/7 5/26/7 12/27/7 10/28/7
f 10/29/8 12/30/8 11/31/8 7/32/8
f 7/33/9 11/34/9 6/35/9 8/36/9
f 8/37/10 6/38/10 5/39/10 9/40/10
f 13/41/11 14/42/11 15/43/11 16/44/11
f 16/45/12 17/46/12 18/47/12 13/48/12
f 19/49/13 20/50/13 21/51/13 22/52/13
f 14/53/14 23/54/14 24/55/14 15/56/14
f 15/57/15 24/58/15 17/59/15 16/60/15
f 13/61/16 18/62/16 23/63/16 14/64/16
f 21/65/17 17/66/17 24/67/17 22/68/17
f 22/69/18 24/70/18 23/71/18 19/72/18
f 19/73/19 23/74/19 18/75/19 20/76/19
f 20/77/20 18/78/20 17/79/20 21/80/20
f 25/81/21 26/82/21 27/83/21 28/84/21
f 28/85/22 29/86/22 30/87/22 25/88/22
f 31/89/23 32/90/23 33/91/23 34/92/23
f 26/93/24 35/94/24 36/95/24 27/96/24
f 27/97/25 36/98/25 29/99/25 28/100/25
f 25/101/26 30/102/26 35/103/26 26/104/26
f 33/105/27 29/106/27 36/107/27 34/108/27
f 34/109/28 36/110/28 35/111/28 31/112/28
f 31/113/29 35/114/29 30/115/29 32/116/29
f 32/117/30 30/118/30 29/119/30 33/120/30
f 37/121/31 38/122/31 39/123/31 40/124/31
f 40/125/32 41/126/32 42/127/32 37/128/32
f 43/129/33 44/130/33 45/131/33 46/132/33
f 38/133/34 47/134/34 48/135/34 39/136/34
f 39/137/35 48/138/35 41/139/35 40/140/35
f 37/141/36 42/142/36 47/143/36 38/144/36
f 45/145/37 41/146/37 48/147/37 46/148/37
f 46/149/38 48/150/38 47/151/38 43/152/38
f 43/153/39 47/154/39 42/155/39 44/156/39
f 44/157/40 42/158/40 41/159/40 45/160/40
f 49/161/41 50/162/41 51/163/41 52/164/41
f 52/165/42 53/166/42 54/167/42 49/168/42
f 55/169/43 56/170/43 57/171/43 58/172/43
f 50/173/44 59/174/44 60/175/44 51/176/44
f 51/177/45 60/178/45 53/179/45 52/180/45
f 49/181/46 54/182/46 59/183/46 50/184/46
f 57/185/47 53/186/47 60/187/47 58/188/47
f 58/189/48 60/190/48 59/191/48 55/192/48
f 55/193/49 59/194/49 54/195/49 56/196/49
f 56/197/50 54/198/50 53/199/50 57/200/50
f 61/201/51 62/202/51 63/203/51 64/204/51
f 64/205/52 65/206/52 66/207/52 61/208/52
f 67/209/53 68/210/53 69/211/53 70/212/53
f 62/213/54 71/214/54 72/215/54 63/216/54
f 63/217/55 72/218/55 65/219/55 64/220/55
f 61/221/56 66/222/56 71/223/56 62/224/56
f 69/225/57 65/226/57 72/227/57 70/228/57
f 70/229/58 72/230/58 71/231/58 67/232/58
f 67/233/59 71/234/59 66/235/59 68/236/59
f 68/237/60 66/238/60 65/239/60 69/240/60
f 73/241/61 74/242/61 75/243/61 76/244/61
f 77/245/62 78/246/62 79/247/62 80/248/62
f 75/249/63 74/250/63 79/251/63 78/252/63
f 73/253/64 76/254/64 77/255/64 80/256/64
f 76/257/65 75/258/65 78/259/65 77/260/65
f 80/261/66 79/262/66 74/263/66 73/264/66
o #bodyModel
v 0.03125 -0.03125 -1.53125
v 0.03125 0.03125 -1.53125
v 0.03125 0.03125 1.53125
v 0.03125 -0.03125 1.53125
v -0.03125 -0.03125 1.53125
v -0.03125 0.03125 1.53125
v -0.03125 0.03125 -1.53125
v -0.03125 -0.03125 -1.53125
vt 1 0
vt 1 0.0625
vt 0 0.0625
vt 0 0
vt 1 0
vt 1 0.0625
vt 0 0.0625
vt 0 0
vt 0.1875 0
vt 0.1875 0.0625
vt 0.125 0.0625
vt 0.125 0
vt 0.0625 0
vt 0.0625 0.0625
vt 0 0.0625
vt 0 0
vt 0.0625 0
vt 0.0625 0.0625
vt 0 0.0625
vt 0 0
vt 0.0625 0
vt 0.0625 0.0625
vt 0 0.0625
vt 0 0
vn 1 0 0
vn -1 0 0
vn 0 1 0
vn 0 -1 0
vn 0 0 1
vn 0 0 -1
usemtl m_c64858d7-a413-84a6-be78-4f0973703bf6
f 81/265/67 82/266/67 83/267/67 84/268/67
f 85/269/68 86/270/68 87/271/68 88/272/68
f 83/273/69 82/274/69 87/275/69 86/276/69
f 81/277/70 84/278/70 85/279/70 88/280/70
f 84/281/71 83/282/71 86/283/71 85/284/71
f 88/285/72 87/286/72 82/287/72 81/288/72
o #flare
v 0.015625 -0.015625 -0.0625
v 0.015625 0.015625 -0.0625
v 0.015625 0.015625 0.0625
v 0.015625 -0.015625 0.0625
v -0.015625 -0.015625 0.0625
v -0.015625 0.015625 0.0625
v -0.015625 0.015625 -0.0625
v -0.015625 -0.015625 -0.0625
vt 0.125 0.875
vt 0.125 1
vt 0 1
vt 0 0.875
vt 0.125 0.875
vt 0.125 1
vt 0 1
vt 0 0.875
vt 0.125 0.875
vt 0.125 1
vt 0 1
vt 0 0.875
vt 0.125 0.875
vt 0.125 1
vt 0 1
vt 0 0.875
vt 0.125 0.875
vt 0.125 1
vt 0 1
vt 0 0.875
vt 0.125 0.875
vt 0.125 1
vt 0 1
vt 0 0.875
vn 1 0 0
vn -1 0 0
vn 0 1 0
vn 0 -1 0
vn 0 0 1
vn 0 0 -1
usemtl m_c64858d7-a413-84a6-be78-4f0973703bf6
f 89/289/73 90/290/73 91/291/73 92/292/73
f 93/293/74 94/294/74 95/295/74 96/296/74
f 91/297/75 90/298/75 95/299/75 94/300/75
f 89/301/76 92/302/76 93/303/76 96/304/76
f 92/305/77 91/306/77 94/307/77 93/308/77
f 96/309/78 95/310/78 90/311/78 89/312/78