# Made in Blockbench 4.6.4
mtllib bullet762.mtl

o #bodyModel
v -0.03125 0.03125 -1.15625
v -0.03125 0.03125 1.15625
v 0.03125 0.03125 1.15625
v 0.03125 0.03125 -1.15625
v 0.03125 -0.03125 -1.15625
v 0.03125 -0.03125 1.15625
v -0.03125 -0.03125 1.15625
v -0.03125 -0.03125 -1.15625
vt 0.3125 0.5
vt 0.125 0.5
vt 0.125 0.5625
vt 0.3125 0.5625
vt 0.3125 0.5
vt 0.125 0.5
vt 0.125 0.5625
vt 0.3125 0.5625
vt 0.125 0.5
vt 0.3125 0.5
vt 0.3125 0.4375
vt 0.125 0.4375
vt 0.3125 0.5625
vt 0.125 0.5625
vt 0.125 0.5
vt 0.3125 0.5
vt 0.125 0.5
vt 0.0625 0.5
vt 0.0625 0.4375
vt 0.125 0.4375
vt 0.3125 0.5
vt 0.25 0.5
vt 0.25 0.4375
vt 0.3125 0.4375
vn 0 1 0
vn 0 -1 0
vn -1 0 0
vn 1 0 0
vn 0 0 1
vn 0 0 -1
usemtl none
f 1/1/1 2/2/1 3/3/1 4/4/1
f 5/5/2 6/6/2 7/7/2 8/8/2
f 2/9/3 1/10/3 8/11/3 7/12/3
f 4/13/4 3/14/4 6/15/4 5/16/4
f 3/17/5 2/18/5 7/19/5 6/20/5
f 1/21/6 4/22/6 5/23/6 8/24/6
o cube
v 0.11264406380243253 0.01953125 0.08508003254533728
v 0.1376440638024325 0.01953125 0.08508003254533728
v 0.1376440638024325 0.04453125000000002 0.08508003254533728
v 0.11264406380243253 0.04453125000000002 0.08508003254533728
v 0.09701906380243247 0.003906249999999986 -0.10241996745466272
v 0.09701906380243247 0.06015625000000002 -0.10241996745466272
v 0.1532690638024325 0.003906249999999986 -0.10241996745466272
v 0.1532690638024325 0.06015625000000002 -0.10241996745466272
v 0.09701906380243251 0.06015625000000002 0.02258003254533726
v 0.1532690638024325 0.06015625000000002 0.02258003254533726
v 0.1532690638024325 0.003906249999999986 0.02258003254533726
v 0.09701906380243251 0.003906249999999986 0.02258003254533726
v 0.009135102560916033 0.01953125 0.06726344754893265
v -0.0033648974390839644 0.01953125 0.08891408264354361
v -0.0033648974390839644 0.04453125000000002 0.08891408264354361
v 0.009135102560916033 0.04453125000000002 0.06726344754893265
v 0.1793273657704983 0.003906249999999986 0.14748180061480068
v 0.1793273657704983 0.06015625000000002 0.14748180061480068
v 0.15120236577049828 0.003906249999999986 0.19619572957767537
v 0.15120236577049828 0.06015625000000002 0.19619572957767537
v 0.07107419029744345 0.06015625000000002 0.08498180061480076
v 0.04294919029744348 0.06015625000000002 0.13369572957767542
v 0.04294919029744348 0.003906249999999986 0.13369572957767542
v 0.07107419029744345 0.003906249999999986 0.08498180061480076
v -0.012355936197567469 0.1875 0.0030487825453372995
v 0.012644063802432498 0.1875 0.0030487825453372995
v 0.012644063802432498 0.1875 -0.021951217454662726
v -0.012355936197567469 0.1875 -0.021951217454662726
v -0.027980936197567526 -1.3877787807814457e-17 0.018673782545337254
v -0.027980936197567526 -1.3877787807814457e-17 -0.03757621745466277
v 0.028269063802432496 -1.3877787807814457e-17 0.018673782545337254
v 0.028269063802432496 -1.3877787807814457e-17 -0.03757621745466277
v -0.02798093619756747 0.125 -0.03757621745466274
v 0.028269063802432496 0.125 -0.03757621745466274
v 0.028269063802432496 0.125 0.018673782545337282
v -0.02798093619756747 0.125 0.018673782545337282
v 0.015062026741477821 0.18749999999999997 -0.06518626620283495
v 0.038159015054259955 0.18749999999999994 -0.05561918039370774
v 0.04772610086338721 0.18750000000000003 -0.07871616870648991
v 0.024629112550605074 0.18750000000000006 -0.08828325451561714
v -0.0053530195847156185 -1.3877787807814457e-17 -0.05673007713805131
v 0.016172923485820685 1.5265566588595902e-16 -0.10869830084181119
v 0.046615204119044275 -6.938893903907228e-17 -0.035204134067515006
v 0.06814114718958059 9.71445146547012e-17 -0.08717235777127488
v 0.01617292348582074 0.12500000000000014 -0.10869830084181073
v 0.06814114718958059 0.12500000000000006 -0.08717235777127445
v 0.04661520411904429 0.12499999999999989 -0.035204134067514575
v -0.005353019584715563 0.12499999999999996 -0.05673007713805085
v -0.0628774516808685 0.18750000000000036 -0.1573591912831155
v -0.039385136161220795 0.1875000000000004 -0.16590969486625723
v -0.04793563974436254 0.1875000000000005 -0.18940201038590493
v -0.07142795526401025 0.18750000000000044 -0.18085150680276324
v -0.0722160841411848 3.191891195797325e-16 -0.1373324293438729
v -0.09145471720325368 5.412337245047638e-16 -0.19019013926308026
v -0.019358374221977444 3.7470027081099033e-16 -0.15657106240594176
v -0.038597007284046296 5.967448757360216e-16 -0.20942877232514912
v -0.0914547172032536 0.1250000000000005 -0.19019013926307976
v -0.038597007284046296 0.12500000000000058 -0.20942877232514862
v -0.019358374221977444 0.12500000000000036 -0.15657106240594124
v -0.07221608414118474 0.12500000000000028 -0.1373324293438724
v -0.06389333639200565 0.3260416666666648 0.16318836509730125
v -0.04341453528478089 0.3260416666666649 0.14884895418852515
v -0.04341453528478086 0.3510416666666649 0.1488489541885253
v -0.06389333639200562 0.3510416666666648 0.16318836509730142
v -0.18423816889984235 0.31041666666666595 0.018559488611100336
v -0.1842381688998423 0.36666666666666603 0.018559488611100725
v -0.13816086640858655 0.3104166666666661 -0.013704185933645984
v -0.13816086640858655 0.36666666666666614 -0.013704185933645596
v -0.11254111435596148 0.36666666666666514 0.12095349414722473
v -0.06646381186470574 0.36666666666666536 0.0886898196024784
v -0.06646381186470579 0.31041666666666534 0.08868981960247801
v -0.11254111435596154 0.3104166666666651 0.12095349414722428
v 0.06128487947511465 0.3125 0.2711461399848408
v -0.1097251921877197 0.3125 -0.19870017040811344
v 0.06128487947511465 0 0.2711461399848408
v -0.1097251921877197 0 -0.19870017040811344
v -0.11490748692224317 0.3125 0.33527491685840366
v -0.2859175585850775 0.3125 -0.1345713935345506
v -0.11490748692224317 0 0.33527491685840366
v -0.2859175585850775 0 -0.1345713935345506
vt 0.25 0.8125
vt 0.3125 0.8125
vt 0.3125 0.875
vt 0.25 0.875
vt 0.4375 1
vt 0.375 1
vt 0.375 0.9375
vt 0.4375 0.9375
vt 0.25 0.6875
vt 0.3125 0.6875
vt 0.3125 0.75
vt 0.25 0.75
vt 0 0.9375
vt 0.0625 0.9375
vt 0.0625 1
vt 0 1
vt 0.0625 0.6875
vt 0.0625 0.75
vt 0 0.75
vt 0 0.6875
vt 0.125 0.875
vt 0.125 0.8125
vt 0.1875 0.8125
vt 0.1875 0.875
vt 0 0.875
vt 0 0.75
vt 0.0625 0.75
vt 0.0625 0.875
vt 0.1875 1
vt 0.0625 1
vt 0.0625 0.9375
vt 0.1875 0.9375
vt 0.1875 0.6875
vt 0.1875 0.8125
vt 0.125 0.8125
vt 0.125 0.6875
vt 0.25 0.9375
vt 0.375 0.9375
vt 0.375 1
vt 0.25 1
vt 0.25 0.8125
vt 0.3125 0.8125
vt 0.3125 0.875
vt 0.25 0.875
vt 0.4375 1
vt 0.375 1
vt 0.375 0.9375
vt 0.4375 0.9375
vt 0.25 0.6875
vt 0.3125 0.6875
vt 0.3125 0.75
vt 0.25 0.75
vt 0 0.9375
vt 0.0625 0.9375
vt 0.0625 1
vt 0 1
vt 0.0625 0.6875
vt 0.0625 0.75
vt 0 0.75
vt 0 0.6875
vt 0.125 0.875
vt 0.125 0.8125
vt 0.1875 0.8125
vt 0.1875 0.875
vt 0 0.875
vt 0 0.75
vt 0.0625 0.75
vt 0.0625 0.875
vt 0.1875 1
vt 0.0625 1
vt 0.0625 0.9375
vt 0.1875 0.9375
vt 0.1875 0.6875
vt 0.1875 0.8125
vt 0.125 0.8125
vt 0.125 0.6875
vt 0.25 0.9375
vt 0.375 0.9375
vt 0.375 1
vt 0.25 1
vt 0.25 0.8125
vt 0.3125 0.8125
vt 0.3125 0.875
vt 0.25 0.875
vt 0.4375 1
vt 0.375 1
vt 0.375 0.9375
vt 0.4375 0.9375
vt 0.25 0.6875
vt 0.3125 0.6875
vt 0.3125 0.75
vt 0.25 0.75
vt 0 0.9375
vt 0.0625 0.9375
vt 0.0625 1
vt 0 1
vt 0.0625 0.6875
vt 0.0625 0.75
vt 0 0.75
vt 0 0.6875
vt 0.125 0.875
vt 0.125 0.8125
vt 0.1875 0.8125
vt 0.1875 0.875
vt 0 0.875
vt 0 0.75
vt 0.0625 0.75
vt 0.0625 0.875
vt 0.1875 1
vt 0.0625 1
vt 0.0625 0.9375
vt 0.1875 0.9375
vt 0.1875 0.6875
vt 0.1875 0.8125
vt 0.125 0.8125
vt 0.125 0.6875
vt 0.25 0.9375
vt 0.375 0.9375
vt 0.375 1
vt 0.25 1
vt 0.25 0.8125
vt 0.3125 0.8125
vt 0.3125 0.875
vt 0.25 0.875
vt 0.4375 1
vt 0.375 1
vt 0.375 0.9375
vt 0.4375 0.9375
vt 0.25 0.6875
vt 0.3125 0.6875
vt 0.3125 0.75
vt 0.25 0.75
vt 0 0.9375
vt 0.0625 0.9375
vt 0.0625 1
vt 0 1
vt 0.0625 0.6875
vt 0.0625 0.75
vt 0 0.75
vt 0 0.6875
vt 0.125 0.875
vt 0.125 0.8125
vt 0.1875 0.8125
vt 0.1875 0.875
vt 0 0.875
vt 0 0.75
vt 0.0625 0.75
vt 0.0625 0.875
vt 0.1875 1
vt 0.0625 1
vt 0.0625 0.9375
vt 0.1875 0.9375
vt 0.1875 0.6875
vt 0.1875 0.8125
vt 0.125 0.8125
vt 0.125 0.6875
vt 0.25 0.9375
vt 0.375 0.9375
vt 0.375 1
vt 0.25 1
vt 0.25 0.8125
vt 0.3125 0.8125
vt 0.3125 0.875
vt 0.25 0.875
vt 0.4375 1
vt 0.375 1
vt 0.375 0.9375
vt 0.4375 0.9375
vt 0.25 0.6875
vt 0.3125 0.6875
vt 0.3125 0.75
vt 0.25 0.75
vt 0 0.9375
vt 0.0625 0.9375
vt 0.0625 1
vt 0 1
vt 0.0625 0.6875
vt 0.0625 0.75
vt 0 0.75
vt 0 0.6875
vt 0.125 0.875
vt 0.125 0.8125
vt 0.1875 0.8125
vt 0.1875 0.875
vt 0 0.875
vt 0 0.75
vt 0.0625 0.75
vt 0.0625 0.875
vt 0.1875 1
vt 0.0625 1
vt 0.0625 0.9375
vt 0.1875 0.9375
vt 0.1875 0.6875
vt 0.1875 0.8125
vt 0.125 0.8125
vt 0.125 0.6875
vt 0.25 0.9375
vt 0.375 0.9375
vt 0.375 1
vt 0.25 1
vt 0.25 0.8125
vt 0.3125 0.8125
vt 0.3125 0.875
vt 0.25 0.875
vt 0.4375 1
vt 0.375 1
vt 0.375 0.9375
vt 0.4375 0.9375
vt 0.25 0.6875
vt 0.3125 0.6875
vt 0.3125 0.75
vt 0.25 0.75
vt 0 0.9375
vt 0.0625 0.9375
vt 0.0625 1
vt 0 1
vt 0.0625 0.6875
vt 0.0625 0.75
vt 0 0.75
vt 0 0.6875
vt 0.125 0.875
vt 0.125 0.8125
vt 0.1875 0.8125
vt 0.1875 0.875
vt 0 0.875
vt 0 0.75
vt 0.0625 0.75
vt 0.0625 0.875
vt 0.1875 1
vt 0.0625 1
vt 0.0625 0.9375
vt 0.1875 0.9375
vt 0.1875 0.6875
vt 0.1875 0.8125
vt 0.125 0.8125
vt 0.125 0.6875
vt 0.25 0.9375
vt 0.375 0.9375
vt 0.375 1
vt 0.25 1
vt 1 0.375
vt 1 0.6875
vt 0.5 0.6875
vt 0.5 0.375
vt 0.5 0.375
vt 0.5 0.6875
vt 1 0.6875
vt 1 0.375
vt 1 0.375
vt 0.5 0.375
vt 0.5 0.1875
vt 1 0.1875
vt 0.1875 0.1875
vt 0.1875 0.6875
vt 0 0.6875
vt 0 0.1875
vt 0.6875 0.6875
vt 0.6875 1
vt 0.5 1
vt 0.5 0.6875
vt 1 0.6875
vt 1 1
vt 0.8125 1
vt 0.8125 0.6875
vn 0 0 1
vn -0.9701425001453319 0 0.2425356250363331
vn 0 0 -1
vn 0.970142500145332 0 0.24253562503633294
vn 0 0.970142500145332 0.24253562503633294
vn 0 -0.9701425001453319 0.2425356250363331
vn 0 1 0
vn 1 0 0
vn 0 -1 0
vn -1 0 3.33066907387547e-16
vn -0.8660254037844388 0 -0.5000000000000001
vn 0.27502923746846397 0 -0.9614358629349726
vn 0.8660254037844386 0 0.5000000000000001
vn -0.6951132626768669 0 0.71890023789864
vn -0.2100420126042015 0.9701425001453319 -0.12126781251816646
vn -0.2100420126042017 -0.9701425001453319 -0.12126781251816657
vn 0 1 0
vn -0.4999999999999999 0 0.8660254037844389
vn 0 -1 0
vn 0.4999999999999995 0 -0.866025403784439
vn 0 1 0
vn -0.970142500145332 0.242535625036333 0
vn 0 -1 0
vn 0.970142500145332 0.24253562503633294 0
vn 0 0.24253562503633314 -0.9701425001453319
vn 0 0.24253562503633275 0.970142500145332
vn 0 2.220446049250313e-16 -1
vn 1 0 0
vn 0 -2.220446049250313e-16 1
vn -1 4.440892098500626e-16 0
vn -2.48879544288959e-16 1 3.502000944676177e-15
vn -0.8962947995036002 0.2425356250363344 -0.37125746183886443
vn 2.2122626159018964e-16 -1 -3.112889728601045e-15
vn 0.8962947995036001 0.2425356250363318 0.37125746183886604
vn 0.37125746183886504 0.24253562503633602 -0.8962947995035995
vn -0.37125746183886515 0.24253562503632975 0.8962947995036012
vn 0.3826834323650896 3.2149051025123347e-15 -0.9238795325112868
vn 0.9238795325112867 -1.3170782690383504e-15 0.3826834323650898
vn -0.3826834323650896 -3.1372218240438357e-15 0.9238795325112868
vn -0.9238795325112868 1.812335992178795e-15 -0.38268343236509
vn 4.756061683561427e-16 1 4.5527921726732405e-15
vn -0.9116357484973606 0.24253562503633114 0.3318082769460298
vn -4.227610385387923e-16 -1 -4.046926375709545e-15
vn 0.9116357484973607 0.24253562503633386 -0.3318082769460276
vn -0.33180827694602905 0.24253562503633724 -0.9116357484973593
vn 0.33180827694602877 0.24253562503632892 0.9116357484973616
vn -0.3420201433256688 3.983597364004191e-15 -0.9396926207859085
vn 0.9396926207859086 1.3669870968207114e-15 -0.3420201433256683
vn 0.3420201433256684 -3.964419857934112e-15 0.9396926207859085
vn -0.9396926207859086 -9.496797433539636e-16 0.3420201433256686
vn 0.5735764363510457 -6.071532165918835e-15 0.8191520442889922
vn -0.6555814927491681 -5.385372704143812e-15 0.755124431047475
vn -0.5735764363510458 6.236437977832661e-15 -0.819152044288992
vn 0.9338069317421954 1.5557743367526567e-15 -0.3577773249246335
vn 0.13911271949651383 0.9701425001453303 0.19867355306142775
vn 0.13911271949651302 -0.9701425001453334 0.19867355306141352
vn 8.419360661207935e-16 1 8.084595180261351e-15
vn 0.8191520442889918 3.083952846180989e-15 -0.5735764363510464
vn -3.3249785330528363e-16 -1 -7.357042012070634e-15
vn -0.8191520442889916 -3.700743415417187e-15 0.5735764363510465
vn 0.9396926207859085 0 -0.3420201433256687
vn -0.9396926207859085 0 0.34202014332566866
vn 0 1 0
vn 0 -1 0
vn 0.3420201433256687 0 0.9396926207859084
vn -0.3420201433256685 0 -0.9396926207859085
usemtl m_078d5f70-3e34-7a4e-536f-9f0697698472
f 9/25/7 10/26/7 11/27/7 12/28/7
f 12/29/8 17/30/8 20/31/8 9/32/8
f 15/33/9 13/34/9 14/35/9 16/36/9
f 10/37/10 19/38/10 18/39/10 11/40/10
f 11/41/11 18/42/11 17/43/11 12/44/11
f 9/45/12 20/46/12 19/47/12 10/48/12
f 14/49/13 17/50/13 18/51/13 16/52/13
f 16/53/14 18/54/14 19/55/14 15/56/14
f 15/57/15 19/58/15 20/59/15 13/60/15
f 13/61/16 20/62/16 17/63/16 14/64/16
f 21/65/17 22/66/17 23/67/17 24/68/17
f 24/69/18 29/70/18 32/71/18 21/72/18
f 27/73/19 25/74/19 26/75/19 28/76/19
f 22/77/20 31/78/20 30/79/20 23/80/20
f 23/81/21 30/82/21 29/83/21 24/84/21
f 21/85/22 32/86/22 31/87/22 22/88/22
f 26/89/23 29/90/23 30/91/23 28/92/23
f 28/93/24 30/94/24 31/95/24 27/96/24
f 27/97/25 31/98/25 32/99/25 25/100/25
f 25/101/26 32/102/26 29/103/26 26/104/26
f 33/105/27 34/106/27 35/107/27 36/108/27
f 36/109/28 41/110/28 44/111/28 33/112/28
f 39/113/29 37/114/29 38/115/29 40/116/29
f 34/117/30 43/118/30 42/119/30 35/120/30
f 35/121/31 42/122/31 41/123/31 36/124/31
f 33/125/32 44/126/32 43/127/32 34/128/32
f 38/129/33 41/130/33 42/131/33 40/132/33
f 40/133/34 42/134/34 43/135/34 39/136/34
f 39/137/35 43/138/35 44/139/35 37/140/35
f 37/141/36 44/142/36 41/143/36 38/144/36
f 45/145/37 46/146/37 47/147/37 48/148/37
f 48/149/38 53/150/38 56/151/38 45/152/38
f 51/153/39 49/154/39 50/155/39 52/156/39
f 46/157/40 55/158/40 54/159/40 47/160/40
f 47/161/41 54/162/41 53/163/41 48/164/41
f 45/165/42 56/166/42 55/167/42 46/168/42
f 50/169/43 53/170/43 54/171/43 52/172/43
f 52/173/44 54/174/44 55/175/44 51/176/44
f 51/177/45 55/178/45 56/179/45 49/180/45
f 49/181/46 56/182/46 53/183/46 50/184/46
f 57/185/47 58/186/47 59/187/47 60/188/47
f 60/189/48 65/190/48 68/191/48 57/192/48
f 63/193/49 61/194/49 62/195/49 64/196/49
f 58/197/50 67/198/50 66/199/50 59/200/50
f 59/201/51 66/202/51 65/203/51 60/204/51
f 57/205/52 68/206/52 67/207/52 58/208/52
f 62/209/53 65/210/53 66/211/53 64/212/53
f 64/213/54 66/214/54 67/215/54 63/216/54
f 63/217/55 67/218/55 68/219/55 61/220/55
f 61/221/56 68/222/56 65/223/56 62/224/56
f 69/225/57 70/226/57 71/227/57 72/228/57
f 72/229/58 77/230/58 80/231/58 69/232/58
f 75/233/59 73/234/59 74/235/59 76/236/59
f 70/237/60 79/238/60 78/239/60 71/240/60
f 71/241/61 78/242/61 77/243/61 72/244/61
f 69/245/62 80/246/62 79/247/62 70/248/62
f 74/249/63 77/250/63 78/251/63 76/252/63
f 76/253/64 78/254/64 79/255/64 75/256/64
f 75/257/65 79/258/65 80/259/65 73/260/65
f 73/261/66 80/262/66 77/263/66 74/264/66
f 84/265/67 82/266/67 81/267/67 83/268/67
f 87/269/68 85/270/68 86/271/68 88/272/68
f 81/273/69 82/274/69 86/275/69 85/276/69
f 84/277/70 83/278/70 87/279/70 88/280/70
f 83/281/71 81/282/71 85/283/71 87/284/71
f 88/285/72 86/286/72 82/287/72 84/288/72