# Made in Blockbench 4.5.2
mtllib bullet3700he.mtl

o #tracer
v 0.0625 -0.0625 -0.75
v -0.0625 -0.0625 -0.75
v -0.0625 0.0625 -0.75
v 0.0625 0.0625 -0.75
v 0.0625 -0.0625 0.75
v 0.0625 0.0625 0.75
v -0.0625 -0.0625 0.75
v -0.0625 0.0625 0.75
vt 0 0.875
vt 0.125 0.875
vt 0.125 1
vt 0 1
vt 0 0.875
vt 1 0.875
vt 1 1
vt 0 1
vt 0 0.875
vt 0.125 0.875
vt 0.125 1
vt 0 1
vt 0 0.875
vt 1 0.875
vt 1 1
vt 0 1
vt 0 0
vt 0.125 0
vt 0.125 1
vt 0 1
vt 0 0
vt 0.125 0
vt 0.125 1
vt 0 1
vn 0 0 -1
vn 1 0 0
vn 0 0 1
vn -1 0 0
vn 0 1 0
vn 0 -1 0
usemtl none
f 1/1/1 2/2/1 3/3/1 4/4/1
f 5/5/2 1/6/2 4/7/2 6/8/2
f 7/9/3 5/10/3 6/11/3 8/12/3
f 2/13/4 7/14/4 8/15/4 3/16/4
f 8/17/5 6/18/5 4/19/5 3/20/5
f 2/21/6 1/22/6 5/23/6 7/24/6
o bodyModel
v 0.09375 0.09375 0.09375
v 0.09375 0.09375 -0.46875
v 0.09375 -0.09375 0.09375
v 0.09375 -0.09375 -0.46875
v -0.09375 0.09375 0.09375
v -0.09375 0.09375 -0.46875
v -0.09375 -0.09375 0.09375
v -0.09375 -0.09375 -0.46875
v 0.0390625 0.0390625 0.46875
v 0.078125 0.078125 0.28125
v 0.0390625 -0.0390625 0.46875
v 0.078125 -0.078125 0.28125
v -0.0390625 0.0390625 0.46875
v -0.078125 0.078125 0.28125
v -0.0390625 -0.0390625 0.46875
v -0.078125 -0.078125 0.28125
v 0.078125 0.078125 0.28125
v 0.09375 0.09375 0.09375
v 0.078125 -0.078125 0.28125
v 0.09375 -0.09375 0.09375
v -0.078125 0.078125 0.28125
v -0.09375 0.09375 0.09375
v -0.078125 -0.078125 0.28125
v -0.09375 -0.09375 0.09375
vt 0.5625 0.8125
vt 0.5625 1
vt 0 1
vt 0 0.8125
vt 0 0.8125
vt 0 1
vt 0.5625 1
vt 0.5625 0.8125
vt 0.1875 0.0625
vt 0.1875 0.625
vt 0 0.625
vt 0 0.0625
vt 0.1875 0.625
vt 0.1875 0.0625
vt 0 0.0625
vt 0 0.625
vt 0.5625 0.4375
vt 0.5625 0.625
vt 0.375 0.625
vt 0.375 0.4375
vt 0.75 0.8125
vt 0.75 1
vt 0.5625 1
vt 0.5625 0.8125
vt 0.9375 0.28125
vt 0.9375 0.4375
vt 0.75 0.3984375
vt 0.75 0.3203125
vt 0.75 0.3203125
vt 0.75 0.3984375
vt 0.9375 0.4375
vt 0.9375 0.28125
vt 0.75 0.3203125
vt 0.9375 0.28125
vt 0.9375 0.4375
vt 0.75 0.3984375
vt 0.9375 0.4375
vt 0.75 0.3984375
vt 0.75 0.3203125
vt 0.9375 0.28125
vt 0.0625 0
vt 0.0625 0.0625
vt 0 0.0625
vt 0 0
vt 0.75 0.625
vt 0.75 0.8125
vt 0.5625 0.8125
vt 0.5625 0.625
vt 0.9375 0.625
vt 0.9375 0.8125
vt 0.75 0.796875
vt 0.75 0.640625
vt 0.734375 0.25
vt 0.578125 0.25
vt 0.5625 0.4375
vt 0.75 0.4375
vt 0.734375 0.25
vt 0.75 0.4375
vt 0.5625 0.4375
vt 0.578125 0.25
vt 0.75 0.625
vt 0.9375 0.640625
vt 0.9375 0.796875
vt 0.75 0.8125
vt 0.5625 0.25
vt 0.5625 0.4375
vt 0.375 0.4375
vt 0.375 0.25
vt 0.75 0.4375
vt 0.75 0.625
vt 0.5625 0.625
vt 0.5625 0.4375
vn 1 0 0
vn -1 0 0
vn 0 1 0
vn 0 -1 0
vn 0 0 1
vn 0 0 -1
vn 0.9789804197376051 0 0.20395425411200105
vn -0.9789804197376051 0 0.20395425411200105
vn 0 0.9789804197376051 0.20395425411200105
vn 0 -0.9789804197376051 0.20395425411200105
vn 0 0 1
vn 0 0 -1
vn 0.9965457582448797 0 0.08304547985373997
vn -0.9965457582448797 0 0.08304547985373997
vn 0 0.9965457582448797 0.08304547985373997
vn 0 -0.9965457582448797 0.08304547985373997
vn 0 0 1
vn 0 0 -1
usemtl m_1d032006-2f9f-ace0-26e2-20bade786f85
f 12/25/7 10/26/7 9/27/7 11/28/7
f 15/29/8 13/30/8 14/31/8 16/32/8
f 9/33/9 10/34/9 14/35/9 13/36/9
f 12/37/10 11/38/10 15/39/10 16/40/10
f 11/41/11 9/42/11 13/43/11 15/44/11
f 16/45/12 14/46/12 10/47/12 12/48/12
f 20/49/13 18/50/13 17/51/13 19/52/13
f 23/53/14 21/54/14 22/55/14 24/56/14
f 17/57/15 18/58/15 22/59/15 21/60/15
f 20/61/16 19/62/16 23/63/16 24/64/16
f 19/65/17 17/66/17 21/67/17 23/68/17
f 24/69/18 22/70/18 18/71/18 20/72/18
f 28/73/19 26/74/19 25/75/19 27/76/19
f 31/77/20 29/78/20 30/79/20 32/80/20
f 25/81/21 26/82/21 30/83/21 29/84/21
f 28/85/22 27/86/22 31/87/22 32/88/22
f 27/89/23 25/90/23 29/91/23 31/92/23
f 32/93/24 30/94/24 26/95/24 28/96/24