# Made in Blockbench 4.7.2
mtllib casing762.mtl

o cube
v 0.03125 0.031249999999999778 -0.10156250000000006
v 0.03125 -0.03125000000000022 -0.10156249999999994
v 0.03125 0.03125000000000022 0.1015625
v 0.03125 -0.031249999999999778 0.1015625
v -0.03125 -0.03125000000000022 -0.10156249999999994
v -0.03125 0.031249999999999778 -0.10156250000000006
v -0.03125 -0.031249999999999778 0.1015625
v -0.03125 0.03125000000000022 0.1015625
vt 0 1
vt 0.125 1
vt 0.125 0.625
vt 0 0.625
vt 0.125 1
vt 0.25 1
vt 0.25 0.625
vt 0.125 0.625
vt 0.25 1
vt 0.375 1
vt 0.375 0.625
vt 0.25 0.625
vt 0 0.625
vt 0.125 0.625
vt 0.125 0.25
vt 0 0.25
vt 0.5 0.875
vt 0.375 0.875
vt 0.375 1
vt 0.5 1
vt 0.25 0.625
vt 0.125 0.625
vt 0.125 0.5
vt 0.25 0.5
vn 0 -1 1.9984014443252818e-15
vn 1 0 0
vn 0 1 -1.9984014443252818e-15
vn -1 0 0
vn 0 -1.9984014443252818e-15 -1
vn 0 1.9984014443252818e-15 1
usemtl m_aa21d54b-a41b-3684-14f3-6add2a3e9d6f
f 4/4/1 7/3/1 5/2/1 2/1/1
f 3/8/2 4/7/2 2/6/2 1/5/2
f 8/12/3 3/11/3 1/10/3 6/9/3
f 7/16/4 8/15/4 6/14/4 5/13/4
f 6/20/5 1/19/5 2/18/5 5/17/5
f 7/24/6 4/23/6 3/22/6 8/21/6