# Made in Blockbench 4.7.2
mtllib casing37solid.mtl

o bodyModel
v 0.06250000093132257 -0.062499999068668176 0.3125000000000018
v -0.0624999990686774 -0.06250000093131333 0.3125000000000018
v -0.0624999990686773 -0.06250000093132714 -0.15507812499999807
v 0.06250000093132267 -0.062499999068681984 -0.15507812499999807
v 0.062499999068677495 0.062500000931318 -0.1550781250000018
v -0.06250000093132248 0.062499999068672825 -0.1550781250000018
v -0.06250000093132257 0.06249999906868663 0.3124999999999981
v 0.0624999990686774 0.06250000093133179 0.3124999999999981
v 0.06250000093132267 -0.062499999068681984 -0.15507812499999807
v -0.0624999990686773 -0.06250000093132714 -0.15507812499999807
v -0.05208333255723102 -0.05208333410944465 -0.31093749999999837
v 0.05208333410943561 -0.05208333255724035 -0.31093749999999837
v 0.0520833325572313 0.05208333410942629 -0.3109375000000015
v -0.05208333410943533 0.05208333255722199 -0.3109375000000015
v -0.06250000093132248 0.062499999068672825 -0.1550781250000018
v 0.062499999068677495 0.062500000931318 -0.1550781250000018
vt 0.5625 0.8125
vt 0.5625 1
vt 0 1
vt 0 0.8125
vt 0 0.8125
vt 0 1
vt 0.5625 1
vt 0.5625 0.8125
vt 0.1875 0.0625
vt 0.1875 0.625
vt 0 0.625
vt 0 0.0625
vt 0.1875 0.625
vt 0.1875 0.0625
vt 0 0.0625
vt 0 0.625
vt 0.5625 0.4375
vt 0.5625 0.625
vt 0.375 0.625
vt 0.375 0.4375
vt 0.5625 0.8125
vt 0.5625 1
vt 0.75 1
vt 0.75 0.8125
vt 0.375 0.625
vt 0.375 0.8125
vt 0.1875 0.796875
vt 0.1875 0.640625
vt 0.359375 0.4375
vt 0.203125 0.4375
vt 0.1875 0.625
vt 0.375 0.625
vt 0.359375 0.4375
vt 0.375 0.625
vt 0.1875 0.625
vt 0.203125 0.4375
vt 0.1875 0.625
vt 0.375 0.640625
vt 0.375 0.796875
vt 0.1875 0.8125
vt 0.1875 0.625
vt 0.1875 0.8125
vt 0 0.8125
vt 0 0.625
vt 0.75 0.4375
vt 0.75 0.625
vt 0.5625 0.625
vt 0.5625 0.4375
vn 1.4901161304869962e-8 -1 2.953193245502917e-14
vn -1.4901161304869962e-8 1 -2.953193245502917e-14
vn -1 -1.4901161415892264e-8 -2.0776059378789014e-16
vn 1 1.4901161415892264e-8 2.0776059378789014e-16
vn 4.43368811631778e-22 -2.9753977059954195e-14 -1
vn -4.43368811631778e-22 2.9753977059954195e-14 1
vn 1.4867992497978614e-8 -0.9977740790658707 -0.06668498439869192
vn -1.4867992497978555e-8 0.9977740790658667 -0.0666849843987509
vn -0.9977740790658686 -1.4867994592897254e-8 -0.06668498439872166
vn 0.9977740790658687 1.4867990624610264e-8 -0.06668498439872116
vn 4.43368811631778e-22 -2.9753977059954195e-14 -1
vn -4.43368811631778e-22 2.9753977059954195e-14 1
usemtl m_03d4bfde-0534-3968-c247-4c24966a7f8d
f 1/1/1 2/2/1 3/3/1 4/4/1
f 5/5/2 6/6/2 7/7/2 8/8/2
f 3/9/3 2/10/3 7/11/3 6/12/3
f 1/13/4 4/14/4 5/15/4 8/16/4
f 4/17/5 3/18/5 6/19/5 5/20/5
f 8/21/6 7/22/6 2/23/6 1/24/6
f 9/25/7 10/26/7 11/27/7 12/28/7
f 13/29/8 14/30/8 15/31/8 16/32/8
f 11/33/9 10/34/9 15/35/9 14/36/9
f 9/37/10 12/38/10 13/39/10 16/40/10
f 12/41/11 11/42/11 14/43/11 13/44/11
f 16/45/12 15/46/12 10/47/12 9/48/12