# Made in Blockbench 4.9.4
mtllib extinguisherfoam.mtl

o cube
v 0.03125 -0.03125 -0.03125
v -0.03125 -0.03125 -0.03125
v -0.03125 0.03125 -0.03125
v 0.03125 0.03125 -0.03125
v 0.03125 -0.03125 0.03125
v 0.03125 0.03125 0.03125
v -0.03125 -0.03125 0.03125
v -0.03125 0.03125 0.03125
vt 0 0.9375
vt 0.0625 0.9375
vt 0.0625 1
vt 0 1
vt 0 0.9375
vt 0.0625 0.9375
vt 0.0625 1
vt 0 1
vt 0 0.9375
vt 0.0625 0.9375
vt 0.0625 1
vt 0 1
vt 0 0.9375
vt 0.0625 0.9375
vt 0.0625 1
vt 0 1
vt 0 0.9375
vt 0.0625 0.9375
vt 0.0625 1
vt 0 1
vt 0 0.9375
vt 0.0625 0.9375
vt 0.0625 1
vt 0 1
vn 0 0 -1
vn 1 0 0
vn 0 0 1
vn -1 0 0
vn 0 1 0
vn 0 -1 0
usemtl none
f 1/1/1 2/2/1 3/3/1 4/4/1
f 5/5/2 1/6/2 4/7/2 6/8/2
f 7/9/3 5/10/3 6/11/3 8/12/3
f 2/13/4 7/14/4 8/15/4 3/16/4
f 8/17/5 6/18/5 4/19/5 3/20/5
f 2/21/6 1/22/6 5/23/6 7/24/6
o benchdisplay
v -0.023246304781713564 0.22151183239698724 -0.06117405202591262
v -0.07452393735028986 0.3123538975180539 0.028405932360678867
v 0.04319996805963488 0.30883401657097354 0.0993632613207904
v 0.09447760062821117 0.21799195144990685 0.00978327693419892
v -0.09202445551023564 0.025149427550697184 0.3096390917140935
v -0.20974836092016036 0.028669308497777574 0.23868176275398192
v -0.15847072835158407 -0.06217275662328911 0.14910177836739044
v -0.04074682294165933 -0.0656926375703695 0.22005910732750197
v 0.055688282717158845 0.3049566974109668 -0.021465196443289876
v 0.04286887457501478 0.3276672136912335 0.0009297996533579947
v 0.13116180363245833 0.3250273029809232 0.05414779637344166
v 0.1439812117746024 0.30231678670065654 0.03175280027679379
v 0.11886867421701555 0.29923779488817076 0.07326378095465105
v 0.030575745159571996 0.30187770559848104 0.020045784234567387
v 0.04339515330171607 0.2791671893182144 -0.002349211862080487
v 0.1316880823591596 0.2765272786079041 0.050868784858003176
v 0.03855043578012044 0.3316261757404893 -0.05832051326452712
v 0.025731027637976363 0.354336692020756 -0.03592551716787925
v 0.055162003990457543 0.3534567217839859 -0.018186184927851366
v 0.06798141213260162 0.33074620550371925 -0.04058118102449924
v 0.01828261574412921 0.27608819750572866 0.03916176881577677
v -0.011148360608351976 0.27696816774249877 0.021422436575748882
v 0.0016710475337920992 0.2542576514622321 -0.0009725595208989884
v 0.03110202388627329 0.253377681225462 0.016766772719128898
v -0.07432875210820866 0.2826870702652948 -0.07330654082219204
v -0.08714816025035274 0.3053975865455615 -0.05091154472554416
v 0.0011447688070908082 0.30275767583525115 0.002306451994539497
v 0.01396417694923488 0.2800471595549845 -0.02008854410210837
v -0.011148360608351976 0.27696816774249877 0.021422436575748882
v -0.09944128966579552 0.27960807845280905 -0.031795560144334774
v -0.08662188152365144 0.2568975621725424 -0.05419055624098266
v 0.0016710475337920992 0.2542576514622321 -0.0009725595208989884
v 0.06373092745897674 0.34012198261922466 0.0002414734827672696
v 0.004868974754014384 0.34188192309276483 -0.035237190997288496
v -0.007950433388129688 0.3645924393730315 -0.012842194900640626
v 0.05091151931683267 0.3628324988994913 0.022636469579415144
v -0.032536692219015236 0.3130134231875267 0.02538977426177811
v -0.019717284076871164 0.29030290690726 0.002994778165130243
v 0.03914466862809119 0.28854296643371985 0.03847344264518601
v 0.02632526048594712 0.3112534827139865 0.06086843874183388
v 0.03307990318035689 0.32604396246966305 0.050395634866111705
v 0.048446314949660375 0.3582808475856035 0.026500654139599965
v -0.010415637755301986 0.36004078805914375 -0.008978010340455804
v -0.025782049524605465 0.3278039029432033 0.014916970386055932
v -0.08662188152365144 0.2568975621725424 -0.05419055624098266
v -0.09944128966579552 0.27960807845280905 -0.031795560144334774
v -0.07001031331331434 0.278728108216039 -0.01405622790430689
v -0.05719090517117026 0.2560175919357723 -0.03645122400095476
v -0.11918283097508542 0.17557007584502937 0.062407710420530574
v -0.14861380732756663 0.17645004608179948 0.044668378180502684
v -0.13579439918542255 0.1537395298015328 0.022273382083854813
v -0.10636342283294134 0.15285955956476271 0.0400127143238827
v -0.1441001832905911 0.14282425677978453 0.0022062179155169365
v -0.16973899957487923 0.18824528934031787 0.046996210108812685
v -0.11087704686991687 0.18648534886677767 0.08247487458886846
v -0.08523823058562872 0.14106431630624433 0.037684882395572716
v -0.1907823880702949 0.018853546263887105 0.20672877436672937
v -0.24964434077525727 0.0206134867374273 0.1712501098866736
v -0.22400552449096914 -0.024807545823106042 0.1264601176933778
v -0.16514357178600675 -0.026567486296646237 0.1619387821734336
v -0.00534463950028756 0.31363697198342133 0.04691824352284346
v 0.031534608159017145 0.33565410090115644 0.04570144326561126
v 0.02850503621298791 0.3403686431455347 0.0391862821538424
v -0.008374211446316823 0.3183515142277996 0.04040308241107461
v -0.006771785428548813 0.31551269969276624 0.03760370789899362
v 0.030107462230755916 0.3375298286105014 0.03638690764176141
v 0.03313703417678516 0.3328152863661231 0.042902068753530274
v -0.00374221348251955 0.310798157448388 0.04411886901076248
v 3.469446951953614e-18 2.7755575615628914e-17 -0.06249999999999999
v 0 0.3125 -0.06249999999999999
v 0.1707531754730548 2.7755575615628914e-17 0.25
v 0.3415063509461097 2.7755575615628914e-17 -0.06249999999999995
v 0.17075317547305477 8.326672684688674e-17 -0.37499999999999994
v -0.17075317547305485 8.326672684688674e-17 -0.37499999999999994
v -0.34150635094610965 5.551115123125783e-17 -0.06250000000000006
v -0.17075317547305496 0 0.24999999999999986
v -0.06249999999999998 5.551115123125783e-17 0.125
v -0.06249999999999998 0.18750000000000003 0.125
v 0.07700317547305482 -2.7755575615628914e-17 0.375
v 0.21650635094610968 5.551115123125783e-17 0.12500000000000008
v 0.07700317547305482 5.551115123125783e-17 -0.12500000000000003
v -0.20200317547305488 5.551115123125783e-17 -0.125
v -0.3415063509461096 2.7755575615628914e-17 0.12499999999999994
v -0.20200317547305494 5.551115123125783e-17 0.37499999999999994
vt 0.15625 0.5
vt 0.28125 0.5
vt 0.28125 0.625
vt 0.15625 0.625
vt 0.4375 0.5
vt 0.4375 0.625
vt 0.3125 0.625
vt 0.3125 0.5
vt 0.125 0.65625
vt 0.125 1
vt 0 1
vt 0 0.65625
vt 0.28125 1
vt 0.15625 1
vt 0.15625 0.65625
vt 0.28125 0.65625
vt 0.3125 1
vt 0.4375 1
vt 0.4375 0.65625
vt 0.3125 0.65625
vt 0.125 0.28125
vt 0.125 0.625
vt 0 0.625
vt 0 0.28125
vt 0.65625 0.53125
vt 0.6875 0.53125
vt 0.6875 0.625
vt 0.65625 0.625
vt 0.65625 0.90625
vt 0.65625 1
vt 0.625 1
vt 0.625 0.90625
vt 0.75 0.5625
vt 0.75 0.59375
vt 0.71875 0.59375
vt 0.71875 0.5625
vt 0.75 0.53125
vt 0.71875 0.53125
vt 0.71875 0.5
vt 0.75 0.5
vt 0.6875 0.625
vt 0.6875 0.53125
vt 0.65625 0.53125
vt 0.65625 0.625
vt 0.6875 0.53125
vt 0.65625 0.53125
vt 0.65625 0.625
vt 0.6875 0.625
vt 0.71875 0.5625
vt 0.75 0.5625
vt 0.75 0.59375
vt 0.71875 0.59375
vt 0.03125 0.21875
vt 0.03125 0.25
vt 0 0.25
vt 0 0.21875
vt 0.6875 0.78125
vt 0.6875 0.875
vt 0.65625 0.875
vt 0.65625 0.78125
vt 0.6875 0.75
vt 0.65625 0.75
vt 0.65625 0.65625
vt 0.6875 0.65625
vt 0.6875 0.625
vt 0.65625 0.625
vt 0.65625 0.53125
vt 0.6875 0.53125
vt 0.6875 0.53125
vt 0.6875 0.625
vt 0.65625 0.625
vt 0.65625 0.53125
vt 0.375 0.4375
vt 0.40625 0.4375
vt 0.40625 0.34375
vt 0.375 0.34375
vt 0.71875 0.90625
vt 0.71875 1
vt 0.6875 1
vt 0.6875 0.90625
vt 0.78125 0.96875
vt 0.78125 1
vt 0.75 1
vt 0.75 0.96875
vt 0.09375 0.25
vt 0.0625 0.25
vt 0.0625 0.21875
vt 0.09375 0.21875
vt 0.34375 0.3125
vt 0.25 0.3125
vt 0.25 0.28125
vt 0.34375 0.28125
vt 0.34375 0.28125
vt 0.34375 0.3125
vt 0.25 0.3125
vt 0.25 0.28125
vt 0.40625 0.3125
vt 0.40625 0.25
vt 0.375 0.25
vt 0.375 0.3125
vt 0.71875 0.875
vt 0.75 0.875
vt 0.75 0.8125
vt 0.71875 0.8125
vt 0.71875 0.78125
vt 0.75 0.78125
vt 0.75 0.71875
vt 0.71875 0.71875
vt 0.71875 0.625
vt 0.71875 0.6875
vt 0.75 0.6875
vt 0.75 0.625
vt 0.5625 0.59375
vt 0.5625 0.65625
vt 0.625 0.65625
vt 0.625 0.59375
vt 0.5625 0.5625
vt 0.625 0.5625
vt 0.625 0.5
vt 0.5625 0.5
vt 0.34374999999999994 0
vt 0.34374999999999994 0.21875
vt 0 0.21875
vt 0 0
vt 0.75 0.90625
vt 0.78125 0.90625
vt 0.78125 0.9375
vt 0.75 0.9375
vt 0.28125 0.21875
vt 0.28125 0.25
vt 0.25 0.25
vt 0.25 0.21875
vt 0.28125 0.34375
vt 0.28125 0.46875
vt 0.25 0.46875
vt 0.25 0.34375
vt 0.34375 0.46875
vt 0.3125 0.46875
vt 0.3125 0.34375
vt 0.34375 0.34375
vt 0.40625 0.46875
vt 0.375 0.46875
vt 0.375 0.34375
vt 0.40625 0.34375
vt 0.59375 0.875
vt 0.59375 1
vt 0.5625 1
vt 0.5625 0.875
vt 0.5625 0.78125
vt 0.625 0.78125
vt 0.625 0.84375
vt 0.5625 0.84375
vt 0.625 0.6875
vt 0.625 0.75
vt 0.5625 0.75
vt 0.5625 0.6875
vt 0.21875 0.25
vt 0.21875 0.46875
vt 0.15625 0.46875
vt 0.15625 0.25
vt 0.21875 0.46875
vt 0.15625 0.46875
vt 0.15625 0.25
vt 0.21875 0.25
vt 0.15625 0.46875
vt 0.21875 0.46875
vt 0.21875 0.25
vt 0.15625 0.25
vt 0.21875 0.25
vt 0.21875 0.46875
vt 0.15625 0.46875
vt 0.15625 0.25
vt 0.1640625 0.4140625
vt 0.1640625 0.453125
vt 0.15625 0.453125
vt 0.15625 0.4140625
vt 0.1640625 0.4140625
vt 0.1640625 0.453125
vt 0.15625 0.453125
vt 0.15625 0.4140625
vt 0.16015625 0.4453125
vt 0.16015625 0.453125
vt 0.15625 0.453125
vt 0.15625 0.4453125
vt 0.16015625 0.4453125
vt 0.16015625 0.453125
vt 0.15625 0.453125
vt 0.15625 0.4453125
vt 0.16015625 0.4140625
vt 0.16015625 0.453125
vt 0.15625 0.453125
vt 0.15625 0.4140625
vt 0.16015625 0.4140625
vt 0.16015625 0.453125
vt 0.15625 0.453125
vt 0.15625 0.4140625
vt 0.6395031250000001 0.375
vt 0.569753125 0.5
vt 0.5 0.375
vt 0.71875 0.1875
vt 1 0.1875
vt 0.854048125 0.5
vt 0.569753125 0.375
vt 0.6395031250000001 0.5
vt 0.5 0.5
vt 0.71875 0.125
vt 1 0.125
vt 0.841110625 0.4375
vt 0.5 0.375
vt 0.6395062499999999 0.375
vt 0.569753125 0.5
vt 0.5 0.125
vt 0.725 0.125
vt 0.6255556250000001 0.4375
vt 0.5 0.5
vt 0.56975 0.375
vt 0.6395031250000001 0.5
vt 0.53125 0.03125
vt 0.8125 0.03125
vt 0.666548125 0.34375
vt 0.56975 0.5
vt 0.5 0.375
vt 0.6395031250000001 0.375
vt 0.71875 0.1875
vt 1 0.1875
vt 0.841110625 0.5
vt 0.6395062499999999 0.5
vt 0.5 0.5
vt 0.569753125 0.375
vt 0.5 0.125
vt 0.725 0.125
vt 0.6255556250000001 0.4375
vt 0.6395031250000001 0.375
vt 0.569753125 0.5
vt 0.5 0.375
vt 0.71875 0.1875
vt 1 0.1875
vt 0.854048125 0.5
vt 0.569753125 0.375
vt 0.6395031250000001 0.5
vt 0.5 0.5
vt 0.71875 0.125
vt 1 0.125
vt 0.841110625 0.4375
vt 0.5 0.375
vt 0.6395062499999999 0.375
vt 0.569753125 0.5
vt 0.5 0.125
vt 0.725 0.125
vt 0.6255556250000001 0.4375
vt 0.5 0.5
vt 0.56975 0.375
vt 0.6395031250000001 0.5
vt 0.53125 0.03125
vt 0.8125 0.03125
vt 0.666548125 0.34375
vt 0.56975 0.5
vt 0.5 0.375
vt 0.6395031250000001 0.375
vt 0.71875 0.1875
vt 1 0.1875
vt 0.841110625 0.5
vt 0.6395062499999999 0.5
vt 0.5 0.5
vt 0.569753125 0.375
vt 0.5 0.125
vt 0.725 0.125
vt 0.6255556250000001 0.4375
vn 0.35761831026742597 0.7502402354255243 -0.5561013696351815
vn -0.35761831026742597 -0.7502402354255243 0.5561013696351815
vn -0.8561738575267251 0.02559913416058465 -0.5160533015280839
vn 0.8561738575267251 -0.02559913416058465 0.5160533015280839
vn -0.37292823686237275 0.6606695645168486 0.6514907955388468
vn 0.37292823686237275 -0.6606695645168486 -0.6514907955388468
vn 0.35761831026742597 0.7502402354255243 -0.5561013696351815
vn -0.35761831026742597 -0.7502402354255243 0.5561013696351815
vn -0.8561738575267251 0.02559913416058465 -0.5160533015280839
vn 0.8561738575267251 -0.02559913416058465 0.5160533015280839
vn -0.37292823686237275 0.6606695645168486 0.6514907955388468
vn 0.37292823686237275 -0.6606695645168486 -0.6514907955388468
vn 0.35761831026742597 0.7502402354255243 -0.5561013696351815
vn -0.35761831026742597 -0.7502402354255243 0.5561013696351815
vn -0.8561738575267251 0.02559913416058465 -0.5160533015280839
vn 0.8561738575267251 -0.02559913416058465 0.5160533015280839
vn -0.37292823686237275 0.6606695645168486 0.6514907955388468
vn 0.37292823686237275 -0.6606695645168486 -0.6514907955388468
vn 0.35761831026742597 0.7502402354255243 -0.5561013696351815
vn -0.35761831026742597 -0.7502402354255243 0.5561013696351815
vn -0.8561738575267251 0.02559913416058465 -0.5160533015280839
vn 0.8561738575267251 -0.02559913416058465 0.5160533015280839
vn -0.37292823686237275 0.6606695645168486 0.6514907955388468
vn 0.37292823686237275 -0.6606695645168486 -0.6514907955388468
vn 0.35761831026742597 0.7502402354255243 -0.5561013696351815
vn -0.35761831026742597 -0.7502402354255243 0.5561013696351815
vn -0.8561738575267251 0.02559913416058465 -0.5160533015280839
vn 0.8561738575267251 -0.02559913416058465 0.5160533015280839
vn 0.37292823686237275 -0.6606695645168486 -0.6514907955388468
vn -0.37292823686237275 0.6606695645168486 0.6514907955388468
vn -0.37292823686237275 0.6606695645168486 0.6514907955388468
vn 0.35761831026742597 0.7502402354255243 -0.5561013696351815
vn -0.35761831026742597 -0.7502402354255243 0.5561013696351815
vn -0.8561738575267251 0.02559913416058465 -0.5160533015280839
vn 0.8561738575267251 -0.02559913416058465 0.5160533015280839
vn -0.37292823686237275 0.6606695645168486 0.6514907955388468
vn 0.37292823686237275 -0.6606695645168486 -0.6514907955388468
vn 0.35761831026742597 0.7502402354255243 -0.5561013696351815
vn -0.35761831026742597 -0.7502402354255243 0.5561013696351815
vn -0.8561738575267251 0.02559913416058465 -0.5160533015280839
vn 0.8561738575267251 -0.02559913416058465 0.5160533015280839
vn -0.37292823686237275 0.6606695645168486 0.6514907955388468
vn 0.37292823686237275 -0.6606695645168486 -0.6514907955388468
vn -0.37292823686237275 0.6606695645168486 0.6514907955388468
vn 0.37292823686237275 -0.6606695645168486 -0.6514907955388468
vn 0.8582806727983636 0.5123986366309272 -0.028318260531950364
vn -0.8582806727983626 -0.5123986366309288 0.02831826053195253
vn -0.3525320082652208 0.5486012793458337 -0.7581278384603781
vn 0.3525320082652205 -0.5486012793458338 0.7581278384603781
vn -6.93889390390723e-17 -1 8.847089727481719e-17
vn 0.6333656581107596 0.6921548630911579 0.34607743154557896
vn -1.7347234759768074e-17 -1 -1.856154119295184e-16
vn 0.6333656581107597 0.6921548630911578 -0.34607743154557896
vn 3.122502256758253e-17 -1 -6.765421556309548e-17
vn -5.551115123125784e-17 0.7071067811865476 -0.7071067811865476
vn -6.93889390390723e-18 -1 3.6429192995512955e-17
vn -0.6333656581107597 0.6921548630911577 -0.34607743154557896
vn 1.7347234759768074e-17 -1 5.2041704279304225e-17
vn -0.63336565811076 0.6921548630911579 0.34607743154557885
vn 1.0755285551056206e-16 -1 -1.1102230246251568e-16
vn -1.6653345369377353e-16 0.7071067811865475 0.7071067811865476
vn -1.0408340855860846e-17 -1 3.469446951953615e-17
vn 0.5325765818187295 0.7924919930271782 0.2971844973851919
vn -2.081668171172169e-17 -1 2.9490299091605727e-17
vn 0.5325765818187296 0.7924919930271782 -0.29718449738519187
vn -4.85722573273506e-17 -1 1.0061396160665481e-16
vn 0 0.8 -0.6
vn 6.245004513516506e-17 -1 -5.0306980803327406e-17
vn -0.5325765818187295 0.7924919930271783 -0.2971844973851917
vn 5.204170427930421e-17 -1 2.5153490401663703e-16
vn -0.5325765818187297 0.7924919930271783 0.2971844973851914
vn -2.081668171172169e-16 -1 7.632783294297952e-17
vn 2.775557561562892e-17 0.8 0.6
usemtl m_a9070daf-64ed-3069-24e7-6a2f80cb6e2b
f 9/25/7 10/26/7 11/27/7 12/28/7
f 13/29/8 14/30/8 15/31/8 16/32/8
f 14/33/9 10/34/9 9/35/9 15/36/9
f 12/37/10 11/38/10 13/39/10 16/40/10
f 11/41/11 10/42/11 14/43/11 13/44/11
f 15/45/12 9/46/12 12/47/12 16/48/12
f 17/49/13 18/50/13 19/51/13 20/52/13
f 21/53/14 22/54/14 23/55/14 24/56/14
f 22/57/15 18/58/15 17/59/15 23/60/15
f 20/61/16 19/62/16 21/63/16 24/64/16
f 19/65/17 18/66/17 22/67/17 21/68/17
f 23/69/18 17/70/18 20/71/18 24/72/18
f 25/73/19 26/74/19 27/75/19 28/76/19
f 29/77/20 30/78/20 31/79/20 32/80/20
f 30/81/21 26/82/21 25/83/21 31/84/21
f 28/85/22 27/86/22 29/87/22 32/88/22
f 27/89/23 26/90/23 30/91/23 29/92/23
f 31/93/24 25/94/24 28/95/24 32/96/24
f 33/97/25 34/98/25 35/99/25 36/100/25
f 37/101/26 38/102/26 39/103/26 40/104/26
f 38/105/27 34/106/27 33/107/27 39/108/27
f 36/109/28 35/110/28 37/111/28 40/112/28
f 35/113/29 34/114/29 38/115/29 37/116/29
f 39/117/30 33/118/30 36/119/30 40/120/30
f 41/121/31 42/122/31 43/123/31 44/124/31
f 45/125/32 46/126/32 47/127/32 48/128/32
f 43/129/33 42/130/33 46/131/33 45/132/33
f 47/133/34 41/134/34 44/135/34 48/136/34
f 46/137/35 42/138/35 41/139/35 47/140/35
f 44/141/36 43/142/36 45/143/36 48/144/36
f 49/145/37 50/146/37 51/147/37 52/148/37
f 53/149/38 54/150/38 55/151/38 56/152/38
f 57/153/39 58/154/39 59/155/39 60/156/39
f 58/157/40 54/158/40 53/159/40 59/160/40
f 56/161/41 55/162/41 57/163/41 60/164/41
f 55/165/42 54/166/42 58/167/42 57/168/42
f 59/169/43 53/170/43 56/171/43 60/172/43
f 61/173/44 62/174/44 63/175/44 64/176/44
f 65/177/45 66/178/45 67/179/45 68/180/45
f 66/181/46 62/182/46 61/183/46 67/184/46
f 64/185/47 63/186/47 65/187/47 68/188/47
f 63/189/48 62/190/48 66/191/48 65/192/48
f 67/193/49 61/194/49 64/195/49 68/196/49
f 69/197/50 70/198/50 71/199/50 72/200/50
f 73/201/51 74/202/51 75/203/51 76/204/51
f 71/205/52 70/206/52 75/207/52 74/208/52
f 69/209/53 72/210/53 73/211/53 76/212/53
f 72/213/54 71/214/54 74/215/54 73/216/54
f 76/217/55 75/218/55 70/219/55 69/220/55
f 80/221/56 79/222/56 77/223/56
f 79/224/57 80/225/57 78/226/57
f 81/227/58 80/228/58 77/229/58
f 80/230/59 81/231/59 78/232/59
f 82/233/60 81/234/60 77/235/60
f 81/236/61 82/237/61 78/238/61
f 83/239/62 82/240/62 77/241/62
f 82/242/63 83/243/63 78/244/63
f 84/245/64 83/246/64 77/247/64
f 83/248/65 84/249/65 78/250/65
f 79/251/66 84/252/66 77/253/66
f 84/254/67 79/255/67 78/256/67
f 88/257/68 87/258/68 85/259/68
f 87/260/69 88/261/69 86/262/69
f 89/263/70 88/264/70 85/265/70
f 88/266/71 89/267/71 86/268/71
f 90/269/72 89/270/72 85/271/72
f 89/272/73 90/273/73 86/274/73
f 91/275/74 90/276/74 85/277/74
f 90/278/75 91/279/75 86/280/75
f 92/281/76 91/282/76 85/283/76
f 91/284/77 92/285/77 86/286/77
f 87/287/78 92/288/78 85/289/78
f 92/290/79 87/291/79 86/292/79