# Made in Blockbench 4.7.4
mtllib magazine37solid.mtl

o bodyModel
v 0.046875 -0.1875 -0.25
v -0.046875 -0.1875 -0.25
v -0.046875 0.1875 -0.25
v 0.046875 0.1875 -0.25
v 0.046875 -0.1875 0.25
v 0.046875 0.1875 0.25
v -0.046875 -0.1875 0.25
v -0.046875 0.1875 0.25
vt 0.625 0.625
vt 0.75 0.625
vt 0.75 1
vt 0.625 1
vt 0 0.625
vt 0.5 0.625
vt 0.5 1
vt 0 1
vt 0.625 0.25
vt 0.75 0.25
vt 0.75 0.625
vt 0.625 0.625
vt 0 0.25
vt 0.5 0.25
vt 0.5 0.625
vt 0 0.625
vt 0.625 1
vt 0.5 1
vt 0.5 0.5
vt 0.625 0.5
vt 0.625 0
vt 0.5 0
vt 0.5 0.5
vt 0.625 0.5
vn 0 0 -1
vn 1 0 0
vn 0 0 1
vn -1 0 0
vn 0 1 0
vn 0 -1 0
usemtl m_a249c074-ff7a-9d57-c3a3-c37e7d640f51
f 1/1/1 2/2/1 3/3/1 4/4/1
f 5/5/2 1/6/2 4/7/2 6/8/2
f 7/9/3 5/10/3 6/11/3 8/12/3
f 2/13/4 7/14/4 8/15/4 3/16/4
f 8/17/5 6/18/5 4/19/5 3/20/5
f 2/21/6 1/22/6 5/23/6 7/24/6