# Made in Blockbench 4.9.4
mtllib watercannon_proj.mtl

o benchdisplay
v 0.3125 0 -0.3125
v 0.3125 0.875 -0.3125
v 0.3125 0.875 0.3125
v 0.3125 0 0.3125
v -0.3125 0 0.3125
v -0.3125 0.875 0.3125
v -0.3125 0.875 -0.3125
v -0.3125 0 -0.3125
v 0.0625 1 -0.0625
v 0.0625 1.3125 -0.0625
v 0.0625 1.3125 0.0625
v 0.0625 1 0.0625
v -0.0625 1 0.0625
v -0.0625 1.3125 0.0625
v -0.0625 1.3125 -0.0625
v -0.0625 1 -0.0625
v 0.0625 1.0625 -0.25
v 0.0625 1.1875 -0.25
v 0.0625 1.1875 -0.0625
v 0.0625 1.0625 -0.0625
v -0.0625 1.0625 -0.0625
v -0.0625 1.1875 -0.0625
v -0.0625 1.1875 -0.25
v -0.0625 1.0625 -0.25
v 0.1875 0.875 -0.1875
v 0.1875 1 -0.1875
v 0.1875 1 0.1875
v 0.1875 0.875 0.1875
v -0.1875 0.875 0.1875
v -0.1875 1 0.1875
v -0.1875 1 -0.1875
v -0.1875 0.875 -0.1875
v 0.31562500000000004 0.3125 -0.09062500000000001
v 0.31562500000000004 0.5625 -0.09062500000000001
v 0.31562500000000004 0.5625 0.09687499999999999
v 0.31562500000000004 0.3125 0.09687499999999999
v -0.09062499999999996 0.3125 -0.31875000000000003
v -0.09062499999999996 0.5625 -0.31875000000000003
v 0.09687500000000007 0.5625 -0.31875
v 0.09687500000000007 0.3125 -0.31875
v -0.31875 0.3125 0.09062500000000001
v -0.31875 0.5625 0.09062500000000001
v -0.31875 0.5625 -0.09687499999999996
v -0.31875 0.3125 -0.09687500000000002
v 0.09062500000000007 0.3125 0.3187499999999999
v 0.09062500000000007 0.5625 0.3187499999999999
v -0.0968749999999999 0.5625 0.31875
v -0.0968749999999999 0.3125 0.31875
vt 0.328125 0.78125
vt 0.328125 1
vt 0.171875 1
vt 0.171875 0.78125
vt 0.328125 0.546875
vt 0.328125 0.765625
vt 0.171875 0.765625
vt 0.171875 0.546875
vt 0.34375 1
vt 0.34375 0.84375
vt 0.5 0.84375
vt 0.5 1
vt 0.34375 0.671875
vt 0.34375 0.828125
vt 0.5 0.828125
vt 0.5 0.671875
vt 0.15625 0.546875
vt 0.15625 0.765625
vt 0 0.765625
vt 0 0.546875
vt 0.15625 0.78125
vt 0.15625 1
vt 0 1
vt 0 0.78125
vt 0.1875 0.453125
vt 0.1875 0.53125
vt 0.15625 0.53125
vt 0.15625 0.453125
vt 0.28125 0.453125
vt 0.28125 0.53125
vt 0.25 0.53125
vt 0.25 0.453125
vt 0.0625 0.484375
vt 0.0625 0.453125
vt 0.09375 0.453125
vt 0.09375 0.484375
vt 0.515625 0.90625
vt 0.515625 0.9375
vt 0.546875 0.9375
vt 0.546875 0.90625
vt 0.234375 0.453125
vt 0.234375 0.53125
vt 0.203125 0.53125
vt 0.203125 0.453125
vt 0.140625 0.453125
vt 0.140625 0.53125
vt 0.109375 0.53125
vt 0.109375 0.453125
vt 0.5 0.484375
vt 0.5 0.515625
vt 0.453125 0.515625
vt 0.453125 0.484375
vt 0.046875 0.453125
vt 0.046875 0.484375
vt 0 0.484375
vt 0 0.453125
vt 0.296875 0.53125
vt 0.296875 0.484375
vt 0.328125 0.484375
vt 0.328125 0.53125
vt 0.515625 0.953125
vt 0.515625 1
vt 0.546875 1
vt 0.546875 0.953125
vt 0.546875 0.8125
vt 0.546875 0.84375
vt 0.515625 0.84375
vt 0.515625 0.8125
vt 0.546875 0.859375
vt 0.546875 0.890625
vt 0.515625 0.890625
vt 0.515625 0.859375
vt 0.546875 0.53125
vt 0.546875 0.5625
vt 0.453125 0.5625
vt 0.453125 0.53125
vt 0.453125 0.53125
vt 0.453125 0.5625
vt 0.546875 0.5625
vt 0.546875 0.53125
vt 0.34375 0.65625
vt 0.34375 0.5625
vt 0.4375 0.5625
vt 0.4375 0.65625
vt 0.34375 0.453125
vt 0.34375 0.546875
vt 0.4375 0.546875
vt 0.4375 0.453125
vt 0.546875 0.53125
vt 0.546875 0.5625
vt 0.453125 0.5625
vt 0.453125 0.53125
vt 0.453125 0.53125
vt 0.453125 0.5625
vt 0.546875 0.5625
vt 0.546875 0.53125
vt 0.21875 0.296875
vt 0.21875 0.390625
vt 0.140625 0.390625
vt 0.140625 0.296875
vt 0.21875 0.203125
vt 0.21875 0.296875
vt 0.140625 0.296875
vt 0.140625 0.203125
vt 0.21875 0.203125
vt 0.21875 0.296875
vt 0.140625 0.296875
vt 0.140625 0.203125
vt 0.21484375 0.296875
vt 0.21484375 0.390625
vt 0.140625 0.390625
vt 0.140625 0.296875
vn 1 0 0
vn -1 0 0
vn 0 1 0
vn 0 -1 0
vn 0 0 1
vn 0 0 -1
vn 1 0 0
vn -1 0 0
vn 0 1 0
vn 0 -1 0
vn 0 0 1
vn 0 0 -1
vn 1 0 0
vn -1 0 0
vn 0 1 0
vn 0 -1 0
vn 0 0 1
vn 0 0 -1
vn 1 0 0
vn -1 0 0
vn 0 1 0
vn 0 -1 0
vn 0 0 1
vn 0 0 -1
vn 1 0 0
vn 2.96059473233375e-16 0 -1
vn -1 0 0
vn 2.960594732333751e-16 0 1
usemtl m_016b1b77-b940-8116-ef3e-a16270010389
f 1/1/1 2/2/1 3/3/1 4/4/1
f 5/5/2 6/6/2 7/7/2 8/8/2
f 3/9/3 2/10/3 7/11/3 6/12/3
f 1/13/4 4/14/4 5/15/4 8/16/4
f 4/17/5 3/18/5 6/19/5 5/20/5
f 8/21/6 7/22/6 2/23/6 1/24/6
f 9/25/7 10/26/7 11/27/7 12/28/7
f 13/29/8 14/30/8 15/31/8 16/32/8
f 11/33/9 10/34/9 15/35/9 14/36/9
f 9/37/10 12/38/10 13/39/10 16/40/10
f 12/41/11 11/42/11 14/43/11 13/44/11
f 16/45/12 15/46/12 10/47/12 9/48/12
f 17/49/13 18/50/13 19/51/13 20/52/13
f 21/53/14 22/54/14 23/55/14 24/56/14
f 19/57/15 18/58/15 23/59/15 22/60/15
f 17/61/16 20/62/16 21/63/16 24/64/16
f 20/65/17 19/66/17 22/67/17 21/68/17
f 24/69/18 23/70/18 18/71/18 17/72/18
f 25/73/19 26/74/19 27/75/19 28/76/19
f 29/77/20 30/78/20 31/79/20 32/80/20
f 27/81/21 26/82/21 31/83/21 30/84/21
f 25/85/22 28/86/22 29/87/22 32/88/22
f 28/89/23 27/90/23 30/91/23 29/92/23
f 32/93/24 31/94/24 26/95/24 25/96/24
f 33/97/25 34/98/25 35/99/25 36/100/25
f 37/101/26 38/102/26 39/103/26 40/104/26
f 41/105/27 42/106/27 43/107/27 44/108/27
f 45/109/28 46/110/28 47/111/28 48/112/28
o watercannnon_proj
v 0.0625 -0.0625 -0.0625
v 0.0625 0.0625 -0.0625
v 0.0625 0.0625 0.0625
v 0.0625 -0.0625 0.0625
v -0.0625 -0.0625 0.0625
v -0.0625 0.0625 0.0625
v -0.0625 0.0625 -0.0625
v -0.0625 -0.0625 -0.0625
vt 0.03125 0.96875
vt 0.03125 1
vt 0 1
vt 0 0.96875
vt 0.03125 0.96875
vt 0.03125 1
vt 0 1
vt 0 0.96875
vt 0.03125 0.96875
vt 0.03125 1
vt 0 1
vt 0 0.96875
vt 0.03125 0.96875
vt 0.03125 1
vt 0 1
vt 0 0.96875
vt 0.03125 0.96875
vt 0.03125 1
vt 0 1
vt 0 0.96875
vt 0.03125 0.96875
vt 0.03125 1
vt 0 1
vt 0 0.96875
vn 1 0 0
vn -1 0 0
vn 0 1 0
vn 0 -1 0
vn 0 0 1
vn 0 0 -1
usemtl m_016b1b77-b940-8116-ef3e-a16270010389
f 49/113/29 50/114/29 51/115/29 52/116/29
f 53/117/30 54/118/30 55/119/30 56/120/30
f 51/121/31 50/122/31 55/123/31 54/124/31
f 49/125/32 52/126/32 53/127/32 56/128/32
f 52/129/33 51/130/33 54/131/33 53/132/33
f 56/133/34 55/134/34 50/135/34 49/136/34