# Made in Blockbench 4.11.2
mtllib pole_crossingsignal.mtl

o &golight
v -0.17500000000000002 0.1125 0.3375
v 0.17500000000000002 0.1125 0.3375
v 0.17500000000000002 0.1125 0.3875
v -0.17500000000000002 0.1125 0.3875
v 0.17500000000000002 0.4625 0.3875
v -0.17500000000000002 0.4625 0.3875
vt 0.59375 0.625
vt 0.703125 0.625
vt 0.703125 0.609375
vt 0.59375 0.609375
vt 0 0.609375
vt 0 0.71875
vt 0.109375 0.71875
vt 0.109375 0.609375
vn 0 -1 0
vn 0 0 1
usemtl none
f 1/1/1 2/2/1 3/3/1 4/4/1
f 3/5/2 5/6/2 6/7/2 4/8/2
o overlay
v 0.17500000000000002 0.5375 0.3925
v 0.17500000000000002 0.8875000000000001 0.3925
v -0.17500000000000002 0.8875000000000001 0.3925
v -0.17500000000000002 0.5375 0.3925
v 0.17500000000000002 0.1125 0.3925
v 0.17500000000000002 0.4625 0.3925
v -0.17500000000000002 0.4625 0.3925
v -0.17500000000000002 0.1125 0.3925
vt 0.703125 0.875
vt 0.703125 1
vt 0.828125 1
vt 0.828125 0.875
vt 0.703125 0.75
vt 0.703125 0.875
vt 0.828125 0.875
vt 0.828125 0.75
vn 0 0 1
vn 0 0 1
usemtl none
f 7/9/3 8/10/3 9/11/3 10/12/3
f 11/13/4 12/14/4 13/15/4 14/16/4
o body
v 0.17375000000000002 0.46125000000000005 0.5875
v 0.17375000000000002 0.46125000000000005 0.3375
v 0.17375000000000002 0.11375000000000002 0.3375
v 0.17375000000000002 0.11375000000000002 0.4375
v -0.17375000000000002 0.11375000000000002 0.3375
v -0.17375000000000002 0.46125000000000005 0.3375
v -0.17375000000000002 0.46125000000000005 0.5875
v -0.17375000000000002 0.11375000000000002 0.4375
v 0.17500000000000002 0.1125 0.3375
v 0.17500000000000002 0.4625 0.3375
v 0.17500000000000002 0.4625 0.5875
v 0.17500000000000002 0.1125 0.4375
v -0.17500000000000002 0.4625 0.5875
v -0.17500000000000002 0.4625 0.3375
v -0.17500000000000002 0.1125 0.3375
v -0.17500000000000002 0.1125 0.4375
v 0.15000000000000002 0.1375 -0.012499999999999997
v 0.15000000000000002 0.4375 -0.012499999999999997
v 0.15000000000000002 0.4375 0.08750000000000002
v 0.15000000000000002 0.1375 0.08750000000000002
v -0.15000000000000002 0.4375 0.08750000000000002
v -0.15000000000000002 0.4375 -0.012499999999999997
v -0.15000000000000002 0.1375 -0.012499999999999997
v -0.15000000000000002 0.1375 0.08750000000000002
v -0.1 0.4375 -0.0625
v 0.1 0.4375 -0.0625
v 0.1 0.1375 -0.0625
v -0.1 0.1375 -0.0625
v 0.2 0.08750000000000001 0.08750000000000002
v 0.2 0.48750000000000004 0.08750000000000002
v 0.2 0.48750000000000004 0.3375
v 0.2 0.08750000000000001 0.3375
v -0.2 0.48750000000000004 0.3375
v -0.2 0.48750000000000004 0.08750000000000002
v -0.2 0.08750000000000001 0.08750000000000002
v -0.2 0.08750000000000001 0.3375
v 0.07500000000000001 0.48750000000000004 0.11250000000000002
v 0.07500000000000001 0.5125000000000001 0.11250000000000002
v 0.07500000000000001 0.5125000000000001 0.2625
v 0.07500000000000001 0.48750000000000004 0.2625
v -0.07500000000000001 0.5125000000000001 0.2625
v -0.07500000000000001 0.5125000000000001 0.11250000000000002
v -0.07500000000000001 0.48750000000000004 0.11250000000000002
v -0.07500000000000001 0.48750000000000004 0.2625
v 0.05 0.037500000000000006 0.1375
v 0.05 0.08750000000000001 0.1375
v 0.05 0.08750000000000001 0.23750000000000004
v 0.05 0.037500000000000006 0.23750000000000004
v -0.05 0.08750000000000001 0.23750000000000004
v -0.05 0.08750000000000001 0.1375
v -0.05 0.037500000000000006 0.1375
v -0.05 0.037500000000000006 0.23750000000000004
vt 0.25 0.71875
vt 0.328125 0.71875
vt 0.328125 0.609375
vt 0.296875 0.609375
vt 0.328125 0.609375
vt 0.328125 0.71875
vt 0.25 0.71875
vt 0.296875 0.609375
vt 0.53125 0.484375
vt 0.640625 0.484375
vt 0.640625 0.5625
vt 0.53125 0.5625
vt 0.234375 0.609375
vt 0.234375 0.71875
vt 0.125 0.71875
vt 0.125 0.609375
vt 0.5 0.890625
vt 0.5 1
vt 0.578125 1
vt 0.53125 0.890625
vt 0.234375 0.46875
vt 0.3125 0.46875
vt 0.3125 0.359375
vt 0.28125 0.359375
vt 0.640625 0.5625
vt 0.640625 0.484375
vt 0.53125 0.484375
vt 0.53125 0.5625
vt 0.125 0.71875
vt 0.234375 0.71875
vt 0.234375 0.609375
vt 0.125 0.609375
vt 0.40625 0.328125
vt 0.40625 0.421875
vt 0.4375 0.421875
vt 0.4375 0.328125
vt 0 0.40625
vt 0.03125 0.40625
vt 0.03125 0.3125
vt 0 0.3125
vt 0.640625 0.875
vt 0.640625 0.84375
vt 0.546875 0.84375
vt 0.546875 0.875
vt 0.578125 0.921875
vt 0.671875 0.921875
vt 0.671875 0.890625
vt 0.578125 0.890625
vt 0.53125 0.46875
vt 0.59375 0.46875
vt 0.59375 0.375
vt 0.53125 0.375
vt 0.234375 0.484375
vt 0.234375 0.578125
vt 0.328125 0.578125
vt 0.328125 0.484375
vt 0.109375 0.3125
vt 0.09375 0.3125
vt 0.09375 0.40625
vt 0.109375 0.40625
vt 0.640625 0.84375
vt 0.625 0.828125
vt 0.5625 0.828125
vt 0.546875 0.84375
vt 0.328125 0.390625
vt 0.34375 0.390625
vt 0.34375 0.296875
vt 0.328125 0.296875
vt 0.578125 0.921875
vt 0.59375 0.9375
vt 0.65625 0.9375
vt 0.671875 0.921875
vt 0.40625 0.875
vt 0.40625 1
vt 0.484375 1
vt 0.484375 0.875
vt 0.484375 1
vt 0.40625 1
vt 0.40625 0.875
vt 0.484375 0.875
vt 0.46875 0.609375
vt 0.46875 0.53125
vt 0.34375 0.53125
vt 0.34375 0.609375
vt 0 0.59375
vt 0.125 0.59375
vt 0.125 0.515625
vt 0 0.515625
vt 0 1
vt 0.125 1
vt 0.125 0.875
vt 0 0.875
vt 0 0.734375
vt 0 0.859375
vt 0.125 0.859375
vt 0.125 0.734375
vt 0.28125 0.734375
vt 0.28125 0.75
vt 0.328125 0.75
vt 0.328125 0.734375
vt 0.609375 0.421875
vt 0.65625 0.421875
vt 0.65625 0.40625
vt 0.609375 0.40625
vt 0.640625 1
vt 0.640625 0.953125
vt 0.59375 0.953125
vt 0.59375 1
vt 0.59375 0.6875
vt 0.640625 0.6875
vt 0.640625 0.640625
vt 0.59375 0.640625
vt 0.609375 0.390625
vt 0.65625 0.390625
vt 0.65625 0.375
vt 0.609375 0.375
vt 0.53125 0.34375
vt 0.53125 0.359375
vt 0.578125 0.359375
vt 0.578125 0.34375
vt 0.59375 0.34375
vt 0.59375 0.359375
vt 0.625 0.359375
vt 0.625 0.34375
vt 0.640625 0.359375
vt 0.671875 0.359375
vt 0.671875 0.34375
vt 0.640625 0.34375
vt 0.46875 0.671875
vt 0.46875 0.640625
vt 0.4375 0.640625
vt 0.4375 0.671875
vt 0.484375 0.5625
vt 0.515625 0.5625
vt 0.515625 0.53125
vt 0.484375 0.53125
vt 0.65625 1
vt 0.6875 1
vt 0.6875 0.984375
vt 0.65625 0.984375
vt 0.65625 0.953125
vt 0.65625 0.96875
vt 0.6875 0.96875
vt 0.6875 0.953125
vn -1 0 0
vn 1 0 0
vn 0 -1 0
vn 0 0 1
vn 1 0 0
vn -1 0 0
vn 0 1 0
vn 0 0 -1
vn 1 0 0
vn -1 0 0
vn 0 1 0
vn 0 -1 0
vn 0 0 -1
vn 0 0 1
vn 0.7071067811865475 0 -0.7071067811865477
vn 0 1 0
vn -0.7071067811865475 0 -0.7071067811865477
vn 0 -1 0
vn 1 0 0
vn -1 0 0
vn 0 1 0
vn 0 -1 0
vn 0 0 -1
vn 0 0 1
vn 1 0 0
vn -1 0 0
vn 0 1 0
vn 0 -1 0
vn 0 0 -1
vn 0 0 1
vn 1 0 0
vn -1 0 0
vn 0 1 0
vn 0 -1 0
vn 0 0 -1
vn 0 0 1
usemtl none
f 15/17/5 16/18/5 17/19/5 18/20/5
f 19/21/6 20/22/6 21/23/6 22/24/6
f 20/25/7 16/26/7 15/27/7 21/28/7
f 17/29/8 16/30/8 20/31/8 19/32/8
f 23/33/9 24/34/9 25/35/9 26/36/9
f 27/37/10 28/38/10 29/39/10 30/40/10
f 25/41/11 24/42/11 28/43/11 27/44/11
f 28/45/12 24/46/12 23/47/12 29/48/12
f 31/49/13 32/50/13 33/51/13 34/52/13
f 35/53/14 36/54/14 37/55/14 38/56/14
f 33/57/15 32/58/15 36/59/15 35/60/15
f 37/61/16 31/62/16 34/63/16 38/64/16
f 39/65/17 40/66/17 41/67/17 42/68/17
f 34/69/18 33/70/18 35/71/18 38/72/18
f 31/73/19 41/74/19 40/75/19 32/76/19
f 32/77/20 40/78/20 39/79/20 36/80/20
f 36/81/21 39/82/21 42/83/21 37/84/21
f 37/85/22 42/86/22 41/87/22 31/88/22
f 43/89/23 44/90/23 45/91/23 46/92/23
f 47/93/24 48/94/24 49/95/24 50/96/24
f 45/97/25 44/98/25 48/99/25 47/100/25
f 49/101/26 43/102/26 46/103/26 50/104/26
f 48/105/27 44/106/27 43/107/27 49/108/27
f 46/109/28 45/110/28 47/111/28 50/112/28
f 51/113/29 52/114/29 53/115/29 54/116/29
f 55/117/30 56/118/30 57/119/30 58/120/30
f 53/121/31 52/122/31 56/123/31 55/124/31
f 57/125/32 51/126/32 54/127/32 58/128/32
f 56/129/33 52/130/33 51/131/33 57/132/33
f 54/133/34 53/134/34 55/135/34 58/136/34
f 59/137/35 60/138/35 61/139/35 62/140/35
f 63/141/36 64/142/36 65/143/36 66/144/36
f 61/145/37 60/146/37 64/147/37 63/148/37
f 65/149/38 59/150/38 62/151/38 66/152/38
f 64/153/39 60/154/39 59/155/39 65/156/39
f 62/157/40 61/158/40 63/159/40 66/160/40
o body_selection
v 0.17375000000000002 0.88625 0.5875
v 0.17375000000000002 0.88625 0.3375
v 0.17375000000000002 0.5387500000000001 0.3375
v 0.17375000000000002 0.5387500000000001 0.4375
v -0.17375000000000002 0.5387500000000001 0.3375
v -0.17375000000000002 0.88625 0.3375
v -0.17375000000000002 0.88625 0.5875
v -0.17375000000000002 0.5387500000000001 0.4375
v 0.17500000000000002 0.5375 0.3375
v 0.17500000000000002 0.8875000000000001 0.3375
v 0.17500000000000002 0.8875000000000001 0.5875
v 0.17500000000000002 0.5375 0.4375
v -0.17500000000000002 0.8875000000000001 0.5875
v -0.17500000000000002 0.8875000000000001 0.3375
v -0.17500000000000002 0.5375 0.3375
v -0.17500000000000002 0.5375 0.4375
v 0.15000000000000002 0.5625 -0.012499999999999997
v 0.15000000000000002 0.8625 -0.012499999999999997
v 0.15000000000000002 0.8625 0.08750000000000002
v 0.15000000000000002 0.5625 0.08750000000000002
v -0.15000000000000002 0.8625 0.08750000000000002
v -0.15000000000000002 0.8625 -0.012499999999999997
v -0.15000000000000002 0.5625 -0.012499999999999997
v -0.15000000000000002 0.5625 0.08750000000000002
v -0.1 0.8625 -0.0625
v 0.1 0.8625 -0.0625
v 0.1 0.5625 -0.0625
v -0.1 0.5625 -0.0625
v 0.2 0.5125000000000001 0.08750000000000002
v 0.2 0.9125 0.08750000000000002
v 0.2 0.9125 0.3375
v 0.2 0.5125000000000001 0.3375
v -0.2 0.9125 0.3375
v -0.2 0.9125 0.08750000000000002
v -0.2 0.5125000000000001 0.08750000000000002
v -0.2 0.5125000000000001 0.3375
v 0.05 0.9125 0.1375
v 0.05 0.9625 0.1375
v 0.05 0.9625 0.23750000000000004
v 0.05 0.9125 0.23750000000000004
v -0.05 0.9625 0.23750000000000004
v -0.05 0.9625 0.1375
v -0.05 0.9125 0.1375
v -0.05 0.9125 0.23750000000000004
vt 0.25 0.71875
vt 0.328125 0.71875
vt 0.328125 0.609375
vt 0.296875 0.609375
vt 0.328125 0.609375
vt 0.328125 0.71875
vt 0.25 0.71875
vt 0.296875 0.609375
vt 0.53125 0.484375
vt 0.640625 0.484375
vt 0.640625 0.5625
vt 0.53125 0.5625
vt 0.234375 0.609375
vt 0.234375 0.71875
vt 0.125 0.71875
vt 0.125 0.609375
vt 0.5 0.890625
vt 0.5 1
vt 0.578125 1
vt 0.53125 0.890625
vt 0.234375 0.46875
vt 0.3125 0.46875
vt 0.3125 0.359375
vt 0.28125 0.359375
vt 0.640625 0.5625
vt 0.640625 0.484375
vt 0.53125 0.484375
vt 0.53125 0.5625
vt 0.125 0.71875
vt 0.234375 0.71875
vt 0.234375 0.609375
vt 0.125 0.609375
vt 0.046875 0.3125
vt 0.046875 0.40625
vt 0.078125 0.40625
vt 0.078125 0.3125
vt 0.203125 0.40625
vt 0.234375 0.40625
vt 0.234375 0.3125
vt 0.203125 0.3125
vt 0.671875 0.8125
vt 0.671875 0.78125
vt 0.578125 0.78125
vt 0.578125 0.8125
vt 0.578125 0.734375
vt 0.671875 0.734375
vt 0.671875 0.703125
vt 0.578125 0.703125
vt 0.125 0.453125
vt 0.1875 0.453125
vt 0.1875 0.359375
vt 0.125 0.359375
vt 0.484375 0.578125
vt 0.484375 0.671875
vt 0.578125 0.671875
vt 0.578125 0.578125
vt 0.375 0.296875
vt 0.359375 0.296875
vt 0.359375 0.390625
vt 0.375 0.390625
vt 0.671875 0.78125
vt 0.65625 0.765625
vt 0.59375 0.765625
vt 0.578125 0.78125
vt 0.453125 0.390625
vt 0.46875 0.390625
vt 0.46875 0.296875
vt 0.453125 0.296875
vt 0.578125 0.734375
vt 0.59375 0.75
vt 0.65625 0.75
vt 0.671875 0.734375
vt 0.40625 0.875
vt 0.40625 1
vt 0.484375 1
vt 0.484375 0.875
vt 0.140625 0.59375
vt 0.21875 0.59375
vt 0.21875 0.46875
vt 0.140625 0.46875
vt 0.53125 0.859375
vt 0.53125 0.78125
vt 0.40625 0.78125
vt 0.40625 0.859375
vt 0.4375 0.6875
vt 0.5625 0.6875
vt 0.5625 0.765625
vt 0.4375 0.765625
vt 0.140625 1
vt 0.265625 1
vt 0.265625 0.875
vt 0.140625 0.875
vt 0.140625 0.734375
vt 0.140625 0.859375
vt 0.265625 0.859375
vt 0.265625 0.734375
vt 0.125 0.328125
vt 0.125 0.34375
vt 0.15625 0.34375
vt 0.15625 0.328125
vt 0.65625 0.875
vt 0.6875 0.875
vt 0.6875 0.859375
vt 0.65625 0.859375
vt 0.515625 0.390625
vt 0.515625 0.359375
vt 0.484375 0.359375
vt 0.484375 0.390625
vt 0.609375 0.46875
vt 0.640625 0.46875
vt 0.640625 0.4375
vt 0.609375 0.4375
vt 0.65625 0.84375
vt 0.6875 0.84375
vt 0.6875 0.828125
vt 0.65625 0.828125
vt 0.25 0.328125
vt 0.25 0.34375
vt 0.28125 0.34375
vt 0.28125 0.328125
vn -1 0 0
vn 1 0 0
vn 0 -1 0
vn 0 0 1
vn 1 0 0
vn -1 0 0
vn 0 1 0
vn 0 0 -1
vn 1 0 0
vn -1 0 0
vn 0 1 0
vn 0 -1 0
vn 0 0 -1
vn 0 0 1
vn 0.7071067811865475 0 -0.7071067811865477
vn 0 1 0
vn -0.7071067811865475 0 -0.7071067811865477
vn 0 -1 0
vn 1 0 0
vn -1 0 0
vn 0 1 0
vn 0 -1 0
vn 0 0 -1
vn 0 0 1
vn 1 0 0
vn -1 0 0
vn 0 1 0
vn 0 -1 0
vn 0 0 -1
vn 0 0 1
usemtl none
f 67/161/41 68/162/41 69/163/41 70/164/41
f 71/165/42 72/166/42 73/167/42 74/168/42
f 72/169/43 68/170/43 67/171/43 73/172/43
f 69/173/44 68/174/44 72/175/44 71/176/44
f 75/177/45 76/178/45 77/179/45 78/180/45
f 79/181/46 80/182/46 81/183/46 82/184/46
f 77/185/47 76/186/47 80/187/47 79/188/47
f 80/189/48 76/190/48 75/191/48 81/192/48
f 83/193/49 84/194/49 85/195/49 86/196/49
f 87/197/50 88/198/50 89/199/50 90/200/50
f 85/201/51 84/202/51 88/203/51 87/204/51
f 89/205/52 83/206/52 86/207/52 90/208/52
f 91/209/53 92/210/53 93/211/53 94/212/53
f 86/213/54 85/214/54 87/215/54 90/216/54
f 83/217/55 93/218/55 92/219/55 84/220/55
f 84/221/56 92/222/56 91/223/56 88/224/56
f 88/225/57 91/226/57 94/227/57 89/228/57
f 89/229/58 94/230/58 93/231/58 83/232/58
f 95/233/59 96/234/59 97/235/59 98/236/59
f 99/237/60 100/238/60 101/239/60 102/240/60
f 97/241/61 96/242/61 100/243/61 99/244/61
f 101/245/62 95/246/62 98/247/62 102/248/62
f 100/249/63 96/250/63 95/251/63 101/252/63
f 98/253/64 97/254/64 99/255/64 102/256/64
f 103/257/65 104/258/65 105/259/65 106/260/65
f 107/261/66 108/262/66 109/263/66 110/264/66
f 105/265/67 104/266/67 108/267/67 107/268/67
f 109/269/68 103/270/68 106/271/68 110/272/68
f 108/273/69 104/274/69 103/275/69 109/276/69
f 106/277/70 105/278/70 107/279/70 110/280/70
o &stoplight
v -0.17500000000000002 0.5375 0.3375
v 0.17500000000000002 0.5375 0.3375
v 0.17500000000000002 0.5375 0.3875
v -0.17500000000000002 0.5375 0.3875
v 0.17500000000000002 0.8875000000000001 0.3875
v -0.17500000000000002 0.8875000000000001 0.3875
vt 0.59375 0.59375
vt 0.703125 0.59375
vt 0.703125 0.578125
vt 0.59375 0.578125
vt 0.28125 0.765625
vt 0.28125 0.875
vt 0.390625 0.875
vt 0.390625 0.765625
vn 0 -1 0
vn 0 0 1
usemtl none
f 111/281/71 112/282/71 113/283/71 114/284/71
f 113/285/72 115/286/72 116/287/72 114/288/72