# Made in Blockbench 4.9.4
mtllib pole_core.mtl

o up
v 0.09375 1 0.09375
v 0.09375 1 -0.09375
v 0.09375 0.5 0.09375
v 0.09375 0.5 -0.09375
v -0.09375 1 0.09375
v -0.09375 1 -0.09375
v -0.09375 0.5 0.09375
v -0.09375 0.5 -0.09375
vt 0.359375 0.71875
vt 0.3125 0.71875
vt 0.3125 0.59375
vt 0.359375 0.59375
vt 0.3125 0.59375
vt 0.3125 0.71875
vt 0.359375 0.71875
vt 0.359375 0.59375
vt 0.21875 0.875
vt 0.265625 0.875
vt 0.265625 0.921875
vt 0.21875 0.921875
vt 0.421875 0.5625
vt 0.421875 0.609375
vt 0.375 0.609375
vt 0.375 0.5625
vt 0.359375 0.59375
vt 0.359375 0.71875
vt 0.3125 0.71875
vt 0.3125 0.59375
vt 0.3125 0.71875
vt 0.359375 0.71875
vt 0.359375 0.59375
vt 0.3125 0.59375
vn 1 0 0
vn -1 0 0
vn 0 1 0
vn 0 -1 0
vn 0 0 1
vn 0 0 -1
usemtl m_16004e45-f770-2ceb-6186-12e525ac84e6
f 2/1/1 1/2/1 3/3/1 4/4/1
f 7/5/2 5/6/2 6/7/2 8/8/2
f 5/9/3 1/10/3 2/11/3 6/12/3
f 4/13/4 3/14/4 7/15/4 8/16/4
f 3/17/5 1/18/5 5/19/5 7/20/5
f 6/21/6 2/22/6 4/23/6 8/24/6
o down
v 0.09375 0.5 0.09375
v 0.09375 0.5 -0.09375
v 0.09375 0 0.09375
v 0.09375 0 -0.09375
v -0.09375 0.5 0.09375
v -0.09375 0.5 -0.09375
v -0.09375 0 0.09375
v -0.09375 0 -0.09375
vt 0.25 0.75
vt 0.296875 0.75
vt 0.296875 0.625
vt 0.25 0.625
vt 0.296875 0.625
vt 0.296875 0.75
vt 0.25 0.75
vt 0.25 0.625
vt 0.125 0.515625
vt 0.171875 0.515625
vt 0.171875 0.5625
vt 0.125 0.5625
vt 0.421875 0.5625
vt 0.421875 0.609375
vt 0.375 0.609375
vt 0.375 0.5625
vt 0.25 0.625
vt 0.25 0.75
vt 0.296875 0.75
vt 0.296875 0.625
vt 0.296875 0.75
vt 0.25 0.75
vt 0.25 0.625
vt 0.296875 0.625
vn 1 0 0
vn -1 0 0
vn 0 1 0
vn 0 -1 0
vn 0 0 1
vn 0 0 -1
usemtl m_16004e45-f770-2ceb-6186-12e525ac84e6
f 10/25/7 9/26/7 11/27/7 12/28/7
f 15/29/8 13/30/8 14/31/8 16/32/8
f 13/33/9 9/34/9 10/35/9 14/36/9
f 12/37/10 11/38/10 15/39/10 16/40/10
f 11/41/11 9/42/11 13/43/11 15/44/11
f 14/45/12 10/46/12 12/47/12 16/48/12
o west
v -0.5 0.4375 0.0625
v -0.5 0.5625 0.0625
v 0 0.4375 0.0625
v 0 0.5625 0.0625
v -0.5 0.4375 -0.0625
v -0.5 0.5625 -0.0625
v 0 0.4375 -0.0625
v 0 0.5625 -0.0625
vt 0.0625 1
vt 0.0625 0.96875
vt 0.171875 0.96875
vt 0.171875 1
vt 0.171875 0.96875
vt 0.0625 0.96875
vt 0.0625 1
vt 0.171875 1
vt 0.0625 0.921875
vt 0.09375 0.921875
vt 0.09375 0.953125
vt 0.0625 0.953125
vt 0 0.796875
vt 0 0.765625
vt 0.03125 0.765625
vt 0.03125 0.796875
vt 0.171875 1
vt 0.0625 1
vt 0.0625 0.96875
vt 0.171875 0.96875
vt 0.0625 0.96875
vt 0.0625 1
vt 0.171875 1
vt 0.171875 0.96875
vn 0 0 1
vn 0 0 -1
vn -1 0 0
vn 1 0 0
vn 0 -1 0
vn 0 1 0
usemtl m_16004e45-f770-2ceb-6186-12e525ac84e6
f 18/49/13 17/50/13 19/51/13 20/52/13
f 23/53/14 21/54/14 22/55/14 24/56/14
f 21/57/15 17/58/15 18/59/15 22/60/15
f 20/61/16 19/62/16 23/63/16 24/64/16
f 19/65/17 17/66/17 21/67/17 23/68/17
f 22/69/18 18/70/18 20/71/18 24/72/18
o west_down
v -0.42298543456039805 0.3087087392637612 0
v -0.2462087392637612 0.48548543456039805 0
v -0.3787912607362388 0.26451456543960195 0
v -0.20201456543960195 0.4412912607362388 0
v -0.09374999999999994 0.03125 0.03125
v -0.09374999999999994 0.09375 0.03125
v -0.42187499999999994 0.24999999999999994 0.03125
v -0.42187499999999994 0.31249999999999994 0.03125
v -0.09374999999999994 0.03125 -0.03125
v -0.09374999999999994 0.09375 -0.03125
v -0.42187499999999994 0.24999999999999994 -0.03125
v -0.42187499999999994 0.31249999999999994 -0.03125
v -1.5 0.46874999999999983 0.03125
v -1.5 0.53125 0.03125
v -1.5 0.46874999999999983 -0.03125
v -1.5 0.53125 -0.03125
vt 0.015625 0.75
vt 0 0.75
vt 0 0.6875
vt 0.015625 0.6875
vt 0.234375 0.296875
vt 0.34375 0.296875
vt 0.34375 0.3125
vt 0.234375 0.3125
vt 0.34375 0.3125
vt 0.34375 0.296875
vt 0.234375 0.296875
vt 0.234375 0.3125
vt 0.109375 0.953125
vt 0.109375 0.9375
vt 0.125 0.9375
vt 0.125 0.953125
vt 0.171875 0.875
vt 0.1875 0.875
vt 0.1875 0.890625
vt 0.171875 0.890625
vt 0.0625 0.8111125
vt 0.046875 0.8111125
vt 0.046875 0.7125234375
vt 0.0625 0.7125234375
vt 0.0625 0.7139109375
vt 0.0625 0.8125
vt 0.046875 0.8125
vt 0.046875 0.7139109375
vt 0.234375 0.3125
vt 0 0.3125
vt 0 0.296875
vt 0.234375 0.296875
vt 0.046875 0.7125234375
vt 0.046875 0.4375
vt 0.0625 0.4375
vt 0.0625 0.7125234375
vt 0.234375 0.296875
vt 0 0.296875
vt 0 0.3125
vt 0.234375 0.3125
vt 0.046875 0.7139109375
vt 0.046875 0.4388875
vt 0.0625 0.4388875
vt 0.0625 0.7139109375
vn 0 0 1
vn 0 0 1
vn 0 0 -1
vn 1 0 0
vn -1 0 0
vn -0.554700196225229 -0.8320502943378438 0
vn 0.554700196225229 0.8320502943378438 0
vn 0 0 1
vn -0.19884678619902924 -0.9800305891237874 0
vn 0 0 -1
vn 0.19884678619902943 0.9800305891237874 0
usemtl m_16004e45-f770-2ceb-6186-12e525ac84e6
f 28/73/19 26/74/19 25/75/19 27/76/19
f 31/77/20 29/78/20 30/79/20 32/80/20
f 34/81/21 33/82/21 35/83/21 36/84/21
f 30/85/22 29/86/22 33/87/22 34/88/22
f 39/89/23 37/90/23 38/91/23 40/92/23
f 33/93/24 29/94/24 31/95/24 35/96/24
f 32/97/25 30/98/25 34/99/25 36/100/25
f 32/101/26 38/102/26 37/103/26 31/104/26
f 31/105/27 37/106/27 39/107/27 35/108/27
f 35/109/28 39/110/28 40/111/28 36/112/28
f 36/113/29 40/114/29 38/115/29 32/116/29
o east
v 0.5 0.4375 0.0625
v 0.5 0.5625 0.0625
v 0 0.4375 0.0625
v 0 0.5625 0.0625
v 0.5 0.4375 -0.0625
v 0.5 0.5625 -0.0625
v 0 0.4375 -0.0625
v 0 0.5625 -0.0625
vt 0.171875 0.96875
vt 0.0625 0.96875
vt 0.0625 1
vt 0.171875 1
vt 0.0625 1
vt 0.0625 0.96875
vt 0.171875 0.96875
vt 0.171875 1
vt 0.09375 0.953125
vt 0.09375 0.921875
vt 0.0625 0.921875
vt 0.0625 0.953125
vt 0.03125 0.765625
vt 0 0.765625
vt 0 0.796875
vt 0.03125 0.796875
vt 0.0625 0.96875
vt 0.0625 1
vt 0.171875 1
vt 0.171875 0.96875
vt 0.171875 1
vt 0.0625 1
vt 0.0625 0.96875
vt 0.171875 0.96875
vn 0 0 1
vn 0 0 -1
vn 1 0 0
vn -1 0 0
vn 0 -1 0
vn 0 1 0
usemtl m_16004e45-f770-2ceb-6186-12e525ac84e6
f 43/117/30 41/118/30 42/119/30 44/120/30
f 46/121/31 45/122/31 47/123/31 48/124/31
f 42/125/32 41/126/32 45/127/32 46/128/32
f 47/129/33 43/130/33 44/131/33 48/132/33
f 45/133/34 41/134/34 43/135/34 47/136/34
f 44/137/35 42/138/35 46/139/35 48/140/35
o east_down
v 0.42298543456039805 0.3087087392637612 0
v 0.2462087392637612 0.48548543456039805 0
v 0.3787912607362388 0.26451456543960195 0
v 0.20201456543960195 0.4412912607362388 0
v 0.09374999999999994 0.03125 0.03125
v 0.09374999999999994 0.09375 0.03125
v 0.42187499999999994 0.24999999999999994 0.03125
v 0.42187499999999994 0.31249999999999994 0.03125
v 0.09374999999999994 0.03125 -0.03125
v 0.09374999999999994 0.09375 -0.03125
v 0.42187499999999994 0.24999999999999994 -0.03125
v 0.42187499999999994 0.31249999999999994 -0.03125
v 1.5 0.46874999999999983 0.03125
v 1.5 0.53125 0.03125
v 1.5 0.46874999999999983 -0.03125
v 1.5 0.53125 -0.03125
vt 0 0.6875
vt 0 0.75
vt 0.015625 0.75
vt 0.015625 0.6875
vt 0.34375 0.3125
vt 0.34375 0.296875
vt 0.234375 0.296875
vt 0.234375 0.3125
vt 0.234375 0.296875
vt 0.34375 0.296875
vt 0.34375 0.3125
vt 0.234375 0.3125
vt 0.125 0.9375
vt 0.109375 0.9375
vt 0.109375 0.953125
vt 0.125 0.953125
vt 0.1875 0.890625
vt 0.1875 0.875
vt 0.171875 0.875
vt 0.171875 0.890625
vt 0.046875 0.7125234375
vt 0.046875 0.8111125
vt 0.0625 0.8111125
vt 0.0625 0.7125234375
vt 0.046875 0.8125
vt 0.0625 0.8125
vt 0.0625 0.7139109375
vt 0.046875 0.7139109375
vt 0 0.296875
vt 0 0.3125
vt 0.234375 0.3125
vt 0.234375 0.296875
vt 0.0625 0.4375
vt 0.046875 0.4375
vt 0.046875 0.7125234375
vt 0.0625 0.7125234375
vt 0 0.3125
vt 0 0.296875
vt 0.234375 0.296875
vt 0.234375 0.3125
vt 0.0625 0.4388875
vt 0.046875 0.4388875
vt 0.046875 0.7139109375
vt 0.0625 0.7139109375
vn 0 0 1
vn 0 0 1
vn 0 0 -1
vn -1 0 0
vn 1 0 0
vn 0.554700196225229 -0.8320502943378438 0
vn -0.554700196225229 0.8320502943378438 0
vn 0 0 1
vn 0.19884678619902924 -0.9800305891237874 0
vn 0 0 -1
vn -0.19884678619902943 0.9800305891237874 0
usemtl m_16004e45-f770-2ceb-6186-12e525ac84e6
f 49/141/36 50/142/36 52/143/36 51/144/36
f 54/145/37 53/146/37 55/147/37 56/148/37
f 59/149/38 57/150/38 58/151/38 60/152/38
f 57/153/39 53/154/39 54/155/39 58/156/39
f 62/157/40 61/158/40 63/159/40 64/160/40
f 55/161/41 53/162/41 57/163/41 59/164/41
f 58/165/42 54/166/42 56/167/42 60/168/42
f 61/169/43 62/170/43 56/171/43 55/172/43
f 63/173/44 61/174/44 55/175/44 59/176/44
f 64/177/45 63/178/45 59/179/45 60/180/45
f 62/181/46 64/182/46 60/183/46 56/184/46
o north_down
v 0 0.3087087392637612 -0.42298543456039805
v 0 0.48548543456039805 -0.2462087392637612
v 0 0.26451456543960195 -0.3787912607362388
v 0 0.4412912607362388 -0.20201456543960195
v -0.03125 0.03125 -0.09374999999999994
v -0.03125 0.09375 -0.09374999999999994
v -0.03125 0.24999999999999994 -0.42187499999999994
v -0.03125 0.31249999999999994 -0.42187499999999994
v 0.03125 0.03125 -0.09374999999999994
v 0.03125 0.09375 -0.09374999999999994
v 0.03125 0.24999999999999994 -0.42187499999999994
v 0.03125 0.31249999999999994 -0.42187499999999994
v -0.03125 0.46874999999999983 -1.5
v -0.03125 0.53125 -1.5
v 0.03125 0.46874999999999983 -1.5
v 0.03125 0.53125 -1.5
vt 0.015625 0.75
vt 0 0.75
vt 0 0.6875
vt 0.015625 0.6875
vt 0.234375 0.296875
vt 0.34375 0.296875
vt 0.34375 0.3125
vt 0.234375 0.3125
vt 0.34375 0.3125
vt 0.34375 0.296875
vt 0.234375 0.296875
vt 0.234375 0.3125
vt 0.109375 0.953125
vt 0.109375 0.9375
vt 0.125 0.9375
vt 0.125 0.953125
vt 0.171875 0.875
vt 0.1875 0.875
vt 0.1875 0.890625
vt 0.171875 0.890625
vt 0.0625 0.8111125
vt 0.046875 0.8111125
vt 0.046875 0.7125234375
vt 0.0625 0.7125234375
vt 0.0625 0.7139109375
vt 0.0625 0.8125
vt 0.046875 0.8125
vt 0.046875 0.7139109375
vt 0.234375 0.3125
vt 0 0.3125
vt 0 0.296875
vt 0.234375 0.296875
vt 0.046875 0.7125234375
vt 0.046875 0.4375
vt 0.0625 0.4375
vt 0.0625 0.7125234375
vt 0.234375 0.296875
vt 0 0.296875
vt 0 0.3125
vt 0.234375 0.3125
vt 0.046875 0.7139109375
vt 0.046875 0.4388875
vt 0.0625 0.4388875
vt 0.0625 0.7139109375
vn -1 0 0
vn -1 0 0
vn 1 0 0
vn 0 0 1
vn 0 0 -1
vn 0 -0.8320502943378438 -0.554700196225229
vn 0 0.8320502943378438 0.554700196225229
vn -1 0 0
vn 0 -0.9800305891237874 -0.19884678619902924
vn 1 0 0
vn 0 0.9800305891237874 0.19884678619902943
usemtl m_16004e45-f770-2ceb-6186-12e525ac84e6
f 68/185/47 66/186/47 65/187/47 67/188/47
f 71/189/48 69/190/48 70/191/48 72/192/48
f 74/193/49 73/194/49 75/195/49 76/196/49
f 70/197/50 69/198/50 73/199/50 74/200/50
f 79/201/51 77/202/51 78/203/51 80/204/51
f 73/205/52 69/206/52 71/207/52 75/208/52
f 72/209/53 70/210/53 74/211/53 76/212/53
f 72/213/54 78/214/54 77/215/54 71/216/54
f 71/217/55 77/218/55 79/219/55 75/220/55
f 75/221/56 79/222/56 80/223/56 76/224/56
f 76/225/57 80/226/57 78/227/57 72/228/57
o north
v -0.0625 0.4375 -0.5
v -0.0625 0.5625 -0.5
v -0.0625 0.4375 0
v -0.0625 0.5625 0
v 0.0625 0.4375 -0.5
v 0.0625 0.5625 -0.5
v 0.0625 0.4375 0
v 0.0625 0.5625 0
vt 0.0625 1
vt 0.0625 0.96875
vt 0.171875 0.96875
vt 0.171875 1
vt 0.171875 0.96875
vt 0.0625 0.96875
vt 0.0625 1
vt 0.171875 1
vt 0.0625 0.921875
vt 0.09375 0.921875
vt 0.09375 0.953125
vt 0.0625 0.953125
vt 0 0.796875
vt 0 0.765625
vt 0.03125 0.765625
vt 0.03125 0.796875
vt 0.171875 1
vt 0.0625 1
vt 0.0625 0.96875
vt 0.171875 0.96875
vt 0.0625 0.96875
vt 0.0625 1
vt 0.171875 1
vt 0.171875 0.96875
vn -1 0 0
vn 1 0 0
vn 0 0 -1
vn 0 0 1
vn 0 -1 0
vn 0 1 0
usemtl m_16004e45-f770-2ceb-6186-12e525ac84e6
f 82/229/58 81/230/58 83/231/58 84/232/58
f 87/233/59 85/234/59 86/235/59 88/236/59
f 85/237/60 81/238/60 82/239/60 86/240/60
f 84/241/61 83/242/61 87/243/61 88/244/61
f 83/245/62 81/246/62 85/247/62 87/248/62
f 86/249/63 82/250/63 84/251/63 88/252/63
o south_down
v -0.03125 0.03125 0.09374999999999994
v -0.03125 0.09375 0.09374999999999994
v -0.03125 0.24999999999999994 0.42187499999999994
v -0.03125 0.31249999999999994 0.42187499999999994
v 0.03125 0.03125 0.09374999999999994
v 0.03125 0.09375 0.09374999999999994
v 0.03125 0.24999999999999994 0.42187499999999994
v 0.03125 0.31249999999999994 0.42187499999999994
v -0.03125 0.46874999999999983 1.5
v -0.03125 0.53125 1.5
v 0.03125 0.46874999999999983 1.5
v 0.03125 0.53125 1.5
v 0 0.3087087392637612 0.42298543456039805
v 0 0.48548543456039805 0.2462087392637612
v 0 0.26451456543960195 0.3787912607362388
v 0 0.4412912607362388 0.20201456543960195
vt 0.34375 0.3125
vt 0.34375 0.296875
vt 0.234375 0.296875
vt 0.234375 0.3125
vt 0.234375 0.296875
vt 0.34375 0.296875
vt 0.34375 0.3125
vt 0.234375 0.3125
vt 0.125 0.9375
vt 0.109375 0.9375
vt 0.109375 0.953125
vt 0.125 0.953125
vt 0.1875 0.890625
vt 0.1875 0.875
vt 0.171875 0.875
vt 0.171875 0.890625
vt 0.09375 0.7437734375
vt 0.09375 0.8423625
vt 0.109375 0.8423625
vt 0.109375 0.7437734375
vt 0.046875 0.8125
vt 0.0625 0.8125
vt 0.0625 0.7139109375
vt 0.046875 0.7139109375
vt 0 0.296875
vt 0 0.3125
vt 0.234375 0.3125
vt 0.234375 0.296875
vt 0.0625 0.4375
vt 0.046875 0.4375
vt 0.046875 0.7125234375
vt 0.0625 0.7125234375
vt 0 0.3125
vt 0 0.296875
vt 0.234375 0.296875
vt 0.234375 0.3125
vt 0.0625 0.4388875
vt 0.046875 0.4388875
vt 0.046875 0.7139109375
vt 0.0625 0.7139109375
vt 0 0.6875
vt 0 0.75
vt 0.015625 0.75
vt 0.015625 0.6875
vn -1 0 0
vn 1 0 0
vn 0 0 -1
vn 0 0 1
vn 0 -0.8320502943378438 0.554700196225229
vn 0 0.8320502943378438 -0.554700196225229
vn -1 0 0
vn 0 -0.9800305891237874 0.19884678619902924
vn 1 0 0
vn 0 0.9800305891237874 -0.19884678619902943
vn -1 0 0
usemtl m_16004e45-f770-2ceb-6186-12e525ac84e6
f 90/253/64 89/254/64 91/255/64 92/256/64
f 95/257/65 93/258/65 94/259/65 96/260/65
f 93/261/66 89/262/66 90/263/66 94/264/66
f 98/265/67 97/266/67 99/267/67 100/268/67
f 91/269/68 89/270/68 93/271/68 95/272/68
f 94/273/69 90/274/69 92/275/69 96/276/69
f 97/277/70 98/278/70 92/279/70 91/280/70
f 99/281/71 97/282/71 91/283/71 95/284/71
f 100/285/72 99/286/72 95/287/72 96/288/72
f 98/289/73 100/290/73 96/291/73 92/292/73
f 101/293/74 102/294/74 104/295/74 103/296/74
o south
v -0.0625 0.4375 0.5
v -0.0625 0.5625 0.5
v -0.0625 0.4375 0
v -0.0625 0.5625 0
v 0.0625 0.4375 0.5
v 0.0625 0.5625 0.5
v 0.0625 0.4375 0
v 0.0625 0.5625 0
vt 0.171875 0.96875
vt 0.0625 0.96875
vt 0.0625 1
vt 0.171875 1
vt 0.0625 1
vt 0.0625 0.96875
vt 0.171875 0.96875
vt 0.171875 1
vt 0.09375 0.953125
vt 0.09375 0.921875
vt 0.0625 0.921875
vt 0.0625 0.953125
vt 0.03125 0.765625
vt 0 0.765625
vt 0 0.796875
vt 0.03125 0.796875
vt 0.0625 0.96875
vt 0.0625 1
vt 0.171875 1
vt 0.171875 0.96875
vt 0.171875 1
vt 0.0625 1
vt 0.0625 0.96875
vt 0.171875 0.96875
vn -1 0 0
vn 1 0 0
vn 0 0 1
vn 0 0 -1
vn 0 -1 0
vn 0 1 0
usemtl m_16004e45-f770-2ceb-6186-12e525ac84e6
f 107/297/75 105/298/75 106/299/75 108/300/75
f 110/301/76 109/302/76 111/303/76 112/304/76
f 106/305/77 105/306/77 109/307/77 110/308/77
f 111/309/78 107/310/78 108/311/78 112/312/78
f 109/313/79 105/314/79 107/315/79 111/316/79
f 108/317/80 106/318/80 110/319/80 112/320/80
o none
v 0.05625 0.55625 0.05625
v 0.05625 0.55625 -0.05625
v 0.05625 0.44375 0.05625
v 0.05625 0.44375 -0.05625
v -0.05625 0.55625 0.05625
v -0.05625 0.55625 -0.05625
v -0.05625 0.44375 0.05625
v -0.05625 0.44375 -0.05625
vt 0.0625 0.953125
vt 0.09375 0.953125
vt 0.09375 0.921875
vt 0.0625 0.921875
vt 0.09375 0.921875
vt 0.09375 0.953125
vt 0.0625 0.953125
vt 0.0625 0.921875
vt 0.09375 0.953125
vt 0.0625 0.953125
vt 0.0625 0.921875
vt 0.09375 0.921875
vt 0.0625 0.921875
vt 0.0625 0.953125
vt 0.09375 0.953125
vt 0.09375 0.921875
vt 0.0625 0.921875
vt 0.0625 0.953125
vt 0.09375 0.953125
vt 0.09375 0.921875
vt 0.09375 0.953125
vt 0.0625 0.953125
vt 0.0625 0.921875
vt 0.09375 0.921875
vn 1 0 0
vn -1 0 0
vn 0 1 0
vn 0 -1 0
vn 0 0 1
vn 0 0 -1
usemtl m_16004e45-f770-2ceb-6186-12e525ac84e6
f 114/321/81 113/322/81 115/323/81 116/324/81
f 119/325/82 117/326/82 118/327/82 120/328/82
f 117/329/83 113/330/83 114/331/83 118/332/83
f 116/333/84 115/334/84 119/335/84 120/336/84
f 115/337/85 113/338/85 117/339/85 119/340/85
f 118/341/86 114/342/86 116/343/86 120/344/86
o base
v 0.125 1 0.125
v 0.125 1 -0.125
v 0.125 0 0.125
v 0.125 0 -0.125
v -0.125 1 0.125
v -0.125 1 -0.125
v -0.125 0 0.125
v -0.125 0 -0.125
vt 0.625 1
vt 0.5625 1
vt 0.5625 0.75
vt 0.625 0.75
vt 0.5625 0.75
vt 0.5625 1
vt 0.625 1
vt 0.625 0.75
vt 0.4375 0.609375
vt 0.5 0.609375
vt 0.5 0.546875
vt 0.4375 0.546875
vt 0.5 0.546875
vt 0.5 0.609375
vt 0.4375 0.609375
vt 0.4375 0.546875
vt 0.625 0.75
vt 0.625 1
vt 0.5625 1
vt 0.5625 0.75
vt 0.5625 1
vt 0.625 1
vt 0.625 0.75
vt 0.5625 0.75
vn 1 0 0
vn -1 0 0
vn 0 1 0
vn 0 -1 0
vn 0 0 1
vn 0 0 -1
usemtl m_16004e45-f770-2ceb-6186-12e525ac84e6
f 122/345/87 121/346/87 123/347/87 124/348/87
f 127/349/88 125/350/88 126/351/88 128/352/88
f 125/353/89 121/354/89 122/355/89 126/356/89
f 124/357/90 123/358/90 127/359/90 128/360/90
f 123/361/91 121/362/91 125/363/91 127/364/91
f 126/365/92 122/366/92 124/367/92 128/368/92