# Made in Blockbench 4.9.4
mtllib pole_streetlight.mtl

o body
v -0.25 0.40625 0.875
v -0.25 0.65625 0.875
v -0.25 0.65625 0.25
v -0.25 0.40625 0.25
v 0.25 0.65625 0.25
v 0.25 0.65625 0.875
v 0.25 0.40625 0.875
v 0.25 0.40625 0.25
v -0.1875 0.40625 0.25
v -0.1875 0.59375 0.25
v -0.1875 0.59375 0
v -0.1875 0.40625 0
v 0.1875 0.59375 0
v 0.1875 0.59375 0.25
v 0.1875 0.40625 0.25
v 0.1875 0.40625 0
v -0.0625 0.59375 0.1875
v -0.0625 0.65625 0.1875
v -0.0625 0.65625 0.0625
v -0.0625 0.59375 0.0625
v 0.0625 0.65625 0.0625
v 0.0625 0.65625 0.1875
v 0.0625 0.59375 0.1875
v 0.0625 0.59375 0.0625
v 0.0625 0.5625 0
v 0.0625 0.5625 -0.125
v 0.0625 0.4375 0
v 0.0625 0.4375 -0.125
v -0.0625 0.5625 0
v -0.0625 0.5625 -0.125
v -0.0625 0.4375 0
v -0.0625 0.4375 -0.125
vt 0 0.53125
vt 0 0.65625
vt 0.3125 0.65625
vt 0.3125 0.53125
vt 0.34375 0.65625
vt 0.65625 0.65625
vt 0.65625 0.53125
vt 0.34375 0.53125
vt 0.25 1
vt 0.25 0.6875
vt 0 0.6875
vt 0 1
vt 0.28125 1
vt 0.53125 1
vt 0.53125 0.6875
vt 0.28125 0.6875
vt 0.21875 0.5
vt 0.46875 0.5
vt 0.46875 0.375
vt 0.21875 0.375
vt 0.5 0.375
vt 0.5 0.5
vt 0.75 0.5
vt 0.75 0.375
vt 0.65625 0.15625
vt 0.65625 0.25
vt 0.78125 0.25
vt 0.78125 0.15625
vt 0.78125 1
vt 0.90625 1
vt 0.90625 0.90625
vt 0.78125 0.90625
vt 0.75 1
vt 0.75 0.875
vt 0.5625 0.875
vt 0.5625 1
vt 0.5625 0.84375
vt 0.75 0.84375
vt 0.75 0.71875
vt 0.5625 0.71875
vt 0.21875 0.34375
vt 0.40625 0.34375
vt 0.40625 0.25
vt 0.21875 0.25
vt 0.4375 0.25
vt 0.4375 0.34375
vt 0.625 0.34375
vt 0.625 0.25
vt 0.78125 0.46875
vt 0.78125 0.5
vt 0.84375 0.5
vt 0.84375 0.46875
vt 0.78125 0.4375
vt 0.84375 0.4375
vt 0.84375 0.40625
vt 0.78125 0.40625
vt 0.375 0.21875
vt 0.375 0.15625
vt 0.3125 0.15625
vt 0.3125 0.21875
vt 0.40625 0.21875
vt 0.46875 0.21875
vt 0.46875 0.15625
vt 0.40625 0.15625
vt 0 0.1875
vt 0.0625 0.1875
vt 0.0625 0.15625
vt 0 0.15625
vt 0.09375 0.15625
vt 0.09375 0.1875
vt 0.15625 0.1875
vt 0.15625 0.15625
vt 0.6875 0.71875
vt 0.6875 0.78125
vt 0.75 0.78125
vt 0.75 0.71875
vt 0.75 0.71875
vt 0.75 0.78125
vt 0.6875 0.78125
vt 0.6875 0.71875
vt 0.75 0.71875
vt 0.75 0.78125
vt 0.6875 0.78125
vt 0.6875 0.71875
vt 0.75 0.78125
vt 0.75 0.71875
vt 0.6875 0.71875
vt 0.6875 0.78125
vt 0.75 0.71875
vt 0.75 0.78125
vt 0.6875 0.78125
vt 0.6875 0.71875
vt 0.6875 0.71875
vt 0.6875 0.78125
vt 0.75 0.78125
vt 0.75 0.71875
vn -1 0 0
vn 1 0 0
vn 0 1 0
vn 0 -1 0
vn 0 0 1
vn 0 0 -1
vn -1 0 0
vn 1 0 0
vn 0 1 0
vn 0 -1 0
vn 0 0 1
vn 0 0 -1
vn -1 0 0
vn 1 0 0
vn 0 1 0
vn 0 -1 0
vn 0 0 1
vn 0 0 -1
vn 1 0 0
vn -1 0 0
vn 0 1 0
vn 0 -1 0
vn 0 0 1
vn 0 0 -1
usemtl m_faa81022-8aac-199b-bf39-3ed1a9ebe976
f 1/1/1 2/2/1 3/3/1 4/4/1
f 5/5/2 6/6/2 7/7/2 8/8/2
f 3/9/3 2/10/3 6/11/3 5/12/3
f 7/13/4 1/14/4 4/15/4 8/16/4
f 6/17/5 2/18/5 1/19/5 7/20/5
f 4/21/6 3/22/6 5/23/6 8/24/6
f 9/25/7 10/26/7 11/27/7 12/28/7
f 13/29/8 14/30/8 15/31/8 16/32/8
f 11/33/9 10/34/9 14/35/9 13/36/9
f 15/37/10 9/38/10 12/39/10 16/40/10
f 14/41/11 10/42/11 9/43/11 15/44/11
f 12/45/12 11/46/12 13/47/12 16/48/12
f 17/49/13 18/50/13 19/51/13 20/52/13
f 21/53/14 22/54/14 23/55/14 24/56/14
f 19/57/15 18/58/15 22/59/15 21/60/15
f 23/61/16 17/62/16 20/63/16 24/64/16
f 22/65/17 18/66/17 17/67/17 23/68/17
f 20/69/18 19/70/18 21/71/18 24/72/18
f 28/73/19 26/74/19 25/75/19 27/76/19
f 31/77/20 29/78/20 30/79/20 32/80/20
f 25/81/21 26/82/21 30/83/21 29/84/21
f 28/85/22 27/86/22 31/87/22 32/88/22
f 27/89/23 25/90/23 29/91/23 31/92/23
f 32/93/24 30/94/24 26/95/24 28/96/24
o &bulb
v -0.125 0.34375 0.75
v -0.125 0.40625 0.75
v -0.125 0.40625 0.5
v -0.125 0.34375 0.5
v 0.125 0.40625 0.5
v 0.125 0.40625 0.75
v 0.125 0.34375 0.75
v 0.125 0.34375 0.5
vt 0.78125 0.71875
vt 0.78125 0.75
vt 0.875 0.75
vt 0.875 0.71875
vt 0.5 0.21875
vt 0.59375 0.21875
vt 0.59375 0.1875
vt 0.5 0.1875
vt 0.84375 0.875
vt 0.84375 0.78125
vt 0.78125 0.78125
vt 0.78125 0.875
vt 0.21875 0.21875
vt 0.3125 0.21875
vt 0.3125 0.125
vt 0.21875 0.125
vt 0.8125 0.25
vt 0.90625 0.25
vt 0.90625 0.21875
vt 0.8125 0.21875
vt 0.8125 0.15625
vt 0.8125 0.1875
vt 0.90625 0.1875
vt 0.90625 0.15625
vn -1 0 0
vn 1 0 0
vn 0 1 0
vn 0 -1 0
vn 0 0 1
vn 0 0 -1
usemtl m_faa81022-8aac-199b-bf39-3ed1a9ebe976
f 33/97/25 34/98/25 35/99/25 36/100/25
f 37/101/26 38/102/26 39/103/26 40/104/26
f 35/105/27 34/106/27 38/107/27 37/108/27
f 39/109/28 33/110/28 36/111/28 40/112/28
f 38/113/29 34/114/29 33/115/29 39/116/29
f 36/117/30 35/118/30 37/119/30 40/120/30