# Blender v2.79 (sub 0) OBJ File: ''
# www.blender.org
mtllib pole_trafficsignal.mtl
o &CautionLight_FFFF00_FFFFF_110
v -0.125000 0.375000 0.219750
v 0.125000 0.375000 0.219750
v 0.125000 0.625000 0.219750
v -0.125000 0.625000 0.219750
vt 0.000000 0.250000
vt 0.250000 0.250000
vt 0.250000 0.500000
vt 0.000000 0.500000
vn 0.0000 -0.0000 1.0000
usemtl 0
s 1
f 1/1/1 2/2/1 3/3/1 4/4/1
o &StopLight_FF0000_FFFFF_110
v -0.125000 0.687500 0.219750
v 0.125000 0.687500 0.219750
v 0.125000 0.937500 0.219750
v -0.125000 0.937500 0.219750
vt 0.000000 0.500000
vt 0.250000 0.500000
vt 0.250000 0.750000
vt 0.000000 0.750000
vn 0.0000 -0.0000 1.0000
usemtl 0
s 1
f 5/5/2 6/6/2 7/7/2 8/8/2
o Base
v -0.131250 0.062500 0.250000
v -0.125000 0.062500 0.250000
v -0.125000 0.125000 0.250000
v -0.131250 0.125000 0.250000
v -0.125000 0.062500 0.187500
v -0.125000 0.125000 0.187500
v 0.125000 0.687500 0.187500
v 0.125000 0.687500 0.250000
v 0.125000 0.750000 0.250000
v 0.125000 0.750000 0.187500
v -0.131250 0.062500 0.187500
v 0.131250 0.687500 0.250000
v 0.131250 0.750000 0.250000
v 0.131250 0.687500 0.187500
v 0.131250 0.750000 0.187500
v 0.125000 0.375000 0.187500
v 0.125000 0.375000 0.250000
v 0.125000 0.437500 0.250000
v 0.125000 0.437500 0.187500
v 0.131250 0.375000 0.250000
v 0.131250 0.437500 0.250000
v 0.131250 0.375000 0.187500
v 0.131250 0.437500 0.187500
v 0.125000 0.437500 0.187500
v 0.125000 0.437500 0.312500
v 0.125000 0.500000 0.312500
v 0.125000 0.500000 0.187500
v 0.131250 0.437500 0.312500
v 0.131250 0.500000 0.312500
v 0.131250 0.437500 0.187500
v 0.131250 0.500000 0.187500
v -0.131250 0.318750 0.375000
v -0.125000 0.318750 0.375000
v -0.125000 0.318750 0.187500
v -0.131250 0.318750 0.187500
v -0.131250 0.187500 0.375000
v -0.125000 0.187500 0.375000
v -0.125000 0.187500 0.187500
v -0.131250 0.187500 0.187500
v 0.125000 0.062500 0.187500
v 0.125000 0.062500 0.250000
v 0.125000 0.125000 0.250000
v 0.125000 0.125000 0.187500
v 0.131250 0.062500 0.250000
v 0.131250 0.125000 0.250000
v 0.131250 0.062500 0.187500
v 0.131250 0.125000 0.187500
v -0.125000 0.943750 0.375000
v 0.125000 0.943750 0.375000
v 0.125000 0.943750 0.187500
v -0.125000 0.943750 0.187500
v -0.125000 0.937500 0.375000
v 0.125000 0.937500 0.375000
v 0.125000 0.937500 0.187500
v -0.125000 0.937500 0.187500
v 0.125000 0.943750 0.375000
v 0.131250 0.943750 0.375000
v 0.131250 0.943750 0.187500
v 0.125000 0.943750 0.187500
v 0.125000 0.812500 0.375000
v 0.131250 0.812500 0.375000
v 0.131250 0.812500 0.187500
v 0.125000 0.812500 0.187500
v -0.125000 0.631250 0.375000
v 0.125000 0.631250 0.375000
v 0.125000 0.631250 0.187500
v -0.125000 0.631250 0.187500
v -0.125000 0.625000 0.375000
v 0.125000 0.625000 0.375000
v 0.125000 0.625000 0.187500
v -0.125000 0.625000 0.187500
v 0.125000 0.125000 0.187500
v 0.125000 0.125000 0.312500
v 0.125000 0.187500 0.312500
v 0.125000 0.187500 0.187500
v 0.131250 0.125000 0.312500
v 0.131250 0.187500 0.312500
v 0.131250 0.125000 0.187500
v 0.131250 0.187500 0.187500
v -0.131250 0.943750 0.375000
v -0.125000 0.943750 0.375000
v -0.125000 0.943750 0.187500
v -0.131250 0.943750 0.187500
v -0.131250 0.812500 0.375000
v -0.125000 0.812500 0.375000
v -0.125000 0.812500 0.187500
v -0.131250 0.812500 0.187500
v 0.125000 0.631250 0.375000
v 0.131250 0.631250 0.375000
v 0.131250 0.631250 0.187500
v 0.125000 0.631250 0.187500
v 0.125000 0.500000 0.375000
v 0.131250 0.500000 0.375000
v 0.131250 0.500000 0.187500
v 0.125000 0.500000 0.187500
v -0.131250 0.437500 0.187500
v -0.131250 0.437500 0.312500
v -0.131250 0.500000 0.312500
v -0.131250 0.500000 0.187500
v -0.125000 0.437500 0.312500
v -0.125000 0.500000 0.312500
v -0.125000 0.437500 0.187500
v -0.125000 0.500000 0.187500
v -0.131250 0.750000 0.187500
v -0.131250 0.750000 0.312500
v -0.131250 0.812500 0.312500
v -0.131250 0.812500 0.187500
v -0.125000 0.750000 0.312500
v -0.125000 0.812500 0.312500
v -0.125000 0.750000 0.187500
v -0.125000 0.812500 0.187500
v -0.131250 0.125000 0.187500
v -0.131250 0.125000 0.312500
v -0.131250 0.187500 0.312500
v -0.131250 0.187500 0.187500
v -0.125000 0.125000 0.312500
v -0.125000 0.187500 0.312500
v -0.125000 0.125000 0.187500
v -0.125000 0.187500 0.187500
v 0.125000 0.750000 0.187500
v 0.125000 0.750000 0.312500
v 0.125000 0.812500 0.312500
v 0.125000 0.812500 0.187500
v 0.125000 0.625000 0.218750
v 0.125000 0.375000 0.218750
v 0.125000 0.625000 0.187500
v 0.125000 0.375000 0.187500
v -0.125000 0.625000 0.187500
v -0.125000 0.375000 0.187500
v -0.125000 0.625000 0.218750
v -0.125000 0.375000 0.218750
v 0.131250 0.750000 0.312500
v 0.131250 0.812500 0.312500
v 0.131250 0.750000 0.187500
v 0.131250 0.812500 0.187500
v -0.125000 0.318750 0.375000
v 0.125000 0.318750 0.375000
v 0.125000 0.318750 0.187500
v -0.125000 0.318750 0.187500
v 0.125000 0.312500 0.218750
v 0.125000 0.062500 0.218750
v 0.125000 0.312500 0.187500
v 0.125000 0.062500 0.187500
v -0.125000 0.312500 0.187500
v -0.125000 0.062500 0.187500
v -0.125000 0.312500 0.218750
v -0.125000 0.062500 0.218750
v -0.125000 0.312500 0.375000
v 0.125000 0.312500 0.375000
v 0.125000 0.312500 0.187500
v -0.125000 0.312500 0.187500
v -0.131250 0.375000 0.187500
v -0.131250 0.375000 0.250000
v -0.131250 0.437500 0.250000
v -0.131250 0.437500 0.187500
v -0.125000 0.375000 0.250000
v -0.125000 0.437500 0.250000
v -0.125000 0.375000 0.187500
v -0.125000 0.437500 0.187500
v 0.125000 0.318750 0.375000
v 0.131250 0.318750 0.375000
v 0.131250 0.318750 0.187500
v 0.125000 0.318750 0.187500
v 0.125000 0.187500 0.375000
v 0.131250 0.187500 0.375000
v 0.131250 0.187500 0.187500
v 0.125000 0.187500 0.187500
v -0.131250 0.631250 0.375000
v -0.125000 0.631250 0.375000
v -0.125000 0.631250 0.187500
v -0.131250 0.631250 0.187500
v -0.131250 0.500000 0.375000
v -0.125000 0.500000 0.375000
v -0.125000 0.500000 0.187500
v -0.131250 0.500000 0.187500
v -0.187500 1.000000 0.187500
v 0.187500 1.000000 0.187500
v 0.187500 1.000000 0.000000
v -0.187500 1.000000 0.000000
v 0.125000 0.937500 0.218750
v 0.125000 0.687500 0.218750
v 0.125000 0.937500 0.187500
v 0.125000 0.687500 0.187500
v -0.125000 0.937500 0.187500
v -0.125000 0.687500 0.187500
v -0.125000 0.937500 0.218750
v -0.125000 0.687500 0.218750
v -0.187500 -0.000000 0.187500
v 0.187500 -0.000000 0.187500
v 0.187500 0.000000 0.000000
v -0.187500 0.000000 0.000000
v -0.131250 0.687500 0.187500
v -0.131250 0.687500 0.250000
v -0.131250 0.750000 0.250000
v -0.131250 0.750000 0.187500
v -0.125000 0.687500 0.250000
v -0.125000 0.750000 0.250000
v -0.125000 0.687500 0.187500
v -0.125000 0.750000 0.187500
v -0.131250 0.125000 0.187500
v -0.125000 0.687500 0.218750
v 0.125000 0.687500 0.218750
v 0.125000 0.937500 0.218750
v -0.125000 0.937500 0.218750
v -0.125000 0.375000 0.218750
v 0.125000 0.375000 0.218750
v 0.125000 0.625000 0.218750
v -0.125000 0.625000 0.218750
v -0.125000 0.062500 0.218750
v 0.125000 0.062500 0.218750
v 0.125000 0.312500 0.218750
v -0.125000 0.312500 0.218750
vt 0.750000 0.937500
vt 0.756250 0.937500
vt 0.756250 1.000000
vt 0.750000 1.000000
vt 0.750000 0.937500
vt 0.812500 0.937500
vt 0.812500 1.000000
vt 0.750000 1.000000
vt 0.750000 0.937500
vt 0.812500 0.937500
vt 0.812500 1.000000
vt 0.750000 1.000000
vt 0.756250 1.000000
vt 0.750000 1.000000
vt 0.756250 0.937500
vt 0.750000 0.937500
vt 0.756250 0.937500
vt 0.756250 1.000000
vt 0.750000 1.000000
vt 0.750000 0.937500
vt 0.812500 0.937500
vt 0.812500 1.000000
vt 0.750000 1.000000
vt 0.750000 0.937500
vt 0.812500 0.937500
vt 0.812500 1.000000
vt 0.750000 1.000000
vt 0.756250 1.000000
vt 0.750000 1.000000
vt 0.756250 0.937500
vt 0.750000 0.937500
vt 0.756250 0.937500
vt 0.756250 1.000000
vt 0.750000 1.000000
vt 0.750000 0.937500
vt 0.812500 0.937500
vt 0.812500 1.000000
vt 0.750000 1.000000
vt 0.750000 0.937500
vt 0.875000 0.937500
vt 0.875000 1.000000
vt 0.750000 1.000000
vt 0.756250 1.000000
vt 0.750000 1.000000
vt 0.756250 0.937500
vt 0.750000 0.937500
vt 0.756250 0.937500
vt 0.756250 1.000000
vt 0.750000 1.000000
vt 0.750000 0.937500
vt 0.875000 0.937500
vt 0.875000 1.000000
vt 0.750000 1.000000
vt 0.756250 1.000000
vt 0.750000 1.000000
vt 0.750000 0.812500
vt 0.756250 0.812500
vt 0.756250 1.000000
vt 0.750000 1.000000
vt 0.750000 0.875000
vt 0.756250 0.875000
vt 0.750000 0.868750
vt 0.756250 0.868750
vt 0.756250 1.000000
vt 0.750000 1.000000
vt 0.750000 0.868750
vt 0.937500 0.868750
vt 0.937500 1.000000
vt 0.750000 0.868750
vt 0.937500 0.868750
vt 0.937500 1.000000
vt 0.750000 1.000000
vt 0.750000 0.937500
vt 0.812500 0.937500
vt 0.812500 1.000000
vt 0.750000 1.000000
vt 0.756250 1.000000
vt 0.750000 1.000000
vt 0.750000 0.812500
vt 0.756250 0.812500
vt 0.750000 0.937500
vt 0.756250 0.937500
vt 0.756250 1.000000
vt 0.750000 1.000000
vt 0.750000 0.937500
vt 0.812500 0.937500
vt 0.812500 1.000000
vt 0.750000 1.000000
vt 1.000000 1.000000
vt 0.750000 1.000000
vt 0.750000 0.812500
vt 1.000000 0.812500
vt 0.756250 1.000000
vt 0.750000 1.000000
vt 0.756250 0.937500
vt 0.750000 0.993750
vt 1.000000 0.993750
vt 1.000000 1.000000
vt 0.750000 1.000000
vt 0.750000 0.993750
vt 0.937500 0.993750
vt 0.937500 1.000000
vt 0.750000 0.993750
vt 0.937500 0.993750
vt 0.937500 1.000000
vt 0.750000 1.000000
vt 0.756250 1.000000
vt 0.750000 1.000000
vt 0.750000 0.812500
vt 0.756250 0.812500
vt 1.000000 1.000000
vt 0.750000 1.000000
vt 0.750000 0.812500
vt 1.000000 0.812500
vt 0.750000 0.868750
vt 0.756250 0.868750
vt 0.756250 1.000000
vt 0.750000 1.000000
vt 0.750000 0.868750
vt 0.937500 0.868750
vt 0.937500 1.000000
vt 0.750000 0.868750
vt 0.937500 0.868750
vt 0.937500 1.000000
vt 0.750000 1.000000
vt 1.000000 1.000000
vt 0.750000 1.000000
vt 0.750000 0.812500
vt 1.000000 0.812500
vt 0.756250 1.000000
vt 0.750000 1.000000
vt 0.750000 0.812500
vt 0.756250 0.812500
vt 0.750000 0.993750
vt 1.000000 0.993750
vt 1.000000 1.000000
vt 0.750000 1.000000
vt 0.750000 0.993750
vt 0.937500 0.993750
vt 0.937500 1.000000
vt 0.750000 0.993750
vt 0.937500 0.993750
vt 0.937500 1.000000
vt 0.750000 1.000000
vt 0.750000 0.937500
vt 0.875000 0.937500
vt 0.875000 1.000000
vt 0.750000 1.000000
vt 1.000000 1.000000
vt 0.750000 1.000000
vt 0.750000 0.812500
vt 1.000000 0.812500
vt 0.750000 0.937500
vt 0.756250 0.937500
vt 0.756250 1.000000
vt 0.750000 1.000000
vt 0.750000 0.937500
vt 0.875000 0.937500
vt 0.875000 1.000000
vt 0.750000 1.000000
vt 0.756250 1.000000
vt 0.750000 1.000000
vt 0.750000 0.812500
vt 0.756250 0.812500
vt 0.756250 1.000000
vt 0.750000 1.000000
vt 0.750000 0.875000
vt 0.756250 0.875000
vt 0.750000 0.868750
vt 0.756250 0.868750
vt 0.756250 1.000000
vt 0.750000 1.000000
vt 0.750000 0.868750
vt 0.937500 0.868750
vt 0.937500 1.000000
vt 0.750000 0.868750
vt 0.937500 0.868750
vt 0.937500 1.000000
vt 0.750000 1.000000
vt 0.756250 1.000000
vt 0.750000 1.000000
vt 0.750000 0.812500
vt 0.756250 0.812500
vt 0.756250 1.000000
vt 0.750000 1.000000
vt 0.750000 0.812500
vt 0.756250 0.812500
vt 0.750000 0.868750
vt 0.756250 0.868750
vt 0.756250 1.000000
vt 0.750000 1.000000
vt 0.750000 0.868750
vt 0.937500 0.868750
vt 0.937500 1.000000
vt 0.750000 0.868750
vt 0.937500 0.868750
vt 0.937500 1.000000
vt 0.750000 1.000000
vt 0.750000 0.937500
vt 0.875000 0.937500
vt 0.875000 1.000000
vt 0.750000 1.000000
vt 0.756250 1.000000
vt 0.750000 1.000000
vt 0.750000 0.812500
vt 0.756250 0.812500
vt 0.750000 0.937500
vt 0.756250 0.937500
vt 0.756250 1.000000
vt 0.750000 1.000000
vt 0.750000 0.937500
vt 0.875000 0.937500
vt 0.875000 1.000000
vt 0.750000 1.000000
vt 0.750000 0.937500
vt 0.875000 0.937500
vt 0.875000 1.000000
vt 0.750000 1.000000
vt 0.756250 1.000000
vt 0.750000 1.000000
vt 0.750000 0.875000
vt 0.756250 0.875000
vt 0.750000 0.937500
vt 0.756250 0.937500
vt 0.756250 1.000000
vt 0.750000 1.000000
vt 0.750000 0.937500
vt 0.875000 0.937500
vt 0.875000 1.000000
vt 0.750000 1.000000
vt 0.750000 0.937500
vt 0.875000 0.937500
vt 0.875000 1.000000
vt 0.750000 1.000000
vt 0.756250 1.000000
vt 0.750000 1.000000
vt 0.750000 0.875000
vt 0.756250 0.875000
vt 0.750000 0.937500
vt 0.756250 0.937500
vt 0.756250 1.000000
vt 0.750000 1.000000
vt 0.750000 0.937500
vt 0.875000 0.937500
vt 0.875000 1.000000
vt 0.750000 1.000000
vt 0.750000 0.937500
vt 0.875000 0.937500
vt 0.875000 1.000000
vt 0.750000 1.000000
vt 0.756250 1.000000
vt 0.750000 1.000000
vt 0.750000 0.875000
vt 0.756250 0.875000
vt 0.000000 0.500000
vt 0.000000 0.250000
vt 0.031250 0.500000
vt 0.031250 0.250000
vt 0.000000 0.500000
vt 0.000000 0.250000
vt 0.031250 0.500000
vt 0.031250 0.250000
vt 0.250000 0.468750
vt 0.250000 0.500000
vt 0.000000 0.468750
vt 0.250000 0.468750
vt 0.250000 0.500000
vt 0.000000 0.468750
vt 0.000000 0.500000
vt 0.750000 0.937500
vt 0.756250 0.937500
vt 0.756250 1.000000
vt 0.750000 1.000000
vt 0.750000 0.937500
vt 0.875000 0.937500
vt 0.875000 1.000000
vt 0.750000 1.000000
vt 1.000000 1.000000
vt 0.750000 1.000000
vt 0.750000 0.812500
vt 1.000000 0.812500
vt 0.756250 1.000000
vt 0.750000 1.000000
vt 0.750000 0.875000
vt 0.756250 0.875000
vt 0.000000 0.250000
vt 0.000000 0.000000
vt 0.031250 0.250000
vt 0.031250 0.000000
vt 0.000000 0.250000
vt 0.000000 0.000000
vt 0.031250 0.250000
vt 0.031250 0.000000
vt 0.250000 0.218750
vt 0.250000 0.250000
vt 0.000000 0.218750
vt 0.250000 0.218750
vt 0.250000 0.250000
vt 0.000000 0.218750
vt 0.000000 0.250000
vt 0.750000 0.993750
vt 1.000000 0.993750
vt 1.000000 1.000000
vt 0.750000 1.000000
vt 0.750000 0.993750
vt 0.937500 0.993750
vt 0.937500 1.000000
vt 0.750000 0.993750
vt 0.937500 0.993750
vt 0.937500 1.000000
vt 0.750000 1.000000
vt 0.750000 0.937500
vt 0.812500 0.937500
vt 0.812500 1.000000
vt 0.750000 1.000000
vt 1.000000 1.000000
vt 0.750000 1.000000
vt 0.750000 0.812500
vt 1.000000 0.812500
vt 0.750000 0.937500
vt 0.756250 0.937500
vt 0.756250 1.000000
vt 0.750000 1.000000
vt 0.750000 0.937500
vt 0.812500 0.937500
vt 0.812500 1.000000
vt 0.750000 1.000000
vt 0.756250 1.000000
vt 0.750000 1.000000
vt 0.750000 0.812500
vt 0.756250 0.812500
vt 0.756250 1.000000
vt 0.750000 1.000000
vt 0.756250 0.937500
vt 0.750000 0.868750
vt 0.756250 0.868750
vt 0.756250 1.000000
vt 0.750000 1.000000
vt 0.750000 0.868750
vt 0.937500 0.868750
vt 0.937500 1.000000
vt 0.750000 0.868750
vt 0.937500 0.868750
vt 0.937500 1.000000
vt 0.750000 1.000000
vt 0.756250 1.000000
vt 0.750000 1.000000
vt 0.750000 0.812500
vt 0.756250 0.812500
vt 0.756250 1.000000
vt 0.750000 1.000000
vt 0.750000 0.812500
vt 0.756250 0.812500
vt 0.750000 0.868750
vt 0.756250 0.868750
vt 0.756250 1.000000
vt 0.750000 1.000000
vt 0.750000 0.868750
vt 0.937500 0.868750
vt 0.937500 1.000000
vt 0.750000 0.868750
vt 0.937500 0.868750
vt 0.937500 1.000000
vt 0.750000 1.000000
vt 1.000000 0.093750
vt 0.812500 0.093750
vt 0.812500 0.000000
vt 1.000000 0.000000
vt 0.756250 1.000000
vt 0.750000 1.000000
vt 0.750000 0.812500
vt 0.756250 0.812500
vt 0.000000 0.750000
vt 0.000000 0.500000
vt 0.031250 0.750000
vt 0.031250 0.500000
vt 0.000000 0.750000
vt 0.000000 0.500000
vt 0.031250 0.750000
vt 0.031250 0.500000
vt 0.250000 0.718750
vt 0.250000 0.750000
vt 0.000000 0.718750
vt 0.250000 0.718750
vt 0.250000 0.750000
vt 0.000000 0.718750
vt 0.000000 0.750000
vt 0.812500 0.000000
vt 1.000000 0.000000
vt 1.000000 0.437500
vt 0.812500 0.437500
vt 0.906250 0.000000
vt 1.000000 0.000000
vt 1.000000 0.437500
vt 0.906250 0.437500
vt 0.812500 0.000000
vt 1.000000 0.000000
vt 1.000000 0.437500
vt 0.812500 0.437500
vt 0.750000 0.937500
vt 0.812500 0.937500
vt 0.812500 1.000000
vt 0.750000 1.000000
vt 0.812500 0.000000
vt 1.000000 0.093750
vt 0.812500 0.093750
vt 0.906250 0.000000
vt 1.000000 0.000000
vt 1.000000 0.437500
vt 0.906250 0.437500
vt 0.750000 0.937500
vt 0.756250 0.937500
vt 0.756250 1.000000
vt 0.750000 1.000000
vt 0.750000 0.937500
vt 0.812500 0.937500
vt 0.812500 1.000000
vt 0.750000 1.000000
vt 0.756250 1.000000
vt 0.750000 1.000000
vt 0.756250 0.937500
vt 0.750000 0.937500
vt 0.812500 0.937500
vt 0.812500 1.000000
vt 0.750000 1.000000
vt 0.000000 0.250000
vt 0.250000 0.250000
vt 0.250000 0.500000
vt 0.000000 0.500000
vt 0.000000 0.500000
vt 0.250000 0.500000
vt 0.250000 0.750000
vt 0.000000 0.750000
vt 0.000000 0.000000
vt 0.250000 0.000000
vt 0.250000 0.250000
vt 0.000000 0.250000
vn 0.0000 -0.0000 1.0000
vn 1.0000 0.0000 0.0000
vn -1.0000 0.0000 0.0000
vn 0.0000 -1.0000 -0.0000
vn 0.0000 1.0000 0.0000
vn 0.0000 0.0000 -1.0000
usemtl 0
s 1
f 9/9/3 10/10/3 11/11/3 12/12/3
f 10/13/4 13/14/4 14/15/4 11/16/4
f 15/17/5 16/18/5 17/19/5 18/20/5
f 19/21/6 13/22/6 10/13/6 9/23/6
f 16/24/3 20/25/3 21/26/3 17/27/3
f 20/28/4 22/29/4 23/30/4 21/31/4
f 24/32/5 25/33/5 26/34/5 27/35/5
f 15/36/6 22/37/6 20/28/6 16/38/6
f 25/39/3 28/40/3 29/41/3 26/42/3
f 28/43/4 30/44/4 31/45/4 29/46/4
f 32/47/5 33/48/5 34/49/5 35/50/5
f 24/51/6 30/52/6 28/43/6 25/53/6
f 33/54/3 36/55/3 37/56/3 34/57/3
f 36/58/4 38/59/4 39/60/4 37/61/4
f 40/62/7 41/63/7 42/64/7 43/65/7
f 32/66/6 38/67/6 36/68/6 33/69/6
f 44/70/3 45/71/3 41/72/3 40/73/3
f 45/74/4 46/75/4 42/76/4 41/63/4
f 47/77/5 44/78/5 40/79/5 43/80/5
f 48/81/5 49/82/5 50/83/5 51/84/5
f 47/85/6 46/86/6 45/87/6 44/88/6
f 49/89/3 52/90/3 53/91/3 50/92/3
f 52/93/4 54/94/4 55/95/4 53/96/4
f 56/97/7 57/98/7 58/99/7 59/100/7
f 48/101/6 54/102/6 52/93/6 49/103/6
f 60/104/3 61/105/3 57/106/3 56/107/3
f 61/108/4 62/109/4 58/110/4 57/98/4
f 63/111/5 60/112/5 56/113/5 59/114/5
f 64/115/7 65/116/7 66/117/7 67/118/7
f 63/119/6 62/120/6 61/121/6 60/122/6
f 68/123/3 69/124/3 65/125/3 64/126/3
f 69/127/4 70/128/4 66/129/4 65/116/4
f 71/130/5 68/131/5 64/132/5 67/133/5
f 72/134/7 73/135/7 74/136/7 75/137/7
f 71/138/6 70/139/6 69/140/6 68/141/6
f 76/142/3 77/143/3 73/144/3 72/145/3
f 77/146/4 78/147/4 74/148/4 73/135/4
f 79/149/5 76/150/5 72/151/5 75/152/5
f 80/153/5 81/154/5 82/155/5 83/156/5
f 79/157/6 78/158/6 77/159/6 76/160/6
f 81/161/3 84/162/3 85/163/3 82/164/3
f 84/165/4 86/166/4 87/167/4 85/168/4
f 88/169/7 89/170/7 90/171/7 91/172/7
f 80/173/6 86/174/6 84/175/6 81/176/6
f 92/177/3 93/178/3 89/179/3 88/180/3
f 93/181/4 94/182/4 90/183/4 89/170/4
f 95/184/5 92/185/5 88/186/5 91/187/5
f 96/188/7 97/189/7 98/190/7 99/191/7
f 95/192/6 94/193/6 93/194/6 92/195/6
f 100/196/3 101/197/3 97/198/3 96/199/3
f 101/200/4 102/201/4 98/202/4 97/189/4
f 103/203/5 100/204/5 96/205/5 99/206/5
f 104/207/5 105/208/5 106/209/5 107/210/5
f 103/211/6 102/212/6 101/213/6 100/214/6
f 105/215/3 108/216/3 109/217/3 106/218/3
f 108/219/4 110/220/4 111/221/4 109/222/4
f 112/223/5 113/224/5 114/225/5 115/226/5
f 104/227/6 110/228/6 108/229/6 105/230/6
f 113/231/3 116/232/3 117/233/3 114/234/3
f 116/235/4 118/236/4 119/237/4 117/238/4
f 120/239/5 121/240/5 122/241/5 123/242/5
f 112/243/6 118/244/6 116/245/6 113/246/6
f 121/247/3 124/248/3 125/249/3 122/250/3
f 124/251/4 126/252/4 127/253/4 125/254/4
f 128/255/5 129/256/5 130/257/5 131/258/5
f 120/259/6 126/260/6 124/261/6 121/262/6
f 132/263/4 133/264/4 134/265/4
f 133/264/4 135/266/4 134/265/4
f 136/267/5 137/268/5 138/269/5
f 137/268/5 139/270/5 138/269/5
f 136/271/7 138/272/7 134/273/7
f 138/272/7 132/263/7 134/273/7
f 139/274/6 137/275/6 133/276/6
f 137/275/6 135/277/6 133/276/6
f 129/278/3 140/279/3 141/280/3 130/281/3
f 140/282/4 142/283/4 143/284/4 141/285/4
f 144/286/7 145/287/7 146/288/7 147/289/7
f 128/290/6 142/291/6 140/292/6 129/293/6
f 148/294/4 149/295/4 150/296/4
f 149/295/4 151/297/4 150/296/4
f 152/298/5 153/299/5 154/300/5
f 153/299/5 155/301/5 154/300/5
f 152/302/7 154/303/7 150/304/7
f 154/303/7 148/294/7 150/304/7
f 155/305/6 153/306/6 149/307/6
f 153/306/6 151/308/6 149/307/6
f 156/309/3 157/310/3 145/311/3 144/312/3
f 157/313/4 158/314/4 146/315/4 145/287/4
f 159/316/5 156/317/5 144/318/5 147/319/5
f 160/320/5 161/321/5 162/322/5 163/323/5
f 159/324/6 158/325/6 157/326/6 156/327/6
f 161/328/3 164/329/3 165/330/3 162/331/3
f 164/332/4 166/333/4 167/334/4 165/335/4
f 168/336/7 169/337/7 170/338/7 171/339/7
f 160/340/6 166/341/6 164/332/6 161/342/6
f 172/343/3 173/344/3 169/345/3 168/346/3
f 173/347/4 174/348/4 170/349/4 169/337/4
f 175/350/5 172/351/5 168/352/5 171/353/5
f 176/354/7 177/355/7 178/356/7 179/357/7
f 175/358/6 174/359/6 173/360/6 172/361/6
f 180/362/3 181/363/3 177/364/3 176/365/3
f 181/366/4 182/367/4 178/368/4 177/355/4
f 183/369/5 180/370/5 176/371/5 179/372/5
f 184/373/7 185/374/7 186/375/7 187/376/7
f 183/377/6 182/378/6 181/379/6 180/380/6
f 188/381/4 189/382/4 190/383/4
f 189/382/4 191/384/4 190/383/4
f 192/385/5 193/386/5 194/387/5
f 193/386/5 195/388/5 194/387/5
f 192/389/7 194/390/7 190/391/7
f 194/390/7 188/381/7 190/391/7
f 195/392/6 193/393/6 189/394/6
f 193/393/6 191/395/6 189/394/6
f 196/396/3 197/397/3 185/398/3 184/399/3
f 197/400/4 198/401/4 186/402/4 185/403/4
f 198/404/8 199/405/8 187/406/8 186/407/8
f 200/408/5 201/409/5 202/410/5 203/411/5
f 199/412/6 198/401/6 197/413/6 196/414/6
f 199/415/5 196/416/5 184/417/5 187/418/5
f 201/419/3 204/420/3 205/421/3 202/422/3
f 204/423/4 206/424/4 207/425/4 205/426/4
f 200/427/6 206/428/6 204/423/6 201/429/6
f 19/430/5 9/431/5 12/432/5 208/433/5
usemtl 0.002
f 213/434/3 214/435/3 215/436/3 216/437/3
usemtl 0.001
f 209/438/3 210/439/3 211/440/3 212/441/3
usemtl 0.003
f 217/442/3 218/443/3 219/444/3 220/445/3
o &GoLight_00FF00_FFFFF_110
v -0.125000 0.062500 0.219750
v 0.125000 0.062500 0.219750
v 0.125000 0.312500 0.219750
v -0.125000 0.312500 0.219750
vt 0.000000 0.000000
vt 0.250000 0.000000
vt 0.250000 0.250000
vt 0.000000 0.250000
vn 0.0000 -0.0000 1.0000
usemtl 0
s 1
f 221/446/9 222/447/9 223/448/9 224/449/9
o &UnlinkedLight_FF0000_FFC00_110
v -0.125000 0.687500 0.219750
v 0.125000 0.687500 0.219750
v 0.125000 0.937500 0.219750
v -0.125000 0.937500 0.219750
vt 0.000000 0.500000
vt 0.250000 0.500000
vt 0.250000 0.750000
vt 0.000000 0.750000
vn 0.0000 -0.0000 1.0000
usemtl 0.004
s 1
f 225/450/10 226/451/10 227/452/10 228/453/10
