# Blender v2.79 (sub 0) OBJ File: ''
# www.blender.org
mtllib streetlight.mtl
o cube
v -0.125000 0.562500 0.437500
v 0.125000 0.562500 0.437500
v 0.125000 0.562500 0.125000
v -0.125000 0.562500 0.125000
v -0.125000 0.437500 0.437500
v 0.125000 0.437500 0.437500
v -0.125000 0.406250 0.437500
v 0.125000 0.406250 0.437500
v 0.125000 0.437500 0.437500
v -0.125000 0.437500 0.437500
v 0.125000 0.406250 0.187500
v -0.125000 0.406250 0.187500
v -0.125000 0.437500 0.187500
v 0.125000 0.437500 0.187500
v -0.125000 0.437500 0.125000
v 0.125000 0.437500 0.125000
v -0.062500 0.437500 0.000000
v -0.062500 0.437500 0.125000
v -0.062500 0.562500 0.125000
v -0.062500 0.562500 0.000000
v 0.062500 0.437500 0.000000
v 0.062500 0.562500 0.000000
v 0.062500 0.437500 0.125000
v 0.062500 0.562500 0.125000
vt 1.000000 0.156250
vt 0.875000 0.156250
vt 0.875000 0.000000
vt 1.000000 0.000000
vt 0.875000 0.000000
vt 1.000000 0.000000
vt 1.000000 0.062500
vt 0.875000 0.062500
vt 0.125000 0.750000
vt 0.250000 0.750000
vt 0.250000 0.781250
vt 0.125000 0.781250
vt 0.093750 0.781250
vt 0.218750 0.781250
vt 0.218750 0.812500
vt 0.093750 0.812500
vt 1.000000 0.156250
vt 0.875000 0.156250
vt 0.875000 0.000000
vt 1.000000 0.000000
vt 0.000000 0.843750
vt 0.250000 0.843750
vt 0.250000 0.875000
vt 0.000000 0.875000
vt 0.843750 0.125000
vt 0.906250 0.125000
vt 0.906250 0.187500
vt 0.843750 0.187500
vt 0.843750 0.000000
vt 1.000000 0.062500
vt 0.843750 0.062500
vt 0.843750 0.125000
vt 0.906250 0.125000
vt 0.906250 0.187500
vt 0.843750 0.187500
vt 0.843750 0.125000
vt 0.906250 0.125000
vt 0.906250 0.187500
vt 0.843750 0.187500
vt 0.906250 0.187500
vt 0.843750 0.187500
vt 0.781250 0.000000
vt 1.000000 0.000000
vt 1.000000 0.093750
vt 0.781250 0.093750
vt 0.843750 0.000000
vt 1.000000 0.000000
vt 1.000000 0.062500
vt 0.843750 0.062500
vt 0.000000 0.937500
vt 0.250000 0.937500
vt 0.250000 0.968750
vt 0.000000 0.968750
vt 0.843750 0.125000
vt 0.906250 0.125000
vn 0.0000 1.0000 0.0000
vn 0.0000 -0.0000 1.0000
vn 0.0000 0.0000 -1.0000
vn 0.0000 -1.0000 -0.0000
vn 1.0000 0.0000 0.0000
vn -1.0000 0.0000 0.0000
usemtl 0
s 1
f 1/1/1 2/2/1 3/3/1 4/4/1
f 5/5/2 6/6/2 2/7/2 1/8/2
f 7/9/2 8/10/2 9/11/2 10/12/2
f 11/13/3 12/14/3 13/15/3 14/16/3
f 15/17/4 16/18/4 6/19/4 5/20/4
f 8/21/5 11/22/5 14/23/5 9/24/5
f 17/25/6 18/26/6 19/27/6 20/28/6
f 15/29/6 5/20/6 1/30/6 4/31/6
f 21/32/3 17/33/3 20/34/3 22/35/3
f 23/36/5 21/37/5 22/38/5 24/39/5
f 17/40/4 21/41/4 23/36/4 18/26/4
f 16/42/3 15/43/3 4/44/3 3/45/3
f 6/46/5 16/47/5 3/48/5 2/49/5
f 12/50/6 7/51/6 10/52/6 13/53/6
f 19/27/1 24/39/1 22/54/1 20/55/1
o &StreetLight_FFFFFF_FFFFF_111
v -0.125000 0.406250 0.187500
v 0.125000 0.406250 0.187500
v 0.125000 0.406250 0.437500
v -0.125000 0.406250 0.437500
vt 0.125000 1.000000
vt 0.000000 1.000000
vt 0.000000 0.750000
vt 0.125000 0.750000
vn 0.0000 -1.0000 -0.0000
usemtl 0
s 1
f 25/56/7 26/57/7 27/58/7 28/59/7
